<?xml version="1.0" standalone="no"?>
<!DOCTYPE svg PUBLIC "-//W3C//DTD SVG 1.1//EN" "http://www.w3.org/Graphics/SVG/1.1/DTD/svg11.dtd" >
<svg xmlns="http://www.w3.org/2000/svg" xmlns:xlink="http://www.w3.org/1999/xlink" version="1.1">
<metadata>
Created by FontForge 20170731 at Sun Apr  5 05:51:58 2015
 By Aleksey,,,
This rendition (C) 1998 Andrew C. Bul+hac?k. Freely distributable.
</metadata>
<defs>
<font id="ModeSeven" horiz-adv-x="780" >
  <font-face 
    font-family="ModeSeven"
    font-weight="400"
    font-stretch="normal"
    units-per-em="1000"
    panose-1="0 0 4 9 0 0 0 0 0 0"
    ascent="800"
    descent="-200"
    x-height="500"
    cap-height="700"
    bbox="-13 -200 793 806"
    underline-thickness="20"
    underline-position="-263"
    unicode-range="U+0001-E37F"
  />
<missing-glyph 
d="M130 0v800h650v-800h-650zM260 100h390v600h-390v-600z" />
    <glyph glyph-name=".notdef" 
d="M130 0v800h650v-800h-650zM260 100h390v600h-390v-600z" />
    <glyph glyph-name=".null" horiz-adv-x="936" 
 />
    <glyph glyph-name="nonmarkingreturn" horiz-adv-x="936" 
 />
    <glyph glyph-name="uni0000" 
 />
    <glyph glyph-name="uni0000" 
 />
    <glyph glyph-name="uni0001" 
 />
    <glyph glyph-name="uni0002" 
 />
    <glyph glyph-name="uni0003" 
 />
    <glyph glyph-name="uni0004" 
 />
    <glyph glyph-name="uni0005" 
 />
    <glyph glyph-name="uni0006" 
 />
    <glyph glyph-name="uni0007" 
 />
    <glyph glyph-name="uni0008" 
 />
    <glyph glyph-name="uni0009" unicode="&#x9;" 
 />
    <glyph glyph-name="uni000A" unicode="&#xa;" 
 />
    <glyph glyph-name="uni000B" 
 />
    <glyph glyph-name="uni000C" 
 />
    <glyph glyph-name="uni000D" unicode="&#xd;" 
 />
    <glyph glyph-name="uni000E" 
 />
    <glyph glyph-name="uni000F" 
 />
    <glyph glyph-name="uni0010" 
 />
    <glyph glyph-name="uni0011" 
 />
    <glyph glyph-name="uni0012" 
 />
    <glyph glyph-name="uni0013" 
 />
    <glyph glyph-name="uni0014" 
 />
    <glyph glyph-name="uni0015" 
 />
    <glyph glyph-name="uni0016" 
 />
    <glyph glyph-name="uni0017" 
 />
    <glyph glyph-name="uni0018" 
 />
    <glyph glyph-name="uni0019" 
 />
    <glyph glyph-name="uni001A" 
 />
    <glyph glyph-name="uni001B" 
 />
    <glyph glyph-name="uni001C" 
 />
    <glyph glyph-name="uni001D" 
 />
    <glyph glyph-name="uni001E" 
 />
    <glyph glyph-name="uni001F" 
 />
    <glyph glyph-name="space" unicode=" " 
 />
    <glyph glyph-name="exclam" unicode="!" 
d="M520 200h-130v500h130v-500zM520 0h-130v100h130v-100z" />
    <glyph glyph-name="quotedbl" unicode="&#x22;" 
d="M650 400h-130v300h130v-300zM390 400h-130v300h130v-300z" />
    <glyph glyph-name="numbersign" unicode="#" 
d="M390 300h130v100h-130v-100zM780 200h-130v-200h-130v200h-130v-200h-130v200h-130v100h130v100h-130v100h130v200h130v-200h130v200h130v-200h130v-100h-130v-100h130v-100z" />
    <glyph glyph-name="dollar" unicode="$" 
d="M780 100h-65v-50h-65v-50h-390v50h-65v50h-65v100h130v-50h65v-50h65v200h-130v50h-65v50h-65v200h65v50h65v50h390v-50h65v-50h65v-100h-130v50h-65v50h-65v-200h130v-50h65v-50h65v-200zM390 400v200h-65v-50h-65v-100h65v-50h65zM650 150v100h-65v50h-65v-200h65v50
h65z" />
    <glyph glyph-name="percent" unicode="%" 
d="M650 600h130v-100h-65v-50h-65v-50h-65v-50h-65v-50h-65v-50h-65v-50h-65v-50h-65v-50h-130v100h65v50h65v50h65v50h65v50h65v50h65v50h65v50h65v50zM130 700h260v-200h-260v200zM780 200v-200h-260v200h260z" />
    <glyph glyph-name="ampersand" unicode="&#x26;" 
d="M455 100v100h-65v50h-130v-100h65v-50h130zM390 550h-130v-100h130v100zM650 300h130v-100h-65v-100h65v-100h-130v50h-130v-50h-260v50h-65v50h-65v200h65v100h-65v200h65v50h65v50h130v-50h65v-50h65v-200h-65v-100h65v-50h130v50z" />
    <glyph glyph-name="quotesingle" unicode="'" 
d="M390 700h130v-300h-130v300z" />
    <glyph glyph-name="parenleft" unicode="(" 
d="M520 700h130v-100h-65v-50h-65v-50h-65v-50h-65v-200h65v-50h65v-50h65v-50h65v-100h-130v50h-65v50h-65v50h-65v50h-65v300h65v50h65v50h65v50h65v50z" />
    <glyph glyph-name="parenright" unicode=")" 
d="M650 200h-65v-50h-65v-50h-65v-50h-65v-50h-130v100h65v50h65v50h65v50h65v200h-65v50h-65v50h-65v50h-65v100h130v-50h65v-50h65v-50h65v-50h65v-300z" />
    <glyph glyph-name="asterisk" unicode="*" 
d="M780 100h-130v50h-65v50h-65v-200h-130v200h-65v-50h-65v-50h-130v100h65v50h65v50h130v100h-130v50h-65v50h-65v100h130v-50h65v-50h65v200h130v-200h65v50h65v50h130v-100h-65v-50h-65v-50h-130v-100h130v-50h65v-50h65v-100z" />
    <glyph glyph-name="plus" unicode="+" 
d="M780 300h-260v-200h-130v200h-260v100h260v200h130v-200h260v-100z" />
    <glyph glyph-name="comma" unicode="," 
d="M260 0h65v50h65v150h130v-200h-65v-50h-65v-50h-130v100z" />
    <glyph glyph-name="hyphen" unicode="-" 
d="M650 300h-390v100h390v-100z" />
    <glyph glyph-name="hyphen" unicode="&#x2010;" 
d="M650 300h-390v100h390v-100z" />
    <glyph glyph-name="period" unicode="." 
d="M390 100h130v-100h-130v100z" />
    <glyph glyph-name="slash" unicode="/" 
d="M780 500h-65v-50h-65v-50h-65v-50h-65v-50h-65v-50h-65v-50h-65v-50h-65v-50h-130v100h65v50h65v50h65v50h65v50h65v50h65v50h65v50h65v50h130v-100z" />
    <glyph glyph-name="zero" unicode="0" 
d="M585 500h-65v50h-130v-50h-65v-50h-65v-200h65v-50h65v-50h130v50h65v50h65v200h-65v50zM585 600h65v-50h65v-50h65v-300h-65v-50h-65v-50h-65v-50h-65v-50h-130v50h-65v50h-65v50h-65v50h-65v300h65v50h65v50h65v50h65v50h130v-50h65v-50z" />
    <glyph glyph-name="one" unicode="1" 
d="M390 600v100h130v-600h130v-100h-390v100h130v400h-130v100h130z" />
    <glyph glyph-name="two" unicode="2" 
d="M195 650h65v50h390v-50h65v-50h65v-200h-65v-50h-65v-50h-195v-50h-65v-50h-65v-50h-65v-50h520v-100h-650v200h65v50h65v50h65v50h65v50h195v50h65v100h-65v50h-260v-50h-65v-50h-130v100h65v50z" />
    <glyph glyph-name="three" unicode="3" 
d="M780 100h-65v-50h-65v-50h-390v50h-65v50h-65v100h130v-50h65v-50h260v50h65v100h-65v50h-195v100h130v100h65v50h65v50h-520v100h650v-200h-65v-50h-65v-100h65v-50h65v-200z" />
    <glyph glyph-name="four" unicode="4" 
d="M520 500h-65v-50h-65v-50h-65v-50h-65v-50h260v200zM520 600v100h130v-400h130v-100h-130v-200h-130v200h-390v200h65v50h65v50h65v50h65v50h130z" />
    <glyph glyph-name="five" unicode="5" 
d="M780 700v-100h-520v-100h390v-50h65v-50h65v-300h-65v-50h-65v-50h-390v50h-65v50h-65v100h130v-50h65v-50h260v50h65v200h-65v50h-455v300h650z" />
    <glyph glyph-name="six" unicode="6" 
d="M780 100h-65v-50h-65v-50h-390v50h-65v50h-65v400h65v50h65v50h65v50h65v50h260v-100h-195v-50h-65v-50h-65v-50h-65v-50h390v-50h65v-50h65v-200zM650 150v100h-65v50h-325v-150h65v-50h260v50h65z" />
    <glyph glyph-name="seven" unicode="7" 
d="M780 500h-65v-50h-65v-50h-65v-50h-65v-50h-65v-50h-65v-250h-130v300h65v50h65v50h65v50h65v50h65v50h65v50h-520v100h650v-200z" />
    <glyph glyph-name="eight" unicode="8" 
d="M780 100h-65v-50h-65v-50h-390v50h-65v50h-65v200h65v100h-65v200h65v50h65v50h390v-50h65v-50h65v-200h-65v-100h65v-200zM650 450v100h-65v50h-260v-50h-65v-100h65v-50h260v50h65zM650 150v100h-65v50h-260v-50h-65v-100h65v-50h260v50h65z" />
    <glyph glyph-name="nine" unicode="9" 
d="M650 300h-390v50h-65v50h-65v200h65v50h65v50h390v-50h65v-50h65v-400h-65v-50h-65v-50h-65v-50h-65v-50h-260v100h195v50h65v50h65v50h65v50zM325 400h325v150h-65v50h-260v-50h-65v-100h65v-50z" />
    <glyph glyph-name="colon" unicode=":" 
d="M520 400h-130v100h130v-100zM520 0h-130v100h130v-100z" />
    <glyph glyph-name="semicolon" unicode=";" 
d="M520 400h-130v100h130v-100zM520 0h-65v-50h-65v-50h-130v100h65v50h65v150h130v-200z" />
    <glyph glyph-name="less" unicode="&#x3c;" 
d="M650 0h-130v50h-65v50h-65v50h-65v50h-65v50h-65v50h-65v100h65v50h65v50h65v50h65v50h65v50h65v50h130v-100h-65v-50h-65v-50h-65v-50h-65v-50h-65v-100h65v-50h65v-50h65v-50h65v-50h65v-100z" />
    <glyph glyph-name="equal" unicode="=" 
d="M780 400h-650v100h650v-100zM780 200h-650v100h650v-100z" />
    <glyph glyph-name="greater" unicode="&#x3e;" 
d="M780 300h-65v-50h-65v-50h-65v-50h-65v-50h-65v-50h-65v-50h-130v100h65v50h65v50h65v50h65v50h65v100h-65v50h-65v50h-65v50h-65v50h-65v100h130v-50h65v-50h65v-50h65v-50h65v-50h65v-50h65v-100z" />
    <glyph glyph-name="question" unicode="?" 
d="M390 400h65v50h65v50h65v100h-260v-50h-65v-50h-130v100h65v50h65v50h390v-50h65v-50h65v-100h-65v-50h-65v-50h-65v-50h-65v-150h-130v200zM390 100h130v-100h-130v100z" />
    <glyph glyph-name="at" unicode="@" 
d="M650 400h-130v-100h130v100zM650 500v50h-65v50h-260v-50h-65v-400h65v-50h325v-100h-390v50h-65v50h-65v500h65v50h65v50h390v-50h65v-50h65v-400h-390v300h260z" />
    <glyph glyph-name="A" unicode="A" 
d="M260 450v-150h390v150h-65v50h-65v50h-130v-50h-65v-50h-65zM780 0h-130v200h-390v-200h-130v500h65v50h65v50h65v50h65v50h130v-50h65v-50h65v-50h65v-50h65v-500z" />
    <glyph glyph-name="B" unicode="B" 
d="M650 450v100h-65v50h-325v-200h325v50h65zM650 50v-50h-520v700h520v-50h65v-50h65v-200h-65v-100h65v-200h-65v-50h-65zM585 100v50h65v100h-65v50h-325v-200h325z" />
    <glyph glyph-name="C" unicode="C" 
d="M650 650h65v-50h65v-100h-130v50h-65v50l-260 -2v-48h-65v-400h65v-50h260v50h65v50h130v-100h-65v-50h-65v-50h-390v50h-65v50h-65v500h65v50h65v50h390v-50z" />
    <glyph glyph-name="D" unicode="D" 
d="M585 150h65v400h-65v50h-325v-500h325v50zM650 650h65v-50h65v-500h-65v-50h-65v-50h-520v700h520v-50z" />
    <glyph glyph-name="E" unicode="E" 
d="M780 0h-650v700h650v-100h-520v-200h390v-100h-390v-200h520v-100z" />
    <glyph glyph-name="F" unicode="F" 
d="M780 600h-520v-200h390v-100h-390v-300h-130v700h650v-100z" />
    <glyph glyph-name="G" unicode="G" 
d="M260 200h65v-50h65v-50h260v100h-130v100h260v-300h-520v50h-65v50h-65v500h65v50h65v50h390v-50h65v-50h65v-100h-130v50h-65v50h-260v-50h-65v-350z" />
    <glyph glyph-name="H" unicode="H" 
d="M780 0h-130v300h-390v-300h-130v700h130v-300h390v300h130v-700z" />
    <glyph glyph-name="I" unicode="I" 
d="M520 600v-500h130v-100h-390v100h130v500h-130v100h390v-100h-130z" />
    <glyph glyph-name="J" unicode="J" 
d="M650 700h130v-600h-65v-50h-65v-50h-390v50h-65v50h-65v100h130v-50h65v-50h260v50h65v550z" />
    <glyph glyph-name="K" unicode="K" 
d="M650 150h65v-50h65v-100h-130v50h-65v50h-65v50h-65v50h-65v50h-65v50h-65v-300h-130v700h130v-300h65v50h65v50h65v50h65v50h65v50h65v50h130v-100h-65v-50h-65v-50h-65v-50h-65v-50h-65v-100h65v-50h65v-50h65v-50z" />
    <glyph glyph-name="L" unicode="L" 
d="M780 0h-650v700h130v-600h520v-100z" />
    <glyph glyph-name="M" unicode="M" 
d="M650 700h130v-700h-130v500h-65v-50h-65v-150h-130v150h-65v50h-65v-500h-130v700h130v-100h130v-50h130v50h130v100z" />
    <glyph glyph-name="N" unicode="N" 
d="M780 0h-130l-1 200h-129v50h-65v50h-65v50h-65v50h-65v-400h-130v700h130v-200h130v-50h65v-50h65v-50h65v-50h65v400h130v-700z" />
    <glyph glyph-name="O" unicode="O" 
d="M260 50h-65v50h-65v500h65v50h65v50h390v-50h65v-50h65v-500h-65v-50h-65v-50h-390v50zM260 150h65v-50h260v50h65v400h-65v50h-260v-50h-65v-400z" />
    <glyph glyph-name="P" unicode="P" 
d="M585 600h-325v-200h325v50h65v100h-65v50zM650 700v-50h65v-50h65v-200h-65v-50h-65v-50h-390v-300h-130v700h520z" />
    <glyph glyph-name="Q" unicode="Q" 
d="M715 200v-100h65v-100h-130v50h-130v-50h-260v50h-65v50h-65v500h65v50h65v50h390v-50h65v-50h65v-400h-65zM650 550h-65v50h-260v-50h-65v-400h65v-50h130v100h-65v100h130v-50h130v300z" />
    <glyph glyph-name="R" unicode="R" 
d="M260 400h325v50h65v100h-65v50h-325v-200zM715 100h65v-100h-130v50h-65v50h-65v50h-65v50h-65v99l-130 1v-300h-130v700h520v-50h65v-50h65v-200h-65v-50h-65v-50h-130v-50h65v-50h65v-50h65v-50z" />
    <glyph glyph-name="S" unicode="S" 
d="M260 150h65v-50h260v50h65v100h-65v50h-325v50h-65v50h-65v200h65v50h65v50h390v-50h65v-50h65v-100h-130v50h-65v50h-260v-50h-65v-100h65v-50h325v-50h65v-50h65v-200h-65v-50h-65v-50h-390v50h-65v50h-65v100h130v-50z" />
    <glyph glyph-name="T" unicode="T" 
d="M520 0h-130v600h-260v100h650v-100h-260v-600z" />
    <glyph glyph-name="U" unicode="U" 
d="M650 700h130v-600h-65v-50h-65v-50h-390v50h-65v50h-65v600h130v-550h65v-50h260v50h65v550z" />
    <glyph glyph-name="V" unicode="V" 
d="M650 700h130v-300h-65v-50h-65v-150h-65v-50h-65v-150h-130v150h-65v50h-65v150h-65v50h-65v300h130v-250h65v-50h65v-150h130v150h65v50h65v250z" />
    <glyph glyph-name="W" unicode="W" 
d="M520 150h130v550h130v-600h-65v-50h-65v-50h-130v50h-130v-50h-130v50h-65v50h-65v600h130v-550h130v250h130v-250z" />
    <glyph glyph-name="X" unicode="X" 
d="M585 300h65v-50h65v-50h65v-200h-130v150h-65v50h-65v50h-130v-50h-65v-50h-65v-150h-130v200h65v50h65v50h65v100h-65v50h-65v50h-65v200h130v-150h65v-50h65v-50h130v50h65v50h65v150h130v-200h-65v-50h-65v-50h-65v-100z" />
    <glyph glyph-name="Y" unicode="Y" 
d="M520 350v-350h-130v350h-65v50h-65v50h-65v50h-65v200h130v-150h65v-50h65v-50h130v50h65v50h65v150h130v-200h-65v-50h-65v-50h-65v-50h-65z" />
    <glyph glyph-name="Z" unicode="Z" 
d="M780 500h-65v-50h-65v-50h-65v-50h-65v-50h-65v-50h-65v-50h-65v-50h-65v-50h520v-100h-650v200h65v50h65v50h65v50h65v50h65v50h65v50h65v50h65v50h-520v100h650v-200z" />
    <glyph glyph-name="bracketleft" unicode="[" 
d="M390 100v50h-65v50h-65v100h-130v100h130v100h65v50h65v50h130v-100h-65v-50h-65v-50h390v-100h-390v-50h65v-50h65v-100h-130z" />
    <glyph glyph-name="backslash" unicode="\" 
d="M260 600v-50h65v-50h65v-50h65v-50h65v-50h65v-50h65v-50h65v-50h65v-100h-130v50h-65v50h-65v50h-65v50h-65v50h-65v50h-65v50h-65v50h-65v100h130z" />
    <glyph glyph-name="bracketright" unicode="]" 
d="M780 300h-130v-100h-65v-50h-65v-50h-130v100h65v50h65v50h-390v100h390v50h-65v50h-65v100h130v-50h65v-50h65v-100h130v-100z" />
    <glyph glyph-name="asciicircum" unicode="^" 
d="M650 450h65v-50h65v-100h-130v50h-65v50h-65v-300h-130v300h-65v-50h-65v-50h-130v100h65v50h65v50h130v100h130v-100h130v-50z" />
    <glyph glyph-name="underscore" unicode="_" 
d="M130 0h650v-100h-650v100z" />
    <glyph glyph-name="grave" unicode="`" 
d="M130 400h650v-100h-650v100z" />
    <glyph glyph-name="a" unicode="a" 
d="M325 200v-100h325v100h-325zM195 250h65v50h390v50h-65v50h-325v100h390v-50h65v-50h65v-400h-520v50h-65v50h-65v100h65v50z" />
    <glyph glyph-name="b" unicode="b" 
d="M585 400h-325v-300h325v50h65v200h-65v50zM260 500h390v-50h65v-50h65v-300h-65v-50h-65v-50h-520v700h130v-200z" />
    <glyph glyph-name="c" unicode="c" 
d="M325 100h455v-100h-520v50h-65v50h-65v300h65v50h65v50h520v-100h-455v-50h-65v-200h65v-50z" />
    <glyph glyph-name="d" unicode="d" 
d="M650 400h-325v-50h-65v-200h65v-50h325v300zM260 500h390v200h130v-700h-520v50h-65v50h-65v300h65v50h65v50z" />
    <glyph glyph-name="e" unicode="e" 
d="M325 400v-50h-65v-50h390v50h-65v50h-260zM195 450h65v50h390v-50h65v-50h65v-200h-520v-50h65v-50h325v-100h-390v50h-65v50h-65v300h65v50z" />
    <glyph glyph-name="f" unicode="f" 
d="M260 400h130v200h65v50h65v50h130v-100h-65v-50h-65v-150h130v-100h-130v-300h-130v300h-130v100z" />
    <glyph glyph-name="g" unicode="g" 
d="M650 400h-325v-50h-65v-200h65v-50h325v300zM260 500h520v-600h-65v-50h-65v-50h-390v100h325v50h65v50h-390v50h-65v50h-65v300h65v50h65v50z" />
    <glyph glyph-name="h" unicode="h" 
d="M260 500h390v-50h65v-50h65v-400h-130v350h-65v50h-325v-400h-130v700h130v-200z" />
    <glyph glyph-name="i" unicode="i" 
d="M390 700h130v-100h-130v100zM260 100h130v300h-130v100h260v-400h130v-100h-390v100z" />
    <glyph glyph-name="j" unicode="j" 
d="M390 700h130v-100h-130v100zM325 -50h65v550h130v-600h-65v-50h-65v-50h-130v100h65v50z" />
    <glyph glyph-name="k" unicode="k" 
d="M390 300h65v50h65v50h65v50h65v50h130v-100h-65v-50h-65v-50h-65v-100h65v-50h65v-50h65v-100h-130v50h-65v50h-65v50h-65v50h-65v-200h-130v700h130v-400z" />
    <glyph glyph-name="l" unicode="l" 
d="M260 700h260v-600h130v-100h-390v100h130v500h-130v100z" />
    <glyph glyph-name="m" unicode="m" 
d="M520 350v-350h-130v350h-65v50h-65v-400h-130v500h260v-50h130v50h130v-50h65v-50h65v-400h-130v350h-130z" />
    <glyph glyph-name="n" unicode="n" 
d="M260 0h-130v500h520v-50h65v-50h65v-400h-130v350h-65v50h-325v-400z" />
    <glyph glyph-name="o" unicode="o" 
d="M325 400v-50h-65v-200h65v-50h260v50h65v200h-65v50h-260zM195 450h65v50h390v-50h65v-50h65v-300h-65v-50h-65v-50h-390v50h-65v50h-65v300h65v50z" />
    <glyph glyph-name="p" unicode="p" 
d="M650 50v-50h-390v-200h-130v700h520v-50h65v-50h65v-300h-65v-50h-65zM260 100h325v50h65v200h-65v50h-325v-300z" />
    <glyph glyph-name="q" unicode="q" 
d="M780 -200h-130v200h-390v50h-65v50h-65v300h65v50h65v50h520v-700zM650 100v300h-325v-50h-65v-200h65v-50h325z" />
    <glyph glyph-name="r" unicode="r" 
d="M390 0h-130v500h130v-100h65v50h65v50h260v-100h-195v-50h-65v-50h-130v-300z" />
    <glyph glyph-name="s" unicode="s" 
d="M260 500h520v-100h-455v-100h325v-50h65v-50h65v-100h-65v-50h-65v-50h-520v100h455v100h-325v50h-65v50h-65v100h65v50h65v50z" />
    <glyph glyph-name="t" unicode="t" 
d="M520 150h65v-50h65v-100h-130v50h-65v50h-65v300h-130v100h130v200h130v-200h130v-100h-130v-250z" />
    <glyph glyph-name="u" unicode="u" 
d="M650 500h130v-500h-520v50h-65v50h-65v400h130v-350h65v-50h325v400z" />
    <glyph glyph-name="v" unicode="v" 
d="M650 500h130v-200h-65v-50h-65v-150h-65v-50h-65v-50h-130v50h-65v50h-65v150h-65v50h-65v200h130v-150h65v-50h65v-150h130v150h65v50h65v150z" />
    <glyph glyph-name="w" unicode="w" 
d="M650 50v-50h-130v50h-130v-50h-130v50h-65v50h-65v400h130v-350h130v150h130v-150h130v350h130v-400h-65v-50h-65z" />
    <glyph glyph-name="x" unicode="x" 
d="M715 100h65v-100h-130v50h-65v50h-65v50h-130v-50h-65v-50h-65v-50h-130v100h65v50h65v50h65v100h-65v50h-65v50h-65v100h130v-50h65v-50h65v-50h130v50h65v50h65v50h130v-100h-65v-50h-65v-50h-65v-100h65v-50h65v-50z" />
    <glyph glyph-name="y" unicode="y" 
d="M585 -50h65v50h-390v50h-65v50h-65v400h130v-350h65v-50h325v400h130v-600h-65v-50h-65v-50h-390v100h325v50z" />
    <glyph glyph-name="z" unicode="z" 
d="M650 400v-100h-65v-50h-65v-50h-65v-50h-65v-50h390v-100h-650v100h130v100h65v50h65v50h65v50h65v50h-390v100h650v-100h-130z" />
    <glyph glyph-name="braceleft" unicode="{" 
d="M422 100h228v-100h-390v700h390v-100h-228v-500z" />
    <glyph glyph-name="bar" unicode="|" 
d="M260 700h130v-700h-130v700zM520 700h130v-700h-130v700z" />
    <glyph glyph-name="braceright" unicode="}" 
d="M650 0h-390v100h228v500h-228v100h390v-700z" />
    <glyph glyph-name="asciitilde" unicode="~" 
 />
    <glyph glyph-name="uni007F" 
 />
    <glyph glyph-name="uni0080" 
 />
    <glyph glyph-name="uni0081" 
 />
    <glyph glyph-name="uni0082" 
 />
    <glyph glyph-name="uni0083" 
 />
    <glyph glyph-name="uni0084" 
 />
    <glyph glyph-name="uni0085" unicode="&#x85;" 
 />
    <glyph glyph-name="uni0086" 
 />
    <glyph glyph-name="uni0087" 
 />
    <glyph glyph-name="uni0088" 
 />
    <glyph glyph-name="uni0089" 
 />
    <glyph glyph-name="uni008A" 
 />
    <glyph glyph-name="uni008B" 
 />
    <glyph glyph-name="uni008C" 
 />
    <glyph glyph-name="uni008D" 
 />
    <glyph glyph-name="uni008E" 
 />
    <glyph glyph-name="uni008F" 
 />
    <glyph glyph-name="uni0090" 
 />
    <glyph glyph-name="uni0091" 
 />
    <glyph glyph-name="uni0092" 
 />
    <glyph glyph-name="uni0093" 
 />
    <glyph glyph-name="uni0094" 
 />
    <glyph glyph-name="uni0095" 
 />
    <glyph glyph-name="uni0096" 
 />
    <glyph glyph-name="uni0097" 
 />
    <glyph glyph-name="uni0098" 
 />
    <glyph glyph-name="uni0099" 
 />
    <glyph glyph-name="uni009A" 
 />
    <glyph glyph-name="uni009B" 
 />
    <glyph glyph-name="uni009C" 
 />
    <glyph glyph-name="uni009D" 
 />
    <glyph glyph-name="uni009E" 
 />
    <glyph glyph-name="uni009F" 
 />
    <glyph glyph-name="nonbreakingspace" unicode="&#xa0;" 
 />
    <glyph glyph-name="exclamdown" unicode="&#xa1;" 
 />
    <glyph glyph-name="cent" unicode="&#xa2;" 
 />
    <glyph glyph-name="sterling" unicode="&#xa3;" 
d="M780 0h-650v100h130v200h-130v100h130v200h65v50h65v50h260v-50h65v-50h65v-100h-130v50h-65v50h-130v-50h-65v-150h130v-100h-130v-200h390v-100z" />
    <glyph glyph-name="currency" unicode="&#xa4;" 
 />
    <glyph glyph-name="yen" unicode="&#xa5;" 
 />
    <glyph glyph-name="brokenbar" unicode="&#xa6;" 
 />
    <glyph glyph-name="section" unicode="&#xa7;" 
 />
    <glyph glyph-name="dieresis" unicode="&#xa8;" 
 />
    <glyph glyph-name="copyright" unicode="&#xa9;" 
 />
    <glyph glyph-name="ordfeminine" unicode="&#xaa;" 
 />
    <glyph glyph-name="guillemotleft" unicode="&#xab;" 
 />
    <glyph glyph-name="logicalnot" unicode="&#xac;" 
 />
    <glyph glyph-name="uni00AD" unicode="&#xad;" 
 />
    <glyph glyph-name="registered" unicode="&#xae;" 
 />
    <glyph glyph-name="macron" unicode="&#xaf;" 
 />
    <glyph glyph-name="degree" unicode="&#xb0;" 
 />
    <glyph glyph-name="plusminus" unicode="&#xb1;" 
 />
    <glyph glyph-name="uni00B2" unicode="&#xb2;" 
 />
    <glyph glyph-name="uni00B3" unicode="&#xb3;" 
 />
    <glyph glyph-name="acute" unicode="&#xb4;" 
 />
    <glyph glyph-name="uni00B5" unicode="&#xb5;" 
 />
    <glyph glyph-name="paragraph" unicode="&#xb6;" 
d="M130 700h650v-700h-650v700z" />
    <glyph glyph-name="periodcentered" unicode="&#xb7;" 
 />
    <glyph glyph-name="cedilla" unicode="&#xb8;" 
 />
    <glyph glyph-name="uni00B9" unicode="&#xb9;" 
 />
    <glyph glyph-name="ordmasculine" unicode="&#xba;" 
 />
    <glyph glyph-name="guillemotright" unicode="&#xbb;" 
 />
    <glyph glyph-name="onequarter" unicode="&#xbc;" 
d="M390 200h-130v500h130v-500zM780 -200h-130v100h-260v200h65v50h65v50h130v100h130v-500zM650 0v100h-65v-50h-65v-50h130z" />
    <glyph glyph-name="onehalf" unicode="&#xbd;" 
d="M260 200h-130v500h130v-500zM780 -200h-390v200h65v50h65v50h65v100h-195v100h260v-50h65v-50h65v-100h-65v-50h-65v-50h-65v-50h-65v-50h260v-100z" />
    <glyph glyph-name="threequarters" unicode="&#xbe;" 
d="M520 300h-65v-50h-65v-50h-260v100h195v100h-195v100h195v100h-195v100h260v-50h65v-50h65v-100h-65v-100h65v-100zM780 -200h-130v100h-260v200h65v50h65v50h130v100h130v-500zM650 0v100h-65v-50h-65v-50h130z" />
    <glyph glyph-name="questiondown" unicode="&#xbf;" 
 />
    <glyph glyph-name="Agrave" unicode="&#xc0;" 
 />
    <glyph glyph-name="Aacute" unicode="&#xc1;" 
 />
    <glyph glyph-name="Acircumflex" unicode="&#xc2;" 
 />
    <glyph glyph-name="Atilde" unicode="&#xc3;" 
 />
    <glyph glyph-name="Adieresis" unicode="&#xc4;" 
 />
    <glyph glyph-name="Aring" unicode="&#xc5;" 
 />
    <glyph glyph-name="AE" unicode="&#xc6;" 
 />
    <glyph glyph-name="Ccedilla" unicode="&#xc7;" 
 />
    <glyph glyph-name="Egrave" unicode="&#xc8;" 
 />
    <glyph glyph-name="Eacute" unicode="&#xc9;" 
 />
    <glyph glyph-name="Ecircumflex" unicode="&#xca;" 
 />
    <glyph glyph-name="Edieresis" unicode="&#xcb;" 
 />
    <glyph glyph-name="Igrave" unicode="&#xcc;" 
 />
    <glyph glyph-name="Iacute" unicode="&#xcd;" 
 />
    <glyph glyph-name="Icircumflex" unicode="&#xce;" 
 />
    <glyph glyph-name="Idieresis" unicode="&#xcf;" 
 />
    <glyph glyph-name="Eth" unicode="&#xd0;" 
 />
    <glyph glyph-name="Ntilde" unicode="&#xd1;" 
 />
    <glyph glyph-name="Ograve" unicode="&#xd2;" 
 />
    <glyph glyph-name="Oacute" unicode="&#xd3;" 
 />
    <glyph glyph-name="Ocircumflex" unicode="&#xd4;" 
 />
    <glyph glyph-name="Otilde" unicode="&#xd5;" 
 />
    <glyph glyph-name="Odieresis" unicode="&#xd6;" 
 />
    <glyph glyph-name="multiply" unicode="&#xd7;" 
 />
    <glyph glyph-name="Oslash" unicode="&#xd8;" 
 />
    <glyph glyph-name="Ugrave" unicode="&#xd9;" 
 />
    <glyph glyph-name="Uacute" unicode="&#xda;" 
 />
    <glyph glyph-name="Ucircumflex" unicode="&#xdb;" 
 />
    <glyph glyph-name="Udieresis" unicode="&#xdc;" 
 />
    <glyph glyph-name="Yacute" unicode="&#xdd;" 
 />
    <glyph glyph-name="Thorn" unicode="&#xde;" 
 />
    <glyph glyph-name="germandbls" unicode="&#xdf;" 
 />
    <glyph glyph-name="agrave" unicode="&#xe0;" 
 />
    <glyph glyph-name="aacute" unicode="&#xe1;" 
 />
    <glyph glyph-name="acircumflex" unicode="&#xe2;" 
 />
    <glyph glyph-name="atilde" unicode="&#xe3;" 
 />
    <glyph glyph-name="adieresis" unicode="&#xe4;" 
 />
    <glyph glyph-name="aring" unicode="&#xe5;" 
 />
    <glyph glyph-name="ae" unicode="&#xe6;" 
 />
    <glyph glyph-name="ccedilla" unicode="&#xe7;" 
 />
    <glyph glyph-name="egrave" unicode="&#xe8;" 
 />
    <glyph glyph-name="eacute" unicode="&#xe9;" 
 />
    <glyph glyph-name="ecircumflex" unicode="&#xea;" 
 />
    <glyph glyph-name="edieresis" unicode="&#xeb;" 
 />
    <glyph glyph-name="igrave" unicode="&#xec;" 
 />
    <glyph glyph-name="iacute" unicode="&#xed;" 
 />
    <glyph glyph-name="icircumflex" unicode="&#xee;" 
 />
    <glyph glyph-name="idieresis" unicode="&#xef;" 
 />
    <glyph glyph-name="eth" unicode="&#xf0;" 
 />
    <glyph glyph-name="ntilde" unicode="&#xf1;" 
 />
    <glyph glyph-name="ograve" unicode="&#xf2;" 
 />
    <glyph glyph-name="oacute" unicode="&#xf3;" 
 />
    <glyph glyph-name="ocircumflex" unicode="&#xf4;" 
 />
    <glyph glyph-name="otilde" unicode="&#xf5;" 
 />
    <glyph glyph-name="odieresis" unicode="&#xf6;" 
 />
    <glyph glyph-name="divide" unicode="&#xf7;" 
d="M390 200h130v-100h-130v100zM130 400h650v-100h-650v100zM390 600h130v-100h-130v100z" />
    <glyph glyph-name="oslash" unicode="&#xf8;" 
 />
    <glyph glyph-name="ugrave" unicode="&#xf9;" 
 />
    <glyph glyph-name="uacute" unicode="&#xfa;" 
 />
    <glyph glyph-name="ucircumflex" unicode="&#xfb;" 
 />
    <glyph glyph-name="udieresis" unicode="&#xfc;" 
 />
    <glyph glyph-name="yacute" unicode="&#xfd;" 
 />
    <glyph glyph-name="thorn" unicode="&#xfe;" 
 />
    <glyph glyph-name="ydieresis" unicode="&#xff;" 
 />
    <glyph glyph-name="uniE000" unicode="&#xe000;" 
 />
    <glyph glyph-name="uniE001" unicode="&#xe001;" 
 />
    <glyph glyph-name="uniE002" unicode="&#xe002;" 
 />
    <glyph glyph-name="uniE003" unicode="&#xe003;" 
 />
    <glyph glyph-name="uniE004" unicode="&#xe004;" 
 />
    <glyph glyph-name="uniE005" unicode="&#xe005;" 
 />
    <glyph glyph-name="uniE006" unicode="&#xe006;" 
 />
    <glyph glyph-name="uniE007" unicode="&#xe007;" 
 />
    <glyph glyph-name="uniE008" unicode="&#xe008;" 
 />
    <glyph glyph-name="uniE009" unicode="&#xe009;" 
 />
    <glyph glyph-name="uniE00A" unicode="&#xe00a;" 
 />
    <glyph glyph-name="uniE00B" unicode="&#xe00b;" 
 />
    <glyph glyph-name="uniE00C" unicode="&#xe00c;" 
 />
    <glyph glyph-name="uniE00D" unicode="&#xe00d;" 
 />
    <glyph glyph-name="uniE00E" unicode="&#xe00e;" 
 />
    <glyph glyph-name="uniE00F" unicode="&#xe00f;" 
 />
    <glyph glyph-name="uniE010" unicode="&#xe010;" 
 />
    <glyph glyph-name="uniE011" unicode="&#xe011;" 
 />
    <glyph glyph-name="uniE012" unicode="&#xe012;" 
 />
    <glyph glyph-name="uniE013" unicode="&#xe013;" 
 />
    <glyph glyph-name="uniE014" unicode="&#xe014;" 
 />
    <glyph glyph-name="uniE015" unicode="&#xe015;" 
 />
    <glyph glyph-name="uniE016" unicode="&#xe016;" 
 />
    <glyph glyph-name="uniE017" unicode="&#xe017;" 
 />
    <glyph glyph-name="uniE018" unicode="&#xe018;" 
 />
    <glyph glyph-name="uniE019" unicode="&#xe019;" 
 />
    <glyph glyph-name="uniE01A" unicode="&#xe01a;" 
 />
    <glyph glyph-name="uniE01B" unicode="&#xe01b;" 
 />
    <glyph glyph-name="uniE01C" unicode="&#xe01c;" 
 />
    <glyph glyph-name="uniE01D" unicode="&#xe01d;" 
 />
    <glyph glyph-name="uniE01E" unicode="&#xe01e;" 
 />
    <glyph glyph-name="uniE01F" unicode="&#xe01f;" 
 />
    <glyph glyph-name="uniE020" unicode="&#xe020;" 
 />
    <glyph glyph-name="uniE021" unicode="&#xe021;" 
d="M520 -200h-130v800h130v-800z" />
    <glyph glyph-name="uniE022" unicode="&#xe022;" 
d="M650 0h-130v600h130v-600zM390 0h-130v600h130v-600z" />
    <glyph glyph-name="uniE023" unicode="&#xe023;" 
d="M260 -200v200h-130v200h130v400h130v-400h130v400h130v-400h130v-200h-130v-200h-390z" />
    <glyph glyph-name="uniE024" unicode="&#xe024;" 
d="M260 -200v100h-65v100h-65v400h65v100h65v100h390v-100h65v-100h65v-200h-130v100h-65v100h-65v-400h130v-100h65v-100h-455zM390 0v400h-65v-100h-65v-200h65v-100h65z" />
    <glyph glyph-name="uniE025" unicode="&#xe025;" 
d="M325 -200v100h65v100h65v100h65v100h65v100h65v100h130v-200h-65v-100h-65v-100h-65v-100h-65v-100h-195zM130 600h260v-400h-260v400z" />
    <glyph glyph-name="uniE026" unicode="&#xe026;" 
d="M390 300h-130v-200h130v200zM195 -200v200h-65v400h65v100h65v100h130v-100h65v-100h65v-400h-65v-200h-260z" />
    <glyph glyph-name="uniE027" unicode="&#xe027;" 
d="M390 600h130v-600h-130v600z" />
    <glyph glyph-name="uniE028" unicode="&#xe028;" 
d="M260 -200v400h65v100h65v100h65v100h65v100h130v-200h-65v-100h-65v-100h-65v-100h-65v-300h-130z" />
    <glyph glyph-name="uniE029" unicode="&#xe029;" 
d="M520 -200v300h-65v100h-65v100h-65v100h-65v200h130v-100h65v-100h65v-100h65v-100h65v-400h-130z" />
    <glyph glyph-name="uniE02A" unicode="&#xe02a;" 
d="M390 -200v200h-130v100h-65v100h-65v200h130v-100h65v-100h65v400h130v-400h65v100h65v100h130v-200h-65v-100h-65v-100h-130v-200h-130z" />
    <glyph glyph-name="uniE02B" unicode="&#xe02b;" 
d="M130 -200v200h260v400h130v-400h260v-200h-650z" />
    <glyph glyph-name="uniE02C" unicode="&#xe02c;" 
 />
    <glyph glyph-name="uniE02D" unicode="&#xe02d;" 
d="M650 -200h-390v200h390v-200z" />
    <glyph glyph-name="uniE02E" unicode="&#xe02e;" 
 />
    <glyph glyph-name="uniE02F" unicode="&#xe02f;" 
d="M325 -200v100h65v100h65v100h65v100h65v100h65v100h130v-200h-65v-100h-65v-100h-65v-100h-65v-100h-195z" />
    <glyph glyph-name="uniE030" unicode="&#xe030;" 
d="M130 -200v400h65v100h65v100h65v100h65v100h130v-100h65v-100h65v-100h65v-100h65v-400h-130v300h-65v100h-65v100h-130v-100h-65v-100h-65v-300h-130z" />
    <glyph glyph-name="uniE031" unicode="&#xe031;" 
d="M390 -200v400h-130v200h130v200h130v-800h-130z" />
    <glyph glyph-name="uniE032" unicode="&#xe032;" 
d="M325 -200v100h65v100h195v100h65v200h-65v100h-260v-100h-65v-100h-130v200h65v100h65v100h390v-100h65v-100h65v-400h-65v-100h-65v-100h-325z" />
    <glyph glyph-name="uniE033" unicode="&#xe033;" 
d="M390 -200v200h130v200h65v100h65v100h-520v200h650v-400h-65v-100h-65v-300h-260z" />
    <glyph glyph-name="uniE034" unicode="&#xe034;" 
d="M130 -200v200h65v100h65v100h65v100h65v100h130v200h130v-800h-130v400h-65v-100h-65v-100h-65v-100h-65v-100h-130z" />
    <glyph glyph-name="uniE035" unicode="&#xe035;" 
d="M650 -200v100h-65v100h-455v600h650v-200h-520v-200h390v-100h65v-100h65v-200h-130z" />
    <glyph glyph-name="uniE036" unicode="&#xe036;" 
d="M130 -200v400h65v100h65v100h65v100h65v100h260v-200h-195v-100h-65v-100h-65v-100h-65v-100h390v-100h65v-100h-585z" />
    <glyph glyph-name="uniE037" unicode="&#xe037;" 
d="M325 -200v100h65v100h65v100h65v100h65v100h65v100h-520v200h650v-400h-65v-100h-65v-100h-65v-100h-65v-100h-195z" />
    <glyph glyph-name="uniE038" unicode="&#xe038;" 
d="M195 -200v200h-65v400h65v100h65v100h390v-100h65v-100h65v-400h-65v-200h-520zM650 100v200h-65v100h-260v-100h-65v-200h65v-100h260v100h65z" />
    <glyph glyph-name="uniE039" unicode="&#xe039;" 
d="M260 -200v100h-65v100h-65v400h65v100h65v100h390v-100h65v-100h65v-600h-520zM325 0h325v300h-65v100h-260v-100h-65v-200h65v-100z" />
    <glyph glyph-name="uniE03A" unicode="&#xe03a;" 
d="M520 0h-130v200h130v-200z" />
    <glyph glyph-name="uniE03B" unicode="&#xe03b;" 
d="M520 0h-130v200h130v-200z" />
    <glyph glyph-name="uniE03C" unicode="&#xe03c;" 
d="M130 -200v200h65v100h65v100h65v100h65v100h65v100h65v100h130v-200h-65v-100h-65v-100h-65v-100h-65v-100h-65v-200h-195z" />
    <glyph glyph-name="uniE03D" unicode="&#xe03d;" 
d="M780 0h-650v200h650v-200z" />
    <glyph glyph-name="uniE03E" unicode="&#xe03e;" 
d="M585 -200v200h-65v100h-65v100h-65v100h-65v100h-65v200h130v-100h65v-100h65v-100h65v-100h65v-100h65v-100h65v-200h-195z" />
    <glyph glyph-name="uniE03F" unicode="&#xe03f;" 
d="M390 0h65v100h65v100h65v200h-260v-100h-65v-100h-130v200h65v100h65v100h390v-100h65v-100h65v-200h-65v-100h-65v-100h-65v-100h-65v-100h-130v200z" />
    <glyph glyph-name="uniE040" unicode="&#xe040;" 
d="M130 -200v600h65v100h65v100h390v-100h65v-100h65v-600h-130v200h-130v-200h-130v400h260v100h-65v100h-260v-100h-65v-500h-130z" />
    <glyph glyph-name="uniE041" unicode="&#xe041;" 
d="M650 -200v300h-65v100h-65v100h-130v-100h-65v-100h-65v-300h-130v400h65v100h65v100h65v100h65v100h130v-100h65v-100h65v-100h65v-100h65v-400h-130z" />
    <glyph glyph-name="uniE042" unicode="&#xe042;" 
d="M650 100v200h-65v100h-325v-400h325v100h65zM130 -200v800h520v-100h65v-100h65v-400h-65v-200h-585z" />
    <glyph glyph-name="uniE043" unicode="&#xe043;" 
d="M130 -200v600h65v100h65v100h390v-100h65v-100h65v-200h-130v100h-65v100l-260 -4v-96h-65v-500h-130z" />
    <glyph glyph-name="uniE044" unicode="&#xe044;" 
d="M130 -200v800h520v-100h65v-100h65v-600h-130v500h-65v100h-325v-600h-130z" />
    <glyph glyph-name="uniE045" unicode="&#xe045;" 
d="M130 -200v800h650v-200h-520v-401h390v-199h-520z" />
    <glyph glyph-name="uniE046" unicode="&#xe046;" 
d="M130 -200v800h650v-200h-520v-401h390v-199h-520z" />
    <glyph glyph-name="uniE047" unicode="&#xe047;" 
d="M130 -200v600h65v100h65v100h390v-100h65v-100h65v-200h-130v100h-65v100h-260v-100h-65v-500h-130z" />
    <glyph glyph-name="uniE048" unicode="&#xe048;" 
d="M130 -200v800h130v-600h390v600h130v-800h-650z" />
    <glyph glyph-name="uniE049" unicode="&#xe049;" 
d="M390 -200v600h-130v200h390v-200h-130v-600h-130z" />
    <glyph glyph-name="uniE04A" unicode="&#xe04a;" 
d="M650 -200v800h130v-800h-130z" />
    <glyph glyph-name="uniE04B" unicode="&#xe04b;" 
d="M130 -200v800h130v-600h65v100h65v100h65v100h65v100h65v100h65v100h130v-200h-65v-100h-65v-100h-65v-100h-65v-100h-65v-200h-325z" />
    <glyph glyph-name="uniE04C" unicode="&#xe04c;" 
d="M130 -200v800h130v-800h-130z" />
    <glyph glyph-name="uniE04D" unicode="&#xe04d;" 
d="M650 600h130v-800h-130v400h-65v-100h-65v-200h-130v200h-65v100h-65v-400h-130v800h130v-200h130v-100h130v100h130v200z" />
    <glyph glyph-name="uniE04E" unicode="&#xe04e;" 
d="M390 -200v100h-65v100h-65v-200h-130v800h130v-400h130v-100h65v-100h65v-100h65v-100h-195zM650 -200v800h130v-800h-130z" />
    <glyph glyph-name="uniE04F" unicode="&#xe04f;" 
d="M130 -200v600h65v100h65v100h390v-100h65v-100h65v-600h-130v500h-65v100h-260v-100h-65v-500h-130z" />
    <glyph glyph-name="uniE050" unicode="&#xe050;" 
d="M585 400h-325v-400h325v100h65v200h-65v100zM130 -200v800h520v-100h65v-100h65v-400h-65v-100h-65v-100h-520z" />
    <glyph glyph-name="uniE051" unicode="&#xe051;" 
d="M130 -200v600h65v100h65v100h390v-100h65v-100h65v-600h-130v500h-65v100h-260v-100h-65v-500h-130z" />
    <glyph glyph-name="uniE052" unicode="&#xe052;" 
d="M260 0h325v100h65v200h-65v100h-325v-400zM130 -200v800h520v-100h65v-100h65v-400h-65v-100h-65v-100h-520z" />
    <glyph glyph-name="uniE053" unicode="&#xe053;" 
d="M260 -200v100h-65v100h-65v400h65v100h65v100h390v-100h65v-100h65v-200h-130v100h-65v100h-260v-100h-65v-200h65v-100h325v-100h65v-100h-455z" />
    <glyph glyph-name="uniE054" unicode="&#xe054;" 
d="M520 -200h-130v600h-260v200h650v-200h-260v-600z" />
    <glyph glyph-name="uniE055" unicode="&#xe055;" 
d="M650 -200v800h130v-800h-130zM130 -200v800h130v-800h-130z" />
    <glyph glyph-name="uniE056" unicode="&#xe056;" 
d="M520 -200v200h65v100h65v500h130v-600h-65v-100h-65v-100h-130zM260 -200v100h-65v100h-65v600h130v-500h65v-100h65v-200h-130z" />
    <glyph glyph-name="uniE057" unicode="&#xe057;" 
d="M390 -200v200h130v-200h-130zM650 -200v800h130v-800h-130zM130 -200v800h130v-800h-130z" />
    <glyph glyph-name="uniE058" unicode="&#xe058;" 
d="M325 -200v200h-65v100h-65v100h-65v400h130v-300h65v-100h65v-100h130v100h65v100h65v300h130v-400h-65v-100h-65v-100h-65v-200h-260z" />
    <glyph glyph-name="uniE059" unicode="&#xe059;" 
d="M520 -100v-100h-130v100h-65v100h-65v100h-65v100h-65v400h130v-300h65v-100h65v-100h130v100h65v100h65v300h130v-400h-65v-100h-65v-100h-65v-100h-65z" />
    <glyph glyph-name="uniE05A" unicode="&#xe05a;" 
d="M325 -200v100h65v100h65v100h65v100h65v100h65v100h-520v200h650v-400h-65v-100h-65v-100h-65v-100h-65v-100h-195z" />
    <glyph glyph-name="uniE05B" unicode="&#xe05b;" 
d="M130 -200v200h130v200h65v100h65v100h130v-200h-65v-100h-65v-100h390v-200h-650z" />
    <glyph glyph-name="uniE05C" unicode="&#xe05c;" 
d="M390 -200v100h-65v100h-65v100h-65v100h-65v200h130v-100h65v-100h65v-100h65v-100h65v-100h65v-100h-195z" />
    <glyph glyph-name="uniE05D" unicode="&#xe05d;" 
d="M130 -200v200h390v100h-65v100h-65v200h130v-100h65v-100h65v-200h130v-200h-650z" />
    <glyph glyph-name="uniE05E" unicode="&#xe05e;" 
d="M650 100h65v-100h65v-200h-130v100h-65v100h-65v-200h-130v200h-65v-100h-65v-100h-130v200h65v100h65v100h130v200h130v-200h130v-100z" />
    <glyph glyph-name="uniE05F" unicode="&#xe05f;" 
 />
    <glyph glyph-name="uniE060" unicode="&#xe060;" 
d="M130 0h650v-200h-650v200z" />
    <glyph glyph-name="uniE061" unicode="&#xe061;" 
d="M650 -200v100h-65v100h-325v200h390v-100h65v-100h65v-200h-130z" />
    <glyph glyph-name="uniE062" unicode="&#xe062;" 
d="M650 -200v100h-65v100h-325v-200h-130v800h130v-400h390v-100h65v-100h65v-200h-130z" />
    <glyph glyph-name="uniE063" unicode="&#xe063;" 
d="M130 -200v200h65v100h65v100h520v-200h-455v-100h-65v-100h-130z" />
    <glyph glyph-name="uniE064" unicode="&#xe064;" 
d="M650 -200v200h-325v-100h-65v-100h-130v200h65v100h65v100h390v400h130v-800h-130z" />
    <glyph glyph-name="uniE065" unicode="&#xe065;" 
d="M130 -200v200h65v100h65v100h390v-100h65v-100h65v-200h-130v100h-65v100h-260v-100h-65v-100h-130z" />
    <glyph glyph-name="uniE066" unicode="&#xe066;" 
d="M260 -200v200h130v400h65v100h65v100h130v-200h-65v-100h-65v-300h130v-200h-390z" />
    <glyph glyph-name="uniE067" unicode="&#xe067;" 
d="M130 -200v200h65v100h65v100h520v-400h-130v200h-325v-100h-65v-100h-130z" />
    <glyph glyph-name="uniE068" unicode="&#xe068;" 
d="M260 200h390v-100h65v-100h65v-200h-130v100h-65v100h-325v-200h-130v800h130v-400z" />
    <glyph glyph-name="uniE069" unicode="&#xe069;" 
d="M390 600h130v-200h-130v200zM390 -200v200h-130v200h260v-400h-130z" />
    <glyph glyph-name="uniE06A" unicode="&#xe06a;" 
d="M390 600h130v-200h-130v200zM390 -200v400h130v-400h-130z" />
    <glyph glyph-name="uniE06B" unicode="&#xe06b;" 
d="M455 -200v100h65v100h65v100h65v100h130v-200h-65v-100h-65v-100h-195zM260 -200v800h130v-800h-130z" />
    <glyph glyph-name="uniE06C" unicode="&#xe06c;" 
d="M390 -200v600h-130v200h260v-800h-130z" />
    <glyph glyph-name="uniE06D" unicode="&#xe06d;" 
d="M520 -100v-100h-130v100h-65v100h-65v-200h-130v400h260v-100h130v100h130v-100h65v-100h65v-200h-130v100h-130z" />
    <glyph glyph-name="uniE06E" unicode="&#xe06e;" 
d="M260 -200h-130v400h520v-100h65v-100h65v-200h-130v100h-65v100h-325v-200z" />
    <glyph glyph-name="uniE06F" unicode="&#xe06f;" 
d="M130 -200v200h65v100h65v100h390v-100h65v-100h65v-200h-130v100h-65v100h-260v-100h-65v-100h-130z" />
    <glyph glyph-name="uniE070" unicode="&#xe070;" 
d="M130 -200v400h520v-100h65v-100h65v-200h-130v100h-65v100h-325v-200h-130z" />
    <glyph glyph-name="uniE071" unicode="&#xe071;" 
d="M650 -200v200h-325v-100h-65v-100h-130v200h65v100h65v100h520v-400h-130z" />
    <glyph glyph-name="uniE072" unicode="&#xe072;" 
d="M260 -200v400h130v-200h65v100h65v100h260v-200h-195v-100h-65v-100h-260z" />
    <glyph glyph-name="uniE073" unicode="&#xe073;" 
d="M130 -200v200h65v100h65v100h520v-200h-455v-200h-195z" />
    <glyph glyph-name="uniE074" unicode="&#xe074;" 
d="M390 -200v200h-130v200h130v400h130v-400h130v-200h-130v-200h-130z" />
    <glyph glyph-name="uniE075" unicode="&#xe075;" 
d="M130 -200v400h130v-400h-130zM650 -200v400h130v-400h-130z" />
    <glyph glyph-name="uniE076" unicode="&#xe076;" 
d="M585 -200v100h65v300h130v-400h-195zM130 -200v400h130v-300h65v-100h-195z" />
    <glyph glyph-name="uniE077" unicode="&#xe077;" 
d="M650 -200v400h130v-400h-130zM130 -200v400h130v-400h-130z" />
    <glyph glyph-name="uniE078" unicode="&#xe078;" 
d="M260 -200v100h-65v100h-65v200h130v-100h65v-100h65v-100h130v100h65v100h65v100h130v-200h-65v-100h-65v-100h-390z" />
    <glyph glyph-name="uniE079" unicode="&#xe079;" 
d="M130 -200v400h130v-400h-130zM650 -200v400h130v-400h-130z" />
    <glyph glyph-name="uniE07A" unicode="&#xe07a;" 
d="M455 -200v100h65v100h-390v200h650v-200h-130v-200h-195z" />
    <glyph glyph-name="uniE07B" unicode="&#xe07b;" 
d="M260 -200v800h390v-200h-228v-600h-162z" />
    <glyph glyph-name="uniE07C" unicode="&#xe07c;" 
d="M260 600h130v-800h-130v800zM520 600h130v-800h-130v800z" />
    <glyph glyph-name="uniE07D" unicode="&#xe07d;" 
d="M488 -200v600h-228v200h390v-800h-162z" />
    <glyph glyph-name="uniE07E" unicode="&#xe07e;" 
 />
    <glyph glyph-name="uniE07F" unicode="&#xe07f;" 
 />
    <glyph glyph-name="uniE080" unicode="&#xe080;" 
 />
    <glyph glyph-name="uniE081" unicode="&#xe081;" 
 />
    <glyph glyph-name="uniE082" unicode="&#xe082;" 
 />
    <glyph glyph-name="uniE083" unicode="&#xe083;" 
 />
    <glyph glyph-name="uniE084" unicode="&#xe084;" 
 />
    <glyph glyph-name="uniE085" unicode="&#xe085;" 
 />
    <glyph glyph-name="uniE086" unicode="&#xe086;" 
 />
    <glyph glyph-name="uniE087" unicode="&#xe087;" 
 />
    <glyph glyph-name="uniE088" unicode="&#xe088;" 
 />
    <glyph glyph-name="uniE089" unicode="&#xe089;" 
 />
    <glyph glyph-name="uniE08A" unicode="&#xe08a;" 
 />
    <glyph glyph-name="uniE08B" unicode="&#xe08b;" 
 />
    <glyph glyph-name="uniE08C" unicode="&#xe08c;" 
 />
    <glyph glyph-name="uniE08D" unicode="&#xe08d;" 
 />
    <glyph glyph-name="uniE08E" unicode="&#xe08e;" 
 />
    <glyph glyph-name="uniE08F" unicode="&#xe08f;" 
 />
    <glyph glyph-name="uniE090" unicode="&#xe090;" 
 />
    <glyph glyph-name="uniE091" unicode="&#xe091;" 
 />
    <glyph glyph-name="uniE092" unicode="&#xe092;" 
 />
    <glyph glyph-name="uniE093" unicode="&#xe093;" 
 />
    <glyph glyph-name="uniE094" unicode="&#xe094;" 
 />
    <glyph glyph-name="uniE095" unicode="&#xe095;" 
 />
    <glyph glyph-name="uniE096" unicode="&#xe096;" 
 />
    <glyph glyph-name="uniE097" unicode="&#xe097;" 
 />
    <glyph glyph-name="uniE098" unicode="&#xe098;" 
 />
    <glyph glyph-name="uniE099" unicode="&#xe099;" 
 />
    <glyph glyph-name="uniE09A" unicode="&#xe09a;" 
 />
    <glyph glyph-name="uniE09B" unicode="&#xe09b;" 
 />
    <glyph glyph-name="uniE09C" unicode="&#xe09c;" 
 />
    <glyph glyph-name="uniE09D" unicode="&#xe09d;" 
 />
    <glyph glyph-name="uniE09E" unicode="&#xe09e;" 
 />
    <glyph glyph-name="uniE09F" unicode="&#xe09f;" 
 />
    <glyph glyph-name="uniE0A0" unicode="&#xe0a0;" 
 />
    <glyph glyph-name="uniE0A1" unicode="&#xe0a1;" 
 />
    <glyph glyph-name="uniE0A2" unicode="&#xe0a2;" 
 />
    <glyph glyph-name="uniE0A3" unicode="&#xe0a3;" 
d="M130 -200v200h130v400h65v100h65v100h260v-100h65v-100h65v-200h-130v100h-65v100h-130v-100h-65v-300h130v-200h-390z" />
    <glyph glyph-name="uniE0A4" unicode="&#xe0a4;" 
 />
    <glyph glyph-name="uniE0A5" unicode="&#xe0a5;" 
 />
    <glyph glyph-name="uniE0A6" unicode="&#xe0a6;" 
 />
    <glyph glyph-name="uniE0A7" unicode="&#xe0a7;" 
 />
    <glyph glyph-name="uniE0A8" unicode="&#xe0a8;" 
 />
    <glyph glyph-name="uniE0A9" unicode="&#xe0a9;" 
 />
    <glyph glyph-name="uniE0AA" unicode="&#xe0aa;" 
 />
    <glyph glyph-name="uniE0AB" unicode="&#xe0ab;" 
 />
    <glyph glyph-name="uniE0AC" unicode="&#xe0ac;" 
 />
    <glyph glyph-name="uniE0AD" unicode="&#xe0ad;" 
 />
    <glyph glyph-name="uniE0AE" unicode="&#xe0ae;" 
 />
    <glyph glyph-name="uniE0AF" unicode="&#xe0af;" 
 />
    <glyph glyph-name="uniE0B0" unicode="&#xe0b0;" 
 />
    <glyph glyph-name="uniE0B1" unicode="&#xe0b1;" 
 />
    <glyph glyph-name="uniE0B2" unicode="&#xe0b2;" 
 />
    <glyph glyph-name="uniE0B3" unicode="&#xe0b3;" 
 />
    <glyph glyph-name="uniE0B4" unicode="&#xe0b4;" 
 />
    <glyph glyph-name="uniE0B5" unicode="&#xe0b5;" 
 />
    <glyph glyph-name="uniE0B6" unicode="&#xe0b6;" 
d="M130 600h650v-800h-650v800z" />
    <glyph glyph-name="uniE0B7" unicode="&#xe0b7;" 
 />
    <glyph glyph-name="uniE0B8" unicode="&#xe0b8;" 
 />
    <glyph glyph-name="uniE0B9" unicode="&#xe0b9;" 
 />
    <glyph glyph-name="uniE0BA" unicode="&#xe0ba;" 
 />
    <glyph glyph-name="uniE0BB" unicode="&#xe0bb;" 
 />
    <glyph glyph-name="uniE0BC" unicode="&#xe0bc;" 
d="M390 -200h-130v800h130v-800z" />
    <glyph glyph-name="uniE0BD" unicode="&#xe0bd;" 
d="M260 -200h-130v800h130v-800z" />
    <glyph glyph-name="uniE0BE" unicode="&#xe0be;" 
d="M325 -200v200h-195v200h195v200h-195v200h260v-100h65v-100h65v-200h-65v-200h65v-200h-195z" />
    <glyph glyph-name="uniE0BF" unicode="&#xe0bf;" 
 />
    <glyph glyph-name="uniE0C0" unicode="&#xe0c0;" 
 />
    <glyph glyph-name="uniE0C1" unicode="&#xe0c1;" 
 />
    <glyph glyph-name="uniE0C2" unicode="&#xe0c2;" 
 />
    <glyph glyph-name="uniE0C3" unicode="&#xe0c3;" 
 />
    <glyph glyph-name="uniE0C4" unicode="&#xe0c4;" 
 />
    <glyph glyph-name="uniE0C5" unicode="&#xe0c5;" 
 />
    <glyph glyph-name="uniE0C6" unicode="&#xe0c6;" 
 />
    <glyph glyph-name="uniE0C7" unicode="&#xe0c7;" 
 />
    <glyph glyph-name="uniE0C8" unicode="&#xe0c8;" 
 />
    <glyph glyph-name="uniE0C9" unicode="&#xe0c9;" 
 />
    <glyph glyph-name="uniE0CA" unicode="&#xe0ca;" 
 />
    <glyph glyph-name="uniE0CB" unicode="&#xe0cb;" 
 />
    <glyph glyph-name="uniE0CC" unicode="&#xe0cc;" 
 />
    <glyph glyph-name="uniE0CD" unicode="&#xe0cd;" 
 />
    <glyph glyph-name="uniE0CE" unicode="&#xe0ce;" 
 />
    <glyph glyph-name="uniE0CF" unicode="&#xe0cf;" 
 />
    <glyph glyph-name="uniE0D0" unicode="&#xe0d0;" 
 />
    <glyph glyph-name="uniE0D1" unicode="&#xe0d1;" 
 />
    <glyph glyph-name="uniE0D2" unicode="&#xe0d2;" 
 />
    <glyph glyph-name="uniE0D3" unicode="&#xe0d3;" 
 />
    <glyph glyph-name="uniE0D4" unicode="&#xe0d4;" 
 />
    <glyph glyph-name="uniE0D5" unicode="&#xe0d5;" 
 />
    <glyph glyph-name="uniE0D6" unicode="&#xe0d6;" 
 />
    <glyph glyph-name="uniE0D7" unicode="&#xe0d7;" 
 />
    <glyph glyph-name="uniE0D8" unicode="&#xe0d8;" 
 />
    <glyph glyph-name="uniE0D9" unicode="&#xe0d9;" 
 />
    <glyph glyph-name="uniE0DA" unicode="&#xe0da;" 
 />
    <glyph glyph-name="uniE0DB" unicode="&#xe0db;" 
 />
    <glyph glyph-name="uniE0DC" unicode="&#xe0dc;" 
 />
    <glyph glyph-name="uniE0DD" unicode="&#xe0dd;" 
 />
    <glyph glyph-name="uniE0DE" unicode="&#xe0de;" 
 />
    <glyph glyph-name="uniE0DF" unicode="&#xe0df;" 
 />
    <glyph glyph-name="uniE0E0" unicode="&#xe0e0;" 
 />
    <glyph glyph-name="uniE0E1" unicode="&#xe0e1;" 
 />
    <glyph glyph-name="uniE0E2" unicode="&#xe0e2;" 
 />
    <glyph glyph-name="uniE0E3" unicode="&#xe0e3;" 
 />
    <glyph glyph-name="uniE0E4" unicode="&#xe0e4;" 
 />
    <glyph glyph-name="uniE0E5" unicode="&#xe0e5;" 
 />
    <glyph glyph-name="uniE0E6" unicode="&#xe0e6;" 
 />
    <glyph glyph-name="uniE0E7" unicode="&#xe0e7;" 
 />
    <glyph glyph-name="uniE0E8" unicode="&#xe0e8;" 
 />
    <glyph glyph-name="uniE0E9" unicode="&#xe0e9;" 
 />
    <glyph glyph-name="uniE0EA" unicode="&#xe0ea;" 
 />
    <glyph glyph-name="uniE0EB" unicode="&#xe0eb;" 
 />
    <glyph glyph-name="uniE0EC" unicode="&#xe0ec;" 
 />
    <glyph glyph-name="uniE0ED" unicode="&#xe0ed;" 
 />
    <glyph glyph-name="uniE0EE" unicode="&#xe0ee;" 
 />
    <glyph glyph-name="uniE0EF" unicode="&#xe0ef;" 
 />
    <glyph glyph-name="uniE0F0" unicode="&#xe0f0;" 
 />
    <glyph glyph-name="uniE0F1" unicode="&#xe0f1;" 
 />
    <glyph glyph-name="uniE0F2" unicode="&#xe0f2;" 
 />
    <glyph glyph-name="uniE0F3" unicode="&#xe0f3;" 
 />
    <glyph glyph-name="uniE0F4" unicode="&#xe0f4;" 
 />
    <glyph glyph-name="uniE0F5" unicode="&#xe0f5;" 
 />
    <glyph glyph-name="uniE0F6" unicode="&#xe0f6;" 
 />
    <glyph glyph-name="uniE0F7" unicode="&#xe0f7;" 
d="M130 0h650v-200h-650v200zM390 400h130v-200h-130v200z" />
    <glyph glyph-name="uniE0F8" unicode="&#xe0f8;" 
 />
    <glyph glyph-name="uniE0F9" unicode="&#xe0f9;" 
 />
    <glyph glyph-name="uniE0FA" unicode="&#xe0fa;" 
 />
    <glyph glyph-name="uniE0FB" unicode="&#xe0fb;" 
 />
    <glyph glyph-name="uniE0FC" unicode="&#xe0fc;" 
 />
    <glyph glyph-name="uniE0FD" unicode="&#xe0fd;" 
 />
    <glyph glyph-name="uniE0FE" unicode="&#xe0fe;" 
 />
    <glyph glyph-name="uniE0FF" unicode="&#xe0ff;" 
 />
    <glyph glyph-name="uniE100" unicode="&#xe100;" 
 />
    <glyph glyph-name="uniE101" unicode="&#xe101;" 
 />
    <glyph glyph-name="uniE102" unicode="&#xe102;" 
 />
    <glyph glyph-name="uniE103" unicode="&#xe103;" 
 />
    <glyph glyph-name="uniE104" unicode="&#xe104;" 
 />
    <glyph glyph-name="uniE105" unicode="&#xe105;" 
 />
    <glyph glyph-name="uniE106" unicode="&#xe106;" 
 />
    <glyph glyph-name="uniE107" unicode="&#xe107;" 
 />
    <glyph glyph-name="uniE108" unicode="&#xe108;" 
 />
    <glyph glyph-name="uniE109" unicode="&#xe109;" 
 />
    <glyph glyph-name="uniE10A" unicode="&#xe10a;" 
 />
    <glyph glyph-name="uniE10B" unicode="&#xe10b;" 
 />
    <glyph glyph-name="uniE10C" unicode="&#xe10c;" 
 />
    <glyph glyph-name="uniE10D" unicode="&#xe10d;" 
 />
    <glyph glyph-name="uniE10E" unicode="&#xe10e;" 
 />
    <glyph glyph-name="uniE10F" unicode="&#xe10f;" 
 />
    <glyph glyph-name="uniE110" unicode="&#xe110;" 
 />
    <glyph glyph-name="uniE111" unicode="&#xe111;" 
 />
    <glyph glyph-name="uniE112" unicode="&#xe112;" 
 />
    <glyph glyph-name="uniE113" unicode="&#xe113;" 
 />
    <glyph glyph-name="uniE114" unicode="&#xe114;" 
 />
    <glyph glyph-name="uniE115" unicode="&#xe115;" 
 />
    <glyph glyph-name="uniE116" unicode="&#xe116;" 
 />
    <glyph glyph-name="uniE117" unicode="&#xe117;" 
 />
    <glyph glyph-name="uniE118" unicode="&#xe118;" 
 />
    <glyph glyph-name="uniE119" unicode="&#xe119;" 
 />
    <glyph glyph-name="uniE11A" unicode="&#xe11a;" 
 />
    <glyph glyph-name="uniE11B" unicode="&#xe11b;" 
 />
    <glyph glyph-name="uniE11C" unicode="&#xe11c;" 
 />
    <glyph glyph-name="uniE11D" unicode="&#xe11d;" 
 />
    <glyph glyph-name="uniE11E" unicode="&#xe11e;" 
 />
    <glyph glyph-name="uniE11F" unicode="&#xe11f;" 
 />
    <glyph glyph-name="uniE120" unicode="&#xe120;" 
 />
    <glyph glyph-name="uniE121" unicode="&#xe121;" 
d="M520 600h-130v205h130v-205zM520 200h-130v200h130v-200z" />
    <glyph glyph-name="uniE122" unicode="&#xe122;" 
 />
    <glyph glyph-name="uniE123" unicode="&#xe123;" 
d="M780 805v-205h-130v-400h-130v400h-130v-400h-130v400h-130v205h650z" />
    <glyph glyph-name="uniE124" unicode="&#xe124;" 
d="M520 805v-405h65v100h65v200h-65v105h195v-405h-65v-100h-65v-100h-390v100h-65v100h-65v200h130v-100h65v-100h65v405h130z" />
    <glyph glyph-name="uniE125" unicode="&#xe125;" 
d="M455 805v-105h-65v-100h-65v-100h-65v-100h-130v200h65v100h65v105h195zM780 600v-400h-260v400h260z" />
    <glyph glyph-name="uniE126" unicode="&#xe126;" 
d="M455 400v200h-65v100h-130v-200h65v-100h130zM650 805h130v-205h-65v-200h65v-200h-130v100h-130v-100h-260v100h-65v100h-65v405h390v-105h130v105z" />
    <glyph glyph-name="uniE127" unicode="&#xe127;" 
 />
    <glyph glyph-name="uniE128" unicode="&#xe128;" 
d="M390 805v-105h65v-100h65v-100h65v-100h65v-200h-130v100h-65v100h-65v100h-65v100h-65v205h130z" />
    <glyph glyph-name="uniE129" unicode="&#xe129;" 
d="M650 805v-205h-65v-100h-65v-100h-65v-100h-65v-100h-130v200h65v100h65v100h65v100h65v105h130z" />
    <glyph glyph-name="uniE12A" unicode="&#xe12a;" 
d="M650 805v-105h65v-100h65v-200h-130v100h-65v100h-65v-400h-130v400h-65v-100h-65v-100h-130v200h65v100h65v105h390z" />
    <glyph glyph-name="uniE12B" unicode="&#xe12b;" 
d="M520 805v-405h-130v405h130z" />
    <glyph glyph-name="uniE12C" unicode="&#xe12c;" 
d="M260 200h65v100h65v300h130v-400h-65v-100h-65v-100h-130v200z" />
    <glyph glyph-name="uniE12D" unicode="&#xe12d;" 
 />
    <glyph glyph-name="uniE12E" unicode="&#xe12e;" 
d="M390 400h130v-200h-130v200z" />
    <glyph glyph-name="uniE12F" unicode="&#xe12f;" 
d="M455 805v-105h-65v-100h-65v-100h-65v-100h-130v200h65v100h65v105h195z" />
    <glyph glyph-name="uniE130" unicode="&#xe130;" 
d="M780 805v-205h-65v-100h-65v-100h-65v-100h-65v-100h-130v100h-65v100h-65v100h-65v100h-65v205h130v-105h65v-100h65v-100h130v100h65v100h65v105h130z" />
    <glyph glyph-name="uniE131" unicode="&#xe131;" 
d="M520 805v-405h130v-200h-390v200h130v405h130z" />
    <glyph glyph-name="uniE132" unicode="&#xe132;" 
d="M455 805v-105h-65v-100h-65v-100h-65v-100h520v-200h-650v400h65v100h65v105h195z" />
    <glyph glyph-name="uniE133" unicode="&#xe133;" 
d="M780 805v-405h-65v-100h-65v-100h-390v100h-65v100h-65v200h130v-100h65v-100h260v100h65v200h-65v105h195z" />
    <glyph glyph-name="uniE134" unicode="&#xe134;" 
d="M780 805v-205h-130v-400h-130v400h-390v205h650z" />
    <glyph glyph-name="uniE135" unicode="&#xe135;" 
d="M780 805v-405h-65v-100h-65v-100h-390v100h-65v100h-65v200h130v-100h65v-100h260v100h65v305h130z" />
    <glyph glyph-name="uniE136" unicode="&#xe136;" 
d="M260 805v-305h65v-100h260v100h65v200h-65v105h195v-405h-65v-100h-65v-100h-390v100h-65v100h-65v405h130z" />
    <glyph glyph-name="uniE137" unicode="&#xe137;" 
d="M455 805v-105h-65v-500h-130v605h195z" />
    <glyph glyph-name="uniE138" unicode="&#xe138;" 
d="M325 805v-105h-65v-200h65v-100h260v100h65v200h-65v105h195v-405h-65v-100h-65v-100h-390v100h-65v100h-65v405h195z" />
    <glyph glyph-name="uniE139" unicode="&#xe139;" 
d="M780 805v-205h-65v-100h-65v-100h-65v-100h-65v-100h-260v200h195v100h65v100h65v100h65v105h130z" />
    <glyph glyph-name="uniE13A" unicode="&#xe13a;" 
d="M520 200h-130v200h130v-200z" />
    <glyph glyph-name="uniE13B" unicode="&#xe13b;" 
d="M520 200h-65v-100h-65v-100h-130v200h65v100h65v300h130v-400z" />
    <glyph glyph-name="uniE13C" unicode="&#xe13c;" 
d="M390 805v-105h65v-100h65v-100h65v-100h65v-200h-130v100h-65v100h-65v100h-65v100h-65v100h-65v105h195z" />
    <glyph glyph-name="uniE13D" unicode="&#xe13d;" 
d="M780 600h-650v200h650v-200z" />
    <glyph glyph-name="uniE13E" unicode="&#xe13e;" 
d="M715 805v-105h-65v-100h-65v-100h-65v-100h-65v-100h-65v-100h-130v200h65v100h65v100h65v100h65v105h195z" />
    <glyph glyph-name="uniE13F" unicode="&#xe13f;" 
d="M520 805v-205h-130v205h130zM390 400h130v-200h-130v200z" />
    <glyph glyph-name="uniE140" unicode="&#xe140;" 
d="M780 805v-205h-390v205h390zM260 805v-305h65v-100h325v-200h-390v100h-65v100h-65v405h130z" />
    <glyph glyph-name="uniE141" unicode="&#xe141;" 
d="M130 805h650v-605h-130v400h-390v-400h-130v605z" />
    <glyph glyph-name="uniE142" unicode="&#xe142;" 
d="M780 805v-405h-65v-100h-65v-100h-520v605h130v-405h325v100h65v200h-65v105h195z" />
    <glyph glyph-name="uniE143" unicode="&#xe143;" 
d="M260 805v-305h65v-100h260v100h65v100h130v-200h-65v-100h-65v-100h-390v100h-65v100h-65v405h130z" />
    <glyph glyph-name="uniE144" unicode="&#xe144;" 
d="M780 805v-405h-65v-100h-65v-100h-520v605h130v-405h325v100h65v305h130z" />
    <glyph glyph-name="uniE145" unicode="&#xe145;" 
d="M130 805h130v-405h520v-200h-650v605z" />
    <glyph glyph-name="uniE146" unicode="&#xe146;" 
d="M260 805v-605h-130v605h130z" />
    <glyph glyph-name="uniE147" unicode="&#xe147;" 
d="M260 805v-255h32v-100h66v-50h292v200h-130v205h260v-605h-520v100h-65v100h-65v405h130z" />
    <glyph glyph-name="uniE148" unicode="&#xe148;" 
d="M260 805v-605h-130v605h130zM780 805v-605h-130v605h130z" />
    <glyph glyph-name="uniE149" unicode="&#xe149;" 
d="M520 805v-405h130v-200h-390v200h130v405h130z" />
    <glyph glyph-name="uniE14A" unicode="&#xe14a;" 
d="M650 805h130v-405h-65v-100h-65v-100h-390v100h-65v100h-65v200h130v-100h65v-100h260v100h65v305z" />
    <glyph glyph-name="uniE14B" unicode="&#xe14b;" 
d="M520 805v-105h65v-100h65v-100h65v-100h65v-200h-130v100h-65v100h-65v100h-65v100h-65v100h-65v105h195zM260 805v-605h-130v605h130z" />
    <glyph glyph-name="uniE14C" unicode="&#xe14c;" 
d="M780 200h-650v605h130v-405h520v-200z" />
    <glyph glyph-name="uniE14D" unicode="&#xe14d;" 
d="M650 805h130v-605h-130v605zM260 805v-605h-130v605h130z" />
    <glyph glyph-name="uniE14E" unicode="&#xe14e;" 
d="M780 805v-605h-130v400h-130v100h-65v105h325zM260 805v-605h-130v605h130z" />
    <glyph glyph-name="uniE14F" unicode="&#xe14f;" 
d="M260 805v-305h65v-100h260v100h65v305h130v-405h-65v-100h-65v-100h-390v100h-65v100h-65v405h130z" />
    <glyph glyph-name="uniE150" unicode="&#xe150;" 
d="M260 805v-605h-130v605h130z" />
    <glyph glyph-name="uniE151" unicode="&#xe151;" 
d="M455 400v200h-65v205h130v-105l130 1v104h130v-205h-65v-200h65v-200h-130v100h-130v-100h-260v100h-65v100h-65v405h130v-305h65v-100h130z" />
    <glyph glyph-name="uniE152" unicode="&#xe152;" 
d="M260 805v-605h-130v605h130zM520 805v-105h65v-100h65v-100h65v-100h65v-200h-130v100h-65v100h-65v100h-65v100h-65v205h130z" />
    <glyph glyph-name="uniE153" unicode="&#xe153;" 
d="M780 805v-405h-65v-100h-65v-100h-390v100h-65v100h-65v200h130v-100h65v-100h260v100h65v200h-65v105h195z" />
    <glyph glyph-name="uniE154" unicode="&#xe154;" 
d="M520 805v-605h-130v605h130z" />
    <glyph glyph-name="uniE155" unicode="&#xe155;" 
d="M650 805h130v-405h-65v-100h-65v-100h-390v100h-65v100h-65v405h130v-305h65v-100h260v100h65v305z" />
    <glyph glyph-name="uniE156" unicode="&#xe156;" 
d="M650 805v-205h-65v-100h-65v-300h-130v300h-65v100h-65v205h130v-105h130v105h130z" />
    <glyph glyph-name="uniE157" unicode="&#xe157;" 
d="M520 500h130v305h130v-405h-65v-100h-65v-100h-130v100h-130v-100h-130v100h-65v100h-65v405h130v-305h130v305h130v-305z" />
    <glyph glyph-name="uniE158" unicode="&#xe158;" 
d="M650 805v-105h65v-100h65v-400h-130v300h-65v100h-65v100h-130v-100h-65v-100h-65v-300h-130v400h65v100h65v105h390z" />
    <glyph glyph-name="uniE159" unicode="&#xe159;" 
d="M520 805v-605h-130v605h130z" />
    <glyph glyph-name="uniE15A" unicode="&#xe15a;" 
d="M455 805v-105h-65v-100h-65v-100h-65v-100h520v-200h-650v400h65v100h65v105h195z" />
    <glyph glyph-name="uniE15B" unicode="&#xe15b;" 
d="M390 805v-105h65v-100h65v-200h-130v100h-65v100h-65v205h130z" />
    <glyph glyph-name="uniE15C" unicode="&#xe15c;" 
d="M650 805v-105h65v-100h65v-200h-130v100h-65v100h-65v100h-65v105h195z" />
    <glyph glyph-name="uniE15D" unicode="&#xe15d;" 
d="M650 805v-205h-65v-100h-65v-100h-130v200h65v100h65v105h130z" />
    <glyph glyph-name="uniE15E" unicode="&#xe15e;" 
d="M520 805v-405h-130v405h130z" />
    <glyph glyph-name="uniE15F" unicode="&#xe15f;" 
d="M130 200h650v-200h-650v200z" />
    <glyph glyph-name="uniE160" unicode="&#xe160;" 
 />
    <glyph glyph-name="uniE161" unicode="&#xe161;" 
d="M325 600v-200h325v200h-325zM780 805v-605h-520v100h-65v100h-65v200h65v100h65v105h520z" />
    <glyph glyph-name="uniE162" unicode="&#xe162;" 
d="M260 805v-405h325v100h65v305h130v-405h-65v-100h-65v-100h-520v605h130z" />
    <glyph glyph-name="uniE163" unicode="&#xe163;" 
d="M260 805v-305h65v-100h455v-200h-520v100h-65v100h-65v405h130z" />
    <glyph glyph-name="uniE164" unicode="&#xe164;" 
d="M260 805v-305h65v-100h325v405h130v-605h-520v100h-65v100h-65v405h130z" />
    <glyph glyph-name="uniE165" unicode="&#xe165;" 
d="M780 805v-205h-520v-100h65v-100h325v-200h-390v100h-65v100h-65v405h650z" />
    <glyph glyph-name="uniE166" unicode="&#xe166;" 
d="M520 805v-605h-130v605h130z" />
    <glyph glyph-name="uniE167" unicode="&#xe167;" 
d="M260 805v-305h65v-100h325v405h130v-805h-65v-100h-65v-100h-390v200h325v100h65v100h-390v100h-65v100h-65v405h130z" />
    <glyph glyph-name="uniE168" unicode="&#xe168;" 
d="M780 805v-605h-130v605h130zM260 805v-605h-130v605h130z" />
    <glyph glyph-name="uniE169" unicode="&#xe169;" 
d="M520 805v-405h130v-200h-390v200h130v405h130z" />
    <glyph glyph-name="uniE16A" unicode="&#xe16a;" 
d="M325 100h65v705h130v-805h-65v-100h-65v-100h-130v200h65v100z" />
    <glyph glyph-name="uniE16B" unicode="&#xe16b;" 
d="M585 805v-205h65v-100h65v-100h65v-200h-130v100h-65v100h-65v100h-65v100h-65v-400h-130v605h325z" />
    <glyph glyph-name="uniE16C" unicode="&#xe16c;" 
d="M520 805v-405h130v-200h-390v200h130v405h130z" />
    <glyph glyph-name="uniE16D" unicode="&#xe16d;" 
d="M260 805v-605h-130v605h130zM780 805v-605h-130v605h130zM520 805v-605h-130v605h130z" />
    <glyph glyph-name="uniE16E" unicode="&#xe16e;" 
d="M260 805v-605h-130v605h130zM780 805v-605h-130v605h130z" />
    <glyph glyph-name="uniE16F" unicode="&#xe16f;" 
d="M780 805v-405h-65v-100h-65v-100h-390v100h-65v100h-65v405h130v-305h65v-100h260v100h65v305h130z" />
    <glyph glyph-name="uniE170" unicode="&#xe170;" 
d="M780 805v-405h-65v-100h-65v-100h-390v-400h-130v1005h130v-405h325v100h65v305h130z" />
    <glyph glyph-name="uniE171" unicode="&#xe171;" 
d="M780 805v-1005h-130v400h-390v100h-65v100h-65v405h130v-305h65v-100h325v405h130z" />
    <glyph glyph-name="uniE172" unicode="&#xe172;" 
d="M390 805v-605h-130v605h130z" />
    <glyph glyph-name="uniE173" unicode="&#xe173;" 
d="M650 805v-105h65v-100h65v-200h-65v-100h-65v-100h-520v200h455v200h-325v100h-65v105h455z" />
    <glyph glyph-name="uniE174" unicode="&#xe174;" 
d="M520 805v-305h65v-100h65v-200h-130v100h-65v100h-65v405h130z" />
    <glyph glyph-name="uniE175" unicode="&#xe175;" 
d="M650 805h130v-605h-520v100h-65v100h-65v405h130v-305h65v-100h325v405z" />
    <glyph glyph-name="uniE176" unicode="&#xe176;" 
d="M390 805v-305h130v305h195v-105h-65v-300h-65v-100h-65v-100h-130v100h-65v100h-65v300h-65v105h195z" />
    <glyph glyph-name="uniE177" unicode="&#xe177;" 
d="M650 300v-100h-130v100h-130v-100h-130v100h-65v100h-65v405h130v-305h130v305h130v-305h130v305h130v-405h-65v-100h-65z" />
    <glyph glyph-name="uniE178" unicode="&#xe178;" 
d="M585 805v-205h65v-100h65v-100h65v-200h-130v100h-65v100h-65v100h-130v-100h-65v-100h-65v-100h-130v200h65v100h65v100h65v205h260z" />
    <glyph glyph-name="uniE179" unicode="&#xe179;" 
d="M585 100h65v100h-390v100h-65v100h-65v405h130v-305h65v-100h325v405h130v-805h-65v-100h-65v-100h-390v200h325v100z" />
    <glyph glyph-name="uniE17A" unicode="&#xe17a;" 
d="M585 805v-105h-65v-100h-65v-100h-65v-100h390v-200h-650v200h130v200h65v100h65v105h195z" />
    <glyph glyph-name="uniE17B" unicode="&#xe17b;" 
d="M422 805v-405h228v-200h-390v605h162z" />
    <glyph glyph-name="uniE17C" unicode="&#xe17c;" 
d="M260 805h130v-605h-130v605zM520 805h130v-605h-130v605z" />
    <glyph glyph-name="uniE17D" unicode="&#xe17d;" 
d="M650 805v-605h-390v200h228v405h162z" />
    <glyph glyph-name="uniE17E" unicode="&#xe17e;" 
 />
    <glyph glyph-name="uniE17F" unicode="&#xe17f;" 
 />
    <glyph glyph-name="uniE180" unicode="&#xe180;" 
 />
    <glyph glyph-name="uniE181" unicode="&#xe181;" 
 />
    <glyph glyph-name="uniE182" unicode="&#xe182;" 
 />
    <glyph glyph-name="uniE183" unicode="&#xe183;" 
 />
    <glyph glyph-name="uniE184" unicode="&#xe184;" 
 />
    <glyph glyph-name="uniE185" unicode="&#xe185;" 
 />
    <glyph glyph-name="uniE186" unicode="&#xe186;" 
 />
    <glyph glyph-name="uniE187" unicode="&#xe187;" 
 />
    <glyph glyph-name="uniE188" unicode="&#xe188;" 
 />
    <glyph glyph-name="uniE189" unicode="&#xe189;" 
 />
    <glyph glyph-name="uniE18A" unicode="&#xe18a;" 
 />
    <glyph glyph-name="uniE18B" unicode="&#xe18b;" 
 />
    <glyph glyph-name="uniE18C" unicode="&#xe18c;" 
 />
    <glyph glyph-name="uniE18D" unicode="&#xe18d;" 
 />
    <glyph glyph-name="uniE18E" unicode="&#xe18e;" 
 />
    <glyph glyph-name="uniE18F" unicode="&#xe18f;" 
 />
    <glyph glyph-name="uniE190" unicode="&#xe190;" 
 />
    <glyph glyph-name="uniE191" unicode="&#xe191;" 
 />
    <glyph glyph-name="uniE192" unicode="&#xe192;" 
 />
    <glyph glyph-name="uniE193" unicode="&#xe193;" 
 />
    <glyph glyph-name="uniE194" unicode="&#xe194;" 
 />
    <glyph glyph-name="uniE195" unicode="&#xe195;" 
 />
    <glyph glyph-name="uniE196" unicode="&#xe196;" 
 />
    <glyph glyph-name="uniE197" unicode="&#xe197;" 
 />
    <glyph glyph-name="uniE198" unicode="&#xe198;" 
 />
    <glyph glyph-name="uniE199" unicode="&#xe199;" 
 />
    <glyph glyph-name="uniE19A" unicode="&#xe19a;" 
 />
    <glyph glyph-name="uniE19B" unicode="&#xe19b;" 
 />
    <glyph glyph-name="uniE19C" unicode="&#xe19c;" 
 />
    <glyph glyph-name="uniE19D" unicode="&#xe19d;" 
 />
    <glyph glyph-name="uniE19E" unicode="&#xe19e;" 
 />
    <glyph glyph-name="uniE19F" unicode="&#xe19f;" 
 />
    <glyph glyph-name="uniE1A0" unicode="&#xe1a0;" 
 />
    <glyph glyph-name="uniE1A1" unicode="&#xe1a1;" 
 />
    <glyph glyph-name="uniE1A2" unicode="&#xe1a2;" 
 />
    <glyph glyph-name="uniE1A3" unicode="&#xe1a3;" 
d="M260 805h130v-405h390v-200h-650v200h130v405z" />
    <glyph glyph-name="uniE1A4" unicode="&#xe1a4;" 
 />
    <glyph glyph-name="uniE1A5" unicode="&#xe1a5;" 
 />
    <glyph glyph-name="uniE1A6" unicode="&#xe1a6;" 
 />
    <glyph glyph-name="uniE1A7" unicode="&#xe1a7;" 
 />
    <glyph glyph-name="uniE1A8" unicode="&#xe1a8;" 
 />
    <glyph glyph-name="uniE1A9" unicode="&#xe1a9;" 
 />
    <glyph glyph-name="uniE1AA" unicode="&#xe1aa;" 
 />
    <glyph glyph-name="uniE1AB" unicode="&#xe1ab;" 
 />
    <glyph glyph-name="uniE1AC" unicode="&#xe1ac;" 
 />
    <glyph glyph-name="uniE1AD" unicode="&#xe1ad;" 
 />
    <glyph glyph-name="uniE1AE" unicode="&#xe1ae;" 
 />
    <glyph glyph-name="uniE1AF" unicode="&#xe1af;" 
 />
    <glyph glyph-name="uniE1B0" unicode="&#xe1b0;" 
 />
    <glyph glyph-name="uniE1B1" unicode="&#xe1b1;" 
 />
    <glyph glyph-name="uniE1B2" unicode="&#xe1b2;" 
 />
    <glyph glyph-name="uniE1B3" unicode="&#xe1b3;" 
 />
    <glyph glyph-name="uniE1B4" unicode="&#xe1b4;" 
 />
    <glyph glyph-name="uniE1B5" unicode="&#xe1b5;" 
 />
    <glyph glyph-name="uniE1B6" unicode="&#xe1b6;" 
d="M130 805h650v-605h-650v605z" />
    <glyph glyph-name="uniE1B7" unicode="&#xe1b7;" 
 />
    <glyph glyph-name="uniE1B8" unicode="&#xe1b8;" 
 />
    <glyph glyph-name="uniE1B9" unicode="&#xe1b9;" 
 />
    <glyph glyph-name="uniE1BA" unicode="&#xe1ba;" 
 />
    <glyph glyph-name="uniE1BB" unicode="&#xe1bb;" 
 />
    <glyph glyph-name="uniE1BC" unicode="&#xe1bc;" 
d="M390 600h-130v205h130v-205zM780 -200h-130v200h-260v400h65v100h65v100h130v205h130v-1005zM650 200v200h-65v-100h-65v-100h130z" />
    <glyph glyph-name="uniE1BD" unicode="&#xe1bd;" 
d="M260 600h-130v205h130v-205zM780 -200h-390v400h65v100h65v100h65v200h-195v205h260v-105h65v-100h65v-200h-65v-100h-65v-100h-65v-100h-65v-100h260v-200z" />
    <glyph glyph-name="uniE1BE" unicode="&#xe1be;" 
d="M455 805v-105h-65v-100h-260v205h325zM780 -200h-130v200h-260v400h65v100h65v100h130v205h130v-1005zM650 200v200h-65v-100h-65v-100h130z" />
    <glyph glyph-name="uniE1BF" unicode="&#xe1bf;" 
 />
    <glyph glyph-name="uniE1C0" unicode="&#xe1c0;" 
 />
    <glyph glyph-name="uniE1C1" unicode="&#xe1c1;" 
 />
    <glyph glyph-name="uniE1C2" unicode="&#xe1c2;" 
 />
    <glyph glyph-name="uniE1C3" unicode="&#xe1c3;" 
 />
    <glyph glyph-name="uniE1C4" unicode="&#xe1c4;" 
 />
    <glyph glyph-name="uniE1C5" unicode="&#xe1c5;" 
 />
    <glyph glyph-name="uniE1C6" unicode="&#xe1c6;" 
 />
    <glyph glyph-name="uniE1C7" unicode="&#xe1c7;" 
 />
    <glyph glyph-name="uniE1C8" unicode="&#xe1c8;" 
 />
    <glyph glyph-name="uniE1C9" unicode="&#xe1c9;" 
 />
    <glyph glyph-name="uniE1CA" unicode="&#xe1ca;" 
 />
    <glyph glyph-name="uniE1CB" unicode="&#xe1cb;" 
 />
    <glyph glyph-name="uniE1CC" unicode="&#xe1cc;" 
 />
    <glyph glyph-name="uniE1CD" unicode="&#xe1cd;" 
 />
    <glyph glyph-name="uniE1CE" unicode="&#xe1ce;" 
 />
    <glyph glyph-name="uniE1CF" unicode="&#xe1cf;" 
 />
    <glyph glyph-name="uniE1D0" unicode="&#xe1d0;" 
 />
    <glyph glyph-name="uniE1D1" unicode="&#xe1d1;" 
 />
    <glyph glyph-name="uniE1D2" unicode="&#xe1d2;" 
 />
    <glyph glyph-name="uniE1D3" unicode="&#xe1d3;" 
 />
    <glyph glyph-name="uniE1D4" unicode="&#xe1d4;" 
 />
    <glyph glyph-name="uniE1D5" unicode="&#xe1d5;" 
 />
    <glyph glyph-name="uniE1D6" unicode="&#xe1d6;" 
 />
    <glyph glyph-name="uniE1D7" unicode="&#xe1d7;" 
 />
    <glyph glyph-name="uniE1D8" unicode="&#xe1d8;" 
 />
    <glyph glyph-name="uniE1D9" unicode="&#xe1d9;" 
 />
    <glyph glyph-name="uniE1DA" unicode="&#xe1da;" 
 />
    <glyph glyph-name="uniE1DB" unicode="&#xe1db;" 
 />
    <glyph glyph-name="uniE1DC" unicode="&#xe1dc;" 
 />
    <glyph glyph-name="uniE1DD" unicode="&#xe1dd;" 
 />
    <glyph glyph-name="uniE1DE" unicode="&#xe1de;" 
 />
    <glyph glyph-name="uniE1DF" unicode="&#xe1df;" 
 />
    <glyph glyph-name="uniE1E0" unicode="&#xe1e0;" 
 />
    <glyph glyph-name="uniE1E1" unicode="&#xe1e1;" 
 />
    <glyph glyph-name="uniE1E2" unicode="&#xe1e2;" 
 />
    <glyph glyph-name="uniE1E3" unicode="&#xe1e3;" 
 />
    <glyph glyph-name="uniE1E4" unicode="&#xe1e4;" 
 />
    <glyph glyph-name="uniE1E5" unicode="&#xe1e5;" 
 />
    <glyph glyph-name="uniE1E6" unicode="&#xe1e6;" 
 />
    <glyph glyph-name="uniE1E7" unicode="&#xe1e7;" 
 />
    <glyph glyph-name="uniE1E8" unicode="&#xe1e8;" 
 />
    <glyph glyph-name="uniE1E9" unicode="&#xe1e9;" 
 />
    <glyph glyph-name="uniE1EA" unicode="&#xe1ea;" 
 />
    <glyph glyph-name="uniE1EB" unicode="&#xe1eb;" 
 />
    <glyph glyph-name="uniE1EC" unicode="&#xe1ec;" 
 />
    <glyph glyph-name="uniE1ED" unicode="&#xe1ed;" 
 />
    <glyph glyph-name="uniE1EE" unicode="&#xe1ee;" 
 />
    <glyph glyph-name="uniE1EF" unicode="&#xe1ef;" 
 />
    <glyph glyph-name="uniE1F0" unicode="&#xe1f0;" 
 />
    <glyph glyph-name="uniE1F1" unicode="&#xe1f1;" 
 />
    <glyph glyph-name="uniE1F2" unicode="&#xe1f2;" 
 />
    <glyph glyph-name="uniE1F3" unicode="&#xe1f3;" 
 />
    <glyph glyph-name="uniE1F4" unicode="&#xe1f4;" 
 />
    <glyph glyph-name="uniE1F5" unicode="&#xe1f5;" 
 />
    <glyph glyph-name="uniE1F6" unicode="&#xe1f6;" 
 />
    <glyph glyph-name="uniE1F7" unicode="&#xe1f7;" 
d="M390 600h130v-200h-130v200z" />
    <glyph glyph-name="uniE1F8" unicode="&#xe1f8;" 
 />
    <glyph glyph-name="uniE1F9" unicode="&#xe1f9;" 
 />
    <glyph glyph-name="uniE1FA" unicode="&#xe1fa;" 
 />
    <glyph glyph-name="uniE1FB" unicode="&#xe1fb;" 
 />
    <glyph glyph-name="uniE1FC" unicode="&#xe1fc;" 
 />
    <glyph glyph-name="uniE1FD" unicode="&#xe1fd;" 
 />
    <glyph glyph-name="uniE1FE" unicode="&#xe1fe;" 
 />
    <glyph glyph-name="uniE1FF" unicode="&#xe1ff;" 
 />
    <glyph glyph-name="uniE200" unicode="&#xe200;" 
 />
    <glyph glyph-name="uniE201" unicode="&#xe201;" 
d="M-13 805h403v-305h-403v305z" />
    <glyph glyph-name="uniE202" unicode="&#xe202;" 
d="M390 805h403v-305h-403v305z" />
    <glyph glyph-name="uniE203" unicode="&#xe203;" 
d="M-13 805h806v-305h-806v305z" />
    <glyph glyph-name="uniE204" unicode="&#xe204;" 
d="M-13 500h403v-400h-403v400z" />
    <glyph glyph-name="uniE205" unicode="&#xe205;" 
d="M-13 803l403 2v-705l-403 -2v705z" />
    <glyph glyph-name="uniE206" unicode="&#xe206;" 
d="M390 805h403v-305l-402 1zM-13 500h403v-400h-403v400z" />
    <glyph glyph-name="uniE207" unicode="&#xe207;" 
d="M793 500h-403v-399h-403v705h806v-306z" />
    <glyph glyph-name="uniE208" unicode="&#xe208;" 
d="M390 500h403v-400h-403v400z" />
    <glyph glyph-name="uniE209" unicode="&#xe209;" 
d="M-13 805h403v-304l-403 -1v305zM390 500h403v-400h-403v400z" />
    <glyph glyph-name="uniE20A" unicode="&#xe20a;" 
d="M390 805h403v-705h-403v705z" />
    <glyph glyph-name="uniE20B" unicode="&#xe20b;" 
d="M-13 805h806v-705h-403v400h-403v305z" />
    <glyph glyph-name="uniE20C" unicode="&#xe20c;" 
d="M-13 500h806v-400h-806v400z" />
    <glyph glyph-name="uniE20D" unicode="&#xe20d;" 
d="M390 805v-305h403v-400h-806v705h403z" />
    <glyph glyph-name="uniE20E" unicode="&#xe20e;" 
d="M390 500v305h403v-705h-806v400h403z" />
    <glyph glyph-name="uniE20F" unicode="&#xe20f;" 
d="M-13 805h806v-705h-806v705z" />
    <glyph glyph-name="uniE210" unicode="&#xe210;" 
d="M-13 100h403v-300h-403v300z" />
    <glyph glyph-name="uniE211" unicode="&#xe211;" 
d="M-13 100h403v-300h-403v300zM-13 805h403v-305h-403v305z" />
    <glyph glyph-name="uniE212" unicode="&#xe212;" 
d="M-13 100h403v-300h-403v300zM390 805h403v-305h-403v305z" />
    <glyph glyph-name="uniE213" unicode="&#xe213;" 
d="M-13 100h403v-300h-403v300zM-13 805h806v-305h-806v305z" />
    <glyph glyph-name="uniE214" unicode="&#xe214;" 
d="M-13 500h403v-700h-403v700z" />
    <glyph glyph-name="uniE215" unicode="&#xe215;" 
d="M-13 805h403v-1005h-403v1005z" />
    <glyph glyph-name="uniE216" unicode="&#xe216;" 
d="M390 805h403v-305l-403 1v304zM-13 500h403v-700h-403v700z" />
    <glyph glyph-name="uniE217" unicode="&#xe217;" 
d="M793 500h-403v-700h-403v1006h806v-306z" />
    <glyph glyph-name="uniE218" unicode="&#xe218;" 
d="M-13 100l403 -1v-299h-403v300zM390 500h403v-400h-403v400z" />
    <glyph glyph-name="uniE219" unicode="&#xe219;" 
d="M-13 100l403 -1v-299h-403v300zM-13 805h403v-304l-403 -1v305zM390 500h403v-400h-403v400z" />
    <glyph glyph-name="uniE21A" unicode="&#xe21a;" 
d="M-13 100l403 -1v-299h-403v300zM390 805h403v-705h-403v705z" />
    <glyph glyph-name="uniE21B" unicode="&#xe21b;" 
d="M-13 100l403 -1v-299h-403v300zM-13 805h806v-705h-403v400h-403v305z" />
    <glyph glyph-name="uniE21C" unicode="&#xe21c;" 
d="M390 100v-300h-403v700h806v-400h-403z" />
    <glyph glyph-name="uniE21D" unicode="&#xe21d;" 
d="M390 100v-300h-403v1005h403v-305h403v-400h-403z" />
    <glyph glyph-name="uniE21E" unicode="&#xe21e;" 
d="M390 100v-300h-403v700h403v305h403v-705h-403z" />
    <glyph glyph-name="uniE21F" unicode="&#xe21f;" 
d="M390 100v-300h-403v1005h806v-705h-403z" />
    <glyph glyph-name="uniE220" unicode="&#xe220;" 
d="M390 100h403v-300h-403v300z" />
    <glyph glyph-name="uniE221" unicode="&#xe221;" 
d="M390 100h403v-300h-403v300zM-13 805h403v-305h-403v305z" />
    <glyph glyph-name="uniE222" unicode="&#xe222;" 
d="M390 100h403v-300h-403v300zM390 805h403v-305h-403v305z" />
    <glyph glyph-name="uniE223" unicode="&#xe223;" 
d="M390 100h403v-300h-403v300zM-13 805h806v-305h-806v305z" />
    <glyph glyph-name="uniE224" unicode="&#xe224;" 
d="M390 99l403 1v-300h-403v299zM-13 500h403v-400h-403v400z" />
    <glyph glyph-name="uniE225" unicode="&#xe225;" 
d="M390 99l403 1v-300h-403v299zM-13 805h403v-705h-403v705z" />
    <glyph glyph-name="uniE226" unicode="&#xe226;" 
d="M390 99l403 1v-300h-403v299zM390 805h403v-305l-403 1v304zM-13 500h403v-400h-403v400z" />
    <glyph glyph-name="uniE227" unicode="&#xe227;" 
d="M390 100h403v-300h-403v300zM793 500h-403v-399h-403v705h806v-306z" />
    <glyph glyph-name="uniE228" unicode="&#xe228;" 
d="M390 500h403v-700h-403v700z" />
    <glyph glyph-name="uniE229" unicode="&#xe229;" 
d="M-13 805h403v-304l-403 -1v305zM390 500h403v-700h-403v700z" />
    <glyph glyph-name="uniE22A" unicode="&#xe22a;" 
d="M390 805h403v-1005h-403v1005z" />
    <glyph glyph-name="uniE22B" unicode="&#xe22b;" 
d="M-13 805h806v-1005h-403v700h-403v305z" />
    <glyph glyph-name="uniE22C" unicode="&#xe22c;" 
d="M390 100h-403v400h806v-700h-403v300z" />
    <glyph glyph-name="uniE22D" unicode="&#xe22d;" 
d="M390 805v-305h403v-700h-403v300h-403v705h403z" />
    <glyph glyph-name="uniE22E" unicode="&#xe22e;" 
d="M390 500v305h403v-1005h-403v300h-403v400h403z" />
    <glyph glyph-name="uniE22F" unicode="&#xe22f;" 
d="M-13 805h806v-1005h-403v300h-403v705z" />
    <glyph glyph-name="uniE230" unicode="&#xe230;" 
d="M-13 100h806v-300h-806v300z" />
    <glyph glyph-name="uniE231" unicode="&#xe231;" 
d="M-13 100h806v-300h-806v300zM-13 805h403v-305h-403v305z" />
    <glyph glyph-name="uniE232" unicode="&#xe232;" 
d="M-13 100h806v-300h-806v300zM390 805h403v-305h-403v305z" />
    <glyph glyph-name="uniE233" unicode="&#xe233;" 
d="M-13 100h806v-300h-806v300zM-13 805h806v-305h-806v305z" />
    <glyph glyph-name="uniE234" unicode="&#xe234;" 
d="M-13 500h403v-400h403v-300h-806v700z" />
    <glyph glyph-name="uniE235" unicode="&#xe235;" 
d="M-13 805h403v-705h403v-300h-806v1005z" />
    <glyph glyph-name="uniE236" unicode="&#xe236;" 
d="M390 805h403v-305l-403 1v304zM-13 500h403v-400h403v-300h-806v700z" />
    <glyph glyph-name="uniE237" unicode="&#xe237;" 
d="M793 500h-403v-400h403v-300l-806 1v1005h806v-306z" />
    <glyph glyph-name="uniE238" unicode="&#xe238;" 
d="M793 -200h-806v300h403v400h403v-700z" />
    <glyph glyph-name="uniE239" unicode="&#xe239;" 
d="M390 499l403 1v-700h-806v300h403v399zM-13 805h403v-305h-403v305z" />
    <glyph glyph-name="uniE23A" unicode="&#xe23a;" 
d="M793 -200h-806v300h403v705h403v-1005z" />
    <glyph glyph-name="uniE23B" unicode="&#xe23b;" 
d="M390 100v400h-403v305h806v-1005h-806v300h403z" />
    <glyph glyph-name="uniE23C" unicode="&#xe23c;" 
d="M793 -200h-806v700h806v-700z" />
    <glyph glyph-name="uniE23D" unicode="&#xe23d;" 
d="M793 -200h-806v1005h403v-305h403v-700z" />
    <glyph glyph-name="uniE23E" unicode="&#xe23e;" 
d="M793 -200h-806v700h403v305h403v-1005z" />
    <glyph glyph-name="uniE23F" unicode="&#xe23f;" 
d="M793 -200h-806v1005h806v-1005z" />
    <glyph glyph-name="uniE240" unicode="&#xe240;" 
 />
    <glyph glyph-name="uniE241" unicode="&#xe241;" 
d="M-13 805h403v-605h-403v605z" />
    <glyph glyph-name="uniE242" unicode="&#xe242;" 
d="M390 805h403v-605h-403v605z" />
    <glyph glyph-name="uniE243" unicode="&#xe243;" 
d="M-13 805h806v-605h-806v605z" />
    <glyph glyph-name="uniE244" unicode="&#xe244;" 
d="M-13 200h403v-400h-403v400z" />
    <glyph glyph-name="uniE245" unicode="&#xe245;" 
d="M-13 805h403v-1005h-403v1005z" />
    <glyph glyph-name="uniE246" unicode="&#xe246;" 
d="M390 805h403v-605l-403 1v604zM-13 200h403v-400h-403v400z" />
    <glyph glyph-name="uniE247" unicode="&#xe247;" 
d="M793 200h-403v-400h-403v1005h806v-605z" />
    <glyph glyph-name="uniE248" unicode="&#xe248;" 
d="M390 200h403v-400h-403v400z" />
    <glyph glyph-name="uniE249" unicode="&#xe249;" 
d="M-13 805h403v-604l-403 -1v605zM390 200h403v-400h-403v400z" />
    <glyph glyph-name="uniE24A" unicode="&#xe24a;" 
d="M390 805h403v-1005h-403v1005z" />
    <glyph glyph-name="uniE24B" unicode="&#xe24b;" 
d="M-13 805h806v-1005h-403v400h-403v605z" />
    <glyph glyph-name="uniE24C" unicode="&#xe24c;" 
d="M-13 200h806v-400h-806v400z" />
    <glyph glyph-name="uniE24D" unicode="&#xe24d;" 
d="M390 805v-605h403v-400h-806v1005h403z" />
    <glyph glyph-name="uniE24E" unicode="&#xe24e;" 
d="M390 200v605h403v-1005h-806v400h403z" />
    <glyph glyph-name="uniE24F" unicode="&#xe24f;" 
d="M-13 805h806v-1005h-806v1005z" />
    <glyph glyph-name="uniE250" unicode="&#xe250;" 
 />
    <glyph glyph-name="uniE251" unicode="&#xe251;" 
d="M-13 805h403v-605h-403v605z" />
    <glyph glyph-name="uniE252" unicode="&#xe252;" 
d="M390 805h403v-605h-403v605z" />
    <glyph glyph-name="uniE253" unicode="&#xe253;" 
d="M-13 805h806v-605h-806v605z" />
    <glyph glyph-name="uniE254" unicode="&#xe254;" 
d="M-13 200h403v-400h-403v400z" />
    <glyph glyph-name="uniE255" unicode="&#xe255;" 
d="M-13 805h403v-1005h-403v1005z" />
    <glyph glyph-name="uniE256" unicode="&#xe256;" 
d="M390 805h403v-605l-403 1v604zM-13 200h403v-400h-403v400z" />
    <glyph glyph-name="uniE257" unicode="&#xe257;" 
d="M793 200h-403v-400h-403v1005h806v-605z" />
    <glyph glyph-name="uniE258" unicode="&#xe258;" 
d="M390 200h403v-400h-403v400z" />
    <glyph glyph-name="uniE259" unicode="&#xe259;" 
d="M-13 805h403v-604l-403 -1v605zM390 200h403v-400h-403v400z" />
    <glyph glyph-name="uniE25A" unicode="&#xe25a;" 
d="M390 805h403v-1005h-403v1005z" />
    <glyph glyph-name="uniE25B" unicode="&#xe25b;" 
d="M-13 805h806v-1005h-403v400h-403v605z" />
    <glyph glyph-name="uniE25C" unicode="&#xe25c;" 
d="M-13 200h806v-400h-806v400z" />
    <glyph glyph-name="uniE25D" unicode="&#xe25d;" 
d="M390 805v-605h403v-400h-806v1005h403z" />
    <glyph glyph-name="uniE25E" unicode="&#xe25e;" 
d="M390 200v605h403v-1005h-806v400h403z" />
    <glyph glyph-name="uniE25F" unicode="&#xe25f;" 
d="M-13 805h806v-1005h-806v1005z" />
    <glyph glyph-name="uniE260" unicode="&#xe260;" 
 />
    <glyph glyph-name="uniE261" unicode="&#xe261;" 
d="M-13 805h403v-605h-403v605z" />
    <glyph glyph-name="uniE262" unicode="&#xe262;" 
d="M390 805h403v-605h-403v605z" />
    <glyph glyph-name="uniE263" unicode="&#xe263;" 
d="M-13 805h806v-605h-806v605z" />
    <glyph glyph-name="uniE264" unicode="&#xe264;" 
d="M-13 200h403v-400h-403v400z" />
    <glyph glyph-name="uniE265" unicode="&#xe265;" 
d="M-13 805h403v-1005h-403v1005z" />
    <glyph glyph-name="uniE266" unicode="&#xe266;" 
d="M390 805h403v-605l-403 1v604zM-13 200h403v-400h-403v400z" />
    <glyph glyph-name="uniE267" unicode="&#xe267;" 
d="M793 200h-403v-400h-403v1005h806v-605z" />
    <glyph glyph-name="uniE268" unicode="&#xe268;" 
d="M390 200h403v-400h-403v400z" />
    <glyph glyph-name="uniE269" unicode="&#xe269;" 
d="M-13 805h403v-604l-403 -1v605zM390 200h403v-400h-403v400z" />
    <glyph glyph-name="uniE26A" unicode="&#xe26a;" 
d="M390 805h403v-1005h-403v1005z" />
    <glyph glyph-name="uniE26B" unicode="&#xe26b;" 
d="M-13 805h806v-1005h-403v400h-403v605z" />
    <glyph glyph-name="uniE26C" unicode="&#xe26c;" 
d="M-13 200h806v-400h-806v400z" />
    <glyph glyph-name="uniE26D" unicode="&#xe26d;" 
d="M390 805v-605h403v-400h-806v1005h403z" />
    <glyph glyph-name="uniE26E" unicode="&#xe26e;" 
d="M390 200v605h403v-1005h-806v400h403z" />
    <glyph glyph-name="uniE26F" unicode="&#xe26f;" 
d="M-13 805h806v-1005h-806v1005z" />
    <glyph glyph-name="uniE270" unicode="&#xe270;" 
 />
    <glyph glyph-name="uniE271" unicode="&#xe271;" 
d="M-13 805h403v-605h-403v605z" />
    <glyph glyph-name="uniE272" unicode="&#xe272;" 
d="M390 805h403v-605h-403v605z" />
    <glyph glyph-name="uniE273" unicode="&#xe273;" 
d="M-13 805h806v-605h-806v605z" />
    <glyph glyph-name="uniE274" unicode="&#xe274;" 
d="M-13 200h403v-400h-403v400z" />
    <glyph glyph-name="uniE275" unicode="&#xe275;" 
d="M-13 805h403v-1005h-403v1005z" />
    <glyph glyph-name="uniE276" unicode="&#xe276;" 
d="M390 805h403v-605l-403 1v604zM-13 200h403v-400h-403v400z" />
    <glyph glyph-name="uniE277" unicode="&#xe277;" 
d="M793 200h-403v-400h-403v1005h806v-605z" />
    <glyph glyph-name="uniE278" unicode="&#xe278;" 
d="M390 200h403v-400h-403v400z" />
    <glyph glyph-name="uniE279" unicode="&#xe279;" 
d="M-13 805h403v-604l-403 -1v605zM390 200h403v-400h-403v400z" />
    <glyph glyph-name="uniE27A" unicode="&#xe27a;" 
d="M390 805h403v-1005h-403v1005z" />
    <glyph glyph-name="uniE27B" unicode="&#xe27b;" 
d="M-13 805h806v-1005h-403v400h-403v605z" />
    <glyph glyph-name="uniE27C" unicode="&#xe27c;" 
d="M-13 200h806v-400h-806v400z" />
    <glyph glyph-name="uniE27D" unicode="&#xe27d;" 
d="M390 805v-605h403v-400h-806v1005h403z" />
    <glyph glyph-name="uniE27E" unicode="&#xe27e;" 
d="M390 200v605h403v-1005h-806v400h403z" />
    <glyph glyph-name="uniE27F" unicode="&#xe27f;" 
d="M-13 805h806v-1005h-806v1005z" />
    <glyph glyph-name="uniE280" unicode="&#xe280;" 
 />
    <glyph glyph-name="uniE281" unicode="&#xe281;" 
 />
    <glyph glyph-name="uniE282" unicode="&#xe282;" 
 />
    <glyph glyph-name="uniE283" unicode="&#xe283;" 
 />
    <glyph glyph-name="uniE284" unicode="&#xe284;" 
d="M-13 805h403v-405h-403v405z" />
    <glyph glyph-name="uniE285" unicode="&#xe285;" 
d="M-13 805h403v-405h-403v405z" />
    <glyph glyph-name="uniE286" unicode="&#xe286;" 
d="M-13 805h403v-405h-403v405z" />
    <glyph glyph-name="uniE287" unicode="&#xe287;" 
d="M-13 805h403v-405h-403v405z" />
    <glyph glyph-name="uniE288" unicode="&#xe288;" 
d="M390 805h403v-405h-403v405z" />
    <glyph glyph-name="uniE289" unicode="&#xe289;" 
d="M-13 805h403v-405h-403v405z" />
    <glyph glyph-name="uniE28A" unicode="&#xe28a;" 
d="M-13 805h403v-405h-403v405z" />
    <glyph glyph-name="uniE28B" unicode="&#xe28b;" 
d="M-13 805h403v-405h-403v405z" />
    <glyph glyph-name="uniE28C" unicode="&#xe28c;" 
d="M-13 805h806v-405h-806v405z" />
    <glyph glyph-name="uniE28D" unicode="&#xe28d;" 
d="M-13 805h806v-405h-806v405z" />
    <glyph glyph-name="uniE28E" unicode="&#xe28e;" 
d="M-13 805h806v-405h-806v405z" />
    <glyph glyph-name="uniE28F" unicode="&#xe28f;" 
d="M-13 805h806v-405h-806v405z" />
    <glyph glyph-name="uniE290" unicode="&#xe290;" 
d="M-13 400h403v-600h-403v600z" />
    <glyph glyph-name="uniE291" unicode="&#xe291;" 
d="M-13 400h403v-600h-403v600z" />
    <glyph glyph-name="uniE292" unicode="&#xe292;" 
d="M-13 400h403v-600h-403v600z" />
    <glyph glyph-name="uniE293" unicode="&#xe293;" 
d="M-13 400h403v-600h-403v600z" />
    <glyph glyph-name="uniE294" unicode="&#xe294;" 
d="M-13 805h403v-1005h-403v1005z" />
    <glyph glyph-name="uniE295" unicode="&#xe295;" 
d="M-13 805h403v-1005h-403v1005z" />
    <glyph glyph-name="uniE296" unicode="&#xe296;" 
d="M-13 805h403v-1005h-403v1005z" />
    <glyph glyph-name="uniE297" unicode="&#xe297;" 
d="M-13 805h403v-1005h-403v1005z" />
    <glyph glyph-name="uniE298" unicode="&#xe298;" 
d="M-13 400l403 -1v-599h-403v600zM390 805h403v-405h-403v405z" />
    <glyph glyph-name="uniE299" unicode="&#xe299;" 
d="M-13 400l403 -1v-599h-403v600zM390 805h403v-405h-403v405z" />
    <glyph glyph-name="uniE29A" unicode="&#xe29a;" 
d="M-13 400l403 -1v-599h-403v600zM390 805h403v-405h-403v405z" />
    <glyph glyph-name="uniE29B" unicode="&#xe29b;" 
d="M-13 400l403 -1v-599h-403v600zM390 805h403v-405h-403v405z" />
    <glyph glyph-name="uniE29C" unicode="&#xe29c;" 
d="M390 400v-600h-403v1005h806v-405h-403z" />
    <glyph glyph-name="uniE29D" unicode="&#xe29d;" 
d="M390 400v-600h-403v1005h806v-405h-403z" />
    <glyph glyph-name="uniE29E" unicode="&#xe29e;" 
d="M390 400v-600h-403v1005h806v-405h-403z" />
    <glyph glyph-name="uniE29F" unicode="&#xe29f;" 
d="M390 400v-600h-403v1005h806v-405h-403z" />
    <glyph glyph-name="uniE2A0" unicode="&#xe2a0;" 
d="M390 400h403v-600h-403v600z" />
    <glyph glyph-name="uniE2A1" unicode="&#xe2a1;" 
d="M390 400h403v-600h-403v600z" />
    <glyph glyph-name="uniE2A2" unicode="&#xe2a2;" 
d="M390 400h403v-600h-403v600z" />
    <glyph glyph-name="uniE2A3" unicode="&#xe2a3;" 
d="M390 400h403v-600h-403v600z" />
    <glyph glyph-name="uniE2A4" unicode="&#xe2a4;" 
d="M390 399l403 1v-600h-403v599zM-13 805h403v-405h-403v405z" />
    <glyph glyph-name="uniE2A5" unicode="&#xe2a5;" 
d="M390 399l403 1v-600h-403v599zM-13 805h403v-405h-403v405z" />
    <glyph glyph-name="uniE2A6" unicode="&#xe2a6;" 
d="M390 399l403 1v-600h-403v599zM-13 805h403v-405h-403v405z" />
    <glyph glyph-name="uniE2A7" unicode="&#xe2a7;" 
d="M390 399l403 1v-600h-403v599zM-13 805h403v-405h-403v405z" />
    <glyph glyph-name="uniE2A8" unicode="&#xe2a8;" 
d="M390 805h403v-1005h-403v1005z" />
    <glyph glyph-name="uniE2A9" unicode="&#xe2a9;" 
d="M390 805h403v-1005h-403v1005z" />
    <glyph glyph-name="uniE2AA" unicode="&#xe2aa;" 
d="M390 805h403v-1005h-403v1005z" />
    <glyph glyph-name="uniE2AB" unicode="&#xe2ab;" 
d="M390 805h403v-1005h-403v1005z" />
    <glyph glyph-name="uniE2AC" unicode="&#xe2ac;" 
d="M390 400h-403v405h806v-1005h-403v600z" />
    <glyph glyph-name="uniE2AD" unicode="&#xe2ad;" 
d="M390 400h-403v405h806v-1005h-403v600z" />
    <glyph glyph-name="uniE2AE" unicode="&#xe2ae;" 
d="M390 400h-403v405h806v-1005h-403v600z" />
    <glyph glyph-name="uniE2AF" unicode="&#xe2af;" 
d="M390 400h-403v405h806v-1005h-403v600z" />
    <glyph glyph-name="uniE2B0" unicode="&#xe2b0;" 
d="M-13 400h806v-600h-806v600z" />
    <glyph glyph-name="uniE2B1" unicode="&#xe2b1;" 
d="M-13 400h806v-600h-806v600z" />
    <glyph glyph-name="uniE2B2" unicode="&#xe2b2;" 
d="M-13 400h806v-600h-806v600z" />
    <glyph glyph-name="uniE2B3" unicode="&#xe2b3;" 
d="M-13 400h806v-600h-806v600z" />
    <glyph glyph-name="uniE2B4" unicode="&#xe2b4;" 
d="M-13 805h403v-405h403v-600h-806v1005z" />
    <glyph glyph-name="uniE2B5" unicode="&#xe2b5;" 
d="M-13 805h403v-405h403v-600h-806v1005z" />
    <glyph glyph-name="uniE2B6" unicode="&#xe2b6;" 
d="M-13 805h403v-405h403v-600h-806v1005z" />
    <glyph glyph-name="uniE2B7" unicode="&#xe2b7;" 
d="M-13 805h403v-405h403v-600h-806v1005z" />
    <glyph glyph-name="uniE2B8" unicode="&#xe2b8;" 
d="M793 -200h-806v600h403v405h403v-1005z" />
    <glyph glyph-name="uniE2B9" unicode="&#xe2b9;" 
d="M793 -200h-806v600h403v405h403v-1005z" />
    <glyph glyph-name="uniE2BA" unicode="&#xe2ba;" 
d="M793 -200h-806v600h403v405h403v-1005z" />
    <glyph glyph-name="uniE2BB" unicode="&#xe2bb;" 
d="M793 -200h-806v600h403v405h403v-1005z" />
    <glyph glyph-name="uniE2BC" unicode="&#xe2bc;" 
d="M793 -200h-806v1005h806v-1005z" />
    <glyph glyph-name="uniE2BD" unicode="&#xe2bd;" 
d="M793 -200h-806v1005h806v-1005z" />
    <glyph glyph-name="uniE2BE" unicode="&#xe2be;" 
d="M793 -200h-806v1005h806v-1005z" />
    <glyph glyph-name="uniE2BF" unicode="&#xe2bf;" 
d="M793 -200h-806v1005h806v-1005z" />
    <glyph glyph-name="uniE2C0" unicode="&#xe2c0;" 
 />
    <glyph glyph-name="uniE2C1" unicode="&#xe2c1;" 
d="M130 800h260v-200h-260v200z" />
    <glyph glyph-name="uniE2C2" unicode="&#xe2c2;" 
d="M520 800h260v-200h-260v200z" />
    <glyph glyph-name="uniE2C3" unicode="&#xe2c3;" 
d="M130 800h260v-200h-260v200zM520 800h260v-200h-260v200z" />
    <glyph glyph-name="uniE2C4" unicode="&#xe2c4;" 
d="M130 500h260v-300h-260v300z" />
    <glyph glyph-name="uniE2C5" unicode="&#xe2c5;" 
d="M130 500h260v-300h-260v300zM130 800h260v-200h-260v200z" />
    <glyph glyph-name="uniE2C6" unicode="&#xe2c6;" 
d="M130 500h260v-300h-260v300zM520 800h260v-200h-260v200z" />
    <glyph glyph-name="uniE2C7" unicode="&#xe2c7;" 
d="M130 500h260v-300h-260v300zM130 800h260v-200h-260v200zM520 800h260v-200h-260v200z" />
    <glyph glyph-name="uniE2C8" unicode="&#xe2c8;" 
d="M520 500h260v-300h-260v300z" />
    <glyph glyph-name="uniE2C9" unicode="&#xe2c9;" 
d="M520 500h260v-300h-260v300zM130 800h260v-200h-260v200z" />
    <glyph glyph-name="uniE2CA" unicode="&#xe2ca;" 
d="M520 500h260v-300h-260v300zM520 800h260v-200h-260v200z" />
    <glyph glyph-name="uniE2CB" unicode="&#xe2cb;" 
d="M520 500h260v-300h-260v300zM130 800h260v-200h-260v200zM520 800h260v-200h-260v200z" />
    <glyph glyph-name="uniE2CC" unicode="&#xe2cc;" 
d="M130 500h260v-300h-260v300zM520 500h260v-300h-260v300z" />
    <glyph glyph-name="uniE2CD" unicode="&#xe2cd;" 
d="M130 500h260v-300h-260v300zM520 500h260v-300h-260v300zM130 800h260v-200h-260v200z" />
    <glyph glyph-name="uniE2CE" unicode="&#xe2ce;" 
d="M130 500h260v-300h-260v300zM520 500h260v-300h-260v300zM520 800h260v-200h-260v200z" />
    <glyph glyph-name="uniE2CF" unicode="&#xe2cf;" 
d="M130 500h260v-300h-260v300zM520 500h260v-300h-260v300zM130 800h260v-200h-260v200zM520 800h260v-200h-260v200z" />
    <glyph glyph-name="uniE2D0" unicode="&#xe2d0;" 
d="M130 100h260v-200h-260v200z" />
    <glyph glyph-name="uniE2D1" unicode="&#xe2d1;" 
d="M130 100h260v-200h-260v200zM130 800h260v-200h-260v200z" />
    <glyph glyph-name="uniE2D2" unicode="&#xe2d2;" 
d="M130 100h260v-200h-260v200zM520 800h260v-200h-260v200z" />
    <glyph glyph-name="uniE2D3" unicode="&#xe2d3;" 
d="M130 100h260v-200h-260v200zM130 800h260v-200h-260v200zM520 800h260v-200h-260v200z" />
    <glyph glyph-name="uniE2D4" unicode="&#xe2d4;" 
d="M130 100h260v-200h-260v200zM130 500h260v-300h-260v300z" />
    <glyph glyph-name="uniE2D5" unicode="&#xe2d5;" 
d="M130 100h260v-200h-260v200zM130 500h260v-300h-260v300zM130 800h260v-200h-260v200z" />
    <glyph glyph-name="uniE2D6" unicode="&#xe2d6;" 
d="M130 100h260v-200h-260v200zM130 500h260v-300h-260v300zM520 800h260v-200h-260v200z" />
    <glyph glyph-name="uniE2D7" unicode="&#xe2d7;" 
d="M130 100h260v-200h-260v200zM130 500h260v-300h-260v300zM130 800h260v-200h-260v200zM520 800h260v-200h-260v200z" />
    <glyph glyph-name="uniE2D8" unicode="&#xe2d8;" 
d="M130 100h260v-200h-260v200zM520 500h260v-300h-260v300z" />
    <glyph glyph-name="uniE2D9" unicode="&#xe2d9;" 
d="M130 100h260v-200h-260v200zM520 500h260v-300h-260v300zM130 800h260v-200h-260v200z" />
    <glyph glyph-name="uniE2DA" unicode="&#xe2da;" 
d="M130 100h260v-200h-260v200zM520 500h260v-300h-260v300zM520 800h260v-200h-260v200z" />
    <glyph glyph-name="uniE2DB" unicode="&#xe2db;" 
d="M130 100h260v-200h-260v200zM520 500h260v-300h-260v300zM130 800h260v-200h-260v200zM520 800h260v-200h-260v200z" />
    <glyph glyph-name="uniE2DC" unicode="&#xe2dc;" 
d="M130 100h260v-200h-260v200zM130 500h260v-300h-260v300zM520 500h260v-300h-260v300z" />
    <glyph glyph-name="uniE2DD" unicode="&#xe2dd;" 
d="M130 100h260v-200h-260v200zM130 500h260v-300h-260v300zM520 500h260v-300h-260v300zM130 800h260v-200h-260v200z" />
    <glyph glyph-name="uniE2DE" unicode="&#xe2de;" 
d="M130 100h260v-200h-260v200zM130 500h260v-300h-260v300zM520 500h260v-300h-260v300zM520 800h260v-200h-260v200z" />
    <glyph glyph-name="uniE2DF" unicode="&#xe2df;" 
d="M130 100h260v-200h-260v200zM130 500h260v-300h-260v300zM520 500h260v-300h-260v300zM130 800h260v-200h-260v200zM520 800h260v-200h-260v200z" />
    <glyph glyph-name="uniE2E0" unicode="&#xe2e0;" 
d="M520 100h260v-200h-260v200z" />
    <glyph glyph-name="uniE2E1" unicode="&#xe2e1;" 
d="M520 100h260v-200h-260v200zM130 800h260v-200h-260v200z" />
    <glyph glyph-name="uniE2E2" unicode="&#xe2e2;" 
d="M520 100h260v-200h-260v200zM520 800h260v-200h-260v200z" />
    <glyph glyph-name="uniE2E3" unicode="&#xe2e3;" 
d="M520 100h260v-200h-260v200zM130 800h260v-200h-260v200zM520 800h260v-200h-260v200z" />
    <glyph glyph-name="uniE2E4" unicode="&#xe2e4;" 
d="M520 100h260v-200h-260v200zM130 500h260v-300h-260v300z" />
    <glyph glyph-name="uniE2E5" unicode="&#xe2e5;" 
d="M520 100h260v-200h-260v200zM130 500h260v-300h-260v300zM130 800h260v-200h-260v200z" />
    <glyph glyph-name="uniE2E6" unicode="&#xe2e6;" 
d="M520 100h260v-200h-260v200zM130 500h260v-300h-260v300zM520 800h260v-200h-260v200z" />
    <glyph glyph-name="uniE2E7" unicode="&#xe2e7;" 
d="M520 100h260v-200h-260v200zM130 500h260v-300h-260v300zM130 800h260v-200h-260v200zM520 800h260v-200h-260v200z" />
    <glyph glyph-name="uniE2E8" unicode="&#xe2e8;" 
d="M520 100h260v-200h-260v200zM520 500h260v-300h-260v300z" />
    <glyph glyph-name="uniE2E9" unicode="&#xe2e9;" 
d="M520 100h260v-200h-260v200zM520 500h260v-300h-260v300zM130 800h260v-200h-260v200z" />
    <glyph glyph-name="uniE2EA" unicode="&#xe2ea;" 
d="M520 100h260v-200h-260v200zM520 500h260v-300h-260v300zM520 800h260v-200h-260v200z" />
    <glyph glyph-name="uniE2EB" unicode="&#xe2eb;" 
d="M520 100h260v-200h-260v200zM520 500h260v-300h-260v300zM130 800h260v-200h-260v200zM520 800h260v-200h-260v200z" />
    <glyph glyph-name="uniE2EC" unicode="&#xe2ec;" 
d="M520 100h260v-200h-260v200zM130 500h260v-300h-260v300zM520 500h260v-300h-260v300z" />
    <glyph glyph-name="uniE2ED" unicode="&#xe2ed;" 
d="M520 100h260v-200h-260v200zM130 500h260v-300h-260v300zM520 500h260v-300h-260v300zM130 800h260v-200h-260v200z" />
    <glyph glyph-name="uniE2EE" unicode="&#xe2ee;" 
d="M520 100h260v-200h-260v200zM130 500h260v-300h-260v300zM520 500h260v-300h-260v300zM520 800h260v-200h-260v200z" />
    <glyph glyph-name="uniE2EF" unicode="&#xe2ef;" 
d="M520 100h260v-200h-260v200zM130 500h260v-300h-260v300zM520 500h260v-300h-260v300zM130 800h260v-200h-260v200zM520 800h260v-200h-260v200z" />
    <glyph glyph-name="uniE2F0" unicode="&#xe2f0;" 
d="M520 100h260v-200h-260v200zM130 100h260v-200h-260v200z" />
    <glyph glyph-name="uniE2F1" unicode="&#xe2f1;" 
d="M520 100h260v-200h-260v200zM130 100h260v-200h-260v200zM130 800h260v-200h-260v200z" />
    <glyph glyph-name="uniE2F2" unicode="&#xe2f2;" 
d="M520 100h260v-200h-260v200zM130 100h260v-200h-260v200zM520 800h260v-200h-260v200z" />
    <glyph glyph-name="uniE2F3" unicode="&#xe2f3;" 
d="M520 100h260v-200h-260v200zM130 100h260v-200h-260v200zM130 800h260v-200h-260v200zM520 800h260v-200h-260v200z" />
    <glyph glyph-name="uniE2F4" unicode="&#xe2f4;" 
d="M520 100h260v-200h-260v200zM130 100h260v-200h-260v200zM130 500h260v-300h-260v300z" />
    <glyph glyph-name="uniE2F5" unicode="&#xe2f5;" 
d="M520 100h260v-200h-260v200zM130 100h260v-200h-260v200zM130 500h260v-300h-260v300zM130 800h260v-200h-260v200z" />
    <glyph glyph-name="uniE2F6" unicode="&#xe2f6;" 
d="M520 100h260v-200h-260v200zM130 100h260v-200h-260v200zM130 500h260v-300h-260v300zM520 800h260v-200h-260v200z" />
    <glyph glyph-name="uniE2F7" unicode="&#xe2f7;" 
d="M520 100h260v-200h-260v200zM130 100h260v-200h-260v200zM130 500h260v-300h-260v300zM130 800h260v-200h-260v200zM520 800h260v-200h-260v200z" />
    <glyph glyph-name="uniE2F8" unicode="&#xe2f8;" 
d="M520 100h260v-200h-260v200zM130 100h260v-200h-260v200zM520 500h260v-300h-260v300z" />
    <glyph glyph-name="uniE2F9" unicode="&#xe2f9;" 
d="M520 100h260v-200h-260v200zM130 100h260v-200h-260v200zM520 500h260v-300h-260v300zM130 800h260v-200h-260v200z" />
    <glyph glyph-name="uniE2FA" unicode="&#xe2fa;" 
d="M520 100h260v-200h-260v200zM130 100h260v-200h-260v200zM520 500h260v-300h-260v300zM520 800h260v-200h-260v200z" />
    <glyph glyph-name="uniE2FB" unicode="&#xe2fb;" 
d="M520 100h260v-200h-260v200zM130 100h260v-200h-260v200zM520 500h260v-300h-260v300zM130 800h260v-200h-260v200zM520 800h260v-200h-260v200z" />
    <glyph glyph-name="uniE2FC" unicode="&#xe2fc;" 
d="M520 100h260v-200h-260v200zM130 100h260v-200h-260v200zM130 500h260v-300h-260v300zM520 500h260v-300h-260v300z" />
    <glyph glyph-name="uniE2FD" unicode="&#xe2fd;" 
d="M520 100h260v-200h-260v200zM130 100h260v-200h-260v200zM130 500h260v-300h-260v300zM520 500h260v-300h-260v300zM130 800h260v-200h-260v200z" />
    <glyph glyph-name="uniE2FE" unicode="&#xe2fe;" 
d="M520 100h260v-200h-260v200zM130 100h260v-200h-260v200zM130 500h260v-300h-260v300zM520 500h260v-300h-260v300zM520 800h260v-200h-260v200z" />
    <glyph glyph-name="uniE2FF" unicode="&#xe2ff;" 
d="M520 100h260v-200h-260v200zM130 100h260v-200h-260v200zM130 500h260v-300h-260v300zM520 500h260v-300h-260v300zM130 800h260v-200h-260v200zM520 800h260v-200h-260v200z" />
    <glyph glyph-name="uniE300" unicode="&#xe300;" 
 />
    <glyph glyph-name="uniE301" unicode="&#xe301;" 
d="M130 805h260v-405h-260v405z" />
    <glyph glyph-name="uniE302" unicode="&#xe302;" 
d="M520 805h266v-405h-266v405z" />
    <glyph glyph-name="uniE303" unicode="&#xe303;" 
d="M130 805h260v-405h-260v405zM520 805h266v-405h-266v405z" />
    <glyph glyph-name="uniE304" unicode="&#xe304;" 
d="M130 200h260v-400h-260v400z" />
    <glyph glyph-name="uniE305" unicode="&#xe305;" 
d="M130 200h260v-400h-260v400zM130 805h260v-405h-260v405z" />
    <glyph glyph-name="uniE306" unicode="&#xe306;" 
d="M130 200h260v-400h-260v400zM520 805h266v-405h-266v405z" />
    <glyph glyph-name="uniE307" unicode="&#xe307;" 
d="M130 200h260v-400h-260v400zM130 805h260v-405h-260v405zM520 805h266v-405h-266v405z" />
    <glyph glyph-name="uniE308" unicode="&#xe308;" 
d="M520 200h266v-400h-266v400z" />
    <glyph glyph-name="uniE309" unicode="&#xe309;" 
d="M520 200h266v-400h-266v400zM130 805h260v-405h-260v405z" />
    <glyph glyph-name="uniE30A" unicode="&#xe30a;" 
d="M520 200h266v-400h-266v400zM520 805h266v-405h-266v405z" />
    <glyph glyph-name="uniE30B" unicode="&#xe30b;" 
d="M520 200h266v-400h-266v400zM130 805h260v-405h-260v405zM520 805h266v-405h-266v405z" />
    <glyph glyph-name="uniE30C" unicode="&#xe30c;" 
d="M130 200h260v-400h-260v400zM520 200h266v-400h-266v400z" />
    <glyph glyph-name="uniE30D" unicode="&#xe30d;" 
d="M130 200h260v-400h-260v400zM520 200h266v-400h-266v400zM130 805h260v-405h-260v405z" />
    <glyph glyph-name="uniE30E" unicode="&#xe30e;" 
d="M130 200h260v-400h-260v400zM520 200h266v-400h-266v400zM520 805h266v-405h-266v405z" />
    <glyph glyph-name="uniE30F" unicode="&#xe30f;" 
d="M130 200h260v-400h-260v400zM520 200h266v-400h-266v400zM130 805h260v-405h-260v405zM520 805h266v-405h-266v405z" />
    <glyph glyph-name="uniE310" unicode="&#xe310;" 
 />
    <glyph glyph-name="uniE311" unicode="&#xe311;" 
d="M130 805h260v-405h-260v405z" />
    <glyph glyph-name="uniE312" unicode="&#xe312;" 
d="M520 805h266v-405h-266v405z" />
    <glyph glyph-name="uniE313" unicode="&#xe313;" 
d="M130 805h260v-405h-260v405zM520 805h266v-405h-266v405z" />
    <glyph glyph-name="uniE314" unicode="&#xe314;" 
d="M130 200h260v-400h-260v400z" />
    <glyph glyph-name="uniE315" unicode="&#xe315;" 
d="M130 200h260v-400h-260v400zM130 805h260v-405h-260v405z" />
    <glyph glyph-name="uniE316" unicode="&#xe316;" 
d="M130 200h260v-400h-260v400zM520 805h266v-405h-266v405z" />
    <glyph glyph-name="uniE317" unicode="&#xe317;" 
d="M130 200h260v-400h-260v400zM130 805h260v-405h-260v405zM520 805h266v-405h-266v405z" />
    <glyph glyph-name="uniE318" unicode="&#xe318;" 
d="M520 200h266v-400h-266v400z" />
    <glyph glyph-name="uniE319" unicode="&#xe319;" 
d="M520 200h266v-400h-266v400zM130 805h260v-405h-260v405z" />
    <glyph glyph-name="uniE31A" unicode="&#xe31a;" 
d="M520 200h266v-400h-266v400zM520 805h266v-405h-266v405z" />
    <glyph glyph-name="uniE31B" unicode="&#xe31b;" 
d="M520 200h266v-400h-266v400zM130 805h260v-405h-260v405zM520 805h266v-405h-266v405z" />
    <glyph glyph-name="uniE31C" unicode="&#xe31c;" 
d="M130 200h260v-400h-260v400zM520 200h266v-400h-266v400z" />
    <glyph glyph-name="uniE31D" unicode="&#xe31d;" 
d="M130 200h260v-400h-260v400zM520 200h266v-400h-266v400zM130 805h260v-405h-260v405z" />
    <glyph glyph-name="uniE31E" unicode="&#xe31e;" 
d="M130 200h260v-400h-260v400zM520 200h266v-400h-266v400zM520 805h266v-405h-266v405z" />
    <glyph glyph-name="uniE31F" unicode="&#xe31f;" 
d="M130 200h260v-400h-260v400zM520 200h266v-400h-266v400zM130 805h260v-405h-260v405zM520 805h266v-405h-266v405z" />
    <glyph glyph-name="uniE320" unicode="&#xe320;" 
 />
    <glyph glyph-name="uniE321" unicode="&#xe321;" 
d="M130 805h260v-405h-260v405z" />
    <glyph glyph-name="uniE322" unicode="&#xe322;" 
d="M520 805h266v-405h-266v405z" />
    <glyph glyph-name="uniE323" unicode="&#xe323;" 
d="M130 805h260v-405h-260v405zM520 805h266v-405h-266v405z" />
    <glyph glyph-name="uniE324" unicode="&#xe324;" 
d="M130 200h260v-400h-260v400z" />
    <glyph glyph-name="uniE325" unicode="&#xe325;" 
d="M130 200h260v-400h-260v400zM130 805h260v-405h-260v405z" />
    <glyph glyph-name="uniE326" unicode="&#xe326;" 
d="M130 200h260v-400h-260v400zM520 805h266v-405h-266v405z" />
    <glyph glyph-name="uniE327" unicode="&#xe327;" 
d="M130 200h260v-400h-260v400zM130 805h260v-405h-260v405zM520 805h266v-405h-266v405z" />
    <glyph glyph-name="uniE328" unicode="&#xe328;" 
d="M520 200h266v-400h-266v400z" />
    <glyph glyph-name="uniE329" unicode="&#xe329;" 
d="M520 200h266v-400h-266v400zM130 805h260v-405h-260v405z" />
    <glyph glyph-name="uniE32A" unicode="&#xe32a;" 
d="M520 200h266v-400h-266v400zM520 805h266v-405h-266v405z" />
    <glyph glyph-name="uniE32B" unicode="&#xe32b;" 
d="M520 200h266v-400h-266v400zM130 805h260v-405h-260v405zM520 805h266v-405h-266v405z" />
    <glyph glyph-name="uniE32C" unicode="&#xe32c;" 
d="M130 200h260v-400h-260v400zM520 200h266v-400h-266v400z" />
    <glyph glyph-name="uniE32D" unicode="&#xe32d;" 
d="M130 200h260v-400h-260v400zM520 200h266v-400h-266v400zM130 805h260v-405h-260v405z" />
    <glyph glyph-name="uniE32E" unicode="&#xe32e;" 
d="M130 200h260v-400h-260v400zM520 200h266v-400h-266v400zM520 805h266v-405h-266v405z" />
    <glyph glyph-name="uniE32F" unicode="&#xe32f;" 
d="M130 200h260v-400h-260v400zM520 200h266v-400h-266v400zM130 805h260v-405h-260v405zM520 805h266v-405h-266v405z" />
    <glyph glyph-name="uniE330" unicode="&#xe330;" 
 />
    <glyph glyph-name="uniE331" unicode="&#xe331;" 
d="M130 805h260v-405h-260v405z" />
    <glyph glyph-name="uniE332" unicode="&#xe332;" 
d="M520 805h266v-405h-266v405z" />
    <glyph glyph-name="uniE333" unicode="&#xe333;" 
d="M130 805h260v-405h-260v405zM520 805h266v-405h-266v405z" />
    <glyph glyph-name="uniE334" unicode="&#xe334;" 
d="M130 200h260v-400h-260v400z" />
    <glyph glyph-name="uniE335" unicode="&#xe335;" 
d="M130 200h260v-400h-260v400zM130 805h260v-405h-260v405z" />
    <glyph glyph-name="uniE336" unicode="&#xe336;" 
d="M130 200h260v-400h-260v400zM520 805h266v-405h-266v405z" />
    <glyph glyph-name="uniE337" unicode="&#xe337;" 
d="M130 200h260v-400h-260v400zM130 805h260v-405h-260v405zM520 805h266v-405h-266v405z" />
    <glyph glyph-name="uniE338" unicode="&#xe338;" 
d="M520 200h266v-400h-266v400z" />
    <glyph glyph-name="uniE339" unicode="&#xe339;" 
d="M520 200h266v-400h-266v400zM130 805h260v-405h-260v405z" />
    <glyph glyph-name="uniE33A" unicode="&#xe33a;" 
d="M520 200h266v-400h-266v400zM520 805h266v-405h-266v405z" />
    <glyph glyph-name="uniE33B" unicode="&#xe33b;" 
d="M520 200h266v-400h-266v400zM130 805h260v-405h-260v405zM520 805h266v-405h-266v405z" />
    <glyph glyph-name="uniE33C" unicode="&#xe33c;" 
d="M130 200h260v-400h-260v400zM520 200h266v-400h-266v400z" />
    <glyph glyph-name="uniE33D" unicode="&#xe33d;" 
d="M130 200h260v-400h-260v400zM520 200h266v-400h-266v400zM130 805h260v-405h-260v405z" />
    <glyph glyph-name="uniE33E" unicode="&#xe33e;" 
d="M130 200h260v-400h-260v400zM520 200h266v-400h-266v400zM520 805h266v-405h-266v405z" />
    <glyph glyph-name="uniE33F" unicode="&#xe33f;" 
d="M130 200h260v-400h-260v400zM520 200h266v-400h-266v400zM130 805h260v-405h-260v405zM520 805h266v-405h-266v405z" />
    <glyph glyph-name="uniE340" unicode="&#xe340;" 
 />
    <glyph glyph-name="uniE341" unicode="&#xe341;" 
 />
    <glyph glyph-name="uniE342" unicode="&#xe342;" 
 />
    <glyph glyph-name="uniE343" unicode="&#xe343;" 
 />
    <glyph glyph-name="uniE344" unicode="&#xe344;" 
d="M130 805h260v-205h-260v205z" />
    <glyph glyph-name="uniE345" unicode="&#xe345;" 
d="M130 805h260v-205h-260v205z" />
    <glyph glyph-name="uniE346" unicode="&#xe346;" 
d="M130 805h260v-205h-260v205z" />
    <glyph glyph-name="uniE347" unicode="&#xe347;" 
d="M130 805h260v-205h-260v205z" />
    <glyph glyph-name="uniE348" unicode="&#xe348;" 
d="M520 805h266v-205h-266v205z" />
    <glyph glyph-name="uniE349" unicode="&#xe349;" 
d="M520 805h266v-205h-266v205z" />
    <glyph glyph-name="uniE34A" unicode="&#xe34a;" 
d="M520 805h266v-205h-266v205z" />
    <glyph glyph-name="uniE34B" unicode="&#xe34b;" 
d="M520 805h266v-205h-266v205z" />
    <glyph glyph-name="uniE34C" unicode="&#xe34c;" 
d="M130 805h260v-205h-260v205zM520 805h266v-205h-266v205z" />
    <glyph glyph-name="uniE34D" unicode="&#xe34d;" 
d="M130 805h260v-205h-260v205zM520 805h266v-205h-266v205z" />
    <glyph glyph-name="uniE34E" unicode="&#xe34e;" 
d="M130 805h260v-205h-260v205zM520 805h266v-205h-266v205z" />
    <glyph glyph-name="uniE34F" unicode="&#xe34f;" 
d="M130 805h260v-205h-260v205zM520 805h266v-205h-266v205z" />
    <glyph glyph-name="uniE350" unicode="&#xe350;" 
d="M130 400h260v-400h-260v400z" />
    <glyph glyph-name="uniE351" unicode="&#xe351;" 
d="M130 400h260v-400h-260v400z" />
    <glyph glyph-name="uniE352" unicode="&#xe352;" 
d="M130 400h260v-400h-260v400z" />
    <glyph glyph-name="uniE353" unicode="&#xe353;" 
d="M130 400h260v-400h-260v400z" />
    <glyph glyph-name="uniE354" unicode="&#xe354;" 
d="M130 400h260v-400h-260v400zM130 805h260v-205h-260v205z" />
    <glyph glyph-name="uniE355" unicode="&#xe355;" 
d="M130 400h260v-400h-260v400zM130 805h260v-205h-260v205z" />
    <glyph glyph-name="uniE356" unicode="&#xe356;" 
d="M130 400h260v-400h-260v400zM130 805h260v-205h-260v205z" />
    <glyph glyph-name="uniE357" unicode="&#xe357;" 
d="M130 400h260v-400h-260v400zM130 805h260v-205h-260v205z" />
    <glyph glyph-name="uniE358" unicode="&#xe358;" 
d="M130 400h260v-400h-260v400zM520 805h266v-205h-266v205z" />
    <glyph glyph-name="uniE359" unicode="&#xe359;" 
d="M130 400h260v-400h-260v400zM520 805h266v-205h-266v205z" />
    <glyph glyph-name="uniE35A" unicode="&#xe35a;" 
d="M130 400h260v-400h-260v400zM520 805h266v-205h-266v205z" />
    <glyph glyph-name="uniE35B" unicode="&#xe35b;" 
d="M130 400h260v-400h-260v400zM520 805h266v-205h-266v205z" />
    <glyph glyph-name="uniE35C" unicode="&#xe35c;" 
d="M130 400h260v-400h-260v400zM130 805h260v-205h-260v205zM520 805h266v-205h-266v205z" />
    <glyph glyph-name="uniE35D" unicode="&#xe35d;" 
d="M130 400h260v-400h-260v400zM130 805h260v-205h-260v205zM520 805h266v-205h-266v205z" />
    <glyph glyph-name="uniE35E" unicode="&#xe35e;" 
d="M130 400h260v-400h-260v400zM130 805h260v-205h-260v205zM520 805h266v-205h-266v205z" />
    <glyph glyph-name="uniE35F" unicode="&#xe35f;" 
d="M130 400h260v-400h-260v400zM130 805h260v-205h-260v205zM520 805h266v-205h-266v205z" />
    <glyph glyph-name="uniE360" unicode="&#xe360;" 
d="M520 400h266v-400h-266v400z" />
    <glyph glyph-name="uniE361" unicode="&#xe361;" 
 />
    <glyph glyph-name="uniE362" unicode="&#xe362;" 
 />
    <glyph glyph-name="uniE363" unicode="&#xe363;" 
 />
    <glyph glyph-name="uniE364" unicode="&#xe364;" 
d="M520 400h266v-400h-266v400zM130 805h260v-205h-260v205z" />
    <glyph glyph-name="uniE365" unicode="&#xe365;" 
d="M520 400h266v-400h-266v400zM130 805h260v-205h-260v205z" />
    <glyph glyph-name="uniE366" unicode="&#xe366;" 
d="M520 400h266v-400h-266v400zM130 805h260v-205h-260v205z" />
    <glyph glyph-name="uniE367" unicode="&#xe367;" 
d="M520 400h266v-400h-266v400zM130 805h260v-205h-260v205z" />
    <glyph glyph-name="uniE368" unicode="&#xe368;" 
d="M520 400h266v-400h-266v400zM520 805h266v-205h-266v205z" />
    <glyph glyph-name="uniE369" unicode="&#xe369;" 
d="M520 400h266v-400h-266v400zM520 805h266v-205h-266v205z" />
    <glyph glyph-name="uniE36A" unicode="&#xe36a;" 
d="M520 400h266v-400h-266v400zM520 805h266v-205h-266v205z" />
    <glyph glyph-name="uniE36B" unicode="&#xe36b;" 
d="M520 400h266v-400h-266v400zM520 805h266v-205h-266v205z" />
    <glyph glyph-name="uniE36C" unicode="&#xe36c;" 
d="M520 400h266v-400h-266v400zM130 805h260v-205h-260v205zM520 805h266v-205h-266v205z" />
    <glyph glyph-name="uniE36D" unicode="&#xe36d;" 
d="M520 400h266v-400h-266v400zM130 805h260v-205h-260v205zM520 805h266v-205h-266v205z" />
    <glyph glyph-name="uniE36E" unicode="&#xe36e;" 
d="M520 400h266v-400h-266v400zM130 805h260v-205h-260v205zM520 805h266v-205h-266v205z" />
    <glyph glyph-name="uniE36F" unicode="&#xe36f;" 
d="M520 400h266v-400h-266v400zM130 805h260v-205h-260v205zM520 805h266v-205h-266v205z" />
    <glyph glyph-name="uniE370" unicode="&#xe370;" 
d="M520 400h266v-400h-266v400zM130 400h260v-400h-260v400z" />
    <glyph glyph-name="uniE371" unicode="&#xe371;" 
d="M520 400h266v-400h-266v400zM130 400h260v-400h-260v400z" />
    <glyph glyph-name="uniE372" unicode="&#xe372;" 
d="M520 400h266v-400h-266v400zM130 400h260v-400h-260v400z" />
    <glyph glyph-name="uniE373" unicode="&#xe373;" 
d="M520 400h266v-400h-266v400zM130 400h260v-400h-260v400z" />
    <glyph glyph-name="uniE374" unicode="&#xe374;" 
d="M520 400h266v-400h-266v400zM130 400h260v-400h-260v400zM130 805h260v-205h-260v205z" />
    <glyph glyph-name="uniE375" unicode="&#xe375;" 
d="M520 400h266v-400h-266v400zM130 400h260v-400h-260v400zM130 805h260v-205h-260v205z" />
    <glyph glyph-name="uniE376" unicode="&#xe376;" 
d="M520 400h266v-400h-266v400zM130 400h260v-400h-260v400zM130 805h260v-205h-260v205z" />
    <glyph glyph-name="uniE377" unicode="&#xe377;" 
d="M520 400h266v-400h-266v400zM130 400h260v-400h-260v400zM130 805h260v-205h-260v205z" />
    <glyph glyph-name="uniE378" unicode="&#xe378;" 
d="M520 400h266v-400h-266v400zM130 400h260v-400h-260v400zM520 805h266v-205h-266v205z" />
    <glyph glyph-name="uniE379" unicode="&#xe379;" 
d="M520 400h266v-400h-266v400zM130 400h260v-400h-260v400zM520 805h266v-205h-266v205z" />
    <glyph glyph-name="uniE37A" unicode="&#xe37a;" 
d="M520 400h266v-400h-266v400zM130 400h260v-400h-260v400zM520 805h266v-205h-266v205z" />
    <glyph glyph-name="uniE37B" unicode="&#xe37b;" 
d="M520 400h266v-400h-266v400zM130 400h260v-400h-260v400zM520 805h266v-205h-266v205z" />
    <glyph glyph-name="uniE37C" unicode="&#xe37c;" 
d="M520 400h266v-400h-266v400zM130 400h260v-400h-260v400zM130 805h260v-205h-260v205zM520 805h266v-205h-266v205z" />
    <glyph glyph-name="uniE37D" unicode="&#xe37d;" 
d="M520 400h266v-400h-266v400zM130 400h260v-400h-260v400zM130 805h260v-205h-260v205zM520 805h266v-205h-266v205z" />
    <glyph glyph-name="uniE37E" unicode="&#xe37e;" 
d="M520 400h266v-400h-266v400zM130 400h260v-400h-260v400zM130 805h260v-205h-260v205zM520 805h266v-205h-266v205z" />
    <glyph glyph-name="uniE37F" unicode="&#xe37f;" 
d="M520 400h266v-400h-266v400zM130 400h260v-400h-260v400zM130 805h260v-205h-260v205zM520 805h266v-205h-266v205z" />
    <glyph glyph-name="DEL" 
d="M130 700h650v-700h-650v700z" />
  </font>
</defs>
</svg>
