<?xml version="1.0" standalone="no"?>
<!DOCTYPE svg PUBLIC "-//W3C//DTD SVG 1.1//EN" "http://www.w3.org/Graphics/SVG/1.1/DTD/svg11.dtd" >
<svg xmlns="http://www.w3.org/2000/svg" xmlns:xlink="http://www.w3.org/1999/xlink" version="1.1">
<metadata>
Created by FontForge 20170731 at Sun Oct  5 22:24:43 2014
 By Aleksey,,,
Copyright (c) 2014 by Peter Wiegel.   Open Font under Terms of following Free Software Licenses:
GPL (General Public License) with font-exception and OFL (Open Font License
</metadata>
<defs>
<font id="Berolina" horiz-adv-x="340" >
  <font-face 
    font-family="Berolina"
    font-weight="400"
    font-stretch="normal"
    units-per-em="1000"
    panose-1="0 0 0 0 0 0 0 0 0 0"
    ascent="750"
    descent="-250"
    x-height="465"
    cap-height="722.5"
    bbox="-104 -262 791 921"
    underline-thickness="50"
    underline-position="-150"
    unicode-range="U+0020-2122"
  />
<missing-glyph horiz-adv-x="237" 
 />
    <glyph glyph-name=".notdef" horiz-adv-x="237" 
 />
    <glyph glyph-name=".null" horiz-adv-x="0" 
 />
    <glyph glyph-name="nonmarkingreturn" horiz-adv-x="333" 
 />
    <glyph glyph-name="space" unicode=" " horiz-adv-x="237" 
 />
    <glyph glyph-name="exclam" unicode="!" horiz-adv-x="154" 
d="M47 682q0 13 8 23t22 10q11 0 20 -8.5t9 -19.5v-384q0 -11 -9 -19.5t-20 -8.5q-14 0 -22 10t-8 23v374zM67 76q18 0 30.5 -12.5t12.5 -30.5q0 -14 -12.5 -26t-26.5 -12q-18 0 -29 12.5t-11 29.5q0 14 10.5 26.5t25.5 12.5z" />
    <glyph glyph-name="quotedbl" unicode="&#x22;" horiz-adv-x="156" 
d="M79 718q11 0 20 -8.5t9 -19.5q0 -12 1 -33.5t-1 -43.5t-8.5 -38t-22.5 -16q-14 0 -22 10t-8 23q0 11 -1 32t1 42t9 36.5t23 15.5z" />
    <glyph glyph-name="numbersign" unicode="#" horiz-adv-x="399" 
d="M130 67q-10 0 -18 7.5t-8 18.5q0 12 2.5 25t4.5 25q-9 0 -20 -0.5t-20.5 2t-16.5 9t-7 19.5q0 14 8 20.5t19.5 8.5t24 1t21.5 -1q2 13 3 26t3 27q-8 0 -21.5 -1t-26.5 1t-22 8t-9 21t10 21.5t24.5 8t29 0.5t23.5 -1q1 10 2.5 23t5 25t11 20t21.5 8q11 0 18 -7.5t7 -18.5
q0 -12 -2 -24.5t-4 -25.5l52 1q1 9 2.5 22t5 25t11 20t21.5 8q11 0 18.5 -7.5t7.5 -18.5t-2.5 -23.5t-4.5 -24.5q9 0 20 0.5t21.5 -2t17.5 -8.5t7 -19q0 -14 -8.5 -20.5t-20 -8.5t-24 -1.5t-21.5 0.5q-2 -13 -3 -26t-3 -26q9 0 22.5 1t26 -1t22 -8t9.5 -21t-10.5 -22
t-25 -8.5t-29 -0.5t-23.5 1q-1 -9 -2 -22.5t-5 -25.5t-11.5 -21t-22.5 -9q-10 0 -17.5 7.5t-7.5 18.5q0 12 2 25.5t4 25.5l-52 -1q-1 -10 -2.5 -23t-5 -25t-11 -20t-21.5 -8zM237 256h-52q-5 -29 -6 -54l52 1q2 13 3 26t3 27z" />
    <glyph glyph-name="dollar" unicode="$" horiz-adv-x="329" 
d="M158 704q18 0 25 -16t8 -37t-1 -42t-2 -32q6 -2 11.5 -3t11.5 -1q7 0 13.5 3t13.5 3q9 0 16.5 -11t13 -26t8 -29.5t2.5 -21.5q0 -3 -0.5 -5.5t-1.5 -5.5l-7 -8q-10 2 -19.5 9.5t-19.5 16.5t-20 17t-22 13l-1 -125q25 -14 48.5 -28.5t41.5 -33.5t28.5 -43t10.5 -56
q0 -26 -11 -50t-29 -42.5t-41.5 -30t-49.5 -12.5q0 -10 2 -28t0.5 -35t-8.5 -30t-24 -13q-18 0 -25.5 15t-8.5 35t1 40.5t2 31.5q-8 3 -17.5 5.5t-19.5 2.5q-9 0 -15.5 -8t-15.5 -8q-10 0 -19 16t-15.5 37t-10.5 41t-4 28l14 5q7 0 18 -9.5t24.5 -21.5t29 -23.5t31.5 -15.5
l1 198q-37 23 -63 53.5t-26 77.5q0 18 8 32.5t21 25t29.5 17t32.5 8.5q0 11 -2 31t-1 40t8.5 34.5t25.5 14.5zM253 243q0 32 -21 53.5t-46 37.5l-1 -165q29 5 48.5 24t19.5 50zM94 492q0 -17 9.5 -30.5t22.5 -23.5l1 97q-14 -5 -23.5 -16t-9.5 -27z" />
    <glyph glyph-name="percent" unicode="%" horiz-adv-x="542" 
d="M106 562q0 -15 5 -30t14.5 -27t22.5 -19.5t30 -7.5t30 7.5t21.5 19.5t13 27t4.5 30t-4.5 30.5t-13 27.5t-21 19.5t-29.5 7.5t-30.5 -7.5t-23 -19.5t-14.5 -27.5t-5 -30.5zM47 567q0 25 9.5 50.5t26 45.5t39 32.5t49.5 12.5q29 0 53.5 -12.5t42.5 -33t28.5 -46.5t10.5 -54
t-10.5 -54t-28.5 -46.5t-42.5 -32.5t-53.5 -12q-30 0 -53 13.5t-38.5 35t-24 48t-8.5 53.5zM101 13q-12 0 -20 8.5t-8 20.5q0 1 14 28t37.5 71t53.5 100.5t62 116t63 117t56.5 104.5t43 78t22.5 37q4 7 11 11t15 4q18 0 22.5 -12t4.5 -26q0 -2 -15.5 -31t-39 -72.5t-52 -95
t-54 -98t-44.5 -81.5t-25 -45q-12 -22 -27.5 -53.5t-32 -64t-33 -61.5t-31.5 -46q-4 -5 -10.5 -7.5t-12.5 -2.5zM295 143q0 -15 5 -30t14.5 -27t22.5 -19.5t30 -7.5t30 7.5t21.5 19.5t13 27t4.5 30t-4.5 30.5t-13 27.5t-21 19.5t-29.5 7.5t-30.5 -7.5t-23 -19.5t-14.5 -27.5
t-5 -30.5zM237 148q0 25 9 50.5t25.5 45.5t39 32.5t49.5 12.5q29 0 53.5 -12.5t42.5 -33t28.5 -46.5t10.5 -54t-10.5 -54t-28.5 -46.5t-42.5 -32.5t-53.5 -12q-30 0 -52.5 13.5t-38.5 35t-24 48t-8 53.5z" />
    <glyph glyph-name="ampersand" unicode="&#x26;" horiz-adv-x="628" 
d="M246 465q12 9 25 19.5t24 22.5t18.5 26.5t7.5 30.5q0 20 -8 35.5t-32 15.5q-29 0 -39.5 -18t-10.5 -43q0 -22 4 -45t11 -44zM248 51q31 0 59 14t51 33q-47 62 -79.5 131.5t-61.5 141.5q-19 -15 -39 -32.5t-36 -38t-26 -44t-10 -49.5q0 -28 11 -56t30 -50t45 -36t56 -14z
M502 281q11 0 19.5 -8.5t8.5 -19.5q0 -20 -9 -43t-22.5 -44.5t-29 -41t-29.5 -32.5l41 -29l22 -2q11 9 22.5 20.5t26.5 11.5q11 0 19.5 -8.5t8.5 -19.5q0 -8 -5.5 -16.5t-13.5 -16t-16.5 -14t-14.5 -11.5q-4 -1 -10 -3t-9 -2q-38 0 -63.5 12t-52.5 40q-33 -25 -72.5 -44
t-82.5 -19q-40 0 -75 19t-61 50t-41 69.5t-15 76.5q0 36 13.5 67.5t35 59t48 51t52.5 44.5v1q0 13 -4 28.5t-8.5 32t-8 33t-3.5 33.5q0 48 26 81.5t78 33.5q49 0 76.5 -29.5t27.5 -78.5q0 -28 -10.5 -50t-27.5 -40t-37.5 -34t-39.5 -31q25 -72 57.5 -141t77.5 -130
q14 15 24.5 28.5t18.5 27.5t14.5 30t13.5 34q4 10 11 17t19 7z" />
    <glyph glyph-name="quotesingle" unicode="'" horiz-adv-x="256" 
d="M183 718q11 0 20.5 -8.5t9.5 -19.5q0 -12 1 -34t-1.5 -43.5t-9.5 -37.5t-22 -16q-14 0 -21.5 10t-7.5 23q0 11 -1 32t1 42t9 36.5t22 15.5zM79 718q11 0 20 -8.5t9 -19.5q0 -12 1 -33.5t-1 -43.5t-8.5 -38t-22.5 -16q-14 0 -22 10t-8 23q0 11 -1 32t1 42t9 36.5t23 15.5z
" />
    <glyph glyph-name="parenleft" unicode="(" horiz-adv-x="280" 
d="M202 736q12 0 21.5 -8t9.5 -21q0 -9 -5.5 -17t-13 -15.5t-15.5 -14.5t-13 -14q-22 -30 -36 -71t-22.5 -86t-11.5 -90t-3 -82q0 -33 3 -72t11 -78t21 -75t34 -64q6 -7 14.5 -14t16.5 -14.5t14 -16t6 -17.5q0 -13 -9.5 -21.5t-21.5 -8.5q-10 0 -22 7q-42 27 -67.5 78
t-40 110t-19.5 119t-5 105q0 40 7.5 94.5t23.5 109t41 101t60 70.5q5 2 11 4t11 2z" />
    <glyph glyph-name="parenright" unicode=")" horiz-adv-x="280" 
d="M232 355q0 -45 -5 -105t-19.5 -119t-40 -110t-67.5 -78q-12 -7 -22 -7q-12 0 -21.5 8.5t-9.5 21.5q0 9 6 17t14 15.5t17 15t14 14.5q21 28 34 64t21 75t11 78t3 72q0 37 -3 82t-11.5 90t-22.5 86t-36 71q-5 7 -13 14t-15.5 14.5t-13 15.5t-5.5 17q0 13 9.5 21t21.5 8
q5 0 11 -2t11 -4q35 -24 60 -70.5t41 -101t23.5 -109t7.5 -94.5z" />
    <glyph glyph-name="asterisk" unicode="*" horiz-adv-x="214" 
d="M112 718q11 0 17 -5t9 -12.5t3.5 -17t0.5 -17.5q8 5 16 9.5t18 4.5q11 0 19.5 -8.5t8.5 -19.5q0 -16 -11 -23.5t-23 -13.5q12 -7 22.5 -14.5t10.5 -22.5q0 -12 -8.5 -20.5t-19.5 -8.5q-9 0 -18.5 5.5t-16.5 9.5q0 -17 -4 -34t-26 -17q-11 0 -17 5t-8.5 12.5t-3 17
t-0.5 17.5q-8 -5 -16 -9.5t-18 -4.5q-12 0 -20.5 8t-8.5 20q0 15 11 23t22 15q-10 7 -21 15t-11 22q0 12 9 20t20 8q4 0 7.5 -1t7.5 -2q4 -4 9.5 -6.5t10.5 -5.5q0 8 0.5 17t3 16.5t8.5 12.5t17 5z" />
    <glyph glyph-name="plus" unicode="+" horiz-adv-x="351" 
d="M47 284q0 17 12.5 23.5t29 8t33.5 -0.5t26 -2q0 9 -1 24.5t0.5 30.5t8 26t22.5 11q15 0 21.5 -11t8 -26t0.5 -30t-1 -24q17 1 32.5 1h32.5q12 0 21 -8.5t9 -20.5q0 -15 -11 -21.5t-26 -8.5t-31 -1t-26 1q1 -20 1 -40v-40q0 -11 -10 -18.5t-19 -7.5q-16 0 -22.5 12.5
t-8.5 29.5t-1 34.5t1 28.5q-9 0 -26 -2t-34 -0.5t-29.5 8t-12.5 23.5z" />
    <glyph glyph-name="comma" unicode="," horiz-adv-x="213" 
d="M108 77q31 0 43.5 -22t12.5 -49q0 -20 -6 -44t-18 -44.5t-30 -34t-42 -13.5q-8 0 -14.5 5.5t-6.5 14.5q0 13 9 21t20.5 16.5t20.5 20.5t9 33q0 5 -2 15q-17 1 -27.5 13t-10.5 29t12.5 28t29.5 11z" />
    <glyph glyph-name="hyphen" unicode="-" horiz-adv-x="351" 
d="M73 255q-10 0 -18 10t-8 19q0 11 7.5 19t18.5 10q22 4 47 5t51.5 0t52 -2t48.5 -1q12 0 21 -8.5t9 -20.5q0 -13 -9 -20.5t-21 -9.5q-48 -4 -99 -2.5t-100 1.5z" />
    <glyph glyph-name="period" unicode="." horiz-adv-x="174" 
d="M84 77q17 0 29.5 -12.5t12.5 -30.5q0 -14 -12.5 -26t-26.5 -12q-17 0 -28.5 12.5t-11.5 29.5q0 14 11 26.5t26 12.5z" />
    <glyph glyph-name="slash" unicode="/" horiz-adv-x="371" 
d="M76 5q-14 0 -21.5 10.5t-7.5 22.5q0 2 8.5 28.5t23 69.5t33 97.5t38 112t39 113.5t35.5 102.5t27 78t15 39.5q5 10 11.5 17t17.5 7q17 0 22.5 -12t5.5 -26q0 -1 -5 -16t-11.5 -33t-12.5 -34.5t-7 -20.5q-32 -93 -64.5 -185t-63.5 -186q-13 -39 -25 -84t-30 -82
q-3 -8 -11 -13.5t-17 -5.5z" />
    <glyph glyph-name="zero" unicode="0" horiz-adv-x="442" 
d="M226 711q41 0 72 -15.5t54.5 -41t39 -59t25.5 -70t14 -74t4 -69.5q0 -37 -2 -80.5t-9.5 -88t-22 -86t-38.5 -73t-59.5 -51t-85.5 -19.5q-48 0 -81.5 18.5t-56.5 48.5t-36.5 69.5t-20.5 82t-9 84t-2 77.5q0 35 3 74.5t12 78t24 74t38.5 62t57.5 42.5t79 16zM78 406v-84
q0 -21 1.5 -50.5t6 -61t13 -62.5t23 -55.5t36 -39.5t51.5 -15q40 0 67 19.5t44.5 51.5t26 72t12.5 81t4.5 79.5t0.5 66.5q0 32 -5 75t-19 82t-41 66t-70 27q-47 0 -76 -26t-46 -64t-23 -82t-6 -80z" />
    <glyph glyph-name="one" unicode="1" horiz-adv-x="225" 
d="M140 720l8 -6q3 -2 4.5 -25.5t2 -57.5t0.5 -74t-0.5 -75t-1 -60t-0.5 -30v-36.5v-60.5t0.5 -71t1.5 -70t3 -56.5t5 -29.5q4 -8 12.5 -11.5t17 -6.5t15 -8t6.5 -15q0 -9 -4.5 -13t-11.5 -5.5t-14 -2t-13 -2.5q-22 2 -42.5 0.5t-42.5 -1.5q-14 0 -27.5 3.5t-13.5 21.5
q0 12 8 18t17 10t17 9t8 15v509q0 11 -4 19q-16 -3 -28 -13t-29 -10q-10 0 -18 6t-8 17q21 14 35.5 23t27 19t24.5 23t27 34q3 4 7 8.5t11 4.5z" />
    <glyph glyph-name="two" unicode="2" horiz-adv-x="447" 
d="M206 723q44 0 81 -14.5t63.5 -40.5t41 -62.5t14.5 -81.5q0 -47 -16 -84t-41 -68t-57 -58t-63.5 -53.5t-60.5 -55.5t-48 -64q-9 -15 -20 -31t-11 -34q0 -8 8.5 -9.5t14.5 -1.5q51 0 102.5 -0.5t102.5 3.5q26 2 40.5 13t25 23.5t19 22.5t22.5 10q8 0 13 -6t5 -14
q0 -9 -5.5 -25t-14 -33.5t-17.5 -32t-16 -18.5q-3 -2 -21.5 -3.5t-45.5 -2t-58 -1t-59.5 -0.5h-50h-28.5q-9 0 -27.5 -1.5t-37.5 0t-33.5 7.5t-14.5 20q0 21 10.5 50.5t26.5 59.5t34 57t32 42q27 29 64.5 60.5t71 66t57 73.5t23.5 83q0 29 -6 55.5t-20 46.5t-36 32t-55 12
q-47 0 -75 -19.5t-45 -43.5t-28 -43.5t-24 -19.5l-7 1q-9 7 -9 20q0 32 16.5 61.5t43 52t58 36t61.5 13.5z" />
    <glyph glyph-name="three" unicode="3" horiz-adv-x="459" 
d="M149 724q60 0 119.5 -1t119.5 -1q8 0 18.5 -1.5t10.5 -12.5q0 -8 -13 -27t-32.5 -44.5t-42.5 -53.5t-42.5 -54t-33 -46t-13.5 -29q17 -3 33 -3t32 -5q76 -19 113.5 -71t37.5 -129q0 -56 -14 -102t-42.5 -79t-72 -51t-101.5 -18q-44 0 -82 12.5t-66.5 37t-45 60
t-16.5 82.5q0 8 7 15t15 7q10 0 18.5 -13t16 -30t14.5 -34t13 -25q13 -17 26.5 -26.5t28.5 -14.5t32.5 -6.5t37.5 -1.5q46 0 76 16t48 43t25 63t7 75q0 31 -10.5 58t-29 47t-45 31.5t-58.5 11.5q-12 0 -24 -3.5t-23.5 -8t-23 -8t-23.5 -3.5q-7 0 -10 4.5t-3 10.5
q0 8 13.5 28t33.5 46t43.5 55t43.5 55.5t33.5 47.5t14.5 31q-13 5 -26.5 5h-26.5q-45 0 -72 -9t-43 -20.5t-24.5 -20.5t-16.5 -9t-13.5 6t-5.5 14q0 9 6 26t15.5 33t20.5 28t22 12z" />
    <glyph glyph-name="four" unicode="4" horiz-adv-x="479" 
d="M403 688q0 -9 -6 -14t-14.5 -8.5t-17 -6.5t-13.5 -7q-1 -4 -1 -8v-8q0 -29 0.5 -58.5t0.5 -58.5v-254q0 -11 4 -20q7 -6 18 -6q20 0 28.5 7t14 16l11 18t19.5 14q10 0 14 -16t5 -37t0.5 -41t-0.5 -27q0 -11 -2 -24t-17 -13q-11 0 -15.5 8.5t-10.5 19t-17 19.5t-36 9
q-5 0 -8 -5t-4.5 -11.5t-1.5 -13.5v-10q0 -23 -1 -48.5t3 -48.5q1 -10 9.5 -14.5t18.5 -7.5t17.5 -6t7.5 -10q0 -12 -11.5 -17.5t-27 -7t-31 -1t-23.5 0.5h-17.5t-26 2t-24 5.5t-10.5 11.5q0 10 6.5 15.5t14.5 9t16.5 7.5t12.5 12q2 4 3 12t1.5 16.5t0.5 16.5v13q0 18 -1 37
t-12 34q-14 4 -45.5 4.5t-67 0t-69.5 -2t-53 -1.5q-17 0 -31 7q-4 6 -5 13t-1 14q0 14 18.5 50t46 82t59.5 96.5t59.5 94t46 75t18.5 38.5t-5 11t-11.5 7t-11.5 6.5t-5 11.5q0 9 5.5 14t13.5 7t17 2.5t16 0.5q10 0 31 1t42.5 -0.5t38 -7.5t16.5 -20zM273 579
q-6 -9 -22.5 -36t-37.5 -62.5t-44 -75t-42.5 -73.5t-33 -58t-14.5 -29q18 -6 37 -6.5t38 -0.5q63 0 92.5 1.5t39.5 17t7.5 52t-2.5 106.5q0 39 1 84.5t-8 83.5z" />
    <glyph glyph-name="five" unicode="5" horiz-adv-x="458" 
d="M153 726l176 -1q15 0 26 -10.5t17.5 -25.5t9.5 -32t3 -30q0 -8 -5 -14t-13 -6q-15 0 -21 9t-16 20t-30.5 20t-64.5 9h-16t-22 -1t-20.5 -3.5t-11.5 -7.5q-3 -9 -5.5 -32.5t-5 -50.5t-3.5 -52t-1 -36l11 -1q14 0 27 4t27 4q61 0 105 -20t72 -55.5t41 -83.5t13 -103
q0 -45 -17 -85.5t-47 -71t-70 -48.5t-86 -18q-39 0 -68.5 5.5t-53.5 19.5t-43 37t-36 58q-17 34 -17 70q0 7 5 13t13 6q7 0 13.5 -8t11.5 -19t9 -22t6 -17q20 -44 63 -66t89 -22q42 0 72 16.5t49.5 43.5t29 62t9.5 73q0 36 -10 68t-30 56t-50 38t-69 14q-19 0 -39 -6
t-37 -12.5t-28.5 -12.5t-14.5 -6q-11 0 -14.5 10.5t-3.5 19.5q0 66 10.5 138t23.5 137q4 18 12 23t25 5z" />
    <glyph glyph-name="six" unicode="6" horiz-adv-x="436" 
d="M313 712q8 0 15 -4.5t7 -14.5q0 -2 -2 -8q-9 -11 -22 -16.5t-27 -10.5q-31 -10 -63.5 -34.5t-59 -57t-43.5 -69.5t-17 -70l1 -8q7 0 20 9t30 19t39 18.5t49 8.5q57 0 94.5 -21.5t59.5 -57.5t31 -82t9 -95q0 -37 -12.5 -77t-36.5 -73t-57.5 -54.5t-75.5 -21.5
q-69 0 -114.5 24t-72 64.5t-37 94.5t-10.5 114q0 58 7 112t26 102t52.5 89t85.5 74q9 6 26 13.5t35 15t35 12.5t28 5zM86 278q0 -35 4.5 -76t19.5 -76t43 -58t74 -23q39 0 66.5 20t44 51t24 67t7.5 69q0 26 -9.5 55t-26.5 53t-42 40t-55 16q-23 0 -49 -13t-48.5 -33
t-37.5 -44.5t-15 -47.5z" />
    <glyph glyph-name="seven" unicode="7" horiz-adv-x="385" 
d="M82 727q63 0 127 -1.5t127 -1.5q21 0 31.5 -6.5t10.5 -29.5q0 -48 -14 -92.5t-35 -89t-46 -90t-46 -94t-35 -102t-14 -114.5q0 -9 0.5 -18.5t3.5 -19.5q3 -9 10.5 -12t15.5 -5.5t14.5 -7t6.5 -15.5q0 -14 -8 -20t-20 -6q-14 0 -37.5 -0.5t-47.5 1.5t-44 8t-26 20
q0 11 5 16t12 7.5t15 5t13 8.5l3 16.5t7.5 41.5t10.5 56t12.5 60.5t13.5 54t13 37.5q16 32 41 70.5t48.5 78.5t40.5 79.5t17 75.5q0 27 -28 27q-32 0 -62.5 1.5t-62.5 1.5q-35 0 -55 -9t-32 -19.5t-19 -19.5t-17 -9t-15 7.5t-5 16.5q0 4 5 17.5t11.5 28.5t13 27t9.5 14
q7 4 15 4.5t16 0.5z" />
    <glyph glyph-name="eight" unicode="8" horiz-adv-x="457" 
d="M232 712q28 0 55 -8t48 -24t34 -40t13 -55q0 -36 -13 -61.5t-28 -42.5t-28 -27t-13 -16q0 -8 23.5 -26t52 -46.5t52 -66.5t23.5 -85q0 -118 -58.5 -171.5t-174.5 -53.5q-46 0 -83.5 18t-64.5 48t-42 70t-15 84q0 33 11.5 61t28 51t36.5 41.5t37.5 32.5t29 24t12.5 16
q-12 18 -27 32t-28.5 28.5t-22.5 32t-9 43.5q0 33 11.5 59.5t31.5 44.5t47.5 27.5t60.5 9.5zM150 588q0 -15 7.5 -34t19.5 -35.5t27.5 -28t32.5 -11.5q16 0 29 13.5t22 32t13.5 38.5t4.5 34q0 12 -6.5 23t-16.5 20t-22.5 14t-23.5 5q-34 0 -60.5 -17t-26.5 -54zM85 196
q0 -31 9.5 -59t27.5 -49t44 -33.5t58 -12.5q30 0 57.5 9.5t48.5 27t33.5 43t12.5 57.5q0 37 -7 64t-21 49.5t-35 42t-49 41.5q-7 6 -16 10t-18 4q-25 0 -50.5 -22t-46.5 -53t-34.5 -64t-13.5 -55z" />
    <glyph glyph-name="nine" unicode="9" horiz-adv-x="427" 
d="M226 712q43 0 72.5 -12t50.5 -33.5t35 -51.5t26 -65q7 -20 12 -39.5t5 -40.5q0 -26 -3.5 -52t-3.5 -53q0 -25 -6 -49t-11 -47q-14 -56 -28 -94.5t-36 -67.5t-55.5 -52t-85.5 -48q-21 -11 -42.5 -17t-45.5 -6q-10 0 -18 6t-8 17q0 7 15.5 15.5t36 16.5t39.5 14.5t26 10.5
q24 13 47.5 38t41.5 55.5t29.5 63t11.5 59.5q-10 0 -22 -7.5t-28 -16.5t-36 -16.5t-45 -7.5q-46 0 -80 22.5t-56.5 57t-34 76.5t-11.5 81q0 47 13 91t39 77.5t65 54t91 20.5zM87 485q0 -29 6 -63.5t21 -64.5t40 -50t62 -20q39 0 65 19t41 48.5t21.5 64t6.5 66.5q0 31 -6 62
t-20 56.5t-38.5 41.5t-61.5 16q-29 0 -48.5 -8.5t-33.5 -24t-23 -36.5t-16 -46q-5 -15 -10.5 -30t-5.5 -31z" />
    <glyph glyph-name="colon" unicode=":" horiz-adv-x="174" 
d="M84 77q17 0 29.5 -12.5t12.5 -30.5q0 -14 -12.5 -26t-26.5 -12q-17 0 -28.5 12.5t-11.5 29.5q0 14 11 26.5t26 12.5zM84 275q17 0 29.5 -12.5t12.5 -30.5q0 -14 -12.5 -26t-26.5 -12q-17 0 -28.5 12.5t-11.5 29.5q0 14 11 26.5t26 12.5z" />
    <glyph glyph-name="semicolon" unicode=";" horiz-adv-x="213" 
d="M103 275q17 0 29.5 -12.5t12.5 -30.5q0 -14 -12.5 -26t-26.5 -12q-17 0 -28.5 12.5t-11.5 29.5q0 14 11 26.5t26 12.5zM108 77q31 0 43.5 -22t12.5 -49q0 -20 -6 -44t-18 -44.5t-30 -34t-42 -13.5q-8 0 -14.5 5.5t-6.5 14.5q0 13 9 21t20.5 16.5t20.5 20.5t9 33
q0 5 -2 15q-17 1 -27.5 13t-10.5 29t12.5 28t29.5 11z" />
    <glyph glyph-name="less" unicode="&#x3c;" horiz-adv-x="407" 
d="M328 20q-4 0 -23 10t-45.5 25t-57.5 33t-59 34.5t-49 29.5t-28 18q-8 5 -13 11.5t-5 15.5q0 6 17.5 20.5t44.5 32t59.5 37t62.5 36.5t53.5 30.5t33.5 18.5q8 2 11 2q12 0 20.5 -7.5t8.5 -19.5q0 -14 -12 -26q-13 -11 -41 -28t-60 -35t-62 -34.5t-48 -26.5
q17 -10 47.5 -26.5t62 -34.5t59.5 -35t40 -28q12 -12 12 -26q0 -12 -8.5 -19.5t-20.5 -7.5z" />
    <glyph glyph-name="equal" unicode="=" horiz-adv-x="351" 
d="M73 143q-10 0 -18 10.5t-8 19.5q0 11 7.5 19t18.5 10q22 4 47 5t51.5 0t52 -2t48.5 -1q12 0 21 -8.5t9 -20.5q0 -13 -9 -20.5t-21 -9.5q-48 -4 -99 -3t-100 1zM73 255q-10 0 -18 10t-8 19q0 11 7.5 19t18.5 10q22 4 47 5t51.5 0t52 -2t48.5 -1q12 0 21 -8.5t9 -20.5
q0 -13 -9 -20.5t-21 -9.5q-48 -4 -99 -2.5t-100 1.5z" />
    <glyph glyph-name="greater" unicode="&#x3e;" horiz-adv-x="407" 
d="M358 197q0 -9 -4.5 -15.5t-12.5 -11.5q-60 -40 -124.5 -76.5t-127.5 -71.5q-8 -2 -10 -2q-12 0 -21 7.5t-9 19.5q0 15 13 26q12 11 40 28t59.5 35t61.5 34.5t48 26.5q-18 10 -48.5 26.5t-62.5 34.5t-59.5 35t-40.5 28t-13 26q0 12 9 19.5t21 7.5q3 0 22.5 -10t47 -26
t60 -34.5t61 -36t49.5 -30.5t27 -17q6 -5 10 -10t4 -13z" />
    <glyph glyph-name="question" unicode="?" horiz-adv-x="454" 
d="M108 550q0 -18 5.5 -30t11.5 -20.5t11.5 -16t5.5 -17.5q0 -12 -8.5 -20t-19.5 -8q-15 0 -27.5 12t-21 29t-13 35t-4.5 30q0 37 14.5 68t39.5 53.5t57.5 35t68.5 12.5q37 0 69.5 -12.5t56.5 -35t38 -54.5t14 -70q0 -33 -15 -59.5t-37 -48t-48 -40t-48 -36t-37 -35
t-15 -37.5q0 -8 4.5 -14.5t11.5 -11.5q8 -2 13 -2t11.5 1t11.5 4q6 7 9 16.5t6 18t9 14.5t18 6t20.5 -9t8.5 -21q0 -18 -8 -34.5t-21 -28.5t-30 -19t-34 -7q-38 0 -62.5 25.5t-24.5 62.5q0 32 14.5 56.5t36.5 44t48 36.5t48 35t36.5 39t14.5 48q0 24 -9 44.5t-24.5 35
t-36.5 23t-44 8.5q-22 0 -44.5 -7.5t-40.5 -21t-29 -33t-11 -44.5zM218 91q18 0 30.5 -12.5t12.5 -30.5q0 -14 -12.5 -26t-26.5 -12q-17 0 -28.5 12.5t-11.5 29.5q0 14 11 26.5t25 12.5z" />
    <glyph glyph-name="A" unicode="A" horiz-adv-x="599" 
d="M169 723q75 0 150 -2t150 -2q11 0 20 -3t9 -17q0 -15 -9 -19.5t-20.5 -7.5t-20.5 -8t-9 -20q0 -8 3.5 -37t9.5 -71.5t13.5 -93.5t15.5 -103.5t15.5 -102t14 -88t10.5 -62.5t5 -25q6 -8 16.5 -10l21 -4t18.5 -6.5t8 -15.5q0 -16 -13 -18.5t-24 -2.5h-107q-9 0 -22.5 2.5
t-13.5 15.5q0 11 10 16q6 8 16 11.5t18 11.5l1 8q0 10 -3.5 19t-5.5 18t-5 35t-7 60t-9 70.5t-9 67.5t-8 52t-7 23q-2 1 -27 3t-57 3t-61.5 2t-40.5 1h-10t-9 -1q-4 -1 -10 -24.5t-13.5 -59t-15 -77.5t-13.5 -80.5t-10 -68.5t-4 -40q0 -13 8.5 -19t18.5 -9.5t18.5 -8
t8.5 -14.5q0 -8 -5 -12t-12.5 -5.5t-15 -2t-12.5 -0.5q-11 0 -32.5 -1t-43 0.5t-38 7t-16.5 19.5q0 10 8 13.5t19 6.5t21.5 9t16.5 20l4 24.5t11 64t15 90t17 103.5t17 104.5t14.5 92t10.5 66.5t4 29q0 13 -8 17.5t-17 7.5t-17 7t-8 15q0 9 6 14t14 7.5t17 3.5t15 1z
M201 496q0 -7 2 -17q17 -7 36 -7q35 0 69.5 1.5t69.5 1.5q7 0 11 6.5t4 12.5q0 35 -8 77.5t-15 78.5q-1 7 -9 10.5t-18.5 5t-20.5 1.5h-15q-14 0 -31 0.5t-31 -2.5q-9 -2 -17 -25.5t-14 -52t-9.5 -55.5t-3.5 -36z" />
    <glyph glyph-name="B" unicode="B" horiz-adv-x="534" 
d="M60 722l237 -1q38 0 71.5 -8t59 -26.5t40 -47.5t14.5 -71q0 -23 -5 -39.5t-14 -29.5t-22.5 -24t-31.5 -23v-15q35 -16 57.5 -37.5t35 -48.5t17.5 -59t5 -68q0 -58 -20.5 -101t-55.5 -71t-82.5 -41.5t-101.5 -13.5l-224 1q-8 0 -19.5 4t-11.5 14q0 12 7.5 17.5t17 10
t18.5 9.5t12 15q2 9 0 28t-2 30q0 132 3.5 262t3.5 262q0 11 -7 16t-16 8.5t-16 8t-7 15.5q0 15 13 19.5t24 4.5zM151 673q-5 -6 -7.5 -25t-3.5 -40.5t-1 -41v-28.5q0 -31 1 -46t8 -21t23.5 -5.5t46.5 0.5q27 0 60 2.5t62 12.5t48.5 30.5t19.5 57.5q0 41 -19 60.5t-47.5 27
t-61.5 8.5t-61 4q-17 2 -34 3t-34 1zM147 418q-4 -4 -6.5 -26.5t-4 -56t-2.5 -72.5t-1.5 -74.5t-0.5 -63.5v-38q0 -3 0.5 -9t2 -11.5t4.5 -9.5t8 -4h110q42 0 77.5 12t61 35t40 56.5t14.5 77.5q0 69 -24 106.5t-64 55t-91 21t-105 3.5q-5 0 -9.5 -0.5t-9.5 -1.5z" />
    <glyph glyph-name="C" unicode="C" horiz-adv-x="507" 
d="M292 728q15 0 29 -4t28 -8.5t28 -8.5t28 -4q11 0 19 7.5t19 7.5q8 0 17.5 -19t18 -43t14 -46.5t5.5 -28.5q0 -10 -7.5 -15.5t-16.5 -5.5q-15 0 -26 17t-28 38t-46 38t-80 17q-53 0 -91.5 -25.5t-64 -65t-38 -87.5t-12.5 -93q0 -52 5 -111.5t25 -110.5t59.5 -84.5
t108.5 -33.5q48 0 79.5 19t52 41.5t33 42t22.5 19.5q19 -3 19 -22q0 -35 -22 -65t-54.5 -52t-70 -34.5t-68.5 -12.5q-56 0 -97.5 17.5t-71.5 48t-49 70.5t-30 84.5t-15.5 92t-4.5 91.5q0 61 19 120.5t55.5 105.5t89 74.5t119.5 28.5z" />
    <glyph glyph-name="D" unicode="D" horiz-adv-x="542" 
d="M533 403v-95q0 -42 -14 -89.5t-39.5 -90.5t-61.5 -76t-79 -44q-34 -9 -68.5 -11.5t-69.5 -2.5q-12 0 -43.5 -1t-64.5 1t-58.5 8.5t-25.5 21.5q0 11 6.5 15.5t15 8t16.5 7.5t11 13q5 21 6 44.5t1 44.5l-1 475q0 20 -7.5 28.5t-16.5 13t-16.5 8.5t-7.5 16t19.5 16.5t45 6
t49.5 0.5t32 -1q42 0 87.5 -4t87.5 -16.5t77.5 -37t57.5 -65.5q13 -25 24 -47.5t19.5 -45t13 -47t4.5 -54.5zM145 661q-6 -6 -8 -20.5t-1.5 -31.5t1.5 -33t1 -25q0 -94 -4 -186.5t-4 -185.5v-86q0 -9 1.5 -18.5t6.5 -17.5q12 -5 28.5 -5.5t30.5 -0.5h34.5t35.5 2
q54 4 90 36.5t57.5 78.5t30.5 98.5t9 97.5q0 60 -12 118.5t-53 106.5q-13 15 -30 28.5t-36 24t-39 17t-40 6.5h-68q-8 0 -15.5 -0.5t-15.5 -3.5z" />
    <glyph glyph-name="E" unicode="E" horiz-adv-x="572" 
d="M182 712q66 0 129.5 3t129.5 3q10 0 18 -12.5t14 -29t9.5 -33t3.5 -24.5t-5.5 -14t-13.5 -6q-9 0 -16 7.5t-13.5 17t-14 18.5t-16.5 12q-19 6 -39.5 7t-39.5 1q-44 0 -86.5 -2t-86.5 -2q-14 0 -14 -12q-3 -8 -4.5 -28.5t-2.5 -44.5t-1 -46.5v-32.5q0 -15 6 -21t21 -6
q10 0 35.5 -0.5t57.5 0t68 1t66 2t51.5 5t25.5 8.5q6 9 10 19.5t12 18.5l8 1q12 0 18 -12t8.5 -28t2 -32.5t-0.5 -24.5q0 -7 -0.5 -18t-3 -22t-8 -19t-15.5 -8q-3 0 -6.5 1t-5.5 2q-9 9 -13.5 20.5t-13.5 21.5q-4 4 -23 6.5t-46.5 4t-60 2.5t-62 1.5t-52.5 0.5h-33
q-17 0 -26.5 -3.5t-14.5 -10t-6 -17.5t-1 -26q0 -60 3 -119.5t3 -119.5q0 -14 -2.5 -28t-2.5 -28l1 -13q7 -1 13.5 -1h14.5h57.5t80.5 1t78 4.5t49 10.5q6 3 15 12l18.5 18.5t17.5 17t13 7.5q9 0 17 -6t8 -15q0 -6 -8 -23.5t-18.5 -36t-21 -32.5t-15.5 -14h-400
q-5 0 -12.5 0.5t-14 3t-11.5 6.5t-5 11q6 15 13 21.5t13.5 9t12 4.5t9.5 9q2 3 3.5 35t2.5 80t1 106t0.5 114.5t0.5 105v76.5q0 6 -0.5 17.5t-1 23.5t-2 22.5t-4.5 15.5t-10 8t-14.5 6t-13 6.5t-5.5 10.5q0 15 22 20.5t50.5 6.5t56.5 -1t39 -2z" />
    <glyph glyph-name="F" unicode="F" horiz-adv-x="547" 
d="M57 725q100 0 198 -2.5t198 -2.5q5 0 11.5 -2t8.5 -7l25 -84q2 -7 -5 -12t-12 -5q-10 0 -17.5 9t-18.5 20.5t-29 20.5t-49 9h-145q-17 0 -34 -0.5t-34 -3.5q-9 -7 -9 -18t-3 -20q3 -35 1.5 -68.5t-1.5 -68.5q0 -9 8 -12t15 -3h227h23.5t23.5 4q8 3 14 11t11 17t10.5 16
t13.5 7q11 0 15.5 -10.5t4.5 -18.5t1.5 -31t1 -47.5t-5 -45.5t-17.5 -24q-12 3 -17.5 14t-11 23t-14.5 22t-29 10l-238 1q-6 0 -12.5 0.5t-11.5 -1.5q-7 -2 -10 -22.5t-3.5 -46t0 -49.5t0.5 -33v-154q0 -11 -0.5 -22.5t1.5 -22.5t10.5 -15t17.5 -7.5t16.5 -9t7.5 -18.5
q0 -12 -11.5 -17t-21.5 -5h-112q-11 0 -22.5 3.5t-11.5 17.5q0 11 5 17t12.5 9.5t16 7t14.5 10.5q4 2 6 11t3 20.5t1 21.5v14l1 332v159q0 30 -8.5 39.5t-18 12t-18 5t-8.5 18.5q0 14 12 20.5t24 6.5z" />
    <glyph glyph-name="G" unicode="G" horiz-adv-x="549" 
d="M301 712q18 0 37.5 -3.5t36 -8t29 -8t17.5 -3.5q7 0 13 4.5t11 9.5q4 2 9 2q11 0 22.5 -17t21.5 -38.5t16 -42.5t6 -30q0 -8 -6.5 -15t-14.5 -7q-9 0 -25.5 15.5t-42 34.5t-60 34.5t-78.5 15.5q-60 0 -100 -32.5t-64 -81.5t-34.5 -105t-10.5 -104q0 -144 66.5 -213.5
t210.5 -69.5q11 0 22.5 0.5t23.5 3.5q4 10 6 30.5t3 42.5t1 43v33v40t-0.5 65t-3 62.5t-6.5 33.5q-8 8 -22 12t-24 11l-4 22q4 6 13.5 9t21 4.5t22 1.5h16.5q7 0 25 0.5t37 -1t33.5 -6.5t14.5 -15q0 -12 -8.5 -17t-19 -10t-19 -15t-8.5 -32v-243v-16t0.5 -20.5t2.5 -20
t6 -14.5q4 -6 11.5 -10t14.5 -8t12.5 -9.5t5.5 -13.5t-7.5 -12.5t-17.5 -6.5t-20 -2.5t-16 -0.5q-52 0 -103.5 3t-103.5 3q-69 0 -118.5 31.5t-81 81t-46.5 110.5t-15 120q0 71 15 138t49.5 119.5t90.5 84t137 31.5z" />
    <glyph glyph-name="H" unicode="H" horiz-adv-x="601" 
d="M68 721q10 2 17 2q11 0 34 0.5t46 -1.5t40.5 -9t17.5 -22q0 -10 -6 -14.5t-14 -9t-15 -10t-9 -16.5q-8 -38 -12.5 -78.5t-4.5 -78.5q0 -2 2 -7t3 -7q14 -5 32 -5q8 0 29 -0.5t46.5 -0.5t54 0.5t52 2t39 4t17.5 7.5q2 8 2 12q0 10 -1 33.5t-2.5 49t-4 47.5t-5.5 29
q-4 7 -11.5 12.5t-15 10.5t-13.5 11t-6 15q0 12 10 17.5t20 5.5h86q7 0 16 -0.5t16 -3.5t12 -8.5t5 -15.5q0 -12 -6.5 -16.5t-14 -9.5t-14 -13t-6.5 -26q0 -61 6.5 -121t10.5 -120q4 -75 5 -151t14 -150q2 -15 11 -23t18.5 -13.5t17 -11t7.5 -15.5q0 -12 -8.5 -17t-19.5 -7
t-23.5 -1.5t-19.5 0.5h-18t-25 0.5t-24 2.5t-15 6q-14 3 -14 18q0 10 6.5 15.5t15 10.5t15 13t6.5 24q0 21 -2.5 42t-2.5 43q0 17 -1.5 48t-4 64.5t-6 63.5t-8.5 45q-4 11 -11 13t-17 2l-241 1q-13 0 -18 -12t-5.5 -28t1.5 -32t2 -24q0 -14 -4 -26.5t-4 -26.5q0 -43 -5 -85
t-5 -84q0 -20 6.5 -29.5t14.5 -15t14.5 -10t6.5 -14.5q0 -11 -9.5 -17.5t-18.5 -6.5h-114q-11 0 -19 8.5t-8 19.5q0 12 6.5 17.5t14.5 9t16.5 8t12.5 13.5q2 5 6 44.5t8 96t8.5 123t8 126.5t5.5 105t2 60q0 16 -7.5 25t-16 15.5t-16 11.5t-7.5 14q0 8 5.5 14t10.5 11z" />
    <glyph glyph-name="I" unicode="I" horiz-adv-x="204" 
d="M127 722q7 0 18.5 -0.5t22.5 -3t19 -8.5t8 -16q0 -9 -9 -14t-20 -9.5t-20 -10t-9 -17.5q0 -143 -2 -284t-2 -284q0 -15 8.5 -20.5t19 -8.5t19 -7.5t8.5 -16.5q0 -9 -6.5 -15.5t-15.5 -6.5h-31t-47.5 1.5t-45 3.5t-23.5 7q-3 2 -6.5 6t-3.5 8q0 12 9 17.5t19.5 10.5
t19.5 13t9 26v486v18t-0.5 25.5t-1.5 24.5t-3 15q-5 7 -13 8.5t-16.5 3.5t-14.5 7.5t-6 22.5q0 8 16 12t36.5 5.5t39.5 1t24 -0.5z" />
    <glyph glyph-name="J" unicode="J" horiz-adv-x="396" 
d="M240 719q31 0 61 -1t61 -1q9 0 16.5 -9t7.5 -18q0 -11 -8.5 -14t-19 -7t-19.5 -13.5t-9 -34.5q-2 -95 0.5 -190t2.5 -191q0 -43 -0.5 -86.5t-13 -79t-42.5 -58t-89 -22.5q-23 0 -44 8t-43 8q-9 0 -16 -4.5t-16 -4.5t-18.5 15.5t-18 36t-14.5 40.5t-9 28q0 10 8.5 16
t17.5 6q8 0 19.5 -14t27 -31t35.5 -31t46 -14q32 0 52 9t31 25.5t15 39.5t4 51l1 202v57t-1.5 83.5t-4 81t-8.5 51.5q-4 8 -12.5 11l-17 6t-15 8.5t-6.5 18.5q0 14 14 18t25 4z" />
    <glyph glyph-name="K" unicode="K" horiz-adv-x="605" 
d="M15 705q11 11 27.5 12t30.5 1q9 0 28.5 1t39.5 -0.5t35 -6.5t15 -17q0 -9 -5 -13.5t-12.5 -7.5t-15.5 -5t-14 -6q-4 -3 -6 -18.5t-2.5 -34.5t-0.5 -35.5v-22.5v-41.5t2 -41.5q7 0 21 10t32 24.5t38 32.5t38.5 35t33.5 30.5t23 19.5q3 3 11 7.5t16 10t14 10.5t6 9
q0 6 -4 9t-9 6.5t-9 8t-4 12.5q0 12 12.5 17t29 6.5t32.5 1t24 -0.5h20t28.5 -2.5t25.5 -7t11 -13.5q0 -5 -2.5 -10t-7.5 -7q-14 -11 -32 -14.5t-33 -11.5q-6 -4 -23.5 -17t-36 -28.5t-33 -29.5t-14.5 -20q0 -3 11 -34t27.5 -77t36.5 -100t38 -103.5t32 -88.5t19 -53
q5 -13 11.5 -26t19.5 -20q12 -6 26.5 -9t22.5 -14q9 -5 9 -16q0 -5 -1 -7q-8 -7 -22.5 -10t-31.5 -4t-33 -0.5t-26 0.5t-23.5 -0.5t-26.5 2t-22 9.5t-9 22q4 7 11 11.5t14 8t13 8.5t7 14q-18 66 -44 128t-47 127q-11 34 -27 66t-26 67q-4 12 -5 25t-6 24l-7 1
q-4 0 -16.5 -8.5t-29 -21.5t-34 -29t-33 -31t-25.5 -27t-11 -17q-1 -6 -1.5 -12.5t-0.5 -12.5v-32.5v-54t0.5 -64t1 -62.5t1.5 -49t3 -24q3 -8 11.5 -10.5t17.5 -5.5t16.5 -8t7.5 -18q0 -9 -7.5 -16t-15.5 -7h-141q-6 0 -12 9t-6 15q0 9 6 13.5t14 8t16 7.5t13 12
q4 8 6 21.5t3 28.5t1 29v23q0 14 -0.5 54.5t-1 94t-1.5 112.5t-2 108.5t-2.5 83.5t-2.5 37q-4 7 -12 11.5t-16 8.5t-14 9t-6 14q0 3 2 7z" />
    <glyph glyph-name="L" unicode="L" horiz-adv-x="496" 
d="M54 713h107q20 0 30 -15q3 -3 5.5 -6.5t2.5 -8.5q0 -12 -9.5 -16t-21 -7t-21 -9.5t-9.5 -24.5q0 -140 3 -278.5t3 -278.5q0 -11 10 -14t18 -3q13 0 43 -0.5t63.5 0t63.5 4t43 11.5q8 6 18 18t20.5 24t21 21t19.5 9q8 0 15 -6.5t7 -14.5q0 -9 -6 -30t-15 -43t-20 -38.5
t-21 -16.5q-33 0 -67.5 4t-68.5 4q-58 0 -115.5 -4t-115.5 -4q-5 0 -12 1t-14.5 4t-12.5 7t-5 10q0 13 7.5 19.5t17 11t18.5 8.5t13 13q4 8 4 24v25q0 94 -3.5 188t-3.5 188q0 32 -1.5 62.5t-1.5 62.5q0 25 -8.5 35t-18.5 15t-18.5 9t-8.5 18q0 8 5 12.5t12 6.5t14.5 2.5
t13.5 0.5z" />
    <glyph glyph-name="M" unicode="M" horiz-adv-x="791" 
d="M173 720h99q11 0 24.5 -6.5t13.5 -20.5q0 -8 -5.5 -12t-12 -8t-12 -8t-5.5 -12q4 -9 13 -26t20 -38.5t23.5 -45t23.5 -43.5t20 -34t14 -18q5 3 15 18.5t22.5 36.5t25.5 45.5t24 46t18 37.5t7 21l-1 6q-5 6 -11.5 9t-12.5 6t-10.5 7.5t-4.5 13.5q0 18 13.5 22t27.5 4
q9 0 32 0.5t47 -1.5t42.5 -8t18.5 -18t-6.5 -17.5t-15 -9t-15 -9t-6.5 -18.5q0 -33 10 -77.5t22 -90t22 -87t10 -68.5q6 -13 10.5 -35.5t9 -49t8.5 -54t9 -52t10.5 -42.5t13.5 -25q7 -7 17 -9.5t19 -6t15.5 -9t6.5 -18.5q0 -8 -8 -15t-16 -7q-11 0 -37.5 -0.5t-55 1.5t-50 8
t-21.5 20l1 5q4 6 12 10.5t15.5 9.5t13 10.5t5.5 14.5q0 11 -6 49t-15.5 88.5t-21.5 108.5t-23 110t-20 92t-14 55l-11 3q-32 -51 -63.5 -107.5t-54.5 -112.5q-3 -9 -9 -18t-17 -9q-7 0 -20 18t-28.5 45t-32 59t-31 59.5t-26 46t-16.5 18.5l-10 -10q-1 -2 -5.5 -24.5
t-11 -58t-15 -80t-17.5 -91t-17 -91t-14.5 -80t-10.5 -58.5t-4 -26q4 -9 13.5 -12.5t18.5 -6.5t16 -7.5t7 -16.5q0 -11 -10 -14.5t-18 -3.5q-9 0 -33 -0.5t-48.5 1.5t-44 7.5t-19.5 17.5q0 9 5 14t12.5 8.5t15.5 6t13 6.5q14 8 17 23.5t6 29.5q20 99 37.5 197.5t38.5 197.5
q7 33 17 65.5t10 66.5q0 13 -7.5 19t-17 10.5t-17 10t-7.5 17.5q7 16 15.5 20t25.5 4z" />
    <glyph glyph-name="N" unicode="N" horiz-adv-x="585" 
d="M541 724q12 0 23.5 -4.5t11.5 -19.5q0 -14 -9 -19t-19.5 -9t-19 -10.5t-8.5 -23.5q0 -29 2.5 -58.5t2.5 -58.5q0 -71 -1.5 -140t-1.5 -139v-36.5t0.5 -55.5t2 -53.5t3.5 -30.5q3 -8 11 -12l16 -8t14 -8.5t6 -12.5q0 -10 -4.5 -15.5t-11.5 -8.5t-15.5 -3.5t-15.5 -0.5
q-9 0 -28 -0.5t-39 1t-35 6.5t-15 16q0 9 5.5 14.5t13 10l15 9t11.5 12.5q6 12 7 25.5t1 27.5q0 28 -23 66.5t-55 76.5t-65.5 70.5t-54.5 48.5q-37 28 -67 62t-62 67l-8 3l-11 -10q0 -42 1 -83t1 -82q0 -29 -1.5 -65.5t-2 -74t1 -73.5t7.5 -63q8 -8 19 -11.5t19 -11.5
q7 -2 10 -8.5t3 -13.5l-1 -8q-6 -9 -15.5 -10.5t-18.5 -1.5q-10 0 -31.5 -0.5t-43 1.5t-38 8t-16.5 19q0 2 1 5t2 5q13 18 22.5 19.5t15.5 5t9 17.5t3 57v274v29.5v49t-1 57t-2 55t-3.5 43t-5.5 20.5q-5 4 -12 7.5t-14.5 7t-12.5 8.5t-5 13q0 12 9.5 17.5t23 7t27 1
t21.5 -0.5q7 0 21 -0.5t28 -2.5t25 -8t11 -16q0 -11 -8 -16t-17 -9t-17 -9t-8 -15q0 -16 20.5 -44t52.5 -62t71 -71.5t75 -72.5t65.5 -65.5t42.5 -49.5h15q0 84 -1.5 167t-1.5 168q0 16 -0.5 25.5t-4.5 15.5t-12.5 10t-24.5 9q-5 5 -9 11t-4 13q0 11 17 16t39.5 6.5t44 1
t31.5 -0.5z" />
    <glyph glyph-name="O" unicode="O" horiz-adv-x="550" 
d="M263 728q84 0 138 -30.5t85 -81.5t43 -117.5t12 -137.5q0 -69 -12 -134t-43 -115.5t-83.5 -81t-133.5 -30.5q-77 0 -127 33.5t-79.5 86.5t-41.5 118.5t-12 128.5q0 58 13 121.5t43 117t78.5 88t119.5 34.5zM85 325q0 -46 10 -93.5t33.5 -86.5t60.5 -64t91 -25
q37 0 65 15.5t48.5 40.5t33.5 58t21 68t11.5 69.5t3.5 62.5q0 47 -7 99.5t-27 97t-57 73.5t-97 29q-42 0 -72.5 -17t-51.5 -45t-34 -64t-20 -74.5t-9.5 -76t-2.5 -67.5z" />
    <glyph glyph-name="P" unicode="P" horiz-adv-x="533" 
d="M254 719q43 0 91 -2.5t88.5 -17.5t67 -46.5t26.5 -89.5q0 -48 -18 -77.5t-47.5 -45.5t-67.5 -22t-78 -6.5t-79 2t-70 2.5q-13 0 -18.5 -4t-5.5 -17q0 -69 -0.5 -136t-0.5 -136q0 -14 -0.5 -28.5t1.5 -28.5q2 -11 11 -16t19 -8.5t18 -8.5t8 -15q0 -7 -5 -11.5t-12 -7.5
t-14.5 -4t-12.5 -1q-11 0 -34.5 -1t-47.5 1t-42 8.5t-18 21.5q0 11 7 15.5t16.5 7.5t18.5 6.5t12 12.5q3 6 4 16t1.5 21.5t0.5 22v17.5v353v30v50.5t-0.5 49t-1.5 25.5q-3 9 -11.5 12.5t-17.5 6t-16 6.5t-7 16q0 15 11.5 21t25.5 6h198zM155 662q-6 -4 -9.5 -17t-5 -28.5
t-1.5 -30v-21.5t-0.5 -21.5t0.5 -29.5t3.5 -28.5t8.5 -17.5q5 -1 9 -1.5t9 -0.5q22 0 50.5 -1.5t59.5 -1.5t60.5 4t52.5 15t37.5 30.5t14.5 50.5q0 29 -12.5 48t-33 30t-46.5 16.5t-53.5 7t-53.5 1t-46 -0.5q-23 0 -44 -3z" />
    <glyph glyph-name="Q" unicode="Q" horiz-adv-x="560" 
d="M279 712q62 0 106 -17t73.5 -46t46.5 -68.5t26 -85t11.5 -94.5t2.5 -98q0 -29 -7 -69.5t-20.5 -80t-33 -73.5t-45.5 -50q-25 -16 -52 -25t-55 -20q0 -3 -1 -7t-1 -7q0 -8 4.5 -18.5t11.5 -19.5t16 -15.5t18 -6.5q12 0 22.5 5.5t23.5 5.5q12 0 18.5 -8t6.5 -19
q0 -14 -7 -25t-17.5 -18.5t-23.5 -11.5t-25 -4q-45 0 -64 10.5t-27 29t-12 43t-19 51.5q-3 6 -24.5 11.5t-49.5 15t-57 26.5t-47 45q-23 35 -37 73t-22 77.5t-10.5 80t-2.5 81.5q0 63 16.5 122.5t50 106t85 75t121.5 28.5zM225 44q6 0 12 2l1 7q0 13 -8.5 23t-8.5 23
q0 11 4.5 17.5t16.5 6.5l11 -1q7 -5 17.5 -17.5t21.5 -26t20.5 -23.5t14.5 -10q7 0 17 4q42 24 67 60.5t37.5 80t16 90.5t3.5 90q0 46 -7 97t-26.5 93.5t-55.5 70t-94 27.5h-20t-20 -1q-26 -2 -48 -17t-40.5 -38.5t-32.5 -53t-23.5 -59.5t-14.5 -58t-5 -50q0 -50 3 -98.5
t17 -96.5q5 -18 17 -42.5t28.5 -46.5t36.5 -37.5t42 -15.5z" />
    <glyph glyph-name="R" unicode="R" horiz-adv-x="523" 
d="M332 723q41 0 74.5 -10.5t57.5 -32.5t37 -54.5t13 -75.5q0 -30 -14 -53.5t-36.5 -39.5t-50 -24.5t-54.5 -8.5q-6 0 -9 -5.5t-3 -10.5q0 -7 6.5 -33.5t16 -63.5t21 -78t22 -76t19 -59.5t11.5 -27.5q8 -8 15.5 -11t13 -6.5t9 -10t3.5 -21.5q0 -10 -7 -15l-36 -2t-35 -1
q-19 0 -32 14q-6 7 -15 38.5t-19.5 75t-22 92t-21.5 90.5t-18.5 70.5t-13.5 32.5q-10 8 -23.5 5.5t-24.5 -2.5q-16 0 -32 3t-32 3q-8 0 -12 -5t-6 -12t-2 -15v-13l3 -310q0 -9 9.5 -12.5t21 -7.5t21 -11t9.5 -22q-6 -7 -25.5 -10.5t-43.5 -4.5t-46.5 -1h-33.5q-12 0 -25 5
t-13 19q0 12 9 16t20 7t20 10t9 25q0 139 -2 276.5t-2 276.5q0 19 -8.5 27t-18 12t-18 7.5t-8.5 15.5q0 9 5 14.5t13 7.5q9 2 31.5 3t52 1.5t62.5 0t63.5 -0.5t55.5 -0.5t39 -0.5zM146 667l-11 -8q-1 -20 -1.5 -40t-0.5 -40q0 -22 -1.5 -41t1.5 -33.5t14.5 -22.5t38.5 -8
q20 0 46.5 -1t54.5 0t54.5 5.5t47.5 15.5t33.5 29.5t12.5 48.5t-12.5 49.5t-33.5 30t-47.5 14.5t-54.5 5t-55 -0.5t-48 -1.5q-9 0 -18.5 -0.5t-19.5 -1.5z" />
    <glyph glyph-name="S" unicode="S" horiz-adv-x="489" 
d="M235 734q17 0 35 -4.5t34 -9.5t28.5 -9.5t18.5 -4.5q12 0 20 9t19 9q9 0 17.5 -14.5t15 -33.5t10.5 -37t4 -25q0 -22 -20 -22q-13 0 -26.5 13.5t-33 29.5t-47.5 29.5t-70 13.5q-48 0 -81.5 -25t-33.5 -77q0 -33 26 -57.5t65.5 -46.5t85.5 -44.5t85.5 -52t65.5 -69
t26 -95.5q0 -54 -18 -94t-50 -65.5t-75.5 -38t-94.5 -12.5q-23 0 -44 4t-37.5 9.5l-28.5 9.5t-17 4q-12 0 -19.5 -10t-19.5 -10q-3 0 -9 9t-13.5 23t-15 30.5t-14 31.5t-10.5 26t-4 14q0 13 9 21q4 1 7.5 2t6.5 1q15 0 30 -16.5t39 -36t59.5 -36t91.5 -16.5q69 0 111.5 37.5
t42.5 109.5q0 35 -20.5 63.5t-52.5 53t-70.5 45.5t-75 41.5t-66 41.5t-42.5 45q-11 18 -14 38t-3 42q0 37 14 66t37.5 49t55 30.5t66.5 10.5z" />
    <glyph glyph-name="T" unicode="T" horiz-adv-x="533" 
d="M120 726h342q19 0 30 -13t17.5 -32t10 -39t7.5 -35q3 -9 -4.5 -16t-16.5 -7q-3 0 -6.5 1t-7.5 2q-24 24 -31.5 39t-16.5 24t-27 12t-61 3q-11 0 -21.5 -1t-21.5 -5q-1 -3 -2 -35.5t-1.5 -80.5t-1.5 -104.5t-1.5 -107.5t-0.5 -88.5v-48.5q0 -29 0.5 -58t3.5 -58
q1 -18 10.5 -25t20.5 -10t19.5 -6.5t8.5 -14.5q0 -6 -8 -15t-13 -9q-11 0 -39 -1t-57 0.5t-51 7t-22 17.5q0 14 9 18t20 8.5t20 14t9 34.5l-3 536q0 15 -8.5 21t-22.5 6q-12 0 -27 -0.5t-30 -3t-29 -7t-24 -13.5q-6 -5 -12.5 -14t-13.5 -18.5t-15 -16.5t-15 -7t-15.5 5.5
t-8.5 12.5q0 12 3.5 22t8.5 20q13 25 16 41.5t8.5 26.5t20 14t50.5 4z" />
    <glyph glyph-name="U" unicode="U" horiz-adv-x="592" 
d="M544 723q12 0 24.5 -6.5t12.5 -20.5q0 -13 -9 -16.5t-19.5 -6t-19 -7t-8.5 -19.5q0 -81 2.5 -162t2.5 -162q0 -36 -1 -72.5t-3 -72.5q-2 -38 -23 -70.5t-52.5 -56.5t-69 -38t-71.5 -14q-56 0 -101 12t-77 38.5t-49 68t-17 101.5q0 103 -1 205t-1 205q0 25 -8.5 35
t-19 13.5t-19 6t-8.5 14.5q0 9 5.5 13t13.5 6t16.5 2h14.5h27h35t34.5 -1.5t24.5 -4.5q4 -3 7 -8.5t3 -11.5q0 -2 -2 -6q-7 -9 -16 -12t-17.5 -6t-14 -10t-5.5 -25v-411q0 -88 39 -128t127 -40q52 0 84.5 19.5t50.5 51.5t25.5 73.5t8.5 85.5t-1 86.5t-2 77.5v39.5t-0.5 64.5
t-1.5 62.5t-3 33.5q-5 10 -15 15.5t-20 9.5t-17 10t-7 18q0 10 18.5 15t43 6t47.5 0.5t32 -0.5z" />
    <glyph glyph-name="V" unicode="V" horiz-adv-x="617" 
d="M9 701q0 11 11.5 16t27.5 6.5t31 1t23 -0.5q6 0 22.5 -0.5t33.5 -2.5t30 -7.5t13 -15.5q0 -2 -1 -5t-1 -5q-6 -6 -14.5 -9t-16.5 -5.5t-13.5 -6.5t-5.5 -12q0 -6 7 -29.5t16.5 -51t18 -53t11.5 -35.5q13 -41 24 -84l22 -86t23.5 -85.5t29.5 -82.5l12 4q6 17 20.5 57.5
t32.5 92t37 107.5t35 105t26.5 84t10.5 45q0 19 -7.5 26t-21.5 15q-1 2 -2 5t-1 5q0 10 5.5 15.5t14 8.5t17.5 3.5t16 0.5t25 -0.5t37.5 -2.5t34.5 -8t15 -16q0 -11 -6.5 -16t-15.5 -8t-18.5 -5.5t-15.5 -8.5q-6 -5 -16 -29t-23 -57.5t-26.5 -73t-25 -75t-20 -64
t-11.5 -39.5q-5 -22 -19 -57t-29 -71t-26.5 -68t-11.5 -47t6 -20t13.5 -8t15.5 -7.5t13 -19.5q0 -7 -5.5 -11t-12.5 -6.5t-14.5 -3t-12.5 -0.5h-31.5t-46 2t-41 8t-17.5 18q0 10 6.5 14t15 7t15 8t6.5 19q0 3 -7 28.5t-18.5 65t-26.5 89t-31 102t-31.5 102.5t-28.5 91
t-22 68t-12 32q-6 12 -17.5 17t-22.5 8t-19.5 7.5t-8.5 14.5z" />
    <glyph glyph-name="W" unicode="W" horiz-adv-x="782" 
d="M144 718q13 0 28.5 -3.5t15.5 -20.5q0 -9 -6.5 -12.5t-14 -6.5t-13.5 -8.5t-6 -18.5q0 -5 7 -43t17 -92.5t22.5 -117t23 -116t18 -89.5t8.5 -38l8 4q7 10 18 36.5t24 60.5t26.5 70.5t25.5 67.5t21.5 52t13.5 24l6 1q5 0 9 -3t4 -9q32 -76 63 -151.5t62 -152.5
q2 -5 6.5 -6.5t9.5 -1.5q3 11 11.5 51t20 94.5t24 115t23 112.5t17.5 88t7 40q0 2 -2 8t-3 8q-8 6 -17.5 10.5t-16.5 12.5q-1 19 9 24.5t27 5.5q27 0 54 2t55 2q8 0 15 -9t7 -17q0 -10 -7.5 -15.5t-17.5 -9.5t-20 -8.5t-15 -12.5q-1 -1 -6.5 -25.5t-15 -64t-20.5 -89.5
t-23 -103t-23 -104.5t-19.5 -93t-14 -68.5t-5.5 -32q0 -2 2 -8.5t3 -8.5q12 -5 26 -10.5t20 -19.5q0 -10 -6.5 -17t-16.5 -7q-13 0 -37.5 -0.5t-49.5 1.5t-46 7.5t-26 17.5q0 12 11 17q5 6 12 9.5t14 5.5q0 6 -7 26t-17 47t-22.5 56.5t-24 56.5t-21.5 46.5t-14 26.5h-4
q-3 -6 -12 -26t-21 -46.5t-25 -56.5t-23.5 -56t-17.5 -44t-7 -21q0 -11 7.5 -15t16 -7t16 -7.5t7.5 -15.5t-8.5 -14t-18.5 -3q-15 0 -32 -1t-35 -1.5t-35.5 0.5t-31.5 6q-4 4 -7 9t-3 11q0 10 6 13.5t13.5 7.5t14 11t6.5 24q0 23 -7.5 45.5t-11.5 45.5q-2 15 -9.5 55.5
t-17.5 93t-21.5 109.5t-22.5 106t-20.5 83t-14.5 39q-6 6 -15.5 8.5t-19 5.5t-16 7.5t-6.5 15.5q0 12 17.5 17.5t40.5 7t45.5 0.5t31.5 -1z" />
    <glyph glyph-name="X" unicode="X" horiz-adv-x="621" 
d="M89 730q20 0 39.5 -1.5t38.5 -1.5q7 0 20 -0.5t25.5 -3.5t21.5 -9t9 -17q0 -8 -6 -11t-13 -5.5t-13 -6.5t-6 -15q0 -3 7 -17t17.5 -33.5t23.5 -41.5t25 -42t21.5 -35t13.5 -20q0 -11 12 -11q5 0 9.5 4t9.5 7q12 14 28 36t30 46.5t23.5 49t9.5 43.5q0 18 -9.5 25
t-20.5 10.5t-20.5 7.5t-9.5 17q0 14 8.5 19.5t21.5 5.5q10 0 35.5 1t52 -1t46.5 -8.5t20 -20.5q0 -6 -2 -10q-6 -9 -14.5 -11t-17.5 -3.5t-17 -7t-12 -20.5q-9 -30 -16.5 -52.5t-16.5 -43t-21.5 -40.5t-32.5 -45q-11 -13 -24.5 -27t-21.5 -28q-2 -3 -4 -9q42 -76 83 -154
t88 -152q12 -20 27.5 -27t28.5 -11t22 -10t9 -22q0 -10 -7.5 -15.5t-17.5 -8t-20.5 -3t-17.5 -0.5h-30t-42 2t-37 7.5t-16 17.5q0 7 4 11.5t10 8t12 6.5t10 6l2 4t1 4q0 5 -11.5 27.5t-29 52.5t-38 63.5t-39 62t-32 47t-16.5 18.5q-4 0 -8 -2q-20 -20 -44.5 -51t-46 -66
t-36 -70.5t-14.5 -64.5q0 -17 8 -22t18 -7.5t18 -7t8 -20.5q0 -12 -20 -17t-45.5 -6.5t-50.5 -0.5t-35 1q-13 0 -26.5 7.5t-13.5 22.5t11 19.5t25.5 9t29 14t21.5 35.5q8 33 21.5 67t30.5 67t38.5 63t45.5 54q10 8 20.5 18t10.5 24q0 2 -9.5 20t-23.5 44t-31.5 55.5t-33 56
t-27.5 46.5t-16 25q-6 7 -18 13l-24 12t-21.5 12.5t-9.5 13.5q0 13 12 19.5t23 6.5z" />
    <glyph glyph-name="Y" unicode="Y" horiz-adv-x="612" 
d="M101 733q8 0 24 -0.5t31.5 -3.5t27.5 -9.5t12 -19.5t-10 -16q-4 -3 -12.5 -7.5t-8.5 -9.5q0 -3 9 -17.5t23 -34.5t31 -43t32 -44.5t27 -38t17 -22.5l11 -5q4 0 15 12t24.5 29.5t28.5 38t27.5 38t21 30t9.5 13.5q2 3 7 8.5t10.5 11t9.5 10.5t4 8q0 9 -6 12.5t-13 6.5
t-13 8t-6 16q4 12 11.5 18t16.5 7.5t19.5 1t21.5 -0.5q8 0 25 -0.5t33.5 -3.5t29 -10t12.5 -20q0 -8 -5 -13.5t-12.5 -8.5t-16 -5t-14.5 -4q-8 -7 -27 -28.5t-42 -50.5t-48 -61.5t-45.5 -62t-33.5 -52t-13 -30.5q0 -35 2 -68.5t2 -68.5q0 -32 -3.5 -62.5t-3.5 -62.5
q0 -11 0.5 -21.5t2.5 -20.5q2 -12 10.5 -16t17.5 -7t16.5 -7.5t7.5 -16.5q0 -10 -12.5 -15t-29 -7.5t-32.5 -3t-24 -0.5q-7 0 -20.5 0.5t-27 3.5t-24 9t-10.5 16q0 16 9 19.5t20 7t20 14.5t9 43v42v56.5t-0.5 62.5t-2 59.5t-4.5 47.5t-7 26q-6 8 -21 30.5t-34.5 51
t-41.5 59.5t-41.5 57.5t-33.5 44.5t-18 20q-7 3 -17.5 5t-20.5 5.5t-17 9t-7 16.5q0 12 11 17t26 6.5t30.5 1t23.5 -0.5z" />
    <glyph glyph-name="Z" unicode="Z" horiz-adv-x="477" 
d="M411 720q8 0 15.5 -5.5t7.5 -13.5q0 -58 -25 -117.5t-63 -118t-82 -114.5t-82 -107.5t-63 -97t-25 -82.5q0 -11 8.5 -13t16.5 -2q15 0 49.5 0.5t72 2t69 4t41.5 7.5t23 17.5t26.5 26t25.5 24t20 10.5q10 0 16 -8.5t6 -16.5q0 -14 -6.5 -27t-12.5 -26q-6 -15 -9.5 -27
t-9 -20.5t-16 -13t-29.5 -4.5q-88 0 -174 -1.5t-173 -1.5q-10 0 -19 7t-9 18q0 52 25 108t62 112.5t80.5 111.5t80.5 107t62 98.5t25 84.5q0 7 -2 17q-8 3 -17 3.5t-17 0.5h-76q-41 0 -64.5 -10t-37.5 -21.5t-22.5 -21.5t-19.5 -10q-9 0 -15.5 9t-6.5 17q0 14 9.5 30.5
t15.5 29.5q9 18 20.5 24.5t31.5 6.5q68 0 134 1.5t133 1.5z" />
    <glyph glyph-name="bracketleft" unicode="[" horiz-adv-x="212" 
d="M77 743h54q12 0 21 -8.5t9 -21.5q0 -11 -5 -17t-12.5 -8.5t-17 -3t-17.5 -0.5l-3 -728h18t18.5 -2.5t14.5 -8.5t6 -18t-9 -21t-21 -9h-59q-13 0 -20 11.5t-7 23.5l3 778q0 14 6 23.5t21 9.5z" />
    <glyph glyph-name="backslash" unicode="\" horiz-adv-x="371" 
d="M48 665q0 14 5.5 26t22.5 12q11 0 18 -7t11 -17q4 -8 15 -39.5t27 -78t35.5 -102.5t39 -113.5t38 -112t33 -97.5t23 -69.5t8.5 -28.5q0 -12 -7.5 -22.5t-21.5 -10.5q-9 0 -16.5 5.5t-11.5 13.5q-18 37 -29.5 82t-24.5 84q-32 94 -64 186t-64 185q-2 4 -7.5 20.5
t-12.5 34.5t-12 33t-5 16z" />
    <glyph glyph-name="bracketright" unicode="]" horiz-adv-x="212" 
d="M164 -68q0 -12 -6.5 -23.5t-19.5 -11.5h-59q-12 0 -21.5 9t-9.5 21t6 18t14.5 8.5t18.5 2.5h18l-2 728q-8 0 -17.5 0.5t-17.5 3t-13 8.5t-5 17q0 13 9.5 21.5t21.5 8.5h54q15 0 20.5 -9.5t5.5 -23.5z" />
    <glyph glyph-name="asciicircum" unicode="^" horiz-adv-x="252" 
d="M47 507q-13 0 -20.5 9.5t-7.5 20.5t13 35t28.5 50t29 49.5t13.5 34.5q2 8 10.5 12t16.5 4q14 0 23 -14q0 1 0.5 0t0.5 -2q6 -13 19.5 -37.5t28 -50.5t25.5 -49t11 -32q0 -11 -7.5 -20.5t-19.5 -9.5q-9 0 -21 15.5t-24 35.5t-22.5 40t-15.5 29q-5 -9 -15 -29t-22 -40
t-23.5 -35.5t-20.5 -15.5z" />
    <glyph glyph-name="grave" unicode="`" horiz-adv-x="287" 
d="M148 567q-8 0 -14 4l-12 8q1 -2 4 -3.5t5 -3.5q-8 6 -28.5 21t-42 33t-38.5 35.5t-17 27.5q0 12 8 20t19 8q5 0 17.5 -7.5t28.5 -19t33.5 -26t31.5 -28t23.5 -25t9.5 -16.5q0 -12 -8.5 -20t-19.5 -8z" />
    <glyph glyph-name="a" unicode="a" horiz-adv-x="380" 
d="M184 470q9 0 20.5 -1t23 -3.5t22.5 -6t18 -8.5q16 -11 25 -39t14 -64.5t6 -78t1 -81.5t0.5 -74t2.5 -54q1 -12 9 -16t17 -7t16.5 -7.5t7.5 -17.5q0 -11 -7 -14.5t-16 -3.5q-23 0 -38 -0.5t-25 3t-17.5 13.5t-14.5 31q-7 0 -18 -8t-25 -18t-32.5 -18t-40.5 -8
q-29 0 -52.5 10.5t-40 28.5t-25.5 42.5t-9 53.5q0 34 18 58.5t44.5 43t58 33t58 28t44.5 27.5t18 32q0 31 -12.5 53t-47.5 22q-7 0 -17 -2t-19.5 -5.5t-17 -9.5t-10.5 -14q-6 -6 -7 -15.5t-2.5 -17.5t-6.5 -14t-18 -6q-9 0 -18 9.5t-17 22.5t-13 26t-5 21q0 12 3.5 17
t9.5 6.5t13.5 1t15.5 -0.5q7 0 18.5 4.5t25.5 10.5t30 10.5t32 4.5zM76 120q0 -28 16.5 -50t46.5 -22q31 0 52.5 12.5t35 32.5t19.5 46t6 52q0 16 -0.5 32.5t-6.5 30.5h-19q-19 -9 -44.5 -22t-49 -30.5t-40 -38t-16.5 -43.5z" />
    <glyph glyph-name="b" unicode="b" horiz-adv-x="396" 
d="M47 714q9 0 30 1t43 0t39 -6t17 -17q0 -11 -6 -15.5t-13.5 -8t-15 -7.5t-9.5 -12q-4 -13 -4 -27v-27v-78.5t4 -76.5q10 0 20.5 6t23 13t27.5 13t34 6q51 0 81.5 -27t46.5 -66.5t21 -86t5 -85.5q0 -36 -6.5 -75t-22.5 -71.5t-44 -53.5t-71 -21q-17 0 -29 3.5t-22 9
t-20.5 12t-24.5 12.5q-9 -13 -14.5 -19.5t-12 -9t-15.5 -2.5h-24q-7 0 -16 0.5t-17 2.5t-13.5 7t-5.5 14q0 12 6.5 17t14.5 10t14.5 14.5t6.5 29.5q0 128 -5.5 255t-5.5 255q0 11 -1.5 28t-6.5 25q-3 6 -10 10t-14 7.5t-12.5 7.5t-5.5 12q0 14 10.5 17.5t22.5 3.5zM238 52
q32 0 50 20t26.5 48.5t10 60t1.5 54.5t-2.5 55t-12 61t-28 49t-50.5 20q-34 0 -53.5 -17.5t-29 -43t-12 -56t-2.5 -55.5q0 -30 -0.5 -56.5t5.5 -50t21 -43t46 -34.5q8 -4 15 -8t15 -4z" />
    <glyph glyph-name="c" unicode="c" horiz-adv-x="332" 
d="M177 487q35 0 64 -13q7 -8 13.5 -10t12.5 -1t12.5 2.5t14.5 1.5q9 0 16.5 -7.5t7.5 -16.5q0 -8 -7.5 -24.5t-18 -32.5t-22 -28t-20.5 -12q-14 0 -16 13t-3.5 28t-8 28t-30.5 13q-34 0 -57 -17t-36.5 -43t-19.5 -56.5t-6 -58.5q0 -27 5 -60t17.5 -62t34.5 -48.5t57 -19.5
q36 0 51.5 10.5t24.5 25.5t18 30.5t32 25.5q10 -10 10 -25q0 -24 -10.5 -47.5t-28 -42t-40.5 -30t-48 -11.5q-55 0 -91 23.5t-57 60.5t-29.5 82.5t-8.5 89.5q0 39 8 80t27 75t51.5 55.5t80.5 21.5z" />
    <glyph glyph-name="d" unicode="d" horiz-adv-x="388" 
d="M242 719q9 0 30.5 0.5t43.5 -2t39 -8t17 -17.5t-6.5 -14.5t-14.5 -5t-14.5 -10.5t-6.5 -30q0 -18 -0.5 -65.5t-0.5 -108.5v-128t1.5 -125t4 -98.5t6.5 -48.5q11 -6 21.5 -10t20.5 -13q0 -19 -10 -25t-27 -6q-27 0 -40 -0.5t-19.5 3.5t-11 13.5t-14.5 29.5
q-15 -12 -24.5 -21t-19 -16t-22.5 -10.5t-34 -3.5q-44 0 -72.5 23.5t-45 59t-22.5 76t-6 74.5q0 40 5.5 83.5t22.5 80.5t48 61t83 24q24 0 36.5 -5.5t20.5 -12t14 -13t16 -8.5v-4q5 13 5.5 26.5t0.5 27.5v34v53t-1.5 51t-4.5 28q-3 7 -10.5 10t-14.5 6t-12.5 7t-5.5 13
q0 25 24 25zM79 233q0 -21 3.5 -50.5t13 -57.5t27 -47.5t45.5 -19.5q33 0 53 17t31 42t15 54.5t4 53.5q0 25 -1.5 59.5t-11 65.5t-29 52.5t-55.5 21.5q-31 0 -50 -21.5t-29 -51.5t-13 -62.5t-3 -55.5z" />
    <glyph glyph-name="e" unicode="e" horiz-adv-x="319" 
d="M148 477q37 0 62.5 -7.5t43 -23.5t28 -41.5t18.5 -60.5l1 -7q0 -11 -15 -21.5t-38 -22t-50.5 -22.5t-53 -23t-45.5 -24t-27 -25l-1 -8q0 -24 8 -47.5t22.5 -42t35 -30.5t46.5 -12q27 0 43 13.5t27 30t19.5 30.5t21.5 14q11 0 14.5 -7t3.5 -16q0 -24 -14 -46.5t-36 -40
t-47.5 -27.5t-48.5 -10q-51 0 -83 23t-50 59t-24.5 79t-6.5 83q0 35 6 76t22 76t44.5 58t73.5 23zM67 290l1 -15q2 0 6 -1.5t6 -1.5q6 0 28 10t47 23t44.5 25.5t20.5 17.5l1 10q0 34 -23 50t-54 16q-17 0 -31.5 -15.5t-24.5 -37t-15.5 -44.5t-5.5 -37z" />
    <glyph glyph-name="f" unicode="f" horiz-adv-x="207" 
d="M92 721q20 0 37.5 -5t47.5 -5q17 0 17 -18q0 -7 -5 -20.5t-12 -27t-15.5 -23.5t-15.5 -10q-12 0 -15.5 8.5t-5.5 19t-8 19.5t-22 9q-13 0 -21.5 -8.5t-8.5 -22.5q0 -13 7 -23t16 -18q23 -21 30 -37t7.5 -29.5t0.5 -25.5t8 -26q6 -2 14 -3.5t15.5 -4.5t12.5 -8t5 -13
q0 -14 -8.5 -16t-19 -5t-19 -12t-8.5 -37v-37.5t0.5 -60.5t1 -71.5t2 -69t3.5 -54t5 -26.5q7 -10 19 -10t23 -2l7 -3q2 -6 2 -11q0 -15 -10 -22t-24 -9.5t-28.5 -2t-23.5 0.5t-23 -1t-26.5 0.5t-22 7t-9.5 18.5q0 10 4 15t10 7.5t13 4.5t13 7q2 2 4 18.5t3 40.5t1.5 52
t0.5 53.5v45.5v28v27.5t-1 31.5t-3 30.5t-5 25.5q-3 9 -10.5 13t-15 7t-13.5 7t-6 13q0 13 8 15.5t17 4t17 7t8 23.5q0 24 -9.5 38t-21 27t-21 28.5t-9.5 41.5q0 36 25.5 59.5t60.5 23.5z" />
    <glyph glyph-name="g" unicode="g" horiz-adv-x="380" 
d="M142 480q26 0 52.5 -7.5t45.5 -26.5l8 3q4 12 14 17t22 6.5t24.5 0.5t23.5 -1q10 0 24 -5t14 -18q0 -14 -7.5 -18.5t-17.5 -7t-18.5 -6.5t-10.5 -17q-2 -12 -2 -24.5v-24.5q0 -99 3 -196.5t3 -195.5q0 -41 -4 -77.5t-19 -64.5t-44 -44.5t-78 -16.5q-30 0 -57.5 5.5
t-48.5 19t-34 36t-13 57.5q0 9 4 24.5t11.5 30t17.5 25t22 10.5q7 0 19.5 -8t24.5 -19.5t21 -23t9 -18.5q0 -2 -2 -8q-3 -2 -7 -4.5t-9 -2.5q-8 0 -15.5 3.5t-15.5 3.5q-11 0 -14 -8.5t-3 -16.5q0 -16 6.5 -26.5t17.5 -16.5t24.5 -8.5t27.5 -2.5q56 0 78.5 33t22.5 85v26.5
t-0.5 36t-2 35t-3.5 23.5l-8 -4q-21 -26 -39.5 -34t-49.5 -8q-54 0 -84.5 24t-44.5 61t-17 81.5t-3 86.5q0 32 4.5 71.5t18.5 74t40 57.5t69 23zM134 419q-21 0 -33.5 -25.5t-18.5 -59t-8 -66.5t-2 -48q0 -19 3.5 -47.5t13 -55t26.5 -45.5t43 -19q34 0 53.5 19t29.5 46.5
t12 58.5t2 55t-2 57t-11 63t-27.5 51.5t-52.5 21.5q-15 0 -28 -6z" />
    <glyph glyph-name="h" unicode="h" horiz-adv-x="389" 
d="M9 694q0 10 10.5 15t24.5 6.5t27.5 1t19.5 -0.5q7 0 20 -0.5t26 -3t23 -8t10 -15.5q0 -13 -8 -16t-17.5 -6t-17.5 -12t-8 -34v-147q0 -11 1 -22.5t3 -23.5h11q17 21 38.5 36t50.5 15q53 0 82.5 -23.5t44 -60t17.5 -80t3 -83.5q0 -43 -7.5 -84.5t-27.5 -80.5l4 -15
q5 -2 12 -3t13 -3.5t10.5 -7t4.5 -11.5q0 -10 -10.5 -15.5t-25 -8t-28.5 -3t-21 -0.5q-6 0 -14.5 0.5t-16 2.5t-13 6.5t-5.5 13.5q0 8 8 26.5t18 41.5t19 47t11 43q2 23 4 44.5t2 44.5q0 19 -2 44.5t-9.5 49t-23 40t-41.5 16.5q-32 0 -53 -15.5t-33 -39.5t-17 -52t-5 -53
v-23.5v-37.5t1 -44t2 -43t3 -34.5t5 -17.5q3 -5 10.5 -9.5t14.5 -9t12.5 -9t5.5 -9.5q0 -11 -11.5 -16t-27 -6.5t-31 -1t-22.5 0.5q-6 0 -17 0.5t-21.5 2.5t-18 7.5t-7.5 14.5q0 10 5.5 15.5t13 10t14 11t8.5 17.5q3 22 3.5 45.5t0.5 45.5q0 12 -0.5 51.5t-1.5 91
t-2.5 109.5t-3 107.5t-4 83.5t-4.5 40q-4 9 -11 14t-13.5 8t-11.5 7t-5 12z" />
    <glyph glyph-name="i" unicode="i" horiz-adv-x="175" 
d="M85 671q21 0 28.5 -16.5t7.5 -34.5q0 -17 -8.5 -31t-27.5 -14q-23 0 -30.5 14.5t-7.5 33.5t8 33.5t30 14.5zM39 470h68h5q6 0 15 -1t17 -3.5t14 -7.5t6 -13q0 -7 -6 -11t-14 -8t-15 -8.5t-10 -13.5q-4 -11 -4 -21.5v-20.5v-28.5t-0.5 -54t0 -68t2 -69t3.5 -56.5t6 -32
q10 -5 23 -9t13 -19q0 -12 -5 -17.5t-13 -7.5t-17 -2h-17q-7 0 -22.5 0.5t-31.5 3t-28.5 8t-12.5 16.5q0 9 5.5 14t12.5 8.5t13 7.5t8 12q4 20 4.5 42t0.5 43q0 59 -3 117.5t2 117.5q-7 21 -13 28t-11.5 8.5t-11.5 3.5t-13 13q0 12 9 20t21 8z" />
    <glyph glyph-name="j" unicode="j" horiz-adv-x="173" 
d="M85 680q20 0 30 -15t10 -32q0 -19 -6.5 -35.5t-29.5 -16.5q-11 0 -18.5 6t-13 14.5t-8 18.5t-2.5 19q0 18 10 29.5t28 11.5zM82 477q6 0 19.5 -0.5t27 -3t24 -8t10.5 -15.5q0 -5 -4 -9.5t-10 -8t-12 -6.5t-10 -4q-3 -5 -5.5 -21t-3.5 -34t-1.5 -35t-0.5 -24
q0 -112 3.5 -222.5t3.5 -222.5q0 -27 -9.5 -47t-26 -33t-38.5 -19.5t-47 -6.5q-14 0 -26.5 3.5t-26.5 3.5q-6 -2 -12 -3t-11 -4q-5 4 -10 16t-9.5 25.5t-7.5 26.5t-3 20q0 8 3.5 14t13.5 6q7 0 16 -8t20.5 -18t25.5 -18t31 -8q18 0 29 6.5t18 18t9.5 25.5t2.5 29v47v96
t-0.5 119.5t-2 119.5t-3 95t-4.5 45q-3 7 -10.5 11t-15 7.5t-13 8t-5.5 12.5q0 11 8.5 16t20 7t23.5 1.5t19 -0.5z" />
    <glyph glyph-name="k" unicode="k" horiz-adv-x="430" 
d="M165 701q5 -2 5.5 -6t2.5 -9l-15 -12q-13 -4 -20 -7t-10.5 -7.5t-5.5 -11.5t-6 -19q3 -39 2.5 -78t-1.5 -78.5t0 -78.5t6 -77h8q28 26 58 48t56 51v8q-4 6 -7.5 12t-3.5 14q0 13 6.5 16.5t17.5 3.5h59h19.5t23.5 -1t22 -4.5t15 -10.5q0 -6 -0.5 -12t-3.5 -11
q0 -1 -21.5 -9.5t-47 -21t-46.5 -28t-21 -30.5q0 -7 3.5 -11.5t7.5 -9.5q25 -31 42 -66t34 -71q13 -29 14 -58.5t9 -59.5q2 -9 11 -13.5t18.5 -7.5t17 -7t7.5 -13q0 -13 -13 -18.5t-31 -7t-35.5 -1t-26.5 0.5q-5 0 -14.5 0.5t-18.5 2.5t-15.5 6.5t-6.5 12.5q0 14 7.5 20
t16 10t16 10t7.5 21q0 10 -5 30t-13 44.5t-19 49.5t-23 46t-24.5 34t-24.5 13t-25.5 -10t-25 -24t-19.5 -30t-8 -28v-32t1 -48t2.5 -46t3.5 -26q10 -5 19 -8t19 -7q8 -8 8 -19q0 -8 -11.5 -12.5t-26 -6.5t-28.5 -2.5t-20 -0.5q-7 0 -18.5 -0.5t-23 1.5t-19.5 7t-8 16
q0 15 13.5 20.5t23.5 11.5q5 8 7 16.5t2 17.5q0 137 -0.5 273.5t-8.5 273.5q-1 19 -7 26t-13.5 10l-15 6t-10.5 15q2 8 10 12.5t17.5 6.5t19.5 2.5t16 0.5h21t28.5 -1.5t27 -4t16.5 -8.5z" />
    <glyph glyph-name="l" unicode="l" horiz-adv-x="180" 
d="M9 703q9 11 21.5 13t24.5 2q7 0 26 -0.5t38.5 -2.5t34.5 -7t15 -15t-7.5 -14.5t-17 -8t-17 -8.5t-7.5 -16q0 -137 1.5 -272.5t1.5 -272.5q0 -28 7.5 -38t16 -13.5t16 -6t7.5 -15.5q0 -11 -9.5 -16.5t-22.5 -8t-25.5 -3t-19.5 -0.5q-9 0 -22.5 -0.5t-26 2t-22 8.5t-9.5 18
t8 16.5t17 8.5t17 11.5t8 26.5q0 135 -2 268t-2 268q0 27 -8 36.5t-17 13t-17 7.5t-8 19z" />
    <glyph glyph-name="m" unicode="m" horiz-adv-x="631" 
d="M238 473q37 0 68.5 -15.5t46.5 -50.5h12q19 29 43 49t61 20q42 0 71 -19.5t47 -49.5t25.5 -66.5t7.5 -70.5q0 -38 -4 -65t-10 -50.5t-13.5 -48t-14.5 -57.5q5 -3 12 -5.5t13 -5.5t10.5 -8t4.5 -13q0 -17 -13.5 -19t-25.5 -2q-9 0 -24.5 0.5t-31.5 3.5t-27.5 10t-11.5 19
q0 7 6 18t14.5 23t16.5 23.5t11 20.5q13 35 18 79t5 82q0 19 -3.5 43t-12.5 46t-25 37t-41 15q-20 0 -38.5 -13t-33 -32.5t-23.5 -41.5t-9 -40v-217q0 -14 7.5 -20t16.5 -9.5t16.5 -8t7.5 -15.5q0 -14 -8.5 -17.5t-19.5 -3.5h-76q-7 0 -16 0.5t-17 3t-13.5 8t-5.5 14.5
q0 15 11.5 20.5t23.5 8.5q4 4 6 13t3 19t1 19.5v15.5q0 52 -2 103t-2 103q0 17 -2 33.5t-8.5 29t-19.5 20t-34 7.5q-49 0 -73.5 -28t-34.5 -68t-10 -85v-79q0 -5 0.5 -20t1 -31.5t1.5 -30.5t2 -17q4 -9 11.5 -11.5t15.5 -4.5t14 -6t6 -16t-12 -16.5t-21 -4.5q-10 0 -30.5 -1
t-41.5 1t-36.5 7.5t-15.5 19.5q0 11 6.5 14.5t15 5.5t15.5 6.5t9 16.5q2 23 2 45v45q0 58 -3 115.5t-3 115.5q0 15 -7.5 21t-16.5 9t-16.5 7t-7.5 15q0 5 2 15q11 11 27 11h30q13 0 26 -1t24 -6l11 -34l4 15v-15q15 27 45.5 37t59.5 10z" />
    <glyph glyph-name="n" unicode="n" horiz-adv-x="380" 
d="M223 485q6 0 11 -1.5t10 -3.5q45 -17 70 -38.5t37.5 -49t15.5 -63t3 -79.5q0 -26 -6.5 -50.5t-14.5 -48.5t-14.5 -48t-6.5 -49q6 -3 13 -4.5t13 -4.5t10.5 -8t4.5 -13q0 -10 -6 -14.5t-14.5 -6.5t-18 -2h-16.5q-8 0 -20.5 0.5t-24.5 3.5t-20.5 9t-8.5 17q0 12 8 23
q16 25 24.5 51.5t17.5 55.5q10 35 12.5 71t2.5 73q0 16 -3 36t-11 37.5t-21 29.5t-34 12q-29 0 -49.5 -10t-34.5 -27t-20.5 -40t-6.5 -49q0 -57 1.5 -114t3.5 -114q4 -5 11.5 -9.5t15.5 -9t14 -9.5t6 -11q0 -11 -12 -16t-28 -7t-31.5 -2h-22.5q-8 0 -18.5 0.5t-20 3.5
t-16.5 8.5t-7 15.5q0 11 6 16t13 8.5t13.5 9t8.5 17.5q2 14 2.5 28.5t0.5 28.5q0 60 -1.5 119.5t-1.5 119.5q0 27 -5.5 36t-13.5 13t-17 9.5t-17 25.5q13 13 22 14t27 1h14t17 -0.5t17 -2.5t13 -5q7 -16 7 -30h12q7 7 17.5 15t22.5 15t24 12t21 5z" />
    <glyph glyph-name="o" unicode="o" 
d="M165 483q48 0 79.5 -20t50 -51.5t26.5 -71.5t8 -80q0 -38 -6 -83t-22.5 -84.5t-47 -66t-79.5 -26.5q-56 0 -89 28t-50 70.5t-22 92t-5 92.5q0 36 9 71.5t28.5 64t49 46.5t70.5 18zM74 272q0 -26 2 -63t11.5 -70.5t30 -57t57.5 -23.5q22 0 37.5 15.5t25.5 38t15 46.5t5 41
v86q0 25 -4 50t-15 45.5t-30 33.5t-49 13q-24 0 -40.5 -17.5t-26.5 -42.5t-14.5 -51t-4.5 -44z" />
    <glyph glyph-name="p" unicode="p" horiz-adv-x="381" 
d="M225 475q47 0 75.5 -24t44 -60t20.5 -77.5t5 -76.5q0 -36 -4.5 -78t-19.5 -77.5t-43 -59t-75 -23.5q-35 0 -56.5 14t-44.5 39l-1 -225q0 -15 15.5 -21.5t26.5 -8.5l12 -12l-4 -23q-8 -5 -16.5 -7t-17.5 -2h-26.5t-34.5 1.5t-34 4t-23 7.5l-6 17l2 10q8 10 15 12.5t12.5 4
t10 4.5t6.5 15q3 18 3 36.5v36.5q0 125 -2.5 247.5t-2.5 247.5q0 12 -8.5 18t-18.5 9.5t-18.5 8t-8.5 13.5q0 12 11 17.5t20 5.5q17 0 32.5 -2t32.5 -2l19 -19h3l-3 -7q16 3 24.5 9t17.5 12t22 10.5t38 4.5zM218 53q28 0 45.5 15.5t27.5 38.5t13 49t3 48q0 24 -1.5 62
t-10.5 74t-28 61.5t-54 25.5q-29 0 -47 -17.5t-27.5 -43t-12.5 -53.5t-3 -49v-63t8 -69t27.5 -56t59.5 -23z" />
    <glyph glyph-name="q" unicode="q" horiz-adv-x="388" 
d="M148 475q32 0 54.5 -10.5t42.5 -37.5q5 8 6 17.5t5 18.5q11 5 26.5 4.5t26.5 -0.5q14 0 30.5 -2t27.5 -14q-1 -14 -5 -19.5t-10 -7t-13 -1.5t-12.5 -2.5t-9.5 -10t-4 -23.5q0 -137 2.5 -272t2.5 -272q0 -24 8.5 -32t19 -11t19.5 -7.5t9 -21.5q0 -9 -9 -14t-17 -5h-31
t-38.5 1.5t-37 4.5t-26.5 9l-4 19q14 14 23 17.5t14.5 7t7.5 13t2 35.5v96t-1 96q-21 -25 -44.5 -39.5t-57.5 -14.5q-54 0 -84 27t-44.5 67.5t-17.5 87.5t-3 86q0 36 5.5 73.5t21 67.5t43 49.5t72.5 19.5zM142 421q-20 0 -33.5 -16t-21.5 -38t-11.5 -45.5t-3.5 -38.5
t0.5 -38t2.5 -49t7 -52t15 -47.5t24.5 -34.5t36.5 -13q30 0 48 17t28 42t13 53t3 50v47q0 29 -3 58t-14.5 52.5t-33 38t-57.5 14.5z" />
    <glyph glyph-name="r" unicode="r" horiz-adv-x="308" 
d="M142 432q15 16 35.5 26t42.5 10q10 0 25 -3.5t29.5 -10.5t24.5 -16.5t10 -21.5q0 -6 -6 -18t-14 -23.5t-17.5 -20t-16.5 -8.5q-14 0 -17 11t-5 23.5t-6.5 23.5t-21.5 11q-19 0 -32.5 -18t-22 -42.5t-12.5 -49.5t-4 -40v-163q0 -13 1.5 -28t6.5 -26l22 -4t19 -11
q1 -2 2.5 -5.5t1.5 -5.5q0 -10 -6.5 -16.5t-17.5 -6.5q-9 0 -30.5 -0.5t-44 1.5t-39.5 7.5t-17 17.5q0 6 4 12t11 8q5 5 12.5 6t17.5 13v169t-8 169q-4 8 -10.5 13t-14 9t-14 9t-10.5 14l4 4q0 5 6 7.5t13.5 4t15 2t10.5 0.5q23 0 32.5 -1t13.5 -4.5t6.5 -10t12.5 -17.5h8z
" />
    <glyph glyph-name="s" unicode="s" horiz-adv-x="329" 
d="M143 478q18 0 34.5 -6.5t33.5 -6.5q7 0 13.5 2.5t13.5 2.5q9 0 16.5 -11t13 -25.5t8 -29t2.5 -21.5q0 -4 -2 -12l-7 -7q-15 3 -25.5 13.5t-23 21.5t-30.5 20t-48 9q-20 0 -34 -12t-14 -32q0 -23 16.5 -39t41 -30.5t53.5 -29.5t53.5 -35t41 -48t16.5 -68q0 -26 -11 -50.5
t-30 -43t-43 -30t-51 -11.5q-12 0 -24 3.5t-23 8t-23 8.5t-24 4q-9 0 -15.5 -8t-15.5 -8q-10 0 -19 16t-15.5 36.5t-10.5 40.5t-4 28l14 6q12 0 22.5 -11.5t25.5 -26t37.5 -26t59.5 -11.5q35 0 61 19.5t26 56.5q0 29 -16 49t-40 36.5t-52.5 31.5t-52.5 34t-40 44.5t-16 61.5
q0 20 10 36t25.5 27t34.5 17t37 6z" />
    <glyph glyph-name="t" unicode="t" horiz-adv-x="186" 
d="M111 659q9 0 18.5 -2.5t9.5 -13.5q0 -12 -7 -22t-9 -21q-5 -21 -5 -43.5v-44.5v-20.5t2 -20.5q5 -5 13.5 -5.5t15.5 -0.5q8 0 16 -3.5t8 -13.5q0 -20 -9 -24t-19.5 -5.5t-19 -7t-8.5 -27.5v-36v-62.5t0.5 -75t1 -72.5t1.5 -56t3 -25q3 -5 11.5 -8t17 -6.5t15 -9.5
t6.5 -15l-8 -10q-14 -5 -33 -5.5t-34 -0.5q-6 0 -20 0.5t-29 2.5t-26.5 6.5t-11.5 13.5q0 7 5.5 11.5t12.5 7.5t14.5 6t11.5 7q5 27 6 54t1 54v29v45.5t-0.5 54t-1.5 52.5t-2 41.5t-3 22.5q-3 7 -10.5 9t-15.5 3.5t-14.5 5t-6.5 14.5q0 14 7.5 17t16.5 6t16.5 11.5t7.5 32.5
q0 23 -4.5 44t-4.5 44q0 7 7.5 18t17.5 20.5t21 16.5t18 7z" />
    <glyph glyph-name="u" unicode="u" horiz-adv-x="389" 
d="M7 454q4 6 13.5 8.5t20.5 3t21.5 0.5h16.5q14 0 28.5 -2.5t24.5 -13.5l1 -5q0 -8 -11 -26.5t-23.5 -46.5t-23.5 -63t-11 -75q0 -24 2 -55.5t11.5 -60.5t28 -49t51.5 -20q17 0 34.5 11t31.5 27t22.5 35t8.5 36v52t-1 79t-2.5 76t-4.5 43q-3 7 -10 12t-15 9.5t-14 9.5
t-6 12l7 14q9 4 21 4q14 0 32 0.5t36 0t34.5 -4t28.5 -11.5v-19q-19 -9 -33 -19t-14 -34q0 -12 -0.5 -39t-0.5 -61.5t0.5 -72t2 -70t4 -55.5t7.5 -29q14 -5 29.5 -13t15.5 -25q-9 -10 -22 -12.5t-26 -2.5h-38q-12 0 -18.5 3t-9 8.5t-2.5 13t1 17.5q-20 -19 -45 -33t-54 -14
q-47 0 -77 23t-47 58.5t-24 77t-7 78.5q0 24 6 49t13.5 48t13.5 43t6 34q0 12 -5.5 13.5t-12 2.5t-11.5 6t-5 24z" />
    <glyph glyph-name="v" unicode="v" horiz-adv-x="429" 
d="M14 456q20 7 41.5 8t43.5 1q6 0 16.5 -0.5t21.5 -2.5t19 -6.5t8 -13.5q0 -5 -2 -13q-11 -7 -23.5 -13.5t-12.5 -21.5q0 -1 6 -20.5t15.5 -49t20.5 -63.5t21 -65t17.5 -53.5l9.5 -28.5h11q30 62 54 131.5t24 138.5q0 13 -5 20.5t-12.5 13.5t-16 12t-14.5 15q5 11 15 14.5
t22 3.5h53q7 0 17.5 -0.5t21 -3t19.5 -7t12 -11.5q-3 -11 -15.5 -20t-22.5 -7l-8 -7q-5 -14 -7 -30t-4 -31q-4 -31 -12.5 -66.5t-20.5 -71.5t-27 -69t-31 -59q-3 -5 -5.5 -9t-2.5 -9q0 -9 7 -12.5t12 -7.5q15 -3 19 -15v-16q-4 -7 -12 -10t-16 -3q-11 0 -23.5 3.5t-25.5 3.5
q-16 0 -31.5 -1.5t-31.5 -1.5q-11 0 -20.5 4.5t-9.5 17.5q0 9 6 14t13 8.5t13 8t6 12.5q0 4 -7.5 30.5t-19.5 64t-25.5 80t-26 79t-21.5 61.5t-11 28q-5 7 -13.5 9.5t-16.5 5t-13.5 7t-5.5 16.5z" />
    <glyph glyph-name="w" unicode="w" horiz-adv-x="678" 
d="M563 465q8 0 23.5 -0.5t31.5 -2.5t29.5 -6.5t17.5 -12.5v-12q-5 -14 -16 -15t-22 -4l-11 -12q-5 -60 -17 -117.5t-37 -113.5q-12 -29 -27 -58t-22 -60q3 -2 9.5 -3.5t13 -4t11 -6.5t4.5 -9q0 -7 -1.5 -14t-6.5 -12q-11 -4 -25 -4q-8 0 -29.5 0.5t-44 2.5t-40 5t-17.5 9
q0 40 39 32q8 5 8 13l-1 3q0 7 -6.5 29.5t-16 52t-21.5 62.5t-23 63.5t-20.5 54t-13.5 32.5q-3 -10 -11.5 -35t-19.5 -56t-23 -65t-21.5 -62.5l-16 -48t-6.5 -22.5q0 -9 6.5 -14t14.5 -10t14.5 -11.5t6.5 -16.5l-6 -10q-7 -3 -18 -4t-23 -1.5t-23.5 0t-19.5 0.5
q-11 0 -20.5 -0.5t-18.5 0.5t-17 4.5t-16 11.5q0 10 4 15.5t10.5 8.5t14 5t13.5 5q6 8 6 16q0 5 -8 32.5t-20 65.5t-26 80.5t-26.5 79.5t-21.5 61.5t-11 25.5q-5 5 -12.5 6.5t-14.5 3t-11.5 5.5t-4.5 15q0 13 11 16.5t21 3.5h91q10 0 19.5 -3.5t14.5 -12.5q1 -8 -4 -13.5
t-12.5 -10t-15.5 -7.5t-13 -7q0 -16 10 -53.5t23 -80.5t25.5 -83.5t18.5 -61.5q4 6 12 27t18 49.5t20.5 60t19 59.5t14 49t5.5 27q0 4 -2.5 8t-4.5 7q-8 2 -20 6t-12 15q0 21 12.5 23.5t26.5 2.5q7 0 29.5 0.5t46.5 -1t42.5 -6.5t18.5 -16q0 -3 -1 -6.5t-2 -6.5
q-8 -6 -17 -10t-17 -9q-2 -6 -2 -12q0 -10 5.5 -31t14.5 -48.5t20 -57t22 -56.5t20.5 -47.5t15.5 -29.5q33 56 55 124t22 134q0 18 -7 26t-16 12.5t-16 8.5t-7 14q0 7 6.5 11.5t15 6t17 2t13.5 0.5z" />
    <glyph glyph-name="x" unicode="x" horiz-adv-x="454" 
d="M93 475q7 0 26 -0.5t39 -2.5t35.5 -7.5t15.5 -15.5q-4 -8 -8.5 -12t-9.5 -6.5t-10.5 -5t-10.5 -7.5l-1 -6l47 -93l12 -6q10 0 21 11t20 26t14.5 30.5t5.5 24.5q0 13 -5 16t-10.5 5t-10.5 8t-5 24q0 6 5.5 8.5t12.5 4t14 1.5h11q9 0 27 0.5t36 -2t32 -8t14 -17.5
q0 -8 -6 -12.5t-14.5 -8.5t-17 -7t-12.5 -7q-7 -5 -13.5 -18.5t-13.5 -30t-14.5 -32t-15.5 -25.5q-4 -5 -10 -11t-12 -13.5t-10.5 -15t-4.5 -13.5q0 -2 8.5 -17.5t22 -37.5t30.5 -48t33.5 -48.5t30.5 -38.5t22 -19q11 -4 21.5 -8t10.5 -18q0 -7 -6.5 -13.5t-13.5 -6.5
q-11 0 -35.5 -1t-49 0.5t-43.5 7t-19 18.5q0 5 2 9q3 4 8.5 7t11.5 6.5t10.5 7t4.5 7.5t-6.5 16.5t-16.5 28.5t-22 33.5t-22.5 32.5t-19 24.5t-10.5 9.5t-6 -2q-8 -8 -21.5 -27.5t-27 -42t-23 -43t-9.5 -30.5l1 -9q4 -3 10.5 -5t12.5 -5t10 -7.5t4 -11.5q0 -9 -6 -14.5
t-14.5 -8.5t-18 -3.5t-16.5 -0.5q-22 0 -44 1.5t-44 1.5q-7 5 -12 12t-5 15q0 10 7 15.5t17 9.5t19.5 8.5t14.5 11.5q15 22 23.5 47.5t22.5 47.5q15 24 33 43t35 41q7 8 7 17q0 5 -13 28.5t-29.5 50t-31.5 49t-20 26.5q-6 4 -15.5 6t-19 5t-16 8t-6.5 15t6 15t15 7t18.5 1.5
t16.5 -0.5z" />
    <glyph glyph-name="y" unicode="y" horiz-adv-x="440" 
d="M146 465q12 0 23 -6.5t11 -20.5t-9 -16t-19.5 -5t-19.5 -12t-9 -35q0 -37 6 -78t19 -81t32.5 -76t46.5 -63q3 2 10.5 25t17 57t20 74t19 75.5t14 61.5t5.5 33q0 11 -6.5 15.5t-14.5 7.5t-14.5 8t-6.5 16q0 9 8 14t16 5h103q9 0 20.5 -6t11.5 -17q0 -12 -7 -16.5t-16 -7.5
t-18.5 -8.5t-13.5 -20.5q-32 -116 -62 -231.5t-59 -232.5q-8 -32 -14.5 -64t-20.5 -61q-16 -35 -40.5 -48t-61.5 -13q-10 0 -19 3t-18 3q-7 0 -14 -2.5t-14 -2.5q-8 0 -15.5 12t-13.5 27.5t-10 31t-4 22.5t4 15.5t13 8.5q12 0 18.5 -9.5t14.5 -21t21 -21t37 -9.5q31 0 45 26
q7 12 15.5 35t16.5 48t13.5 48.5t5.5 37.5q0 9 -5 17.5t-11.5 16t-14 15t-12.5 14.5q-31 43 -57 92.5t-38 101.5q-3 14 -5 36.5t-4 45.5t-5 43.5t-9 30.5q-3 4 -10 9.5t-14.5 11.5t-13 11t-5.5 10q0 12 18.5 17t42 5.5t46 -1t30.5 -1.5z" />
    <glyph glyph-name="z" unicode="z" horiz-adv-x="325" 
d="M273 471q8 0 15.5 -4.5t7.5 -15.5q0 -30 -16 -66.5t-39.5 -75.5t-51 -77t-51 -70.5t-39.5 -56t-16 -33.5t9 -13t17 -3h62q39 0 57.5 9t28 20t16.5 20t22 9q10 0 15.5 -8.5t5.5 -17.5q0 -8 -4 -22.5t-10.5 -29t-15 -25.5t-17.5 -11h-236q-8 0 -15.5 5.5t-7.5 13.5
q0 38 15.5 76t38 74.5t49.5 70.5t49.5 64t38 55t15.5 43q0 6 -4.5 9t-10.5 4.5t-12.5 2t-10.5 0.5q-37 0 -60 -7.5t-37.5 -17t-22 -17t-13.5 -7.5q-17 0 -17 17q0 42 17.5 65t59.5 23t84 -1.5t84 -1.5z" />
    <glyph glyph-name="braceleft" unicode="{" horiz-adv-x="0" 
d="M202 742q12 0 22 -8.5t10 -21.5q0 -15 -8.5 -20.5t-20.5 -8t-27 -4.5t-27 -8.5t-20.5 -21t-8.5 -41.5q0 -22 3.5 -44t8 -44t8.5 -44.5t4 -45.5q0 -33 -12 -60.5t-39 -49.5q28 -20 39.5 -48t11.5 -62q0 -23 -4 -45t-8.5 -44t-8 -44t-3.5 -44q0 -28 8.5 -42t20.5 -20.5
t27 -8t27 -4t20.5 -8.5t8.5 -21q0 -12 -10 -21t-22 -9q-29 0 -54 7.5t-44 22.5t-29.5 37.5t-10.5 53.5q0 23 3.5 46t8 45.5t8.5 45t4 45.5q0 39 -12 56t-27 25t-27 14t-12 23q0 18 12 24.5t27 14.5t27 24.5t12 55.5q0 23 -4 46t-8.5 45.5t-8 45t-3.5 45.5q0 31 10.5 53.5
t29.5 37.5t44 22.5t54 7.5z" />
    <glyph glyph-name="bar" unicode="|" horiz-adv-x="0" 
d="M107 734q11 0 20.5 -8.5t9.5 -19.5q0 -123 -0.5 -244t-1.5 -244q0 -26 1 -56t2 -60.5t0.5 -60t-4.5 -54.5q-2 -12 -9.5 -20.5t-20.5 -8.5q-14 0 -21.5 10t-7.5 23q0 179 1.5 355.5t1.5 354.5q0 13 7.5 23t21.5 10z" />
    <glyph glyph-name="braceright" unicode="}" horiz-adv-x="0" 
d="M41 742q29 0 54.5 -7.5t44 -22.5t29.5 -37.5t11 -53.5q0 -23 -4 -45.5t-8.5 -45t-8.5 -45.5t-4 -46q0 -39 12 -55.5t27 -24.5t27 -14.5t12 -24.5q0 -17 -12 -23t-27 -14t-27 -25t-12 -56q0 -23 4 -45.5t8.5 -45t8.5 -45.5t4 -46q0 -31 -11 -53.5t-29.5 -37.5t-44 -22.5
t-54.5 -7.5q-12 0 -22 9t-10 21q0 15 8.5 21t21 8.5t27 4t27 8t21 21t8.5 41.5q0 22 -4 44t-8.5 44t-8.5 44t-4 45q0 34 11.5 62t39.5 48q-27 22 -39 49.5t-12 60.5q0 23 4 45.5t8.5 44.5t8.5 44t4 44q0 27 -8.5 41.5t-21 21t-27 8.5t-27 4.5t-21 8t-8.5 20.5q0 13 10 21.5
t22 8.5z" />
    <glyph glyph-name="asciitilde" unicode="~" horiz-adv-x="0" 
d="M399 329q0 -17 -14 -37t-34.5 -37t-43.5 -28.5t-40 -11.5q-27 0 -48.5 16.5t-39 37t-31.5 37t-25 16.5h-4q-13 -7 -23.5 -20t-19.5 -26t-18.5 -23t-19.5 -10q-11 0 -19.5 8.5t-8.5 20.5q0 15 12 34t29 36t36.5 29t34.5 12q25 0 45.5 -17t38 -37.5t34.5 -37.5t35 -17
q15 6 28 19.5t24.5 28t22 25t21.5 10.5q12 0 20 -8t8 -20z" />
    <glyph glyph-name="exclamdown" unicode="&#xa1;" horiz-adv-x="154" 
d="M96 -207q0 -13 -8 -23t-22 -10q-11 0 -20 8.5t-9 19.5v384q0 11 9 19.5t20 8.5q14 0 22 -10t8 -23v-374zM76 399q-18 0 -30.5 12.5t-12.5 30.5q0 14 12.5 26t26.5 12q18 0 29 -12.5t11 -29.5q0 -14 -10.5 -26.5t-25.5 -12.5z" />
    <glyph glyph-name="section" unicode="&#xa7;" horiz-adv-x="329" 
d="M293 85q0 -20 -10 -36t-25.5 -27t-35 -16.5t-37.5 -5.5t-34 6.5t-33 6.5q-8 0 -14 -2.5t-14 -2.5q-9 0 -16.5 11t-12.5 25.5t-8 29t-3 21.5q0 5 2 11l8 8q15 -3 25.5 -14t22.5 -22t30 -20t48 -9q20 0 34.5 12t14.5 33q0 23 -16.5 39t-41.5 30.5t-53.5 29.5t-53.5 35
t-41.5 48t-16.5 68q0 39 23.5 72t58.5 49q-29 21 -46 48.5t-17 64.5q0 20 10 36t25.5 27t35 16.5t37.5 5.5q17 0 33.5 -6.5t33.5 -6.5q8 0 14 2.5t14 2.5q9 0 16.5 -11t12.5 -25.5t8 -29t3 -21.5q0 -5 -2 -11l-8 -8q-15 3 -25.5 14t-22.5 22t-30 20t-48 9q-20 0 -34.5 -12
t-14.5 -33q0 -23 16.5 -39t41.5 -30.5t53.5 -29.5t53.5 -35t41.5 -48t16.5 -68q0 -39 -23.5 -72.5t-58.5 -49.5q29 -21 46 -48t17 -64zM170 419q-18 0 -34.5 -4.5t-30 -13.5t-21.5 -23.5t-8 -34.5q0 -18 7 -32.5t18 -26.5t25 -21.5t28 -18.5q18 0 34.5 4.5t30 13.5
t21.5 23.5t8 34.5q0 18 -7 32.5t-18.5 26.5t-25.5 21.5t-27 18.5z" />
    <glyph glyph-name="dieresis" unicode="&#xa8;" horiz-adv-x="287" 
d="M211 677q21 0 28.5 -16t7.5 -34q0 -17 -8 -31.5t-28 -14.5q-23 0 -30 15t-7 34t7.5 33t29.5 14zM85 677q22 0 29.5 -16t7.5 -34q0 -17 -8.5 -31.5t-28.5 -14.5q-22 0 -29.5 15t-7.5 34t8 33t29 14z" />
    <glyph glyph-name="ordfeminine" unicode="&#xaa;" horiz-adv-x="288" 
d="M143 713q44 0 64 -24t26.5 -59t4.5 -74t-2 -68l1 -24v3q29 -6 29 -32q0 -15 -9 -21.5t-23 -6.5t-35.5 2t-29.5 15q-12 -9 -25.5 -14.5t-28.5 -5.5q-41 0 -65.5 27.5t-24.5 68.5q0 18 8.5 34.5t22.5 28.5v-1q21 18 45.5 29t48.5 24h-1l12 3v-1v7q0 8 -2.5 17t-13.5 9
q-15 0 -18.5 -7.5t-6 -17t-8 -17t-23.5 -7.5q-7 0 -15.5 7.5t-15.5 18t-11.5 21.5t-4.5 17q0 24 10.5 27t30.5 4l10 5l-1 -1q12 5 24.5 9t26.5 4zM101 497q0 -8 3.5 -15.5t13.5 -7.5q23 0 34.5 16.5t11.5 37.5v12t-1 12q-7 -5 -17.5 -10.5t-20.5 -12.5t-17 -14.5t-7 -17.5z
" />
    <glyph glyph-name="guillemotleft" unicode="&#xab;" horiz-adv-x="396" 
d="M183 180q0 4 9 18.5t22.5 33.5t30 40t32 38.5t27.5 29t17 11.5q11 0 19.5 -9t8.5 -20q0 -6 -14 -26t-31.5 -43.5t-34 -44.5t-22.5 -29q6 -8 22.5 -29.5t34 -45.5t31.5 -45t14 -27q0 -11 -8.5 -19.5t-19.5 -8.5q-6 0 -18 11.5t-27.5 29t-32 39t-30 41t-22 34.5t-8.5 21z
M47 179q0 4 9 18.5t22.5 33.5t30 39.5t32 38t27.5 29t17 11.5q11 0 19.5 -9t8.5 -20q0 -6 -14 -26t-31.5 -43.5t-34 -44.5t-22.5 -29q4 -5 13 -16.5t20 -26.5t23.5 -31.5t22.5 -31t16.5 -26t6.5 -15.5q0 -11 -8.5 -19.5t-19.5 -8.5q-6 0 -18 11.5t-27.5 29t-32 39t-30 41
t-22 35t-8.5 21.5z" />
    <glyph glyph-name="uni00AD" unicode="&#xad;" horiz-adv-x="351" 
d="M73 255q-10 0 -18 10t-8 19q0 11 7.5 19t18.5 10q22 4 47 5t51.5 0t52 -2t48.5 -1q12 0 21 -8.5t9 -20.5q0 -13 -9 -20.5t-21 -9.5q-48 -4 -99 -2.5t-100 1.5z" />
    <glyph glyph-name="twosuperior" unicode="&#xb2;" horiz-adv-x="319" 
d="M153 710q59 0 95 -36.5t36 -94.5q0 -27 -9 -50t-24 -42.5t-33.5 -36.5t-37.5 -33q-6 -5 -17.5 -18t-23.5 -27q-14 -17 -30 -36h53t53 2q11 1 17.5 7t12 13t12.5 12.5t19 5.5t20.5 -8.5t8.5 -19.5q0 -6 -4.5 -18t-10.5 -24.5t-12.5 -22.5t-11.5 -13v1q-5 -3 -26 -4.5
t-45.5 -2t-47 -0.5h-30.5h-54q-17 0 -27 6.5t-10 25.5q0 31 13.5 58.5t33.5 51.5t43 46t43 42.5t33.5 40.5t13.5 41q0 23 -10 43.5t-37 20.5q-24 0 -37.5 -11t-22.5 -24.5t-17 -24.5t-22 -11l-10 1q-7 5 -12 12.5t-5 16.5q0 22 11 42t28.5 35.5t38.5 24.5t42 9z" />
    <glyph glyph-name="threesuperior" unicode="&#xb3;" horiz-adv-x="325" 
d="M113 710l138 -1q14 0 23 -4.5t9 -21.5q0 -7 -13 -26.5t-29.5 -41t-30.5 -39.5t-17 -22q27 -3 47.5 -14.5t35 -29.5t22 -41t7.5 -48q0 -72 -36.5 -116t-111.5 -44q-28 0 -53 8.5t-43.5 25t-29.5 40t-11 53.5q0 12 9 21.5t21 9.5q19 0 25 -13.5t13 -30t20.5 -30t47.5 -13.5
q21 0 34.5 8t22 21t11.5 30.5t3 35.5q0 28 -17 46.5t-46 18.5q-14 0 -27 -6t-27 -6q-25 0 -25 25q0 12 14.5 33t32.5 42t32.5 38t14.5 21h-19q-17 0 -27 -5t-16.5 -11.5t-13 -11.5t-16.5 -5q-12 0 -20.5 9t-8.5 21q0 8 5.5 20.5t13.5 24.5t17.5 20.5t18.5 8.5z" />
    <glyph glyph-name="acute" unicode="&#xb4;" horiz-adv-x="287" 
d="M151 567q-11 0 -19.5 8t-8.5 20q0 8 19.5 28t45 41t48.5 37t31 16q11 0 19 -8t8 -20q0 -10 -17 -27.5t-38.5 -35.5t-42.5 -33t-28 -21q2 2 5 3.5t5 3.5q-7 -4 -13 -8t-14 -4z" />
    <glyph glyph-name="paragraph" unicode="&#xb6;" horiz-adv-x="452" 
d="M314 718q7 0 26 -0.5t38.5 -2.5t34.5 -7t15 -15t-7.5 -14.5t-17 -8t-17 -8.5t-7.5 -16q0 -137 1.5 -272.5t1.5 -272.5q0 -28 7.5 -38t16 -13.5t16 -6t7.5 -15.5q0 -11 -9.5 -16.5t-22.5 -8t-25.5 -3t-19.5 -0.5q-8 0 -21.5 -0.5t-26.5 2t-22 8.5t-9 18t7.5 16.5t17 8.5
t17 11.5t7.5 26.5q0 135 -2 268t-2 268q0 27 -18.5 38t-41 10.5t-41 -9t-18.5 -20.5q0 -137 1.5 -272.5t1.5 -272.5q0 -28 7.5 -38t16.5 -13.5t16.5 -6t7.5 -15.5q0 -11 -9.5 -16.5t-22.5 -8t-25.5 -3t-19.5 -0.5q-9 0 -22.5 -0.5t-26 2t-22 8.5t-9.5 18t7.5 16.5t17 8.5
t17 11.5t7.5 26.5v150q-39 13 -62 43.5t-35.5 69.5t-16 82t-3.5 81q0 29 2.5 64t15 65t39.5 50t77 20q12 0 32.5 0.5t43 0.5t44 0.5t35.5 0.5z" />
    <glyph glyph-name="periodcentered" unicode="&#xb7;" horiz-adv-x="98" 
d="M46 275q17 0 29.5 -12.5t12.5 -30.5q0 -14 -12.5 -26t-26.5 -12q-17 0 -28.5 12.5t-11.5 29.5q0 14 11 26.5t26 12.5z" />
    <glyph glyph-name="cedilla" unicode="&#xb8;" horiz-adv-x="287" 
d="M68 -81q0 12 6 33t16 41.5t22.5 35t26.5 14.5q13 0 17.5 -8.5t4.5 -19.5q0 -17 -9.5 -33.5t-14.5 -33.5q19 -1 38 -9t34.5 -20.5t25.5 -30t10 -38.5q0 -24 -15 -44t-36.5 -34.5t-47 -22t-46.5 -7.5q-11 0 -20.5 9t-9.5 20q0 12 13 19.5t31 14t36 12t28 13.5q2 5 5 10
t3 11l-3 10l-7 11q-11 7 -29 10t-35.5 6.5t-30.5 9.5t-13 21z" />
    <glyph glyph-name="onesuperior" unicode="&#xb9;" horiz-adv-x="135" 
d="M81 445q10 0 16 -13t9 -33t3.5 -44.5t-0.5 -47.5t-2 -41.5t-1 -26.5q0 -20 -1 -42t-1.5 -45t0.5 -45t5 -41q12 -2 22.5 -10.5t10.5 -22.5q0 -13 -4 -18t-10 -7t-12.5 -2.5t-12.5 -4.5l-69 1q-11 5 -18 11.5t-7 20.5q0 16 7.5 21.5t19.5 11.5l2 -1v269q-8 -3 -16 -3
q-14 0 -23.5 8.5t-9.5 22.5l8 15l15 11h-1q7 4 17 13.5l20 19t19 16.5t14 7z" />
    <glyph glyph-name="ordmasculine" unicode="&#xba;" horiz-adv-x="275" 
d="M134 708q31 0 52.5 -12.5t35 -32.5t19 -46.5t5.5 -53.5q0 -26 -4.5 -54.5t-16.5 -53.5t-32.5 -41t-52.5 -16q-38 0 -60 17t-33.5 43t-15 58t-3.5 61q0 24 6.5 47.5t19.5 42t33 30t47 11.5zM101 571q0 -10 0.5 -27.5t4 -34.5t11.5 -29.5t23 -12.5q8 0 13.5 7.5t9 17.5
t5 20.5t1.5 16.5v49q0 9 -1.5 20t-5.5 20t-11.5 15t-19.5 6q-7 0 -13 -9t-9 -14h1q-6 -11 -7.5 -22t-1.5 -23z" />
    <glyph glyph-name="guillemotright" unicode="&#xbb;" horiz-adv-x="396" 
d="M211 2q-11 0 -19.5 8.5t-8.5 19.5q0 4 6.5 15.5t16.5 26t22.5 31t23.5 31.5t20 26.5t13 16.5q-6 8 -22.5 29t-34 44.5t-31.5 43.5t-14 26q0 11 8.5 20t19.5 9q5 0 17 -11.5t27.5 -29t32 -38t30 -39.5t22.5 -33.5t9 -18.5q0 -6 -8.5 -21.5t-22 -35t-30 -41t-32 -39
t-28 -29t-17.5 -11.5zM75 4q-11 0 -19.5 8.5t-8.5 19.5q0 6 14 27t31.5 45t34 45.5t22.5 29.5q-6 8 -22.5 29t-34 44.5t-31.5 43.5t-14 26q0 11 8.5 20t19.5 9q5 0 17 -11.5t27.5 -29t32 -38.5t30 -40t22.5 -33.5t9 -18.5q0 -6 -8.5 -21t-22 -34.5t-30 -41t-32 -39t-28 -29
t-17.5 -11.5z" />
    <glyph glyph-name="onequarter" unicode="&#xbc;" horiz-adv-x="588" 
d="M108 713q11 0 17 -13t9 -33t3.5 -44t-0.5 -47t-2 -41.5t-1 -26.5v-35.5v-54t1 -53t3 -31.5q13 -3 22 -10.5t9 -21.5q0 -13 -4 -18t-10 -7t-12.5 -2.5t-12.5 -4.5q-17 1 -34 1h-34q-11 5 -18 11.5t-7 20.5q0 16 7 21.5t20 11.5l2 -4v272q-8 -3 -17 -3q-14 0 -23.5 8.5
t-9.5 22.5l9 15q5 3 18 14t27 22.5t25 20.5t13 9zM158 1q-17 0 -25.5 13t-8.5 28q0 3 9.5 31.5t24.5 73t34.5 101t40.5 115t41 115t36 101.5t27 73.5t13 32.5q5 11 12.5 19.5t22.5 8.5q11 0 21.5 -8.5t10.5 -20.5q0 -8 -14.5 -53t-37 -110t-49 -141t-51.5 -146.5t-45 -126.5
t-28 -81q-4 -11 -13.5 -18t-20.5 -7zM466 442q10 0 21 -0.5t20.5 -3.5t16 -10t6.5 -20q0 -14 -8.5 -20.5t-19.5 -10.5h1l-2 -1q1 -13 2 -43.5t2 -63.5t0.5 -61t-3.5 -35l6 7h-1q5 10 12 16t19 6q14 0 20.5 -10t8 -24t0.5 -29t-1 -25q0 -16 -5 -26.5t-23 -10.5
q-13 0 -18.5 5.5t-10.5 16.5v-1l-4.5 4.5l-4.5 4.5q1 -2 2 -5t1 -5v-23t1 -23l4 3h-1q11 -3 19 -7.5t8 -18.5q0 -13 -5.5 -19.5t-14.5 -9.5t-19.5 -3.5t-19.5 -0.5h-20.5t-24.5 2.5t-20.5 9t-8.5 18.5q0 14 6 20t19 11l-1 -1l6 2l1 34l-1 15q-30 4 -61 1.5t-61 -2.5
q-15 0 -31 8q-7 13 -7 29q0 8 9 27.5t22.5 44.5t30.5 52.5t32 51.5t26.5 42.5t15.5 24.5q-15 7 -15 24q0 15 8 22t19.5 9.5t24.5 2t22 -0.5zM428 173q2 0 5 -0.5t3 -2.5q0 -4 -5 -4q-3 0 -3 5v2zM430 300l-38 -64l-38 -64q6 -1 12 -1h11q13 0 25.5 1t25.5 1q1 1 1.5 12.5
t0.5 13.5v101z" />
    <glyph glyph-name="onehalf" unicode="&#xbd;" horiz-adv-x="626" 
d="M111 708q16 0 22 -27.5t7 -63t-1 -69t-2 -45.5q0 -20 -1 -42.5t-2 -45.5t0 -45t6 -41q12 -2 22 -10.5t10 -22.5q0 -13 -4 -18t-10 -6.5t-12.5 -2.5t-12.5 -5l-68 1q-12 6 -19 12t-7 20q0 16 7.5 21.5t19.5 12.5l2 -5v272q-8 -2 -16 -2q-14 0 -23.5 8t-9.5 22l9 15l15 11
h-1q7 4 17 13.5l20 19t18.5 16.5t13.5 7zM160 1q-17 0 -25.5 13t-8.5 28q0 2 5.5 19.5t14 42.5t18.5 54.5t19 56.5t16 47t10 27q8 22 17.5 56t20.5 73t22 79.5t22 77t21 65.5t18 44q5 11 12.5 19.5t22.5 8.5q11 0 21.5 -8.5t10.5 -20.5q0 -15 -12.5 -62t-32 -111
t-43.5 -137.5t-46.5 -141.5t-41 -123t-27.5 -82q-4 -11 -13.5 -18t-20.5 -7zM465 446q58 0 94.5 -36t36.5 -95q0 -45 -20 -74.5t-47 -52.5t-55 -45t-43 -52q-2 -4 -4.5 -10t-5.5 -8h52.5t52.5 2q11 1 17 7t12 13t13 12.5t19 5.5q11 0 20 -8.5t9 -19.5q0 -6 -4.5 -18
t-10.5 -24.5t-12.5 -22.5t-11.5 -13t-25 -4t-43.5 -1.5t-44.5 -0.5h-28h-62q-17 0 -27.5 6.5t-10.5 25.5q0 31 13.5 58t33.5 51t43.5 45.5t43.5 42t33.5 41t13.5 42.5q0 24 -10 44t-39 20q-24 0 -36.5 -11t-21 -24.5t-16.5 -24.5t-23 -11l-9 1q-17 10 -17 29q0 22 11 42
t28 35t38.5 24t42.5 9z" />
    <glyph glyph-name="threequarters" unicode="&#xbe;" horiz-adv-x="690" 
d="M259 1q-17 0 -25 13t-8 28q0 3 9.5 31.5t24.5 73t34.5 101t40 115t40.5 115t36.5 101.5t27 73.5t12.5 32.5q6 11 13 19.5t22 8.5q11 0 22 -8.5t11 -20.5q0 -8 -14.5 -53t-37 -110t-49 -141t-51.5 -146.5t-45 -126.5t-28 -81q-4 -11 -13.5 -18t-21.5 -7zM568 442
q10 0 21 -0.5t20.5 -3.5t16 -10t6.5 -20q0 -14 -9 -20.5t-20 -10.5h1l-2 -1q1 -13 2.5 -43.5t2.5 -63.5t0 -61t-4 -35l7 7h-1q10 22 30 22q14 0 20.5 -10t8.5 -24t1 -29t-1 -25q0 -16 -5 -26.5t-24 -10.5q-13 0 -18 5.5t-10 16.5v-1l-4.5 4.5t-5.5 4.5q1 -2 2 -5t2 -5
q0 -11 -0.5 -23t1.5 -23l4 3h-1q11 -3 19 -7.5t8 -18.5q0 -13 -6 -19.5t-14.5 -9.5t-19 -3.5t-19.5 -0.5h-20.5t-24.5 2.5t-20.5 9t-8.5 18.5q0 14 6 20t18 11l-1 -1l7 2l1 34l-1 15q-30 4 -61.5 1.5t-61.5 -2.5q-16 0 -30 8q-8 12 -8 29q0 8 9 27.5t23 44.5t30.5 52.5
t31.5 51.5t26.5 42.5t15.5 24.5q-14 8 -14 24q0 15 8 22t19.5 9.5t24 2t22.5 -0.5zM530 173q2 0 5 -0.5t3 -2.5q0 -4 -5 -4q-3 0 -3 5v2zM532 300q-20 -32 -38.5 -64t-37.5 -64q6 -1 11.5 -1h11.5q13 0 25.5 1t25.5 1q1 1 1.5 12.5t0.5 13.5v101zM116 710l138 -1
q14 0 23 -4.5t9 -21.5q0 -7 -13 -26.5t-29.5 -41t-30.5 -39.5t-17 -22q27 -3 47.5 -14.5t35 -29.5t22 -41t7.5 -48q0 -72 -36.5 -116t-111.5 -44q-28 0 -53 8.5t-43.5 25t-29.5 40t-11 53.5q0 12 9 21.5t21 9.5q13 0 19.5 -6.5t10.5 -16t7.5 -21t11 -21t21 -16t36.5 -6.5
q21 0 34.5 8t22 21t11.5 30.5t3 35.5q0 28 -17 46.5t-46 18.5q-14 0 -27 -6t-27 -6q-25 0 -25 25q0 12 14.5 33t32 42t32 38t14.5 21h-19q-17 0 -26.5 -5t-16.5 -11.5t-13 -11.5t-16 -5q-12 0 -20.5 9t-8.5 21q0 8 5.5 20.5t13.5 24.5t17.5 20.5t18.5 8.5z" />
    <glyph glyph-name="questiondown" unicode="&#xbf;" horiz-adv-x="454" 
d="M344 -74q0 -24 -11 -44t-29 -34t-40.5 -21.5t-44.5 -7.5q-23 0 -44 8.5t-36.5 23.5t-24.5 35.5t-9 44.5q0 27 14.5 48t36.5 39t48 35t48 36.5t36.5 44t14.5 56.5q0 37 -24.5 62.5t-61.5 25.5q-18 0 -35 -7t-30 -19.5t-21 -28.5t-8 -34q0 -11 8.5 -20.5t20.5 -9.5
q17 0 22 9t8 20.5t9.5 20.5t26.5 9h5.5t6.5 -1q6 -5 11 -11.5t5 -14.5q0 -20 -14.5 -37.5t-37 -35t-48 -36.5t-48 -40.5t-37 -48t-14.5 -59.5q0 -38 13.5 -69.5t37.5 -54.5t56 -35.5t70 -12.5q36 0 68.5 12.5t57 35t39.5 54t15 68.5q0 12 -4.5 30.5t-13 35t-21 28.5
t-27.5 12q-11 0 -19 -8.5t-8 -20.5q0 -9 5 -16.5t11.5 -16.5t11.5 -21t5 -29zM234 385q-18 0 -30.5 12.5t-12.5 29.5q0 14 12.5 26t26.5 12q17 0 28.5 -12t11.5 -29q0 -14 -10.5 -26.5t-25.5 -12.5z" />
    <glyph glyph-name="Agrave" unicode="&#xc0;" horiz-adv-x="599" 
d="M169 723q75 0 150 -2t150 -2q11 0 20 -3t9 -17q0 -15 -9 -19.5t-20.5 -7.5t-20.5 -8t-9 -20q0 -8 3.5 -37t9.5 -71.5t13.5 -93.5t15.5 -103.5t15.5 -102t14 -88t10.5 -62.5t5 -25q6 -8 16.5 -10l21 -4t18.5 -6.5t8 -15.5q0 -16 -13 -18.5t-24 -2.5h-107q-9 0 -22.5 2.5
t-13.5 15.5q0 11 10 16q6 8 16 11.5t18 11.5l1 8q0 10 -3.5 19t-5.5 18t-5 35t-7 60t-9 70.5t-9 67.5t-8 52t-7 23q-2 1 -27 3t-57 3t-61.5 2t-40.5 1h-10t-9 -1q-4 -1 -10 -24.5t-13.5 -59t-15 -77.5t-13.5 -80.5t-10 -68.5t-4 -40q0 -13 8.5 -19t18.5 -9.5t18.5 -8
t8.5 -14.5q0 -8 -5 -12t-12.5 -5.5t-15 -2t-12.5 -0.5q-11 0 -32.5 -1t-43 0.5t-38 7t-16.5 19.5q0 10 8 13.5t19 6.5t21.5 9t16.5 20l4 24.5t11 64t15 90t17 103.5t17 104.5t14.5 92t10.5 66.5t4 29q0 13 -8 17.5t-17 7.5t-17 7t-8 15q0 9 6 14t14 7.5t17 3.5t15 1z
M201 496q0 -7 2 -17q17 -7 36 -7q35 0 69.5 1.5t69.5 1.5q7 0 11 6.5t4 12.5q0 35 -8 77.5t-15 78.5q-1 7 -9 10.5t-18.5 5t-20.5 1.5h-15q-14 0 -31 0.5t-31 -2.5q-9 -2 -17 -25.5t-14 -52t-9.5 -55.5t-3.5 -36zM355 757q-8 0 -14 4l-12 8q3 -3 9 -7q-8 6 -28.5 21t-42 33
t-38.5 35.5t-17 27.5q0 12 8 20t19 8q5 0 17.5 -7.5t28.5 -19t33.5 -26t31.5 -28t23.5 -25t9.5 -16.5q0 -12 -8.5 -20t-19.5 -8z" />
    <glyph glyph-name="Aacute" unicode="&#xc1;" horiz-adv-x="599" 
d="M169 723q75 0 150 -2t150 -2q11 0 20 -3t9 -17q0 -15 -9 -19.5t-20.5 -7.5t-20.5 -8t-9 -20q0 -8 3.5 -37t9.5 -71.5t13.5 -93.5t15.5 -103.5t15.5 -102t14 -88t10.5 -62.5t5 -25q6 -8 16.5 -10l21 -4t18.5 -6.5t8 -15.5q0 -16 -13 -18.5t-24 -2.5h-107q-9 0 -22.5 2.5
t-13.5 15.5q0 11 10 16q6 8 16 11.5t18 11.5l1 8q0 10 -3.5 19t-5.5 18t-5 35t-7 60t-9 70.5t-9 67.5t-8 52t-7 23q-2 1 -27 3t-57 3t-61.5 2t-40.5 1h-10t-9 -1q-4 -1 -10 -24.5t-13.5 -59t-15 -77.5t-13.5 -80.5t-10 -68.5t-4 -40q0 -13 8.5 -19t18.5 -9.5t18.5 -8
t8.5 -14.5q0 -8 -5 -12t-12.5 -5.5t-15 -2t-12.5 -0.5q-11 0 -32.5 -1t-43 0.5t-38 7t-16.5 19.5q0 10 8 13.5t19 6.5t21.5 9t16.5 20l4 24.5t11 64t15 90t17 103.5t17 104.5t14.5 92t10.5 66.5t4 29q0 13 -8 17.5t-17 7.5t-17 7t-8 15q0 9 6 14t14 7.5t17 3.5t15 1z
M201 496q0 -7 2 -17q17 -7 36 -7q35 0 69.5 1.5t69.5 1.5q7 0 11 6.5t4 12.5q0 35 -8 77.5t-15 78.5q-1 7 -9 10.5t-18.5 5t-20.5 1.5h-15q-14 0 -31 0.5t-31 -2.5q-9 -2 -17 -25.5t-14 -52t-9.5 -55.5t-3.5 -36zM244 757q-11 0 -19 8t-8 20q0 8 19.5 28t44.5 41t48 37
t31 16q11 0 19.5 -8t8.5 -20q0 -10 -17 -27.5t-39 -35.5t-43 -33t-28 -21q2 2 5 3.5t5 3.5q-7 -4 -12.5 -8t-14.5 -4z" />
    <glyph glyph-name="Acircumflex" unicode="&#xc2;" horiz-adv-x="599" 
d="M169 723q75 0 150 -2t150 -2q11 0 20 -3t9 -17q0 -15 -9 -19.5t-20.5 -7.5t-20.5 -8t-9 -20q0 -8 3.5 -37t9.5 -71.5t13.5 -93.5t15.5 -103.5t15.5 -102t14 -88t10.5 -62.5t5 -25q6 -8 16.5 -10l21 -4t18.5 -6.5t8 -15.5q0 -16 -13 -18.5t-24 -2.5h-107q-9 0 -22.5 2.5
t-13.5 15.5q0 11 10 16q6 8 16 11.5t18 11.5l1 8q0 10 -3.5 19t-5.5 18t-5 35t-7 60t-9 70.5t-9 67.5t-8 52t-7 23q-2 1 -27 3t-57 3t-61.5 2t-40.5 1h-10t-9 -1q-4 -1 -10 -24.5t-13.5 -59t-15 -77.5t-13.5 -80.5t-10 -68.5t-4 -40q0 -13 8.5 -19t18.5 -9.5t18.5 -8
t8.5 -14.5q0 -8 -5 -12t-12.5 -5.5t-15 -2t-12.5 -0.5q-11 0 -32.5 -1t-43 0.5t-38 7t-16.5 19.5q0 10 8 13.5t19 6.5t21.5 9t16.5 20l4 24.5t11 64t15 90t17 103.5t17 104.5t14.5 92t10.5 66.5t4 29q0 13 -8 17.5t-17 7.5t-17 7t-8 15q0 9 6 14t14 7.5t17 3.5t15 1z
M201 496q0 -7 2 -17q17 -7 36 -7q35 0 69.5 1.5t69.5 1.5q7 0 11 6.5t4 12.5q0 35 -8 77.5t-15 78.5q-1 7 -9 10.5t-18.5 5t-20.5 1.5h-15q-14 0 -31 0.5t-31 -2.5q-9 -2 -17 -25.5t-14 -52t-9.5 -55.5t-3.5 -36zM307 897q6 0 26.5 -13.5t42.5 -31t39 -34.5t17 -24
q0 -11 -8.5 -19t-19.5 -8q-6 0 -20 9t-29.5 20t-30 22t-20.5 15q-6 -5 -22 -16.5t-33.5 -24t-33 -22t-20.5 -9.5q-11 0 -20 7.5t-9 19.5q0 8 18.5 26t43 36.5t47.5 32.5t32 14z" />
    <glyph glyph-name="Atilde" unicode="&#xc3;" horiz-adv-x="599" 
d="M169 723q75 0 150 -2t150 -2q11 0 20 -3t9 -17q0 -15 -9 -19.5t-20.5 -7.5t-20.5 -8t-9 -20q0 -8 3.5 -37t9.5 -71.5t13.5 -93.5t15.5 -103.5t15.5 -102t14 -88t10.5 -62.5t5 -25q6 -8 16.5 -10l21 -4t18.5 -6.5t8 -15.5q0 -16 -13 -18.5t-24 -2.5h-107q-9 0 -22.5 2.5
t-13.5 15.5q0 11 10 16q6 8 16 11.5t18 11.5l1 8q0 10 -3.5 19t-5.5 18t-5 35t-7 60t-9 70.5t-9 67.5t-8 52t-7 23q-2 1 -27 3t-57 3t-61.5 2t-40.5 1h-10t-9 -1q-4 -1 -10 -24.5t-13.5 -59t-15 -77.5t-13.5 -80.5t-10 -68.5t-4 -40q0 -13 8.5 -19t18.5 -9.5t18.5 -8
t8.5 -14.5q0 -8 -5 -12t-12.5 -5.5t-15 -2t-12.5 -0.5q-11 0 -32.5 -1t-43 0.5t-38 7t-16.5 19.5q0 10 8 13.5t19 6.5t21.5 9t16.5 20l4 24.5t11 64t15 90t17 103.5t17 104.5t14.5 92t10.5 66.5t4 29q0 13 -8 17.5t-17 7.5t-17 7t-8 15q0 9 6 14t14 7.5t17 3.5t15 1z
M201 496q0 -7 2 -17q17 -7 36 -7q35 0 69.5 1.5t69.5 1.5q7 0 11 6.5t4 12.5q0 35 -8 77.5t-15 78.5q-1 7 -9 10.5t-18.5 5t-20.5 1.5h-15q-14 0 -31 0.5t-31 -2.5q-9 -2 -17 -25.5t-14 -52t-9.5 -55.5t-3.5 -36zM171 762q-11 0 -19.5 8t-8.5 20q0 3 1 7t2 7q10 12 21 25
t24 23.5t28 17t32 6.5q20 0 36.5 -8.5t31.5 -18t28 -18t25 -8.5h3q9 6 14.5 15.5t10.5 18.5t12 16t19 7q11 0 19.5 -8.5t8.5 -19.5q0 -14 -8 -29.5t-20.5 -28.5t-27.5 -21.5t-29 -8.5q-18 0 -34 8t-31 17.5t-29.5 17.5t-29.5 8t-24.5 -8.5t-17.5 -18t-16 -18t-21 -8.5z" />
    <glyph glyph-name="Adieresis" unicode="&#xc4;" horiz-adv-x="599" 
d="M169 723q75 0 150 -2t150 -2q11 0 20 -3t9 -17q0 -15 -9 -19.5t-20.5 -7.5t-20.5 -8t-9 -20q0 -8 3.5 -37t9.5 -71.5t13.5 -93.5t15.5 -103.5t15.5 -102t14 -88t10.5 -62.5t5 -25q6 -8 16.5 -10l21 -4t18.5 -6.5t8 -15.5q0 -16 -13 -18.5t-24 -2.5h-107q-9 0 -22.5 2.5
t-13.5 15.5q0 11 10 16q6 8 16 11.5t18 11.5l1 8q0 10 -3.5 19t-5.5 18t-5 35t-7 60t-9 70.5t-9 67.5t-8 52t-7 23q-2 1 -27 3t-57 3t-61.5 2t-40.5 1h-10t-9 -1q-4 -1 -10 -24.5t-13.5 -59t-15 -77.5t-13.5 -80.5t-10 -68.5t-4 -40q0 -13 8.5 -19t18.5 -9.5t18.5 -8
t8.5 -14.5q0 -8 -5 -12t-12.5 -5.5t-15 -2t-12.5 -0.5q-11 0 -32.5 -1t-43 0.5t-38 7t-16.5 19.5q0 10 8 13.5t19 6.5t21.5 9t16.5 20l4 24.5t11 64t15 90t17 103.5t17 104.5t14.5 92t10.5 66.5t4 29q0 13 -8 17.5t-17 7.5t-17 7t-8 15q0 9 6 14t14 7.5t17 3.5t15 1z
M201 496q0 -7 2 -17q17 -7 36 -7q35 0 69.5 1.5t69.5 1.5q7 0 11 6.5t4 12.5q0 35 -8 77.5t-15 78.5q-1 7 -9 10.5t-18.5 5t-20.5 1.5h-15q-14 0 -31 0.5t-31 -2.5q-9 -2 -17 -25.5t-14 -52t-9.5 -55.5t-3.5 -36zM363 867q21 0 28.5 -16t7.5 -34q0 -17 -8 -31.5t-28 -14.5
q-23 0 -30 15t-7 34t7.5 33t29.5 14zM237 867q22 0 29.5 -16t7.5 -34q0 -17 -8.5 -31.5t-28.5 -14.5q-22 0 -29.5 15t-7.5 34t8 33t29 14z" />
    <glyph glyph-name="Aring" unicode="&#xc5;" horiz-adv-x="599" 
d="M169 723q75 0 150 -2t150 -2q11 0 20 -3t9 -17q0 -15 -9 -19.5t-20.5 -7.5t-20.5 -8t-9 -20q0 -8 3.5 -37t9.5 -71.5t13.5 -93.5t15.5 -103.5t15.5 -102t14 -88t10.5 -62.5t5 -25q6 -8 16.5 -10l21 -4t18.5 -6.5t8 -15.5q0 -16 -13 -18.5t-24 -2.5h-107q-9 0 -22.5 2.5
t-13.5 15.5q0 11 10 16q6 8 16 11.5t18 11.5l1 8q0 10 -3.5 19t-5.5 18t-5 35t-7 60t-9 70.5t-9 67.5t-8 52t-7 23q-2 1 -27 3t-57 3t-61.5 2t-40.5 1h-10t-9 -1q-4 -1 -10 -24.5t-13.5 -59t-15 -77.5t-13.5 -80.5t-10 -68.5t-4 -40q0 -13 8.5 -19t18.5 -9.5t18.5 -8
t8.5 -14.5q0 -8 -5 -12t-12.5 -5.5t-15 -2t-12.5 -0.5q-11 0 -32.5 -1t-43 0.5t-38 7t-16.5 19.5q0 10 8 13.5t19 6.5t21.5 9t16.5 20l4 24.5t11 64t15 90t17 103.5t17 104.5t14.5 92t10.5 66.5t4 29q0 13 -8 17.5t-17 7.5t-17 7t-8 15q0 9 6 14t14 7.5t17 3.5t15 1z
M201 496q0 -7 2 -17q17 -7 36 -7q35 0 69.5 1.5t69.5 1.5q7 0 11 6.5t4 12.5q0 35 -8 77.5t-15 78.5q-1 7 -9 10.5t-18.5 5t-20.5 1.5h-15q-14 0 -31 0.5t-31 -2.5q-9 -2 -17 -25.5t-14 -52t-9.5 -55.5t-3.5 -36zM278 825q0 -9 4.5 -22.5t15.5 -13.5h6q18 11 18 33
q0 10 -6.5 25t-18.5 15q-5 0 -9 -4.5t-6 -10.5t-3 -12.5t-1 -9.5zM219 829q0 16 6 32.5t16.5 29.5t24.5 21.5t31 8.5q18 0 33.5 -9t26.5 -22.5t17 -31t6 -33.5q0 -18 -5.5 -35t-15.5 -30t-25 -21t-34 -8q-20 0 -35 8.5t-25.5 22.5t-15.5 31.5t-5 35.5z" />
    <glyph glyph-name="AE" unicode="&#xc6;" horiz-adv-x="803" 
d="M704 723q10 0 18.5 -12.5t14.5 -29t9.5 -33t3.5 -24.5t-5.5 -14t-13.5 -6q-13 0 -19.5 10t-16 22t-27 22t-52.5 10q-8 0 -33.5 0.5t-52.5 -0.5t-48.5 -4.5t-21.5 -10.5q-3 -8 -4.5 -28.5t-2.5 -44.5t-1 -46.5v-32.5q0 -15 14 -21.5t32.5 -7.5t38 0.5t31.5 1.5
q11 0 35.5 -0.5t50 0t47 3.5t26.5 10q6 10 10.5 20t12.5 18l7 1q12 0 18.5 -12t8.5 -28t2 -32v-25q0 -7 -0.5 -18t-3 -21.5t-8.5 -18.5t-16 -8q-3 0 -6 1l-6 2q-9 9 -13.5 20.5t-13.5 21.5q-8 8 -30 10.5t-47.5 2.5t-49.5 -1.5t-36 -1.5q-15 0 -29 3.5t-29 3.5
q-17 0 -26.5 -3.5t-14.5 -10t-6 -17.5t-1 -26q0 -60 3 -120t3 -120q0 -14 -2.5 -27.5t-2.5 -27.5l1 -13q8 -1 14 -1h14q18 0 48 -0.5t61 0t58.5 3.5t41.5 11q6 3 15 12l18.5 18.5t17.5 17t13 7.5q9 0 17 -6t8 -16q0 -6 -7.5 -23t-18 -35.5t-21 -32.5t-16.5 -14h-91
q-10 0 -13.5 3t-13.5 3q-18 0 -36.5 -2t-36.5 -2h-153q-5 0 -12 0.5t-14 3t-11.5 6.5t-4.5 11q8 19 17 24.5t17 9t13 11.5t5 34l-1 314q-42 0 -82.5 3t-82.5 3q-5 0 -10 0.5t-9 -1.5q-6 -2 -8 -6t-4 -9q-3 -9 -7.5 -35t-10.5 -60t-12.5 -72t-11.5 -72.5t-8.5 -60.5t-3.5 -35
q0 -13 8.5 -19t18.5 -9.5t18.5 -8t8.5 -14.5q0 -8 -5 -12t-12.5 -5.5t-15 -2t-12.5 -0.5q-11 0 -32.5 -1t-43 0.5t-38 7t-16.5 19.5q0 10 8 14t19 7t22 8.5t16 19.5q1 1 5 26t10.5 64.5t15 89.5t17 103t17 103.5t14.5 91t10 67t4 29.5q0 13 -8 17.5t-17 7.5t-17 7t-8 15
q0 9 6 14t14 7.5t17 3.5t15 1h535zM201 496q0 -7 2 -17q17 -7 36 -7h71t71 1q1 28 2 55.5t1 55.5q0 20 -1 40t-7 40l-2 2q-14 1 -28 1h-28q-17 0 -36.5 1t-36.5 -3q-9 -2 -17 -25t-14 -52t-9.5 -56t-3.5 -36z" />
    <glyph glyph-name="Ccedilla" unicode="&#xc7;" horiz-adv-x="507" 
d="M292 728q15 0 29 -4t28 -8.5t28 -8.5t28 -4q11 0 19 7.5t19 7.5q8 0 17.5 -19t18 -43t14 -46.5t5.5 -28.5q0 -10 -7.5 -15.5t-16.5 -5.5q-15 0 -26 17t-28 38t-46 38t-80 17q-53 0 -91.5 -25.5t-64 -65t-38 -87.5t-12.5 -93q0 -52 5 -111.5t25 -110.5t59.5 -84.5
t108.5 -33.5q48 0 79.5 19t52 41.5t33 42t22.5 19.5q19 -3 19 -22q0 -35 -22 -65t-54.5 -52t-70 -34.5t-68.5 -12.5q-56 0 -97.5 17.5t-71.5 48t-49 70.5t-30 84.5t-15.5 92t-4.5 91.5q0 61 19 120.5t55.5 105.5t89 74.5t119.5 28.5zM161 -81q0 12 6 33t15.5 41.5t22 35
t26.5 14.5q13 0 18 -8.5t5 -19.5q0 -17 -10 -33.5t-15 -33.5q19 -1 38 -9t34.5 -20.5t25.5 -30t10 -38.5q0 -24 -15 -44t-36.5 -34.5t-47 -22t-46.5 -7.5q-11 0 -20.5 9t-9.5 20q0 12 13 19.5t31 14t36 12t28 13.5q3 5 5.5 10t2.5 11l-3 10l-7 11q-11 7 -29 10t-35.5 6.5
t-30 9.5t-12.5 21z" />
    <glyph glyph-name="Egrave" unicode="&#xc8;" horiz-adv-x="532" 
d="M182 712q66 0 129.5 3t129.5 3q10 0 18 -12.5t14 -29t9.5 -33t3.5 -24.5t-5.5 -14t-13.5 -6q-9 0 -16 7.5t-13.5 17t-14 18.5t-16.5 12q-19 6 -39.5 7t-39.5 1q-44 0 -86.5 -2t-86.5 -2q-14 0 -14 -12q-3 -8 -4.5 -28.5t-2.5 -44.5t-1 -46.5v-32.5q0 -15 6 -21t21 -6
q10 0 35.5 -0.5t57.5 0t68 1t66 2t51.5 5t25.5 8.5q6 9 10 19.5t12 18.5l8 1q12 0 18 -12t8.5 -28t2 -32.5t-0.5 -24.5q0 -7 -0.5 -18t-3 -22t-8 -19t-15.5 -8q-3 0 -6.5 1t-5.5 2q-9 9 -13.5 20.5t-13.5 21.5q-4 4 -23 6.5t-46.5 4t-60 2.5t-62 1.5t-52.5 0.5h-33
q-17 0 -26.5 -3.5t-14.5 -10t-6 -17.5t-1 -26q0 -60 3 -119.5t3 -119.5q0 -14 -2.5 -28t-2.5 -28l1 -13q7 -1 13.5 -1h14.5h57.5t80.5 1t78 4.5t49 10.5q6 3 15 12l18.5 18.5t17.5 17t13 7.5q9 0 17 -6t8 -15q0 -6 -8 -23.5t-18.5 -36t-21 -32.5t-15.5 -14h-400
q-5 0 -12.5 0.5t-14 3t-11.5 6.5t-5 11q6 15 13 21.5t13.5 9t12 4.5t9.5 9q2 3 3.5 35t2.5 80t1 106t0.5 114.5t0.5 105v76.5q0 6 -0.5 17.5t-1 23.5t-2 22.5t-4.5 15.5t-10 8t-14.5 6t-13 6.5t-5.5 10.5q0 15 22 20.5t50.5 6.5t56.5 -1t39 -2zM321 757q-8 0 -14 4t-13 8
q2 -2 5 -3.5t5 -3.5q-8 6 -28.5 21t-42 33t-38.5 35.5t-17 27.5q0 12 8 20t19 8q5 0 17.5 -7.5t28.5 -19t33.5 -26t31.5 -28t23.5 -25t9.5 -16.5q0 -12 -8.5 -20t-19.5 -8z" />
    <glyph glyph-name="Eacute" unicode="&#xc9;" horiz-adv-x="532" 
d="M182 712q66 0 129.5 3t129.5 3q10 0 18 -12.5t14 -29t9.5 -33t3.5 -24.5t-5.5 -14t-13.5 -6q-9 0 -16 7.5t-13.5 17t-14 18.5t-16.5 12q-19 6 -39.5 7t-39.5 1q-44 0 -86.5 -2t-86.5 -2q-14 0 -14 -12q-3 -8 -4.5 -28.5t-2.5 -44.5t-1 -46.5v-32.5q0 -15 6 -21t21 -6
q10 0 35.5 -0.5t57.5 0t68 1t66 2t51.5 5t25.5 8.5q6 9 10 19.5t12 18.5l8 1q12 0 18 -12t8.5 -28t2 -32.5t-0.5 -24.5q0 -7 -0.5 -18t-3 -22t-8 -19t-15.5 -8q-3 0 -6.5 1t-5.5 2q-9 9 -13.5 20.5t-13.5 21.5q-4 4 -23 6.5t-46.5 4t-60 2.5t-62 1.5t-52.5 0.5h-33
q-17 0 -26.5 -3.5t-14.5 -10t-6 -17.5t-1 -26q0 -60 3 -119.5t3 -119.5q0 -14 -2.5 -28t-2.5 -28l1 -13q7 -1 13.5 -1h14.5h57.5t80.5 1t78 4.5t49 10.5q6 3 15 12l18.5 18.5t17.5 17t13 7.5q9 0 17 -6t8 -15q0 -6 -8 -23.5t-18.5 -36t-21 -32.5t-15.5 -14h-400
q-5 0 -12.5 0.5t-14 3t-11.5 6.5t-5 11q6 15 13 21.5t13.5 9t12 4.5t9.5 9q2 3 3.5 35t2.5 80t1 106t0.5 114.5t0.5 105v76.5q0 6 -0.5 17.5t-1 23.5t-2 22.5t-4.5 15.5t-10 8t-14.5 6t-13 6.5t-5.5 10.5q0 15 22 20.5t50.5 6.5t56.5 -1t39 -2zM210 757q-11 0 -19.5 8
t-8.5 20q0 8 19.5 28t45 41t48.5 37t31 16q11 0 19 -8t8 -20q0 -10 -17 -27.5t-38.5 -35.5t-42.5 -33t-28 -21q2 2 5 3.5t5 3.5q-7 -4 -13 -8t-14 -4z" />
    <glyph glyph-name="Ecircumflex" unicode="&#xca;" horiz-adv-x="532" 
d="M182 712q66 0 129.5 3t129.5 3q10 0 18 -12.5t14 -29t9.5 -33t3.5 -24.5t-5.5 -14t-13.5 -6q-9 0 -16 7.5t-13.5 17t-14 18.5t-16.5 12q-19 6 -39.5 7t-39.5 1q-44 0 -86.5 -2t-86.5 -2q-14 0 -14 -12q-3 -8 -4.5 -28.5t-2.5 -44.5t-1 -46.5v-32.5q0 -15 6 -21t21 -6
q10 0 35.5 -0.5t57.5 0t68 1t66 2t51.5 5t25.5 8.5q6 9 10 19.5t12 18.5l8 1q12 0 18 -12t8.5 -28t2 -32.5t-0.5 -24.5q0 -7 -0.5 -18t-3 -22t-8 -19t-15.5 -8q-3 0 -6.5 1t-5.5 2q-9 9 -13.5 20.5t-13.5 21.5q-4 4 -23 6.5t-46.5 4t-60 2.5t-62 1.5t-52.5 0.5h-33
q-17 0 -26.5 -3.5t-14.5 -10t-6 -17.5t-1 -26q0 -60 3 -119.5t3 -119.5q0 -14 -2.5 -28t-2.5 -28l1 -13q7 -1 13.5 -1h14.5h57.5t80.5 1t78 4.5t49 10.5q6 3 15 12l18.5 18.5t17.5 17t13 7.5q9 0 17 -6t8 -15q0 -6 -8 -23.5t-18.5 -36t-21 -32.5t-15.5 -14h-400
q-5 0 -12.5 0.5t-14 3t-11.5 6.5t-5 11q6 15 13 21.5t13.5 9t12 4.5t9.5 9q2 3 3.5 35t2.5 80t1 106t0.5 114.5t0.5 105v76.5q0 6 -0.5 17.5t-1 23.5t-2 22.5t-4.5 15.5t-10 8t-14.5 6t-13 6.5t-5.5 10.5q0 15 22 20.5t50.5 6.5t56.5 -1t39 -2zM274 897q6 0 26.5 -13.5
t42.5 -31t39 -34.5t17 -24q0 -11 -8.5 -19t-20.5 -8q-6 0 -19.5 9t-29 20t-30 22t-20.5 15q-6 -5 -22 -16.5t-33.5 -24t-33 -22t-21.5 -9.5q-11 0 -19.5 7.5t-8.5 19.5q0 8 18.5 26t43 36.5t47.5 32.5t32 14z" />
    <glyph glyph-name="Edieresis" unicode="&#xcb;" horiz-adv-x="532" 
d="M182 712q66 0 129.5 3t129.5 3q10 0 18 -12.5t14 -29t9.5 -33t3.5 -24.5t-5.5 -14t-13.5 -6q-9 0 -16 7.5t-13.5 17t-14 18.5t-16.5 12q-19 6 -39.5 7t-39.5 1q-44 0 -86.5 -2t-86.5 -2q-14 0 -14 -12q-3 -8 -4.5 -28.5t-2.5 -44.5t-1 -46.5v-32.5q0 -15 6 -21t21 -6
q10 0 35.5 -0.5t57.5 0t68 1t66 2t51.5 5t25.5 8.5q6 9 10 19.5t12 18.5l8 1q12 0 18 -12t8.5 -28t2 -32.5t-0.5 -24.5q0 -7 -0.5 -18t-3 -22t-8 -19t-15.5 -8q-3 0 -6.5 1t-5.5 2q-9 9 -13.5 20.5t-13.5 21.5q-4 4 -23 6.5t-46.5 4t-60 2.5t-62 1.5t-52.5 0.5h-33
q-17 0 -26.5 -3.5t-14.5 -10t-6 -17.5t-1 -26q0 -60 3 -119.5t3 -119.5q0 -14 -2.5 -28t-2.5 -28l1 -13q7 -1 13.5 -1h14.5h57.5t80.5 1t78 4.5t49 10.5q6 3 15 12l18.5 18.5t17.5 17t13 7.5q9 0 17 -6t8 -15q0 -6 -8 -23.5t-18.5 -36t-21 -32.5t-15.5 -14h-400
q-5 0 -12.5 0.5t-14 3t-11.5 6.5t-5 11q6 15 13 21.5t13.5 9t12 4.5t9.5 9q2 3 3.5 35t2.5 80t1 106t0.5 114.5t0.5 105v76.5q0 6 -0.5 17.5t-1 23.5t-2 22.5t-4.5 15.5t-10 8t-14.5 6t-13 6.5t-5.5 10.5q0 15 22 20.5t50.5 6.5t56.5 -1t39 -2zM329 867q21 0 28.5 -16
t7.5 -34q0 -17 -8.5 -31.5t-27.5 -14.5q-23 0 -30 15t-7 34t7.5 33t29.5 14zM203 867q22 0 29 -16t7 -34q0 -17 -8 -31.5t-28 -14.5q-22 0 -29.5 15t-7.5 34t8 33t29 14z" />
    <glyph glyph-name="Igrave" unicode="&#xcc;" horiz-adv-x="204" 
d="M127 722q7 0 18.5 -0.5t22.5 -3t19 -8.5t8 -16q0 -9 -9 -14t-20 -9.5t-20 -10t-9 -17.5q0 -143 -2 -284t-2 -284q0 -15 8.5 -20.5t19 -8.5t19 -7.5t8.5 -16.5q0 -9 -6.5 -15.5t-15.5 -6.5h-31t-47.5 1.5t-45 3.5t-23.5 7q-3 2 -6.5 6t-3.5 8q0 12 9 17.5t19.5 10.5
t19.5 13t9 26v486v18t-0.5 25.5t-1.5 24.5t-3 15q-5 7 -13 8.5t-16.5 3.5t-14.5 7.5t-6 22.5q0 8 16 12t36.5 5.5t39.5 1t24 -0.5zM158 757q-9 0 -14.5 4t-12.5 8q2 -2 5 -3.5t5 -3.5q-8 6 -28.5 21t-42.5 33t-39 35.5t-17 27.5q0 12 8.5 20t19.5 8q5 0 17.5 -7.5t28.5 -19
t33 -26t31.5 -28t23.5 -25t9 -16.5q0 -12 -8 -20t-19 -8z" />
    <glyph glyph-name="Iacute" unicode="&#xcd;" horiz-adv-x="204" 
d="M127 722q7 0 18.5 -0.5t22.5 -3t19 -8.5t8 -16q0 -9 -9 -14t-20 -9.5t-20 -10t-9 -17.5q0 -143 -2 -284t-2 -284q0 -15 8.5 -20.5t19 -8.5t19 -7.5t8.5 -16.5q0 -9 -6.5 -15.5t-15.5 -6.5h-31t-47.5 1.5t-45 3.5t-23.5 7q-3 2 -6.5 6t-3.5 8q0 12 9 17.5t19.5 10.5
t19.5 13t9 26v486v18t-0.5 25.5t-1.5 24.5t-3 15q-5 7 -13 8.5t-16.5 3.5t-14.5 7.5t-6 22.5q0 8 16 12t36.5 5.5t39.5 1t24 -0.5zM47 757q-12 0 -20 8t-8 20q0 8 19.5 28t44.5 41t48 37t31 16q12 0 20 -8t8 -20q0 -10 -17 -27.5t-38.5 -35.5t-42.5 -33t-28 -21q2 2 4.5 3.5
t4.5 3.5l-12 -8t-14 -4z" />
    <glyph glyph-name="Icircumflex" unicode="&#xce;" horiz-adv-x="204" 
d="M127 722q7 0 18.5 -0.5t22.5 -3t19 -8.5t8 -16q0 -9 -9 -14t-20 -9.5t-20 -10t-9 -17.5q0 -143 -2 -284t-2 -284q0 -15 8.5 -20.5t19 -8.5t19 -7.5t8.5 -16.5q0 -9 -6.5 -15.5t-15.5 -6.5h-31t-47.5 1.5t-45 3.5t-23.5 7q-3 2 -6.5 6t-3.5 8q0 12 9 17.5t19.5 10.5
t19.5 13t9 26v486v18t-0.5 25.5t-1.5 24.5t-3 15q-5 7 -13 8.5t-16.5 3.5t-14.5 7.5t-6 22.5q0 8 16 12t36.5 5.5t39.5 1t24 -0.5zM110 897q4 0 15 -6.5t25 -16.5t29.5 -22t28 -23.5t20.5 -21t8 -13.5q0 -11 -9 -19t-20 -8q-6 0 -20 9t-29.5 20t-30 22t-20.5 15
q-6 -5 -22 -16.5t-33.5 -24t-33 -22t-20.5 -9.5q-11 0 -19.5 7.5t-8.5 19.5q0 8 18.5 26t42.5 36.5t47 32.5t32 14z" />
    <glyph glyph-name="Idieresis" unicode="&#xcf;" horiz-adv-x="204" 
d="M127 722q7 0 18.5 -0.5t22.5 -3t19 -8.5t8 -16q0 -9 -9 -14t-20 -9.5t-20 -10t-9 -17.5q0 -143 -2 -284t-2 -284q0 -15 8.5 -20.5t19 -8.5t19 -7.5t8.5 -16.5q0 -9 -6.5 -15.5t-15.5 -6.5h-31t-47.5 1.5t-45 3.5t-23.5 7q-3 2 -6.5 6t-3.5 8q0 12 9 17.5t19.5 10.5
t19.5 13t9 26v486v18t-0.5 25.5t-1.5 24.5t-3 15q-5 7 -13 8.5t-16.5 3.5t-14.5 7.5t-6 22.5q0 8 16 12t36.5 5.5t39.5 1t24 -0.5zM165 867q22 0 29 -16t7 -34q0 -17 -8 -31.5t-28 -14.5q-22 0 -29.5 15t-7.5 34t8 33t29 14zM40 867q21 0 28.5 -16t7.5 -34q0 -17 -8 -31.5
t-28 -14.5q-23 0 -30 15t-7 34t7.5 33t29.5 14z" />
    <glyph glyph-name="Eth" unicode="&#xd0;" horiz-adv-x="542" 
d="M16 456q0 19 15.5 25t30.5 4q1 37 1.5 73.5t0.5 73.5q0 20 -7.5 28.5t-16.5 13t-16.5 8.5t-7.5 16t19.5 16.5t45 6t49.5 0.5t32 -1q79 0 147 -17t117.5 -55t78 -98.5t28.5 -146.5v-95q0 -42 -14 -90t-39.5 -91t-61.5 -75.5t-79 -43.5q-34 -9 -68.5 -11.5t-69.5 -2.5
q-12 0 -43.5 -1t-64.5 1t-58.5 8.5t-25.5 21.5q0 11 6.5 15.5t15 8t16.5 7.5t11 13q5 21 6 44.5t1 44.5q0 68 -3 134.5t-1 135.5q-15 -2 -30 4t-15 25zM145 661q-7 -8 -8 -25t-1 -27q0 -31 1 -61.5t1 -61.5l102 1q12 0 21.5 -8.5t9.5 -20.5q0 -16 -16.5 -23t-39 -8.5
t-45 -0.5t-33.5 1q-2 -62 -4.5 -124t-2.5 -124v-84q0 -10 1.5 -20t6.5 -18q12 -5 29 -5.5t30 -0.5h34.5t35.5 2q54 4 90 36.5t57.5 78.5t30.5 98.5t9 97.5q0 46 -11 99t-36 98t-65 74.5t-98 29.5h-68q-8 0 -15.5 -0.5t-15.5 -3.5z" />
    <glyph glyph-name="Ntilde" unicode="&#xd1;" horiz-adv-x="585" 
d="M541 724q12 0 23.5 -4.5t11.5 -19.5q0 -14 -9 -19t-19.5 -9t-19 -10.5t-8.5 -23.5q0 -29 2.5 -58.5t2.5 -58.5q0 -71 -1.5 -140t-1.5 -139v-36.5t0.5 -55.5t2 -53.5t3.5 -30.5q3 -8 11 -12l16 -8t14 -8.5t6 -12.5q0 -10 -4.5 -15.5t-11.5 -8.5t-15.5 -3.5t-15.5 -0.5
q-9 0 -28 -0.5t-39 1t-35 6.5t-15 16q0 9 5.5 14.5t13 10l15 9t11.5 12.5q6 12 7 25.5t1 27.5q0 28 -23 66.5t-55 76.5t-65.5 70.5t-54.5 48.5q-37 28 -67 62t-62 67l-8 3l-11 -10q0 -42 1 -83t1 -82q0 -29 -1.5 -65.5t-2 -74t1 -73.5t7.5 -63q8 -8 19 -11.5t19 -11.5
q7 -2 10 -8.5t3 -13.5l-1 -8q-6 -9 -15.5 -10.5t-18.5 -1.5q-10 0 -31.5 -0.5t-43 1.5t-38 8t-16.5 19q0 2 1 5t2 5q13 18 22.5 19.5t15.5 5t9 17.5t3 57v274v29.5v49t-1 57t-2 55t-3.5 43t-5.5 20.5q-5 4 -12 7.5t-14.5 7t-12.5 8.5t-5 13q0 12 9.5 17.5t23 7t27 1
t21.5 -0.5q7 0 21 -0.5t28 -2.5t25 -8t11 -16q0 -11 -8 -16t-17 -9t-17 -9t-8 -15q0 -16 20.5 -44t52.5 -62t71 -71.5t75 -72.5t65.5 -65.5t42.5 -49.5h15q0 84 -1.5 167t-1.5 168q0 16 -0.5 25.5t-4.5 15.5t-12.5 10t-24.5 9q-5 5 -9 11t-4 13q0 11 17 16t39.5 6.5t44 1
t31.5 -0.5zM164 762q-11 0 -19 8t-8 20q0 3 1 7t2 7q9 12 20.5 25t24 23.5t27.5 17t32 6.5q20 0 36.5 -8.5t31.5 -18t28 -18t26 -8.5h3q9 6 14 15.5t10 18.5t12.5 16t19.5 7q11 0 19 -8.5t8 -19.5q0 -14 -8 -29.5t-20 -28.5t-27 -21.5t-29 -8.5q-18 0 -34.5 8t-31.5 17.5
t-29.5 17.5t-29.5 8t-24.5 -8.5t-17 -18t-16 -18t-21.5 -8.5z" />
    <glyph glyph-name="Ograve" unicode="&#xd2;" horiz-adv-x="550" 
d="M263 728q84 0 138 -30.5t85 -81.5t43 -117.5t12 -137.5q0 -69 -12 -134t-43 -115.5t-83.5 -81t-133.5 -30.5q-77 0 -127 33.5t-79.5 86.5t-41.5 118.5t-12 128.5q0 58 13 121.5t43 117t78.5 88t119.5 34.5zM85 325q0 -46 10 -93.5t33.5 -86.5t60.5 -64t91 -25
q37 0 65 15.5t48.5 40.5t33.5 58t21 68t11.5 69.5t3.5 62.5q0 47 -7 99.5t-27 97t-57 73.5t-97 29q-42 0 -72.5 -17t-51.5 -45t-34 -64t-20 -74.5t-9.5 -76t-2.5 -67.5zM331 757q-9 0 -14.5 4t-12.5 8q2 -2 4.5 -3.5t4.5 -3.5q-7 6 -27.5 21t-42.5 33t-39 35.5t-17 27.5
q0 12 8 20t20 8q5 0 17.5 -7.5t28.5 -19t33 -26t31.5 -28t23.5 -25t9 -16.5q0 -12 -8 -20t-19 -8z" />
    <glyph glyph-name="Oacute" unicode="&#xd3;" horiz-adv-x="550" 
d="M263 728q84 0 138 -30.5t85 -81.5t43 -117.5t12 -137.5q0 -69 -12 -134t-43 -115.5t-83.5 -81t-133.5 -30.5q-77 0 -127 33.5t-79.5 86.5t-41.5 118.5t-12 128.5q0 58 13 121.5t43 117t78.5 88t119.5 34.5zM85 325q0 -46 10 -93.5t33.5 -86.5t60.5 -64t91 -25
q37 0 65 15.5t48.5 40.5t33.5 58t21 68t11.5 69.5t3.5 62.5q0 47 -7 99.5t-27 97t-57 73.5t-97 29q-42 0 -72.5 -17t-51.5 -45t-34 -64t-20 -74.5t-9.5 -76t-2.5 -67.5zM219 757q-11 0 -19 8t-8 20q0 8 19.5 28t44.5 41t48 37t31 16q12 0 20 -8t8 -20q0 -10 -17 -27.5
t-39 -35.5t-42.5 -33t-27.5 -21q2 2 4.5 3.5t4.5 3.5q-7 -4 -12.5 -8t-14.5 -4z" />
    <glyph glyph-name="Ocircumflex" unicode="&#xd4;" horiz-adv-x="550" 
d="M263 728q84 0 138 -30.5t85 -81.5t43 -117.5t12 -137.5q0 -69 -12 -134t-43 -115.5t-83.5 -81t-133.5 -30.5q-77 0 -127 33.5t-79.5 86.5t-41.5 118.5t-12 128.5q0 58 13 121.5t43 117t78.5 88t119.5 34.5zM85 325q0 -46 10 -93.5t33.5 -86.5t60.5 -64t91 -25
q37 0 65 15.5t48.5 40.5t33.5 58t21 68t11.5 69.5t3.5 62.5q0 47 -7 99.5t-27 97t-57 73.5t-97 29q-42 0 -72.5 -17t-51.5 -45t-34 -64t-20 -74.5t-9.5 -76t-2.5 -67.5zM282 897q4 0 15 -6.5t25 -16.5t29.5 -22t28 -23.5t20.5 -21t8 -13.5q0 -11 -9 -19t-20 -8q-6 0 -20 9
t-29.5 20t-30 22t-20.5 15q-6 -5 -22 -16.5t-33.5 -24t-33 -22t-20.5 -9.5q-11 0 -19.5 7.5t-8.5 19.5q0 8 18.5 26t42.5 36.5t47 32.5t32 14z" />
    <glyph glyph-name="Otilde" unicode="&#xd5;" horiz-adv-x="550" 
d="M263 728q84 0 138 -30.5t85 -81.5t43 -117.5t12 -137.5q0 -69 -12 -134t-43 -115.5t-83.5 -81t-133.5 -30.5q-77 0 -127 33.5t-79.5 86.5t-41.5 118.5t-12 128.5q0 58 13 121.5t43 117t78.5 88t119.5 34.5zM85 325q0 -46 10 -93.5t33.5 -86.5t60.5 -64t91 -25
q37 0 65 15.5t48.5 40.5t33.5 58t21 68t11.5 69.5t3.5 62.5q0 47 -7 99.5t-27 97t-57 73.5t-97 29q-42 0 -72.5 -17t-51.5 -45t-34 -64t-20 -74.5t-9.5 -76t-2.5 -67.5zM146 762q-11 0 -19 8t-8 20q0 3 1 7t2 7q9 12 20 25t24 23.5t28 17t32 6.5q20 0 36.5 -8.5t31.5 -18
t28 -18t26 -8.5h3q9 6 14 15.5t10 18.5t12.5 16t19.5 7q11 0 19 -8.5t8 -19.5q0 -14 -8 -29.5t-20 -28.5t-27 -21.5t-29 -8.5q-18 0 -34.5 8t-31.5 17.5t-29.5 17.5t-29.5 8t-24.5 -8.5t-17.5 -18t-16 -18t-21 -8.5z" />
    <glyph glyph-name="Odieresis" unicode="&#xd6;" horiz-adv-x="550" 
d="M263 728q84 0 138 -30.5t85 -81.5t43 -117.5t12 -137.5q0 -69 -12 -134t-43 -115.5t-83.5 -81t-133.5 -30.5q-77 0 -127 33.5t-79.5 86.5t-41.5 118.5t-12 128.5q0 58 13 121.5t43 117t78.5 88t119.5 34.5zM85 325q0 -46 10 -93.5t33.5 -86.5t60.5 -64t91 -25
q37 0 65 15.5t48.5 40.5t33.5 58t21 68t11.5 69.5t3.5 62.5q0 47 -7 99.5t-27 97t-57 73.5t-97 29q-42 0 -72.5 -17t-51.5 -45t-34 -64t-20 -74.5t-9.5 -76t-2.5 -67.5zM338 867q22 0 29 -16t7 -34q0 -17 -8 -31.5t-28 -14.5q-22 0 -29.5 15t-7.5 34t8 33t29 14zM213 867
q21 0 28.5 -16t7.5 -34q0 -17 -8.5 -31.5t-27.5 -14.5q-23 0 -30 15t-7 34t7.5 33t29.5 14z" />
    <glyph glyph-name="multiply" unicode="&#xd7;" horiz-adv-x="318" 
d="M44 382q0 11 8.5 19.5t19.5 8.5q8 0 22 -10.5t28.5 -25t27.5 -28.5t19 -20q7 7 19 21t26 28t28 24.5t25 10.5t19 -8.5t8 -19.5t-10.5 -25t-24 -28t-27 -26t-20.5 -19q6 -6 20 -19t28.5 -27.5t25 -28.5t10.5 -22q0 -11 -8.5 -19t-19.5 -8q-9 0 -23 10.5t-28.5 24
t-27.5 27.5t-19 20q-8 -8 -20 -22t-26 -27.5t-28 -24t-24 -10.5q-11 0 -19.5 8.5t-8.5 19.5q0 10 10.5 23.5t24.5 28t28 27t21 19.5q-7 7 -21 19.5t-28 27t-24.5 28.5t-10.5 23z" />
    <glyph glyph-name="Oslash" unicode="&#xd8;" horiz-adv-x="550" 
d="M256 717q51 0 99 -14.5t86 -49.5q4 7 10.5 18t14 21.5t16.5 18t19 7.5q11 0 19.5 -8.5t8.5 -19.5q0 -7 -6.5 -19t-14.5 -25t-16.5 -24.5t-12.5 -17.5q33 -56 43.5 -122.5t10.5 -130.5q0 -69 -12 -134.5t-42.5 -115.5t-83.5 -80.5t-134 -30.5q-20 0 -43.5 3.5t-46 11
t-42.5 19t-34 26.5q-4 -7 -9 -16.5t-11.5 -18t-14 -14.5t-17.5 -6q-12 0 -20 9t-8 21l1 9q11 18 22.5 35.5t22.5 34.5q-19 33 -30.5 62.5t-18 59.5t-8.5 61.5t-2 68.5q0 58 13 122t43 117t78.5 87.5t119.5 34.5zM78 314q0 -37 6 -73.5t20 -71.5q72 108 147 212t149 212
q-24 32 -58 48.5t-75 16.5q-42 0 -72 -17t-51 -45t-34 -64t-20 -74t-9.5 -75.5t-2.5 -68.5zM136 112q25 -33 60 -49.5t77 -16.5q55 0 90.5 33t56 81t28 102.5t7.5 96.5q0 45 -5.5 88.5t-19.5 85.5q-74 -106 -148 -209.5t-146 -211.5z" />
    <glyph glyph-name="Ugrave" unicode="&#xd9;" horiz-adv-x="592" 
d="M544 723q12 0 24.5 -6.5t12.5 -20.5q0 -13 -9 -16.5t-19.5 -6t-19 -7t-8.5 -19.5q0 -81 2.5 -162t2.5 -162q0 -36 -1 -72.5t-3 -72.5q-2 -38 -23 -70.5t-52.5 -56.5t-69 -38t-71.5 -14q-56 0 -101 12t-77 38.5t-49 68t-17 101.5q0 103 -1 205t-1 205q0 25 -8.5 35
t-19 13.5t-19 6t-8.5 14.5q0 9 5.5 13t13.5 6t16.5 2h14.5h27h35t34.5 -1.5t24.5 -4.5q4 -3 7 -8.5t3 -11.5q0 -2 -2 -6q-7 -9 -16 -12t-17.5 -6t-14 -10t-5.5 -25v-411q0 -88 39 -128t127 -40q52 0 84.5 19.5t50.5 51.5t25.5 73.5t8.5 85.5t-1 86.5t-2 77.5v39.5t-0.5 64.5
t-1.5 62.5t-3 33.5q-5 10 -15 15.5t-20 9.5t-17 10t-7 18q0 10 18.5 15t43 6t47.5 0.5t32 -0.5zM351 757q-8 0 -14 4l-12 8q2 -2 4.5 -3.5t4.5 -3.5q-8 6 -28.5 21t-42 33t-38.5 35.5t-17 27.5q0 12 8 20t20 8q5 0 17.5 -7.5t28.5 -19t33 -26t31.5 -28t23.5 -25t9 -16.5
q0 -12 -8 -20t-20 -8z" />
    <glyph glyph-name="Uacute" unicode="&#xda;" horiz-adv-x="592" 
d="M544 723q12 0 24.5 -6.5t12.5 -20.5q0 -13 -9 -16.5t-19.5 -6t-19 -7t-8.5 -19.5q0 -81 2.5 -162t2.5 -162q0 -36 -1 -72.5t-3 -72.5q-2 -38 -23 -70.5t-52.5 -56.5t-69 -38t-71.5 -14q-56 0 -101 12t-77 38.5t-49 68t-17 101.5q0 103 -1 205t-1 205q0 25 -8.5 35
t-19 13.5t-19 6t-8.5 14.5q0 9 5.5 13t13.5 6t16.5 2h14.5h27h35t34.5 -1.5t24.5 -4.5q4 -3 7 -8.5t3 -11.5q0 -2 -2 -6q-7 -9 -16 -12t-17.5 -6t-14 -10t-5.5 -25v-411q0 -88 39 -128t127 -40q52 0 84.5 19.5t50.5 51.5t25.5 73.5t8.5 85.5t-1 86.5t-2 77.5v39.5t-0.5 64.5
t-1.5 62.5t-3 33.5q-5 10 -15 15.5t-20 9.5t-17 10t-7 18q0 10 18.5 15t43 6t47.5 0.5t32 -0.5zM240 757q-11 0 -19 8t-8 20q0 8 19.5 28t44.5 41t48 37t31 16q11 0 19.5 -8t8.5 -20q0 -10 -17 -27.5t-39 -35.5t-43 -33t-28 -21q2 2 5 3.5t5 3.5q-7 -4 -12.5 -8t-14.5 -4z
" />
    <glyph glyph-name="Ucircumflex" unicode="&#xdb;" horiz-adv-x="592" 
d="M544 723q12 0 24.5 -6.5t12.5 -20.5q0 -13 -9 -16.5t-19.5 -6t-19 -7t-8.5 -19.5q0 -81 2.5 -162t2.5 -162q0 -36 -1 -72.5t-3 -72.5q-2 -38 -23 -70.5t-52.5 -56.5t-69 -38t-71.5 -14q-56 0 -101 12t-77 38.5t-49 68t-17 101.5q0 103 -1 205t-1 205q0 25 -8.5 35
t-19 13.5t-19 6t-8.5 14.5q0 9 5.5 13t13.5 6t16.5 2h14.5h27h35t34.5 -1.5t24.5 -4.5q4 -3 7 -8.5t3 -11.5q0 -2 -2 -6q-7 -9 -16 -12t-17.5 -6t-14 -10t-5.5 -25v-411q0 -88 39 -128t127 -40q52 0 84.5 19.5t50.5 51.5t25.5 73.5t8.5 85.5t-1 86.5t-2 77.5v39.5t-0.5 64.5
t-1.5 62.5t-3 33.5q-5 10 -15 15.5t-20 9.5t-17 10t-7 18q0 10 18.5 15t43 6t47.5 0.5t32 -0.5zM303 897q6 0 26.5 -13.5t42.5 -31t39 -34.5t17 -24q0 -11 -8.5 -19t-19.5 -8q-6 0 -20 9t-29.5 20t-30 22t-20.5 15q-6 -5 -22 -16.5t-33.5 -24t-33 -22t-20.5 -9.5
q-11 0 -20 7.5t-9 19.5q0 8 18.5 26t43 36.5t47.5 32.5t32 14z" />
    <glyph glyph-name="Udieresis" unicode="&#xdc;" horiz-adv-x="592" 
d="M544 723q12 0 24.5 -6.5t12.5 -20.5q0 -13 -9 -16.5t-19.5 -6t-19 -7t-8.5 -19.5q0 -81 2.5 -162t2.5 -162q0 -36 -1 -72.5t-3 -72.5q-2 -38 -23 -70.5t-52.5 -56.5t-69 -38t-71.5 -14q-56 0 -101 12t-77 38.5t-49 68t-17 101.5q0 103 -1 205t-1 205q0 25 -8.5 35
t-19 13.5t-19 6t-8.5 14.5q0 9 5.5 13t13.5 6t16.5 2h14.5h27h35t34.5 -1.5t24.5 -4.5q4 -3 7 -8.5t3 -11.5q0 -2 -2 -6q-7 -9 -16 -12t-17.5 -6t-14 -10t-5.5 -25v-411q0 -88 39 -128t127 -40q52 0 84.5 19.5t50.5 51.5t25.5 73.5t8.5 85.5t-1 86.5t-2 77.5v39.5t-0.5 64.5
t-1.5 62.5t-3 33.5q-5 10 -15 15.5t-20 9.5t-17 10t-7 18q0 10 18.5 15t43 6t47.5 0.5t32 -0.5zM359 867q22 0 29 -16t7 -34q0 -17 -8 -31.5t-28 -14.5q-22 0 -29.5 15t-7.5 34t8 33t29 14zM234 867q21 0 28.5 -16t7.5 -34q0 -17 -8.5 -31.5t-27.5 -14.5q-23 0 -30 15t-7 34
t7.5 33t29.5 14z" />
    <glyph glyph-name="Yacute" unicode="&#xdd;" horiz-adv-x="612" 
d="M101 733q8 0 24 -0.5t31.5 -3.5t27.5 -9.5t12 -19.5t-10 -16q-4 -3 -12.5 -7.5t-8.5 -9.5q0 -3 9 -17.5t23 -34.5t31 -43t32 -44.5t27 -38t17 -22.5l11 -5q4 0 15 12t24.5 29.5t28.5 38t27.5 38t21 30t9.5 13.5q2 3 7 8.5t10.5 11t9.5 10.5t4 8q0 9 -6 12.5t-13 6.5
t-13 8t-6 16q4 12 11.5 18t16.5 7.5t19.5 1t21.5 -0.5q8 0 25 -0.5t33.5 -3.5t29 -10t12.5 -20q0 -8 -5 -13.5t-12.5 -8.5t-16 -5t-14.5 -4q-8 -7 -27 -28.5t-42 -50.5t-48 -61.5t-45.5 -62t-33.5 -52t-13 -30.5q0 -35 2 -68.5t2 -68.5q0 -32 -3.5 -62.5t-3.5 -62.5
q0 -11 0.5 -21.5t2.5 -20.5q2 -12 10.5 -16t17.5 -7t16.5 -7.5t7.5 -16.5q0 -10 -12.5 -15t-29 -7.5t-32.5 -3t-24 -0.5q-7 0 -20.5 0.5t-27 3.5t-24 9t-10.5 16q0 16 9 19.5t20 7t20 14.5t9 43v42v56.5t-0.5 62.5t-2 59.5t-4.5 47.5t-7 26q-6 8 -21 30.5t-34.5 51
t-41.5 59.5t-41.5 57.5t-33.5 44.5t-18 20q-7 3 -17.5 5t-20.5 5.5t-17 9t-7 16.5q0 12 11 17t26 6.5t30.5 1t23.5 -0.5zM250 757q-11 0 -19.5 8t-8.5 20q0 8 19.5 28t45 41t48.5 37t31 16q11 0 19 -8t8 -20q0 -10 -17 -27.5t-38.5 -35.5t-42.5 -33t-28 -21q2 2 5 3.5t4 3.5
l-12 -8t-14 -4z" />
    <glyph glyph-name="Thorn" unicode="&#xde;" horiz-adv-x="0" 
d="M141 382h-1q1 -8 2.5 -15t8.5 -11q5 -1 9 -1.5t9 -0.5q22 0 50.5 -1.5t59.5 -1.5t60.5 4t52.5 15t37.5 30.5t14.5 50.5q0 30 -14 49.5t-37 31t-52.5 16.5t-59.5 6.5t-58.5 0.5t-49.5 -1q-3 0 -10 -1t-10 -3q-6 -3 -9 -26t-3.5 -51.5t0 -54.5t0.5 -36zM16 706q0 8 15.5 12
t36 5.5t39.5 1t25 -0.5q7 0 18.5 -0.5t22 -3t18.5 -8.5t8 -16q0 -12 -9 -15l-19.5 -6.5t-19.5 -13.5t-9 -35q0 -13 14 -17.5t32.5 -5t37 1.5t28.5 2q43 0 91 -2.5t88.5 -17.5t67 -46.5t26.5 -89.5q0 -48 -18 -77.5t-47.5 -45.5t-67.5 -22t-78 -6.5t-79 2t-70 2.5
q-14 0 -19 -4t-5 -17q0 -40 -0.5 -79.5t-0.5 -80.5q0 -14 -0.5 -28.5t1.5 -28.5q2 -11 11 -16t19 -8.5t18 -8.5t8 -15q0 -7 -5 -11.5t-12 -7.5t-14.5 -4t-12.5 -1q-11 0 -34.5 -1t-47.5 1t-42 8.5t-18 21.5q0 11 7 15.5t16.5 7t18.5 6.5t12 13q3 6 4 16.5t1.5 21.5t0.5 21.5
v17.5v58.5t0.5 100t0 118.5t-1 114.5t-2 88.5t-4.5 41q-5 7 -13 8.5t-16.5 3.5t-14.5 7.5t-6 22.5z" />
    <glyph glyph-name="germandbls" unicode="&#xdf;" horiz-adv-x="362" 
d="M65 637q0 -23 12 -38.5t26 -32.5q12 -13 18 -41t8.5 -59.5t3 -61.5t0.5 -48q0 -54 -2.5 -108.5t-2.5 -109.5q0 -21 -0.5 -36.5t3.5 -26.5t15 -17.5t34 -9.5l7 -3q2 -6 2 -11q0 -15 -10 -22t-24 -9.5t-28.5 -2t-23.5 0.5t-23 -1t-26.5 0.5t-22 7t-9.5 18.5q0 10 4 15
t10 7.5t13 4.5t13 7q2 2 4 18.5t3 40.5t1.5 52t0.5 53.5v45.5v28v27t-1 32t-3 31t-5 25q-3 9 -10.5 13t-15 7t-13.5 7t-6 13q0 13 8 15.5t17 4t17 7t8 23.5q0 24 -9.5 38t-21 27t-21 28.5t-9.5 41.5q0 29 14.5 47.5t36.5 28.5t47.5 13.5t48.5 3.5q27 0 55 -5t50.5 -17.5
t36.5 -34.5t14 -56q0 -30 -11.5 -51.5t-25 -39.5t-25 -34t-11.5 -36q0 -13 8 -22t20.5 -19t26.5 -22.5t26.5 -32.5t20.5 -49.5t8 -72.5t-4 -84.5t-16 -80t-33 -73.5t-55 -65q-11 -9 -22 -9q-12 0 -20 8t-8 19q0 14 8 22q30 36 47.5 65t27.5 58t13 63.5t3 81.5q0 36 -8 59.5
t-20.5 40t-27 27.5t-27 22t-20.5 24t-8 33q0 26 12.5 45.5t27.5 37.5t27.5 36t12.5 42q0 20 -11.5 32t-28 18t-35.5 8t-35 2q-8 0 -21.5 -1t-26.5 -4.5t-23 -10.5t-10 -18z" />
    <glyph glyph-name="agrave" unicode="&#xe0;" horiz-adv-x="388" 
d="M192 470q17 0 43 -4.5t40 -14.5q16 -11 25.5 -39t14 -64.5t5.5 -78t1.5 -81.5t0.5 -74t3 -54q1 -12 9 -16t17 -7t16 -7.5t7 -17.5q0 -11 -6.5 -14.5t-16.5 -3.5q-23 0 -38 -0.5t-25 3t-17.5 13.5t-14.5 31q-7 0 -18 -8t-25 -18t-32 -18t-40 -8q-29 0 -53 10.5t-40.5 28.5
t-25.5 42.5t-9 53.5q0 34 18 58.5t45 43t58 33t58 28t45 27.5t18 32q0 31 -12.5 53t-47.5 22q-7 0 -17 -2t-19.5 -5.5t-17 -9.5t-10.5 -14q-6 -6 -7 -15.5t-2.5 -17.5t-6.5 -14t-18 -6q-9 0 -18 9.5t-17 22.5t-13 26t-5 21q0 12 3.5 17t9 6.5t13 1t15.5 -0.5q7 0 18.5 4.5
t25.5 10.5t30 10.5t33 4.5zM84 120q0 -28 16 -50t46 -22q31 0 52.5 12.5t35 32.5t19.5 46t6 52q0 16 -0.5 32.5t-5.5 30.5h-19q-19 -9 -45 -22t-49 -30.5t-39.5 -38t-16.5 -43.5zM249 567q-9 0 -14.5 4t-12.5 8q2 -2 5 -3.5t5 -3.5q-8 6 -28.5 21t-42.5 33t-39 35.5
t-17 27.5q0 12 8.5 20t19.5 8q5 0 17.5 -7.5t28.5 -19t33 -26t31.5 -28t23.5 -25t9 -16.5q0 -12 -8 -20t-19 -8z" />
    <glyph glyph-name="aacute" unicode="&#xe1;" horiz-adv-x="388" 
d="M192 470q17 0 43 -4.5t40 -14.5q16 -11 25.5 -39t14 -64.5t5.5 -78t1.5 -81.5t0.5 -74t3 -54q1 -12 9 -16t17 -7t16 -7.5t7 -17.5q0 -11 -6.5 -14.5t-16.5 -3.5q-23 0 -38 -0.5t-25 3t-17.5 13.5t-14.5 31q-7 0 -18 -8t-25 -18t-32 -18t-40 -8q-29 0 -53 10.5t-40.5 28.5
t-25.5 42.5t-9 53.5q0 34 18 58.5t45 43t58 33t58 28t45 27.5t18 32q0 31 -12.5 53t-47.5 22q-7 0 -17 -2t-19.5 -5.5t-17 -9.5t-10.5 -14q-6 -6 -7 -15.5t-2.5 -17.5t-6.5 -14t-18 -6q-9 0 -18 9.5t-17 22.5t-13 26t-5 21q0 12 3.5 17t9 6.5t13 1t15.5 -0.5q7 0 18.5 4.5
t25.5 10.5t30 10.5t33 4.5zM84 120q0 -28 16 -50t46 -22q31 0 52.5 12.5t35 32.5t19.5 46t6 52q0 16 -0.5 32.5t-5.5 30.5h-19q-19 -9 -45 -22t-49 -30.5t-39.5 -38t-16.5 -43.5zM139 567q-12 0 -20 8t-8 20q0 8 19.5 28t45 41t48.5 37t31 16q11 0 19 -8t8 -20
q0 -10 -17 -27.5t-38.5 -35.5t-42.5 -33t-28 -21q6 4 9 7l-12 -8t-14 -4z" />
    <glyph glyph-name="acircumflex" unicode="&#xe2;" horiz-adv-x="388" 
d="M192 470q17 0 43 -4.5t40 -14.5q16 -11 25.5 -39t14 -64.5t5.5 -78t1.5 -81.5t0.5 -74t3 -54q1 -12 9 -16t17 -7t16 -7.5t7 -17.5q0 -11 -6.5 -14.5t-16.5 -3.5q-23 0 -38 -0.5t-25 3t-17.5 13.5t-14.5 31q-7 0 -18 -8t-25 -18t-32 -18t-40 -8q-29 0 -53 10.5t-40.5 28.5
t-25.5 42.5t-9 53.5q0 34 18 58.5t45 43t58 33t58 28t45 27.5t18 32q0 31 -12.5 53t-47.5 22q-7 0 -17 -2t-19.5 -5.5t-17 -9.5t-10.5 -14q-6 -6 -7 -15.5t-2.5 -17.5t-6.5 -14t-18 -6q-9 0 -18 9.5t-17 22.5t-13 26t-5 21q0 12 3.5 17t9 6.5t13 1t15.5 -0.5q7 0 18.5 4.5
t25.5 10.5t30 10.5t33 4.5zM84 120q0 -28 16 -50t46 -22q31 0 52.5 12.5t35 32.5t19.5 46t6 52q0 16 -0.5 32.5t-5.5 30.5h-19q-19 -9 -45 -22t-49 -30.5t-39.5 -38t-16.5 -43.5zM201 707q4 0 15 -6.5t25 -16.5t29.5 -22t28 -23.5t20.5 -21t8 -13.5q0 -11 -9 -19t-20 -8
q-6 0 -19.5 9t-29 20t-30 22t-20.5 15q-6 -5 -22 -16.5t-33.5 -24t-33 -22t-21.5 -9.5q-11 0 -19.5 7.5t-8.5 19.5q0 5 9 15.5t22.5 22.5t30 24.5t32 23t28 17t18.5 6.5z" />
    <glyph glyph-name="atilde" unicode="&#xe3;" horiz-adv-x="388" 
d="M192 470q17 0 43 -4.5t40 -14.5q16 -11 25.5 -39t14 -64.5t5.5 -78t1.5 -81.5t0.5 -74t3 -54q1 -12 9 -16t17 -7t16 -7.5t7 -17.5q0 -11 -6.5 -14.5t-16.5 -3.5q-23 0 -38 -0.5t-25 3t-17.5 13.5t-14.5 31q-7 0 -18 -8t-25 -18t-32 -18t-40 -8q-29 0 -53 10.5t-40.5 28.5
t-25.5 42.5t-9 53.5q0 34 18 58.5t45 43t58 33t58 28t45 27.5t18 32q0 31 -12.5 53t-47.5 22q-7 0 -17 -2t-19.5 -5.5t-17 -9.5t-10.5 -14q-6 -6 -7 -15.5t-2.5 -17.5t-6.5 -14t-18 -6q-9 0 -18 9.5t-17 22.5t-13 26t-5 21q0 12 3.5 17t9 6.5t13 1t15.5 -0.5q7 0 18.5 4.5
t25.5 10.5t30 10.5t33 4.5zM84 120q0 -28 16 -50t46 -22q31 0 52.5 12.5t35 32.5t19.5 46t6 52q0 16 -0.5 32.5t-5.5 30.5h-19q-19 -9 -45 -22t-49 -30.5t-39.5 -38t-16.5 -43.5zM66 572q-12 0 -20 8t-8 20q0 3 1 7t2 7q9 12 20.5 25t24 23.5t27.5 17t32 6.5q20 0 37 -8.5
t32 -18t28 -18t25 -8.5h3q9 6 14.5 15.5t10.5 18.5t12 16t19 7q11 0 19 -8.5t8 -19.5q0 -14 -8 -29.5t-20 -28.5t-27 -21.5t-29 -8.5q-18 0 -34.5 8t-31.5 17.5t-29.5 17.5t-29.5 8t-24.5 -8.5t-17 -18t-15.5 -18t-21 -8.5z" />
    <glyph glyph-name="adieresis" unicode="&#xe4;" horiz-adv-x="388" 
d="M192 470q17 0 43 -4.5t40 -14.5q16 -11 25.5 -39t14 -64.5t5.5 -78t1.5 -81.5t0.5 -74t3 -54q1 -12 9 -16t17 -7t16 -7.5t7 -17.5q0 -11 -6.5 -14.5t-16.5 -3.5q-23 0 -38 -0.5t-25 3t-17.5 13.5t-14.5 31q-7 0 -18 -8t-25 -18t-32 -18t-40 -8q-29 0 -53 10.5t-40.5 28.5
t-25.5 42.5t-9 53.5q0 34 18 58.5t45 43t58 33t58 28t45 27.5t18 32q0 31 -12.5 53t-47.5 22q-7 0 -17 -2t-19.5 -5.5t-17 -9.5t-10.5 -14q-6 -6 -7 -15.5t-2.5 -17.5t-6.5 -14t-18 -6q-9 0 -18 9.5t-17 22.5t-13 26t-5 21q0 12 3.5 17t9 6.5t13 1t15.5 -0.5q7 0 18.5 4.5
t25.5 10.5t30 10.5t33 4.5zM84 120q0 -28 16 -50t46 -22q31 0 52.5 12.5t35 32.5t19.5 46t6 52q0 16 -0.5 32.5t-5.5 30.5h-19q-19 -9 -45 -22t-49 -30.5t-39.5 -38t-16.5 -43.5zM256 677q22 0 29.5 -16t7.5 -34q0 -17 -8.5 -31.5t-28.5 -14.5q-22 0 -29.5 15t-7.5 34t8 33
t29 14zM131 677q22 0 29 -16t7 -34q0 -17 -8 -31.5t-28 -14.5q-22 0 -29.5 15t-7.5 34t8 33t29 14z" />
    <glyph glyph-name="aring" unicode="&#xe5;" horiz-adv-x="380" 
d="M184 470q9 0 20.5 -1t23 -3.5t22.5 -6t18 -8.5q16 -11 25 -39t14 -64.5t6 -78t1 -81.5t0.5 -74t2.5 -54q1 -12 9 -16t17 -7t16.5 -7.5t7.5 -17.5q0 -11 -7 -14.5t-16 -3.5q-23 0 -38 -0.5t-25 3t-17.5 13.5t-14.5 31q-7 0 -18 -8t-25 -18t-32.5 -18t-40.5 -8
q-29 0 -52.5 10.5t-40 28.5t-25.5 42.5t-9 53.5q0 34 18 58.5t44.5 43t58 33t58 28t44.5 27.5t18 32q0 31 -12.5 53t-47.5 22q-7 0 -17 -2t-19.5 -5.5t-17 -9.5t-10.5 -14q-6 -6 -7 -15.5t-2.5 -17.5t-6.5 -14t-18 -6q-9 0 -18 9.5t-17 22.5t-13 26t-5 21q0 12 3.5 17
t9.5 6.5t13.5 1t15.5 -0.5q7 0 18.5 4.5t25.5 10.5t30 10.5t32 4.5zM76 120q0 -28 16.5 -50t46.5 -22q31 0 52.5 12.5t35 32.5t19.5 46t6 52q0 16 -0.5 32.5t-6.5 30.5h-19q-19 -9 -44.5 -22t-49 -30.5t-40 -38t-16.5 -43.5zM168 635q0 -9 4.5 -22.5t15.5 -13.5h6
q18 11 18 33q0 10 -6.5 25t-18.5 15q-5 0 -9 -4.5t-6 -10.5t-3 -12.5t-1 -9.5zM109 639q0 16 6 32.5t16.5 29.5t24.5 21.5t31 8.5q18 0 33.5 -9t26.5 -22.5t17 -31t6 -33.5q0 -18 -5.5 -35t-15.5 -30t-25 -21t-34 -8q-20 0 -35 8.5t-25.5 22.5t-15.5 31.5t-5 35.5z" />
    <glyph glyph-name="ae" unicode="&#xe6;" horiz-adv-x="579" 
d="M405 477q37 0 62.5 -7.5t43 -23.5t28 -41.5t18.5 -60.5l1 -7q0 -13 -15.5 -24t-39 -21t-51 -19t-53 -17.5t-44 -17.5t-23.5 -19l-1 -8q0 -23 7 -49.5t21 -49t34.5 -38t46.5 -15.5q27 0 43 13.5t27 30t19.5 30.5t20.5 14q11 0 14.5 -6.5t3.5 -16.5q0 -24 -14 -46.5
t-35.5 -40t-47 -27.5t-48.5 -10q-18 0 -38.5 5.5t-39.5 16t-34.5 24.5t-24.5 31q-8 -8 -16 -17t-14 -19q-7 0 -18 -8t-25 -18t-32 -18t-40 -8q-56 0 -89 35.5t-33 89.5q0 40 17 64.5t42.5 39t55.5 22l56 14t44 15t19 24.5q1 13 1.5 26.5t0.5 26.5q0 31 -12.5 53t-47.5 22
q-7 0 -17 -2t-19.5 -5.5t-17 -9.5t-10.5 -14q-6 -6 -7 -15.5t-2.5 -17.5t-6.5 -14t-18 -6q-9 0 -18 9.5t-17 22.5t-13 26t-5 21q0 12 3.5 17t9 6.5t13 1t15.5 -0.5q7 0 18.5 4.5t25.5 10.5t30 10.5t33 4.5q32 0 62 -9t46 -40q39 56 105 56zM84 120q0 -28 16 -50t46 -22
q32 0 53 13t34 34t18 47t5 53q0 17 -15 17q-9 0 -17.5 -3t-17.5 -6q-17 -6 -38 -10.5t-40 -12.5t-31.5 -22t-12.5 -38zM327 310l1 -15q2 -1 5.5 -2t5.5 -1q11 0 34 5.5t46.5 14.5t41 21t17.5 25q0 34 -23 50t-54 16q-18 0 -31.5 -12.5t-23 -30.5t-14.5 -37.5t-5 -33.5z" />
    <glyph glyph-name="ccedilla" unicode="&#xe7;" horiz-adv-x="332" 
d="M177 487q35 0 64 -13q7 -8 13.5 -10t12.5 -1t12.5 2.5t14.5 1.5q9 0 16.5 -7.5t7.5 -16.5q0 -8 -7.5 -24.5t-18 -32.5t-22 -28t-20.5 -12q-14 0 -16 13t-3.5 28t-8 28t-30.5 13q-34 0 -57 -17t-36.5 -43t-19.5 -56.5t-6 -58.5q0 -27 5 -60t17.5 -62t34.5 -48.5t57 -19.5
q36 0 51.5 10.5t24.5 25.5t18 30.5t32 25.5q10 -10 10 -25q0 -24 -10.5 -47.5t-28 -42t-40.5 -30t-48 -11.5q-55 0 -91 23.5t-57 60.5t-29.5 82.5t-8.5 89.5q0 39 8 80t27 75t51.5 55.5t80.5 21.5zM72 -81q0 12 6 33t15.5 41.5t22 35t26.5 14.5t18.5 -8.5t4.5 -19.5
q0 -17 -9.5 -33.5t-14.5 -33.5q19 -1 38 -9t34.5 -20.5t25.5 -30t10 -38.5q0 -24 -15 -44t-36.5 -34.5t-47 -22t-46.5 -7.5q-11 0 -20.5 9t-9.5 20q0 12 13 19.5t30.5 14t35.5 12t28 13.5l6 10t3 11l-3 10l-7 11q-11 7 -29 10t-35.5 6.5t-30.5 9.5t-13 21z" />
    <glyph glyph-name="egrave" unicode="&#xe8;" horiz-adv-x="319" 
d="M148 477q37 0 62.5 -7.5t43 -23.5t28 -41.5t18.5 -60.5l1 -7q0 -11 -15 -21.5t-38 -22t-50.5 -22.5t-53 -23t-45.5 -24t-27 -25l-1 -8q0 -24 8 -47.5t22.5 -42t35 -30.5t46.5 -12q27 0 43 13.5t27 30t19.5 30.5t21.5 14q11 0 14.5 -7t3.5 -16q0 -24 -14 -46.5t-36 -40
t-47.5 -27.5t-48.5 -10q-51 0 -83 23t-50 59t-24.5 79t-6.5 83q0 35 6 76t22 76t44.5 58t73.5 23zM67 290l1 -15q2 0 6 -1.5t6 -1.5q6 0 28 10t47 23t44.5 25.5t20.5 17.5l1 10q0 34 -23 50t-54 16q-17 0 -31.5 -15.5t-24.5 -37t-15.5 -44.5t-5.5 -37zM215 567q-9 0 -14.5 4
t-12.5 8q2 -2 5 -3.5t5 -3.5q-8 6 -28.5 21t-42.5 33t-39 35.5t-17 27.5q0 12 8.5 20t19.5 8q5 0 17.5 -7.5t28.5 -19t33 -26t31.5 -28t23.5 -25t9 -16.5q0 -12 -8 -20t-19 -8z" />
    <glyph glyph-name="eacute" unicode="&#xe9;" horiz-adv-x="319" 
d="M148 477q37 0 62.5 -7.5t43 -23.5t28 -41.5t18.5 -60.5l1 -7q0 -11 -15 -21.5t-38 -22t-50.5 -22.5t-53 -23t-45.5 -24t-27 -25l-1 -8q0 -24 8 -47.5t22.5 -42t35 -30.5t46.5 -12q27 0 43 13.5t27 30t19.5 30.5t21.5 14q11 0 14.5 -7t3.5 -16q0 -24 -14 -46.5t-36 -40
t-47.5 -27.5t-48.5 -10q-51 0 -83 23t-50 59t-24.5 79t-6.5 83q0 35 6 76t22 76t44.5 58t73.5 23zM67 290l1 -15q2 0 6 -1.5t6 -1.5q6 0 28 10t47 23t44.5 25.5t20.5 17.5l1 10q0 34 -23 50t-54 16q-17 0 -31.5 -15.5t-24.5 -37t-15.5 -44.5t-5.5 -37zM104 567q-11 0 -19 8
t-8 20q0 8 19.5 28t44.5 41t48 37t31 16q12 0 20 -8t8 -20q0 -10 -17 -27.5t-38.5 -35.5t-42.5 -33t-28 -21q2 2 4.5 3.5t4.5 3.5l-12 -8t-15 -4z" />
    <glyph glyph-name="ecircumflex" unicode="&#xea;" horiz-adv-x="319" 
d="M148 477q37 0 62.5 -7.5t43 -23.5t28 -41.5t18.5 -60.5l1 -7q0 -11 -15 -21.5t-38 -22t-50.5 -22.5t-53 -23t-45.5 -24t-27 -25l-1 -8q0 -24 8 -47.5t22.5 -42t35 -30.5t46.5 -12q27 0 43 13.5t27 30t19.5 30.5t21.5 14q11 0 14.5 -7t3.5 -16q0 -24 -14 -46.5t-36 -40
t-47.5 -27.5t-48.5 -10q-51 0 -83 23t-50 59t-24.5 79t-6.5 83q0 35 6 76t22 76t44.5 58t73.5 23zM67 290l1 -15q2 0 6 -1.5t6 -1.5q6 0 28 10t47 23t44.5 25.5t20.5 17.5l1 10q0 34 -23 50t-54 16q-17 0 -31.5 -15.5t-24.5 -37t-15.5 -44.5t-5.5 -37zM167 707q4 0 15 -6.5
t25 -16.5t29.5 -22t28 -23.5t20.5 -21t8 -13.5q0 -11 -9 -19t-20 -8q-6 0 -20 9t-29.5 20t-30 22t-20.5 15q-6 -5 -22 -16.5t-33.5 -24t-33 -22t-20.5 -9.5q-11 0 -19.5 7.5t-8.5 19.5q0 8 18.5 26t42.5 36.5t47 32.5t32 14z" />
    <glyph glyph-name="edieresis" unicode="&#xeb;" horiz-adv-x="319" 
d="M148 477q37 0 62.5 -7.5t43 -23.5t28 -41.5t18.5 -60.5l1 -7q0 -11 -15 -21.5t-38 -22t-50.5 -22.5t-53 -23t-45.5 -24t-27 -25l-1 -8q0 -24 8 -47.5t22.5 -42t35 -30.5t46.5 -12q27 0 43 13.5t27 30t19.5 30.5t21.5 14q11 0 14.5 -7t3.5 -16q0 -24 -14 -46.5t-36 -40
t-47.5 -27.5t-48.5 -10q-51 0 -83 23t-50 59t-24.5 79t-6.5 83q0 35 6 76t22 76t44.5 58t73.5 23zM67 290l1 -15q2 0 6 -1.5t6 -1.5q6 0 28 10t47 23t44.5 25.5t20.5 17.5l1 10q0 34 -23 50t-54 16q-17 0 -31.5 -15.5t-24.5 -37t-15.5 -44.5t-5.5 -37zM222 677q22 0 29 -16
t7 -34q0 -17 -8 -31.5t-28 -14.5q-22 0 -29.5 15t-7.5 34t8 33t29 14zM97 677q21 0 28.5 -16t7.5 -34q0 -17 -8 -31.5t-28 -14.5q-23 0 -30 15t-7 34t7.5 33t29.5 14z" />
    <glyph glyph-name="igrave" unicode="&#xec;" horiz-adv-x="175" 
d="M39 470h68h5q6 0 15 -1t17 -3.5t14 -7.5t6 -13q0 -7 -6 -11t-14 -8t-15 -8.5t-10 -13.5q-4 -11 -4 -21.5v-20.5v-28.5t-0.5 -54t0 -68t2 -69t3.5 -56.5t6 -32q10 -5 23 -9t13 -19q0 -12 -5 -17.5t-13 -7.5t-17 -2h-17q-7 0 -22.5 0.5t-31.5 3t-28.5 8t-12.5 16.5
q0 9 5.5 14t12.5 8.5t13 7.5t8 12q4 20 4.5 42t0.5 43q0 59 -3 117.5t2 117.5q-7 21 -13 28t-11.5 8.5t-11.5 3.5t-13 13q0 12 9 20t21 8zM143 567q-8 0 -14 4l-12 8q3 -3 9 -7q-8 6 -28.5 21t-42 33t-38.5 35.5t-17 27.5q0 12 8 20t20 8q7 0 30.5 -16t48.5 -37t44.5 -41
t19.5 -28q0 -12 -8 -20t-20 -8z" />
    <glyph glyph-name="iacute" unicode="&#xed;" horiz-adv-x="175" 
d="M39 470h68h5q6 0 15 -1t17 -3.5t14 -7.5t6 -13q0 -7 -6 -11t-14 -8t-15 -8.5t-10 -13.5q-4 -11 -4 -21.5v-20.5v-28.5t-0.5 -54t0 -68t2 -69t3.5 -56.5t6 -32q10 -5 23 -9t13 -19q0 -12 -5 -17.5t-13 -7.5t-17 -2h-17q-7 0 -22.5 0.5t-31.5 3t-28.5 8t-12.5 16.5
q0 9 5.5 14t12.5 8.5t13 7.5t8 12q4 20 4.5 42t0.5 43q0 59 -3 117.5t2 117.5q-7 21 -13 28t-11.5 8.5t-11.5 3.5t-13 13q0 12 9 20t21 8zM32 567q-11 0 -19 8t-8 20q0 8 19.5 28t44.5 41t48 37t31 16q11 0 19.5 -8t8.5 -20q0 -10 -17 -27.5t-39 -35.5t-43 -33t-28 -21
q2 2 5 3.5t5 3.5q-7 -4 -12.5 -8t-14.5 -4z" />
    <glyph glyph-name="icircumflex" unicode="&#xee;" horiz-adv-x="175" 
d="M39 470h68h5q6 0 15 -1t17 -3.5t14 -7.5t6 -13q0 -7 -6 -11t-14 -8t-15 -8.5t-10 -13.5q-4 -11 -4 -21.5v-20.5v-28.5t-0.5 -54t0 -68t2 -69t3.5 -56.5t6 -32q10 -5 23 -9t13 -19q0 -12 -5 -17.5t-13 -7.5t-17 -2h-17q-7 0 -22.5 0.5t-31.5 3t-28.5 8t-12.5 16.5
q0 9 5.5 14t12.5 8.5t13 7.5t8 12q4 20 4.5 42t0.5 43q0 59 -3 117.5t2 117.5q-7 21 -13 28t-11.5 8.5t-11.5 3.5t-13 13q0 12 9 20t21 8zM95 707q6 0 26.5 -13.5t42.5 -31t39 -34.5t17 -24q0 -11 -8.5 -19t-19.5 -8q-6 0 -20 9t-29.5 20t-30 22t-20.5 15q-6 -5 -22 -16.5
t-33.5 -24t-33 -22t-20.5 -9.5q-11 0 -20 7.5t-9 19.5q0 8 18.5 26t43 36.5t47.5 32.5t32 14z" />
    <glyph glyph-name="idieresis" unicode="&#xef;" horiz-adv-x="175" 
d="M39 470h68h5q6 0 15 -1t17 -3.5t14 -7.5t6 -13q0 -7 -6 -11t-14 -8t-15 -8.5t-10 -13.5q-4 -11 -4 -21.5v-20.5v-28.5t-0.5 -54t0 -68t2 -69t3.5 -56.5t6 -32q10 -5 23 -9t13 -19q0 -12 -5 -17.5t-13 -7.5t-17 -2h-17q-7 0 -22.5 0.5t-31.5 3t-28.5 8t-12.5 16.5
q0 9 5.5 14t12.5 8.5t13 7.5t8 12q4 20 4.5 42t0.5 43q0 59 -3 117.5t2 117.5q-7 21 -13 28t-11.5 8.5t-11.5 3.5t-13 13q0 12 9 20t21 8zM151 677q22 0 29 -16t7 -34q0 -17 -8 -31.5t-28 -14.5q-22 0 -29.5 15t-7.5 34t8 33t29 14zM26 677q21 0 28.5 -16t7.5 -34
q0 -17 -8.5 -31.5t-27.5 -14.5q-23 0 -30 15t-7 34t7.5 33t29.5 14z" />
    <glyph glyph-name="eth" unicode="&#xf0;" 
d="M165 483q14 0 27 -2t26 -7q-14 29 -32.5 54.5t-43.5 46.5q-7 -5 -18.5 -14.5t-24.5 -19t-25 -16.5t-20 -7q-11 0 -19.5 8t-8.5 19q0 10 7 19t16.5 17t20 14.5t17.5 11.5q-9 3 -22.5 3.5t-25.5 2.5t-21 8t-9 21t10.5 22t24.5 7q7 0 22 -1.5t31 -4.5t29 -8t17 -11
q6 4 15 10.5t19.5 13t20 11.5t15.5 5q12 0 20.5 -8t8.5 -20q0 -9 -5.5 -16.5t-13.5 -13.5t-17 -11t-16 -9q67 -69 103 -160t36 -188q0 -38 -6 -83t-22.5 -84.5t-47 -66t-79.5 -26.5q-56 0 -89 28t-50 70.5t-22 92t-5 92.5q0 36 9 71.5t28.5 64t49 46.5t70.5 18zM74 272
q0 -26 2 -63t11.5 -70.5t30 -57t57.5 -23.5q22 0 37.5 15.5t25.5 38t15 46.5t5 41v86q0 25 -4 50t-15 45.5t-30 33.5t-49 13q-24 0 -40.5 -17.5t-26.5 -42.5t-14.5 -51t-4.5 -44z" />
    <glyph glyph-name="ntilde" unicode="&#xf1;" horiz-adv-x="380" 
d="M223 485q6 0 11 -1.5t10 -3.5q45 -17 70 -38.5t37.5 -49t15.5 -63t3 -79.5q0 -26 -6.5 -50.5t-14.5 -48.5t-14.5 -48t-6.5 -49q6 -3 13 -4.5t13 -4.5t10.5 -8t4.5 -13q0 -10 -6 -14.5t-14.5 -6.5t-18 -2h-16.5q-8 0 -20.5 0.5t-24.5 3.5t-20.5 9t-8.5 17q0 12 8 23
q16 25 24.5 51.5t17.5 55.5q10 35 12.5 71t2.5 73q0 16 -3 36t-11 37.5t-21 29.5t-34 12q-29 0 -49.5 -10t-34.5 -27t-20.5 -40t-6.5 -49q0 -57 1.5 -114t3.5 -114q4 -5 11.5 -9.5t15.5 -9t14 -9.5t6 -11q0 -11 -12 -16t-28 -7t-31.5 -2h-22.5q-8 0 -18.5 0.5t-20 3.5
t-16.5 8.5t-7 15.5q0 11 6 16t13 8.5t13.5 9t8.5 17.5q2 14 2.5 28.5t0.5 28.5q0 60 -1.5 119.5t-1.5 119.5q0 27 -5.5 36t-13.5 13t-17 9.5t-17 25.5q13 13 22 14t27 1h14t17 -0.5t17 -2.5t13 -5q7 -16 7 -30h12q7 7 17.5 15t22.5 15t24 12t21 5zM62 572q-11 0 -19.5 8
t-8.5 20q0 3 1 7t2 7q10 12 21 25t24 23.5t28 17t32 6.5q20 0 36.5 -8.5t31.5 -18t28 -18t25 -8.5h3q9 6 14.5 15.5t10.5 18.5t12 16t19 7q11 0 19.5 -8.5t8.5 -19.5q0 -14 -8 -29.5t-20.5 -28.5t-27.5 -21.5t-29 -8.5q-18 0 -34 8t-31 17.5t-29.5 17.5t-29.5 8t-24.5 -8.5
t-17.5 -18t-16 -18t-21 -8.5z" />
    <glyph glyph-name="ograve" unicode="&#xf2;" 
d="M165 483q48 0 79.5 -20t50 -51.5t26.5 -71.5t8 -80q0 -38 -6 -83t-22.5 -84.5t-47 -66t-79.5 -26.5q-56 0 -89 28t-50 70.5t-22 92t-5 92.5q0 36 9 71.5t28.5 64t49 46.5t70.5 18zM74 272q0 -26 2 -63t11.5 -70.5t30 -57t57.5 -23.5q22 0 37.5 15.5t25.5 38t15 46.5t5 41
v86q0 25 -4 50t-15 45.5t-30 33.5t-49 13q-24 0 -40.5 -17.5t-26.5 -42.5t-14.5 -51t-4.5 -44zM225 567q-8 0 -14 4l-12 8q1 -2 4 -3.5t5 -3.5q-8 6 -28.5 21t-42 33t-38.5 35.5t-17 27.5q0 12 8 20t19 8q5 0 17.5 -7.5t28.5 -19t33.5 -26t31.5 -28t23.5 -25t9.5 -16.5
q0 -12 -8.5 -20t-19.5 -8z" />
    <glyph glyph-name="oacute" unicode="&#xf3;" 
d="M165 483q48 0 79.5 -20t50 -51.5t26.5 -71.5t8 -80q0 -38 -6 -83t-22.5 -84.5t-47 -66t-79.5 -26.5q-56 0 -89 28t-50 70.5t-22 92t-5 92.5q0 36 9 71.5t28.5 64t49 46.5t70.5 18zM74 272q0 -26 2 -63t11.5 -70.5t30 -57t57.5 -23.5q22 0 37.5 15.5t25.5 38t15 46.5t5 41
v86q0 25 -4 50t-15 45.5t-30 33.5t-49 13q-24 0 -40.5 -17.5t-26.5 -42.5t-14.5 -51t-4.5 -44zM115 567q-11 0 -19.5 8t-8.5 20q0 8 19.5 28t45 41t48.5 37t31 16q11 0 19 -8t8 -20q0 -10 -17 -27.5t-38.5 -35.5t-42.5 -33t-28 -21q2 2 5 3.5t5 3.5q-7 -4 -13 -8t-14 -4z
" />
    <glyph glyph-name="ocircumflex" unicode="&#xf4;" 
d="M165 483q48 0 79.5 -20t50 -51.5t26.5 -71.5t8 -80q0 -38 -6 -83t-22.5 -84.5t-47 -66t-79.5 -26.5q-56 0 -89 28t-50 70.5t-22 92t-5 92.5q0 36 9 71.5t28.5 64t49 46.5t70.5 18zM74 272q0 -26 2 -63t11.5 -70.5t30 -57t57.5 -23.5q22 0 37.5 15.5t25.5 38t15 46.5t5 41
v86q0 25 -4 50t-15 45.5t-30 33.5t-49 13q-24 0 -40.5 -17.5t-26.5 -42.5t-14.5 -51t-4.5 -44zM178 707q6 0 26.5 -13.5t42.5 -31t39 -34.5t17 -24q0 -11 -8.5 -19t-19.5 -8q-6 0 -20 9t-29.5 20t-30 22t-20.5 15q-6 -5 -22 -16.5t-33.5 -24t-33 -22t-20.5 -9.5
q-12 0 -20.5 7.5t-8.5 19.5q0 8 18.5 26t43 36.5t47.5 32.5t32 14z" />
    <glyph glyph-name="otilde" unicode="&#xf5;" 
d="M165 483q48 0 79.5 -20t50 -51.5t26.5 -71.5t8 -80q0 -38 -6 -83t-22.5 -84.5t-47 -66t-79.5 -26.5q-56 0 -89 28t-50 70.5t-22 92t-5 92.5q0 36 9 71.5t28.5 64t49 46.5t70.5 18zM74 272q0 -26 2 -63t11.5 -70.5t30 -57t57.5 -23.5q22 0 37.5 15.5t25.5 38t15 46.5t5 41
v86q0 25 -4 50t-15 45.5t-30 33.5t-49 13q-24 0 -40.5 -17.5t-26.5 -42.5t-14.5 -51t-4.5 -44zM42 572q-11 0 -19.5 8t-8.5 20q0 3 1 7t2 7q10 12 21 25t24 23.5t28 17t32 6.5q20 0 36.5 -8.5t31.5 -18t28 -18t25 -8.5h3q9 6 14.5 15.5t10.5 18.5t12 16t19 7q11 0 19.5 -8.5
t8.5 -19.5q0 -14 -8 -29.5t-20.5 -28.5t-27.5 -21.5t-29 -8.5q-18 0 -34 8t-31 17.5t-29.5 17.5t-29.5 8t-24.5 -8.5t-17.5 -18t-16 -18t-21 -8.5z" />
    <glyph glyph-name="odieresis" unicode="&#xf6;" 
d="M165 483q48 0 79.5 -20t50 -51.5t26.5 -71.5t8 -80q0 -38 -6 -83t-22.5 -84.5t-47 -66t-79.5 -26.5q-56 0 -89 28t-50 70.5t-22 92t-5 92.5q0 36 9 71.5t28.5 64t49 46.5t70.5 18zM74 272q0 -26 2 -63t11.5 -70.5t30 -57t57.5 -23.5q22 0 37.5 15.5t25.5 38t15 46.5t5 41
v86q0 25 -4 50t-15 45.5t-30 33.5t-49 13q-24 0 -40.5 -17.5t-26.5 -42.5t-14.5 -51t-4.5 -44zM233 677q21 0 28.5 -16t7.5 -34q0 -17 -8.5 -31.5t-27.5 -14.5q-23 0 -30 15t-7 34t7.5 33t29.5 14zM107 677q22 0 29 -16t7 -34q0 -17 -8 -31.5t-28 -14.5q-22 0 -29.5 15
t-7.5 34t8 33t29 14z" />
    <glyph glyph-name="divide" unicode="&#xf7;" horiz-adv-x="351" 
d="M73 255q-10 0 -18 10t-8 19q0 11 7.5 19t18.5 10q22 4 47 5t51.5 0t52 -2t48.5 -1q12 0 21 -8.5t9 -20.5q0 -13 -9 -20.5t-21 -9.5q-48 -4 -99 -2.5t-100 1.5zM167 225q18 0 30.5 -12.5t12.5 -30.5q0 -14 -12.5 -26t-26.5 -12q-18 0 -29 12.5t-11 29.5q0 14 10.5 26.5
t25.5 12.5zM167 423q18 0 30.5 -12.5t12.5 -30.5q0 -14 -12.5 -26t-26.5 -12q-18 0 -29 12.5t-11 29.5q0 14 10.5 26.5t25.5 12.5z" />
    <glyph glyph-name="oslash" unicode="&#xf8;" 
d="M58 5q-14 0 -21.5 10.5t-7.5 22.5q0 1 2 6.5t4.5 12.5t5 13t3.5 8q-25 46 -30.5 100t-5.5 105q0 36 9 71.5t28.5 64t49 46.5t70.5 18q26 0 49 -7t43 -23q5 13 12 26t24 13q10 0 18.5 -8t8.5 -19q0 -14 -7 -32t-13 -32q17 -32 23 -68.5t6 -72.5q0 -38 -6 -83t-22.5 -84.5
t-47 -66t-79.5 -26.5q-23 0 -45.5 6t-41.5 20q-2 -9 -11 -15t-18 -6zM74 272q0 -27 1.5 -54.5t6.5 -53.5q15 31 34.5 59t40 55.5t40 55.5t34.5 58q-13 17 -31.5 26t-39.5 9q-24 0 -40.5 -17.5t-26.5 -42.5t-14.5 -51t-4.5 -44zM175 58q22 0 37.5 15.5t25.5 38t15 46.5t5 41
v86q0 8 -0.5 16t-1.5 16q-18 -29 -38 -56t-39.5 -54.5t-37 -56t-31.5 -61.5q25 -31 65 -31z" />
    <glyph glyph-name="ugrave" unicode="&#xf9;" horiz-adv-x="389" 
d="M7 454q4 6 13.5 8.5t20.5 3t21.5 0.5h16.5q14 0 28.5 -2.5t24.5 -13.5l1 -5q0 -8 -11 -26.5t-23.5 -46.5t-23.5 -63t-11 -75q0 -24 2 -55.5t11.5 -60.5t28 -49t51.5 -20q17 0 34.5 11t31.5 27t22.5 35t8.5 36v52t-1 79t-2.5 76t-4.5 43q-3 7 -10 12t-15 9.5t-14 9.5
t-6 12l7 14q9 4 21 4q14 0 32 0.5t36 0t34.5 -4t28.5 -11.5v-19q-19 -9 -33 -19t-14 -34q0 -12 -0.5 -39t-0.5 -61.5t0.5 -72t2 -70t4 -55.5t7.5 -29q14 -5 29.5 -13t15.5 -25q-9 -10 -22 -12.5t-26 -2.5h-38q-12 0 -18.5 3t-9 8.5t-2.5 13t1 17.5q-20 -19 -45 -33t-54 -14
q-47 0 -77 23t-47 58.5t-24 77t-7 78.5q0 24 6 49t13.5 48t13.5 43t6 34q0 12 -5.5 13.5t-12 2.5t-11.5 6t-5 24zM250 567q-9 0 -14.5 4t-12.5 8q2 -2 5 -3.5t5 -3.5q-8 6 -28.5 21t-42.5 33t-39 35.5t-17 27.5q0 12 8.5 20t19.5 8q5 0 17.5 -7.5t28.5 -19t33 -26t31.5 -28
t23.5 -25t9 -16.5q0 -12 -8 -20t-19 -8z" />
    <glyph glyph-name="uacute" unicode="&#xfa;" horiz-adv-x="389" 
d="M7 454q4 6 13.5 8.5t20.5 3t21.5 0.5h16.5q14 0 28.5 -2.5t24.5 -13.5l1 -5q0 -8 -11 -26.5t-23.5 -46.5t-23.5 -63t-11 -75q0 -24 2 -55.5t11.5 -60.5t28 -49t51.5 -20q17 0 34.5 11t31.5 27t22.5 35t8.5 36v52t-1 79t-2.5 76t-4.5 43q-3 7 -10 12t-15 9.5t-14 9.5
t-6 12l7 14q9 4 21 4q14 0 32 0.5t36 0t34.5 -4t28.5 -11.5v-19q-19 -9 -33 -19t-14 -34q0 -12 -0.5 -39t-0.5 -61.5t0.5 -72t2 -70t4 -55.5t7.5 -29q14 -5 29.5 -13t15.5 -25q-9 -10 -22 -12.5t-26 -2.5h-38q-12 0 -18.5 3t-9 8.5t-2.5 13t1 17.5q-20 -19 -45 -33t-54 -14
q-47 0 -77 23t-47 58.5t-24 77t-7 78.5q0 24 6 49t13.5 48t13.5 43t6 34q0 12 -5.5 13.5t-12 2.5t-11.5 6t-5 24zM139 567q-12 0 -20 8t-8 20q0 8 19.5 28t45 41t48.5 37t31 16q11 0 19 -8t8 -20q0 -10 -17 -27.5t-38.5 -35.5t-42.5 -33t-28 -21q6 4 9 7l-12 -8t-14 -4z" />
    <glyph glyph-name="ucircumflex" unicode="&#xfb;" horiz-adv-x="389" 
d="M7 454q4 6 13.5 8.5t20.5 3t21.5 0.5h16.5q14 0 28.5 -2.5t24.5 -13.5l1 -5q0 -8 -11 -26.5t-23.5 -46.5t-23.5 -63t-11 -75q0 -24 2 -55.5t11.5 -60.5t28 -49t51.5 -20q17 0 34.5 11t31.5 27t22.5 35t8.5 36v52t-1 79t-2.5 76t-4.5 43q-3 7 -10 12t-15 9.5t-14 9.5
t-6 12l7 14q9 4 21 4q14 0 32 0.5t36 0t34.5 -4t28.5 -11.5v-19q-19 -9 -33 -19t-14 -34q0 -12 -0.5 -39t-0.5 -61.5t0.5 -72t2 -70t4 -55.5t7.5 -29q14 -5 29.5 -13t15.5 -25q-9 -10 -22 -12.5t-26 -2.5h-38q-12 0 -18.5 3t-9 8.5t-2.5 13t1 17.5q-20 -19 -45 -33t-54 -14
q-47 0 -77 23t-47 58.5t-24 77t-7 78.5q0 24 6 49t13.5 48t13.5 43t6 34q0 12 -5.5 13.5t-12 2.5t-11.5 6t-5 24zM201 707q4 0 15 -6.5t25 -16.5t29.5 -22t28 -23.5t20.5 -21t8 -13.5q0 -11 -9 -19t-20 -8q-6 0 -19.5 9t-29 20t-30 22t-20.5 15q-6 -5 -22 -16.5t-33.5 -24
t-33 -22t-21.5 -9.5q-11 0 -19.5 7.5t-8.5 19.5q0 5 9 15.5t22.5 22.5t30 24.5t32 23t28 17t18.5 6.5z" />
    <glyph glyph-name="udieresis" unicode="&#xfc;" horiz-adv-x="389" 
d="M7 454q4 6 13.5 8.5t20.5 3t21.5 0.5h16.5q14 0 28.5 -2.5t24.5 -13.5l1 -5q0 -8 -11 -26.5t-23.5 -46.5t-23.5 -63t-11 -75q0 -24 2 -55.5t11.5 -60.5t28 -49t51.5 -20q17 0 34.5 11t31.5 27t22.5 35t8.5 36v52t-1 79t-2.5 76t-4.5 43q-3 7 -10 12t-15 9.5t-14 9.5
t-6 12l7 14q9 4 21 4q14 0 32 0.5t36 0t34.5 -4t28.5 -11.5v-19q-19 -9 -33 -19t-14 -34q0 -12 -0.5 -39t-0.5 -61.5t0.5 -72t2 -70t4 -55.5t7.5 -29q14 -5 29.5 -13t15.5 -25q-9 -10 -22 -12.5t-26 -2.5h-38q-12 0 -18.5 3t-9 8.5t-2.5 13t1 17.5q-20 -19 -45 -33t-54 -14
q-47 0 -77 23t-47 58.5t-24 77t-7 78.5q0 24 6 49t13.5 48t13.5 43t6 34q0 12 -5.5 13.5t-12 2.5t-11.5 6t-5 24zM257 677q22 0 29.5 -16t7.5 -34q0 -17 -8.5 -31.5t-28.5 -14.5q-22 0 -29.5 15t-7.5 34t8 33t29 14zM132 677q22 0 29 -16t7 -34q0 -17 -8 -31.5t-28 -14.5
q-22 0 -29.5 15t-7.5 34t8 33t29 14z" />
    <glyph glyph-name="yacute" unicode="&#xfd;" horiz-adv-x="440" 
d="M146 465q12 0 23 -6.5t11 -20.5t-9 -16t-19.5 -5t-19.5 -12t-9 -35q0 -37 6 -78t19 -81t32.5 -76t46.5 -63q3 2 10.5 25t17 57t20 74t19 75.5t14 61.5t5.5 33q0 11 -6.5 15.5t-14.5 7.5t-14.5 8t-6.5 16q0 9 8 14t16 5h103q9 0 20.5 -6t11.5 -17q0 -12 -7 -16.5t-16 -7.5
t-18.5 -8.5t-13.5 -20.5q-32 -116 -62 -231.5t-59 -232.5q-8 -32 -14.5 -64t-20.5 -61q-16 -35 -40.5 -48t-61.5 -13q-10 0 -19 3t-18 3q-7 0 -14 -2.5t-14 -2.5q-8 0 -15.5 12t-13.5 27.5t-10 31t-4 22.5t4 15.5t13 8.5q12 0 18.5 -9.5t14.5 -21t21 -21t37 -9.5q31 0 45 26
q7 12 15.5 35t16.5 48t13.5 48.5t5.5 37.5q0 9 -5 17.5t-11.5 16t-14 15t-12.5 14.5q-31 43 -57 92.5t-38 101.5q-3 14 -5 36.5t-4 45.5t-5 43.5t-9 30.5q-3 4 -10 9.5t-14.5 11.5t-13 11t-5.5 10q0 12 18.5 17t42 5.5t46 -1t30.5 -1.5zM164 567q-11 0 -19 8t-8 20
q0 8 19.5 28t44.5 41t48 37t31 16q11 0 19.5 -8t8.5 -20q0 -10 -17 -27.5t-39 -35.5t-43 -33t-28 -21q2 2 5 3.5t5 3.5q-7 -4 -12.5 -8t-14.5 -4z" />
    <glyph glyph-name="thorn" unicode="&#xfe;" horiz-adv-x="381" 
d="M225 475q47 0 75.5 -24t44 -60t20.5 -77.5t5 -76.5q0 -36 -4.5 -78t-19.5 -77.5t-43 -59t-75 -23.5q-35 0 -57 14t-44 39l-1 -225q0 -15 15.5 -21.5t26.5 -8.5l12 -12l-4 -23q-8 -5 -16.5 -7t-17.5 -2h-26.5t-34.5 1.5t-33.5 4t-23.5 7.5l-6 17l2 10q5 7 12 10t13 5.5
t11.5 6.5t7.5 13q3 18 3 36.5v37.5q0 184 -2.5 365.5t-2.5 366.5q0 12 -8.5 17.5t-18.5 9.5t-18.5 8.5t-8.5 13.5q0 10 7.5 15t18 7t21.5 2h17q16 0 29.5 -4.5t21.5 -19.5q1 -5 1 -23v-43.5v-54.5t-0.5 -55.5t-0.5 -47v-28.5q12 13 22.5 21.5t21.5 13.5t25 7t33 2zM218 53
q28 0 45.5 15.5t27.5 38.5t13 49t3 48q0 24 -1.5 62t-10.5 74t-28 61.5t-54 25.5q-29 0 -47 -17.5t-27.5 -43t-12.5 -53.5t-3 -49v-63t8 -69t27.5 -56t59.5 -23z" />
    <glyph glyph-name="ydieresis" unicode="&#xff;" horiz-adv-x="440" 
d="M146 465q12 0 23 -6.5t11 -20.5t-9 -16t-19.5 -5t-19.5 -12t-9 -35q0 -37 6 -78t19 -81t32.5 -76t46.5 -63q3 2 10.5 25t17 57t20 74t19 75.5t14 61.5t5.5 33q0 11 -6.5 15.5t-14.5 7.5t-14.5 8t-6.5 16q0 9 8 14t16 5h103q9 0 20.5 -6t11.5 -17q0 -12 -7 -16.5t-16 -7.5
t-18.5 -8.5t-13.5 -20.5q-32 -116 -62 -231.5t-59 -232.5q-8 -32 -14.5 -64t-20.5 -61q-16 -35 -40.5 -48t-61.5 -13q-10 0 -19 3t-18 3q-7 0 -14 -2.5t-14 -2.5q-8 0 -15.5 12t-13.5 27.5t-10 31t-4 22.5t4 15.5t13 8.5q12 0 18.5 -9.5t14.5 -21t21 -21t37 -9.5q31 0 45 26
q7 12 15.5 35t16.5 48t13.5 48.5t5.5 37.5q0 9 -5 17.5t-11.5 16t-14 15t-12.5 14.5q-31 43 -57 92.5t-38 101.5q-3 14 -5 36.5t-4 45.5t-5 43.5t-9 30.5q-3 4 -10 9.5t-14.5 11.5t-13 11t-5.5 10q0 12 18.5 17t42 5.5t46 -1t30.5 -1.5zM283 677q22 0 29 -16t7 -34
q0 -17 -8 -31.5t-28 -14.5q-22 0 -29.5 15t-7.5 34t8 33t29 14zM158 677q21 0 28.5 -16t7.5 -34q0 -17 -8.5 -31.5t-27.5 -14.5q-23 0 -30 15t-7 34t7.5 33t29.5 14z" />
    <glyph glyph-name="dotlessi" unicode="&#x131;" horiz-adv-x="175" 
d="M39 470h68h5q6 0 15 -1t17 -3.5t14 -7.5t6 -13q0 -7 -6 -11t-14 -8t-15 -8.5t-10 -13.5q-4 -11 -4 -21.5v-20.5v-28.5t-0.5 -54t0 -68t2 -69t3.5 -56.5t6 -32q10 -5 23 -9t13 -19q0 -12 -5 -17.5t-13 -7.5t-17 -2h-17q-7 0 -22.5 0.5t-31.5 3t-28.5 8t-12.5 16.5
q0 9 5.5 14t12.5 8.5t13 7.5t8 12q4 20 4.5 42t0.5 43q0 59 -3 117.5t2 117.5q-7 21 -13 28t-11.5 8.5t-11.5 3.5t-13 13q0 12 9 20t21 8z" />
    <glyph glyph-name="OE" unicode="&#x152;" horiz-adv-x="798" 
d="M700 720q10 0 18.5 -12.5t14.5 -29t9.5 -33t3.5 -24.5t-5.5 -14t-13.5 -6q-13 0 -19 10t-16 22.5t-29 22.5t-56 10q-8 0 -32.5 0.5t-50.5 -0.5t-46.5 -4.5t-20.5 -10.5q-3 -8 -4.5 -28.5t-2.5 -44.5t-1 -46.5v-32.5q0 -15 6 -21t21 -6l122 -1q9 0 28 -0.5t39 0t36.5 3.5
t21.5 10q6 10 10.5 20t12.5 18l7 1q13 0 19 -12t8 -27.5t2 -31.5v-25q0 -7 -0.5 -18.5t-3 -22t-8.5 -18.5t-16 -8q-3 0 -6 1l-6 2q-8 9 -12.5 20.5t-14.5 21.5q-7 7 -37 10.5t-66 5t-70 2t-47 0.5q-18 0 -28 -4t-14.5 -12t-5 -20t-0.5 -28q0 -59 3 -116.5t3 -116.5
q0 -14 -2.5 -27.5t-2.5 -27.5l1 -13q8 -1 14 -1h14q17 0 47 -0.5t61.5 0t59.5 3.5t40 10q6 3 15 12l18.5 18.5t18 17t13.5 7.5q8 0 16 -6t8 -15q0 -6 -7.5 -23.5t-18 -36t-21 -32.5t-15.5 -14q-50 4 -82 5t-52.5 0.5t-33 -1.5t-22.5 -1h-150q-8 0 -17.5 1t-17.5 5
q-32 -7 -68 -7q-77 0 -127 33t-79.5 86t-41.5 118t-12 130q0 58 13.5 121.5t43.5 117t78.5 88t118.5 34.5q49 0 92 -13q34 4 78.5 5.5t91.5 1.5t92.5 -1t82.5 -1zM381 582q0 14 -1 29t-3 29l-4 -2q-21 16 -46.5 23.5t-51.5 7.5q-42 0 -72.5 -17t-51.5 -45t-34 -64t-20 -74.5
t-9.5 -76t-2.5 -67.5q0 -46 10 -93.5t33.5 -86.5t60.5 -64t91 -25q57 0 98 39q-1 122 1 243.5t2 243.5z" />
    <glyph glyph-name="oe" unicode="&#x153;" horiz-adv-x="584" 
d="M411 477q38 0 63.5 -7.5t42.5 -23.5t27.5 -41.5t18.5 -60.5l1 -7q0 -11 -15 -21.5t-38 -22t-50.5 -22.5t-53 -23t-45.5 -24t-27 -25l-1 -8q0 -24 8 -47.5t22.5 -42t35 -30.5t46.5 -12q28 0 44 13.5t26.5 30t19 30.5t21.5 14q11 0 14.5 -7t3.5 -16q0 -24 -14 -46.5
t-36 -40t-47.5 -27.5t-48.5 -10q-19 0 -39 6.5t-38 17.5t-33 25.5t-25 30.5q-17 -37 -47.5 -58.5t-72.5 -21.5q-56 0 -89 28t-50 70.5t-22 92t-5 92.5q0 36 9 71.5t28.5 64t49 46.5t70.5 18q44 0 78 -20t54 -58q18 33 47 52.5t67 19.5zM74 272q0 -26 2 -63t11.5 -70.5
t30 -57t57.5 -23.5q22 0 37.5 15.5t25.5 38t15 46.5t5 41v86q0 25 -4 50t-15 45.5t-30 33.5t-49 13q-24 0 -40.5 -17.5t-26.5 -42.5t-14.5 -51t-4.5 -44zM331 290l1 -15q2 0 5.5 -1.5t5.5 -1.5q6 0 28 10t47 23t45 25.5t21 17.5v10q0 34 -23 50t-53 16q-18 0 -32 -15.5
t-24 -37t-15.5 -44.5t-5.5 -37z" />
    <glyph glyph-name="Scaron" unicode="&#x160;" horiz-adv-x="489" 
d="M235 734q17 0 35 -4.5t34 -9.5t28.5 -9.5t18.5 -4.5q12 0 20 9t19 9q9 0 17.5 -14.5t15 -33.5t10.5 -37t4 -25q0 -22 -20 -22q-13 0 -26.5 13.5t-33 29.5t-47.5 29.5t-70 13.5q-48 0 -81.5 -25t-33.5 -77q0 -33 26 -57.5t65.5 -46.5t85.5 -44.5t85.5 -52t65.5 -69
t26 -95.5q0 -54 -18 -94t-50 -65.5t-75.5 -38t-94.5 -12.5q-23 0 -44 4t-37.5 9.5l-28.5 9.5t-17 4q-12 0 -19.5 -10t-19.5 -10q-3 0 -9 9t-13.5 23t-15 30.5t-14 31.5t-10.5 26t-4 14q0 13 9 21q4 1 7.5 2t6.5 1q15 0 30 -16.5t39 -36t59.5 -36t91.5 -16.5q69 0 111.5 37.5
t42.5 109.5q0 35 -20.5 63.5t-52.5 53t-70.5 45.5t-75 41.5t-66 41.5t-42.5 45q-11 18 -14 38t-3 42q0 37 14 66t37.5 49t55 30.5t66.5 10.5zM111 868q0 12 8.5 20t20.5 8q5 0 20.5 -9.5t33.5 -22t33.5 -24.5t21.5 -16q6 4 20.5 15t30 22t29.5 20t20 9q11 0 19.5 -8t8.5 -19
q0 -7 -17 -24t-39 -34.5t-42.5 -31t-26.5 -13.5q-9 0 -32 14t-47.5 32t-43 36t-18.5 26z" />
    <glyph glyph-name="scaron" unicode="&#x161;" horiz-adv-x="329" 
d="M143 478q18 0 34.5 -6.5t33.5 -6.5q7 0 13.5 2.5t13.5 2.5q9 0 16.5 -11t13 -25.5t8 -29t2.5 -21.5q0 -4 -2 -12l-7 -7q-15 3 -25.5 13.5t-23 21.5t-30.5 20t-48 9q-20 0 -34 -12t-14 -32q0 -23 16.5 -39t41 -30.5t53.5 -29.5t53.5 -35t41 -48t16.5 -68q0 -26 -11 -50.5
t-30 -43t-43 -30t-51 -11.5q-12 0 -24 3.5t-23 8t-23 8.5t-24 4q-9 0 -15.5 -8t-15.5 -8q-10 0 -19 16t-15.5 36.5t-10.5 40.5t-4 28l14 6q12 0 22.5 -11.5t25.5 -26t37.5 -26t59.5 -11.5q35 0 61 19.5t26 56.5q0 29 -16 49t-40 36.5t-52.5 31.5t-52.5 34t-40 44.5t-16 61.5
q0 20 10 36t25.5 27t34.5 17t37 6zM31 678q0 12 9 20t20 8q5 0 20.5 -9.5t33.5 -22t33.5 -24.5t21.5 -16q6 4 20.5 15t30 22t29.5 20t20 9q11 0 19.5 -8t8.5 -19q0 -7 -17 -24t-39 -34.5t-42.5 -31t-26.5 -13.5q-9 0 -32 14t-47.5 32t-43 36t-18.5 26z" />
    <glyph glyph-name="Ydieresis" unicode="&#x178;" horiz-adv-x="612" 
d="M101 733q8 0 24 -0.5t31.5 -3.5t27.5 -9.5t12 -19.5t-10 -16q-4 -3 -12.5 -7.5t-8.5 -9.5q0 -3 9 -17.5t23 -34.5t31 -43t32 -44.5t27 -38t17 -22.5l11 -5q4 0 15 12t24.5 29.5t28.5 38t27.5 38t21 30t9.5 13.5q2 3 7 8.5t10.5 11t9.5 10.5t4 8q0 9 -6 12.5t-13 6.5
t-13 8t-6 16q4 12 11.5 18t16.5 7.5t19.5 1t21.5 -0.5q8 0 25 -0.5t33.5 -3.5t29 -10t12.5 -20q0 -8 -5 -13.5t-12.5 -8.5t-16 -5t-14.5 -4q-8 -7 -27 -28.5t-42 -50.5t-48 -61.5t-45.5 -62t-33.5 -52t-13 -30.5q0 -35 2 -68.5t2 -68.5q0 -32 -3.5 -62.5t-3.5 -62.5
q0 -11 0.5 -21.5t2.5 -20.5q2 -12 10.5 -16t17.5 -7t16.5 -7.5t7.5 -16.5q0 -10 -12.5 -15t-29 -7.5t-32.5 -3t-24 -0.5q-7 0 -20.5 0.5t-27 3.5t-24 9t-10.5 16q0 16 9 19.5t20 7t20 14.5t9 43v42v56.5t-0.5 62.5t-2 59.5t-4.5 47.5t-7 26q-6 8 -21 30.5t-34.5 51
t-41.5 59.5t-41.5 57.5t-33.5 44.5t-18 20q-7 3 -17.5 5t-20.5 5.5t-17 9t-7 16.5q0 12 11 17t26 6.5t30.5 1t23.5 -0.5zM369 867q21 0 28.5 -16t7.5 -34q0 -17 -8.5 -31.5t-27.5 -14.5q-23 0 -30 15t-7 34t7.5 33t29.5 14zM243 867q22 0 29 -16t7 -34q0 -17 -8 -31.5
t-28 -14.5q-22 0 -29.5 15t-7.5 34t8 33t29 14z" />
    <glyph glyph-name="Zcaron" unicode="&#x17d;" horiz-adv-x="477" 
d="M411 720q8 0 15.5 -5.5t7.5 -13.5q0 -58 -25 -117.5t-63 -118t-82 -114.5t-82 -107.5t-63 -97t-25 -82.5q0 -11 8.5 -13t16.5 -2q15 0 49.5 0.5t72 2t69 4t41.5 7.5t23 17.5t26.5 26t25.5 24t20 10.5q10 0 16 -8.5t6 -16.5q0 -14 -6.5 -27t-12.5 -26q-6 -15 -9.5 -27
t-9 -20.5t-16 -13t-29.5 -4.5q-88 0 -174 -1.5t-173 -1.5q-10 0 -19 7t-9 18q0 52 25 108t62 112.5t80.5 111.5t80.5 107t62 98.5t25 84.5q0 7 -2 17q-8 3 -17 3.5t-17 0.5h-76q-41 0 -64.5 -10t-37.5 -21.5t-22.5 -21.5t-19.5 -10q-9 0 -15.5 9t-6.5 17q0 14 9.5 30.5
t15.5 29.5q9 18 20.5 24.5t31.5 6.5q68 0 134 1.5t133 1.5zM105 868q0 12 9 20t20 8q5 0 20.5 -9.5t33.5 -22t33.5 -24.5t21.5 -16q6 4 20.5 15t30 22t29.5 20t20 9q11 0 19.5 -8t8.5 -19q0 -7 -17 -24t-39 -34.5t-42.5 -31t-26.5 -13.5q-9 0 -32 14t-47.5 32t-43 36
t-18.5 26z" />
    <glyph glyph-name="zcaron" unicode="&#x17e;" horiz-adv-x="325" 
d="M273 471q8 0 15.5 -4.5t7.5 -15.5q0 -30 -16 -66.5t-39.5 -75.5t-51 -77t-51 -70.5t-39.5 -56t-16 -33.5t9 -13t17 -3h62q39 0 57.5 9t28 20t16.5 20t22 9q10 0 15.5 -8.5t5.5 -17.5q0 -8 -4 -22.5t-10.5 -29t-15 -25.5t-17.5 -11h-236q-8 0 -15.5 5.5t-7.5 13.5
q0 38 15.5 76t38 74.5t49.5 70.5t49.5 64t38 55t15.5 43q0 6 -4.5 9t-10.5 4.5t-12.5 2t-10.5 0.5q-37 0 -60 -7.5t-37.5 -17t-22 -17t-13.5 -7.5q-17 0 -17 17q0 42 17.5 65t59.5 23t84 -1.5t84 -1.5zM29 678q0 12 9 20t20 8q5 0 20.5 -9.5t33.5 -22t33.5 -24.5t21.5 -16
q6 4 20.5 15t30 22t29.5 20t20 9q11 0 19.5 -8t8.5 -19q0 -7 -17 -24t-39 -34.5t-42.5 -31t-26.5 -13.5q-9 0 -32 14t-47.5 32t-43 36t-18.5 26z" />
    <glyph glyph-name="longs" unicode="&#x17f;" horiz-adv-x="207" 
d="M92 721q20 0 37.5 -5t47.5 -5q17 0 17 -18q0 -7 -5 -20.5t-12 -27t-15.5 -23.5t-15.5 -10q-12 0 -15.5 8.5t-5.5 19t-8 19.5t-22 9q-13 0 -21.5 -8.5t-8.5 -22.5q0 -17 9.5 -26.5t21 -21.5t21 -29.5t9.5 -48.5q0 -30 3 -61t3 -61q0 -63 -2 -125.5t-2 -125.5
q0 -21 -0.5 -37t3.5 -27t15 -17.5t34 -8.5l7 -3q2 -6 2 -11q0 -15 -10 -22t-24 -9.5t-28.5 -2t-23.5 0.5t-23 -1t-26.5 0.5t-22 7t-9.5 18.5q0 10 4 15t10 7.5t13 4.5t13 7q2 2 4 18.5t3 40.5t1.5 52t0.5 53.5v45.5v28v27.5t-1 31.5t-3 31t-5 25q-3 9 -10.5 13t-15 7
t-13.5 7t-6 13q0 13 8 15.5t17 4t17 7t8 23.5q0 24 -9.5 38t-21 27t-21 28.5t-9.5 41.5q0 36 25.5 59.5t60.5 23.5z" />
    <glyph glyph-name="circumflex" unicode="&#x2c6;" horiz-adv-x="287" 
d="M156 707q6 0 26.5 -13.5t42.5 -31t39 -34.5t17 -24q0 -11 -8.5 -19t-19.5 -8q-6 0 -20 9t-29.5 20t-30 22t-20.5 15q-6 -5 -22 -16.5t-33.5 -24t-33 -22t-20.5 -9.5q-12 0 -20.5 7.5t-8.5 19.5q0 8 18.5 26t43 36.5t47.5 32.5t32 14z" />
    <glyph glyph-name="caron" unicode="&#x2c7;" horiz-adv-x="287" 
d="M15 678q0 12 8.5 20t20.5 8q5 0 20.5 -9.5t33.5 -22t33.5 -24.5t21.5 -16q6 4 20.5 15t30 22t29.5 20t20 9q11 0 19.5 -8t8.5 -19q0 -7 -17 -24t-39 -34.5t-42.5 -31t-26.5 -13.5q-9 0 -32 14t-47.5 32t-43 36t-18.5 26z" />
    <glyph glyph-name="ring" unicode="&#x2da;" horiz-adv-x="287" 
d="M125 635q0 -9 4.5 -22.5t15.5 -13.5h6q18 11 18 33q0 10 -6 25t-19 15q-5 0 -9 -4.5t-6 -10.5t-3 -12.5t-1 -9.5zM66 639q0 16 6 32.5t16.5 29.5t24.5 21.5t31 8.5q18 0 33.5 -9t26.5 -22.5t17 -31t6 -33.5q0 -36 -20.5 -65t-59.5 -29q-20 0 -35 8.5t-25.5 22.5
t-15.5 31.5t-5 35.5z" />
    <glyph glyph-name="tilde" unicode="&#x2dc;" horiz-adv-x="287" 
d="M15 572q-11 0 -19 8t-8 20q0 3 1 7t1 7q10 12 21 25t24 23.5t28 17t32 6.5q20 0 36.5 -8.5t31.5 -18t28 -18t26 -8.5h2q9 6 14.5 15.5t10.5 18.5t12 16t19 7q11 0 19.5 -8.5t8.5 -19.5q0 -14 -8 -29.5t-20.5 -28.5t-27.5 -21.5t-29 -8.5q-18 0 -34 8t-31 17.5t-29.5 17.5
t-29.5 8t-24.5 -8.5t-17.5 -18t-16 -18t-21 -8.5z" />
    <glyph glyph-name="germandblS" unicode="&#x1e9e;" horiz-adv-x="532" 
d="M294 58q43 0 70 18t43 46.5t22 63.5t6 70q0 31 -10.5 58t-29 47t-45 31.5t-57.5 11.5q-12 0 -24 -3.5t-24 -8t-23.5 -8t-22.5 -3.5q-8 0 -11 4.5t-3 10.5q0 8 13.5 28t33.5 46t43.5 55t43.5 55.5t33.5 47.5t14.5 31q-43 4 -84.5 6t-84.5 2h-22t-22 -2q-5 -3 -7.5 -31.5
t-4 -69.5t-2 -89t-0.5 -90.5t0.5 -74t0.5 -39.5v-154q0 -11 -0.5 -22.5t1.5 -22.5t10.5 -15t17.5 -7.5t16.5 -9t7.5 -18.5q0 -12 -11.5 -17t-21.5 -5h-106h-13t-13 2t-10 6.5t-4 12.5q0 11 5 17t12.5 9.5t16 7t14.5 10.5q3 1 5 28t3 67.5t1.5 88.5t1 92t0.5 77.5v45.5v159
q0 30 -8.5 39.5t-18 12t-18 5t-8.5 18.5q0 14 12 20.5t24 6.5q97 0 192.5 -1.5t192.5 -1.5q8 0 18.5 -1.5t10.5 -12.5q0 -8 -13 -27t-32.5 -44.5t-42.5 -53.5t-42.5 -54t-33 -46t-13.5 -29q17 -3 33 -3t32 -5q76 -19 113.5 -70.5t37.5 -129.5q0 -56 -14 -102t-42.5 -79
t-72 -51t-101.5 -18q-6 0 -15 1t-17 4t-13.5 8.5t-5.5 14.5q0 13 7 20t17 10t21.5 3.5t19.5 0.5z" />
    <glyph glyph-name="endash" unicode="&#x2013;" horiz-adv-x="425" 
d="M73 255q-10 0 -18 10t-8 19q0 11 7.5 19t18.5 10q16 4 53 4.5t79.5 -0.5t82.5 -2t61 -1q12 0 21 -8.5t9 -20.5q0 -13 -9 -20.5t-21 -8.5q-65 -8 -137.5 -4.5t-138.5 3.5z" />
    <glyph glyph-name="emdash" unicode="&#x2014;" horiz-adv-x="637" 
d="M73 255q-10 0 -18 10t-8 19q0 12 8 19t18 10q2 1 34 1.5t79.5 0.5h104h107.5h90h52q12 0 21 -8.5t9 -20.5q0 -14 -9 -21t-21 -9q-29 -5 -65 -2.5t-65 2.5q-85 0 -168.5 -0.5t-168.5 -0.5z" />
    <glyph glyph-name="quoteleft" unicode="&#x2018;" horiz-adv-x="213" 
d="M104 498q-30 0 -43 22t-13 49q0 20 6 43.5t18 44t30 34.5t42 14q9 0 15 -6t6 -14q0 -13 -9 -21t-20.5 -16.5t-20.5 -20.5t-9 -33q0 -7 2 -15q18 -1 28 -13t10 -29t-12.5 -28t-29.5 -11z" />
    <glyph glyph-name="quoteright" unicode="&#x2019;" horiz-adv-x="213" 
d="M108 704q31 0 43.5 -22t12.5 -49q0 -20 -6 -44t-18 -44.5t-30 -34t-42 -13.5q-8 0 -14.5 5.5t-6.5 14.5q0 13 9 21t20.5 16.5t20.5 20.5t9 33q0 5 -2 15q-17 1 -27.5 13t-10.5 29t12.5 28t29.5 11z" />
    <glyph glyph-name="quotesinglbase" unicode="&#x201a;" horiz-adv-x="213" 
d="M108 77q31 0 43.5 -22t12.5 -49q0 -20 -6 -44t-18 -44.5t-30 -34t-42 -13.5q-8 0 -14.5 5.5t-6.5 14.5q0 13 9 21t20.5 16.5t20.5 20.5t9 33q0 5 -2 15q-17 1 -27.5 13t-10.5 29t12.5 28t29.5 11z" />
    <glyph glyph-name="quotedblleft" unicode="&#x201c;" horiz-adv-x="334" 
d="M104 510q-30 0 -43 22t-13 49q0 20 6 44t18 44.5t30 34t42 13.5q9 0 15 -5.5t6 -14.5q0 -13 -9 -21t-20.5 -16.5t-20.5 -20.5t-9 -33q0 -5 2 -15q18 -1 28 -13t10 -29t-12.5 -28t-29.5 -11zM226 510q-31 0 -43.5 22t-12.5 49q0 20 6 44t18 44.5t30 34t42 13.5
q8 0 14.5 -5.5t6.5 -14.5q0 -13 -9 -21t-20.5 -16.5t-20.5 -20.5t-9 -33q0 -5 2 -15q18 -1 28 -13t10 -29t-12.5 -28t-29.5 -11z" />
    <glyph glyph-name="quotedblright" unicode="&#x201d;" horiz-adv-x="334" 
d="M230 716q31 0 43.5 -22t12.5 -49q0 -20 -6 -43.5t-18 -44t-30 -34.5t-42 -14q-8 0 -14.5 6t-6.5 14q0 13 9 21t20.5 16.5t20.5 20.5t9 33q0 6 -2 16q-18 0 -28 12t-10 29t12.5 28t29.5 11zM108 716q31 0 43.5 -22t12.5 -49q0 -20 -6 -43.5t-18 -44t-30 -34.5t-42 -14
q-8 0 -14.5 6t-6.5 14q0 13 9 21t20.5 16.5t20.5 20.5t9 33q0 6 -2 16q-17 0 -27.5 12t-10.5 29t12.5 28t29.5 11z" />
    <glyph glyph-name="quotedblbase" unicode="&#x201e;" horiz-adv-x="334" 
d="M230 77q31 0 43.5 -22t12.5 -49q0 -20 -6 -44t-18 -44.5t-30 -34t-42 -13.5q-8 0 -14.5 5.5t-6.5 14.5q0 13 9 21t20.5 16.5t20.5 20.5t9 33q0 5 -2 15q-18 1 -28 13t-10 29t12.5 28t29.5 11zM108 77q31 0 43.5 -22t12.5 -49q0 -20 -6 -44t-18 -44.5t-30 -34t-42 -13.5
q-8 0 -14.5 5.5t-6.5 14.5q0 13 9 21t20.5 16.5t20.5 20.5t9 33q0 5 -2 15q-17 1 -27.5 13t-10.5 29t12.5 28t29.5 11z" />
    <glyph glyph-name="bullet" unicode="&#x2022;" horiz-adv-x="266" 
d="M23 294q0 22 8.5 41.5t23 34t34 23t41.5 8.5t41.5 -8.5t34 -23t23 -34t8.5 -41.5t-8.5 -41.5t-23 -34.5t-34 -23.5t-41.5 -8.5t-41.5 8.5t-34 23.5t-23 34.5t-8.5 41.5z" />
    <glyph glyph-name="ellipsis" unicode="&#x2026;" horiz-adv-x="470" 
d="M84 77q17 0 29.5 -12.5t12.5 -30.5q0 -14 -12.5 -26t-26.5 -12q-17 0 -28.5 12.5t-11.5 29.5q0 14 11 26.5t26 12.5zM232 77q18 0 30.5 -12.5t12.5 -30.5q0 -14 -12.5 -26t-26.5 -12q-18 0 -29 12.5t-11 29.5q0 14 10.5 26.5t25.5 12.5zM380 77q18 0 30.5 -12.5
t12.5 -30.5q0 -14 -12.5 -26t-26.5 -12q-18 0 -29 12.5t-11 29.5q0 14 10.5 26.5t25.5 12.5z" />
    <glyph glyph-name="perthousand" unicode="&#x2030;" horiz-adv-x="828" 
d="M106 562q0 -15 5 -30t14.5 -27t22.5 -19.5t30 -7.5t30 7.5t21.5 19.5t13 27t4.5 30t-4.5 30.5t-13 27.5t-21 19.5t-29.5 7.5t-30.5 -7.5t-23 -19.5t-14.5 -27.5t-5 -30.5zM47 567q0 25 9.5 50.5t26 45.5t39 32.5t49.5 12.5q29 0 53.5 -12.5t42.5 -33t28.5 -46.5t10.5 -54
t-10.5 -54t-28.5 -46.5t-42.5 -32.5t-53.5 -12q-30 0 -53 13.5t-38.5 35t-24 48t-8.5 53.5zM101 13q-12 0 -20 8.5t-8 20.5q0 1 14 28t37.5 71t53.5 100.5t62 116t63 117t56.5 104.5t43 78t22.5 37q4 7 11 11t15 4q18 0 22.5 -12t4.5 -26q0 -2 -15.5 -31t-39 -72.5t-52 -95
t-54 -98t-44.5 -81.5t-25 -45q-12 -22 -27.5 -53.5t-32 -64t-33 -61.5t-31.5 -46q-4 -5 -10.5 -7.5t-12.5 -2.5zM592 143q0 -15 5 -30t14 -27t22 -19.5t30 -7.5q18 0 31 7.5t21.5 19.5t12.5 27t4 30t-4 30.5t-12.5 27.5t-21.5 19.5t-30 7.5t-30.5 -7.5t-22.5 -19.5
t-14 -27.5t-5 -30.5zM533 148q0 25 9 50.5t25.5 45.5t39 32.5t49.5 12.5q29 0 53.5 -12.5t42.5 -33t28.5 -46.5t10.5 -54t-10.5 -54t-28.5 -46.5t-42.5 -32.5t-53.5 -12t-52 13.5t-39 35t-24 48t-8 53.5zM295 143q0 -15 5 -30t14.5 -27t22.5 -19.5t30 -7.5t30 7.5t21.5 19.5
t13 27t4.5 30t-4.5 30.5t-13 27.5t-21 19.5t-29.5 7.5t-30.5 -7.5t-23 -19.5t-14.5 -27.5t-5 -30.5zM237 148q0 25 9 50.5t25.5 45.5t39 32.5t49.5 12.5q29 0 53.5 -12.5t42.5 -33t28.5 -46.5t10.5 -54t-10.5 -54t-28.5 -46.5t-42.5 -32.5t-53.5 -12q-30 0 -52.5 13.5
t-38.5 35t-24 48t-8 53.5z" />
    <glyph glyph-name="guilsinglleft" unicode="&#x2039;" horiz-adv-x="260" 
d="M47 179q0 4 9 18.5t22.5 33.5t30 39.5t32 38t27.5 29t17 11.5q11 0 19.5 -9t8.5 -20q0 -6 -14 -26t-31.5 -43.5t-34 -44.5t-22.5 -29q4 -5 13 -16.5t20 -26.5t23.5 -31.5t22.5 -31t16.5 -26t6.5 -15.5q0 -11 -8.5 -19.5t-19.5 -8.5q-6 0 -18 11.5t-27.5 29t-32 39t-30 41
t-22 35t-8.5 21.5z" />
    <glyph glyph-name="guilsinglright" unicode="&#x203a;" horiz-adv-x="260" 
d="M75 2q-11 0 -19.5 8.5t-8.5 19.5q0 4 6.5 15.5t16.5 26t22.5 31t23.5 31.5t20 26.5t13 16.5q-6 8 -22.5 29t-34 44.5t-31.5 43.5t-14 26q0 11 8.5 20t19.5 9q5 0 17 -11.5t27.5 -29t32 -38t30 -39.5t22.5 -33.5t9 -18.5q0 -6 -8.5 -21.5t-22 -35t-30 -41t-32 -39t-28 -29
t-17.5 -11.5z" />
    <glyph glyph-name="Euro" unicode="&#x20ac;" horiz-adv-x="566" 
d="M21 333q0 20 15.5 26t31.5 4q-1 9 -0.5 18t0.5 18v16q-16 -2 -31.5 4t-15.5 26q0 11 5.5 17.5t13.5 9t18 3t18 -0.5q10 52 33 98.5t58.5 81t81.5 54.5t102 20q15 0 29 -4t28 -8.5t28 -8.5t28 -4q11 0 19 7.5t19 7.5q8 0 17.5 -19t18 -43t14 -46.5t5.5 -28.5
q0 -10 -7.5 -15.5t-16.5 -5.5q-15 0 -26 17t-28 38t-46.5 38t-80.5 17q-12 0 -30 -5t-37 -12.5t-35.5 -16.5t-25.5 -17q-12 -11 -22.5 -29t-19 -38.5t-14.5 -41t-10 -36.5q65 1 130 1.5t130 0.5q12 0 21 -8.5t9 -21.5t-9 -20t-21 -9q-30 -4 -64 -4.5t-69.5 0t-70.5 1.5
t-66 1q-2 -13 -1.5 -26t0.5 -26q48 1 96 1.5t96 0.5q12 0 21.5 -9t9.5 -21q0 -13 -9.5 -20t-21.5 -9q-45 -6 -94 -3.5t-95 1.5q4 -46 14.5 -90t32.5 -78.5t57.5 -55.5t90.5 -21q48 0 79.5 19t52 41.5t33 42t22.5 19.5q19 -3 19 -22q0 -35 -22 -65t-54.5 -52t-70 -34.5
t-68.5 -12.5q-65 0 -113 27t-80.5 70.5t-50 99t-21.5 112.5q-16 -2 -33 3.5t-17 25.5z" />
    <glyph glyph-name="trademark" unicode="&#x2122;" horiz-adv-x="794" 
d="M370 674q0 18 13 24.5t28 6.5h56q14 0 26.5 -8.5t12.5 -24.5q0 -10 -4.5 -16t-12.5 -11q11 -21 23 -42t24 -41q11 20 21.5 40.5t20.5 40.5q-10 6 -15.5 11.5t-5.5 18.5q0 23 13.5 27.5t31.5 4.5q10 0 26 0.5t31 -2t25.5 -9t10.5 -21.5q0 -14 -5.5 -20.5t-16.5 -11.5h-1
q0 -30 6.5 -61t14.5 -62.5t16 -62.5t13 -61q0 -3 1.5 -15t4 -24.5t6 -22.5t7.5 -10q16 0 24.5 -10t8.5 -25q0 -12 -9.5 -21.5t-21.5 -9.5q-13 0 -31.5 -1t-36 2t-30 11t-12.5 26q3 10 7.5 15t14.5 9h-1l5 1q-1 29 -6 60t-12 62.5t-15 62.5t-14 60q-12 -22 -24.5 -44
t-23.5 -45v1q-4 -11 -11 -19t-21 -8q-9 0 -21.5 14.5t-25 34t-23 38.5t-14.5 28q-2 -7 -5.5 -27t-8.5 -46t-10.5 -54.5t-9.5 -53.5t-7 -42.5t-3 -21.5q14 -5 22.5 -9.5t8.5 -22.5q0 -14 -11 -21t-23 -7q-10 0 -27 -0.5t-33 2t-28 9.5t-12 22t8 21t21 12h-1l6 2q1 5 6.5 29.5
t12.5 59t14.5 73t14.5 71.5t11 55.5t4 24.5h-4q-12 5 -18 12.5t-6 21.5zM79 708h195q15 0 25 -9t16.5 -22.5t9.5 -28.5t3 -26q0 -30 -30 -30q-4 0 -9 1.5t-9 3.5q-11 10 -16 18t-11 13.5t-15.5 8t-27.5 2.5q-3 0 -7 -2v-8q0 -75 -2 -153t4 -153l7 -5h-1q12 -2 19.5 -7.5
t7.5 -19.5q0 -4 -3.5 -9.5t-8 -10.5t-9.5 -8.5t-9 -3.5q-12 0 -31.5 -1.5t-37.5 0t-31.5 9t-13.5 24.5q0 15 5 20.5t11.5 8t11.5 4t5 9.5l-2 304v-2q-29 0 -42 -7t-19.5 -15.5t-12.5 -15.5t-20 -7q-10 0 -20.5 8.5t-10.5 18.5t3 18l6 16v-1q9 16 11 27t6 18t15 10t38 3z
M579 650v-2v1v1z" />
    </font>
</defs>
</svg>
