<?xml version="1.0" standalone="no"?>
<!DOCTYPE svg PUBLIC "-//W3C//DTD SVG 1.1//EN" "http://www.w3.org/Graphics/SVG/1.1/DTD/svg11.dtd" >
<svg xmlns="http://www.w3.org/2000/svg" xmlns:xlink="http://www.w3.org/1999/xlink" version="1.1">
<metadata>
Created by FontForge 20170731 at Mon Mar 30 19:28:13 2020
 By Aleksey,,,
(c) Andriy Konstantynov, 2020
</metadata>
<defs>
<font id="." horiz-adv-x="1331" >
  <font-face 
    font-family="."
    font-weight="350"
    font-stretch="normal"
    units-per-em="2048"
    panose-1="0 0 0 0 0 0 0 0 0 0"
    ascent="1741"
    descent="-307"
    x-height="911"
    cap-height="1434"
    bbox="-88 -500 2413 1866"
    underline-thickness="102"
    underline-position="-766"
    unicode-range="U+000D-FB04"
  />
<missing-glyph horiz-adv-x="748" 
d="M68 0v1365h544v-1365h-544zM136 68h408v1229h-408v-1229z" />
    <glyph glyph-name="uniFB01" unicode="fi" horiz-adv-x="1216" 
d="M82 0v53h145v803q-39 4 -145 4v51h145v185q0 213 118.5 333.5t326.5 120.5q143 0 223 -60t80 -171q0 -50 -20 -77.5t-56 -27.5h-35l-28 33q16 19 16 70q0 90 -55 137t-158 47q-142 0 -222.5 -84.5t-80.5 -236.5q0 -61 10 -151t25 -118h346q175 0 289 19v-877h143v-53
h-432v53h145v809q-52 -6 -145 -6h-346v-803h182v-53h-471z" />
    <glyph glyph-name="uniFB02" unicode="fl" horiz-adv-x="1200" 
d="M82 53h145v803q-39 4 -145 4v51h145v199q0 214 104 327t302 113q70 0 125 -14q125 0 231 14v-1497h146v-53h-433v53h146v1438q-65 -8 -137 -8q-37 18 -97 18q-135 0 -206.5 -80.5t-71.5 -238.5q0 -65 9.5 -154t25.5 -117h303v-55h-303v-803h182v-53h-471v53z" />
    <glyph glyph-name="uniFB03" unicode="ffi" horiz-adv-x="1851" 
d="M553 0h-471v53h145v803q-39 4 -145 4v51h145v199q0 213 81.5 326.5t234.5 113.5q101 0 160 -45t59 -123q0 -84 -76 -84h-35l-26 27q12 18 12 53q0 61 -32 92t-91 31q-86 0 -132 -78t-46 -227q0 -77 9.5 -167.5t25.5 -117.5h491v185q0 213 119.5 333.5t325.5 120.5
q143 0 223 -60t80 -171q0 -50 -20 -77.5t-56 -27.5h-35l-26 33q14 21 14 70q0 90 -55 137t-158 47q-141 0 -221 -84.5t-80 -236.5q0 -58 9.5 -149.5t23.5 -119.5h348q172 0 286 19v-877h144v-53h-430v53h145v809q-55 -6 -145 -6h-348v-803h184v-53h-473v53h145v803h-491
v-803h182v-53z" />
    <glyph glyph-name="uniFB04" unicode="ffl" horiz-adv-x="1835" 
d="M553 0h-471v53h145v803q-39 4 -145 4v51h145v199q0 213 81.5 326.5t234.5 113.5q101 0 160 -45t59 -123q0 -84 -76 -84h-35l-26 27q12 18 12 53q0 61 -32 92t-91 31q-86 0 -132 -78t-46 -227q0 -77 9.5 -167.5t25.5 -117.5h491v199q0 214 104 327t302 113q70 0 125 -14
q125 0 231 14v-1497h145v-53h-432v53h146v1438q-63 -8 -137 -8q-34 18 -95 18q-135 0 -206.5 -80.5t-71.5 -238.5q0 -61 9.5 -152t23.5 -119h305v-55h-305v-803h184v-53h-473v53h145v803h-491v-803h182v-53z" />
    <glyph glyph-name=".notdef" horiz-adv-x="748" 
d="M68 0v1365h544v-1365h-544zM136 68h408v1229h-408v-1229z" />
    <glyph glyph-name="glyph1" horiz-adv-x="0" 
 />
    <glyph glyph-name="glyph1" horiz-adv-x="0" 
 />
    <glyph glyph-name="uni000D" unicode="&#xd;" horiz-adv-x="512" 
 />
    <glyph glyph-name="space" unicode=" " horiz-adv-x="518" 
 />
    <glyph glyph-name="exclam" unicode="!" horiz-adv-x="460" 
d="M201 473l-45 961h149l-45 -961h-59zM231 178q45 0 72 -26.5t27 -71.5q0 -44 -27.5 -71t-71.5 -27t-71 27t-27 71q0 45 26.5 71.5t71.5 26.5z" />
    <glyph glyph-name="quotedbl" unicode="&#x22;" horiz-adv-x="765" 
d="M156 1434h127l-37 -531h-53zM483 1434h129l-39 -531h-51z" />
    <glyph glyph-name="numbersign" unicode="#" horiz-adv-x="1193" 
d="M1036 401h-245l-78 -401h-56l78 401h-399l-78 -401h-55l78 401h-234v56h244l100 520h-233v55h245l78 402h56l-78 -402h399l78 402h55l-78 -402h234v-55h-244l-102 -520h235v-56zM348 457h397l101 520h-397z" />
    <glyph glyph-name="dollar" unicode="$" horiz-adv-x="1333" 
d="M145 1083q0 170 125 269.5t338 99.5q19 0 29 -2v188h55v-190q213 -25 328 -158l43 148h43v-406h-47q0 147 -99 241t-268 113v-583q283 -87 394.5 -181.5t111.5 -242.5q0 -184 -137.5 -290.5t-368.5 -106.5v-187h-55v189q-129 8 -232 51t-165 117l-45 -156h-45v405h49
q0 -156 118.5 -252.5t319.5 -105.5v619q-275 91 -383.5 183.5t-108.5 237.5zM692 643v-600q180 2 279.5 75.5t99.5 205.5q0 69 -33 120t-116 99.5t-230 99.5zM270 1126q0 -100 78.5 -167.5t288.5 -137.5v570q-56 0 -106 -7t-99 -25.5t-84 -47.5t-56.5 -76.5t-21.5 -108.5z
" />
    <glyph glyph-name="percent" unicode="%" horiz-adv-x="1697" 
d="M418 1452q153 0 240 -101t87 -276t-87 -276t-240 -101q-155 0 -242.5 101t-87.5 276t87.5 276t242.5 101zM1282 735q154 0 242 -101t88 -276t-88 -275.5t-242 -100.5t-242 100.5t-88 275.5t88 276t242 101zM205 1075q0 -158 55 -240.5t158 -82.5q102 0 156.5 83t54.5 240
q0 158 -54.5 241t-156.5 83q-103 0 -158 -83t-55 -241zM1071 358q0 -157 54.5 -240t156.5 -83t156.5 83t54.5 240q0 158 -54.5 241t-156.5 83t-156.5 -83t-54.5 -241zM467 0h-64l828 1434h65z" />
    <glyph glyph-name="ampersand" unicode="&#x26;" horiz-adv-x="1531" 
d="M123 379q0 88 28 158.5t82 122t110.5 86.5t135.5 71q-92 159 -92 295q0 153 99 246.5t264 93.5q144 0 223.5 -68t79.5 -186q0 -32 -7 -60.5t-16.5 -51.5t-29 -45.5t-35.5 -38.5t-45 -34.5t-49 -30t-56.5 -28t-57 -25l-61.5 -25.5q-11 -5 -17.5 -7.5t-16 -6.5t-17.5 -7
q75 -109 184 -232l265 -303q98 170 104 414l-156 18v47h373v-47l-155 -18q-9 -279 -127 -459l180 -205h149v-53h-301l-125 141q-176 -159 -442 -159q-221 0 -346 106t-125 291zM270 416q0 -165 102.5 -260t282.5 -95q205 0 342 125l-292 334q-124 142 -199 254
q-111 -61 -173.5 -145t-62.5 -213zM618 879q54 23 88.5 39t78.5 40t70.5 47t52 53t37 66t11.5 78q0 91 -54 144t-150 53q-108 0 -171 -65.5t-63 -174.5q0 -124 100 -280z" />
    <glyph glyph-name="quotesingle" unicode="'" horiz-adv-x="438" 
d="M193 903l-37 531h127l-37 -531h-53z" />
    <glyph glyph-name="parenleft" unicode="(" horiz-adv-x="598" 
d="M125 666q0 134 19.5 260.5t51.5 222.5t70 181t76 143.5t70 101t52 62.5l19 20l41 -41q-6 -6 -16.5 -18t-40.5 -55.5t-57 -94t-60 -133.5t-57 -174t-40.5 -216t-16.5 -259q0 -127 15 -247t36 -206.5t54 -171t56 -132.5t57 -99t42.5 -62t25.5 -30l2 -3l-41 -41
q-7 7 -20 20.5t-50.5 61.5t-71 102t-75 142.5t-71 182.5t-50 221.5t-20.5 261.5z" />
    <glyph glyph-name="parenright" unicode=")" horiz-adv-x="598" 
d="M74 1616l41 41q7 -7 20 -20.5t50.5 -61.5t71 -102t75 -142t71 -182t50 -221.5t20.5 -261.5t-19.5 -261t-51.5 -223t-70 -181t-76 -143.5t-70 -101t-52 -62.5l-19 -20l-41 41l2 3q13 14 25.5 29.5t43 63t56 98t57 133t53 170.5t36.5 207.5t15 246.5q0 134 -16 258.5
t-41.5 217t-56 173t-61 134.5t-56 93t-41.5 56z" />
    <glyph glyph-name="asterisk" unicode="*" horiz-adv-x="931" 
d="M424 1055l-322 71l35 109l303 -129l-30 328h112l-28 -328l303 129l34 -109l-323 -71l217 -250l-90 -66l-168 285l-168 -285l-92 66z" />
    <glyph glyph-name="plus" unicode="+" 
d="M637 688h-432v57h432v433h57v-433h432v-57h-432v-432h-57v432z" />
    <glyph glyph-name="comma" unicode="," horiz-adv-x="456" 
d="M252 -4q-55 0 -85 19t-30 71q0 43 24.5 68.5t67.5 25.5q44 0 69.5 -25t25.5 -67q0 -160 -55 -252t-152 -92v59q52 0 87.5 51t47.5 142z" />
    <glyph glyph-name="hyphen" unicode="-" horiz-adv-x="716" 
d="M575 444h-432v58h432v-58z" />
    <glyph glyph-name="period" unicode="." horiz-adv-x="460" 
d="M133 80q0 45 26.5 71.5t71.5 26.5t72 -26.5t27 -71.5q0 -44 -27.5 -71t-71.5 -27t-71 27t-27 71z" />
    <glyph glyph-name="slash" unicode="/" horiz-adv-x="874" 
d="M0 -190l823 1765l51 -25l-823 -1765z" />
    <glyph glyph-name="zero" unicode="0" horiz-adv-x="1386" 
d="M692 1452q265 0 417.5 -196.5t152.5 -538.5t-152.5 -538.5t-417.5 -196.5q-264 0 -415.5 197t-151.5 538t151.5 538t415.5 197zM274 717q0 -336 107.5 -509t310.5 -173q204 0 312 173t108 509t-108 509t-312 173q-203 0 -310.5 -173t-107.5 -509z" />
    <glyph glyph-name="one" unicode="1" horiz-adv-x="862" 
d="M129 1313v53q208 0 389 82v-1395h230v-53h-598v53h229v1303q-128 -43 -250 -43z" />
    <glyph glyph-name="two" unicode="2" horiz-adv-x="1290" 
d="M621 1452q224 0 354.5 -94.5t130.5 -257.5q0 -88 -44 -179.5t-113 -168.5t-162.5 -163t-181.5 -156.5t-183.5 -156.5t-155.5 -155h813v149h54v-270h-983v61q36 60 101.5 131.5t138 138.5t153.5 141.5t153.5 151t131.5 154.5t93.5 165.5t34.5 172.5q0 137 -89 210t-251 73
t-252 -73t-90 -212q0 -50 17 -94l-29 -27h-37q-36 0 -57 33.5t-21 89.5q0 156 128.5 246t345.5 90z" />
    <glyph glyph-name="three" unicode="3" horiz-adv-x="1312" 
d="M145 311q0 55 21 87t59 32h35l29 -29q-15 -47 -15 -92q0 -133 90.5 -203.5t260.5 -70.5q191 0 294 87.5t103 256.5q0 158 -90 242t-262 84h-152v55h103q342 0 342 323q0 155 -85 235.5t-255 80.5q-160 0 -251 -72t-91 -205q0 -49 14 -90l-29 -28h-35q-38 0 -58.5 31.5
t-20.5 86.5q0 153 128.5 241.5t344.5 88.5q231 0 359 -100.5t128 -274.5q0 -124 -67 -211t-191 -127q150 -34 233.5 -128t83.5 -230q0 -185 -147.5 -292t-398.5 -107q-225 0 -352.5 87.5t-127.5 241.5z" />
    <glyph glyph-name="four" unicode="4" horiz-adv-x="1257" 
d="M68 418l811 1016h75v-1016h187v-56h-187v-309h187v-53h-516v53h188v309h-745v56zM139 418h674v846z" />
    <glyph glyph-name="five" unicode="5" horiz-adv-x="1298" 
d="M123 309q0 56 20.5 88.5t57.5 32.5h37l28 -29q-16 -50 -16 -92q0 -133 90 -203.5t256 -70.5q199 0 305.5 98.5t106.5 284.5q0 189 -108 285t-318 96q-169 0 -373 -64l59 699h705v110h53v-231h-713l-45 -512q171 63 355 63q250 0 392 -114.5t142 -315.5
q0 -209 -151 -330.5t-412 -121.5q-219 0 -345 87.5t-126 239.5z" />
    <glyph glyph-name="six" unicode="6" horiz-adv-x="1323" 
d="M133 584q0 190 63 350.5t178.5 275t286 178.5t377.5 64v-53q-325 0 -526.5 -197t-218.5 -530q24 119 123.5 193.5t259.5 74.5q237 0 375.5 -127.5t138.5 -349.5q0 -223 -138.5 -352t-375.5 -129q-256 0 -399.5 154.5t-143.5 447.5zM293 465q0 -210 97 -320t278 -110
q182 0 277 108.5t95 317.5q0 210 -95 319t-277 109q-181 0 -278 -107t-97 -317z" />
    <glyph glyph-name="seven" unicode="7" horiz-adv-x="1187" 
d="M102 1163v271h994v-62q-27 -44 -74 -116t-83 -126.5t-83 -136t-81.5 -154t-71 -171t-59.5 -196.5t-37.5 -220t-14.5 -252h-150q0 116 15 227.5t37.5 200.5t62 183.5t73.5 162t87.5 151.5t89.5 135t93.5 131t86.5 122h-833v-150h-52z" />
    <glyph glyph-name="eight" unicode="8" horiz-adv-x="1232" 
d="M453 739q-51 26 -90 51.5t-77 59.5t-63 71t-40 85.5t-15 103.5q0 157 117 247.5t321 90.5q193 0 304.5 -88t111.5 -240q0 -110 -62.5 -194.5t-207.5 -167.5q63 -29 109.5 -54.5t96 -63.5t81 -78t51.5 -95t20 -119q0 -169 -135 -265.5t-371 -96.5q-224 0 -352.5 92.5
t-128.5 253.5q0 119 76 213.5t254 193.5zM506 713q-156 -86 -222.5 -170t-66.5 -193q0 -145 104 -228t285 -83q174 0 274.5 71.5t100.5 194.5q0 41 -12 78t-30 65.5t-50.5 57t-60.5 48t-74.5 43.5t-78.5 39t-85.5 39t-83.5 38zM698 782q124 71 178 145t54 173q0 137 -88 216
t-240 79q-142 0 -224.5 -64.5t-82.5 -175.5q0 -55 23.5 -103.5t51 -80t89.5 -69t98 -55t117 -54.5q16 -7 24 -11z" />
    <glyph glyph-name="nine" unicode="9" horiz-adv-x="1323" 
d="M647 508q-237 0 -375.5 126t-138.5 345q0 220 138.5 346.5t375.5 126.5q256 0 399.5 -154.5t143.5 -447.5q0 -190 -63.5 -350.5t-180 -275t-289 -178.5t-381.5 -64v53q329 0 533 200t221 541q-24 -119 -123.5 -193.5t-259.5 -74.5zM655 1399q-182 0 -277 -107.5
t-95 -312.5t95 -312.5t277 -107.5q180 0 277.5 106.5t97.5 311.5t-96.5 313.5t-278.5 108.5z" />
    <glyph glyph-name="colon" unicode=":" horiz-adv-x="460" 
d="M133 80q0 45 26.5 71.5t71.5 26.5t72 -26.5t27 -71.5q0 -44 -27.5 -71t-71.5 -27t-71 27t-27 71zM133 831q0 44 27 71.5t71 27.5t71.5 -27.5t27.5 -71.5t-27.5 -71t-71.5 -27t-71 27t-27 71z" />
    <glyph glyph-name="semicolon" unicode=";" horiz-adv-x="460" 
d="M117 -256v59q50 0 83.5 51t45.5 142q-2 0 -7 -1t-8 -1q-43 0 -68.5 25.5t-25.5 66.5q0 43 25.5 68.5t68.5 25.5t69 -25.5t26 -66.5q0 -160 -55.5 -252t-153.5 -92zM231 930q44 0 71.5 -27.5t27.5 -71.5t-27.5 -71t-71.5 -27t-71 27t-27 71t27 71.5t71 27.5z" />
    <glyph glyph-name="less" unicode="&#x3c;" 
d="M205 748l921 358v-59l-839 -330l839 -328v-61l-921 360v60z" />
    <glyph glyph-name="equal" unicode="=" 
d="M1126 463h-921v57h921v-57zM205 971h921v-58h-921v58z" />
    <glyph glyph-name="greater" unicode="&#x3e;" 
d="M205 389l839 328l-839 330v59l921 -358v-60l-921 -360v61z" />
    <glyph glyph-name="question" unicode="?" horiz-adv-x="1116" 
d="M88 1122q0 153 125 241.5t336 88.5q227 0 353 -103.5t126 -283.5q0 -175 -117 -276.5t-321 -104.5l-8 -211h-62l-12 260h45q161 0 243.5 85t82.5 251q0 161 -83 245.5t-247 84.5q-157 0 -244.5 -71.5t-87.5 -205.5q0 -49 14 -90l-28 -28h-37q-36 0 -57 32t-21 86z
M551 178q46 0 72 -26t26 -72q0 -45 -26.5 -71.5t-71.5 -26.5q-44 0 -70 27t-26 71q0 46 26 72t70 26z" />
    <glyph glyph-name="at" unicode="@" horiz-adv-x="2088" 
d="M121 457q85 438 383 688t739 250q416 0 614 -223.5t123 -610.5q-54 -269 -199 -424t-339 -155q-129 0 -186 69.5t-33 192.5l37 190q-121 -161 -286 -306.5t-237 -145.5q-45 0 -84.5 57.5t-57 162.5t10.5 253q43 221 166 348t293 127q108 0 182.5 -49.5t106.5 -122.5
l96 164h47l-127 -652q-21 -111 10.5 -165t122.5 -54q143 0 256.5 133t157.5 361q70 369 -115 581.5t-575 212.5q-410 0 -688.5 -235.5t-358.5 -646.5q-79 -411 107.5 -648t589.5 -237q316 0 567 154l26 -48q-266 -161 -604 -161q-432 0 -631.5 251.5t-113.5 688.5zM836 115
q46 0 150 91t197.5 216t108.5 207q3 29 0.5 61t-19.5 64.5t-41 58t-63.5 41.5t-87.5 16q-121 0 -207.5 -99.5t-119.5 -285.5q-21 -119 -11 -201t36 -125.5t57 -43.5z" />
    <glyph glyph-name="A" unicode="A" horiz-adv-x="1701" 
d="M434 0h-403v49l168 19l614 1374h68l622 -1389h168v-53h-504v53h170l-180 402h-719l-174 -387l170 -19v-49zM797 1255l-332 -741l665 2z" />
    <glyph glyph-name="B" unicode="B" horiz-adv-x="1509" 
d="M856 0h-764v53h168v1327h-168v54h692q246 0 389.5 -97t143.5 -264q0 -123 -78.5 -210t-220.5 -126q177 -29 275 -124t98 -236q0 -175 -143 -276t-392 -101zM418 61h411q197 0 297.5 81t100.5 239q0 157 -100.5 237t-295.5 80h-413v-637zM418 760h340q194 0 294.5 77.5
t100.5 229.5t-100.5 228.5t-294.5 76.5h-340v-612z" />
    <glyph glyph-name="C" unicode="C" horiz-adv-x="1507" 
d="M856 1452q156 0 272 -44t168 -118l17 144h43v-396h-43q-2 168 -123.5 264.5t-333.5 96.5q-278 0 -422.5 -172t-144.5 -510q0 -337 144.5 -509.5t422.5 -172.5q212 0 333.5 96t123.5 264h43v-395h-43l-17 143q-52 -74 -168 -117.5t-272 -43.5q-340 0 -535.5 197
t-195.5 538t195.5 538t535.5 197z" />
    <glyph glyph-name="D" unicode="D" horiz-adv-x="1630" 
d="M745 0h-653v53h168v1327h-168v54h653q353 0 556.5 -192t203.5 -525t-203.5 -525t-556.5 -192zM418 61h327q291 0 443.5 166.5t152.5 489.5t-152.5 489t-443.5 166h-327v-1311z" />
    <glyph glyph-name="E" unicode="E" horiz-adv-x="1415" 
d="M1311 0h-1219v53h168v1327h-168v54h1208v-314h-45q0 132 -58.5 192t-188.5 60h-590v-618h413q100 0 144.5 45t44.5 145h45v-442h-45q0 100 -44.5 145t-144.5 45h-413v-631h600q130 0 189 60t59 192h45v-313z" />
    <glyph glyph-name="F" unicode="F" horiz-adv-x="1368" 
d="M627 0h-535v53h168v1327h-168v54h1182v-314h-45q0 132 -59 192t-191 60h-561v-618h391q98 0 143 45t45 145h43v-442h-43q0 100 -45 145t-143 45h-391v-639h209v-53z" />
    <glyph glyph-name="G" unicode="G" horiz-adv-x="1568" 
d="M862 1452q159 0 272.5 -46t172.5 -122l18 150h45v-400h-45q0 163 -128 264t-343 101q-274 0 -419.5 -172t-145.5 -506q0 -339 147.5 -512.5t429.5 -173.5q149 0 249 50t134 138v426h-256v53h398v-706h-43l-31 141q-57 -72 -170.5 -113.5t-267.5 -41.5q-350 0 -552 197
t-202 540q0 340 198 536.5t539 196.5z" />
    <glyph glyph-name="H" unicode="H" horiz-adv-x="1763" 
d="M92 53h168v1327h-168v54h494v-54h-168v-626h930v626h-170v54h495v-54h-170v-1327h170v-53h-495v53h170v639h-930v-639h168v-53h-494v53z" />
    <glyph glyph-name="I" unicode="I" horiz-adv-x="677" 
d="M586 0h-494v53h168v1327h-168v54h494v-54h-168v-1327h168v-53z" />
    <glyph glyph-name="J" unicode="J" horiz-adv-x="667" 
d="M6 -209h35l29 -27q-15 -24 -15 -65q0 -61 29.5 -93t83.5 -32q69 0 108 52.5t39 144.5q0 60 -10 133.5t-24 95.5v1380h-189v54h514v-54h-168v-1540q0 -146 -81.5 -234.5t-213.5 -88.5q-98 0 -157.5 49t-59.5 129q0 45 21.5 70.5t58.5 25.5z" />
    <glyph glyph-name="K" unicode="K" horiz-adv-x="1550" 
d="M586 0h-494v53h168v1327h-168v54h498v-54h-172v-747l751 735l-151 16v50h416v-50l-183 -18l-497 -487l575 -826h174v-53h-321l-541 768l-223 -219v-496h168v-53z" />
    <glyph glyph-name="L" unicode="L" horiz-adv-x="1347" 
d="M260 1380h-168v54h494v-54h-168v-1319h575q127 0 183.5 58.5t56.5 189.5h43v-309h-1184v53h168v1327z" />
    <glyph glyph-name="M" unicode="M" horiz-adv-x="2060" 
d="M92 1384v50h371l573 -1244l574 1244h358v-54h-168v-1327h168v-53h-493v53h167v1309l-628 -1370h-56l-630 1364v-1286l178 -21v-49h-414v49l176 21v1294z" />
    <glyph glyph-name="N" unicode="N" horiz-adv-x="1689" 
d="M506 0h-414v49l176 21v1294l-176 20v50h316l985 -1223v1153l-176 20v50h411v-50l-176 -20v-1372h-74l-1050 1300v-1222l178 -21v-49z" />
    <glyph glyph-name="O" unicode="O" horiz-adv-x="1638" 
d="M819 1452q322 0 508 -197t186 -538t-186 -538t-508 -197t-508 197t-186 538t186 538t508 197zM289 717q0 -336 136 -509t394 -173t394.5 173t136.5 509t-136.5 509t-394.5 173t-394 -173t-136 -509z" />
    <glyph glyph-name="P" unicode="P" horiz-adv-x="1384" 
d="M627 0h-535v53h168v1327h-168v54h688q241 0 378.5 -105.5t137.5 -290.5t-137.5 -290t-378.5 -105h-362v-590h209v-53zM418 705h336q186 0 283.5 84.5t97.5 248.5t-97.5 249t-283.5 85h-336v-667z" />
    <glyph glyph-name="Q" unicode="Q" horiz-adv-x="1638" 
d="M819 1452q322 0 508 -197t186 -538t-186 -538t-508 -197l-176 -115h14q93 0 200.5 -23t188 -51t178.5 -51t175 -23q113 0 145 60l45 -29q-43 -75 -101 -107t-138 -32q-74 0 -156.5 20t-155 49t-143 58t-145.5 49t-138 20q-60 0 -96 -20l-27 45l240 154
q-283 28 -443.5 221.5t-160.5 509.5q0 341 186 538t508 197zM289 717q0 -337 136 -509.5t394 -172.5q259 0 395 172.5t136 509.5t-136 509.5t-395 172.5q-258 0 -394 -172.5t-136 -509.5z" />
    <glyph glyph-name="R" unicode="R" horiz-adv-x="1515" 
d="M627 0h-535v53h168v1327h-168v54h703q230 0 359.5 -102.5t129.5 -280.5q0 -135 -76.5 -227.5t-216.5 -129.5q81 -38 109 -116l207 -525h174v-53h-322l-223 557q-19 47 -59 74.5t-91 27.5h-368v-606h209v-53zM418 723h344q362 0 362 326q0 323 -362 323h-344v-649z" />
    <glyph glyph-name="S" unicode="S" horiz-adv-x="1333" 
d="M145 1083q0 170 125 269.5t338 99.5q271 0 412 -162l43 148h43v-406h-43q0 164 -121 261.5t-321 97.5q-166 0 -258.5 -69.5t-92.5 -195.5q0 -107 89.5 -177t336.5 -146q280 -87 391 -182t111 -242q0 -184 -137.5 -290.5t-368.5 -106.5q-147 0 -264.5 43.5t-187.5 126.5
l-45 -156h-45v405h45q0 -164 131 -261t352 -97q186 0 289.5 74t103.5 207q0 73 -37.5 126.5t-132 105t-264.5 106.5q-274 90 -383 184t-109 237z" />
    <glyph glyph-name="T" unicode="T" horiz-adv-x="1466" 
d="M129 1120h-45v314h1298v-314h-43q0 133 -59 192.5t-190 59.5h-279v-1319h170v-53h-496v53h170v1319h-278q-131 0 -189.5 -59.5t-58.5 -192.5z" />
    <glyph glyph-name="U" unicode="U" horiz-adv-x="1671" 
d="M57 1380v54h494v-54h-168v-778q0 -258 128 -393t370 -135q238 0 365.5 133.5t127.5 386.5v770l-178 20v50h418v-50l-178 -20v-795q0 -274 -162 -430.5t-443 -156.5t-443.5 159.5t-162.5 436.5v802h-168z" />
    <glyph glyph-name="V" unicode="V" horiz-adv-x="1701" 
d="M537 1380h-170l536 -1202l533 1188l-168 18v50h403v-50l-168 -18l-614 -1374h-68l-622 1388h-168v54h506v-54z" />
    <glyph glyph-name="W" unicode="W" horiz-adv-x="2367" 
d="M541 1380h-168l401 -1161l418 1215h86l414 -1213l393 1145l-172 18v50h403v-50l-166 -18l-479 -1374h-57l-426 1243l-434 -1243h-58l-487 1388h-170v54h502v-54z" />
    <glyph glyph-name="X" unicode="X" horiz-adv-x="1628" 
d="M459 0h-410v49l168 19l510 665l-481 647h-172v54h520v-54h-166l432 -581l424 567l-168 18v50h410v-50l-168 -16l-461 -620l516 -695h172v-53h-520v53h168l-469 631l-475 -616l170 -19v-49z" />
    <glyph glyph-name="Y" unicode="Y" horiz-adv-x="1544" 
d="M31 1434h528v-54h-174l453 -645l430 633l-166 16v50h414v-50l-175 -18l-481 -707v-606h168v-53h-493v53h170v609l-502 718h-172v54z" />
    <glyph glyph-name="Z" unicode="Z" horiz-adv-x="1474" 
d="M1339 0h-1200v61l1010 1311h-692q-132 0 -191 -59.5t-59 -192.5h-43v314h1169v-62l-1009 -1311h723q132 0 190.5 59t58.5 193h43v-313z" />
    <glyph glyph-name="bracketleft" unicode="[" horiz-adv-x="700" 
d="M240 1638h378v-55h-272v-1835h272v-55h-378v1945z" />
    <glyph glyph-name="backslash" unicode="\" horiz-adv-x="874" 
d="M51 1575l823 -1765l-51 -25l-823 1765z" />
    <glyph glyph-name="bracketright" unicode="]" horiz-adv-x="700" 
d="M82 1638h377v-1945h-377v55h272v1835h-272v55z" />
    <glyph glyph-name="asciicircum" unicode="^" 
d="M227 1012l439 440l438 -438l-39 -41l-399 399l-400 -399z" />
    <glyph glyph-name="underscore" unicode="_" horiz-adv-x="1024" 
d="M1024 -262h-1024v57h1024v-57z" />
    <glyph glyph-name="grave" unicode="`" horiz-adv-x="706" 
d="M170 1360l104 65l267 -315h-62z" />
    <glyph glyph-name="a" unicode="a" horiz-adv-x="1101" 
d="M754 500v133q0 244 -234 244q-105 0 -164 -45.5t-59 -129.5q0 -40 16 -69l-28 -27h-37q-37 0 -56.5 24t-19.5 68q0 107 94 169.5t258 62.5q178 0 274.5 -76.5t96.5 -214.5v-498q0 -61 53 -61q46 0 90 47l27 -41q-88 -104 -186 -104q-57 0 -91 31.5t-34 86.5v86
q-157 -204 -373 -204q-117 0 -185.5 59t-68.5 160q0 146 159 221.5t468 77.5zM446 70q87 0 167.5 42t140.5 119v218q-245 0 -364.5 -56.5t-119.5 -171.5q0 -73 45.5 -112t130.5 -39z" />
    <glyph glyph-name="b" unicode="b" horiz-adv-x="1200" 
d="M31 1483v53q188 0 286 14v-802q54 88 144.5 135t208.5 47q196 0 309 -126.5t113 -346.5q0 -221 -112.5 -348t-309.5 -127q-128 0 -222 55t-147 158l-76 -205h-49v1499q-55 -6 -145 -6zM322 457q0 -203 80.5 -308.5t230.5 -105.5q149 0 230 106t81 308t-81 307.5
t-230 105.5q-150 0 -230.5 -105t-80.5 -308z" />
    <glyph glyph-name="c" unicode="c" horiz-adv-x="1036" 
d="M109 449q0 225 128 353t353 128q158 0 250 -62.5t92 -169.5q0 -45 -20 -71.5t-54 -26.5h-35l-26 29q12 24 12 69q0 86 -58.5 132.5t-166.5 46.5q-158 0 -242 -100.5t-84 -293.5q0 -208 88 -316t256 -108q206 0 293 164l43 -24q-120 -217 -383 -217q-207 0 -326.5 125
t-119.5 342z" />
    <glyph glyph-name="d" unicode="d" horiz-adv-x="1234" 
d="M532 930q239 0 351 -182v741q-56 -6 -144 -6v53q189 0 285 14v-1503q58 6 145 6v-53q-160 0 -286 -18v182q-112 -182 -351 -182q-196 0 -308.5 127t-112.5 348q0 220 112.5 346.5t308.5 126.5zM569 43q149 0 229.5 106t80.5 308t-80.5 307.5t-229.5 105.5
q-150 0 -230.5 -105t-80.5 -308t80.5 -308.5t230.5 -105.5z" />
    <glyph glyph-name="e" unicode="e" horiz-adv-x="1069" 
d="M561 -18q-210 0 -331 127.5t-121 349.5q0 220 120.5 345.5t331.5 125.5q187 0 295.5 -99.5t108.5 -269.5q0 -55 -11 -92h-696q4 -202 92.5 -306t251.5 -104q203 0 301 164l43 -26q-121 -215 -385 -215zM258 522h567q2 14 2 49q0 149 -69.5 227.5t-198.5 78.5
q-139 0 -217 -91t-84 -264z" />
    <glyph glyph-name="f" unicode="f" horiz-adv-x="747" 
d="M553 0h-471v53h145v803q-39 4 -145 4v51h145v199q0 212 85 326t243 114q105 0 166 -45t61 -123q0 -41 -19.5 -62.5t-55.5 -21.5h-33l-27 29q12 24 12 51q0 61 -34.5 92t-96.5 31q-94 0 -143 -78t-49 -229q0 -76 9.5 -167t25.5 -116h303v-55h-303v-803h182v-53z" />
    <glyph glyph-name="g" unicode="g" horiz-adv-x="1116" 
d="M104 182q0 76 43 129t117 72q-106 83 -106 233q0 146 100.5 230t273.5 84q117 0 203 -39q89 153 217 153q60 0 92.5 -28t32.5 -80q0 -36 -17.5 -56t-49.5 -20h-27l-22 23q8 8 8 28q0 62 -60 62q-69 0 -131 -107q127 -82 127 -250q0 -145 -100 -228t-273 -83
q-113 0 -194 35q-76 -2 -120 -36t-44 -93q0 -129 205 -129h307q149 0 234.5 -69t85.5 -189q0 -143 -122.5 -225t-334.5 -82q-199 0 -312.5 72.5t-113.5 197.5q0 65 33 114t92 76q-68 27 -106 79.5t-38 125.5zM557 -430q167 0 256.5 55t89.5 156q0 83 -58 127.5t-167 44.5
h-291q-86 0 -133 -42.5t-47 -119.5q0 -107 90.5 -164t259.5 -57zM293 616q0 -127 62.5 -194.5t179.5 -67.5q114 0 175.5 67.5t61.5 194.5q0 128 -61 194.5t-176 66.5q-118 0 -180 -66.5t-62 -194.5z" />
    <glyph glyph-name="h" unicode="h" horiz-adv-x="1241" 
d="M68 1483v53q186 0 284 14v-813q86 94 187 143.5t204 49.5q135 0 214 -79.5t79 -215.5v-582h146v-53h-422v53h135v574q0 102 -56.5 158.5t-156.5 56.5q-88 0 -174.5 -43t-155.5 -121v-625h135v-53h-419v53h145v1436q-55 -6 -145 -6z" />
    <glyph glyph-name="i" unicode="i" horiz-adv-x="579" 
d="M514 0h-432v53h145v813q-56 -6 -145 -6v51q175 0 289 19v-877h143v-53zM184 1276q0 44 27 70t72 26q44 0 70 -26t26 -70t-26 -70t-70 -26q-45 0 -72 26t-27 70z" />
    <glyph glyph-name="j" unicode="j" horiz-adv-x="565" 
d="M-14 -223h32l29 -27q-14 -28 -14 -61q0 -121 108 -121q66 0 103 50t37 142q0 63 -10 139.5t-23 100.5v866q-55 -6 -146 -6v51q171 0 285 19v-1104q0 -140 -74.5 -224.5t-199.5 -84.5q-92 0 -146.5 45.5t-54.5 122.5q0 44 20 68t54 24zM303 1372q43 0 68.5 -26t25.5 -70
t-25.5 -70t-68.5 -26q-46 0 -72 26t-26 70t26 70t72 26z" />
    <glyph glyph-name="k" unicode="k" horiz-adv-x="1136" 
d="M498 0h-430v51h145v1440q-55 -6 -145 -6v51q200 0 284 10v-1145l449 449l-133 14v47h356v-47l-145 -14l-279 -281l346 -518h156v-51h-283l-321 467l-146 -145v-271h146v-51z" />
    <glyph glyph-name="l" unicode="l" horiz-adv-x="565" 
d="M498 0h-430v53h145v1436q-55 -6 -145 -6v53q186 0 284 14v-1497h146v-53z" />
    <glyph glyph-name="m" unicode="m" horiz-adv-x="1865" 
d="M504 0h-422v53h145v813q-56 -6 -145 -6v51q175 0 289 19v-191q83 92 181 141.5t196 49.5q102 0 170 -52t88 -143q186 195 385 195q123 0 195.5 -74t72.5 -201v-602h145v-53h-420v53h136v598q0 89 -50 140t-139 51q-82 0 -166.5 -43.5t-150.5 -118.5v-23v-604h135v-53
h-412v53h135v602q0 89 -48.5 138t-135.5 49q-82 0 -167 -43.5t-150 -120.5v-625h133v-53z" />
    <glyph glyph-name="n" unicode="n" horiz-adv-x="1255" 
d="M504 0h-422v53h145v813q-56 -6 -145 -6v51q175 0 289 19l-2 -193q86 94 187 143.5t204 49.5q135 0 214 -79.5t79 -215.5v-582h145v-53h-422v53h135v574q0 102 -56.5 158.5t-156.5 56.5q-88 0 -174.5 -43t-152.5 -121v-625h133v-53z" />
    <glyph glyph-name="o" unicode="o" horiz-adv-x="1136" 
d="M567 930q215 0 339 -126.5t124 -346.5q0 -221 -124 -348t-339 -127q-214 0 -336 127t-122 348q0 220 122 346.5t336 126.5zM258 457q0 -207 80 -314.5t229 -107.5q152 0 233 107t81 315q0 206 -81 313t-233 107q-149 0 -229 -107.5t-80 -312.5z" />
    <glyph glyph-name="p" unicode="p" horiz-adv-x="1234" 
d="M537 -467h-469v53h145v1280q-56 -6 -145 -6v51q170 0 284 19v-185q54 90 144.5 137.5t208.5 47.5q196 0 308.5 -126.5t112.5 -346.5q0 -221 -112.5 -348t-308.5 -127q-117 0 -208 47.5t-145 136.5v-580h185v-53zM356 455q0 -201 81.5 -306.5t230.5 -105.5t230 105.5
t81 306.5q0 203 -81 309t-230 106t-230.5 -106t-81.5 -309z" />
    <glyph glyph-name="q" unicode="q" horiz-adv-x="1200" 
d="M111 457q0 220 112.5 346.5t308.5 126.5q126 0 220.5 -55t146.5 -156l78 203h47v-1336h145v-53h-430v53h144v580q-111 -184 -351 -184q-196 0 -308.5 127t-112.5 348zM569 43q149 0 229.5 105.5t80.5 306.5q0 204 -80.5 309.5t-229.5 105.5q-150 0 -230.5 -105.5
t-80.5 -309.5q0 -201 80.5 -306.5t230.5 -105.5z" />
    <glyph glyph-name="r" unicode="r" horiz-adv-x="944" 
d="M553 0h-471v53h145v813q-56 -6 -145 -6v51q175 0 289 19v-225q142 225 319 225q86 0 135 -47t49 -127q0 -51 -21.5 -78t-59.5 -27h-37l-21 25q17 14 17 55q0 55 -29 83t-82 28q-68 0 -138 -52.5t-132 -148.5v-588h182v-53z" />
    <glyph glyph-name="s" unicode="s" horiz-adv-x="935" 
d="M113 -4v258h43q2 -99 83.5 -157t221.5 -58q115 0 179.5 43.5t64.5 120.5q0 64 -57 106t-206 88q-182 60 -253.5 122.5t-71.5 158.5q0 117 84.5 184.5t230.5 67.5q161 0 266 -94l13 79h45v-258h-45q-2 102 -71.5 161t-193.5 59q-97 0 -151.5 -40t-54.5 -110
q0 -64 55 -105.5t197 -84.5q188 -60 261.5 -122t73.5 -159q0 -127 -96 -200.5t-258 -73.5q-179 0 -303 98l-14 -84h-43z" />
    <glyph glyph-name="t" unicode="t" horiz-adv-x="751" 
d="M309 1157h47v-246h303v-55h-303v-666q0 -122 113 -122q102 0 176 96l37 -31q-121 -151 -266 -151q-94 0 -147.5 55.5t-53.5 150.5v668h-147v47q110 0 167 59.5t74 194.5z" />
    <glyph glyph-name="u" unicode="u" horiz-adv-x="1232" 
d="M59 860v51q176 0 287 19v-641q0 -105 55.5 -162t153.5 -57q88 0 174 43t152 120v633q-56 -6 -146 -6v51q172 0 289 19v-883q56 6 143 6v-53q-178 0 -286 -18v194q-83 -94 -182.5 -144t-202.5 -50q-134 0 -212.5 80.5t-78.5 216.5v587q-55 -6 -146 -6z" />
    <glyph glyph-name="v" unicode="v" horiz-adv-x="1204" 
d="M29 862v49h442v-49h-147l325 -710l318 698l-142 14v47h351v-47l-150 -16l-389 -856h-68l-397 870h-143z" />
    <glyph glyph-name="w" unicode="w" horiz-adv-x="1654" 
d="M463 862h-148l256 -696l275 745h51l274 -749l252 686l-141 16v47h348v-47l-147 -16l-322 -856h-69l-265 719l-266 -719h-69l-326 870h-143v49h440v-49z" />
    <glyph glyph-name="x" unicode="x" horiz-adv-x="1157" 
d="M410 0h-357v49l156 17l293 393l-301 403h-146v49h445v-49h-135l258 -344l251 332l-133 14v47h355v-47l-156 -16l-285 -375l316 -422h151v-51h-452v51h137l-270 361l-261 -349l134 -14v-49z" />
    <glyph glyph-name="y" unicode="y" horiz-adv-x="1193" 
d="M465 862h-148l328 -719l318 705l-144 16v47h350v-47l-147 -16l-496 -1094q-54 -119 -115 -176t-137 -57q-58 0 -91 34.5t-33 94.5q0 43 20 66.5t57 23.5h31l23 -21q-11 -14 -11 -41q0 -33 16 -51t44 -18q75 0 147 160l92 206l-403 887h-143v49h442v-49z" />
    <glyph glyph-name="z" unicode="z" horiz-adv-x="1017" 
d="M907 0h-794v61l618 791h-340q-115 0 -166 -50.5t-51 -164.5h-41v274h766v-59l-620 -791h370q114 0 164.5 49.5t50.5 161.5h43v-272z" />
    <glyph glyph-name="braceleft" unicode="{" horiz-adv-x="608" 
d="M82 637v57h20q80 0 128 46t42 124l-41 518q-10 118 61.5 187t192.5 69h43v-55h-20q-81 0 -129.5 -46.5t-42.5 -123.5l41 -512q7 -86 -30 -146.5t-109 -88.5q72 -28 109 -89t30 -147l-41 -512q-6 -77 42.5 -123.5t129.5 -46.5h20v-55h-43q-121 0 -192.5 69t-61.5 187
l41 520q6 77 -42 122.5t-128 45.5h-20z" />
    <glyph glyph-name="bar" unicode="|" horiz-adv-x="536" 
d="M240 -307v1945h57v-1945h-57z" />
    <glyph glyph-name="braceright" unicode="}" horiz-adv-x="608" 
d="M82 1583v55h41q121 0 192.5 -69t61.5 -187l-41 -518q-6 -78 42.5 -124t129.5 -46h20v-57h-20q-81 0 -129.5 -45.5t-42.5 -122.5l41 -520q10 -118 -61.5 -187t-192.5 -69h-41v55h20q79 0 127.5 46.5t42.5 123.5l-41 512q-7 86 30.5 147t109.5 89q-72 28 -109.5 88.5
t-30.5 146.5l41 512q6 77 -42.5 123.5t-127.5 46.5h-20z" />
    <glyph glyph-name="asciitilde" unicode="~" 
d="M203 590h-53q0 128 72 201t198 73q63 0 123.5 -22t108 -54t92.5 -63.5t96 -53.5t100 -22q78 0 123 52t45 143h53q0 -127 -72 -200t-198 -73q-65 0 -126.5 22t-109 53.5t-92 63.5t-94.5 54t-98 22q-79 0 -123.5 -52.5t-44.5 -143.5z" />
    <glyph glyph-name="uni00A0" unicode="&#xa0;" horiz-adv-x="518" 
 />
    <glyph glyph-name="exclamdown" unicode="&#xa1;" horiz-adv-x="460" 
d="M307 -467h-149l45 954h59zM231 930q44 0 71.5 -27.5t27.5 -71.5t-27.5 -71t-71.5 -27t-71 27t-27 71t27 71.5t71 27.5z" />
    <glyph glyph-name="cent" unicode="&#xa2;" horiz-adv-x="1036" 
d="M109 449q0 213 116 340t320 139v188h57v-186q153 -3 241.5 -65t88.5 -167q0 -45 -20 -71.5t-54 -26.5h-35l-26 29q12 24 12 71q0 86 -57.5 131.5t-165.5 45.5q-159 0 -243.5 -100.5t-84.5 -293.5q0 -208 88 -316t256 -108q206 0 293 164l43 -24q-108 -197 -336 -215v-189
h-57v187q-202 3 -319 128t-117 339z" />
    <glyph glyph-name="sterling" unicode="&#xa3;" horiz-adv-x="1308" 
d="M211 0h-68q0 123 72 195q88 88 125 164.5t37 162.5q0 62 -19 121h-196v55h174q-16 35 -47 87t-52 88t-38 92.5t-17 115.5q0 177 129.5 274t354.5 97q218 0 346.5 -89.5t128.5 -244.5q0 -58 -21 -91.5t-59 -33.5h-35l-29 27q15 46 15 94q0 137 -92.5 211t-260.5 74
t-257 -75.5t-89 -225.5q0 -77 23.5 -144t58.5 -137t49 -119h332v-55h-321q6 -30 6 -63q0 -166 -129 -324q34 10 88 10q66 0 128 -20.5t111 -50t95 -59t98 -50t102 -20.5q80 0 127 49.5t47 136.5h52q0 -125 -73 -195.5t-202 -70.5q-65 0 -126.5 21t-109 50.5t-92.5 59
t-95 50.5t-99 21q-80 0 -126 -50t-46 -138z" />
    <glyph glyph-name="currency" unicode="&#xa4;" 
d="M395 948l-147 148l39 41l147 -150q102 86 232 86q129 0 231 -86l147 150l41 -41l-149 -148q86 -102 86 -231q0 -130 -86 -232l147 -147l-39 -39l-147 147q-102 -86 -231 -86q-130 0 -232 86l-147 -147l-39 39l147 147q-86 102 -86 232q0 129 86 231zM367 717
q0 -123 88 -211t211 -88q124 0 212.5 88t88.5 211q0 125 -88.5 213t-212.5 88q-123 0 -211 -88.5t-88 -212.5z" />
    <glyph glyph-name="yen" unicode="&#xa5;" horiz-adv-x="1544" 
d="M31 1434h528v-54h-172l451 -643l430 631l-166 16v50h414v-50l-177 -18l-479 -704v-39h326v-56h-326v-231h326v-57h-326v-226h168v-53h-493v53h170v226h-326v57h326v231h-326v56h326v41l-502 716h-172v54z" />
    <glyph glyph-name="brokenbar" unicode="&#xa6;" horiz-adv-x="536" 
d="M240 1638h57v-819h-57v819zM240 -307v819h57v-819h-57z" />
    <glyph glyph-name="section" unicode="&#xa7;" horiz-adv-x="1300" 
d="M371 838q-84 57 -121 120t-37 148q0 160 116 253t318 93q199 0 318.5 -89t119.5 -241q0 -57 -20.5 -90t-56.5 -33h-37l-29 29q16 44 16 94q0 131 -82 202t-233 71q-143 0 -224 -65.5t-81 -182.5q0 -106 83 -174t300 -137q245 -78 344.5 -168t99.5 -230q0 -118 -58 -202.5
t-165 -126.5q84 -53 118 -113.5t34 -142.5q0 -167 -116 -260t-321 -93q-202 0 -322 89t-120 239q0 57 20.5 89t57.5 32h37l28 -29q-16 -41 -16 -92q0 -130 83 -201t234 -71q147 0 228.5 66.5t81.5 187.5q0 67 -29.5 113t-111.5 91t-236 95q-249 79 -349 169t-100 230
q0 117 60 202.5t168 127.5zM420 809q-160 -63 -160 -238q0 -113 87 -186.5t310 -148.5q146 -49 238 -99q152 62 152 238q0 114 -84.5 187t-307.5 149q-148 51 -235 98z" />
    <glyph glyph-name="dieresis" unicode="&#xa8;" horiz-adv-x="913" 
d="M662 1294q37 0 59 -22t22 -60q0 -37 -22 -59.5t-59 -22.5t-59.5 22.5t-22.5 59.5q0 38 22.5 60t59.5 22zM170 1212q0 38 22.5 60t59.5 22t59.5 -22t22.5 -60q0 -37 -22.5 -59.5t-59.5 -22.5t-59.5 22.5t-22.5 59.5z" />
    <glyph glyph-name="copyright" unicode="&#xa9;" horiz-adv-x="1718" 
d="M125 717q0 200 98 369t267 267.5t370 98.5q200 0 368.5 -98.5t266.5 -267.5t98 -369t-98 -369t-266.5 -267.5t-368.5 -98.5q-201 0 -370 98.5t-267 267.5t-98 369zM182 717q0 -138 53.5 -263.5t144.5 -216.5t216.5 -144.5t263.5 -53.5q137 0 262.5 53.5t216.5 144.5
t145 216.5t54 263.5t-54 263.5t-145 216.5t-216.5 144.5t-262.5 53.5q-138 0 -263.5 -53.5t-216.5 -144.5t-144.5 -216.5t-53.5 -263.5zM487 717q0 181 105 284t287 103q82 0 142 -21.5t89 -58.5l8 70h27v-213h-31q0 88 -63.5 138t-173.5 50q-141 0 -214 -88t-73 -264
q0 -350 287 -350q111 0 174 49.5t63 136.5h31v-213h-27l-8 72q-29 -38 -89.5 -61t-141.5 -23q-181 0 -286.5 104.5t-105.5 284.5z" />
    <glyph glyph-name="ordfeminine" unicode="&#xaa;" horiz-adv-x="849" 
d="M565 1128v97q0 174 -166 174q-73 0 -113 -32t-40 -91q0 -33 10 -53l-25 -21h-32q-32 0 -49 20t-17 54q0 80 73 126t200 46q135 0 208.5 -55t73.5 -156v-356q0 -45 37 -45t68 34l24 -39q-76 -88 -151 -88q-47 0 -74 26t-27 69v61q-120 -156 -274 -156q-89 0 -140 45
t-51 121q0 107 118.5 163t346.5 56zM348 825q129 0 217 115v141q-173 0 -256.5 -37.5t-83.5 -115.5q0 -49 32 -76t91 -27z" />
    <glyph glyph-name="guillemotleft" unicode="&#xab;" horiz-adv-x="993" 
d="M78 502v49l393 338l37 -37l-297 -326l299 -325l-39 -37zM467 502v49l393 338l39 -37l-297 -326l297 -325l-39 -37z" />
    <glyph glyph-name="logicalnot" unicode="&#xac;" 
d="M205 791v57h921v-365h-55v308h-866z" />
    <glyph glyph-name="uni00AD" unicode="&#xad;" horiz-adv-x="716" 
d="M575 444h-432v58h432v-58z" />
    <glyph glyph-name="registered" unicode="&#xae;" horiz-adv-x="1718" 
d="M125 717q0 200 98 369t267 267.5t370 98.5q200 0 368.5 -98.5t266.5 -267.5t98 -369t-98 -369t-266.5 -267.5t-368.5 -98.5q-201 0 -370 98.5t-267 267.5t-98 369zM860 39q137 0 262.5 53.5t216.5 144.5t145 216.5t54 263.5t-54 263.5t-145 216.5t-216.5 144.5
t-262.5 53.5q-138 0 -263.5 -53.5t-216.5 -144.5t-144.5 -216.5t-53.5 -263.5t53.5 -263.5t144.5 -216.5t216.5 -144.5t263.5 -53.5zM801 340h-293v35h88v684h-88v35h375q125 0 195.5 -54.5t70.5 -148.5q0 -67 -38.5 -115.5t-109.5 -70.5q40 -21 54 -62l106 -268h92v-35
h-182l-121 287q-22 55 -80 55h-178v-307h109v-35zM692 725h170q187 0 187 164t-187 164h-170v-328z" />
    <glyph glyph-name="macron" unicode="&#xaf;" horiz-adv-x="804" 
d="M635 1165h-465v56h465v-56z" />
    <glyph glyph-name="degree" unicode="&#xb0;" horiz-adv-x="733" 
d="M367 1452q100 0 170.5 -71t70.5 -171t-70.5 -170.5t-170.5 -70.5t-171 70.5t-71 170.5t71 171t171 71zM182 1210q0 -77 54.5 -131.5t130.5 -54.5t130 54.5t54 131.5t-54 131t-130 54q-77 0 -131 -54.5t-54 -130.5z" />
    <glyph glyph-name="plusminus" unicode="&#xb1;" 
d="M637 813h-432v57h432v433h57v-433h432v-57h-432v-391h-57v391zM205 205v57h921v-57h-921z" />
    <glyph glyph-name="uni00B2" unicode="&#xb2;" horiz-adv-x="702" 
d="M340 1649q122 0 192 -50.5t70 -138.5q0 -53 -29 -107t-80.5 -104.5t-105 -95t-118.5 -99t-105 -96.5h418v78h34v-151h-530v43q28 42 85 97t112.5 105t109 104.5t86.5 115.5t33 120q0 71 -45 107.5t-129 36.5q-85 0 -130.5 -37t-45.5 -111q0 -26 8 -47l-18 -16h-23
q-21 0 -33 19t-12 51q0 83 68.5 129.5t187.5 46.5z" />
    <glyph glyph-name="uni00B3" unicode="&#xb3;" horiz-adv-x="712" 
d="M129 1110h23l18 -14q-8 -21 -8 -47q0 -138 180 -138q97 0 149 43.5t52 128.5q0 168 -185 168h-77v39h53q178 0 178 162t-170 162q-85 0 -130.5 -36t-45.5 -103q0 -32 8 -48l-20 -16h-23q-22 0 -34.5 17.5t-12.5 48.5q0 79 69 125.5t185 46.5q126 0 196 -53t70 -144
q0 -128 -131 -178q77 -19 118.5 -68t41.5 -121q0 -98 -79 -155.5t-214 -57.5q-122 0 -190 46.5t-68 125.5q0 31 12.5 48.5t34.5 17.5z" />
    <glyph glyph-name="acute" unicode="&#xb4;" horiz-adv-x="706" 
d="M170 1110l264 315l107 -65l-310 -250h-61z" />
    <glyph glyph-name="mu" unicode="&#xb5;" horiz-adv-x="1232" 
d="M274 72q7 -137 24.5 -237.5t31.5 -156.5t14 -94q0 -31 -19 -49t-51 -18t-50.5 18.5t-18.5 50.5v1280q-55 -6 -146 -6v51q176 0 287 19v-641q0 -105 55.5 -162t153.5 -57q88 0 174 43t152 120v633q-56 -6 -146 -6v51q172 0 289 19v-883q56 6 143 6v-53q-178 0 -286 -18
v194q-83 -94 -182.5 -144t-202.5 -50q-141 0 -222 90z" />
    <glyph glyph-name="paragraph" unicode="&#xb6;" horiz-adv-x="1157" 
d="M547 1434h536v-54h-170v-1687h-55v1687h-254v-1687h-57v950q-214 0 -336.5 105.5t-122.5 289.5t122.5 290t336.5 106z" />
    <glyph glyph-name="periodcentered" unicode="&#xb7;" horiz-adv-x="460" 
d="M133 717q0 44 27 71t71 27t71.5 -27t27.5 -71t-27.5 -71.5t-71.5 -27.5t-71 27.5t-27 71.5z" />
    <glyph glyph-name="cedilla" unicode="&#xb8;" horiz-adv-x="708" 
d="M170 -303q63 -51 158 -51q62 0 97.5 23.5t35.5 64.5q0 86 -178 102l39 168h57l-29 -125q189 -25 189 -151q0 -67 -50.5 -106.5t-136.5 -39.5q-108 0 -182 58v57z" />
    <glyph glyph-name="uni00B9" unicode="&#xb9;" horiz-adv-x="477" 
d="M76 1565v37q122 0 215 45v-727h119v-35h-324v35h119v667q-68 -22 -129 -22z" />
    <glyph glyph-name="ordmasculine" unicode="&#xba;" horiz-adv-x="868" 
d="M434 1448q162 0 254 -93t92 -257q0 -165 -92.5 -260t-253.5 -95t-253.5 95t-92.5 260q0 164 92 257t254 93zM217 1098q0 -149 56.5 -226t160.5 -77q105 0 160 76.5t55 226.5t-55 225.5t-160 75.5q-104 0 -160.5 -76t-56.5 -225z" />
    <glyph glyph-name="guillemotright" unicode="&#xbb;" horiz-adv-x="993" 
d="M522 889l393 -338v-49l-393 -338l-39 37l299 325l-297 326zM133 889l393 -338v-49l-393 -338l-39 37l297 325l-297 326z" />
    <glyph glyph-name="onequarter" unicode="&#xbc;" horiz-adv-x="1392" 
d="M750 227l428 527h47v-527h98v-37h-98v-155h98v-35h-283v35h99v155h-389v37zM238 0l827 1434h65l-829 -1434h-63zM76 1360v37q122 0 215 45v-727h119v-35h-324v35h119v667q-68 -22 -129 -22zM797 227h342v422z" />
    <glyph glyph-name="onehalf" unicode="&#xbd;" horiz-adv-x="1511" 
d="M893 588q0 83 68 129.5t186 46.5q123 0 193.5 -50.5t70.5 -138.5q0 -65 -48.5 -135.5t-109 -121.5t-147.5 -123.5t-133 -120.5h418v78h34v-152h-530v43q28 42 85 97t112.5 105t109 105t86.5 116t33 120q0 143 -174 143q-176 0 -176 -147q0 -26 8 -47l-18 -17h-23
q-21 0 -33 19t-12 51zM238 0l827 1434h65l-829 -1434h-63zM76 1360v37q122 0 215 45v-727h119v-35h-324v35h119v667q-68 -22 -129 -22z" />
    <glyph glyph-name="threequarters" unicode="&#xbe;" horiz-adv-x="1548" 
d="M1378 227h101v-37h-101v-155h101v-35h-283v35h98v155h-389v37l426 527h47v-527zM129 905h23l18 -14q-8 -21 -8 -47q0 -137 180 -137q97 0 149 43.5t52 128.5q0 168 -185 168h-77v38h53q178 0 178 162t-170 162q-85 0 -130.5 -36t-45.5 -103q0 -31 8 -47l-20 -17h-23
q-22 0 -34.5 17.5t-12.5 48.5q0 79 69 125.5t185 46.5q126 0 196 -53t70 -144q0 -128 -131 -178q77 -19 118.5 -67.5t41.5 -120.5q0 -98 -79 -155.5t-214 -57.5q-122 0 -190 46.5t-68 125.5q0 31 12.5 48t34.5 17zM457 0h-66l828 1434h67zM952 227h342v422z" />
    <glyph glyph-name="questiondown" unicode="&#xbf;" horiz-adv-x="1116" 
d="M526 274l9 213h59l14 -262h-45q-325 0 -325 -331q0 -324 329 -324q156 0 244 70t88 202q0 49 -14 90l28 27h35q38 0 59 -31.5t21 -85.5q0 -151 -125 -238t-336 -87q-227 0 -353 102t-126 279q0 173 117 274t321 102zM563 930q45 0 72 -27t27 -72t-27 -71.5t-72 -26.5
q-44 0 -71 27t-27 71t27 71.5t71 27.5z" />
    <glyph glyph-name="Agrave" unicode="&#xc0;" horiz-adv-x="1701" 
d="M434 0h-403v49l168 19l614 1374h68l622 -1389h168v-53h-504v53h170l-180 402h-719l-174 -387l170 -19v-49zM797 1255l-332 -741l665 2zM864 1550l-311 250l106 66l267 -316h-62z" />
    <glyph glyph-name="Aacute" unicode="&#xc1;" horiz-adv-x="1701" 
d="M434 0h-403v49l168 19l614 1374h68l622 -1389h168v-53h-504v53h170l-180 402h-719l-174 -387l170 -19v-49zM797 1255l-332 -741l665 2zM831 1550h-61l266 316l107 -66z" />
    <glyph glyph-name="Acircumflex" unicode="&#xc2;" horiz-adv-x="1701" 
d="M434 0h-403v49l168 19l614 1374h68l622 -1389h168v-53h-504v53h170l-180 402h-719l-174 -387l170 -19v-49zM797 1255l-332 -741l665 2zM549 1550l276 314h45l277 -314h-62l-237 209l-238 -209h-61z" />
    <glyph glyph-name="Atilde" unicode="&#xc3;" horiz-adv-x="1701" 
d="M434 0h-403v49l168 19l614 1374h68l622 -1389h168v-53h-504v53h170l-180 402h-719l-174 -387l170 -19v-49zM797 1255l-332 -741l665 2zM608 1565h-53q0 87 42 137.5t118 50.5q44 0 84.5 -20.5t66.5 -45t60.5 -45t68.5 -20.5q43 0 67.5 30t24.5 83h54q0 -88 -42 -137.5
t-118 -49.5q-45 0 -86 20.5t-67 45t-60.5 45t-67.5 20.5q-43 0 -67.5 -30.5t-24.5 -83.5z" />
    <glyph glyph-name="Adieresis" unicode="&#xc4;" horiz-adv-x="1701" 
d="M434 0h-403v49l168 19l614 1374h68l622 -1389h168v-53h-504v53h170l-180 402h-719l-174 -387l170 -19v-49zM797 1255l-332 -741l665 2zM971 1653q0 38 22.5 60t59.5 22q38 0 60 -22t22 -60q0 -37 -22 -59.5t-60 -22.5q-37 0 -59.5 22.5t-22.5 59.5zM643 1735q38 0 60 -22
t22 -60q0 -37 -22 -59.5t-60 -22.5q-37 0 -59.5 22.5t-22.5 59.5q0 38 22.5 60t59.5 22z" />
    <glyph glyph-name="Aring" unicode="&#xc5;" horiz-adv-x="1701" 
d="M434 0h-403v49l168 19l614 1374h68l622 -1389h168v-53h-504v53h170l-180 402h-719l-174 -387l170 -19v-49zM797 1255l-332 -741l665 2zM690 1659q0 73 42 115.5t116 42.5t116 -42.5t42 -115.5q0 -72 -42.5 -114t-115.5 -42t-115.5 42t-42.5 114zM848 1559q46 0 72 27
t26 73q0 47 -26 74.5t-72 27.5t-72 -27.5t-26 -74.5q0 -46 26 -73t72 -27z" />
    <glyph glyph-name="AE" unicode="&#xc6;" horiz-adv-x="2242" 
d="M442 0h-411v49l170 19l862 1366h1065v-314h-43q0 133 -59 192.5t-191 59.5h-590v-618h416q98 0 143 45t45 145h43v-442h-43q0 100 -45 145t-143 45h-416v-631h600q132 0 191 59.5t59 192.5h43v-313h-1218v53h170v408h-568l-250 -393l170 -19v-49zM1090 1358l-531 -838
h531v838z" />
    <glyph glyph-name="Ccedilla" unicode="&#xc7;" horiz-adv-x="1507" 
d="M856 1452q156 0 272 -44t168 -118l17 144h43v-396h-43q-2 168 -123.5 264.5t-333.5 96.5q-278 0 -422.5 -172t-144.5 -510q0 -337 144.5 -509.5t422.5 -172.5q212 0 333.5 96t123.5 264h43v-395h-43l-17 143q-51 -70 -159 -113.5t-256 -47.5l-25 -103q188 -25 188 -151
q0 -68 -49 -107t-135 -39q-107 0 -184 58v57q63 -51 158 -51q62 0 98.5 23.5t36.5 64.5q0 86 -181 102l35 148q-324 9 -511 204.5t-187 528.5q0 341 195.5 538t535.5 197z" />
    <glyph glyph-name="Egrave" unicode="&#xc8;" horiz-adv-x="1415" 
d="M1311 0h-1219v53h168v1327h-168v54h1208v-314h-45q0 132 -58.5 192t-188.5 60h-590v-618h413q100 0 144.5 45t44.5 145h45v-442h-45q0 100 -44.5 145t-144.5 45h-413v-631h600q130 0 189 60t59 192h45v-313zM760 1550l-311 250l106 66l266 -316h-61z" />
    <glyph glyph-name="Eacute" unicode="&#xc9;" horiz-adv-x="1415" 
d="M1311 0h-1219v53h168v1327h-168v54h1208v-314h-45q0 132 -58.5 192t-188.5 60h-590v-618h413q100 0 144.5 45t44.5 145h45v-442h-45q0 100 -44.5 145t-144.5 45h-413v-631h600q130 0 189 60t59 192h45v-313zM666 1550l266 316l106 -66l-311 -250h-61z" />
    <glyph glyph-name="Ecircumflex" unicode="&#xca;" horiz-adv-x="1415" 
d="M1311 0h-1219v53h168v1327h-168v54h1208v-314h-45q0 132 -58.5 192t-188.5 60h-590v-618h413q100 0 144.5 45t44.5 145h45v-442h-45q0 100 -44.5 145t-144.5 45h-413v-631h600q130 0 189 60t59 192h45v-313zM506 1550h-62l277 314h45l276 -314h-61l-238 209z" />
    <glyph glyph-name="Edieresis" unicode="&#xcb;" horiz-adv-x="1415" 
d="M1311 0h-1219v53h168v1327h-168v54h1208v-314h-45q0 132 -58.5 192t-188.5 60h-590v-618h413q100 0 144.5 45t44.5 145h45v-442h-45q0 100 -44.5 145t-144.5 45h-413v-631h600q130 0 189 60t59 192h45v-313zM457 1653q0 38 22.5 60t59.5 22q38 0 60 -22t22 -60
q0 -37 -22 -59.5t-60 -22.5q-37 0 -59.5 22.5t-22.5 59.5zM948 1735q38 0 60 -22t22 -60q0 -37 -22 -59.5t-60 -22.5q-37 0 -59.5 22.5t-22.5 59.5q0 38 22.5 60t59.5 22z" />
    <glyph glyph-name="Igrave" unicode="&#xcc;" horiz-adv-x="677" 
d="M586 0h-494v53h168v1327h-168v54h494v-54h-168v-1327h168v-53zM45 1800l107 66l264 -316h-62z" />
    <glyph glyph-name="Iacute" unicode="&#xcd;" horiz-adv-x="677" 
d="M586 0h-494v53h168v1327h-168v54h494v-54h-168v-1327h168v-53zM324 1550h-62l264 316l107 -66z" />
    <glyph glyph-name="Icircumflex" unicode="&#xce;" horiz-adv-x="677" 
d="M586 0h-494v53h168v1327h-168v54h494v-54h-168v-1327h168v-53zM100 1550h-61l276 314h45l277 -314h-62l-235 209z" />
    <glyph glyph-name="Idieresis" unicode="&#xcf;" horiz-adv-x="677" 
d="M586 0h-494v53h168v1327h-168v54h494v-54h-168v-1327h168v-53zM545 1735q37 0 59.5 -22t22.5 -60q0 -37 -22.5 -59.5t-59.5 -22.5q-38 0 -61 22.5t-23 59.5q0 38 23 60t61 22zM135 1735q37 0 59.5 -22t22.5 -60q0 -37 -22.5 -59.5t-59.5 -22.5q-38 0 -61 22.5t-23 59.5
q0 38 23 60t61 22z" />
    <glyph glyph-name="Eth" unicode="&#xd0;" horiz-adv-x="1634" 
d="M750 0h-658v53h174v645h-157v54h157v628h-174v54h658q353 0 556 -192t203 -525t-203 -525t-556 -192zM422 61h328q291 0 443.5 166.5t152.5 489.5t-152.5 489t-443.5 166h-328v-620h405v-54h-405v-637z" />
    <glyph glyph-name="Ntilde" unicode="&#xd1;" horiz-adv-x="1689" 
d="M506 0h-414v49l176 21v1294l-176 20v50h316l985 -1223v1153l-176 20v50h411v-50l-176 -20v-1372h-74l-1050 1300v-1222l178 -21v-49zM627 1565h-54q0 87 42 137.5t118 50.5q36 0 69 -13.5t58 -32.5t48.5 -38.5t50.5 -33t55 -13.5q43 0 67.5 30t24.5 83h53
q0 -88 -42 -137.5t-118 -49.5q-45 0 -86 20.5t-66.5 45t-60 45t-67.5 20.5q-43 0 -67.5 -30.5t-24.5 -83.5z" />
    <glyph glyph-name="Ograve" unicode="&#xd2;" horiz-adv-x="1638" 
d="M819 1452q322 0 508 -197t186 -538t-186 -538t-508 -197t-508 197t-186 538t186 538t508 197zM289 717q0 -336 136 -509t394 -173t394.5 173t136.5 509t-136.5 509t-394.5 173t-394 -173t-136 -509zM836 1550l-312 250l107 66l266 -316h-61z" />
    <glyph glyph-name="Oacute" unicode="&#xd3;" horiz-adv-x="1638" 
d="M819 1452q322 0 508 -197t186 -538t-186 -538t-508 -197t-508 197t-186 538t186 538t508 197zM289 717q0 -336 136 -509t394 -173t394.5 173t136.5 509t-136.5 509t-394.5 173t-394 -173t-136 -509zM803 1550h-62l267 316l104 -66z" />
    <glyph glyph-name="Ocircumflex" unicode="&#xd4;" horiz-adv-x="1638" 
d="M819 1452q322 0 508 -197t186 -538t-186 -538t-508 -197t-508 197t-186 538t186 538t508 197zM819 35q258 0 394.5 173t136.5 509t-136.5 509t-394.5 173t-394 -173t-136 -509t136 -509t394 -173zM582 1550h-62l277 314h45l276 -314h-61l-238 209z" />
    <glyph glyph-name="Otilde" unicode="&#xd5;" horiz-adv-x="1638" 
d="M819 1452q322 0 508 -197t186 -538t-186 -538t-508 -197t-508 197t-186 538t186 538t508 197zM289 717q0 -336 136 -509t394 -173t394.5 173t136.5 509t-136.5 509t-394.5 173t-394 -173t-136 -509zM580 1565h-54q0 87 42 137.5t118 50.5q43 0 83.5 -20.5t67 -45
t61.5 -45t69 -20.5q43 0 67.5 30t24.5 83h53q0 -88 -42.5 -137.5t-117.5 -49.5q-45 0 -86 20.5t-66.5 45t-60 45t-67.5 20.5q-43 0 -67.5 -30.5t-24.5 -83.5z" />
    <glyph glyph-name="Odieresis" unicode="&#xd6;" horiz-adv-x="1638" 
d="M819 1452q322 0 508 -197t186 -538t-186 -538t-508 -197t-508 197t-186 538t186 538t508 197zM289 717q0 -336 136 -509t394 -173t394.5 173t136.5 509t-136.5 509t-394.5 173t-394 -173t-136 -509zM942 1653q0 38 22.5 60t59.5 22t59.5 -22t22.5 -60q0 -37 -22.5 -59.5
t-59.5 -22.5t-59.5 22.5t-22.5 59.5zM532 1653q0 38 22.5 60t59.5 22t59.5 -22t22.5 -60q0 -37 -22.5 -59.5t-59.5 -22.5t-59.5 22.5t-22.5 59.5z" />
    <glyph glyph-name="multiply" unicode="&#xd7;" 
d="M307 319l-39 39l359 359l-359 358l39 41l359 -360l358 360l41 -41l-360 -358l358 -359l-39 -39l-358 359z" />
    <glyph glyph-name="Oslash" unicode="&#xd8;" horiz-adv-x="1638" 
d="M528 33l-49 -107l-47 21l49 106q-171 84 -263.5 255t-92.5 409q0 341 186 538t508 197q159 0 289 -51l51 106l47 -20l-49 -107q170 -84 263 -255t93 -408q0 -341 -186 -538t-508 -197q-158 0 -291 51zM819 35q258 0 394.5 173t136.5 509q0 434 -226 594l-567 -1217
q112 -59 262 -59zM289 717q0 -435 225 -594l565 1216q-114 60 -260 60q-258 0 -394 -172.5t-136 -509.5z" />
    <glyph glyph-name="Ugrave" unicode="&#xd9;" horiz-adv-x="1671" 
d="M57 1434h494v-54h-168v-778q0 -258 128 -393t370 -135q238 0 365.5 133.5t127.5 386.5v770l-178 20v50h418v-50l-178 -20v-795q0 -274 -162 -430.5t-443 -156.5t-443.5 159.5t-162.5 436.5v802h-168v54zM858 1550l-311 250l106 66l267 -316h-62z" />
    <glyph glyph-name="Uacute" unicode="&#xda;" horiz-adv-x="1671" 
d="M57 1434h494v-54h-168v-778q0 -258 128 -393t370 -135q238 0 365.5 133.5t127.5 386.5v770l-178 20v50h418v-50l-178 -20v-795q0 -274 -162 -430.5t-443 -156.5t-443.5 159.5t-162.5 436.5v802h-168v54zM825 1550h-61l266 316l105 -66z" />
    <glyph glyph-name="Ucircumflex" unicode="&#xdb;" horiz-adv-x="1671" 
d="M57 1380v54h494v-54h-168v-778q0 -258 128 -393t370 -135q238 0 365.5 133.5t127.5 386.5v770l-178 20v50h418v-50l-178 -20v-795q0 -274 -162 -430.5t-443 -156.5t-443.5 159.5t-162.5 436.5v802h-168zM543 1550l276 314h45l277 -314h-62l-237 209l-238 -209h-61z" />
    <glyph glyph-name="Udieresis" unicode="&#xdc;" horiz-adv-x="1671" 
d="M57 1434h494v-54h-168v-778q0 -258 128 -393t370 -135q238 0 365.5 133.5t127.5 386.5v770l-178 20v50h418v-50l-178 -20v-795q0 -274 -162 -430.5t-443 -156.5t-443.5 159.5t-162.5 436.5v802h-168v54zM1047 1735q38 0 59.5 -22t21.5 -60q0 -37 -21.5 -59.5t-59.5 -22.5
q-37 0 -59.5 22.5t-22.5 59.5q0 38 22.5 60t59.5 22zM637 1735q38 0 60 -22t22 -60q0 -37 -22 -59.5t-60 -22.5q-37 0 -59.5 22.5t-22.5 59.5q0 38 22.5 60t59.5 22z" />
    <glyph glyph-name="Yacute" unicode="&#xdd;" horiz-adv-x="1544" 
d="M31 1380v54h528v-54h-174l453 -645l430 633l-166 16v50h414v-50l-175 -18l-481 -707v-606h168v-53h-493v53h170v609l-502 718h-172zM772 1550h-61l264 316l106 -66z" />
    <glyph glyph-name="Thorn" unicode="&#xde;" horiz-adv-x="1384" 
d="M92 53h168v1327h-168v54h494v-54h-168v-239h362q241 0 378.5 -108t137.5 -296t-137.5 -294.5t-378.5 -106.5h-362v-283h209v-53h-535v53zM418 395h336q186 0 283.5 87t97.5 255t-97.5 255t-283.5 87h-336v-684z" />
    <glyph glyph-name="germandbls" unicode="&#xdf;" horiz-adv-x="1306" 
d="M371 0h-289v53h145v803q-39 4 -145 4v51h145v215q0 197 108.5 311.5t293.5 114.5q157 0 246.5 -81t89.5 -216q0 -54 -15.5 -98.5t-40.5 -75.5t-55 -58.5t-59.5 -53.5t-54.5 -53t-40.5 -65t-15.5 -83q0 -75 52.5 -123t185.5 -94q166 -58 236.5 -127t70.5 -172
q0 -125 -88 -197.5t-240 -72.5q-166 0 -278 98l-15 -84h-45v258h45q0 -100 73 -158.5t196 -58.5q112 0 172.5 47t60.5 131q0 73 -55.5 121t-196.5 98q-162 58 -226.5 122.5t-64.5 164.5q0 58 19 103.5t49 76.5t66.5 58l73 54t66.5 58t49 78t19 106q0 117 -71 181.5
t-197 64.5q-133 0 -201.5 -77.5t-68.5 -225.5v-1198z" />
    <glyph glyph-name="agrave" unicode="&#xe0;" horiz-adv-x="1101" 
d="M127 201q0 146 159 221.5t468 77.5v133q0 244 -234 244q-105 0 -164 -45.5t-59 -129.5q0 -40 16 -69l-28 -27h-37q-37 0 -56.5 24t-19.5 68q0 107 94 169.5t258 62.5q178 0 274.5 -76.5t96.5 -214.5v-498q0 -61 53 -61q46 0 90 47l27 -41q-88 -104 -186 -104
q-57 0 -91 31.5t-34 86.5v86q-157 -204 -373 -204q-117 0 -185.5 59t-68.5 160zM446 70q87 0 167.5 42t140.5 119v218q-245 0 -364.5 -56.5t-119.5 -171.5q0 -73 45.5 -112t130.5 -39zM549 1110l-309 250l106 65l266 -315h-63z" />
    <glyph glyph-name="aacute" unicode="&#xe1;" horiz-adv-x="1101" 
d="M127 201q0 146 159 221.5t468 77.5v133q0 244 -234 244q-105 0 -164 -45.5t-59 -129.5q0 -40 16 -69l-28 -27h-37q-37 0 -56.5 24t-19.5 68q0 107 94 169.5t258 62.5q178 0 274.5 -76.5t96.5 -214.5v-498q0 -61 53 -61q46 0 90 47l27 -41q-88 -104 -186 -104
q-57 0 -91 31.5t-34 86.5v86q-157 -204 -373 -204q-117 0 -185.5 59t-68.5 160zM270 221q0 -73 45.5 -112t130.5 -39q87 0 167.5 42t140.5 119v218q-245 0 -364.5 -56.5t-119.5 -171.5zM518 1110h-61l264 315l106 -65z" />
    <glyph glyph-name="acircumflex" unicode="&#xe2;" horiz-adv-x="1101" 
d="M127 201q0 146 159 221.5t468 77.5v133q0 244 -234 244q-105 0 -164 -45.5t-59 -129.5q0 -40 16 -69l-28 -27h-37q-37 0 -56.5 24t-19.5 68q0 107 94 169.5t258 62.5q178 0 274.5 -76.5t96.5 -214.5v-498q0 -61 53 -61q46 0 90 47l27 -41q-88 -104 -186 -104
q-57 0 -91 31.5t-34 86.5v86q-157 -204 -373 -204q-117 0 -185.5 59t-68.5 160zM270 221q0 -73 45.5 -112t130.5 -39q87 0 167.5 42t140.5 119v218q-245 0 -364.5 -56.5t-119.5 -171.5zM295 1110h-62l277 313h47l274 -313h-61l-235 209z" />
    <glyph glyph-name="atilde" unicode="&#xe3;" horiz-adv-x="1101" 
d="M754 500v133q0 244 -234 244q-105 0 -164 -45.5t-59 -129.5q0 -40 16 -69l-28 -27h-37q-37 0 -56.5 24t-19.5 68q0 107 94 169.5t258 62.5q178 0 274.5 -76.5t96.5 -214.5v-498q0 -61 53 -61q46 0 90 47l27 -41q-88 -104 -186 -104q-57 0 -91 31.5t-34 86.5v86
q-157 -204 -373 -204q-117 0 -185.5 59t-68.5 160q0 146 159 221.5t468 77.5zM270 221q0 -73 45.5 -112t130.5 -39q87 0 167.5 42t140.5 119v218q-245 0 -364.5 -56.5t-119.5 -171.5zM399 1313q44 0 85 -20.5t67 -45t61 -45t68 -20.5q44 0 69 29.5t25 82.5h53
q0 -88 -42 -137t-117 -49q-45 0 -86.5 20.5t-67.5 45t-61 45t-68 20.5q-41 0 -65.5 -31t-24.5 -84h-53q0 89 40.5 139t116.5 50z" />
    <glyph glyph-name="adieresis" unicode="&#xe4;" horiz-adv-x="1101" 
d="M127 201q0 146 159 221.5t468 77.5v133q0 244 -234 244q-105 0 -164 -45.5t-59 -129.5q0 -40 16 -69l-28 -27h-37q-37 0 -56.5 24t-19.5 68q0 107 94 169.5t258 62.5q178 0 274.5 -76.5t96.5 -214.5v-498q0 -61 53 -61q46 0 90 47l27 -41q-88 -104 -186 -104
q-57 0 -91 31.5t-34 86.5v86q-157 -204 -373 -204q-117 0 -185.5 59t-68.5 160zM270 221q0 -73 45.5 -112t130.5 -39q87 0 167.5 42t140.5 119v218q-245 0 -364.5 -56.5t-119.5 -171.5zM655 1212q0 38 23 60t61 22q37 0 59.5 -22t22.5 -60q0 -37 -22.5 -59.5t-59.5 -22.5
q-38 0 -61 22.5t-23 59.5zM246 1212q0 38 23 60t61 22q37 0 59.5 -22t22.5 -60q0 -37 -22.5 -59.5t-59.5 -22.5q-38 0 -61 22.5t-23 59.5z" />
    <glyph glyph-name="aring" unicode="&#xe5;" horiz-adv-x="1101" 
d="M127 201q0 146 159 221.5t468 77.5v133q0 244 -234 244q-105 0 -164 -45.5t-59 -129.5q0 -40 16 -69l-28 -27h-37q-37 0 -56.5 24t-19.5 68q0 107 94 169.5t258 62.5q178 0 274.5 -76.5t96.5 -214.5v-498q0 -61 53 -61q46 0 90 47l27 -41q-88 -104 -186 -104
q-57 0 -91 31.5t-34 86.5v86q-157 -204 -373 -204q-117 0 -185.5 59t-68.5 160zM270 221q0 -73 45.5 -112t130.5 -39q87 0 167.5 42t140.5 119v218q-245 0 -364.5 -56.5t-119.5 -171.5zM535 1376q73 0 115 -42t42 -115q0 -72 -42 -114t-115 -42q-75 0 -116.5 41.5
t-41.5 114.5q0 74 41.5 115.5t116.5 41.5zM535 1118q45 0 71.5 27.5t26.5 73.5q0 47 -26 74.5t-72 27.5t-73.5 -27.5t-27.5 -74.5q0 -46 27.5 -73.5t73.5 -27.5z" />
    <glyph glyph-name="ae" unicode="&#xe6;" horiz-adv-x="1716" 
d="M754 500v133q0 244 -234 244q-105 0 -164 -45.5t-59 -129.5q0 -40 16 -69l-28 -27h-37q-37 0 -56.5 24t-19.5 68q0 107 94 169.5t258 62.5q255 0 322 -160q122 160 360 160q186 0 295 -99.5t109 -269.5q0 -55 -11 -92h-696q4 -203 92 -306.5t252 -103.5q203 0 301 164
l43 -24q-120 -217 -387 -217q-136 0 -236.5 56t-154.5 159q-71 -99 -181.5 -157t-232.5 -58q-125 0 -198.5 60t-73.5 163q0 143 159.5 218.5t467.5 76.5zM903 522h563q7 40 7 74q0 135 -70.5 208t-198.5 73q-140 0 -217.5 -90.5t-83.5 -264.5zM453 70q99 0 189.5 48
t148.5 128q-37 95 -37 203q-245 0 -364.5 -56.5t-119.5 -171.5q0 -72 47 -111.5t136 -39.5z" />
    <glyph glyph-name="ccedilla" unicode="&#xe7;" horiz-adv-x="1036" 
d="M109 449q0 225 128 353t353 128q158 0 250 -62.5t92 -169.5q0 -45 -20 -71.5t-54 -26.5h-35l-26 29q12 24 12 69q0 86 -58.5 132.5t-166.5 46.5q-158 0 -242 -100.5t-84 -293.5q0 -208 88 -316t256 -108q206 0 293 164l43 -24q-114 -206 -360 -215l-23 -105
q188 -25 188 -151q0 -68 -50 -107t-136 -39q-108 0 -182 58v57q63 -51 157 -51q62 0 98 23.5t36 64.5q0 86 -179 102l35 148q-193 10 -303 134t-110 331z" />
    <glyph glyph-name="egrave" unicode="&#xe8;" horiz-adv-x="1069" 
d="M109 459q0 220 120.5 345.5t331.5 125.5q187 0 295.5 -99.5t108.5 -269.5q0 -55 -11 -92h-696q4 -202 92.5 -306t251.5 -104q203 0 301 164l43 -26q-121 -215 -385 -215q-210 0 -331 127.5t-121 349.5zM258 522h567q2 14 2 49q0 149 -69.5 227.5t-198.5 78.5
q-139 0 -217 -91t-84 -264zM553 1110l-309 250l106 65l264 -315h-61z" />
    <glyph glyph-name="eacute" unicode="&#xe9;" horiz-adv-x="1069" 
d="M109 459q0 220 120.5 345.5t331.5 125.5q187 0 295.5 -99.5t108.5 -269.5q0 -55 -11 -92h-696q4 -202 92.5 -306t251.5 -104q203 0 301 164l43 -26q-121 -215 -385 -215q-210 0 -331 127.5t-121 349.5zM258 522h567q2 14 2 49q0 149 -69.5 227.5t-198.5 78.5
q-139 0 -217 -91t-84 -264zM522 1110h-61l264 315l106 -65z" />
    <glyph glyph-name="ecircumflex" unicode="&#xea;" horiz-adv-x="1069" 
d="M109 459q0 220 120.5 345.5t331.5 125.5q187 0 295.5 -99.5t108.5 -269.5q0 -55 -11 -92h-696q4 -202 92.5 -306t251.5 -104q203 0 301 164l43 -26q-121 -215 -385 -215q-210 0 -331 127.5t-121 349.5zM258 522h567q2 14 2 49q0 149 -69.5 227.5t-198.5 78.5
q-139 0 -217 -91t-84 -264zM299 1110h-61l276 313h45l277 -313h-62l-235 209z" />
    <glyph glyph-name="edieresis" unicode="&#xeb;" horiz-adv-x="1069" 
d="M561 -18q-210 0 -331 127.5t-121 349.5q0 220 120.5 345.5t331.5 125.5q187 0 295.5 -99.5t108.5 -269.5q0 -55 -11 -92h-696q4 -202 92.5 -306t251.5 -104q203 0 301 164l43 -26q-121 -215 -385 -215zM258 522h567q2 14 2 49q0 149 -69.5 227.5t-198.5 78.5
q-139 0 -217 -91t-84 -264zM250 1212q0 38 23 60t61 22q37 0 59.5 -22t22.5 -60q0 -37 -22.5 -59.5t-59.5 -22.5q-38 0 -61 22.5t-23 59.5zM743 1130q-38 0 -61 22.5t-23 59.5q0 38 23 60t61 22q37 0 59.5 -22t22.5 -60q0 -37 -22.5 -59.5t-59.5 -22.5z" />
    <glyph glyph-name="igrave" unicode="&#xec;" horiz-adv-x="579" 
d="M514 0h-432v53h145v813q-56 -6 -145 -6v51q175 0 289 19v-877h143v-53zM-12 1360l106 65l264 -315h-61z" />
    <glyph glyph-name="iacute" unicode="&#xed;" horiz-adv-x="579" 
d="M514 0h-432v53h145v813q-56 -6 -145 -6v51q175 0 289 19v-877h143v-53zM266 1110h-61l264 315l106 -65z" />
    <glyph glyph-name="icircumflex" unicode="&#xee;" horiz-adv-x="579" 
d="M514 0h-432v53h145v813q-56 -6 -145 -6v51q175 0 289 19v-877h143v-53zM-18 1110l276 313h45l277 -313h-62l-235 209l-240 -209h-61z" />
    <glyph glyph-name="idieresis" unicode="&#xef;" horiz-adv-x="579" 
d="M514 0h-432v53h145v813q-56 -6 -145 -6v51q175 0 289 19v-877h143v-53zM451 1286q38 0 59.5 -22t21.5 -60q0 -37 -21.5 -59.5t-59.5 -22.5q-37 0 -58.5 22.5t-21.5 59.5q0 38 21.5 60t58.5 22zM33 1204q0 38 21.5 60t58.5 22q38 0 60 -22t22 -60q0 -37 -22 -59.5
t-60 -22.5q-37 0 -58.5 22.5t-21.5 59.5z" />
    <glyph glyph-name="eth" unicode="&#xf0;" horiz-adv-x="1136" 
d="M567 -18q-214 0 -336 127t-122 348q0 220 122.5 346.5t337.5 126.5q119 0 203.5 -52.5t124.5 -148.5q-49 404 -238 604l-131 -131l-36 37l131 129q-146 133 -361 133v51q242 0 418 -127l129 129l37 -36l-127 -125q158 -138 234.5 -370t76.5 -509q0 -258 -122.5 -395
t-340.5 -137zM567 877q-149 0 -229 -106.5t-80 -313.5t80 -314.5t229 -107.5q152 0 233 107t81 315q0 207 -81 313.5t-233 106.5z" />
    <glyph glyph-name="ntilde" unicode="&#xf1;" horiz-adv-x="1255" 
d="M504 0h-422v53h145v813q-56 -6 -145 -6v51q175 0 289 19l-2 -193q86 94 187 143.5t204 49.5q135 0 214 -79.5t79 -215.5v-582h145v-53h-422v53h135v574q0 102 -56.5 158.5t-156.5 56.5q-88 0 -174.5 -43t-152.5 -121v-625h133v-53zM391 1124h-53q0 88 42 138.5t118 50.5
q43 0 83.5 -20.5t66.5 -45t61 -45t69 -20.5q43 0 67.5 30t24.5 82h54q0 -88 -42.5 -137t-117.5 -49q-45 0 -86 20.5t-67 45t-60.5 45t-67.5 20.5q-43 0 -67.5 -31t-24.5 -84z" />
    <glyph glyph-name="ograve" unicode="&#xf2;" horiz-adv-x="1136" 
d="M567 930q215 0 339 -126.5t124 -346.5q0 -221 -124 -348t-339 -127q-214 0 -336 127t-122 348q0 220 122 346.5t336 126.5zM258 457q0 -207 80 -314.5t229 -107.5q152 0 233 107t81 315q0 206 -81 313t-233 107q-149 0 -229 -107.5t-80 -312.5zM586 1110l-310 250l107 65
l264 -315h-61z" />
    <glyph glyph-name="oacute" unicode="&#xf3;" horiz-adv-x="1136" 
d="M567 930q215 0 339 -126.5t124 -346.5q0 -221 -124 -348t-339 -127q-214 0 -336 127t-122 348q0 220 122 346.5t336 126.5zM258 457q0 -207 80 -314.5t229 -107.5q152 0 233 107t81 315q0 206 -81 313t-233 107q-149 0 -229 -107.5t-80 -312.5zM555 1110h-61l264 315
l106 -65z" />
    <glyph glyph-name="ocircumflex" unicode="&#xf4;" horiz-adv-x="1136" 
d="M567 930q215 0 339 -126.5t124 -346.5q0 -221 -124 -348t-339 -127q-214 0 -336 127t-122 348q0 220 122 346.5t336 126.5zM567 35q152 0 233 107t81 315q0 206 -81 313t-233 107q-149 0 -229 -107.5t-80 -312.5q0 -207 80 -314.5t229 -107.5zM270 1110l277 313h45
l276 -313h-61l-236 209l-239 -209h-62z" />
    <glyph glyph-name="otilde" unicode="&#xf5;" horiz-adv-x="1136" 
d="M567 930q215 0 339 -126.5t124 -346.5q0 -221 -124 -348t-339 -127q-214 0 -336 127t-122 348q0 220 122 346.5t336 126.5zM258 457q0 -207 80 -314.5t229 -107.5q152 0 233 107t81 315q0 206 -81 313t-233 107q-149 0 -229 -107.5t-80 -312.5zM330 1124h-51
q0 89 40.5 139t116.5 50q44 0 85 -20.5t67 -45t61 -45t68 -20.5q44 0 69 29.5t25 82.5h51q0 -88 -41 -137t-116 -49q-45 0 -86.5 20.5t-67.5 45t-61 45t-68 20.5q-43 0 -67.5 -31t-24.5 -84z" />
    <glyph glyph-name="odieresis" unicode="&#xf6;" horiz-adv-x="1136" 
d="M567 930q215 0 339 -126.5t124 -346.5q0 -221 -124 -348t-339 -127q-214 0 -336 127t-122 348q0 220 122 346.5t336 126.5zM258 457q0 -207 80 -314.5t229 -107.5q152 0 233 107t81 315q0 206 -81 313t-233 107q-149 0 -229 -107.5t-80 -312.5zM692 1212q0 38 23 60
t61 22q37 0 59.5 -22t22.5 -60q0 -37 -22.5 -59.5t-59.5 -22.5q-38 0 -61 22.5t-23 59.5zM283 1212q0 38 23 60t61 22q37 0 59.5 -22t22.5 -60q0 -37 -22.5 -59.5t-59.5 -22.5q-38 0 -61 22.5t-23 59.5z" />
    <glyph glyph-name="divide" unicode="&#xf7;" 
d="M205 745h921v-57h-921v57zM666 414q32 0 50.5 -19t18.5 -51t-18.5 -51t-50.5 -19t-51 19t-19 51t19 51t51 19zM596 1090q0 32 19 50.5t51 18.5t50.5 -18.5t18.5 -50.5t-18.5 -51t-50.5 -19t-51 19t-19 51z" />
    <glyph glyph-name="oslash" unicode="&#xf8;" horiz-adv-x="1136" 
d="M567 930q93 0 178 -29l41 88l50 -20l-41 -86q113 -54 174 -163.5t61 -262.5q0 -221 -124 -348t-339 -127q-96 0 -178 28l-41 -86l-47 19l41 86q-113 56 -173 165.5t-60 262.5q0 220 122 346.5t336 126.5zM567 35q152 0 233 107t81 315q0 248 -119 354l-344 -741
q65 -35 149 -35zM258 457q0 -249 117 -357l344 742q-60 35 -152 35q-149 0 -229 -106.5t-80 -313.5z" />
    <glyph glyph-name="ugrave" unicode="&#xf9;" horiz-adv-x="1232" 
d="M346 930v-641q0 -105 55.5 -162t153.5 -57q88 0 174 43t152 120v633q-56 -6 -146 -6v51q172 0 289 19v-883q56 6 143 6v-53q-178 0 -286 -18v194q-83 -94 -182.5 -144t-202.5 -50q-134 0 -212.5 80.5t-78.5 216.5v587q-55 -6 -146 -6v51q176 0 287 19zM625 1110l-310 250
l107 65l266 -315h-63z" />
    <glyph glyph-name="uacute" unicode="&#xfa;" horiz-adv-x="1232" 
d="M59 860v51q176 0 287 19v-641q0 -105 55.5 -162t153.5 -57q88 0 174 43t152 120v633q-56 -6 -146 -6v51q172 0 289 19v-883q56 6 143 6v-53q-178 0 -286 -18v194q-83 -94 -182.5 -144t-202.5 -50q-134 0 -212.5 80.5t-78.5 216.5v587q-55 -6 -146 -6zM594 1110h-62
l265 315l106 -65z" />
    <glyph glyph-name="ucircumflex" unicode="&#xfb;" horiz-adv-x="1232" 
d="M346 930v-641q0 -105 55.5 -162t153.5 -57q88 0 174 43t152 120v633q-56 -6 -146 -6v51q172 0 289 19v-883q56 6 143 6v-53q-178 0 -286 -18v194q-83 -94 -182.5 -144t-202.5 -50q-134 0 -212.5 80.5t-78.5 216.5v587q-55 -6 -146 -6v51q176 0 287 19zM371 1110h-62
l277 313h47l274 -313h-61l-236 209z" />
    <glyph glyph-name="udieresis" unicode="&#xfc;" horiz-adv-x="1232" 
d="M59 860v51q176 0 287 19v-641q0 -105 55.5 -162t153.5 -57q88 0 174 43t152 120v633q-56 -6 -146 -6v51q172 0 289 19v-883q56 6 143 6v-53q-178 0 -286 -18v194q-83 -94 -182.5 -144t-202.5 -50q-134 0 -212.5 80.5t-78.5 216.5v587q-55 -6 -146 -6zM406 1294
q37 0 59 -22t22 -60q0 -37 -22 -59.5t-59 -22.5q-38 0 -61 22.5t-23 59.5q0 38 23 60t61 22zM731 1212q0 38 23 60t61 22q37 0 59.5 -22t22.5 -60q0 -37 -22.5 -59.5t-59.5 -22.5q-38 0 -61 22.5t-23 59.5z" />
    <glyph glyph-name="yacute" unicode="&#xfd;" horiz-adv-x="1193" 
d="M465 862h-148l328 -719l318 705l-144 16v47h350v-47l-147 -16l-496 -1094q-54 -119 -115 -176t-137 -57q-58 0 -91 34.5t-33 94.5q0 43 20 66.5t57 23.5h31l23 -21q-11 -14 -11 -41q0 -33 16 -51t44 -18q75 0 147 160l92 206l-403 887h-143v49h442v-49zM602 1110h-61
l264 315l106 -65z" />
    <glyph glyph-name="thorn" unicode="&#xfe;" horiz-adv-x="1196" 
d="M502 -467h-471v53h145v1903q-55 -6 -145 -6v53q188 0 286 14v-802q112 182 351 182q195 0 307 -126.5t112 -346.5q0 -221 -112 -348t-307 -127q-239 0 -351 182v-578h185v-53zM322 455q0 -202 79.5 -307t229.5 -105q147 0 227 105.5t80 306.5q0 204 -79.5 309.5
t-227.5 105.5q-150 0 -229.5 -105.5t-79.5 -309.5z" />
    <glyph glyph-name="ydieresis" unicode="&#xff;" horiz-adv-x="1193" 
d="M465 862h-148l328 -719l318 705l-144 16v47h350v-47l-147 -16l-496 -1094q-54 -119 -115 -176t-137 -57q-58 0 -91 34.5t-33 94.5q0 43 20 66.5t57 23.5h31l23 -21q-11 -14 -11 -41q0 -33 16 -51t44 -18q75 0 147 160l92 206l-403 887h-143v49h442v-49zM823 1294
q37 0 59.5 -22t22.5 -60q0 -37 -22.5 -59.5t-59.5 -22.5q-38 0 -61 22.5t-23 59.5q0 38 23 60t61 22zM414 1294q37 0 59.5 -22t22.5 -60q0 -37 -22.5 -59.5t-59.5 -22.5q-38 0 -61 22.5t-23 59.5q0 38 23 60t61 22z" />
    <glyph glyph-name="OE" unicode="&#x152;" horiz-adv-x="2516" 
d="M819 1452q183 0 325 -66.5t232 -191.5v240h1026v-310h-45q0 132 -58.5 190t-189.5 58h-589v-618h413q99 0 144 47t45 149h43v-456h-43q0 103 -45 150.5t-144 47.5h-413v-631h600q130 0 188.5 58.5t58.5 189.5h46v-309h-1037v240q-90 -125 -232 -191.5t-325 -66.5
q-322 0 -508 197t-186 538t186 538t508 197zM819 35q258 0 394.5 173t136.5 509q0 337 -136 509.5t-395 172.5q-258 0 -394 -172.5t-136 -509.5q0 -336 136 -509t394 -173z" />
    <glyph glyph-name="oe" unicode="&#x153;" horiz-adv-x="1843" 
d="M569 930q139 0 236 -56.5t145 -162.5q50 106 146.5 162.5t234.5 56.5q187 0 296.5 -100t109.5 -271q0 -41 -11 -90h-698q6 -203 93.5 -306.5t250.5 -103.5q204 0 297 164l45 -24q-120 -217 -385 -217q-272 0 -379 221q-48 -107 -144.5 -164t-236.5 -57q-215 0 -337.5 127
t-122.5 348q0 220 122.5 346.5t337.5 126.5zM258 457q0 -209 80 -315.5t231 -106.5t231.5 106.5t80.5 315.5q0 207 -80.5 313.5t-231.5 106.5t-231 -106.5t-80 -313.5zM1028 522h563q8 31 8 78q0 132 -70 204.5t-196 72.5q-142 0 -220.5 -90.5t-84.5 -264.5z" />
    <glyph glyph-name="Ydieresis" unicode="&#x178;" horiz-adv-x="1544" 
d="M31 1434h528v-54h-174l453 -645l430 633l-166 16v50h414v-50l-175 -18l-481 -707v-606h168v-53h-493v53h170v609l-502 718h-172v54zM909 1653q0 38 22.5 60t59.5 22q38 0 61 -22t23 -60q0 -37 -23 -59.5t-61 -22.5q-37 0 -59.5 22.5t-22.5 59.5zM582 1735q38 0 61 -22
t23 -60q0 -37 -23 -59.5t-61 -22.5q-37 0 -59.5 22.5t-22.5 59.5q0 38 22.5 60t59.5 22z" />
    <glyph glyph-name="circumflex" unicode="&#x2c6;" horiz-adv-x="935" 
d="M170 1110l276 313h46l276 -313h-61l-238 209l-238 -209h-61z" />
    <glyph glyph-name="tilde" unicode="&#x2dc;" horiz-adv-x="923" 
d="M221 1124h-51q0 89 41 139t117 50q44 0 85 -20.5t67 -45t60.5 -45t67.5 -20.5q43 0 68.5 30t25.5 82h52q0 -88 -41.5 -137t-116.5 -49q-45 0 -86.5 20.5t-67.5 45t-61 45t-68 20.5q-43 0 -67.5 -31t-24.5 -84z" />
    <glyph glyph-name="uni2000" unicode="&#x2000;" horiz-adv-x="933" 
 />
    <glyph glyph-name="uni2001" unicode="&#x2001;" horiz-adv-x="1866" 
 />
    <glyph glyph-name="uni2002" unicode="&#x2002;" horiz-adv-x="933" 
 />
    <glyph glyph-name="uni2003" unicode="&#x2003;" horiz-adv-x="1866" 
 />
    <glyph glyph-name="uni2004" unicode="&#x2004;" horiz-adv-x="622" 
 />
    <glyph glyph-name="uni2005" unicode="&#x2005;" horiz-adv-x="466" 
 />
    <glyph glyph-name="uni2006" unicode="&#x2006;" horiz-adv-x="311" 
 />
    <glyph glyph-name="uni2007" unicode="&#x2007;" horiz-adv-x="311" 
 />
    <glyph glyph-name="uni2008" unicode="&#x2008;" horiz-adv-x="233" 
 />
    <glyph glyph-name="uni2009" unicode="&#x2009;" horiz-adv-x="373" 
 />
    <glyph glyph-name="uni200A" unicode="&#x200a;" horiz-adv-x="103" 
 />
    <glyph glyph-name="uni2010" unicode="&#x2010;" horiz-adv-x="716" 
d="M575 444h-432v58h432v-58z" />
    <glyph glyph-name="uni2011" unicode="&#x2011;" horiz-adv-x="716" 
d="M575 444h-432v58h432v-58z" />
    <glyph glyph-name="figuredash" unicode="&#x2012;" horiz-adv-x="716" 
d="M575 444h-432v58h432v-58z" />
    <glyph glyph-name="endash" unicode="&#x2013;" horiz-adv-x="1228" 
d="M1087 532h-944v56h944v-56z" />
    <glyph glyph-name="emdash" unicode="&#x2014;" horiz-adv-x="2048" 
d="M1907 532h-1764v56h1764v-56z" />
    <glyph glyph-name="quoteleft" unicode="&#x2018;" horiz-adv-x="456" 
d="M313 1241q0 -40 -23 -63t-63 -23t-64 23t-24 61q0 152 52.5 233.5t144.5 81.5v-55q-51 0 -85 -45t-44 -129q51 0 78.5 -18t27.5 -66z" />
    <glyph glyph-name="quoteright" unicode="&#x2019;" horiz-adv-x="456" 
d="M250 1384q-6 -2 -21 -2q-39 0 -62.5 23.5t-23.5 62.5t23.5 62.5t62.5 23.5q40 0 64 -23t24 -63q0 -151 -51.5 -232t-144.5 -81v55q51 0 85 45t44 129z" />
    <glyph glyph-name="quotesinglbase" unicode="&#x201a;" horiz-adv-x="456" 
d="M250 -4q-3 0 -10 -1t-11 -1q-38 0 -62 24t-24 62q0 39 23.5 62.5t62.5 23.5q40 0 64 -23t24 -61q0 -152 -51.5 -233.5t-144.5 -81.5v55q51 0 85 45t44 129z" />
    <glyph glyph-name="quotedblleft" unicode="&#x201c;" horiz-adv-x="733" 
d="M610 1554v-55q-51 0 -84 -44.5t-43 -129.5q107 0 107 -84q0 -40 -24 -63t-64 -23t-63 23t-23 61q0 152 51 233.5t143 81.5zM313 1241q0 -40 -23 -63t-63 -23t-64 23t-24 61q0 152 52.5 233.5t144.5 81.5v-55q-51 0 -85 -45t-44 -129q51 0 78.5 -18t27.5 -66z" />
    <glyph glyph-name="quotedblright" unicode="&#x201d;" horiz-adv-x="733" 
d="M524 1384q-6 -2 -18 -2q-40 0 -64 23t-24 63t24 63t64 23t63 -23t23 -63q0 -151 -51.5 -232t-143.5 -81v55q51 0 84 44.5t43 129.5zM250 1384q-6 -2 -21 -2q-39 0 -62.5 23.5t-23.5 62.5t23.5 62.5t62.5 23.5q40 0 64 -23t24 -63q0 -151 -51.5 -232t-144.5 -81v55
q51 0 85 45t44 129z" />
    <glyph glyph-name="quotedblbase" unicode="&#x201e;" horiz-adv-x="733" 
d="M524 -4q-3 0 -9 -1t-9 -1q-40 0 -64 24t-24 62q0 40 24 63t64 23t63 -23t23 -61q0 -152 -51.5 -233.5t-143.5 -81.5v55q51 0 84 44.5t43 129.5zM250 -4q-3 0 -10 -1t-11 -1q-38 0 -62 24t-24 62q0 39 23.5 62.5t62.5 23.5q40 0 64 -23t24 -61q0 -152 -51.5 -233.5
t-144.5 -81.5v55q51 0 85 45t44 129z" />
    <glyph glyph-name="bullet" unicode="&#x2022;" horiz-adv-x="638" 
d="M133 717q0 86 50 137t136 51q87 0 138 -50.5t51 -137.5q0 -86 -50.5 -136.5t-138.5 -50.5q-86 0 -136 50.5t-50 136.5z" />
    <glyph glyph-name="ellipsis" unicode="&#x2026;" horiz-adv-x="1384" 
d="M133 80q0 45 26.5 71.5t71.5 26.5t72 -26.5t27 -71.5q0 -44 -27.5 -71t-71.5 -27t-71 27t-27 71zM692 178q45 0 72 -26.5t27 -71.5q0 -44 -27.5 -71t-71.5 -27t-71 27t-27 71q0 45 26.5 71.5t71.5 26.5zM1055 80q0 45 26.5 71.5t71.5 26.5q46 0 72 -26t26 -72
q0 -45 -26.5 -71.5t-71.5 -26.5q-44 0 -71 27t-27 71z" />
    <glyph glyph-name="uni202F" unicode="&#x202f;" horiz-adv-x="373" 
 />
    <glyph glyph-name="guilsinglleft" unicode="&#x2039;" horiz-adv-x="602" 
d="M78 502v49l393 338l37 -37l-297 -326l299 -325l-39 -37z" />
    <glyph glyph-name="guilsinglright" unicode="&#x203a;" horiz-adv-x="602" 
d="M133 889l393 -338v-49l-393 -338l-39 37l297 325l-297 326z" />
    <glyph glyph-name="uni205F" unicode="&#x205f;" horiz-adv-x="466" 
 />
    <glyph glyph-name="Euro" unicode="&#x20ac;" horiz-adv-x="1619" 
d="M82 901h172q51 260 238 405.5t477 145.5q156 0 271 -44t167 -118l16 144h43v-396h-43q0 167 -121.5 264t-332.5 97q-238 0 -380 -126.5t-177 -371.5h614v-55h-618q-9 -92 -9 -129q0 -33 9 -125h618v-55h-616q37 -248 179 -375t380 -127q211 0 332.5 96.5t121.5 263.5h43
v-395h-43l-16 143q-52 -74 -168 -117.5t-272 -43.5q-290 0 -477 147t-238 408h-170v55h162q-8 82 -8 125q0 61 10 129h-164v55z" />
    <glyph glyph-name="trademark" unicode="&#x2122;" horiz-adv-x="1912" 
d="M1075 680h-225v33l92 14v657l-92 15v35h215l291 -625l293 625h209v-35h-86v-684h86v-35h-273v35h88v669l-330 -708h-30l-330 706v-655l92 -14v-33zM49 1262v172h696v-172h-30q0 69 -30 100t-99 31h-140v-678h89v-35h-273v35h86v678h-137q-69 0 -99 -31t-30 -100h-33z" />
    <glyph glyph-name="uni25FC" unicode="&#x25fc;" horiz-adv-x="911" 
d="M0 911h911v-911h-911v911z" />
    </font>
</defs>
</svg>
