<?xml version="1.0" standalone="no"?>
<!DOCTYPE svg PUBLIC "-//W3C//DTD SVG 1.1//EN" "http://www.w3.org/Graphics/SVG/1.1/DTD/svg11.dtd" >
<svg xmlns="http://www.w3.org/2000/svg" xmlns:xlink="http://www.w3.org/1999/xlink" version="1.1">
<metadata>
Created by FontForge 20170731 at Fri Jan  1 02:30:17 1904
 By Aleksey,,,
Converted by ALLTYPE
</metadata>
<defs>
<font id="Bauhaus-Bold" horiz-adv-x="316" >
  <font-face 
    font-family="Bauhaus"
    font-weight="7"
    font-style="italic"
    font-stretch="normal"
    units-per-em="1000"
    panose-1="0 0 0 0 0 0 0 0 0 0"
    ascent="800"
    descent="-200"
    x-height="480"
    cap-height="701"
    bbox="-87 -236 1071 969"
    underline-thickness="50"
    underline-position="-155"
    slope="23853"
    unicode-range="U+0020-F002"
  />
<missing-glyph 
 />
    <glyph glyph-name=".notdef" 
 />
    <glyph glyph-name="glyph1" horiz-adv-x="0" 
 />
    <glyph glyph-name="glyph2" horiz-adv-x="276" 
 />
    <glyph glyph-name="space" unicode=" " 
 />
    <glyph glyph-name="space" unicode="&#xa0;" 
 />
    <glyph glyph-name="exclam" unicode="!" horiz-adv-x="260" 
d="M39 47q2 15 7.5 27t15.5 21q11 9 22 13.5t23 4.5l40 1q11 -1 22 -5t21 -12q10 -9 16 -22t7 -30q0 -16 -5 -28t-16 -18q-10 -8 -21.5 -12t-23.5 -4h-40q-13 0 -24.5 3.5t-22.5 11.5q-10 7 -15.5 19t-5.5 28v2v0zM63 157v544h40h87v-544h-40h-87v0v0z" />
    <glyph glyph-name="quotedbl" unicode="&#x22;" horiz-adv-x="371" 
d="M47 425v276h40h87v-276h-40h-87v0v0zM189 425v276h40h87v-276h-40h-87v0v0z" />
    <glyph glyph-name="numbersign" unicode="#" horiz-adv-x="599" 
d="M31 213v63h111l15 149h-102v63h110l24 213h40h71l-24 -213h78l24 213h40h71l-24 -213h95v-63h-103l-15 -149h94v-63h-102l-24 -213h-40h-71l24 213h-78l-32 -213h-40h-71l32 213h-103v0v0zM253 276h78l15 149h-78l-15 -149v0z" />
    <glyph glyph-name="dollar" unicode="$" horiz-adv-x="599" 
d="M87 102v87h157v189q-2 -1 -4 0l-4 2q-1 1 -2 1.5t-1 1.5q-1 0 -2 0.5t-2 1.5q-3 2 -5.5 3t-4.5 3q-3 1 -5.5 2.5t-5.5 2.5q-6 3 -11.5 6t-10.5 7q-20 11 -38.5 25.5t-35.5 31.5q-16 17 -24.5 42t-8.5 57q0 30 8.5 52t24.5 37q17 14 35.5 24.5t38.5 16.5q8 2 15.5 4
t14.5 3q4 1 7.5 1.5t6.5 1.5q4 0 7.5 0.5t6.5 1.5v80h40h79v-78h134v-87h-134v-181q4 -4 8 -6.5t8 -4.5q3 -2 7 -4.5t8 -4.5t7.5 -4.5t7.5 -4.5q3 -2 6.5 -4t7.5 -4q23 -15 42 -31t34 -33q14 -17 21.5 -41.5t7.5 -56.5v-5.5v-4.5q-1 -3 -1 -5.5v-4.5q-1 -5 -1.5 -10
t-1.5 -10q-4 -19 -14.5 -37t-26.5 -34t-42 -24t-61 -8l-40 1h-4l-4 1h40h-5h-4v-109h-40h-79v110h-157v0v0zM363 191q5 1 9 3t8 5q8 7 12 16t5 19q0 8 -2.5 16.5t-7.5 17.5q-4 8 -10 17t-14 18v-112v0zM244 501v110q-4 -3 -7.5 -5.5t-6.5 -5.5q-9 -8 -13 -17.5t-4 -20.5
v-5.5t1 -4.5q0 -3 0.5 -5.5t1.5 -4.5q3 -10 8.5 -19t14.5 -18l1.5 -1.5t1.5 -0.5q0 -1 0.5 -1.5l1.5 -1.5v1z" />
    <glyph glyph-name="percent" unicode="%" horiz-adv-x="930" 
d="M157 -8l441 732h40h71l-441 -732h-40h-71v0v0zM472 157q0 34 10 63t31 53q20 24 49.5 36t67.5 12l40 1q32 -1 56.5 -9.5t41.5 -25.5q17 -16 29.5 -34.5t19.5 -38.5l2 -8t2 -7q1 -4 1.5 -8t1.5 -8q2 -7 2.5 -14.5t0.5 -13.5q0 -38 -12.5 -68t-36.5 -52q-25 -22 -52 -32.5
t-56 -10.5h-40q-32 0 -57 8t-42 24q-18 17 -30 35t-19 38q-3 8 -4.5 15.5t-3.5 14.5q-1 8 -1.5 14.5t-0.5 13.5v2v0zM591 157q0 -20 4 -33.5t13 -21.5q8 -9 17.5 -14.5t19.5 -7.5q1 -1 1.5 -1h1.5q12 2 21.5 5.5t17.5 10.5q11 9 16.5 24t5.5 36t-5.5 37t-16.5 27
q-7 8 -16.5 13t-20.5 8q-11 -2 -20 -7.5t-15 -13.5q-10 -11 -15.5 -23t-7.5 -25v-2v-2q-1 -1 -1 -2v-2v-3.5v-3.5v1zM39 551q0 37 11 67t33 52q23 23 53 34t69 11l40 1q35 -1 63.5 -11.5t50.5 -30.5q21 -20 32 -49.5t11 -67.5t-11.5 -68t-34.5 -53q-23 -22 -51 -33t-60 -11
l-40 1q-3 -1 -5.5 -1h-4.5h-2.5t-2.5 1h-3h-2q-28 3 -53 13.5t-48 29.5q-22 18 -33.5 46.5t-11.5 66.5v2v0zM166 559q0 -21 5.5 -36.5t17.5 -26.5q10 -8 20.5 -14t20.5 -8q8 2 15.5 6t14.5 10q11 9 17 24t6 34v5v5q0 19 -6 34t-18 25q-8 6 -16.5 10.5t-17.5 6.5
q-9 -2 -18 -7t-17 -12q-12 -10 -18 -24.5t-6 -32.5v1z" />
    <glyph glyph-name="ampersand" unicode="&#x26;" horiz-adv-x="709" 
d="M142 504q-12 13 -21 26t-15 26q-6 12 -9 24t-3 24q0 18 7 34t20 31q14 15 36.5 22.5t55.5 7.5l275 2h40v-95h-275q-12 -2 -17.5 -5t-4.5 -8t4.5 -12t9.5 -16l278 -347q0 -1 0 -0.5v0.5v0.5v0.5q2 11 3.5 23t1.5 24q0 5 -0.5 10t-1.5 11q-1 5 -1.5 10.5t-2.5 10.5
q-4 16 -10.5 31.5t-15.5 30.5t-18.5 28.5t-20.5 24.5l71 65h40q17 -16 32.5 -35t28.5 -42q14 -22 23 -45.5t13 -47.5q2 -6 2.5 -11.5t1.5 -10.5v-6t1 -5v-5.5v-5.5q0 -16 -1 -29.5t-3 -25.5t-5 -24t-8 -23q-2 -4 -4 -8.5t-4 -8.5q-2 -5 -4.5 -9t-4.5 -9q-4 -9 -9.5 -18
t-11.5 -19l86 -100h-40h-126l-16 21q-11 -8 -25 -14.5t-31 -10.5q-18 -6 -43 -9t-57 -3h-40q-13 0 -27 1.5t-31 4.5q-16 3 -32.5 7t-33.5 10q-32 13 -61.5 34.5t-56.5 51.5t-41 73.5t-16 99.5q0 33 6 63t19 56t27 47.5t29 37.5l4.5 4.5t5.5 4.5l4.5 4.5l4.5 4.5q5 4 9.5 7.5
t8.5 6.5v2v0zM449 118l-229 288q-8 -8 -15 -16t-12 -17q-9 -16 -15 -32t-9 -33q-1 -4 -2 -8.5t-1 -9.5v-8v-8q0 -39 13.5 -73t40.5 -64q25 -27 56.5 -42t69.5 -17q8 0 15 1l14 2q5 1 10.5 2t11.5 3q5 2 10.5 4t10.5 5q3 2 7 4t8 5l8 6l8 6v2v0z" />
    <glyph glyph-name="quotesingle" unicode="'" horiz-adv-x="260" 
d="M55 496l32 205h40h86l-47 -205h-40h-71v0v0z" />
    <glyph glyph-name="parenleft" unicode="(" horiz-adv-x="426" 
d="M63 276q2 64 13.5 118.5t32.5 98.5t44 80t48 64q10 11 19.5 20.5t19.5 18.5q9 9 18 16.5t18 14.5l40 1l47 -47q-7 -9 -16 -18t-21 -20q-12 -10 -24 -23.5t-24 -30.5q-17 -22 -33 -52t-31 -67t-22.5 -85t-9.5 -107q0 -62 13.5 -120t41.5 -111q27 -52 58.5 -90.5
t67.5 -62.5l-40 -63h-40q-28 21 -51 43t-42 45t-34.5 46.5t-27.5 46.5q-21 38 -34.5 76t-19.5 75q-6 38 -8.5 70.5t-2.5 60.5v2v0z" />
    <glyph glyph-name="parenright" unicode=")" horiz-adv-x="426" 
d="M228 260q0 70 -12.5 129.5t-38.5 107.5q-25 48 -53.5 83.5t-58.5 58.5l-2 2l-2 2q-2 0 -3 1l-2 2q-2 2 -4.5 3.5t-4.5 2.5l40 65h40q2 -3 4.5 -5t5.5 -4q2 -1 3 -2t3 -2q1 -1 2.5 -2t2.5 -2q39 -29 74.5 -72.5t67.5 -100.5t48.5 -124.5t16.5 -144.5q0 -11 -0.5 -22.5
t-1.5 -22.5q-1 -12 -2 -23t-3 -22q-8 -52 -25.5 -102.5t-43.5 -96.5q-27 -48 -63 -85.5t-82 -64.5h-40l-39 55q47 35 80 75.5t53 85.5q20 47 30.5 94.5t10.5 96.5v4v4v4v4v2v2q-1 1 -1 2v2v4v4v2v0z" />
    <glyph glyph-name="asterisk" unicode="*" horiz-adv-x="544" 
d="M197 504l-134 63l39 71h40l83 -63l-12 126h40h78l-12 -126l83 63h40l39 -71l-134 -63l134 -71l-39 -63h-40l-77 51l6 -114h-40h-78l6 114l-77 -51h-40l-39 63l134 71v0v0z" />
    <glyph glyph-name="plus" unicode="+" horiz-adv-x="638" 
d="M47 197v86h197v197h40h87v-197h189v-86h-189v-197h-40h-87v197h-197v0v0z" />
    <glyph glyph-name="comma" unicode="," 
d="M63 -102l39 204h40h103l-63 -204h-40h-5h-4h-4.5h-4.5h-12.5h-13.5h-15.5h-19.5v0v0z" />
    <glyph glyph-name="hyphen" unicode="-" 
d="M24 205v78h40h228v-78h-40h-228v0v0z" />
    <glyph glyph-name="period" unicode="." 
d="M79 55q0 13 4.5 24t13.5 19t19 12t21 5l40 1h1h2q11 -1 20.5 -4.5t18.5 -11.5q9 -7 13.5 -19t4.5 -28t-4.5 -28t-13.5 -20q-9 -6 -19 -10t-21 -4h-40q-11 0 -21.5 3.5t-19.5 10.5q-10 8 -14.5 20t-4.5 28v2v0z" />
    <glyph glyph-name="slash" unicode="/" 
d="M-16 -8l213 732h40h86l-212 -732h-40h-87v0v0z" />
    <glyph glyph-name="zero" unicode="0" horiz-adv-x="599" 
d="M31 236v229q0 55 18 100t54 80t79.5 52.5t93.5 17.5l40 1q43 -1 78 -11.5t62 -31.5t47 -43.5t33 -47.5q6 -13 11 -25t8 -24t4.5 -23t1.5 -20v-3v-2l-1 -2v0v-2v-2v-243v-5l1 -3v-4v-3q0 -9 -0.5 -17.5t-2.5 -16.5q-1 -8 -3 -16.5t-4 -16.5q-10 -33 -29 -62.5t-48 -55.5
q-28 -27 -66 -39.5t-85 -12.5h-40q-54 0 -94.5 12.5t-69.5 39.5q-28 27 -47.5 56.5t-28.5 61.5q-1 5 -2.5 10t-2.5 11l-2 10l-2 10q-1 10 -2 19.5t-1 19.5v2v0zM417 244v228q0 40 -11 68.5t-32 44.5q-19 14 -39 23t-42 11q-32 -3 -54.5 -15.5t-35.5 -34.5q-15 -25 -22 -56
t-7 -66v-195q0 -46 9.5 -77.5t28.5 -51.5q17 -16 37.5 -25.5t45.5 -11.5q23 2 42.5 10.5t36.5 21.5q21 17 32 43.5t12 63.5v5v5l-1 4v4v1v0z" />
    <glyph glyph-name="one" unicode="1" horiz-adv-x="599" 
d="M102 614l24 87h40h197v-701h-40h-95v614h-126v0v0z" />
    <glyph glyph-name="two" unicode="2" horiz-adv-x="599" 
d="M31 488q0 43 16.5 82.5t50.5 74.5q33 35 79.5 52.5t105.5 17.5l40 1q53 -1 92.5 -13.5t65.5 -37.5t43.5 -53t26.5 -58q1 -4 2 -8.5t2 -8.5q1 -5 1.5 -9t1.5 -9q1 -9 1.5 -17t0.5 -16q0 -13 -1 -25t-3 -23q-1 -12 -4.5 -22.5t-8.5 -21.5q-7 -17 -20 -34.5t-30 -35.5
q-18 -18 -42.5 -38.5t-56.5 -43.5l-197 -148h355v-94h-40h-378h-6h-6q-22 0 -39 5t-31 15q-13 11 -20 24t-7 29v3.5v3.5q0 1 0.5 3t0.5 3q1 3 2.5 6.5t2.5 7.5q2 5 5 10t7 10t9 10.5t11 9.5l268 214q17 10 32 24.5t28 32.5t19.5 38.5t6.5 44.5q0 23 -9 45t-27 41
q-15 17 -38 27t-53 12q-24 -2 -42.5 -11t-32.5 -24q-16 -18 -26.5 -38t-13.5 -41v-2.5v-2.5q-1 -2 -1 -3v-2v-4.5v-4.5q0 -25 5.5 -44.5t17.5 -33.5t25 -24.5t28 -18.5l8 -4l8 -4q3 -2 7 -3.5t8 -2.5q8 -3 14.5 -4.5t12.5 -2.5l-87 -68h-40q-41 19 -70 40.5t-46 45.5
t-25.5 55t-8.5 69v2v0z" />
    <glyph glyph-name="three" unicode="3" horiz-adv-x="599" 
d="M55 606v95h40h299q32 -2 53.5 -8t33.5 -18q11 -12 17 -25t7 -27v-1v-1q0 -16 -5 -29.5t-16 -25.5q-10 -13 -23 -25t-27 -23l-111 -93q43 -2 81 -14.5t72 -37.5t51 -61.5t17 -85.5v-4v-4v-2v-1v-2v-2q0 -50 -14.5 -89t-43.5 -67t-66 -41.5t-81 -13.5h-40h-260v87h40h217
q25 1 45 11t35 26q17 20 26 41.5t9 45.5q0 23 -9 45t-27 41q-19 20 -47.5 30t-67.5 10l-126 2v70l220 197h-299v0v0z" />
    <glyph glyph-name="four" unicode="4" horiz-adv-x="599" 
d="M315 244v307l102 166h40v-473h103v-87h-103v-157h-40h-102v157h-173l-4 -1h-4l-4 -1h-40h-4q-20 -1 -36 3t-27 12q-12 8 -17.5 19.5t-5.5 25.5q0 5 1 11t3 13q2 6 5 13t7 14l244 435h40h110l-260 -457h165v0v0z" />
    <glyph glyph-name="five" unicode="5" horiz-adv-x="599" 
d="M79 339v362h40h370v-95h-276v-181h110q44 -5 83 -17t73 -32q33 -21 51.5 -62t21.5 -103q0 -46 -14 -84t-41 -68t-57.5 -44.5t-64.5 -14.5h-40h-6h-6h-276v87h40h229h1q19 1 32.5 8t23.5 17q12 14 20 29.5t12 32.5q1 5 1.5 9.5t1.5 8.5v4.5t1 5.5v4.5v4.5q-3 29 -12 51.5
t-24 37.5t-43.5 24.5t-69.5 12.5l-181 2v0v0z" />
    <glyph glyph-name="six" unicode="6" horiz-adv-x="599" 
d="M16 244q2 25 6 46t10 37t13 31t16 29q3 6 7 12l8 12q5 6 9.5 13.5t8.5 14.5l182 262h40h118l-189 -268q-12 -20 -22.5 -36.5t-19.5 -30.5q-10 -14 -17.5 -27.5t-13.5 -27.5q-6 -11 -10 -22.5t-7 -22.5t-4 -23t-1 -25v-1v-1q0 -27 11 -51t33 -45q19 -19 42 -29t51 -13
q26 3 49.5 13t42.5 29q23 22 34.5 50.5t11.5 63.5q0 41 -12.5 73.5t-36.5 54.5q-24 23 -56 34t-72 12l40 1h-5h-5l-5 -1h-40h-5l63 88h40q59 -5 104 -26t75 -59q30 -39 45.5 -81t15.5 -88t-15 -88t-47 -80q-31 -39 -79.5 -59t-113.5 -23h-40q-59 0 -106.5 17.5t-82.5 53.5
q-36 36 -53.5 81t-17.5 98v2v0z" />
    <glyph glyph-name="seven" unicode="7" horiz-adv-x="599" 
d="M31 606v95h40h355q24 -2 43.5 -6t35.5 -12q16 -7 24 -21.5t9 -34.5q0 -7 -1.5 -14.5t-3.5 -16.5t-5 -18.5t-8 -20.5l-244 -557h-40h-118l268 606h-355v0v0z" />
    <glyph glyph-name="eight" unicode="8" horiz-adv-x="599" 
d="M134 394q-18 10 -30 23.5t-19 29.5t-10.5 35.5t-3.5 43.5q0 5 0.5 11t1.5 12t2.5 12t2.5 13q8 25 24 47.5t41 43.5t60 31.5t80 10.5l40 1q43 -1 78 -14t63 -39q28 -25 42 -56t15 -67v-3v-3l-1 -4v-3q0 -25 -5 -44.5t-15 -34.5q-10 -16 -20.5 -28t-22.5 -20
q10 -7 19 -13.5t16 -12.5q8 -7 15 -13t13 -12q15 -16 25 -32.5t14 -33.5q5 -17 7 -37t2 -43q0 -44 -17.5 -81.5t-52.5 -68.5t-80.5 -46t-101.5 -15h-40q-53 0 -93.5 10t-67.5 31t-45.5 44.5t-28.5 48.5q-5 11 -8.5 22.5t-5.5 22.5q-1 11 -2 21t-1 19q0 29 7 55t21 48
q14 23 34.5 44t47.5 42v2v0zM166 213q0 -31 9 -55.5t27 -43.5q16 -16 39 -25t54 -11q26 2 48 9t40 20q21 15 31.5 39t10.5 57q0 30 -8.5 52.5t-25.5 37.5q-16 15 -34.5 25t-38.5 14q-6 2 -11.5 2.5t-10.5 1.5h-1.5h-1.5q-30 -3 -53 -12.5t-38 -26.5q-18 -19 -27 -40.5
t-9 -44.5v1zM213 519v-8t1 -6q0 -4 1 -7.5t2 -6.5q5 -13 13 -24.5t20 -22.5q8 -7 18.5 -12t22.5 -7q23 4 39.5 12.5t25.5 21.5q11 15 16.5 32t5.5 35v2v2q-1 1 -1 2v2v2v3q-1 1 -1 2v2q-2 13 -9 25t-18 22q-9 8 -22 13.5t-30 7.5q-16 -2 -29.5 -7t-24.5 -13
q-15 -10 -22.5 -28.5t-7.5 -44.5v1z" />
    <glyph glyph-name="nine" unicode="9" horiz-adv-x="599" 
d="M16 449q0 8 1 17.5t2 19.5q2 10 4 20.5t5 20.5q10 32 29.5 61.5t49.5 56.5t74 40.5t102 13.5l40 1q53 -1 97.5 -18t78.5 -52q35 -34 52 -78t17 -97q0 -12 -0.5 -23t-2.5 -21q-1 -10 -3.5 -20t-5.5 -19q-2 -6 -4.5 -12t-5.5 -12q-3 -7 -6 -13l-6 -12q-7 -13 -16.5 -27
t-20.5 -30l-189 -266h-40h-118l220 307q17 19 28.5 39t16.5 40t7.5 39.5t2.5 37.5q0 29 -10.5 55.5t-31.5 48.5q-18 19 -40 30t-48 14q-26 -3 -49 -12t-43 -26q-24 -19 -37 -53t-16 -81q0 -34 13.5 -62t41.5 -51q27 -22 59 -33.5t69 -11.5l6 1q2 -1 4 -1h4l-55 -76h-40
q-52 2 -90 15.5t-64 36.5q-25 23 -42 48.5t-26 52.5q-4 12 -6.5 23.5t-4.5 22.5l-2 22t-1 21v2v0z" />
    <glyph glyph-name="colon" unicode=":" 
d="M79 47q0 13 4.5 24t13.5 19t19 12t21 5l40 1h1h2q11 -1 20.5 -4.5t18.5 -11.5q9 -7 13.5 -19t4.5 -28t-4.5 -28t-13.5 -18q-9 -8 -19 -12t-21 -4h-40q-11 0 -21.5 3.5t-19.5 11.5q-10 7 -14.5 19t-4.5 28v2v0zM71 339q0 13 4.5 24t13.5 18q9 8 19 12.5t21 5.5l40 1h1h2
q11 -1 20.5 -4.5t18.5 -11.5q9 -7 13.5 -19t4.5 -28t-4.5 -28.5t-13.5 -20.5t-19 -12t-21 -4l-40 1q-11 -2 -21.5 2t-19.5 12q-10 8 -14.5 21t-4.5 29v2v0z" />
    <glyph glyph-name="semicolon" unicode=";" 
d="M55 -102l39 204h40h103l-63 -204h-40h-5h-4h-4.5h-4.5h-12.5h-13.5h-15.5h-19.5v0v0zM71 339q0 13 4.5 24t13.5 18q9 8 19 12.5t21 5.5l40 1h1h2q11 -1 20.5 -4.5t18.5 -11.5q9 -7 13.5 -19t4.5 -28t-4.5 -28.5t-13.5 -20.5t-19 -12t-21 -4l-40 1q-11 -2 -21.5 2
t-19.5 12q-10 8 -14.5 21t-4.5 29v2v0z" />
    <glyph glyph-name="less" unicode="&#x3c;" horiz-adv-x="638" 
d="M55 197v79l480 212h40v-86l-378 -166l378 -165v-79h-40l-480 205v0v0z" />
    <glyph glyph-name="equal" unicode="=" horiz-adv-x="638" 
d="M55 102v79h40h488v-79h-40h-488v0v0zM55 291v79h40h488v-79h-40h-488v0v0z" />
    <glyph glyph-name="greater" unicode="&#x3e;" horiz-adv-x="638" 
d="M441 244l-378 165v87h40l480 -213v-78l-480 -213h-40v87l378 165v0v0z" />
    <glyph glyph-name="question" unicode="?" horiz-adv-x="481" 
d="M150 55q0 13 5 24t15 19q11 8 22 12t24 5l40 1h1h2q12 -1 23 -4.5t21 -11.5q10 -7 15 -19t5 -28t-5 -28t-15 -20q-10 -6 -20.5 -10t-22.5 -4h-40q-13 0 -24 3.5t-22 10.5q-10 8 -16 20t-8 28v2v0zM173 165v221h40q0 -1 0.5 -1h1.5h1.5h0.5q5 0 9.5 0.5t9.5 1.5
q20 2 38 9.5t34 19.5q17 12 26.5 33.5t11.5 52.5v4v4q-1 1 -1 3v4q-1 4 -1.5 8t-1.5 8q-4 18 -14 34t-24 31q-11 12 -25 19t-31 10q-19 -3 -33 -12t-23 -23q-11 -18 -17 -38t-8 -41q-1 -3 -1 -5.5v-4.5v-4.5v-4.5l-40 1l-102 1q0 46 14 85.5t42 70.5q28 32 67 47.5t89 15.5
l40 1q50 -1 88 -16.5t64 -47.5q26 -31 39 -66t14 -73v-1v-1q0 -45 -13 -81t-39 -64t-58.5 -43t-70.5 -18v-140h-40h-87v0v0z" />
    <glyph glyph-name="at" unicode="@" horiz-adv-x="843" 
d="M47 346v6v1v2v1v2v4.5v5.5v4.5v4.5v4.5t1 5.5q0 2 0.5 4.5t0.5 4.5q6 60 32.5 115t72.5 104q47 50 108.5 75t139.5 25l40 1q67 -1 118.5 -15t88.5 -42t63 -59t42 -64q7 -15 12 -30t8 -30t4.5 -28t1.5 -25q0 -29 -3.5 -54t-9.5 -46t-16 -41t-24 -39q-1 -2 -3 -4t-3 -4
q-2 -2 -3.5 -4t-3.5 -4q-1 -2 -3 -4t-3 -4q-2 -2 -3.5 -4t-3.5 -4q-16 -16 -32 -29t-33 -23t-36.5 -15t-41.5 -5l-40 1q-1 -1 -2.5 -1h-2.5h-3h-3h-2.5h-2.5q-2 0 -3 0.5t-3 0.5q-12 0 -20.5 3t-13.5 10q-2 2 -3.5 4.5t-3.5 5.5l-6 -4t-7 -4q-14 -7 -30 -11t-33 -4l-40 1
q-28 -1 -54 8t-49 28q-24 19 -36 47t-12 65v5l1 4v4v4q0 7 1 14.5t2 15.5q2 8 3.5 16t3.5 16q9 35 26 67.5t42 62.5q26 29 61 44t81 15l40 1q18 -1 33.5 -5.5t28.5 -13.5q5 -4 10 -7.5t9 -7.5l5 19h40h71l-78 -291q0 -13 1.5 -21t5.5 -13l1.5 -1.5t0.5 -1.5h1v0
q6 3 12.5 8.5t13.5 12.5q12 12 24 29.5t22 39.5q11 23 17.5 48.5t9.5 53.5v7l1 6q0 7 -1 15t-3 17q-1 9 -4 18l-6 18q-12 29 -34 56.5t-54 52.5q-28 23 -65.5 36.5t-82.5 17.5q-7 -1 -15.5 -2.5t-16.5 -3.5q-15 -3 -29.5 -8t-28.5 -12q-33 -15 -63.5 -39.5t-57.5 -57.5
q-28 -33 -42.5 -77t-16.5 -99v-5v-6q-1 -56 15 -100.5t49 -79.5q33 -34 69 -58t75 -36q5 -2 10.5 -3.5t11.5 -3.5q5 -1 10.5 -2t10.5 -2q8 -1 15 -1.5t14 -1.5q27 2 53.5 8t51.5 18q28 13 49 27.5t34 30.5q2 2 3.5 4t2.5 5q2 2 3.5 4.5t2.5 4.5l79 2h40q-2 -4 -4 -7l-4 -6
l-4 -6t-4 -5q-21 -27 -47 -51.5t-58 -46.5q-31 -22 -78 -32.5t-109 -10.5h-40q-70 0 -125.5 17t-97.5 52t-70.5 73.5t-45.5 81.5q-3 8 -5.5 15t-4.5 15q-3 7 -4.5 14.5t-3.5 14.5q-3 14 -4 28t-1 27v4v4v3v4v1v0zM488 386v2l1 4v3v4q0 16 -6 30.5t-18 25.5q-8 8 -17 13
t-20 8q-19 -4 -37 -17t-35 -35q-20 -27 -30 -57t-10 -62q0 -24 6 -41.5t18 -29.5q8 -7 16 -12.5t17 -7.5v0v0q18 5 35.5 17.5t33.5 32.5t26.5 42t15.5 45q1 4 1.5 8t1.5 8v4t1 5v4v4v2v0z" />
    <glyph glyph-name="A" unicode="A" horiz-adv-x="599" 
d="M39 0v465q0 52 15.5 96t46.5 81q32 36 75.5 54.5t99.5 18.5l40 1q53 -1 97 -19t78 -54q35 -36 52 -84t17 -109v-4v-4v-6v-4v-432h-40h-95v323h-260v94h260v5v1t1 2v1v2v7v1v2v1v2q0 47 -9.5 82t-28.5 58q-16 20 -38 31.5t-48 14.5q-24 -2 -42.5 -9.5t-31.5 -20.5
q-16 -15 -26.5 -32t-16.5 -35q-3 -9 -5 -18l-4 -18q-1 -9 -1.5 -16.5t-0.5 -14.5v-463h-40h-95v0v0z" />
    <glyph glyph-name="B" unicode="B" horiz-adv-x="599" 
d="M47 0v488v7.5v8.5q0 5 1 10l2 10q5 35 20.5 66.5t42.5 60.5q26 29 67 45t96 19l40 1q44 -1 82.5 -13t71.5 -35q33 -24 49.5 -59.5t16.5 -82.5q0 -33 -3.5 -56t-11.5 -37q-7 -14 -18.5 -26t-25.5 -23l-6 -3l-6 -4q27 -11 47 -25.5t32 -33.5t19 -38t10 -39v-4t1 -4v-4v-4
v-4t1 -3v-3.5v-3.5v-4v-4v-2v-1q0 -1 0.5 -2t0.5 -2q0 -43 -14 -78t-42 -63t-61.5 -41.5t-73.5 -13.5h-40h-2h-1h-2h-2h-2h-1h-2h-2h-150v94h126q26 -2 49.5 4.5t43.5 19.5t30.5 34t10.5 51q0 32 -11 55t-32 36q-21 14 -48 20.5t-59 6.5l-110 2v86h87q33 -2 57 4.5t39 19.5
t24 27t12 30v2t1 3v2.5v2.5v2t1 3v2.5v2.5q0 26 -8.5 47.5t-25.5 37.5q-13 14 -31.5 22t-41.5 10q-24 -2 -42 -11t-30 -24q-14 -18 -22 -38t-10 -41q-1 -3 -1 -5.5v-4.5v-4.5v-4.5v-494h-40h-103v0v0z" />
    <glyph glyph-name="C" unicode="C" horiz-adv-x="544" 
d="M39 354q0 63 20 116.5t60 96.5q41 44 85 73t92 44q11 4 22.5 7t22.5 4q11 2 22.5 3t22.5 1l102 2h40v-87h-79q-68 -8 -119.5 -31t-86.5 -64q-34 -40 -51.5 -84t-17.5 -91q0 -10 1 -23t4 -28q2 -7 3.5 -15t4.5 -15q2 -8 5 -15.5t7 -15.5q12 -28 33 -53t50 -48
q26 -22 63.5 -33t86.5 -13l56 2h40v-87h-40h-126q-77 1 -137 27.5t-102 76.5t-63 112t-21 136v2v0z" />
    <glyph glyph-name="D" unicode="D" horiz-adv-x="654" 
d="M63 0v701h40h220q10 -2 20.5 -3t20.5 -3q11 -2 22 -5l22 -6q42 -15 80.5 -42.5t72.5 -68.5q35 -40 52.5 -92.5t17.5 -115.5v-2v-3v-4v-3q0 -14 -2 -31.5t-7 -40.5q-4 -22 -12.5 -45t-20.5 -47q-17 -35 -43.5 -67.5t-61.5 -61.5t-83 -44t-109 -16h-40h-55v94h40h48
q35 2 62.5 14t49.5 34q25 25 43 52t29 57q2 7 4 13.5t4 13.5q2 6 3.5 12.5t2.5 13.5q2 14 3.5 26t1.5 22v5l1 5v4v4v1v2q-1 44 -16.5 85.5t-46.5 78.5q-31 38 -78 56.5t-112 18.5l-31 1v-613h-40h-102v0v0z" />
    <glyph glyph-name="E" unicode="E" horiz-adv-x="544" 
d="M16 346q3 70 20.5 124t48.5 90q32 36 65.5 61.5t70.5 40.5q26 11 50 17.5t47 10.5q23 3 42 5.5t34 3.5l63 2h40v-87h-55q-64 -5 -112.5 -20.5t-82.5 -44.5q-34 -28 -55 -58.5t-30 -63.5q-1 -3 -1.5 -5.5t-0.5 -4.5q-1 -3 -1.5 -5.5t-0.5 -4.5l299 2h40v-86h-339
q0 -11 1 -20.5t4 -20.5q3 -10 7 -20.5t8 -21.5q14 -29 35.5 -56t49.5 -51q27 -22 56.5 -34t62.5 -14l75 2h40v-87h-40h-79h-8.5h-8.5h-9h-9q-9 1 -18 2.5t-17 2.5q-55 11 -105.5 39t-95.5 71q-46 44 -68.5 101t-22.5 128v2v0z" />
    <glyph glyph-name="F" unicode="F" horiz-adv-x="426" 
d="M24 0v465q0 72 18.5 119.5t55.5 69.5q37 23 77.5 34t84.5 11l102 2h40v-87h-94q-33 -2 -60 -9.5t-48 -21.5t-31.5 -40.5t-10.5 -64.5v-84h244v-87h-244v-307h-40h-94v0v0z" />
    <glyph glyph-name="G" unicode="G" horiz-adv-x="820" 
d="M24 354q0 70 19 125.5t56 96.5q38 41 79 70t86 45q8 3 16.5 5.5t17.5 5.5q8 2 16.5 4t16.5 3q17 3 32.5 4.5t30.5 1.5l40 1q41 -1 79 -9t72 -23t67 -39t65 -56l-63 -69h-40q-4 2 -7.5 5t-7.5 7l-4 4l-4 4q-3 2 -5 4l-4 4q-18 15 -39 28.5t-45 26.5q-20 11 -42 17t-45 7
q-53 -3 -93.5 -20t-69.5 -49q-31 -34 -50.5 -72.5t-26.5 -80.5q-1 -7 -2.5 -13.5t-1.5 -13.5q-1 -7 -1 -13.5v-12.5q0 -50 16.5 -96.5t49.5 -88.5q32 -41 81 -63t114 -27q38 2 70 15t57 37q29 26 48.5 55.5t30.5 61.5q3 8 5.5 15.5t3.5 14.5q1 4 1.5 7.5t0.5 7.5
q1 3 1.5 6.5t0.5 7.5l-244 2v95h40h346v-87q-6 -79 -35 -138.5t-80 -101.5q-52 -42 -111.5 -62.5t-127.5 -20.5h-40q-80 0 -146 24.5t-117 75.5q-51 50 -78 115.5t-29 144.5v2v0z" />
    <glyph glyph-name="H" unicode="H" horiz-adv-x="654" 
d="M63 0v701h40h94v-284h260v284h40h94v-701h-40h-94v323h-260v-323h-40h-94v0v0z" />
    <glyph glyph-name="I" unicode="I" horiz-adv-x="260" 
d="M55 0v701h40h95v-701h-40h-95v0v0z" />
    <glyph glyph-name="J" unicode="J" horiz-adv-x="371" 
d="M237 701h94v-465v-11t-1 -10q0 -6 -0.5 -11t-0.5 -10q-1 -10 -2.5 -20.5t-3.5 -21.5q-6 -29 -20 -55.5t-36 -50.5t-59 -35t-89 -11h-40h-4h-4h-3.5h-4.5h-63v87h55q35 -2 61.5 5.5t44.5 22.5t27 39t9 57v490h40v0v0z" />
    <glyph glyph-name="K" unicode="K" horiz-adv-x="599" 
d="M95 701h102v-299h62v0q7 0 13.5 2.5t13.5 7.5q6 5 12.5 11.5t13.5 15.5q13 17 23.5 37t18.5 42l79 183h40h118l-94 -221q-1 -5 -3 -9.5t-4 -9.5q-2 -4 -5 -8.5t-6 -9.5q-6 -9 -13.5 -17.5t-16.5 -16.5q-4 -4 -8.5 -7t-8.5 -6q-5 -3 -9 -5.5t-9 -4.5l-2 -1h-2
q32 -10 58 -25t45 -35q20 -21 29.5 -53.5t9.5 -76.5v-195h-40h-103v197q0 25 -8 46t-23 37q-16 17 -41.5 25t-60.5 8l-79 2v-315h-40h-102v701h40v0v0z" />
    <glyph glyph-name="L" unicode="L" horiz-adv-x="426" 
d="M103 701h94v-457q0 -35 7 -63t20 -51q11 -19 32 -30.5t51 -14.5l79 2h40v-87h-40h-110q-9 0 -19.5 0.5t-21.5 1.5q-11 2 -22.5 5t-23.5 7q-24 9 -45.5 24.5t-41.5 37.5q-19 22 -29 53.5t-10 73.5v498h40v0v0z" />
    <glyph glyph-name="M" unicode="M" horiz-adv-x="820" 
d="M-8 0l79 622q2 20 8.5 36.5t19.5 27.5q12 11 26 17t29 7l40 1h2h3q13 -2 25.5 -7.5t24.5 -15.5t20.5 -25t14.5 -35l122 -403l114 397q5 20 13 36.5t20 26.5q12 11 24 17.5t25 7.5l5 2h40h4q15 -1 28.5 -6t25.5 -16q12 -10 19.5 -23.5t8.5 -30.5l79 -636h-40h-103l-52 477
l-128 -430q-3 -14 -9 -24.5t-15 -16.5t-18 -9t-19 -4h-40h-2h-2q-10 0 -19.5 2.5t-18.5 6.5q-9 6 -14.5 14.5t-8.5 20.5l-136 442l-53 -479h-40h-102v0v0z" />
    <glyph glyph-name="N" unicode="N" horiz-adv-x="654" 
d="M39 0v606q0 22 7 40t20 31q14 12 29.5 18.5t32.5 7.5l40 1q13 -1 25 -4.5t24 -11.5q11 -7 20 -18t16 -26l204 -426v483h40h94v-654q0 -17 -5 -29t-15 -18q-10 -7 -21.5 -10.5t-24.5 -3.5h-40h-6l-5 1q-12 1 -22.5 4.5t-21.5 8.5q-10 4 -17 11.5t-11 17.5l-220 455v-484
h-40h-103v0v0z" />
    <glyph glyph-name="O" unicode="O" horiz-adv-x="820" 
d="M24 362q0 78 26 141t78 109q52 47 109 72.5t119 29.5h3t3 1h2.5h2.5l40 1q2 -1 3 -1h3h2.5h2.5q13 0 26.5 -1t27.5 -3t28.5 -5t29.5 -7q47 -14 90 -42t83 -69t61 -100t24 -136q0 -71 -24 -134t-71 -118t-111.5 -81.5t-147.5 -26.5h-40q-77 0 -142.5 23t-119.5 69
q-54 47 -81 116t-27 160v2v0zM166 361v-5.5v-3.5v-2v-1v-2v-2q-1 -54 17 -100.5t55 -87.5q33 -37 75 -56.5t92 -22.5q8 0 15.5 1t14.5 2q14 2 28.5 5.5t29.5 9.5q29 11 55 30t50 47q24 29 36 71.5t12 99.5q0 53 -15.5 102t-47.5 93q-29 41 -75 63t-109 25q-52 -3 -94 -23.5
t-72 -59.5q-34 -42 -50.5 -88t-16.5 -96v1z" />
    <glyph glyph-name="P" unicode="P" horiz-adv-x="544" 
d="M39 0v472q0 55 17.5 99.5t52.5 77.5t75 49.5t84 16.5l40 1l18 -2t19 -3t20 -5l20 -6q30 -11 57 -30t52 -46t37.5 -61.5t12.5 -76.5q0 -46 -12 -82t-35 -62q-23 -25 -48.5 -42.5t-52.5 -25.5q-7 -2 -14.5 -3.5t-14.5 -2.5t-14 -1.5t-14 -0.5l-40 1l-134 1v86h40h85
q21 1 37 6t27 15q14 11 24 24t15 27q3 8 4.5 16.5t2.5 16.5t1.5 14.5t0.5 12.5q0 5 -0.5 11t-1.5 13t-3 14l-4 14q-6 15 -16 29t-24 27q-12 11 -28 17.5t-38 7.5q-35 -3 -57.5 -17t-32.5 -38q-12 -28 -17.5 -61.5t-5.5 -71.5v-431h-40h-95v0v0z" />
    <glyph glyph-name="Q" unicode="Q" horiz-adv-x="820" 
d="M354 -142v378h40h103v-135q29 12 54 31.5t46 45.5q29 35 43 80.5t14 101.5q0 50 -18.5 96t-55.5 88q-34 38 -76 59t-92 24q-50 -3 -91 -20t-73 -49q-34 -34 -55.5 -72.5t-29.5 -80.5q-1 -7 -2 -13.5t-2 -13.5t-1 -13.5v-12.5q0 -47 14.5 -90t42.5 -82q29 -39 64 -63
t76 -32v-85h-40q-12 0 -25 3t-27 7q-14 5 -28 11.5t-28 13.5q-35 18 -67.5 46.5t-61.5 67.5t-44.5 89.5t-17.5 113.5q0 74 27 136.5t81 113.5t114 79.5t126 32.5h2t3 1h2.5h2.5l40 1q3 -1 6 -1h6q12 0 25 -1t26 -3q7 -1 13.5 -2.5t13.5 -2.5q6 -2 12.5 -3.5t13.5 -3.5
q47 -15 90.5 -43t83.5 -69q39 -40 60 -95t24 -124v-3v-4v-4v-4q0 -72 -21 -131.5t-64 -106.5t-94.5 -76t-111.5 -39v-142h-40h-103v0v0z" />
    <glyph glyph-name="R" unicode="R" horiz-adv-x="599" 
d="M47 0v441q0 64 14.5 113.5t44.5 84.5q29 35 73.5 54t103.5 22l40 1q43 -1 80.5 -15t68.5 -43q32 -28 48 -62.5t16 -73.5v-5v-6q0 -25 -5 -47.5t-14 -43.5q-10 -21 -25 -36t-35 -24q20 -9 36 -22.5t28 -33.5q11 -19 17 -41t6 -45v-218h-40h-95v205q0 25 -9.5 44t-27.5 31
q-19 12 -43 18.5t-53 6.5l-95 2v87h40h79v-1v0q18 3 35 11.5t33 22.5q17 14 25.5 35t8.5 48q0 26 -7.5 45.5t-22.5 31.5t-31 19.5t-34 10.5q-1 0 -2.5 0.5t-3.5 0.5q-1 0 -2.5 0.5t-3.5 0.5q-19 -2 -34.5 -8.5t-26.5 -16.5q-15 -13 -25 -27t-16 -29q-3 -7 -5 -14l-4 -14
q-1 -7 -1.5 -13t-0.5 -11v-486h-40h-95v0v0z" />
    <glyph glyph-name="S" unicode="S" horiz-adv-x="544" 
d="M16 87h252q23 -2 42 2.5t33 13.5t23 24t12 36q0 18 -6 34t-18 31t-30 28t-41 25l-8 4l-8 4l-8 4l-8 4l-2 1l-2 2q-42 19 -80.5 41t-73.5 46q-34 24 -51.5 56t-17.5 72v4v3v2v3q0 37 10.5 66t32.5 48q22 20 46 33t51 19q4 1 8 1.5t8 1.5q2 0 4 0.5t5 1.5q2 0 4 0.5t4 0.5
l244 2h40v-87h-228q-21 -2 -37.5 -8t-28.5 -18t-18 -25t-8 -27l-1 -4v-5q0 -10 1.5 -18t5.5 -16q4 -7 10 -13t13 -10q23 -16 44.5 -29t40.5 -23q20 -10 38 -19.5t36 -18.5q5 -3 9.5 -5.5t8.5 -4.5q2 -1 4.5 -2.5t5.5 -2.5q2 -2 4.5 -3t4.5 -2q3 -2 6.5 -4.5t7.5 -4.5
q3 -2 7 -4.5t8 -4.5q18 -12 34.5 -28t31.5 -36t23 -45t8 -54q0 -7 -0.5 -15t-1.5 -16t-2 -16.5t-3 -16.5q-6 -22 -18 -42t-31 -38t-49.5 -26.5t-73.5 -8.5h-40h-4h-4h-5h-4h-260v87v0v0z" />
    <glyph glyph-name="T" unicode="T" horiz-adv-x="481" 
d="M-8 614v87h40h449v-87h-173v-614h-40h-103v614h-173v0v0z" />
    <glyph glyph-name="U" unicode="U" horiz-adv-x="599" 
d="M79 701h103v-449q0 -49 10 -82.5t30 -53.5q17 -16 35.5 -25.5t39.5 -12.5q25 3 43.5 13t31.5 27q16 20 25 42.5t11 47.5v2t1 3v2v2v4.5v4.5v475h40h103v-465q0 -64 -18 -110t-53 -76t-76.5 -44t-88.5 -14h-40q-47 0 -88.5 15.5t-77.5 47.5t-53.5 75t-17.5 96v475h40v0v0z
" />
    <glyph glyph-name="V" unicode="V" horiz-adv-x="599" 
d="M9 701h110l182 -521l156 521h40h110l-205 -646q-1 -4 -2 -7l-2 -6q-1 -1 -1.5 -2.5t-0.5 -2.5l-1.5 -3l-1.5 -3q-4 -8 -10 -15t-14 -13q-8 -5 -19.5 -8t-26.5 -3h-40q-15 0 -26 2.5t-19 5.5q-7 5 -14.5 14.5t-14.5 24.5q-1 3 -2.5 6l-3.5 7q-1 4 -2.5 8.5t-3.5 8.5
l-228 632h40v0v0z" />
    <glyph glyph-name="W" unicode="W" horiz-adv-x="930" 
d="M79 701h103v-449q0 -43 6 -75t18 -55q11 -19 30.5 -30t49.5 -14q16 2 29 7t23 13q14 11 23 22t15 24l2 6l2 6q1 2 1.5 5t1.5 6q2 5 2.5 10.5t0.5 9.5v514h40h102v-512q0 -23 5.5 -39.5t16.5 -28.5t24 -20t26 -13q4 -1 7.5 -2.5t7.5 -2.5q3 -1 6.5 -2t7.5 -2h1.5h1.5
q1 -1 1.5 -1h0.5q5 0 9.5 1.5t9.5 2.5q14 4 27.5 12.5t26.5 21.5q12 13 18.5 32.5t6.5 46.5v506h40h103v-520q0 -40 -10.5 -69.5t-31.5 -50.5t-44 -35.5t-49 -22.5l-10 -2l-10 -2q-6 -1 -11 -2l-10 -2q-10 -2 -19.5 -2.5t-17.5 -0.5h-5l-4 -1h-40h-5h-4q-28 0 -50.5 4.5
t-39.5 13.5q-18 10 -31.5 21t-22.5 23v0v0q-9 -11 -18.5 -20t-19.5 -16q-8 -5 -16 -9.5t-16 -7.5q-9 -3 -17 -5.5t-16 -4.5q-9 -2 -17 -3l-16 -2h-8t-8 -1h-8h-8h-40q-42 0 -75 11t-57 33q-25 23 -42 48t-26 53q-4 9 -6 18.5t-4 19.5l-2 18t-1 18v498h40v0v0z" />
    <glyph glyph-name="X" unicode="X" horiz-adv-x="599" 
d="M0 606v95h40q50 -2 93.5 -16t79.5 -41q26 -19 46 -44t36 -54q13 26 31 47.5t43 38.5q36 26 74.5 42t79.5 22q3 0 6.5 0.5t7.5 1.5h3.5t3.5 1h3h4l40 1v-94q-8 -2 -16.5 -2.5t-17.5 -2.5q-4 -1 -8.5 -1.5t-8.5 -1.5q-5 -1 -9 -2t-9 -3q-30 -10 -57.5 -29t-52.5 -48
t-37 -72t-12 -100q0 -50 16 -94.5t47 -82.5q32 -38 68 -57t77 -19l-40 1h5h5h4l6 1h40v-93h-6l-5 -1l-6 -1h-40h-6h-5.5h-4.5q-3 1 -5.5 1h-5.5t-5.5 0.5t-4.5 0.5h-5.5h-5.5q-38 8 -73.5 26.5t-67.5 48.5q-17 16 -30 32t-21 33q-12 -22 -29 -43t-40 -39q-37 -30 -79 -44
t-90 -14h-40h-4h-4h-4h-4v94h40l5 -1h-40h6q6 -1 12 -0.5t12 1.5t12.5 2.5t13.5 3.5q30 9 57 28.5t52 50.5t37.5 72t12.5 93q0 47 -12 90t-36 82q-24 38 -67 60t-105 28v2v0z" />
    <glyph glyph-name="Y" unicode="Y" horiz-adv-x="544" 
d="M56 701h94v-221q0 -22 7 -41.5t22 -36.5q12 -15 33 -23t50 -10q20 2 35 7t27 13q15 11 25 22.5t16 24.5q1 3 1.5 6.5t1.5 7.5q0 2 0.5 3.5t0.5 3.5q1 1 1 3v3v238h40h95v-221q0 -46 -14 -82t-41 -64t-57 -43t-62 -17v-274h-40h-94v276q-7 -1 -16 1t-20 6q-10 3 -20.5 8
t-21.5 12q-19 11 -37 28t-34 39q-16 23 -24 51.5t-8 64.5v215h40v0v0z" />
    <glyph glyph-name="Z" unicode="Z" horiz-adv-x="544" 
d="M39 614v87h40h355q23 -2 39 -6.5t25 -13.5t13.5 -20t5.5 -24v-4v-3q-1 -2 -1 -3.5v-3.5q-1 -4 -1.5 -7.5t-1.5 -6.5q-3 -9 -6 -17t-8 -16q-4 -7 -8.5 -14t-9.5 -13l-331 -462h370v-87h-40h-393h-4h-4h-4h-4q-13 1 -24 5.5t-22 12.5q-10 8 -15.5 20.5t-5.5 28.5
q0 9 2 19.5t6 22.5t10.5 25.5t16.5 28.5l323 451h-323v0v0z" />
    <glyph glyph-name="bracketleft" unicode="[" horiz-adv-x="426" 
d="M118 -173v874h40h173v-47h-86v-780h86v-47h-40h-173v0v0z" />
    <glyph glyph-name="backslash" unicode="\" 
d="M-39 709h87l331 -717h-40h-79l-339 717h40v0v0z" />
    <glyph glyph-name="bracketright" unicode="]" horiz-adv-x="426" 
d="M102 -173v47h87v772h-87v55h40h174v-874h-40h-174v0v0z" />
    <glyph glyph-name="asciicircum" unicode="^" horiz-adv-x="638" 
d="M63 283l197 410h40h86l197 -410h-40h-86l-137 281l-130 -281h-40h-87v0v0z" />
    <glyph glyph-name="underscore" unicode="_" horiz-adv-x="544" 
d="M40 -63h504v-55h-40h-504v55h40v0v0z" />
    <glyph glyph-name="grave" unicode="`" 
d="M134 535l-134 142h40h118l87 -142h-40h-71v0v0z" />
    <glyph glyph-name="a" unicode="a" horiz-adv-x="599" 
d="M433 0v276q0 22 -8.5 43.5t-25.5 40.5q-14 17 -38 26.5t-58 12.5q-1 0 -2.5 -0.5t-3.5 -0.5q-3 0 -5.5 -0.5t-6.5 -1.5q-9 -1 -18 -4t-18 -8q-16 -7 -31 -19.5t-29 -29.5q-13 -16 -21 -39.5t-10 -53.5q0 -40 11 -69.5t33 -49.5q23 -19 47.5 -30.5t51.5 -14.5v0v0
q7 1 13 2.5t12 3.5q5 2 9.5 4t9.5 4q4 3 9 6t9 7q5 3 9.5 7.5t9.5 8.5q5 5 10 9.5t10 9.5l40 1v-110l-2 -2v-1q-12 -9 -25 -15.5t-27 -11.5q-14 -4 -34 -6.5t-46 -2.5h-40h-3h-3h-4h-3q-46 0 -85.5 16.5t-72.5 50.5q-33 35 -49.5 80.5t-16.5 102.5q0 50 16 93t48 79t79 54
t109 18l40 1q59 -1 105 -17t77 -48q32 -32 47.5 -67.5t15.5 -73.5v-281h-40h-95v0v0z" />
    <glyph glyph-name="b" unicode="b" horiz-adv-x="599" 
d="M79 693h95v-449q0 -40 10 -71.5t29 -55.5q17 -20 40 -32t51 -15q26 2 46.5 11.5t36.5 25.5q18 19 30 40t18 43q2 5 2.5 10.5t1.5 11.5t1.5 11.5t0.5 10.5q0 40 -10.5 70t-30.5 49q-20 20 -42.5 31.5t-46.5 14.5q-9 -1 -17 -3t-15 -4q-11 -4 -21.5 -8.5t-21.5 -9.5h-1h-1
q-2 -2 -4 -3t-3 -1q-2 -1 -3.5 -2t-3.5 -2q-4 -1 -7.5 -2.5t-7.5 -3.5l-40 1v88q11 5 21.5 10t21.5 9t22 7t23 5q5 1 10.5 1.5t11.5 1.5h5.5t5.5 1h5h6l40 1q47 -1 88 -16.5t77 -47.5q36 -31 54.5 -74t18.5 -97q0 -50 -16 -96t-48 -88q-31 -42 -78.5 -62t-109.5 -20h-40
q-62 0 -108 19.5t-76 59.5q-30 41 -45 87.5t-15 99.5v443h40v0v0z" />
    <glyph glyph-name="c" unicode="c" horiz-adv-x="426" 
d="M39 236q0 8 1 18t3 21t6 22.5t9 23.5q11 28 30 53.5t46 48.5t62.5 35t79.5 12l94 2h40v-86h-71q-7 -2 -14 -2.5t-15 -2.5q-8 -1 -16 -3t-16 -5q-18 -7 -34.5 -18t-31.5 -28q-15 -16 -22.5 -39.5t-7.5 -53.5v-6v-5q0 -3 0.5 -6t0.5 -6t1 -6t1 -6q1 -4 2 -7l2 -6
q5 -19 16 -36.5t27 -33.5q14 -14 35 -21.5t47 -9.5l56 2h40v-87h-40h-102q-46 1 -81.5 13t-61.5 35q-25 23 -42.5 48t-27.5 52q-4 11 -7 22.5t-5 22.5t-3 21t-1 20v2v0z" />
    <glyph glyph-name="d" unicode="d" horiz-adv-x="599" 
d="M457 693h95v-449v-4l1 -4v-3v-4q0 -11 -1.5 -23t-4.5 -26q-3 -13 -7 -27.5t-10 -28.5q-12 -27 -30.5 -51t-43.5 -46t-59 -32.5t-77 -10.5h-40h-6h-6q-60 3 -104 19t-72 47t-44 65t-21 71l-2 10t-1 10v10v10v4v4v3v4q-1 46 11 83.5t36 65.5t51 47t55 29q8 3 16.5 5.5
t17.5 3.5q8 2 16.5 2.5t16.5 0.5l40 1q32 -1 55.5 -3.5t38.5 -7.5q15 -4 27 -9.5t21 -11.5v-93h-40q-2 0 -4.5 1.5t-5.5 2.5q-1 1 -3 2t-3 2q-2 0 -3.5 1t-3.5 2q-10 5 -23 9.5t-28 8.5q-5 2 -9.5 3t-9.5 2t-9.5 1.5t-9.5 1.5q-23 -4 -44 -15.5t-41 -31.5
q-19 -20 -29.5 -47.5t-10.5 -62.5v-3l1 -4v-4v-4q4 -35 13.5 -59.5t24.5 -40.5t31 -26t34 -15q8 -3 16.5 -5t16.5 -3h1.5h1.5h0.5h1.5q32 2 55.5 17t38.5 43q16 30 24 66t8 78v419h40v0v0z" />
    <glyph glyph-name="e" unicode="e" horiz-adv-x="599" 
d="M142 220l236 134q-2 1 -4 2.5t-4 4.5q-2 2 -4.5 5t-5.5 6q-3 2 -6.5 4.5t-6.5 5.5q-4 2 -8 4.5t-9 4.5q-7 3 -15 5t-18 3q-32 -3 -56.5 -17t-42.5 -37q-20 -27 -30 -57t-10 -62v-1v-1q0 -30 10.5 -56.5t30.5 -50.5q18 -21 43 -33t56 -14q32 2 54 11.5t34 25.5
q14 20 25.5 47t20.5 61v2l1 2h40l87 -6v-3.5t1 -2.5v-3v-3v-2.5t1 -2.5v-3v-2q0 -8 -1 -16.5t-3 -17.5q-1 -4 -2.5 -9t-2.5 -9q-2 -5 -3.5 -9.5t-3.5 -9.5q-12 -25 -32 -49t-49 -45q-28 -21 -65.5 -31.5t-83.5 -10.5h-40q-53 0 -98 16.5t-81 50.5q-37 35 -55 78.5t-18 96.5
q0 56 15 99t45 74t63 51t69 29q4 1 7.5 1.5t7.5 1.5q4 0 7.5 0.5t7.5 1.5q8 1 15.5 1.5t14.5 0.5l40 1q41 -1 76.5 -12.5t65.5 -34.5q29 -23 52.5 -51t41.5 -60l-331 -179h-40l-39 70v0v0z" />
    <glyph glyph-name="f" unicode="f" 
d="M55 0v520q0 36 7.5 63.5t22.5 45.5t32 30.5t36 19.5q5 2 9 3t9 2q4 1 8.5 2t8.5 2q9 2 17 2.5t15 0.5l79 2h40v-87h-63q-30 -2 -49.5 -9.5t-27.5 -22.5t-12.5 -31t-4.5 -34v-7.5v-6.5v-7v-6v-5v-6l101 1h40v-86h-141v-386h-40h-87v0v0z" />
    <glyph glyph-name="g" unicode="g" horiz-adv-x="599" 
d="M166 -126q13 -4 25 -7t23 -6q11 -2 22.5 -4.5t21.5 -3.5h6t7 -1q3 0 6 -0.5t6 -0.5h3.5h2.5q29 2 53.5 11.5t43.5 25.5q23 19 35 43.5t13 54.5v4v3l-1 4v3v220q0 40 -11.5 72.5t-34.5 57.5q-19 21 -41 33.5t-46 15.5q-27 -4 -51 -16t-47 -33q-22 -21 -33 -54t-11 -78
q0 -29 11 -55t33 -49q20 -20 46.5 -31t58.5 -13h3.5h2.5q8 1 15.5 2.5t14.5 4.5q7 2 14.5 4.5t14.5 6.5q8 4 15.5 9t14.5 11l40 1v-93q-12 -10 -26 -15.5t-29 -9.5q-15 -3 -33 -5t-38 -2h-40q-65 3 -112 22t-76 55q-28 36 -42.5 79.5t-14.5 93.5t12.5 89.5t37.5 67.5
t52.5 47.5t57.5 30.5q12 5 24 8t24 5t23 3t21 1l40 1q47 -1 90 -17t80 -48q38 -31 56.5 -72.5t18.5 -91.5v-258q0 -6 -1.5 -17.5t-4.5 -27.5q-3 -17 -9 -34t-16 -36q-12 -23 -31.5 -43.5t-46.5 -39.5t-64.5 -28.5t-86.5 -9.5h-40q-28 0 -52 2t-44 7q-10 2 -19 4.5t-17 4.5
q-8 3 -15 5.5t-13 4.5l-4 2l-2 1l24 79h40v0v0z" />
    <glyph glyph-name="h" unicode="h" horiz-adv-x="544" 
d="M87 701h87v-233q3 1 5.5 2t5.5 3q2 1 4.5 2.5t5.5 2.5q16 8 34 12t39 4l40 1q38 -1 71.5 -12t61.5 -33t42 -52.5t14 -68.5v-329h-40h-87v283q0 28 -8 51t-24 39q-13 14 -28 22t-33 11q-19 -3 -34.5 -10t-26.5 -18q-14 -15 -23 -31t-14 -33q-1 -5 -2 -10.5t-2 -10.5
t-1 -9.5v-9.5v-274h-40h-87v701h40v0v0z" />
    <glyph glyph-name="i" unicode="i" 
d="M94 0v480h40h87v-480h-40h-87v0v0zM87 591q0 11 4 20.5t13 16.5q8 6 17.5 9.5t19.5 3.5l40 1q11 -1 20 -4t18 -10t13.5 -16.5t4.5 -22.5t-4.5 -23t-12.5 -17q-9 -7 -18 -10t-19 -3l-40 1q-10 -2 -20 1t-19 10t-13 17.5t-4 23.5v2v0z" />
    <glyph glyph-name="j" unicode="j" horiz-adv-x="260" 
d="M-63 -220v86h40h27q14 2 24.5 7.5t17.5 15.5q8 12 13.5 25t8.5 27q1 6 1.5 12t0.5 11v5.5t1 4.5v5.5v4.5v496h40h86v-543q0 -29 -11 -55.5t-34 -49.5q-22 -23 -54 -36t-73 -16h-40h-48v0v0zM63 583q0 13 4 23.5t13 17.5q8 8 17.5 11.5t19.5 3.5l40 1q11 -1 20 -4t18 -11
q9 -7 13.5 -18.5t4.5 -25.5q0 -13 -4.5 -23t-12.5 -17q-9 -7 -18 -10t-19 -3l-40 1q-10 -2 -20 1t-19 10t-13 17.5t-4 23.5v2v0z" />
    <glyph glyph-name="k" unicode="k" horiz-adv-x="481" 
d="M87 701h87v-394h7q9 -2 18 -0.5t16 4.5q8 3 15.5 8.5t14.5 14.5q3 5 7 10t8 11t8 13.5t8 15.5l55 96h40h102q-1 -4 -2.5 -7l-2.5 -5q-2 -3 -3 -5.5t-3 -4.5q-1 -3 -2.5 -5.5t-2.5 -4.5q-2 -3 -3 -5.5t-3 -4.5q-4 -7 -7.5 -13.5t-7.5 -12.5q-4 -7 -7.5 -13t-6.5 -12
q-12 -21 -24 -39t-24 -33t-22.5 -23.5t-20.5 -10.5q26 -3 46 -12t33 -25t20.5 -33.5t10.5 -36.5v-5.5v-4.5v-2t1 -2v-3v-2v-155h-40h-87v126q0 19 -5.5 35.5t-16.5 29.5q-10 14 -30.5 20.5t-49.5 6.5l-39 1v-219h-40h-87v701h40v0v0z" />
    <glyph glyph-name="l" unicode="l" horiz-adv-x="260" 
d="M103 701h94v-701h-40h-94v701h40v0v0z" />
    <glyph glyph-name="m" unicode="m" horiz-adv-x="764" 
d="M55 0v331q0 31 12 58.5t37 50.5t58 34.5t74 11.5l40 1q29 -1 51 -5.5t36 -12.5q8 -4 15.5 -10t13.5 -13q7 5 14.5 10.5t16.5 9.5q18 10 40 15t49 5l40 1q34 -1 64 -10.5t56 -29.5q26 -19 39.5 -43.5t14.5 -54.5v-2v-3l-1 -3v-3v-338h-40h-87v307l1 4v6q0 2 -0.5 5t-1.5 7
q-1 3 -1.5 6.5t-1.5 7.5q-4 12 -12 23t-19 21q-7 7 -15 11t-17 7q-12 -3 -22 -9t-19 -15q-13 -13 -20.5 -27.5t-10.5 -30.5q-1 -2 -1.5 -4.5t-0.5 -4.5v-5v-4v-305h-40h-86v299q0 22 -6 41t-18 35q-9 11 -21 18.5t-26 11.5q-22 -4 -37 -13.5t-23 -24.5q-9 -17 -13.5 -36
t-4.5 -39v-1v-1v-290h-40h-87v0v0z" />
    <glyph glyph-name="n" unicode="n" horiz-adv-x="544" 
d="M55 0v291q0 40 14 75.5t42 66.5q29 30 68 45.5t89 15.5l40 1q8 -1 17.5 -2t20.5 -3t22.5 -5t23.5 -8q21 -9 40 -23t37 -34q18 -19 27 -47t9 -64v-5v-6v-298h-40h-95v283q0 22 -6.5 43.5t-19.5 40.5q-10 16 -26 26t-38 13q-19 -3 -35 -12t-28 -23q-15 -18 -23.5 -38.5
t-11.5 -43.5v-289h-40h-87v0v0z" />
    <glyph glyph-name="o" unicode="o" horiz-adv-x="599" 
d="M31 252q0 55 19 99t56 77q38 33 80.5 49.5t89.5 16.5l40 1q2 -1 4.5 -1h4.5q2 -1 4.5 -1h5.5h4.5h5.5q2 -1 4.5 -1h4.5q40 -6 76.5 -23.5t70.5 -46.5q33 -30 50 -75t17 -105v-8t-1 -7q0 -4 -0.5 -8t-0.5 -8q-1 -8 -2.5 -16t-3.5 -16q-9 -36 -27.5 -68.5t-47.5 -61.5
q-28 -29 -67 -43t-87 -14h-40q-68 0 -117.5 18.5t-80.5 56.5t-46.5 84t-15.5 99v2v0zM166 252v-14.5t1 -13.5t2.5 -13.5t2.5 -13.5q5 -22 16 -43t27 -40q14 -16 34 -25t46 -11q27 2 50 11t42 24q23 18 34.5 52.5t11.5 84.5q0 35 -10 63.5t-30 50.5q-17 18 -41.5 29t-55.5 13
q-28 -2 -49.5 -11.5t-35.5 -26.5q-17 -19 -27.5 -41t-14.5 -45l-2 -8t-1 -8v-5.5v-4.5v-2.5v-2.5v1z" />
    <glyph glyph-name="p" unicode="p" horiz-adv-x="599" 
d="M39 -213v457q0 52 13.5 92.5t40.5 69.5t56.5 48t62.5 29q9 3 18 5t18 3q5 1 9 1.5t9 0.5q4 1 8.5 1h8.5l40 1q53 -1 93 -13.5t68 -38.5q27 -25 46.5 -52.5t29.5 -57.5q4 -12 7 -24t4 -24q2 -12 3 -22.5t1 -20.5t-1 -21.5t-3 -23.5q-1 -12 -4 -24t-7 -24q-10 -29 -27 -56
t-43 -52q-25 -25 -63 -39t-88 -18h-40q-15 0 -30 2t-32 6q-16 4 -36.5 11t-43.5 19v96h40q15 -9 27.5 -15t22.5 -10t19.5 -7t18.5 -5q5 -1 10.5 -2t11.5 -1h1.5h1.5q31 2 54.5 13.5t39.5 32.5q18 24 27.5 53.5t9.5 64.5q0 38 -12.5 68.5t-37.5 52.5q-19 17 -40.5 28
t-44.5 14q-3 0 -6 -0.5t-6 -1.5q-8 -1 -16 -4t-16 -7q-18 -9 -34.5 -23.5t-31.5 -34.5q-15 -19 -22.5 -46t-7.5 -62v-439h-40h-87v0v0z" />
    <glyph glyph-name="q" unicode="q" horiz-adv-x="599" 
d="M425 -213v441q0 38 -8.5 67.5t-25.5 50.5q-16 21 -34.5 34.5t-38.5 19.5q-6 2 -11.5 3t-10.5 2h-0.5h-0.5h-0.5h-0.5h-2h-1q-1 -1 -2 -1h-2q-7 -1 -14.5 -3t-15.5 -4q-20 -7 -38.5 -20t-35.5 -31q-16 -18 -24.5 -44t-8.5 -60q0 -44 12 -75.5t37 -51.5q20 -16 41.5 -25
t44.5 -12q2 0 3.5 0.5t2.5 0.5q2 0 3.5 0.5t2.5 0.5q8 2 17 4t18 5q8 3 16.5 6.5t16.5 7.5q8 5 15.5 10t13.5 11l40 1v-101q-15 -11 -31.5 -17.5t-33.5 -7.5q-17 -3 -34.5 -5t-34.5 -2h-40h-6h-6q-46 0 -82.5 13.5t-63.5 41.5q-27 29 -45 60.5t-26 65.5q-1 4 -1.5 8t-1.5 8
q-1 3 -1.5 7t-0.5 8q-1 8 -1.5 15.5t-0.5 14.5q2 62 18.5 109.5t46.5 79.5t75 50t104 21l3 1l4 1h40h3h4q7 -1 14.5 -1.5t14.5 -1.5q4 -1 7.5 -1.5t7.5 -1.5q3 -1 6.5 -1.5t7.5 -1.5q32 -10 61.5 -29.5t56.5 -48.5t40.5 -69t13.5 -90v-463h-40h-87v0v0z" />
    <glyph glyph-name="r" unicode="r" 
d="M79 480h87v-9q5 2 9.5 5t9.5 5q12 6 27 9.5t32 3.5l32 2h40v-87h-24q-28 -5 -48 -15t-34 -25q-13 -15 -21.5 -31.5t-13.5 -33.5q-4 -13 -6 -25t-2 -23q-1 -12 -1 -21v-17v-218h-40h-87v480h40v0v0z" />
    <glyph glyph-name="s" unicode="s" horiz-adv-x="481" 
d="M64 87h204q2 -2 4 -2h4h0.5h0.5h0.5h0.5q7 1 13 2.5t12 3.5q10 3 15 11.5t5 21.5q0 14 -7.5 25t-22.5 19t-34.5 15t-42.5 14q-3 1 -6 1.5t-6 1.5q-4 1 -7 1.5t-6 1.5q-7 2 -13.5 4t-12.5 4q-32 8 -57.5 21t-45.5 29q-19 17 -28.5 39.5t-9.5 51.5q0 41 14 67.5t42 36.5
q28 11 61 16.5t72 5.5l181 2h40v-78h-189q-18 -2 -33.5 -4t-28.5 -6t-19 -12t-6 -20q0 -13 6.5 -23.5t19.5 -17.5t27.5 -12.5t30.5 -10.5q5 -1 9.5 -2t8.5 -2q2 -1 4 -1.5t5 -0.5q2 -1 4 -1.5t4 -0.5l6 -2l6 -2q2 0 3 -0.5t3 -0.5q1 -1 2.5 -1.5t2.5 -0.5q44 -15 75 -31
t48 -33t25.5 -40.5t8.5 -52.5q-1 -33 -10.5 -55.5t-26.5 -35.5q-16 -13 -34.5 -21t-38.5 -11q-7 -1 -13.5 -1h-12.5h-6t-6 -1h-5.5h-5.5h-40h-5.5h-4.5h-5.5h-4.5q-3 1 -5.5 1h-4.5h-4h-4h-196v87h40v0v0z" />
    <glyph glyph-name="t" unicode="t" horiz-adv-x="371" 
d="M63 157v441h40h94v-118h182v-86h-182v-244q0 -14 2 -25t6 -21q3 -8 14 -12.5t30 -6.5l82 2h40v-87h-118h-4l-3 -1h-40h-4h-3q-34 0 -59 10t-41 31t-24.5 45t-10.5 50q-1 2 -1 4.5v5.5v4.5v5.5v2v0z" />
    <glyph glyph-name="u" unicode="u" horiz-adv-x="544" 
d="M87 480h87v-291q0 -28 8 -49.5t24 -38.5q13 -13 29 -20.5t35 -10.5q15 3 28.5 9.5t23.5 18.5q14 15 23 31.5t13 34.5q1 4 1.5 7.5t1.5 7.5v4t1 4v4v4v285h40h87v-275v-5l1 -4v-4v-4q0 -43 -13.5 -79t-40.5 -66t-63 -44.5t-81 -14.5h-40q-44 0 -81 12.5t-66 37.5
q-29 26 -43.5 68t-14.5 101v277h40v0v0z" />
    <glyph glyph-name="v" unicode="v" horiz-adv-x="481" 
d="M16 480h103l128 -325l115 325h40h103l-166 -433q-6 -15 -13.5 -25.5t-16.5 -17.5q-9 -6 -18.5 -10t-20.5 -5h-40h-3h-2q-11 0 -21.5 3t-21.5 9q-10 8 -18 18.5t-14 25.5l-174 435h40v0v0z" />
    <glyph glyph-name="w" unicode="w" horiz-adv-x="764" 
d="M87 480h95v-307q0 -19 4.5 -35.5t13.5 -31.5q7 -12 17.5 -18.5t24.5 -9.5q16 2 28 7.5t21 13.5q12 11 18 33t6 55v293h40h94v-307q0 -31 7 -50t22 -28q10 -6 20.5 -10t21.5 -6q12 2 22.5 9t18.5 17q11 14 16.5 34.5t5.5 47.5v293h40h86v-330v-4v-2v-3v-3q0 -28 -9 -51.5
t-27 -43.5q-18 -19 -38 -32t-42 -20q-3 -1 -5.5 -1.5t-4.5 -1.5q-3 0 -5.5 -0.5t-5.5 -1.5q-5 -1 -10 -1.5t-10 -0.5h-40q-26 0 -47 3.5t-38 10.5q-12 4 -23.5 12t-22.5 20q-10 -9 -21 -16.5t-25 -13.5q-16 -8 -35 -12t-40 -4h-40q-33 0 -58.5 8t-43.5 22q-19 15 -32.5 32
t-21.5 36q-4 10 -7.5 19.5t-5.5 19.5t-3 18.5t-1 15.5v325h40v0v0z" />
    <glyph glyph-name="x" unicode="x" horiz-adv-x="426" 
d="M0 402v78h40q29 -2 56.5 -8.5t52.5 -19.5q17 -9 31.5 -21t27.5 -29q5 8 11 14.5t13 11.5q14 11 29 19t30 14q14 5 27 8.5t26 4.5q12 2 22.5 3t19.5 1l40 1v-77q-30 -5 -56 -16t-49 -30q-22 -19 -33.5 -47.5t-11.5 -66.5q0 -29 6 -51.5t18 -39.5q12 -16 26 -27.5t29 -19.5
q11 -6 21 -9.5t20 -5.5t17.5 -3t12.5 -1v-85h-40q-31 0 -56 4.5t-45 14.5q-20 11 -36 22t-28 24q-3 3 -5.5 6t-4.5 6q-13 -18 -28 -31t-34 -22q-25 -13 -52.5 -18.5t-56.5 -5.5h-40v87q28 -2 52 8t43 29q20 20 32.5 41t18.5 45q1 4 1.5 8t1.5 8v4t1 4v4v4q0 5 -0.5 10
t-1.5 10t-1.5 10t-2.5 10q-6 20 -18 38t-30 35t-42 28.5t-54 16.5v2v0z" />
    <glyph glyph-name="y" unicode="y" horiz-adv-x="544" 
d="M79 480h95v-267v-7v-5v-4.5t1 -4.5q1 -22 7 -41.5t18 -37.5q9 -15 27 -24t43 -11q20 2 34.5 10.5t24.5 23.5q12 18 18.5 38.5t6.5 44.5v285h40h95v-283v-3.5t1 -2.5v-3v-2v-4.5v-4.5v-1v-2q-1 -31 -10.5 -59.5t-29.5 -55.5q-19 -27 -48.5 -43.5t-70.5 -23.5v-205h-40h-86
v205q-33 8 -61 22t-52 33q-24 20 -37 49t-16 67v317h40v0v0z" />
    <glyph glyph-name="z" unicode="z" horiz-adv-x="426" 
d="M79 480h252q22 -2 37.5 -7t24.5 -15t14 -21t5 -24v-2.5v-3.5q-1 -1 -1 -2.5v-3.5q0 -1 -0.5 -2.5t-0.5 -2.5q-1 -2 -1 -3v-3q-2 -7 -5 -14t-7 -14t-8.5 -13.5t-9.5 -11.5l-213 -258h252v-79h-40h-291q-14 0 -26 3.5t-21 11.5q-10 8 -15 18t-5 23q0 7 1.5 14.5t4.5 14.5
q3 8 8.5 15.5t12.5 15.5l221 278h-229v86h40v0v0z" />
    <glyph glyph-name="braceleft" unicode="{" horiz-adv-x="426" 
d="M24 228v63q18 -2 32 5t23 20q9 14 15 29t7 31v2t1 2v2v2v4v4v183q0 22 7 43.5t21 40.5q14 20 32.5 30t42.5 10l78 2h40v-47h-47q-12 -2 -19.5 -8t-11.5 -17q-4 -12 -6 -28t-2 -36v-187q0 -7 -0.5 -12.5t-1.5 -10.5q0 -3 -0.5 -6t-1.5 -5q0 -3 -0.5 -6t-1.5 -6
q-4 -11 -9.5 -21.5t-13.5 -21.5q-7 -10 -17.5 -18t-24.5 -13q5 -4 9.5 -7t8.5 -6q5 -3 8.5 -6t7.5 -6q12 -12 19.5 -24t10.5 -24t5 -27.5t2 -33.5v-187v-1v-2q0 -11 2.5 -21t7.5 -20q5 -9 16.5 -14t28.5 -5h39v-55h-39h-5l-4 -1h-40h-5h-4q-37 0 -61 8t-36 25
q-12 16 -18 33.5t-8 37.5q-1 4 -1 8v8v7.5v7.5v149q0 25 -6 47t-17 40t-27 27.5t-36 9.5v2v0z" />
    <glyph glyph-name="bar" unicode="|" horiz-adv-x="260" 
d="M63 0v701h40h87v-701h-40h-87v0v0z" />
    <glyph glyph-name="braceright" unicode="}" horiz-adv-x="426" 
d="M268 260q-21 1 -37 10.5t-27 25.5q-12 17 -17.5 36.5t-5.5 43.5v207q0 22 -3.5 36.5t-9.5 20.5q-7 6 -17.5 9t-24.5 3l-32 2v55h40h56q29 -2 51 -10t37 -23t22.5 -39t7.5 -56v-172q0 -22 3 -39t10 -31q7 -13 14.5 -23.5t16.5 -17.5q2 -2 4.5 -4t5.5 -4q2 -2 4.5 -3
t4.5 -2q5 -2 8.5 -3t6.5 -1v-53q-15 -5 -28.5 -14.5t-25.5 -24.5t-18 -37.5t-6 -51.5v-179q0 -26 -8 -46.5t-24 -34.5t-41.5 -21.5t-60.5 -7.5h-40h-40v55h40q14 0 24 3.5t14 10.5q5 7 7 19.5t2 29.5v197q0 25 5.5 46.5t17.5 38.5q11 17 27 29t37 18v2v0z" />
    <glyph glyph-name="asciitilde" unicode="~" horiz-adv-x="638" 
d="M63 228q2 2 4.5 5t4.5 6q2 2 4.5 5t4.5 6q5 6 9.5 11.5t8.5 9.5q9 10 18.5 17.5t19.5 13.5q10 5 21 8t23 3l40 1q17 -1 32.5 -4t30.5 -8l30 -12t29 -12q14 -7 26.5 -13t25.5 -11q3 -1 6 -2.5t7 -2.5l6 -2l6 -2q7 2 13.5 5.5t13.5 7.5q11 8 21 21.5t20 33.5l40 1l40 -62
q-9 -19 -21.5 -34.5t-27.5 -28.5t-34.5 -19.5t-42.5 -6.5l-40 1q-9 -1 -18 0t-17 4l-16 6t-16 7q-4 2 -8.5 4t-8.5 4t-8 4.5t-8 5.5q-7 3 -13.5 6t-12.5 6q-7 3 -13.5 6t-13.5 6q-8 3 -17 5.5t-19 3.5q-10 -2 -18 -6.5t-15 -12.5q-10 -10 -19.5 -22.5t-18.5 -27.5l-40 1
l-39 64v0v0z" />
    <glyph glyph-name="exclamdown" unicode="&#xa1;" horiz-adv-x="260" 
d="M111 331h79v-536h-40h-79v536h40v0v0zM47 441q2 12 7 22.5t14 17.5q9 8 19 11.5t20 4.5l40 1h1h2q12 -1 22.5 -5t20.5 -12t15 -20.5t5 -29.5q0 -14 -5 -24.5t-14 -18.5q-9 -7 -19.5 -11t-21.5 -4l-40 1q-13 -2 -24 2t-22 12q-10 8 -15 21t-5 30v2v0z" />
    <glyph glyph-name="cent" unicode="&#xa2;" horiz-adv-x="599" 
d="M244 575v126h40h79v-126h71v-87h-79q-36 -2 -63.5 -8.5t-47.5 -19.5q-19 -13 -29 -34t-10 -50q0 -32 9 -52.5t27 -29.5q17 -8 36 -13t39 -7l78 2h40v-95h-63v-11v-10v-4.5v-4.5v-5.5v-4.5v-27.5v-26.5v-21v-13l-40 1l-79 1v126q-2 -1 -4 -1.5t-4 -0.5q-3 0 -5 0.5t-4 0.5
h-4t-4 1q-3 0 -5 0.5t-4 0.5q-29 6 -56 22t-51 41q-24 26 -36 60.5t-12 78.5q2 32 9.5 57t20.5 44q14 19 29.5 33.5t31.5 24.5q15 9 29.5 15t27.5 9q14 3 22 4.5t11 1.5v2v0z" />
    <glyph glyph-name="sterling" unicode="&#xa3;" horiz-adv-x="599" 
d="M47 323v86h63v111q3 43 18.5 77t43.5 59q29 26 59.5 40t63.5 18h4.5h5.5h2t3 1h2.5h2.5l40 1q20 -1 37.5 -3.5t31.5 -7.5t24.5 -10.5t16.5 -11.5l-23 -85h-40q-1 -1 -3 -1t-3 1q-2 0 -3.5 0.5t-3.5 1.5q-1 1 -3 1.5t-3 1.5q-2 1 -3.5 1.5t-3.5 1.5l-6 2l-6 2q-4 1 -7 2
l-6 2q-3 0 -5.5 0.5t-4.5 1.5t-4.5 1.5t-5.5 0.5q-18 -3 -32.5 -11t-25.5 -21q-14 -16 -21 -39.5t-7 -52.5v-5v-4v-21.5v-20.5v-19v-17l78 2h40v-86h-110v-134q0 -22 -3 -39.5t-8 -31.5q-6 -13 -12.5 -21.5t-15.5 -11.5l77 2h40v-1v0q17 2 31.5 8.5t27.5 16.5q17 14 26 32.5
t9 43.5v136h40h95v-134v-7v-5q-1 -3 -1 -5.5v-5.5q-1 -6 -1.5 -11.5t-1.5 -10.5q-6 -28 -20 -52.5t-36 -47.5q-22 -22 -54 -33t-76 -11h-40h-4h-4h-2h-1h-2h-2h-323v87h39q19 -2 34.5 2.5t28.5 14.5q12 10 18.5 25t6.5 34v4v4v2v2q-1 1 -1 2v2l-8 144h-63v0v0z" />
    <glyph glyph-name="currency" unicode="&#xa4;" horiz-adv-x="599" 
d="M79 496l-55 55l55 55h40l38 -38q11 6 22 10.5t24 8.5q14 5 34.5 7t45.5 2l40 1q10 -1 20.5 -1.5t22.5 -2.5q12 -1 24 -4.5t24 -8.5q6 -3 12.5 -6t13.5 -7l0.5 -0.5t1.5 -0.5l0.5 -0.5l0.5 -0.5l45 41h40l47 -47l-55 -55q11 -16 20 -32.5t15 -34.5q6 -19 9 -37.5t4 -38.5
v-4v-4q0 -33 -3.5 -57t-11.5 -39q-7 -16 -15.5 -29.5t-17.5 -24.5l55 -53l-47 -48h-40l-38 38q-9 -8 -18.5 -13.5t-20.5 -10.5q-16 -8 -36.5 -12t-43.5 -4l-40 1q-10 -1 -20.5 -0.5t-19.5 1.5q-10 1 -19.5 2.5t-18.5 4.5q-10 2 -20 6t-19 8q-4 2 -8 4.5t-9 4.5l-38 -38h-40
l-55 56l55 55q-4 2 -7 6l-6 8q-3 5 -5.5 9.5t-4.5 8.5q-10 17 -15 33t-7 32q-1 15 -2 27.5t-1 22.5v4v3q0 19 3.5 38t9.5 38q6 18 14.5 33t20.5 26v2v0zM441 354v3l1 3v4v3q0 32 -12 59t-35 49q-19 18 -43.5 28.5t-53.5 13.5q-25 -3 -47.5 -14.5t-43.5 -30.5
q-25 -22 -37 -54.5t-12 -73.5q0 -35 10 -62.5t29 -47.5q20 -20 41 -33t44 -18q2 -1 4 -1.5t5 -0.5q2 -1 4 -1h4h2h2q1 -1 1.5 -1h1.5q24 3 46 14.5t42 30.5q23 23 35 51.5t13 62.5v4v4l-1 3v4v1v0z" />
    <glyph glyph-name="yen" unicode="&#xa5;" horiz-adv-x="599" 
d="M39 236v87h189v63h-189v86h166q-24 43 -48 70.5t-48 38.5t-49.5 17t-51.5 6v97h40q50 -5 94 -20.5t81 -42.5q23 -17 41 -38t31 -45q11 21 30 41.5t44 39.5q38 29 81.5 44.5t92.5 18.5l40 1v-94q-27 -2 -52.5 -8t-49.5 -17t-48 -39t-47 -72l126 2h40v-86h-181v-63h181v-87
h-181v-236h-40h-103v236h-189v0v0z" />
    <glyph glyph-name="brokenbar" unicode="&#xa6;" 
 />
    <glyph glyph-name="section" unicode="&#xa7;" horiz-adv-x="544" 
d="M165 480l-3 1l-2 3q-10 10 -19 22t-17 24q-7 12 -10.5 27t-3.5 32q0 26 10 48.5t30 40.5t43.5 27.5t50.5 9.5l40 1q21 -1 39 -4.5t33 -10.5q14 -7 26 -15t22 -16q8 -7 14 -13t10 -12q5 -6 8 -10.5t6 -6.5l-63 -45h-40h-2v2q-9 10 -18.5 20t-19.5 20q-6 6 -13.5 10.5
t-15.5 6.5q-7 -2 -12.5 -5t-9.5 -8q-7 -7 -10.5 -16t-3.5 -19v-4v-4t0.5 -4t1.5 -4q1 -6 3 -12t5 -12t7 -11t9 -10l24 -24l36 -36l43.5 -43.5t46.5 -45.5q16 -16 28 -30t21 -25q8 -12 14 -22.5t10 -21.5q2 -6 2.5 -11.5t1.5 -10.5t1.5 -10.5t0.5 -10.5q0 -21 -6.5 -38
t-18.5 -31q-13 -13 -26.5 -22t-28.5 -14q-4 -1 -8 -2.5t-8 -1.5q-4 -1 -7.5 -1h-6.5q1 -1 2 -2.5t2 -2.5q1 -2 2 -3t2 -3q1 -1 2 -2.5t2 -2.5q1 -2 2 -3t2 -3q8 -10 14.5 -22t12.5 -25t9 -27t3 -30q0 -25 -9.5 -48t-27.5 -43t-46.5 -30.5t-66.5 -10.5h-40q-24 0 -43.5 4.5
t-34.5 13.5t-27.5 18.5t-21.5 20.5q-5 5 -9.5 10t-7.5 10q-4 5 -7 9.5t-6 8.5l63 47h40q6 -14 13.5 -24t16.5 -17q9 -8 18 -13t19 -8q2 -1 4 -1.5t4 -1.5q7 1 13 4t11 7q9 7 13.5 16.5t4.5 21.5q0 4 -1.5 10t-3.5 13t-5 14t-7 14q-2 4 -4 7.5t-4 7.5q-2 3 -4.5 6.5t-5.5 7.5
q-5 8 -10.5 14.5t-10.5 13.5l-4 4l-4 4l-2 2t-1 2l-2 2l-2 2q-8 6 -16.5 13t-16.5 16q-9 8 -17.5 17t-16.5 19l-4 5l-4 4q-7 6 -13.5 12.5t-12.5 13.5q-7 7 -13 13.5t-12 12.5q-2 2 -5 4.5t-6 6.5q-1 2 -3 4t-3 4q-2 3 -3.5 5t-3.5 5q-6 8 -11.5 18t-10.5 22
q-4 11 -6.5 23.5t-2.5 25.5q0 20 5.5 37.5t17.5 32.5q11 14 33 24t54 16v2v0zM244 386q-10 7 -18 12t-16 9q-1 0 -2 0.5t-1 1.5q-1 0 -2 0.5t-2 0.5q-1 -1 -2.5 -1.5t-3.5 -1.5q-4 -3 -7 -6t-5 -8q-2 -4 -3 -9.5t-1 -10.5q0 -7 1 -14t4 -15q2 -4 3.5 -8t4.5 -7q2 -4 5 -8
l6 -8q11 -13 20.5 -24.5t18.5 -20.5q8 -9 16.5 -18t16.5 -17l3 -3l4 -3l5 -5l3.5 -3.5t3.5 -2.5q5 -4 11 -8.5t13 -8.5q5 -3 9.5 -5t8.5 -4q1 1 2 1.5t2 1.5q1 0 2 0.5t2 1.5q5 3 8 6.5t5 7.5t3 8t1 8q0 7 -2 14.5t-7 15.5q-4 8 -10 16.5t-13 17.5q-4 5 -9.5 10t-11.5 11
t-11.5 13t-10.5 14l-6 6t-6 7l-6 6l-6 6q-6 6 -10.5 12t-9.5 10v2v0z" />
    <glyph glyph-name="dieresis" unicode="&#xa8;" 
d="M0 606q0 13 4.5 24t13.5 18q9 8 19 11.5t21 3.5l40 1q11 -1 21.5 -4t19.5 -11q9 -7 14 -18.5t5 -26.5t-4.5 -25.5t-12.5 -18.5q-9 -7 -18 -10.5t-20 -3.5l-40 1h-2h-1q-10 -1 -20 3t-19 11q-9 8 -14 18.5t-7 24.5v2v0zM165 606q0 13 4.5 24t13.5 18q9 8 19 11.5t21 3.5
l40 1q11 -1 21.5 -4t19.5 -11q9 -7 14 -18.5t5 -26.5t-4.5 -25.5t-13.5 -18.5q-9 -7 -19 -10.5t-21 -3.5l-40 1q-11 -2 -21.5 2t-19.5 11q-10 8 -14.5 18.5t-4.5 25.5v2v0z" />
    <glyph glyph-name="copyright" unicode="&#xa9;" horiz-adv-x="843" 
d="M24 354q0 12 1 25.5t4 28.5q2 14 6 29t10 30q16 45 44.5 86.5t70.5 78.5q42 38 98.5 56.5t127.5 18.5l40 1q83 -1 146.5 -29.5t108.5 -85.5t68 -121t23 -135q0 -15 -2 -31.5t-5 -34.5l-4 -18t-5 -18q-3 -10 -6 -19t-7 -18q-16 -40 -42 -77.5t-62 -70.5q-36 -34 -84 -50
t-108 -16h-40h-3h-3h-4h-3q-71 2 -126.5 18.5t-94.5 48.5t-67.5 67t-45.5 74q-10 23 -17 44.5t-11 42.5t-6 39.5t-2 33.5v2v0zM150 346q2 -59 16.5 -105.5t42.5 -79.5q27 -33 57.5 -56t63.5 -37q14 -6 27.5 -10.5t26.5 -7.5q8 -1 14.5 -2.5t13.5 -1.5q42 3 81 22.5t74 55.5
q39 40 59 97t20 131q0 56 -17 105.5t-51 92.5q-31 40 -74.5 61t-99.5 24q-61 -3 -106 -24t-74 -60q-31 -42 -49 -88.5t-23 -96.5q-1 -3 -1.5 -6t-0.5 -6v-3.5v-2.5v-1.5v-1.5v1zM197 354q0 7 0.5 16t1.5 19l2 10t2 11q1 5 2.5 10t2.5 10q7 26 21 49t36 44t56.5 31.5
t80.5 10.5l40 1q27 -1 49.5 -7t38.5 -18q17 -12 30 -25.5t22 -27.5q7 -12 11.5 -22.5t7.5 -21.5q3 -10 4.5 -17.5t1.5 -11.5l-40 1l-71 1q-3 16 -11 31t-22 28q-10 10 -21 16t-23 8q-19 -3 -36 -12t-31 -23q-18 -18 -27 -46.5t-9 -66.5t9 -67.5t27 -49.5q14 -16 31.5 -25.5
t37.5 -12.5q12 2 22.5 6.5t20.5 11.5q14 11 24 29t16 45l63 2h40q-3 -40 -17 -70t-40 -53q-25 -22 -54.5 -33t-61.5 -11l-40 1q-44 2 -80 18.5t-63 47.5q-27 30 -40.5 70.5t-13.5 90.5v2v0z" />
    <glyph glyph-name="ordfeminine" unicode="&#xaa;" horiz-adv-x="371" 
d="M268 417v174q-2 13 -7.5 24.5t-14.5 18.5q-9 8 -18.5 12.5t-19.5 7.5q-5 2 -10 2.5t-10 1.5q-15 -3 -27.5 -9.5t-23.5 -17.5q-13 -13 -19.5 -32t-6.5 -42v-7.5t1 -6.5q0 -4 1.5 -7.5t2.5 -6.5q4 -13 11.5 -24t18.5 -22q8 -7 17.5 -11.5t20.5 -6.5q7 1 13.5 3t12.5 4
q11 5 19.5 10.5t14.5 11.5l40 1v-54q-9 -11 -19.5 -17.5t-21.5 -9.5q-11 -4 -22.5 -5.5t-23.5 -1.5l-40 1q-32 -1 -60 10t-51 33q-23 23 -34.5 53t-11.5 69q0 5 0.5 11t1.5 12q2 6 4 12.5t5 13.5q7 17 19.5 33t31.5 31q19 14 44.5 21.5t58.5 7.5l40 1q39 -1 67.5 -8.5
t45.5 -22.5t28.5 -31t17.5 -33q2 -7 3 -14.5t2 -15.5q1 -7 1.5 -13.5t0.5 -12.5v-148h-40h-63v0v0z" />
    <glyph glyph-name="guillemotleft" unicode="&#xab;" horiz-adv-x="544" 
d="M63 244l126 150h40h79l-126 -150l134 -157h-40h-87l-126 157v0v0zM236 244l126 150h40h79l-126 -150l134 -157h-40h-87l-126 157v0v0z" />
    <glyph glyph-name="logicalnot" unicode="&#xac;" 
 />
    <glyph glyph-name="sfthyphen" unicode="&#xad;" horiz-adv-x="540" 
 />
    <glyph glyph-name="registered" unicode="&#xae;" horiz-adv-x="843" 
d="M24 362q0 10 1 22t3 25q2 12 6 25l8 26q16 48 46.5 91.5t76.5 83.5t105 60t132 20l40 1q79 -1 145 -29.5t118 -84.5q53 -56 79.5 -117.5t27.5 -129.5v-1v-1q-3 -90 -32 -158.5t-83 -116.5q-55 -48 -116.5 -71t-129.5 -23h-40h-4h-4h-5h-4q-91 3 -159 31t-113 83
q-45 54 -69.5 114t-27.5 125q0 2 -0.5 3t-0.5 3v2.5v2.5v6v6v2v0zM150 354q0 -64 19 -117t56 -97q35 -40 83.5 -61.5t110.5 -24.5h6.5t7.5 1q4 0 7.5 0.5t6.5 1.5q12 2 24 5t24 7q35 12 66.5 34.5t60.5 55.5t45 81t18 112q0 56 -20 106.5t-60 95.5q-36 41 -81.5 63t-99.5 26
h-0.5h-1.5h-1.5h-0.5q-51 -4 -97.5 -24t-88.5 -58q-42 -37 -63 -89t-21 -119v1zM252 142v417h40h173q50 -5 80.5 -16t40.5 -29q11 -18 16 -39t5 -44q0 -24 -6.5 -43t-19.5 -33t-34 -22.5t-50 -11.5l118 -179h-40h-79l-110 181h-23v-181h-40h-71v0v0zM409 378q23 -2 40 2
t27 13q10 8 15 19.5t5 26.5v2v2q-1 10 -6 20t-16 20q-10 9 -28 14t-44 5l-39 1v-125h46v0v0z" />
    <glyph glyph-name="overstore" unicode="&#xaf;" 
 />
    <glyph glyph-name="glyph113" unicode="&#xb0;" 
 />
    <glyph glyph-name="plusminus" unicode="&#xb1;" horiz-adv-x="638" 
 />
    <glyph glyph-name="twosuperior" unicode="&#xb2;" 
 />
    <glyph glyph-name="threesuperior" unicode="&#xb3;" 
 />
    <glyph glyph-name="acute" unicode="&#xb4;" 
d="M71 528l94 141h40h111l-134 -141h-40h-71v0v0z" />
    <glyph glyph-name="mu" unicode="&#xb5;" horiz-adv-x="544" 
 />
    <glyph glyph-name="paragraph" unicode="&#xb6;" horiz-adv-x="638" 
d="M244 -142v465q-47 -2 -85.5 10t-68.5 36t-44.5 55.5t-14.5 69.5q0 50 11.5 84.5t34.5 55.5q23 20 48 33t53 18q8 2 16.5 3t17.5 2h8t8 1h8h8l284 2h40v-835h-40h-87v772h-70v-772h-40h-87v0v0z" />
    <glyph glyph-name="middot" unicode="&#xb7;" 
 />
    <glyph glyph-name="cedilla" unicode="&#xb8;" 
d="M71 -79l63 87h40h55l-55 -71h-40q2 1 4.5 2t4.5 2t4.5 1.5t5.5 0.5q2 1 4 1.5t5 0.5h40h4.5h4.5q16 0 30 -5.5t26 -15.5q12 -11 18.5 -25t6.5 -33q0 -3 -0.5 -7t-1.5 -8q-1 -5 -2 -9.5t-3 -8.5q-4 -10 -12.5 -19t-22.5 -17q-13 -8 -34 -12.5t-50 -4.5h-40q-10 0 -18 0.5
t-16 2.5q-7 1 -14.5 2.5t-15.5 3.5l-4 2t-3 1l-4 2l-4 2l-4 2t-4 1l-4 2l-4 2l24 40h40q5 -2 10.5 -4t11.5 -4t12.5 -3t13.5 -2q5 1 8.5 2.5t7.5 3.5q7 4 10.5 11.5t3.5 18.5q0 9 -3.5 16t-9.5 13q-3 3 -6.5 5t-7.5 4q-3 -1 -6 -2.5t-6 -3.5h-40l-23 23v0v0z" />
    <glyph glyph-name="onesuperior" unicode="&#xb9;" 
 />
    <glyph glyph-name="ordmasculine" unicode="&#xba;" horiz-adv-x="371" 
d="M0 551q0 28 7.5 50.5t22.5 38.5q15 17 32 28t36 18q5 2 9 3t9 3q4 1 8.5 2t8.5 2q9 2 17 2.5t15 0.5l40 1q2 -1 4 -1h5q2 -1 4 -1h4q5 0 9.5 -0.5t8.5 -1.5q26 -4 49.5 -16t45.5 -31t33 -46t11 -62q0 -29 -14 -55t-41 -49q-27 -22 -57 -33.5t-62 -11.5l-40 1
q-35 2 -64.5 12.5t-53.5 29.5t-35.5 47.5t-11.5 66.5v2v0zM111 551v-6.5v-4.5v-5t1 -4q2 -16 7 -30.5t15 -27.5q8 -10 20.5 -16.5t29.5 -8.5q16 2 29 8.5t23 16.5q12 13 19.5 27.5t10.5 30.5v2t1 2v2.5v2.5v2t1 3v2v2q-3 26 -11.5 45t-22.5 29q-10 8 -22.5 13t-26.5 7
q-19 -3 -32 -10t-21 -18q-10 -15 -15.5 -30.5t-5.5 -32.5v-1v0v0z" />
    <glyph glyph-name="guillemotright" unicode="&#xbb;" horiz-adv-x="544" 
d="M189 228l-126 158h40h79l126 -158l-134 -149h-40h-79l134 149v0v0zM362 228l-126 158h40h79l126 -158l-134 -149h-40h-79l134 149v0v0z" />
    <glyph glyph-name="onequarter" unicode="&#xbc;" 
 />
    <glyph glyph-name="onehalf" unicode="&#xbd;" horiz-adv-x="875" 
 />
    <glyph glyph-name="threequarters" unicode="&#xbe;" 
 />
    <glyph glyph-name="questiondown" unicode="&#xbf;" horiz-adv-x="481" 
d="M221 323h87v-221l-6 -1h-40l-6 1h40h-7h-6q-2 -1 -4 -1h-4q-2 -1 -4 -1h-4h-4h-4q-2 -1 -4 -1h-4q-22 -3 -42.5 -10.5t-38.5 -21.5q-18 -13 -27 -33.5t-9 -47.5v-2v-3v-2v-3q3 -29 13 -50t26 -34q13 -10 28 -16.5t32 -8.5q17 2 30 8t21 16q11 13 17.5 26.5t9.5 28.5
q2 6 2.5 12t0.5 12v6t1 6v5.5v4.5h40h102q-2 -44 -12.5 -78t-28.5 -57t-38 -39.5t-42 -26.5q-13 -5 -25.5 -9t-24.5 -6t-22.5 -3t-18.5 -1h-40q-9 0 -18 1.5t-20 3.5q-5 1 -10.5 2.5t-10.5 2.5q-6 2 -11.5 4t-10.5 4q-24 10 -45 26t-41 39q-19 22 -28.5 52.5t-9.5 68.5
q2 38 10.5 68.5t24.5 52.5t33 38t36 26q5 3 10 5.5l11 5.5l10 4t10 3q11 3 20 5t16 3v136h40v0v0zM157 425q0 16 5 29t15 22q11 9 22 13.5t24 5.5l40 1h1h2q12 -1 23.5 -5t21.5 -12t15 -20t5 -28q0 -17 -5 -29.5t-16 -20.5q-10 -8 -21.5 -12t-23.5 -4l-40 1q-12 -1 -23 2.5
t-22 10.5q-10 8 -15.5 18.5t-7.5 25.5v2v0z" />
    <glyph glyph-name="Agrave" unicode="&#xc0;" horiz-adv-x="599" 
d="M31 0v465q0 52 15.5 96t46.5 81q32 36 75.5 54.5t99.5 18.5l40 1q53 -1 97 -19t78 -54q35 -36 52 -84t17 -109v-4v-4v-6v-4v-432h-40h-95v323h-260v94h260v5v1t1 2v1v2v7v1v2v1v2q0 47 -9.5 82t-28.5 58q-16 20 -37.5 31.5t-48.5 14.5q-23 -2 -41.5 -9.5t-31.5 -20.5
q-16 -15 -27 -32t-17 -35q-3 -9 -5 -18l-4 -18q-1 -9 -1.5 -16.5t-0.5 -14.5v-463h-40h-95v0v0zM276 732l-134 142h40h118l86 -142h-40h-70v0v0z" />
    <glyph glyph-name="Aacute" unicode="&#xc1;" horiz-adv-x="599" 
d="M31 0v465q0 52 15.5 96t46.5 81q32 36 75.5 54.5t99.5 18.5l40 1q53 -1 97 -19t78 -54q35 -36 52 -84t17 -109v-4v-4v-6v-4v-432h-40h-95v323h-260v94h260v5v1t1 2v1v2v7v1v2v1v2q0 47 -9.5 82t-28.5 58q-16 20 -37.5 31.5t-48.5 14.5q-23 -2 -41.5 -9.5t-31.5 -20.5
q-16 -15 -27 -32t-17 -35q-3 -9 -5 -18l-4 -18q-1 -9 -1.5 -16.5t-0.5 -14.5v-463h-40h-95v0v0zM181 740l95 142h40h110l-134 -142h-40h-71v0v0z" />
    <glyph glyph-name="Acircumflex" unicode="&#xc2;" horiz-adv-x="599" 
d="M31 0v465q0 52 15.5 96t46.5 81q32 36 75.5 54.5t99.5 18.5l40 1q53 -1 97 -19t78 -54q35 -36 52 -84t17 -109v-4v-4v-6v-4v-432h-40h-95v323h-260v94h260v5v1t1 2v1v2v7v1v2v1v2q0 47 -9.5 82t-28.5 58q-16 20 -37.5 31.5t-48.5 14.5q-23 -2 -41.5 -9.5t-31.5 -20.5
q-16 -15 -27 -32t-17 -35q-3 -9 -5 -18l-4 -18q-1 -9 -1.5 -16.5t-0.5 -14.5v-463h-40h-95v0v0zM126 732l102 150h40h95l102 -150h-40h-86l-43 65l-43 -65h-40h-87v0v0z" />
    <glyph glyph-name="Atilde" unicode="&#xc3;" horiz-adv-x="599" 
d="M31 0v465q0 52 15.5 96t46.5 81q32 36 75.5 54.5t99.5 18.5l40 1q53 -1 97 -19t78 -54q35 -36 52 -84t17 -109v-4v-4v-6v-4v-432h-40h-95v323h-260v94h260v5v1t1 2v1v2v7v1v2v1v2q0 47 -9.5 82t-28.5 58q-16 20 -37.5 31.5t-48.5 14.5q-23 -2 -41.5 -9.5t-31.5 -20.5
q-16 -15 -27 -32t-17 -35q-3 -9 -5 -18l-4 -18q-1 -9 -1.5 -16.5t-0.5 -14.5v-463h-40h-95v0v0zM102 740q1 3 2 7.5t2 9.5q2 5 3.5 10.5t3.5 11.5q5 13 13 25t19 22q11 11 28 16.5t40 5.5l40 1q14 -1 26 -2.5t22 -4.5q5 -1 9 -3t8 -3q4 -2 8 -3.5t8 -3.5q3 -2 6 -3.5t6 -3.5
q3 -1 6 -2.5t6 -3.5q2 -1 4.5 -2t5.5 -2q5 2 9 4t6 5q5 6 7 13t3 14v2t1 2v2v2v4v4l47 2h40v-3.5t1 -2.5v-2v-2v-2v-1v-2v-2q0 -24 -7.5 -42.5t-21.5 -32.5t-30.5 -21t-36.5 -7l-40 1q-13 -1 -24.5 0.5t-22.5 4.5q-10 3 -20 6.5t-18 7.5q-4 2 -8.5 3.5t-8.5 3.5q-3 1 -7 3
t-7 3q-1 1 -2.5 1.5t-3.5 0.5q-4 -1 -8 -4t-7 -7q-6 -7 -9 -15t-3 -17l-40 1l-55 1v0v0z" />
    <glyph glyph-name="Adieresis" unicode="&#xc4;" horiz-adv-x="599" 
d="M31 0v465q0 52 15.5 96t46.5 81q32 36 75.5 54.5t99.5 18.5l40 1q53 -1 97 -19t78 -54q35 -36 52 -84t17 -109v-4v-4v-6v-4v-432h-40h-95v323h-260v94h260v5v1t1 2v1v2v7v1v2v1v2q0 47 -9.5 82t-28.5 58q-16 20 -37.5 31.5t-48.5 14.5q-23 -2 -41.5 -9.5t-31.5 -20.5
q-16 -15 -27 -32t-17 -35q-3 -9 -5 -18l-4 -18q-1 -9 -1.5 -16.5t-0.5 -14.5v-463h-40h-95v0v0zM134 811q0 13 4.5 24t13.5 18q9 8 19 11.5t21 3.5l40 1q11 -1 21.5 -4t19.5 -11q9 -7 14 -18.5t5 -26.5t-4.5 -25.5t-12.5 -18.5q-9 -7 -18 -11t-20 -4l-40 1h-2h-1
q-10 -1 -20 3t-19 11q-9 8 -14 18.5t-7 25.5v2v0zM299 811q0 13 4.5 24t13.5 18q9 8 19 11.5t21 3.5l40 1q11 -1 21.5 -4t19.5 -11q9 -7 14 -18.5t5 -26.5t-4.5 -25.5t-13.5 -18.5q-9 -7 -19 -11t-21 -4l-40 1q-11 -2 -21.5 2t-19.5 11q-10 8 -14.5 19t-4.5 26v2v0z" />
    <glyph glyph-name="Aring" unicode="&#xc5;" horiz-adv-x="599" 
d="M31 0v465q0 52 15.5 96t46.5 81q32 36 75.5 54.5t99.5 18.5l40 1q53 -1 97 -19t78 -54q35 -36 52 -84t17 -109v-4v-4v-6v-4v-432h-40h-95v323h-260v94h260v5v1t1 2v1v2v7v1v2v1v2q0 47 -9.5 82t-28.5 58q-16 20 -37.5 31.5t-48.5 14.5q-23 -2 -41.5 -9.5t-31.5 -20.5
q-16 -15 -27 -32t-17 -35q-3 -9 -5 -18l-4 -18q-1 -9 -1.5 -16.5t-0.5 -14.5v-463h-40h-95v0v0zM173 866q0 24 8 43t24 32q17 13 35 19.5t37 7.5l40 1q19 -1 36 -7.5t33 -19.5t24 -32.5t8 -45.5q0 -25 -8 -43t-23 -30t-32 -18.5t-36 -6.5l-40 1q-20 -1 -38 5t-35 19
q-16 12 -24.5 30.5t-8.5 42.5v2v0zM331 866v2v3q0 10 -4 19t-12 15q-1 1 -2.5 2t-3.5 2q-3 1 -5.5 2.5t-6.5 2.5q-4 -1 -9.5 -4t-10.5 -7q-9 -7 -13 -16.5t-4 -22.5t4.5 -23t13.5 -17q5 -4 10 -6l10 -4q5 2 8.5 3.5t7.5 4.5q8 6 12.5 14.5t4.5 20.5v3v2v1v2v1v0z" />
    <glyph glyph-name="AE" unicode="&#xc6;" horiz-adv-x="930" 
d="M157 402h260v1.5t1 2.5v3.5v2.5v6v7v7v3v4q-1 34 -11 65t-27 59q-15 25 -38 39t-55 17q-34 -3 -58 -18t-38 -41q-16 -30 -24.5 -64.5t-8.5 -72.5v-423h-40h-94v425q0 64 15 114.5t45 87.5t76 57t108 23l40 1h2h3q35 -2 67.5 -10.5t63.5 -25.5q25 -13 44.5 -34t33.5 -49
q5 6 11 13t13 14q14 14 33 26.5t43 24.5t55.5 18t70.5 6l110 2h40v-79h-47q-49 -3 -88.5 -12.5t-68.5 -26.5q-30 -16 -52.5 -34.5t-37.5 -38.5q-13 -16 -21.5 -31.5t-13.5 -29.5q-4 -14 -6.5 -24.5t-2.5 -16.5l298 2h40v-87h-346q6 -46 25 -85t51 -73q31 -33 73 -50.5
t96 -21.5l61 2h40v-87h-94h-4l-4 -1h-40h-4h-4h-4h-4q-2 1 -4 1h-4h-7.5h-7.5q-27 2 -52.5 10t-50.5 21q-18 10 -33.5 20t-28.5 20v-71h-40h-95v315h-260v87v0v0z" />
    <glyph glyph-name="Ccedilla" unicode="&#xc7;" horiz-adv-x="544" 
d="M31 339q0 70 24 131.5t72 115.5q48 53 111 81.5t140 31.5l87 2h40v-95h-63q-62 -2 -111 -21.5t-85 -58.5t-54 -86t-18 -103t18 -101.5t55 -80.5q34 -33 75 -50.5t90 -19.5l53 2h40v-87h-79l-40 -55h-40q3 1 7 1.5t8 0.5q4 1 8 1h8h40h4h6q13 -1 25 -5.5t23 -13.5
q11 -8 16.5 -24t5.5 -39t-8.5 -40t-25.5 -27t-36.5 -15t-41.5 -5h-40h-4.5h-4.5h-2h-2q-1 1 -2 1h-2q-12 1 -23 2.5t-22 4.5t-21 7t-18 9l16 40h40q2 0 5 -1l6 -2t6.5 -2t7.5 -2q3 -1 6.5 -1.5t7.5 -1.5q2 0 3.5 -0.5t3.5 -1.5q1 0 3 -0.5t3 -0.5q4 1 7 2.5t6 3.5
q6 4 9.5 11.5t3.5 18.5q0 10 -3 18t-8 13q-4 4 -9.5 6t-13.5 4h-1.5t-0.5 -1h-1.5h-1.5h-40l-16 23l48 71q-63 7 -111.5 29.5t-83.5 59.5q-34 36 -57.5 75t-34.5 81q-2 6 -3.5 12t-2.5 12q-1 5 -2 11l-2 12q-1 11 -2 22.5t-1 22.5v2v0z" />
    <glyph glyph-name="Egrave" unicode="&#xc8;" horiz-adv-x="544" 
d="M16 346q3 70 20.5 124t48.5 90q32 36 65.5 61.5t70.5 40.5q26 11 50 17.5t47 10.5q23 3 42 5.5t34 3.5l63 2h40v-87h-55q-64 -5 -112.5 -20.5t-82.5 -44.5q-34 -28 -55 -58.5t-30 -63.5q-1 -3 -1.5 -5.5t-0.5 -4.5q-1 -3 -1.5 -5.5t-0.5 -4.5l299 2h40v-86h-339
q0 -11 1 -20.5t4 -20.5q3 -10 7 -20.5t8 -21.5q14 -29 35.5 -56t49.5 -51q27 -22 56.5 -34t62.5 -14l75 2h40v-87h-40h-79h-8.5h-8.5h-9h-9q-9 1 -18 2.5t-17 2.5q-55 11 -105.5 39t-95.5 71q-46 44 -68.5 101t-22.5 128v2v0zM331 748l-134 142h40h118l87 -142h-40h-71v0v0z
" />
    <glyph glyph-name="Eacute" unicode="&#xc9;" horiz-adv-x="544" 
d="M16 346q3 70 20.5 124t48.5 90q32 36 65.5 61.5t70.5 40.5q26 11 50 17.5t47 10.5q23 3 42 5.5t34 3.5l63 2h40v-87h-55q-64 -5 -112.5 -20.5t-82.5 -44.5q-34 -28 -55 -58.5t-30 -63.5q-1 -3 -1.5 -5.5t-0.5 -4.5q-1 -3 -1.5 -5.5t-0.5 -4.5l299 2h40v-86h-339
q0 -11 1 -20.5t4 -20.5q3 -10 7 -20.5t8 -21.5q14 -29 35.5 -56t49.5 -51q27 -22 56.5 -34t62.5 -14l75 2h40v-87h-40h-79h-8.5h-8.5h-9h-9q-9 1 -18 2.5t-17 2.5q-55 11 -105.5 39t-95.5 71q-46 44 -68.5 101t-22.5 128v2v0zM252 740l94 142h40h111l-134 -142h-40h-71v0v0z
" />
    <glyph glyph-name="Ecircumflex" unicode="&#xca;" horiz-adv-x="544" 
d="M16 346q3 70 20.5 124t48.5 90q32 36 65.5 61.5t70.5 40.5q26 11 50 17.5t47 10.5q23 3 42 5.5t34 3.5l63 2h40v-87h-55q-64 -5 -112.5 -20.5t-82.5 -44.5q-34 -28 -55 -58.5t-30 -63.5q-1 -3 -1.5 -5.5t-0.5 -4.5q-1 -3 -1.5 -5.5t-0.5 -4.5l299 2h40v-86h-339
q0 -11 1 -20.5t4 -20.5q3 -10 7 -20.5t8 -21.5q14 -29 35.5 -56t49.5 -51q27 -22 56.5 -34t62.5 -14l75 2h40v-87h-40h-79h-8.5h-8.5h-9h-9q-9 1 -18 2.5t-17 2.5q-55 11 -105.5 39t-95.5 71q-46 44 -68.5 101t-22.5 128v2v0zM157 748l103 150h40h94l103 -150h-40h-87
l-43 65l-43 -65h-40h-87v0v0z" />
    <glyph glyph-name="Edieresis" unicode="&#xcb;" horiz-adv-x="544" 
d="M16 346q3 70 20.5 124t48.5 90q32 36 65.5 61.5t70.5 40.5q26 11 50 17.5t47 10.5q23 3 42 5.5t34 3.5l63 2h40v-87h-55q-64 -5 -112.5 -20.5t-82.5 -44.5q-34 -28 -55 -58.5t-30 -63.5q-1 -3 -1.5 -5.5t-0.5 -4.5q-1 -3 -1.5 -5.5t-0.5 -4.5l299 2h40v-86h-339
q0 -11 1 -20.5t4 -20.5q3 -10 7 -20.5t8 -21.5q14 -29 35.5 -56t49.5 -51q27 -22 56.5 -34t62.5 -14l75 2h40v-87h-40h-79h-8.5h-8.5h-9h-9q-9 1 -18 2.5t-17 2.5q-55 11 -105.5 39t-95.5 71q-46 44 -68.5 101t-22.5 128v2v0zM181 827q0 13 4.5 24t13.5 18q9 8 19 11.5
t21 3.5l40 1q11 -1 21.5 -4t19.5 -11q9 -7 14 -18.5t5 -26.5t-4.5 -25.5t-12.5 -18.5q-9 -7 -18 -11t-20 -4l-40 1h-2h-1q-10 -1 -20 3t-19 11q-9 8 -14 18.5t-7 25.5v2v0zM346 827q0 13 4.5 24t13.5 18q9 8 19.5 11.5t21.5 3.5l40 1q11 -1 21.5 -4t19.5 -11q9 -7 14 -18.5
t5 -26.5t-4.5 -25.5t-13.5 -18.5q-9 -7 -19.5 -11t-21.5 -4l-40 1q-11 -2 -21.5 2t-19.5 11q-10 8 -14.5 19t-4.5 26v2v0z" />
    <glyph glyph-name="Igrave" unicode="&#xcc;" horiz-adv-x="260" 
d="M95 701h95v-701h-40h-95v701h40v0v0zM94 740l-133 142h40h118l86 -142h-40h-71v0v0z" />
    <glyph glyph-name="Iacute" unicode="&#xcd;" horiz-adv-x="260" 
d="M95 701h95v-701h-40h-95v701h40v0v0zM16 740l94 142h40h110l-133 -142h-40h-71v0v0z" />
    <glyph glyph-name="Icircumflex" unicode="&#xce;" horiz-adv-x="260" 
d="M95 701h95v-701h-40h-95v701h40v0v0zM-47 740l102 150h40h95l102 -150h-40h-87l-43 65l-43 -65h-40h-86v0v0z" />
    <glyph glyph-name="Idieresis" unicode="&#xcf;" horiz-adv-x="260" 
d="M95 701h95v-701h-40h-95v701h40v0v0zM-39 819q2 13 6.5 24t13.5 18q9 8 18.5 11.5t19.5 3.5l40 1q11 -1 21.5 -4t19.5 -11q9 -7 14 -18.5t5 -26.5t-4.5 -25.5t-12.5 -18.5q-9 -7 -18 -11t-20 -4l-40 1h-2h-1q-10 -1 -19 3t-18 11q-9 8 -14.5 18.5t-6.5 25.5l-2 2v0z
M126 819q0 13 4.5 24t13.5 18q9 8 19 11.5t21 3.5l40 1q11 -1 21.5 -4t19.5 -11q9 -7 14 -18.5t5 -26.5t-4.5 -25.5t-13.5 -18.5q-9 -7 -19 -11t-21 -4l-40 1q-11 -2 -21.5 2t-19.5 11q-10 8 -14.5 19t-4.5 26v2v0z" />
    <glyph glyph-name="Eth" unicode="&#xd0;" horiz-adv-x="654" 
 />
    <glyph glyph-name="Ntilde" unicode="&#xd1;" horiz-adv-x="654" 
d="M39 0v606q0 22 7 40t20 31q14 12 29.5 18.5t32.5 7.5l40 1q13 -1 25 -4.5t24 -11.5q11 -7 20 -18t16 -26l204 -426v483h40h94v-654q0 -17 -5 -29t-15 -18q-10 -7 -21.5 -10.5t-24.5 -3.5h-40h-6l-5 1q-12 1 -22.5 4.5t-21.5 8.5q-10 4 -17 11.5t-11 17.5l-220 455v-484
h-40h-103v0v0zM134 732q1 3 2 7.5t2 10.5q2 5 3.5 10.5t3.5 11.5q5 13 13 25t19 22q11 11 28 16.5t39 5.5l40 1q15 -1 27 -2.5t22 -4.5q9 -3 17.5 -6.5t15.5 -7.5q2 -1 3.5 -2t2.5 -1q2 -1 3.5 -2t2.5 -2q3 -1 6 -2.5t6 -3.5q1 -1 2.5 -1.5t2.5 -0.5q1 -1 2.5 -1.5t2.5 -0.5
q5 2 8.5 4t5.5 5q5 6 7.5 13t3.5 14v4v4v4v4l47 2h40v-3.5t1 -2.5v-2v-2v-2v-1v-2v-2q0 -24 -7.5 -42.5t-21.5 -32.5t-30.5 -21t-35.5 -7l-40 1q-13 -1 -25 0.5t-23 4.5q-10 3 -20 6.5t-18 7.5q-9 4 -16.5 7.5t-14.5 6.5q-1 1 -2.5 1.5t-3.5 0.5q-4 -1 -7.5 -4t-6.5 -7
q-6 -7 -9 -15.5t-3 -17.5l-40 1l-55 1v0v0z" />
    <glyph glyph-name="Ograve" unicode="&#xd2;" 
 />
    <glyph glyph-name="Oacute" unicode="&#xd3;" horiz-adv-x="820" 
d="M16 354q0 78 26 141t78 109q52 47 109 72.5t119 29.5h3t3 1h2.5h2.5l40 1q2 -1 3 -1h3h2.5h2.5q13 0 26.5 -1t27.5 -3t28.5 -5t29.5 -7q47 -14 90 -42t83 -69t61 -100t24 -136q0 -71 -24 -134t-71 -118t-111.5 -81.5t-147.5 -26.5h-40q-77 0 -142.5 23t-119.5 69
q-54 47 -81 116t-27 160v2v0zM158 353v-5.5v-3.5v-2v-1v-2v-2q-1 -54 17 -100.5t55 -87.5q33 -37 75 -56.5t92 -22.5q8 0 15.5 1t14.5 2q14 2 28 5.5t29 8.5q29 11 55.5 30.5t50.5 47.5q24 29 36 71.5t12 100.5v2v2q-1 52 -16.5 100t-47.5 91q-29 40 -75 62t-108 25
q-52 -3 -94 -23.5t-72 -59.5q-34 -42 -50.5 -88t-16.5 -96v1zM291 732l95 142h40h110l-134 -142h-40h-71v0v0z" />
    <glyph glyph-name="Ocircumflex" unicode="&#xd4;" horiz-adv-x="820" 
d="M24 354q0 78 26 141t78 109q52 47 109 72.5t119 29.5h3t3 1h2.5h2.5l40 1q2 -1 3 -1h3h2.5h2.5q13 0 26.5 -1t27.5 -3t28.5 -5t29.5 -7q47 -14 90 -42t83 -69t61 -100t24 -136q0 -71 -24 -134t-71 -118t-111.5 -81.5t-147.5 -26.5h-40q-77 0 -142.5 23t-119.5 69
q-54 47 -81 116t-27 160v2v0zM166 353v-5.5v-3.5v-2v-1v-2v-2q-1 -54 17 -100.5t55 -87.5q33 -37 75 -56.5t92 -22.5q8 0 15.5 1t14.5 2q14 2 28.5 5.5t29.5 9.5q29 11 55 30.5t50 47.5q24 29 36 71.5t12 99.5v2v2q-1 52 -16.5 100t-47.5 91q-29 40 -75 62t-108 25
q-52 -3 -94 -23.5t-72 -59.5q-34 -42 -50.5 -88t-16.5 -96v1zM205 724q1 3 2 7.5t2 10.5q2 5 3.5 10.5t3.5 11.5q5 13 13 25t19 22q11 11 28 16.5t39 5.5l40 1q15 -1 27 -2.5t22 -4.5q9 -3 17.5 -6.5t15.5 -7.5q2 -1 3 -2t3 -1q1 -1 2.5 -2t2.5 -2l3 -1.5l3 -1.5
q1 -1 2.5 -1.5t2.5 -0.5l5 -2.5t6 -2.5q5 2 9 4t6 5q5 6 7.5 13t3.5 14v4v4v4v4l47 2h40v-3.5t1 -2.5v-2v-2v-2v-1v-2v-2q0 -23 -7.5 -42t-21.5 -33t-30.5 -21t-35.5 -7l-40 1q-13 -1 -25 0.5t-23 4.5q-10 3 -20 6.5t-18 7.5q-9 4 -16.5 7.5t-14.5 6.5q-1 1 -2.5 1.5
t-3.5 0.5q-4 -1 -7.5 -4t-6.5 -7q-6 -7 -9 -15.5t-3 -17.5l-40 1l-55 1v0v0z" />
    <glyph glyph-name="Otilde" unicode="&#xd5;" horiz-adv-x="820" 
d="M24 354q0 78 26 141t78 109q52 47 109 72.5t119 29.5h3t3 1h2.5h2.5l40 1q2 -1 3 -1h3h2.5h2.5q13 0 26.5 -1t27.5 -3t28.5 -5t29.5 -7q47 -14 90 -42t83 -69t61 -100t24 -136q0 -71 -24 -134t-71 -118t-111.5 -81.5t-147.5 -26.5h-40q-77 0 -142.5 23t-119.5 69
q-54 47 -81 116t-27 160v2v0zM166 353v-5.5v-3.5v-2v-1v-2v-2q-1 -54 17 -100.5t55 -87.5q33 -37 75 -56.5t92 -22.5q8 0 15.5 1t14.5 2q14 2 28.5 5.5t29.5 9.5q29 11 55 30.5t50 47.5q24 29 36 71.5t12 99.5v2v2q-1 52 -16.5 100t-47.5 91q-29 40 -75 62t-108 25
q-52 -3 -94 -23.5t-72 -59.5q-34 -42 -50.5 -88t-16.5 -96v1zM228 732l103 150h40h94l103 -150h-40h-87l-43 65l-43 -65h-40h-87v0v0z" />
    <glyph glyph-name="Odieresis" unicode="&#xd6;" horiz-adv-x="820" 
d="M24 354q0 78 26 141t78 109q52 47 109 72.5t119 29.5h3t3 1h2.5h2.5l40 1q2 -1 3 -1h3h2.5h2.5q13 0 26.5 -1t27.5 -3t28.5 -5t29.5 -7q47 -14 90 -42t83 -69t61 -100t24 -136q0 -71 -24 -134t-71 -118t-111.5 -81.5t-147.5 -26.5h-40q-77 0 -142.5 23t-119.5 69
q-54 47 -81 116t-27 160v2v0zM166 353v-5.5v-3.5v-2v-1v-2v-2q-1 -54 17 -100.5t55 -87.5q33 -37 75 -56.5t92 -22.5q8 0 15.5 1t14.5 2q14 2 28.5 5.5t29.5 9.5q29 11 55 30.5t50 47.5q24 29 36 71.5t12 99.5v2v2q-1 52 -16.5 100t-47.5 91q-29 40 -75 62t-108 25
q-52 -3 -94 -23.5t-72 -59.5q-34 -42 -50.5 -88t-16.5 -96v1zM252 803q0 13 4.5 24t13.5 18q9 8 19 11.5t21 3.5l40 1q11 -1 21.5 -4t19.5 -11q9 -7 14 -18.5t5 -26.5t-4.5 -25.5t-12.5 -18.5q-9 -7 -18 -11t-20 -4l-40 1h-2h-1q-10 -1 -20 3t-19 11q-9 8 -14 18.5t-7 25.5
v2v0zM417 803q0 13 4.5 24t13.5 18q9 8 19 11.5t21 3.5l40 1q11 -1 21.5 -4t19.5 -11q9 -7 14 -18.5t5 -26.5t-4.5 -25.5t-13.5 -18.5q-9 -7 -19 -11t-21 -4l-40 1q-11 -2 -21.5 2t-19.5 11q-10 8 -14.5 19t-4.5 26v2v0z" />
    <glyph glyph-name="multiply" unicode="&#xd7;" 
 />
    <glyph glyph-name="Oslash" unicode="&#xd8;" horiz-adv-x="820" 
d="M110 110q-18 20 -31.5 40.5t-22.5 39.5t-15.5 37.5t-9.5 37.5q-3 11 -4.5 22.5t-1.5 23.5q-1 12 -1 24v25q0 14 2.5 31t6.5 38q5 20 12.5 41.5t19.5 43.5q18 35 46 66.5t66 60.5t90 45.5t119 20.5l40 1q37 -1 66 -5.5t51 -12.5q21 -8 39.5 -17t33.5 -18q2 -1 3.5 -2.5
t3.5 -2.5q1 -2 3 -3t4 -3l63 65h40h102l-126 -126q3 -6 7 -11.5t8 -10.5l4 -6t5 -6l4 -6l4 -6q11 -16 20 -36t18 -43q8 -24 12.5 -52.5t4.5 -61.5q0 -15 -2 -33t-6 -38q-4 -21 -11 -42t-16 -43q-18 -39 -46.5 -74t-69.5 -67q-40 -32 -96.5 -47.5t-130.5 -15.5h-40
q-31 0 -57.5 3.5t-47.5 9.5q-21 4 -38.5 11.5t-31.5 15.5q-3 2 -6 3.5t-6 3.5q-3 1 -5.5 3t-4.5 3l-54 -53h-40h-103l126 126v0v0zM567 142q20 19 36 42t28 48q11 26 17 52t6 53q0 11 -0.5 21.5t-1.5 20.5q-1 11 -3 22t-5 23q-1 5 -3 10.5t-4 11.5q-3 5 -5 10.5t-5 10.5
l-6 10l-6 10l-355 -361q14 -11 33 -20.5t41 -17.5q18 -7 37 -10.5t39 -4.5q6 0 12 0.5t12 1.5q11 2 22.5 5t22.5 7t22 9t22 12q11 6 22.5 14t21.5 18v2v0zM197 199l354 368q-4 1 -8.5 3t-9.5 5q-4 2 -8.5 4t-9.5 4q-9 4 -18 7.5t-18 6.5q-12 4 -24 7t-24 4q-7 1 -14.5 1.5
t-14.5 1.5q-44 -3 -83 -19.5t-72 -46.5q-38 -34 -58.5 -82t-22.5 -111q0 -10 1 -25.5t2 -36.5q2 -21 8.5 -43t18.5 -45v-0.5t1 -1.5v-1.5v-0.5v1z" />
    <glyph glyph-name="Ugrave" unicode="&#xd9;" horiz-adv-x="599" 
d="M64 701h102v-449q0 -49 10 -82.5t30 -53.5q17 -16 35.5 -25.5t39.5 -12.5q25 3 44 13t32 27q16 20 25 42.5t11 47.5v2t1 3v2v2v4.5v4.5v475h40h102v-465q0 -64 -18 -110t-53 -76t-76.5 -44t-88.5 -14h-40q-47 0 -88.5 15.5t-76.5 47.5q-36 32 -53.5 75t-17.5 96v475h40v0
v0zM260 732l-134 142h40h118l87 -142h-40h-71v0v0z" />
    <glyph glyph-name="Uacute" unicode="&#xda;" horiz-adv-x="599" 
d="M64 701h102v-449q0 -49 10 -82.5t30 -53.5q17 -16 35.5 -25.5t39.5 -12.5q25 3 44 13t32 27q16 20 25 42.5t11 47.5v2t1 3v2v2v4.5v4.5v475h40h102v-465q0 -64 -18 -110t-53 -76t-76.5 -44t-88.5 -14h-40q-47 0 -88.5 15.5t-76.5 47.5q-36 32 -53.5 75t-17.5 96v475h40v0
v0zM181 740l95 142h40h110l-134 -142h-40h-71v0v0z" />
    <glyph glyph-name="Ucircumflex" unicode="&#xdb;" horiz-adv-x="599" 
d="M64 701h102v-449q0 -49 10 -82.5t30 -53.5q17 -16 35.5 -25.5t39.5 -12.5q25 3 44 13t32 27q16 20 25 42.5t11 47.5v2t1 3v2v2v4.5v4.5v475h40h102v-465q0 -64 -18 -110t-53 -76t-76.5 -44t-88.5 -14h-40q-47 0 -88.5 15.5t-76.5 47.5q-36 32 -53.5 75t-17.5 96v475h40v0
v0zM118 732l102 150h40h95l102 -150h-40h-86l-43 65l-43 -65h-40h-87v0v0z" />
    <glyph glyph-name="Udieresis" unicode="&#xdc;" horiz-adv-x="599" 
d="M64 693h102v-449q0 -49 10 -82.5t30 -53.5q17 -16 35.5 -25.5t39.5 -12.5q24 3 42.5 13t31.5 26q16 20 25.5 41.5t12.5 45.5v3v3v2.5v2.5v3t1 3v2.5v2.5v475h40h102v-465q0 -64 -18 -110t-53 -76t-76.5 -44t-88.5 -14h-40q-47 0 -88.5 15.5t-76.5 47.5q-36 32 -53.5 75
t-17.5 96v475h40v0v0zM118 811q0 13 4.5 24t13.5 18q9 8 19 11.5t21 3.5l40 1q11 -1 21.5 -4t19.5 -11q9 -7 14 -18.5t5 -26.5t-4.5 -25.5t-12.5 -18.5q-9 -7 -18 -11t-20 -4l-40 1h-2h-1q-10 -1 -20 3t-19 11q-9 8 -14 18.5t-7 25.5v2v0zM283 811q0 13 4.5 24t13.5 18
q9 8 19.5 11.5t21.5 3.5l40 1q11 -1 21.5 -4t19.5 -11q9 -7 14 -18.5t5 -26.5t-4.5 -25.5t-13.5 -18.5q-9 -7 -19.5 -11t-21.5 -4l-40 1q-11 -2 -21.5 2t-19.5 11q-10 8 -14.5 19t-4.5 26v2v0z" />
    <glyph glyph-name="Yacute" unicode="&#xdd;" 
 />
    <glyph glyph-name="Thorn" unicode="&#xde;" horiz-adv-x="544" 
 />
    <glyph glyph-name="germandbls" unicode="&#xdf;" horiz-adv-x="654" 
d="M110 0v370h-110l24 87h86v86q0 28 12 54t37 48q25 23 58 34.5t74 11.5l40 1q34 -1 64 -10.5t57 -29.5q26 -19 39.5 -44.5t13.5 -56.5v-2v-2v-3v-2q0 -20 -3.5 -36t-10.5 -27q-7 -12 -18 -22.5t-26 -20.5q-6 -4 -12 -7.5t-13 -6.5q-7 -4 -13.5 -7.5t-14.5 -7.5
q5 -3 9.5 -5.5t9.5 -4.5q5 -3 10 -5t11 -4l8 -4l8 -4q5 -2 9.5 -4t8.5 -4q27 -13 52.5 -29.5t48.5 -37.5t34.5 -54.5t11.5 -79.5q0 -35 -11.5 -65t-34.5 -56q-23 -25 -57 -37.5t-78 -12.5h-40h-166v79h118q38 -2 64.5 4.5t40.5 19.5q14 14 21.5 30.5t7.5 37.5q0 28 -8 50
t-25 38q-16 17 -34.5 30.5t-38.5 23.5q-12 6 -23.5 11.5t-22.5 9.5q-11 5 -20 9.5l-17 8.5q-10 5 -16.5 11.5t-11.5 13.5q-4 7 -6.5 14.5t-2.5 14.5q-1 8 2 16.5t9 15.5q6 8 14.5 14t19.5 11q15 5 28.5 12.5t25.5 17.5q12 9 18.5 21t6.5 27t-6.5 26.5t-18.5 19.5
q-8 6 -17.5 10t-20.5 6q-22 -3 -36.5 -11t-22.5 -22q-10 -16 -14.5 -39.5t-4.5 -52.5v-478h-40h-87v0v0z" />
    <glyph glyph-name="agrave" unicode="&#xe0;" horiz-adv-x="599" 
d="M425 0v276q0 22 -8.5 43.5t-25.5 40.5q-14 17 -38 26.5t-58 12.5q-1 0 -2.5 -0.5t-3.5 -0.5q-3 0 -5.5 -0.5t-6.5 -1.5q-9 -1 -18 -4t-18 -8q-16 -7 -31 -19.5t-29 -29.5q-13 -16 -21 -39.5t-10 -53.5q0 -40 11.5 -70t33.5 -50q23 -19 47.5 -30t51.5 -14q7 1 12.5 2.5
t10.5 3.5q9 3 18 8t18 12q5 3 10 7.5t10 8.5q5 5 10 9.5t11 10.5l40 1v-110l-2 -2v-1q-12 -9 -25 -15.5t-27 -11.5q-14 -4 -34 -6.5t-46 -2.5h-40h-3h-3h-4h-3q-46 0 -85 16.5t-72 50.5q-33 35 -49.5 80.5t-16.5 102.5q0 50 16 93t48 79t79 54t109 18l40 1q59 -1 104.5 -17
t76.5 -48q32 -32 47.5 -67.5t15.5 -73.5v-281h-40h-95v0v0zM268 535l-134 142h40h118l87 -142h-40h-71v0v0z" />
    <glyph glyph-name="aacute" unicode="&#xe1;" horiz-adv-x="599" 
d="M425 0v276q0 22 -8.5 43.5t-25.5 40.5q-14 17 -38 26.5t-58 12.5q-1 0 -2.5 -0.5t-3.5 -0.5q-3 0 -5.5 -0.5t-6.5 -1.5q-9 -1 -18 -4t-18 -8q-16 -7 -31 -19.5t-29 -29.5q-13 -16 -21 -39.5t-10 -53.5q0 -40 11.5 -70t33.5 -50q23 -19 47.5 -30t51.5 -14q7 1 12.5 2.5
t10.5 3.5q9 3 18 8t18 12q5 3 10 7.5t10 8.5q5 5 10 9.5t11 10.5l40 1v-110l-2 -2v-1q-12 -9 -25 -15.5t-27 -11.5q-14 -4 -34 -6.5t-46 -2.5h-40h-3h-3h-4h-3q-46 0 -85 16.5t-72 50.5q-33 35 -49.5 80.5t-16.5 102.5q0 50 16 93t48 79t79 54t109 18l40 1q59 -1 104.5 -17
t76.5 -48q32 -32 47.5 -67.5t15.5 -73.5v-281h-40h-95v0v0zM181 535l95 142h40h110l-134 -142h-40h-71v0v0z" />
    <glyph glyph-name="acircumflex" unicode="&#xe2;" horiz-adv-x="599" 
d="M441 0v276q0 22 -9 43.5t-26 40.5q-14 17 -38 26.5t-58 12.5q-1 0 -2.5 -0.5t-3.5 -0.5q-3 0 -5.5 -0.5t-6.5 -1.5q-9 -1 -18 -4t-18 -8q-16 -7 -30.5 -19.5t-28.5 -29.5q-13 -16 -21 -39.5t-10 -53.5q0 -40 11 -69.5t33 -49.5q23 -19 47.5 -30.5t51.5 -14.5v0v0
q7 1 13.5 2.5t12.5 3.5q10 4 19.5 10t18.5 13q5 3 9.5 7t8.5 8q5 4 9.5 8.5t8.5 9.5l40 1v-110q-12 -10 -25 -17.5t-27 -12.5q-14 -4 -34.5 -6.5t-46.5 -2.5h-40h-3h-3h-4h-3q-46 0 -85.5 16.5t-72.5 50.5q-33 35 -49.5 80.5t-16.5 102.5q0 50 16 93t48 79t79 54t109 18
l40 1q59 -1 104.5 -17t76.5 -48q32 -32 47.5 -67.5t15.5 -73.5v-281h-40h-94v0v0zM126 535l102 150h40h95l102 -150h-40h-86l-43 65l-43 -65h-40h-87v0v0z" />
    <glyph glyph-name="atilde" unicode="&#xe3;" horiz-adv-x="599" 
d="M441 0v276q0 22 -9 43.5t-26 40.5q-14 17 -38 26.5t-58 12.5q-1 0 -2.5 -0.5t-3.5 -0.5q-3 0 -5.5 -0.5t-6.5 -1.5q-9 -1 -18 -4t-18 -8q-16 -7 -30.5 -19.5t-28.5 -29.5q-13 -16 -21 -39.5t-10 -53.5q0 -40 11 -69.5t33 -49.5q23 -19 47.5 -30.5t51.5 -14.5v0v0
q7 1 13.5 2.5t12.5 3.5q10 4 19.5 10t18.5 13q5 3 9.5 7t8.5 8q5 4 9.5 8.5t8.5 9.5l40 1v-110q-12 -10 -25 -17.5t-27 -12.5q-14 -4 -34.5 -6.5t-46.5 -2.5h-40h-3h-3h-4h-3q-46 0 -85.5 16.5t-72.5 50.5q-33 35 -49.5 80.5t-16.5 102.5q0 50 16 93t48 79t79 54t109 18
l40 1q59 -1 104.5 -17t76.5 -48q32 -32 47.5 -67.5t15.5 -73.5v-281h-40h-94v0v0zM126 535q1 3 2 7.5t2 10.5q2 5 3.5 10.5t3.5 11.5q5 13 13 25t19 22q11 11 28 16.5t39 5.5l40 1q15 -1 27 -2.5t22 -4.5q9 -3 17.5 -6.5t15.5 -7.5q2 -1 3.5 -2t2.5 -1q2 -1 3.5 -2t2.5 -2
q3 -1 6 -2.5t6 -3.5q1 -1 2.5 -1.5t2.5 -0.5q1 -1 2.5 -1.5t2.5 -0.5q5 2 8.5 4t5.5 5q5 6 7.5 13t3.5 14v4v4v4v4l48 2h40v-4l1 -3v-4v-3q0 -25 -7.5 -44t-21.5 -33q-14 -15 -30.5 -22t-36.5 -7l-40 1q-13 -1 -25 0.5t-23 4.5q-10 3 -20 6.5t-18 7.5q-9 4 -16.5 7.5
t-14.5 6.5q-1 1 -2.5 1.5t-3.5 0.5q-4 -1 -7.5 -4t-6.5 -7q-6 -7 -9 -15.5t-3 -17.5l-40 1l-55 1v0v0z" />
    <glyph glyph-name="adieresis" unicode="&#xe4;" horiz-adv-x="599" 
d="M417 0v276q0 22 -8.5 43.5t-25.5 40.5q-14 17 -38 26.5t-58 12.5q-1 0 -2.5 -0.5t-3.5 -0.5q-3 0 -5.5 -0.5t-6.5 -1.5t-9 -2t-9 -2q-5 -2 -9.5 -4t-9.5 -4q-16 -8 -30.5 -20.5t-28.5 -29.5q-13 -16 -21 -39.5t-10 -52.5q0 -40 11.5 -70t33.5 -50q23 -19 47.5 -30
t51.5 -14q7 1 12.5 2.5t10.5 3.5q9 3 18 8t18 12q5 3 10 7.5t10 8.5q5 5 10 9.5t11 10.5l40 1v-110l-2 -2v-1q-12 -9 -25 -15.5t-27 -11.5q-14 -4 -34 -6.5t-46 -2.5h-40h-3h-3h-4h-3q-46 0 -85 16.5t-72 50.5q-33 35 -49.5 80.5t-16.5 102.5q0 50 16 93t48 79t79 54t109 18
l40 1q59 -1 104.5 -17t76.5 -48q32 -32 47.5 -67.5t15.5 -73.5v-281h-40h-95v0v0zM142 606q0 13 4.5 24t13.5 18q9 8 19 11.5t21 3.5l40 1q11 -1 21.5 -4t19.5 -11q9 -7 14 -18.5t5 -26.5t-4.5 -25.5t-12.5 -18.5q-9 -7 -18 -10.5t-20 -3.5l-40 1h-2h-1q-10 -1 -20 3t-19 11
q-9 8 -14 18.5t-7 24.5v2v0zM307 606q0 13 4.5 24t13.5 18q9 8 19 11.5t21 3.5l40 1q11 -1 21.5 -4t19.5 -11q9 -7 14 -18.5t5 -26.5t-4.5 -25.5t-13.5 -18.5q-9 -7 -19 -10.5t-21 -3.5l-40 1q-11 -2 -21.5 2t-19.5 11q-10 8 -14.5 18.5t-4.5 25.5v2v0z" />
    <glyph glyph-name="aring" unicode="&#xe5;" horiz-adv-x="599" 
d="M425 0v276q0 22 -8.5 43.5t-25.5 40.5q-14 17 -38 26.5t-58 12.5q-1 0 -2.5 -0.5t-3.5 -0.5q-3 0 -5.5 -0.5t-6.5 -1.5q-9 -1 -18 -4t-18 -8q-16 -7 -31 -19.5t-29 -29.5q-13 -16 -21 -39.5t-10 -53.5q0 -40 11.5 -70t33.5 -50q23 -19 47.5 -30t51.5 -14q7 1 12.5 2.5
t10.5 3.5q9 3 18 8t18 12q5 3 10 7.5t10 8.5q5 5 10 9.5t11 10.5l40 1v-110l-2 -2v-1q-12 -9 -25 -15.5t-27 -11.5q-14 -4 -34 -6.5t-46 -2.5h-40h-3h-3h-4h-3q-46 0 -85 16.5t-72 50.5q-33 35 -49.5 80.5t-16.5 102.5q0 50 16 93t48 79t79 54t109 18l40 1q59 -1 104.5 -17
t76.5 -48q32 -32 47.5 -67.5t15.5 -73.5v-281h-40h-95v0v0zM181 661q0 24 8 43t24 32q17 13 35 19.5t37 7.5l40 1q19 -1 36 -7.5t33 -19.5t24 -32.5t8 -45.5q0 -25 -8 -43t-23 -30q-16 -12 -33 -18t-36 -6l-40 1h-2h-1q-19 -1 -36.5 5.5t-33.5 18.5t-24 30t-8 42v2v0z
M339 661v2v3q0 10 -4 19t-12 15q-1 1 -2.5 2t-3.5 2q-3 1 -5.5 2.5t-6.5 2.5q-4 -1 -9.5 -4t-10.5 -7q-9 -7 -13 -16.5t-4 -22.5t4.5 -23t13.5 -16q5 -4 10 -6.5t10 -4.5l4 2l4 2t4 2.5t4 2.5q8 6 12.5 14.5t4.5 20.5v4v3v1v0z" />
    <glyph glyph-name="ae" unicode="&#xe6;" horiz-adv-x="930" 
d="M24 433q4 1 8.5 3t9.5 5t11 6l12 6q15 8 32.5 14.5t36.5 12.5q20 6 39.5 9.5t40.5 4.5l40 1h3h3q32 -1 63 -8.5t60 -21.5q20 -10 35.5 -22t26.5 -27q12 14 28 27.5t38 25.5t52 18.5t67 6.5l40 1q35 -1 65 -9.5t55 -25.5q26 -16 45.5 -35t34.5 -39q6 -9 12 -17.5t10 -16.5
q5 -9 8 -16.5t6 -14.5l-331 -140h-40l-39 79l236 94q-9 10 -21 19.5t-27 16.5q-11 5 -23 9t-24 6q-1 0 -2 -0.5t-2 -0.5q-2 0 -3 -0.5t-2 -0.5q-4 -1 -7.5 -2.5t-6.5 -2.5q-4 -2 -7.5 -3.5t-7.5 -3.5q-18 -10 -34 -24.5t-31 -34.5t-22 -44.5t-7 -53.5q0 -31 9 -56.5
t28 -43.5t40 -30.5t43 -18.5q7 -2 13.5 -3.5t13.5 -2.5h1.5t1.5 -1q18 3 33 7.5t25 10.5q13 8 25 20t22 29q4 6 8 13.5t8 15.5q5 8 9.5 17.5t9.5 19.5l40 1l79 -31q-13 -44 -32 -76.5t-43 -53.5t-48.5 -34t-50.5 -18q-8 -2 -16 -3l-16 -2q-7 -1 -14.5 -1.5t-15.5 -0.5h-40
q-36 0 -64.5 4t-48.5 12q-21 9 -37 19t-27 21q-4 3 -7 6t-6 7l-6 6t-5 6q-14 -17 -30.5 -30.5t-35.5 -23.5q-25 -14 -59 -20.5t-75 -6.5h-40h-6h-5q-3 1 -6 1h-6q-6 1 -11.5 1.5t-10.5 1.5q-25 3 -49 12t-45 25t-31.5 40.5t-10.5 58.5q0 39 15 69.5t46 52.5q30 21 64 37.5
t71 28.5q9 3 18 5.5t18 4.5q8 2 17 4l18 4q18 4 34 7.5t29 6.5q-12 12 -26 22t-31 17q-13 6 -26.5 10t-27.5 5q-13 -1 -25.5 -3t-23.5 -5q-8 -2 -15 -4.5t-14 -4.5q-6 -3 -12 -5.5t-11 -4.5q-5 -3 -9.5 -5.5t-8.5 -4.5q-4 -3 -7 -5l-6 -4l-40 1l-39 72v0v0zM378 270
q-10 -2 -19.5 -4.5t-18.5 -4.5q-18 -4 -34.5 -10t-33.5 -12q-4 -1 -8 -3t-8 -3q-5 -2 -9 -3.5t-8 -3.5q-8 -4 -16.5 -7.5t-17.5 -7.5q-11 -5 -20 -12t-17 -15q-7 -9 -12 -18t-7 -18q-1 -2 -1.5 -4t-0.5 -4v-5q0 -12 5.5 -22t15.5 -19q8 -7 20.5 -10.5t28.5 -5.5q35 2 63 14
t49 33q24 24 36.5 57t13.5 74v5v5l-1 4v0v0z" />
    <glyph glyph-name="ccedilla" unicode="&#xe7;" horiz-adv-x="426" 
d="M47 228q0 49 13.5 88.5t40.5 68.5t57.5 48t63.5 28q8 2 15.5 4t14.5 3q4 0 8 0.5t8 0.5q3 1 7 1h8l87 2h40v-86q-2 -2 -4 -2h-4l-40 1h-3q-43 -2 -75.5 -12.5t-53.5 -28.5q-24 -20 -36 -49.5t-12 -68.5q0 -29 9.5 -55t28.5 -49q17 -20 49.5 -31.5t79.5 -13.5l21 2h40v-79
h-71l-47 -63h-40q3 1 7 1.5t8 0.5q5 1 9.5 1h8.5h40h4h4h4t4 -1q13 -1 25 -5.5t22 -12.5q11 -8 16.5 -22t5.5 -33q0 -20 -9.5 -37t-27.5 -30q-18 -14 -40.5 -20.5t-48.5 -6.5h-40h-4h-4q-3 1 -5 1h-4t-4.5 0.5t-4.5 1.5q-3 0 -5.5 0.5t-4.5 1.5q-9 2 -18 5t-17 6
q-8 4 -14 7.5t-9 7.5l23 40h40l4 -3l6 -4q5 -2 10 -3.5t11 -3.5q2 0 4.5 -0.5t4.5 -1.5t4.5 -1.5t4.5 -0.5q5 1 8.5 2.5t7.5 3.5q7 4 10.5 11t3.5 18v2v1v2v2v2v1q-1 1 -1 2v2q-1 8 -5.5 13.5t-12.5 8.5q-2 1 -3.5 1.5t-3.5 0.5q-2 1 -3.5 1.5t-3.5 0.5h-0.5t-0.5 -1h-0.5
h-0.5h-6h-5h-2.5t-2.5 -1h-2h-2h-40l-8 23l55 79q-8 0 -17 0.5t-19 3.5q-10 2 -19.5 6t-19.5 10q-23 12 -44 31t-40 45t-28.5 58.5t-9.5 71.5v2v0z" />
    <glyph glyph-name="egrave" unicode="&#xe8;" horiz-adv-x="599" 
d="M142 220l236 134q-2 1 -4 2.5t-4 4.5q-2 2 -4.5 5t-5.5 6q-3 2 -6.5 4.5t-6.5 5.5q-4 2 -8 4.5t-9 4.5q-7 3 -15 5t-18 3q-32 -3 -56.5 -17t-42.5 -37q-20 -27 -30 -57t-10 -62v-1v-1q0 -30 10.5 -56.5t30.5 -50.5q18 -21 43 -33t56 -14q32 2 54 11.5t34 25.5
q14 20 25.5 47t20.5 61v2l1 2h40l87 -6v-3.5t1 -2.5v-3v-3v-2.5t1 -2.5v-3v-2q0 -8 -1 -16.5t-3 -17.5q-1 -4 -2.5 -9t-2.5 -9q-2 -5 -3.5 -9.5t-3.5 -9.5q-12 -25 -32 -49t-49 -45q-28 -21 -65.5 -31.5t-83.5 -10.5h-40q-53 0 -98 16.5t-81 50.5q-37 35 -55 78.5t-18 96.5
q0 56 15 99t45 74t63 51t69 29q4 1 7.5 1.5t7.5 1.5q4 0 7.5 0.5t7.5 1.5q8 1 15.5 1.5t14.5 0.5l40 1q41 -1 76.5 -12.5t65.5 -34.5q29 -23 52.5 -51t41.5 -60l-331 -179h-40l-39 70v0v0zM268 535l-134 142h40h118l87 -142h-40h-71v0v0z" />
    <glyph glyph-name="eacute" unicode="&#xe9;" horiz-adv-x="599" 
d="M142 220l236 134q-2 1 -4 2.5t-4 4.5q-2 2 -4.5 5t-5.5 6q-3 2 -6.5 4.5t-6.5 5.5q-4 2 -8 4.5t-9 4.5q-7 3 -15 5t-18 3q-32 -3 -56.5 -17t-42.5 -37q-20 -27 -30 -57t-10 -62v-1v-1q0 -30 10.5 -56.5t30.5 -50.5q18 -21 43 -33t56 -14q32 2 54 11.5t34 25.5
q14 20 25.5 47t20.5 61v2l1 2h40l87 -6v-3.5t1 -2.5v-3v-3v-2.5t1 -2.5v-3v-2q0 -8 -1 -16.5t-3 -17.5q-1 -4 -2.5 -9t-2.5 -9q-2 -5 -3.5 -9.5t-3.5 -9.5q-12 -25 -32 -49t-49 -45q-28 -21 -65.5 -31.5t-83.5 -10.5h-40q-53 0 -98 16.5t-81 50.5q-37 35 -55 78.5t-18 96.5
q0 56 15 99t45 74t63 51t69 29q4 1 7.5 1.5t7.5 1.5q4 0 7.5 0.5t7.5 1.5q8 1 15.5 1.5t14.5 0.5l40 1q41 -1 76.5 -12.5t65.5 -34.5q29 -23 52.5 -51t41.5 -60l-331 -179h-40l-39 70v0v0zM197 535l94 142h40h111l-134 -142h-40h-71v0v0z" />
    <glyph glyph-name="ecircumflex" unicode="&#xea;" horiz-adv-x="599" 
d="M142 220l236 134q-2 1 -4 2.5t-4 4.5q-2 2 -4.5 5t-5.5 6q-3 2 -6.5 4.5t-6.5 5.5q-4 2 -8 4.5t-9 4.5q-7 3 -15 5t-18 3q-32 -3 -56.5 -17t-42.5 -37q-20 -27 -30 -57t-10 -62v-1v-1q0 -30 10.5 -56.5t30.5 -50.5q18 -21 43 -33t56 -14q32 2 54 11.5t34 25.5
q14 20 25.5 47t20.5 61v2l1 2h40l87 -6v-3.5t1 -2.5v-3v-3v-2.5t1 -2.5v-3v-2q0 -8 -1 -16.5t-3 -17.5q-1 -4 -2.5 -9t-2.5 -9q-2 -5 -3.5 -9.5t-3.5 -9.5q-12 -25 -32 -49t-49 -45q-28 -21 -65.5 -31.5t-83.5 -10.5h-40q-53 0 -98 16.5t-81 50.5q-37 35 -55 78.5t-18 96.5
q0 56 15 99t45 74t63 51t69 29q4 1 7.5 1.5t7.5 1.5q4 0 7.5 0.5t7.5 1.5q8 1 15.5 1.5t14.5 0.5l40 1q41 -1 76.5 -12.5t65.5 -34.5q29 -23 52.5 -51t41.5 -60l-331 -179h-40l-39 70v0v0zM126 528l102 149h40h95l102 -149h-40h-86l-43 64l-43 -64h-40h-87v0v0z" />
    <glyph glyph-name="edieresis" unicode="&#xeb;" horiz-adv-x="599" 
d="M142 220l236 134q-2 1 -4 2.5t-4 4.5q-2 2 -4.5 5t-5.5 6q-3 2 -6.5 4.5t-6.5 5.5q-4 2 -8 4.5t-9 4.5q-7 3 -15 5t-18 3q-32 -3 -56.5 -17t-42.5 -37q-20 -27 -30 -57t-10 -62v-1v-1q0 -30 10.5 -56.5t30.5 -50.5q18 -21 43 -33t56 -14q32 2 54 11.5t34 25.5
q14 20 25.5 47t20.5 61v2l1 2h40l87 -6v-3.5t1 -2.5v-3v-3v-2.5t1 -2.5v-3v-2q0 -8 -1 -16.5t-3 -17.5q-1 -4 -2.5 -9t-2.5 -9q-2 -5 -3.5 -9.5t-3.5 -9.5q-12 -25 -32 -49t-49 -45q-28 -21 -65.5 -31.5t-83.5 -10.5h-40q-53 0 -98 16.5t-81 50.5q-37 35 -55 78.5t-18 96.5
q0 56 15 99t45 74t63 51t69 29q4 1 7.5 1.5t7.5 1.5q4 0 7.5 0.5t7.5 1.5q8 1 15.5 1.5t14.5 0.5l40 1q41 -1 76.5 -12.5t65.5 -34.5q29 -23 52.5 -51t41.5 -60l-331 -179h-40l-39 70v0v0zM134 606q0 13 4.5 24t13.5 18q9 8 19 11.5t21 3.5l40 1q11 -1 21.5 -4t19.5 -11
q9 -7 14 -18.5t5 -26.5t-4.5 -25.5t-12.5 -18.5q-9 -7 -18 -10.5t-20 -3.5l-40 1h-2h-1q-10 -1 -20 3t-19 11q-9 8 -14 18.5t-7 24.5v2v0zM299 606q0 13 4.5 24t13.5 18q9 8 19 11.5t21 3.5l40 1q11 -1 21.5 -4t19.5 -11q9 -7 14 -18.5t5 -26.5t-4.5 -25.5t-13.5 -18.5
q-9 -7 -19 -10.5t-21 -3.5l-40 1q-11 -2 -21.5 2t-19.5 11q-10 8 -14.5 18.5t-4.5 25.5v2v0z" />
    <glyph glyph-name="igrave" unicode="&#xec;" 
d="M94 0v488h40h95v-488h-40h-95v0v0zM142 535l-134 142h40h118l87 -142h-40h-71v0v0z" />
    <glyph glyph-name="iacute" unicode="&#xed;" 
d="M94 0v488h40h95v-488h-40h-95v0v0zM71 535l94 142h40h111l-134 -142h-40h-71v0v0z" />
    <glyph glyph-name="icircumflex" unicode="&#xee;" 
d="M94 0v488h40h95v-488h-40h-95v0v0zM0 535l102 150h40h95l102 -150h-40h-86l-43 65l-43 -65h-40h-87v0v0z" />
    <glyph glyph-name="idieresis" unicode="&#xef;" 
d="M94 0v488h40h95v-488h-40h-95v0v0zM0 614q0 13 4.5 24t13.5 18q9 8 19 11.5t21 3.5l40 1q11 -1 21.5 -4t19.5 -11q9 -7 14 -18.5t5 -26.5t-4.5 -25.5t-12.5 -18.5q-9 -7 -18 -11t-20 -4l-40 1h-2h-1q-10 -1 -20 3t-19 11q-9 8 -14 18.5t-7 25.5v2v0zM165 614q0 13 4.5 24
t13.5 18q9 8 19 11.5t21 3.5l40 1q11 -1 21.5 -4t19.5 -11q9 -7 14 -18.5t5 -26.5t-4.5 -25.5t-13.5 -18.5q-9 -7 -19 -11t-21 -4l-40 1q-11 -2 -21.5 2t-19.5 11q-10 8 -14.5 19t-4.5 26v2v0z" />
    <glyph glyph-name="eth" unicode="&#xf0;" horiz-adv-x="599" 
 />
    <glyph glyph-name="ntilde" unicode="&#xf1;" horiz-adv-x="544" 
d="M39 0v291q0 40 14 75.5t42 66.5q29 30 68 45.5t89 15.5l40 1q8 -1 17.5 -2t20.5 -3t22.5 -5t23.5 -8q21 -9 40 -23t37 -34q18 -19 27 -47t9 -63v-2v-3v-4v-3v-298h-40h-95v283q0 22 -6.5 43.5t-19.5 40.5q-10 16 -26 26t-38 13q-19 -3 -35 -12t-28 -23
q-15 -18 -23.5 -38.5t-11.5 -43.5v-289h-40h-87v0v0zM63 535q1 3 2 7.5t2 10.5q2 5 3.5 10.5t3.5 11.5q5 13 13 25t19 22q11 11 28 16.5t39 5.5l40 1q15 -1 27 -2.5t22 -4.5q9 -3 17.5 -6.5t15.5 -7.5q2 -1 3.5 -2t2.5 -1q2 -1 3.5 -2t2.5 -2q3 -1 6 -2.5t6 -3.5
q1 -1 2.5 -1.5t2.5 -0.5q1 -1 2.5 -1.5t2.5 -0.5q5 2 8.5 4t5.5 5q5 6 7.5 13t3.5 14v4v4v4v4l48 2h40v-4l1 -3v-4v-3q0 -25 -7.5 -44t-21.5 -33q-14 -15 -30.5 -22t-36.5 -7l-40 1q-13 -1 -25 0.5t-23 4.5q-10 3 -20 6.5t-18 7.5q-9 4 -16.5 7.5t-14.5 6.5q-1 1 -2.5 1.5
t-3.5 0.5q-4 -1 -7.5 -4t-6.5 -7q-6 -7 -9 -15.5t-3 -17.5l-40 1l-55 1v0v0z" />
    <glyph glyph-name="ograve" unicode="&#xf2;" horiz-adv-x="599" 
d="M31 244q0 55 19 99t56 77q38 33 80.5 49.5t89.5 16.5l40 1q2 -1 4.5 -1h4.5q2 -1 4.5 -1h5.5h4.5h5.5q2 -1 4.5 -1h4.5q40 -6 76.5 -23.5t70.5 -46.5q33 -30 50 -75t17 -105v-8t-1 -7q0 -4 -0.5 -8t-0.5 -8q-1 -8 -2.5 -16t-3.5 -16q-9 -36 -27.5 -68.5t-47.5 -61.5
q-28 -29 -67 -43t-87 -14h-40q-68 0 -117.5 18.5t-80.5 56.5t-46.5 84t-15.5 99v2v0zM166 244v-14.5t1 -13.5t2.5 -13.5t2.5 -13.5q5 -22 16 -43t27 -40q14 -16 34 -25t46 -11q27 2 50 11t42 24q23 18 34.5 52.5t11.5 84.5q0 35 -10 63.5t-30 50.5q-17 19 -41.5 30t-55.5 13
q-28 -2 -49 -11.5t-36 -26.5q-17 -19 -27.5 -40.5t-14.5 -44.5q-1 -4 -2 -8.5t-1 -9.5v-5.5v-4.5v-2.5v-2.5v1zM276 535l-134 142h40h118l86 -142h-40h-70v0v0z" />
    <glyph glyph-name="oacute" unicode="&#xf3;" horiz-adv-x="599" 
d="M31 252q0 55 19 99t56 77q38 33 80.5 49.5t89.5 16.5l40 1q2 -1 4.5 -1h4.5q2 -1 4.5 -1h5.5h4.5h5.5q2 -1 4.5 -1h4.5q40 -6 76.5 -23.5t70.5 -46.5q33 -30 50 -75t17 -105v-8t-1 -7q0 -4 -0.5 -8t-0.5 -8q-1 -8 -2.5 -16t-3.5 -16q-9 -36 -27.5 -68.5t-47.5 -61.5
q-28 -29 -67 -43t-87 -14h-40q-68 0 -117.5 18.5t-80.5 56.5t-46.5 84t-15.5 99v2v0zM166 252v-14.5t1 -13.5t2.5 -13.5t2.5 -13.5q5 -22 16 -43t27 -40q14 -16 34 -25t46 -11q27 2 50 11t42 24q23 18 34.5 52.5t11.5 84.5q0 35 -10 63.5t-30 50.5q-17 18 -41.5 29t-55.5 13
q-28 -2 -49.5 -11.5t-35.5 -26.5q-17 -19 -27.5 -41t-14.5 -45l-2 -8t-1 -8v-5.5v-4.5v-2.5v-2.5v1zM189 535l94 142h40h111l-134 -142h-40h-71v0v0z" />
    <glyph glyph-name="ocircumflex" unicode="&#xf4;" horiz-adv-x="599" 
d="M31 252q0 55 19 99t56 77q38 33 80.5 49.5t89.5 16.5l40 1q2 -1 4.5 -1h4.5q2 -1 4.5 -1h5.5h4.5h5.5q2 -1 4.5 -1h4.5q40 -6 76.5 -23.5t70.5 -46.5q33 -30 50 -75t17 -105v-8t-1 -7q0 -4 -0.5 -8t-0.5 -8q-1 -8 -2.5 -16t-3.5 -16q-9 -36 -27.5 -68.5t-47.5 -61.5
q-28 -29 -67 -43t-87 -14h-40q-68 0 -117.5 18.5t-80.5 56.5t-46.5 84t-15.5 99v2v0zM166 252v-14.5t1 -13.5t2.5 -13.5t2.5 -13.5q5 -22 16 -43t27 -40q14 -16 34 -25t46 -11q27 2 50 11t42 24q23 18 34.5 52.5t11.5 84.5q0 35 -10 63.5t-30 50.5q-17 18 -41.5 29t-55.5 13
q-28 -2 -49.5 -11.5t-35.5 -26.5q-17 -19 -27.5 -41t-14.5 -45l-2 -8t-1 -8v-5.5v-4.5v-2.5v-2.5v1zM134 535l102 150h40h95l102 -150h-40h-87l-43 65l-43 -65h-40h-86v0v0z" />
    <glyph glyph-name="otilde" unicode="&#xf5;" horiz-adv-x="599" 
d="M31 252q0 55 19 99t56 77q38 33 80.5 49.5t89.5 16.5l40 1q2 -1 4.5 -1h4.5q2 -1 4.5 -1h5.5h4.5h5.5q2 -1 4.5 -1h4.5q40 -6 76.5 -23.5t70.5 -46.5q33 -30 50 -75t17 -105v-8t-1 -7q0 -4 -0.5 -8t-0.5 -8q-1 -8 -2.5 -16t-3.5 -16q-9 -36 -27.5 -68.5t-47.5 -61.5
q-28 -29 -67 -43t-87 -14h-40q-68 0 -117.5 18.5t-80.5 56.5t-46.5 84t-15.5 99v2v0zM166 252v-14.5t1 -13.5t2.5 -13.5t2.5 -13.5q5 -22 16 -43t27 -40q14 -16 34 -25t46 -11q27 2 50 11t42 24q23 18 34.5 52.5t11.5 84.5q0 35 -10 63.5t-30 50.5q-17 18 -41.5 29t-55.5 13
q-28 -2 -49.5 -11.5t-35.5 -26.5q-17 -19 -27.5 -41t-14.5 -45l-2 -8t-1 -8v-5.5v-4.5v-2.5v-2.5v1zM102 535q1 3 2 7.5t2 10.5q2 5 3.5 10.5t3.5 11.5q5 13 13 25t19 22q11 11 28.5 16.5t39.5 5.5l40 1q14 -1 26 -2.5t22 -4.5q9 -3 17.5 -6.5t15.5 -7.5q2 -1 3.5 -2t2.5 -1
q2 -1 3.5 -2t2.5 -2q3 -1 6 -2.5t6 -3.5q2 -1 4.5 -2t5.5 -2q5 2 9 4t6 5q5 6 7 13t3 14v2t1 2v2v2v4v4l47 2h40v-3.5t1 -2.5v-2v-2v-2v-1v-2v-2q0 -23 -7.5 -42t-21.5 -33t-30.5 -21t-36.5 -7l-40 1q-13 -1 -24.5 0.5t-22.5 4.5q-10 3 -20 6.5t-18 7.5q-9 4 -16.5 7.5
t-14.5 6.5q-1 1 -2.5 1.5t-3.5 0.5q-4 -1 -8 -4t-7 -7q-6 -7 -9 -15.5t-3 -17.5l-40 1l-55 1v0v0z" />
    <glyph glyph-name="odieresis" unicode="&#xf6;" horiz-adv-x="599" 
d="M31 252q0 55 19 99t56 77q38 33 80.5 49.5t89.5 16.5l40 1q2 -1 4.5 -1h4.5q2 -1 4.5 -1h5.5h4.5h5.5q2 -1 4.5 -1h4.5q40 -6 76.5 -23.5t70.5 -46.5q33 -30 50 -75t17 -105v-8t-1 -7q0 -4 -0.5 -8t-0.5 -8q-1 -8 -2.5 -16t-3.5 -16q-9 -36 -27.5 -68.5t-47.5 -61.5
q-28 -29 -67 -43t-87 -14h-40q-68 0 -117.5 18.5t-80.5 56.5t-46.5 84t-15.5 99v2v0zM166 252v-14.5t1 -13.5t2.5 -13.5t2.5 -13.5q5 -22 16 -43t27 -40q14 -16 34 -25t46 -11q27 2 50 11t42 24q23 18 34.5 52.5t11.5 84.5q0 35 -10 63.5t-30 50.5q-17 18 -41.5 29t-55.5 13
q-28 -2 -49.5 -11.5t-35.5 -26.5q-17 -19 -27.5 -41t-14.5 -45l-2 -8t-1 -8v-5.5v-4.5v-2.5v-2.5v1zM150 614q0 13 4.5 24t13.5 18q9 8 19 11.5t21 3.5l40 1q11 -1 21.5 -4t19.5 -11q9 -7 14 -18.5t5 -26.5t-4.5 -25.5t-12.5 -18.5q-9 -7 -18.5 -11t-20.5 -4l-40 1
q-11 -2 -21.5 2t-19.5 11q-9 8 -14 19t-7 26v2v0zM315 614q0 13 4.5 24t13.5 18q9 8 19 11.5t21 3.5l40 1q11 -1 21.5 -4t19.5 -11q9 -7 14 -18.5t5 -26.5t-4.5 -25.5t-13.5 -18.5q-9 -7 -19 -11t-21 -4l-40 1q-11 -2 -21.5 2t-19.5 11q-10 8 -14.5 19t-4.5 26v2v0z" />
    <glyph glyph-name="divide" unicode="&#xf7;" 
 />
    <glyph glyph-name="oslash" unicode="&#xf8;" horiz-adv-x="599" 
d="M24 236q2 52 15.5 92t38.5 68q26 27 53 46t57 29q11 4 22.5 7t22.5 4q11 2 22 3t21 1l40 1q26 -1 48 -4t38 -9q3 -1 6.5 -2.5t6.5 -2.5q7 -3 13.5 -6.5t12.5 -7.5l31 33h40h87l-87 -94q1 -2 2 -3.5t2 -2.5q0 -1 1 -2l2 -2q2 -2 4 -4.5t4 -4.5q8 -10 14.5 -22.5
t13.5 -29.5q6 -16 9.5 -38t3.5 -51q0 -10 -1.5 -22t-4.5 -27t-8 -30.5t-13 -31.5q-12 -25 -31 -48t-45 -43q-27 -21 -64 -30.5t-85 -9.5h-40q-31 0 -55 3.5t-39 8.5q-9 4 -17 8.5t-16 8.5l-38 -37h-40h-9.5h-11.5h-11.5h-10.5h-12h-11h-10h-9l93 95q-10 13 -18 25t-13 22
q-6 10 -10 19.5t-6 19.5q-3 8 -4.5 15.5t-2.5 15.5t-1 18v20v2v0zM402 134q8 8 13 19.5t9 25.5t6 29t2 31q0 14 -1.5 26.5t-4.5 24.5q-1 3 -1.5 6t-1.5 5l-194 -199q5 -7 13 -12t20 -10q8 -3 17 -4.5t19 -2.5q3 0 5.5 0.5t4.5 1.5q13 2 25.5 6t24.5 11t23 17t21 23v2v0z
M169 178l193 200q-8 7 -17 12t-19 9q-7 2 -14.5 4t-15.5 3q-27 -4 -50 -16t-42 -34q-22 -25 -33 -55t-11 -64q0 -11 1 -22.5t4 -22.5q1 -4 2 -7.5t2 -7.5v1z" />
    <glyph glyph-name="ugrave" unicode="&#xf9;" horiz-adv-x="544" 
d="M87 480h87v-291q0 -28 8 -49.5t24 -38.5q13 -13 29 -20.5t35 -10.5q15 3 28.5 9.5t23.5 18.5q14 15 23 31.5t13 34.5q1 4 1.5 7.5t1.5 7.5v4t1 4v4v4v285h40h87v-275v-5l1 -4v-4v-4q0 -43 -13.5 -79t-40.5 -66t-63 -44.5t-81 -14.5h-40q-44 0 -81 12.5t-66 37.5
q-29 26 -43.5 68t-14.5 101v277h40v0v0zM244 535l-134 142h40h118l87 -142h-40h-71v0v0z" />
    <glyph glyph-name="uacute" unicode="&#xfa;" horiz-adv-x="544" 
d="M87 480h87v-291q0 -28 8 -49.5t24 -38.5q13 -13 29 -20.5t35 -10.5q15 3 28.5 9.5t23.5 18.5q14 15 23 31.5t13 34.5q1 4 1.5 7.5t1.5 7.5v4t1 4v4v4v285h40h87v-275v-5l1 -4v-4v-4q0 -43 -13.5 -79t-40.5 -66t-63 -44.5t-81 -14.5h-40q-44 0 -81 12.5t-66 37.5
q-29 26 -43.5 68t-14.5 101v277h40v0v0zM157 535l95 142h40h110l-134 -142h-40h-71v0v0z" />
    <glyph glyph-name="ucircumflex" unicode="&#xfb;" horiz-adv-x="544" 
d="M87 480h87v-291q0 -28 8 -49.5t24 -38.5q13 -13 29 -20.5t35 -10.5q15 3 28.5 9.5t23.5 18.5q14 15 23 31.5t13 34.5q1 4 1.5 7.5t1.5 7.5v4t1 4v4v4v285h40h87v-275v-5l1 -4v-4v-4q0 -43 -13.5 -79t-40.5 -66t-63 -44.5t-81 -14.5h-40q-44 0 -81 12.5t-66 37.5
q-29 26 -43.5 68t-14.5 101v277h40v0v0zM102 535l103 150h40h94l103 -150h-40h-87l-43 65l-43 -65h-40h-87v0v0z" />
    <glyph glyph-name="udieresis" unicode="&#xfc;" horiz-adv-x="544" 
d="M87 480h87v-291q0 -28 8 -49.5t24 -38.5q13 -13 29 -20.5t35 -10.5q15 3 28.5 9.5t23.5 18.5q14 15 23 31.5t13 34.5q1 4 1.5 7.5t1.5 7.5v4t1 4v4v4v285h40h87v-275v-5l1 -4v-4v-4q0 -43 -13.5 -79t-40.5 -66t-63 -44.5t-81 -14.5h-40q-44 0 -81 12.5t-66 37.5
q-29 26 -43.5 68t-14.5 101v277h40v0v0zM110 606q0 13 4.5 24t13.5 18q9 8 19 11.5t21 3.5l40 1q11 -1 21.5 -4t19.5 -11q9 -7 14 -18.5t5 -26.5t-4.5 -25.5t-12.5 -18.5q-9 -7 -18 -10.5t-20 -3.5l-40 1h-2h-1q-10 -1 -20 3t-19 11q-9 8 -14 18.5t-7 24.5v2v0zM276 606
q0 13 4.5 24t13.5 18q9 8 19 11.5t21 3.5l40 1q11 -1 21.5 -4t19.5 -11q9 -7 14 -18.5t5 -26.5t-4.5 -25.5t-13.5 -18.5q-9 -7 -19 -10.5t-21 -3.5l-40 1q-11 -2 -21.5 2t-19.5 11q-10 8 -14.5 18.5t-4.5 25.5v2v0z" />
    <glyph glyph-name="yacute" unicode="&#xfd;" 
 />
    <glyph glyph-name="thorn" unicode="&#xfe;" horiz-adv-x="599" 
 />
    <glyph glyph-name="ydieresis" unicode="&#xff;" horiz-adv-x="544" 
d="M79 480h95v-267v-7v-5v-4.5t1 -4.5q1 -22 7 -41.5t18 -37.5q9 -15 27 -24t43 -11q20 2 34.5 10.5t24.5 23.5q12 18 18.5 38.5t6.5 44.5v285h40h95v-283v-3.5t1 -2.5v-3v-2v-4.5v-4.5v-1v-2q-1 -31 -10.5 -59.5t-29.5 -55.5q-19 -27 -48.5 -43.5t-70.5 -23.5v-205h-40h-86
v205q-33 8 -61 22t-52 33q-24 20 -37 49t-16 67v317h40v0v0zM102 614q0 13 4.5 24t13.5 18q9 8 19 11.5t21 3.5l40 1q11 -1 21.5 -4t19.5 -11q9 -7 14 -18.5t5 -26.5t-4.5 -25.5t-12.5 -18.5q-9 -7 -18 -11t-20 -4l-40 1h-2h-1q-10 -1 -20 3t-19 11q-9 8 -14 18.5t-7 25.5v2
v0zM268 614q0 13 4.5 24t13.5 18q9 8 19 11.5t21 3.5l40 1q11 -1 21.5 -4t19.5 -11q9 -7 14 -18.5t5 -26.5t-4.5 -25.5t-13.5 -18.5q-9 -7 -19 -11t-21 -4l-40 1q-11 -2 -21.5 2t-19.5 11q-10 8 -14.5 19t-4.5 26v2v0z" />
    <glyph glyph-name="Abreve" unicode="&#x102;" 
 />
    <glyph glyph-name="abreve" unicode="&#x103;" 
 />
    <glyph glyph-name="Aogonek" unicode="&#x104;" 
 />
    <glyph glyph-name="aogonek" unicode="&#x105;" 
 />
    <glyph glyph-name="Cacute" unicode="&#x106;" 
 />
    <glyph glyph-name="cacute" unicode="&#x107;" 
 />
    <glyph glyph-name="Ccaron" unicode="&#x10c;" 
 />
    <glyph glyph-name="ccaron" unicode="&#x10d;" 
 />
    <glyph glyph-name="Dcaron" unicode="&#x10e;" 
 />
    <glyph glyph-name="dcaron" unicode="&#x10f;" 
 />
    <glyph glyph-name="Dslash" unicode="&#x110;" 
 />
    <glyph glyph-name="dslash" unicode="&#x111;" 
 />
    <glyph glyph-name="Eogonek" unicode="&#x118;" 
 />
    <glyph glyph-name="eogonek" unicode="&#x119;" 
 />
    <glyph glyph-name="Ecaron" unicode="&#x11a;" 
 />
    <glyph glyph-name="ecaron" unicode="&#x11b;" 
 />
    <glyph glyph-name="Gbreve" unicode="&#x11e;" 
 />
    <glyph glyph-name="gbreve" unicode="&#x11f;" 
 />
    <glyph glyph-name="Idot" unicode="&#x130;" 
 />
    <glyph glyph-name="dotlessi" unicode="&#x131;" 
d="M87 0v488h40h94v-488h-40h-94v0v0z" />
    <glyph glyph-name="Lacute" unicode="&#x139;" 
 />
    <glyph glyph-name="lacute" unicode="&#x13a;" 
 />
    <glyph glyph-name="Lcaron" unicode="&#x13d;" 
 />
    <glyph glyph-name="lcaron" unicode="&#x13e;" 
 />
    <glyph glyph-name="Ldot" unicode="&#x13f;" 
 />
    <glyph glyph-name="ldot" unicode="&#x140;" 
 />
    <glyph glyph-name="Lslash" unicode="&#x141;" horiz-adv-x="540" 
 />
    <glyph glyph-name="lslash" unicode="&#x142;" horiz-adv-x="540" 
 />
    <glyph glyph-name="Nacute" unicode="&#x143;" 
 />
    <glyph glyph-name="nacute" unicode="&#x144;" 
 />
    <glyph glyph-name="Ncaron" unicode="&#x147;" 
 />
    <glyph glyph-name="ncaron" unicode="&#x148;" 
 />
    <glyph glyph-name="Odblacute" unicode="&#x150;" 
 />
    <glyph glyph-name="odblacute" unicode="&#x151;" 
 />
    <glyph glyph-name="OE" unicode="&#x152;" horiz-adv-x="1040" 
d="M-8 346q5 82 32.5 147.5t79.5 114.5q53 50 113.5 74.5t128.5 24.5l40 1q50 -1 94.5 -15t83.5 -41q29 -21 50.5 -43.5t37.5 -47.5q2 3 3.5 5t3.5 5q4 5 8.5 10t9.5 10q16 18 37.5 34.5t49.5 31.5q27 15 63 23.5t79 10.5l78 2h40v-87q-2 -2 -4.5 -2h-4.5h-4.5h-4.5
q-61 0 -110 -15t-86 -47q-37 -31 -58.5 -66.5t-26.5 -75.5l259 2h40v-87h-307q0 -5 0.5 -9.5t1.5 -9.5q0 -2 0.5 -4t1.5 -4q0 -3 0.5 -5t1.5 -4q9 -36 30 -69.5t54 -63.5q31 -28 63.5 -43.5t68.5 -17.5l45 2h40v-87h-40h-71h-4h-4h-4h-4q-41 0 -74.5 6.5t-59.5 20.5
q-25 14 -45.5 29.5t-35.5 32.5q-4 5 -8 9.5t-8 9.5t-7 9.5t-6 9.5q-3 -4 -5.5 -8.5t-5.5 -8.5q-3 -5 -6.5 -9.5t-6.5 -8.5q-16 -21 -39 -39.5t-52 -35.5q-30 -16 -67.5 -24.5t-84.5 -8.5h-40h-6h-6q-67 0 -120.5 18t-93.5 57q-40 38 -67 81t-42 90q-5 14 -8 28.5t-5 29.5
q-2 14 -3 28.5t-1 27.5l-2 2v0zM583 346v5v6q0 49 -18 93.5t-55 83.5q-33 35 -70.5 54.5t-78.5 22.5q-46 -4 -85 -24t-71 -56q-33 -37 -50.5 -84t-20.5 -103v-5v-6q-1 -58 18 -104.5t58 -84.5q34 -33 70 -51t76 -23q47 5 84 21.5t65 46.5q30 32 48.5 67.5t25.5 73.5
q2 6 2.5 12t1.5 12v6t1 6v6v6v5v5l-1 4v4v1v0z" />
    <glyph glyph-name="oe" unicode="&#x153;" horiz-adv-x="985" 
d="M8 236q0 10 1 22t4 25q2 14 6 28t10 29q11 29 30 55.5t45 50.5t63 36t85 12l40 1q35 -1 62.5 -6t49.5 -16q21 -10 38 -22t30 -24l2.5 -2.5l2.5 -2.5q2 -3 4 -5.5t4 -4.5l4 4l4 4q12 14 28.5 26.5t36.5 24.5q20 11 45 17t55 7l40 1h4h6l4 -1h5q41 -1 75.5 -11.5
t61.5 -31.5t46 -44t31 -48q3 -7 5.5 -14t4.5 -14t3 -14t2 -13l-331 -140h-40l-32 71l244 118q-7 8 -14.5 15t-14.5 12q-8 6 -15 10t-15 6q-10 3 -20.5 5.5t-20.5 3.5q-28 -3 -49.5 -12t-35.5 -25q-17 -19 -28 -39t-16 -43q-1 -7 -2.5 -14t-2.5 -14t-1 -13v-12v-4.5v-4.5v-2
t1 -2v-3v-2q3 -28 16.5 -53t37.5 -48q20 -19 44 -30.5t52 -14.5q17 2 32.5 9t28.5 19q17 15 29 31t20 34q2 4 3 7.5t3 7.5q1 3 2 6.5t2 7.5q2 7 3 13.5t1 12.5l40 1l94 -30q-1 -4 -1.5 -6.5t-0.5 -4.5q-1 -2 -1.5 -4.5t-1.5 -4.5t-1.5 -4t-1.5 -4q-1 -3 -1.5 -5t-1.5 -4
q-12 -32 -32.5 -61.5t-49.5 -55.5q-28 -26 -66 -38.5t-85 -12.5h-40q-28 0 -51.5 5t-43.5 12q-19 9 -35.5 19.5t-29.5 22.5q-7 6 -13.5 12t-11.5 12q-12 -13 -26.5 -26t-31.5 -24q-25 -16 -56.5 -24.5t-69.5 -8.5h-40q-55 0 -100 16t-78 49t-53 70t-26 77q-1 5 -1.5 9.5
t-0.5 9.5q0 2 -0.5 4.5t-0.5 5.5v4.5v4.5v2v0zM425 244q-3 32 -15.5 61t-33.5 53q-19 20 -40 32.5t-46 16.5q-1 -1 -3 -1h-4t-4 -0.5t-4 -0.5q-3 -1 -5 -1.5t-4 -0.5q-23 -7 -44 -20.5t-41 -34.5q-19 -21 -29 -47.5t-10 -58.5q0 -33 8.5 -60t24.5 -47q17 -20 35 -33.5
t38 -21.5q7 -3 13.5 -5t13.5 -4q2 0 3.5 -0.5t2.5 -0.5q2 0 3.5 -0.5t2.5 -0.5q25 2 44.5 10t33.5 22q17 17 29 35.5t19 37.5q3 9 5.5 18t3.5 18q2 9 2.5 17t0.5 15v2v0z" />
    <glyph glyph-name="Racute" unicode="&#x154;" 
 />
    <glyph glyph-name="racute" unicode="&#x155;" 
 />
    <glyph glyph-name="Rcaron" unicode="&#x158;" 
 />
    <glyph glyph-name="rcaron" unicode="&#x159;" 
 />
    <glyph glyph-name="Sacute" unicode="&#x15a;" 
 />
    <glyph glyph-name="sacute" unicode="&#x15b;" 
 />
    <glyph glyph-name="Scedilla" unicode="&#x15e;" 
 />
    <glyph glyph-name="scedilla" unicode="&#x15f;" 
 />
    <glyph glyph-name="Scaron" unicode="&#x160;" horiz-adv-x="540" 
 />
    <glyph glyph-name="scaron" unicode="&#x161;" horiz-adv-x="540" 
 />
    <glyph glyph-name="Tcedilla" unicode="&#x162;" 
 />
    <glyph glyph-name="tcedilla" unicode="&#x163;" 
 />
    <glyph glyph-name="Tcaron" unicode="&#x164;" 
 />
    <glyph glyph-name="tcaron" unicode="&#x165;" 
 />
    <glyph glyph-name="Uring" unicode="&#x16e;" 
 />
    <glyph glyph-name="uring" unicode="&#x16f;" 
 />
    <glyph glyph-name="udblacute" unicode="&#x170;" 
 />
    <glyph glyph-name="Udblacute" unicode="&#x171;" 
 />
    <glyph glyph-name="Ydieresis" unicode="&#x178;" horiz-adv-x="540" 
 />
    <glyph glyph-name="Zacute" unicode="&#x179;" 
 />
    <glyph glyph-name="zacute" unicode="&#x17a;" 
 />
    <glyph glyph-name="Zdot" unicode="&#x17b;" 
 />
    <glyph glyph-name="zdot" unicode="&#x17c;" 
 />
    <glyph glyph-name="Zcaron" unicode="&#x17d;" 
 />
    <glyph glyph-name="zcaron" unicode="&#x17e;" 
 />
    <glyph glyph-name="florin" unicode="&#x192;" horiz-adv-x="190" 
d="M111 701h79v-701h-40h-79v701h40v0v0z" />
    <glyph glyph-name="hungarumlaut" unicode="&#x2ba;" horiz-adv-x="540" 
 />
    <glyph glyph-name="tilde" unicode="&#x2c6;" 
d="M-39 535q2 3 3.5 7.5l3.5 10.5q1 5 2.5 10.5t3.5 11.5q5 13 13 25t17 22q11 11 28 16.5t39 5.5l40 1q15 -1 27 -2.5t22 -4.5q9 -3 17.5 -6.5t15.5 -7.5q2 -1 3 -2t3 -1q1 -1 2.5 -2t2.5 -2l3 -1.5l3 -1.5q1 -1 2.5 -1.5t2.5 -0.5l5 -2.5t6 -2.5q5 2 9 4t6 5q5 6 7.5 13
t3.5 14v4v4v4v4l47 2h40v-3.5t1 -2.5v-2v-2v-2v-1v-2v-2q0 -23 -7.5 -42t-21.5 -33t-30.5 -21t-35.5 -7l-40 1q-13 -1 -25 0.5t-23 4.5q-10 3 -20 6.5t-18 7.5q-9 4 -16.5 7.5t-14.5 6.5q-1 1 -2.5 1.5t-3.5 0.5q-4 -1 -8 -4t-7 -7q-6 -7 -8.5 -15.5t-2.5 -17.5l-40 1l-55 1
v0v0z" />
    <glyph glyph-name="caron" unicode="&#x2c7;" horiz-adv-x="540" 
 />
    <glyph glyph-name="macron" unicode="&#x2c9;" horiz-adv-x="540" 
 />
    <glyph glyph-name="breve" unicode="&#x2d8;" 
d="M71 685q6 -25 15.5 -41t22.5 -24q10 -6 22 -9.5t28 -5.5q14 2 26 6.5t21 11.5q12 9 19.5 24t10.5 36l55 2h40q0 -31 -8 -53.5t-25 -38.5q-16 -16 -34.5 -27t-38.5 -17q-7 -2 -13.5 -3.5t-12.5 -2.5q-7 -1 -13 -1.5t-12 -0.5l-40 1q-47 2 -77.5 13.5t-44.5 32.5
q-12 21 -19 44.5t-7 50.5l45 2h40v0v0z" />
    <glyph glyph-name="dotaccent" unicode="&#x2d9;" horiz-adv-x="540" 
 />
    <glyph glyph-name="ring" unicode="&#x2da;" 
d="M39 622q0 24 8 43t24 32q17 13 35 19.5t37 7.5l40 1q19 -1 36 -7.5t33 -19.5t24 -32.5t8 -45.5q0 -25 -8 -43t-23 -30t-32 -18.5t-36 -6.5l-40 1q-20 -1 -38 5t-35 19q-16 12 -24.5 30.5t-8.5 42.5v2v0zM197 622v2v3q0 10 -3.5 19t-11.5 15q-1 1 -2.5 2t-3.5 2
q-3 1 -5.5 2.5t-6.5 2.5q-4 -1 -9.5 -4t-10.5 -7q-9 -7 -13 -16.5t-4 -22.5t4 -22.5t13 -16.5q5 -4 10 -6.5t10 -4.5q5 2 8.5 3.5t7.5 4.5q8 6 12.5 14.5t4.5 20.5v3v2v1v2v1v0z" />
    <glyph glyph-name="ogonek" unicode="&#x2db;" horiz-adv-x="540" 
 />
    <glyph glyph-name="circumflex" unicode="&#x2dc;" 
d="M-16 535l103 150h40h94l102 -150h-40h-86l-43 65l-43 -65h-40h-87v0v0z" />
    <glyph glyph-name="Gamma" unicode="&#x393;" 
 />
    <glyph glyph-name="Theta" unicode="&#x398;" 
 />
    <glyph glyph-name="summation" unicode="&#x3a3;" 
 />
    <glyph glyph-name="Phi" unicode="&#x3a6;" 
 />
    <glyph glyph-name="Omega" unicode="&#x3a9;" 
 />
    <glyph glyph-name="alpha" unicode="&#x3b1;" 
 />
    <glyph glyph-name="delta" unicode="&#x3b4;" 
 />
    <glyph glyph-name="epsilon" unicode="&#x3b5;" 
 />
    <glyph glyph-name="pi" unicode="&#x3c0;" 
 />
    <glyph glyph-name="sigma" unicode="&#x3c3;" 
 />
    <glyph glyph-name="tau" unicode="&#x3c4;" 
 />
    <glyph glyph-name="phi" unicode="&#x3c6;" 
 />
    <glyph glyph-name="glyph276" unicode="&#x2013;" horiz-adv-x="544" 
d="M0 205v71h40h504v-71h-40h-504v0v0z" />
    <glyph glyph-name="emdash" unicode="&#x2014;" horiz-adv-x="1040" 
d="M32 268h1000v-63h-40h-1000v63h40v0v0z" />
    <glyph glyph-name="underscoredbl" unicode="&#x2017;" 
 />
    <glyph glyph-name="quoteleft" unicode="&#x2018;" horiz-adv-x="260" 
d="M87 488l-48 205h40h95l31 -205h-40h-78v0v0z" />
    <glyph glyph-name="quoteright" unicode="&#x2019;" horiz-adv-x="260" 
d="M55 496l32 205h40h86l-47 -205h-40h-71v0v0z" />
    <glyph glyph-name="quotesinglbase" unicode="&#x201a;" 
 />
    <glyph glyph-name="quotedblleft" unicode="&#x201c;" horiz-adv-x="426" 
d="M87 504l-48 205h40h95l31 -205h-40h-78v0v0zM268 504l-48 205h40h95l31 -205h-40h-78v0v0z" />
    <glyph glyph-name="quotedblright" unicode="&#x201d;" horiz-adv-x="426" 
d="M39 504l32 205h40h86l-47 -205h-40h-71v0v0zM228 504l32 205h40h86l-47 -205h-40h-71v0v0z" />
    <glyph glyph-name="quotedblbase" unicode="&#x201e;" horiz-adv-x="426" 
d="M39 -102l32 204h40h86l-47 -204h-40h-71v0v0zM228 -102l32 204h40h86l-47 -204h-40h-71v0v0z" />
    <glyph glyph-name="dagger" unicode="&#x2020;" horiz-adv-x="544" 
d="M103 512l124 -18l-22 191h40h94l-22 -191l124 18h40v-95h-40l-123 24l29 -158q-4 -20 -7.5 -43.5t-6.5 -49.5t-5 -53t-4 -55q-2 -34 -3.5 -65t-2.5 -62q-1 -30 -1.5 -54.5t-0.5 -42.5h-40h-40q0 19 -0.5 40t-1.5 44q0 12 -0.5 24t-1.5 23q0 11 -0.5 23t-1.5 24
q-2 35 -4.5 68.5t-5.5 65.5t-6 56.5t-6 41.5q0 1 -0.5 2t-0.5 2q-1 0 -1 1v2l-1 7l22 159l-124 -24h-40v95h40v0v0z" />
    <glyph glyph-name="daggerdbl" unicode="&#x2021;" horiz-adv-x="544" 
d="M55 433v102h40l132 -30l-30 204h40h110l-37 -204l131 30h40v-102h-40l-132 24l30 -174l-29 -163l123 30h40v-111h-40l-124 24l22 -197h-40h-102l30 199l-124 -18h-40v103h40l124 -30l-22 163l30 174l-132 -24h-40v0v0z" />
    <glyph glyph-name="glyph287" unicode="&#x2022;" horiz-adv-x="544" 
d="M79 244q0 13 4.5 24t13.5 19t19 12t21 5l40 1h1h2q11 -1 20.5 -4.5t18.5 -11.5q9 -7 13.5 -19t4.5 -28t-4.5 -28.5t-13.5 -20.5t-19 -12t-21 -4l-40 1q-11 -2 -21.5 2t-19.5 12q-10 8 -14.5 21t-4.5 29v2v0z" />
    <glyph glyph-name="ellipsis" unicode="&#x2026;" horiz-adv-x="1040" 
d="M110 47q0 13 4.5 24t13.5 19t19 12t21 5l40 1h1h2q11 -1 20.5 -4.5t18.5 -11.5q9 -7 13.5 -19t4.5 -28t-4.5 -28t-13.5 -18q-9 -8 -19 -12t-21 -4h-40q-11 0 -21.5 3.5t-19.5 11.5q-10 7 -14.5 19t-4.5 28v2v0zM449 47q0 13 4.5 24t13.5 19t19 12t21 5l40 1h1h2
q11 -1 20.5 -4.5t18.5 -11.5q9 -7 13.5 -19t4.5 -28t-4.5 -28t-13.5 -18q-9 -8 -19 -12t-21 -4h-40q-11 0 -21.5 3.5t-19.5 11.5q-10 7 -14.5 19t-4.5 28v2v0zM780 47q0 13 4.5 24t13.5 19t19 12t21 5l40 1h1h2q11 -1 20.5 -4.5t18.5 -11.5q9 -7 13.5 -19t4.5 -28t-4.5 -28
t-13.5 -18q-9 -8 -19 -12t-21 -4h-40q-11 0 -21.5 3.5t-19.5 11.5q-10 7 -14.5 19t-4.5 28v2v0z" />
    <glyph glyph-name="perthousand" unicode="&#x2030;" horiz-adv-x="1040" 
d="M31 -8l441 732h40h71l-441 -732h-40h-71v0v0zM346 157q0 34 10 63t31 53q20 24 49.5 36t67.5 12l40 1q32 -1 56.5 -9.5t41.5 -25.5q17 -16 29.5 -34.5t19.5 -38.5l2 -8t2 -7q1 -4 1.5 -8t1.5 -8q2 -7 2.5 -14.5t0.5 -13.5q0 -38 -12.5 -68t-36.5 -52q-25 -22 -52 -32.5
t-56 -10.5h-40q-32 0 -57 8t-42 24q-18 17 -30 35t-19 38q-3 8 -4.5 15.5t-3.5 14.5q-1 8 -1.5 14.5t-0.5 13.5v2v0zM465 157q0 -20 4 -33.5t13 -21.5q8 -9 17.5 -14.5t19.5 -7.5q1 -1 1.5 -1h1.5q12 2 21.5 5.5t17.5 10.5q11 9 16.5 24t5.5 36t-5.5 37t-16.5 27
q-7 8 -16.5 13t-20.5 8q-11 -2 -20 -7.5t-15 -13.5q-10 -11 -15.5 -23t-7.5 -25v-2v-2q-1 -1 -1 -2v-2v-3.5v-3.5v1zM693 157q0 4 0.5 10t1.5 13q2 6 4 13t5 14q8 20 21.5 38.5t33.5 34.5q20 17 47 25t60 8l40 1q32 -1 61 -12t54 -33t37.5 -52.5t12.5 -68.5q0 -7 -1 -14.5
t-3 -15.5q-1 -8 -4 -16.5t-7 -16.5q-8 -18 -21 -34.5t-30 -30.5q-18 -15 -41.5 -21.5t-52.5 -6.5h-40h-3h-3h-4h-3q-5 0 -10.5 0.5t-11.5 1.5t-11.5 1.5t-10.5 2.5q-22 4 -43 16t-40 31q-19 20 -28.5 47t-9.5 63v2v0zM953 157q0 16 -6.5 30.5t-19.5 24.5q-10 8 -20.5 13
t-21.5 7q-13 -2 -22.5 -7t-16.5 -13q-10 -10 -16 -22t-8 -25q-1 -2 -1.5 -4.5t-0.5 -4.5v-4v-4q0 -15 5.5 -29t16.5 -26q8 -9 19.5 -15t25.5 -8q15 2 25.5 7.5t17.5 12.5q9 11 14.5 23t7.5 25v4v4v2t1 3v2v2v2v0zM-87 551q2 37 13 67t33 52q22 23 51.5 34t68.5 11l40 1
q35 -1 63.5 -11.5t50.5 -30.5q21 -20 32 -49.5t11 -67.5t-11.5 -68t-34.5 -53q-23 -22 -51 -33t-60 -11l-40 1q-3 -1 -5.5 -1h-4.5h-2.5t-2.5 1h-3h-2q-28 3 -52.5 13.5t-46.5 29.5q-23 18 -34 46.5t-11 66.5l-2 2v0zM40 559q0 -21 5.5 -36.5t17.5 -26.5q10 -8 20.5 -14
t20.5 -8q8 2 15.5 6t14.5 10q11 9 17 24t6 34v5v5q0 19 -6 34t-18 25q-8 6 -16.5 10.5t-17.5 6.5q-9 -2 -18 -7t-17 -12q-12 -10 -18 -24.5t-6 -32.5v1z" />
    <glyph glyph-name="guilsinglleft" unicode="&#x2039;" horiz-adv-x="371" 
d="M63 244l126 150h40h79l-126 -150l134 -157h-40h-87l-126 157v0v0z" />
    <glyph glyph-name="guilsinglright" unicode="&#x203a;" horiz-adv-x="371" 
d="M189 236l-126 158h40h79l126 -158l-134 -149h-40h-79l134 149v0v0z" />
    <glyph glyph-name="exclamdbl" unicode="&#x203c;" 
 />
    <glyph glyph-name="nsuperior" unicode="&#x207f;" 
 />
    <glyph glyph-name="franc" unicode="&#x20a3;" 
 />
    <glyph glyph-name="peseta" unicode="&#x20a7;" 
 />
    <glyph glyph-name="trademark" unicode="&#x2122;" horiz-adv-x="1032" 
d="M173 291v347h-126v63h40h339v-63h-126v-347h-40h-87v0v0zM465 291v410h40h126l90 -232l90 232h40h126v-410h-40h-87v220l-86 -220h-40h-55l-78 214v-214h-40h-86v0v0z" />
    <glyph glyph-name="arrowleft" unicode="&#x2190;" 
 />
    <glyph glyph-name="arrowup" unicode="&#x2191;" 
 />
    <glyph glyph-name="arrowright" unicode="&#x2192;" horiz-adv-x="540" 
 />
    <glyph glyph-name="arrowdown" unicode="&#x2193;" 
 />
    <glyph glyph-name="arrowboth" unicode="&#x2194;" 
 />
    <glyph glyph-name="arrowupdn" unicode="&#x2195;" 
 />
    <glyph glyph-name="arrowupdnbase" unicode="&#x21a8;" 
 />
    <glyph glyph-name="partialdiff" unicode="&#x2202;" 
 />
    <glyph glyph-name="Delta" unicode="&#x2206;" 
 />
    <glyph glyph-name="product" unicode="&#x220f;" 
 />
    <glyph glyph-name="minus" unicode="&#x2212;" 
 />
    <glyph glyph-name="fraction" unicode="&#x2215;" horiz-adv-x="540" 
 />
    <glyph glyph-name="periodcentered" unicode="&#x2219;" 
d="M71 339q0 5 0.5 12.5t1.5 15.5q2 8 3.5 16t4.5 17q6 22 19 42t32 39q20 18 47.5 27.5t64.5 9.5l40 1q44 -1 78 -14t57 -39q23 -25 34.5 -56t11.5 -66v-6t-1 -5q0 -3 -0.5 -6t-0.5 -6t-0.5 -6t-1.5 -6q0 -4 -0.5 -7t-1.5 -6q-7 -25 -21 -48t-34 -44q-21 -21 -49 -31
t-63 -10l-40 1q-33 -1 -59 6t-45 22q-19 14 -32.5 30t-22.5 34q-7 12 -11.5 23.5t-6.5 22.5t-3 20t-1 15v2v0z" />
    <glyph glyph-name="radical" unicode="&#x221a;" 
 />
    <glyph glyph-name="infinity" unicode="&#x221e;" 
 />
    <glyph glyph-name="orthogonal" unicode="&#x221f;" 
 />
    <glyph glyph-name="intersection" unicode="&#x2229;" 
 />
    <glyph glyph-name="integral" unicode="&#x222b;" 
 />
    <glyph glyph-name="approxequal" unicode="&#x2248;" 
 />
    <glyph glyph-name="notequal" unicode="&#x2260;" 
 />
    <glyph glyph-name="equivalence" unicode="&#x2261;" 
 />
    <glyph glyph-name="lessequal" unicode="&#x2264;" 
 />
    <glyph glyph-name="greaterequal" unicode="&#x2265;" 
 />
    <glyph glyph-name="house" unicode="&#x2302;" 
 />
    <glyph glyph-name="revlogicalnot" unicode="&#x2310;" 
 />
    <glyph glyph-name="integraltp" unicode="&#x2320;" 
 />
    <glyph glyph-name="integralbt" unicode="&#x2321;" 
 />
    <glyph glyph-name="2500" unicode="&#x2500;" 
 />
    <glyph glyph-name="2502" unicode="&#x2502;" 
 />
    <glyph glyph-name="250c" unicode="&#x250c;" 
 />
    <glyph glyph-name="2510" unicode="&#x2510;" 
 />
    <glyph glyph-name="2514" unicode="&#x2514;" 
 />
    <glyph glyph-name="2518" unicode="&#x2518;" 
 />
    <glyph glyph-name="251c" unicode="&#x251c;" 
 />
    <glyph glyph-name="2524" unicode="&#x2524;" 
 />
    <glyph glyph-name="252c" unicode="&#x252c;" 
 />
    <glyph glyph-name="2534" unicode="&#x2534;" 
 />
    <glyph glyph-name="253c" unicode="&#x253c;" 
 />
    <glyph glyph-name="2550" unicode="&#x2550;" 
 />
    <glyph glyph-name="2551" unicode="&#x2551;" 
 />
    <glyph glyph-name="2552" unicode="&#x2552;" 
 />
    <glyph glyph-name="2553" unicode="&#x2553;" 
 />
    <glyph glyph-name="2554" unicode="&#x2554;" 
 />
    <glyph glyph-name="2555" unicode="&#x2555;" 
 />
    <glyph glyph-name="2556" unicode="&#x2556;" 
 />
    <glyph glyph-name="2557" unicode="&#x2557;" 
 />
    <glyph glyph-name="2558" unicode="&#x2558;" 
 />
    <glyph glyph-name="2559" unicode="&#x2559;" 
 />
    <glyph glyph-name="255a" unicode="&#x255a;" 
 />
    <glyph glyph-name="255b" unicode="&#x255b;" 
 />
    <glyph glyph-name="255c" unicode="&#x255c;" 
 />
    <glyph glyph-name="255d" unicode="&#x255d;" 
 />
    <glyph glyph-name="255e" unicode="&#x255e;" 
 />
    <glyph glyph-name="255f" unicode="&#x255f;" 
 />
    <glyph glyph-name="2560" unicode="&#x2560;" 
 />
    <glyph glyph-name="2561" unicode="&#x2561;" 
 />
    <glyph glyph-name="2562" unicode="&#x2562;" 
 />
    <glyph glyph-name="2563" unicode="&#x2563;" 
 />
    <glyph glyph-name="2564" unicode="&#x2564;" 
 />
    <glyph glyph-name="2565" unicode="&#x2565;" 
 />
    <glyph glyph-name="2566" unicode="&#x2566;" 
 />
    <glyph glyph-name="2567" unicode="&#x2567;" 
 />
    <glyph glyph-name="2568" unicode="&#x2568;" 
 />
    <glyph glyph-name="2569" unicode="&#x2569;" 
 />
    <glyph glyph-name="256a" unicode="&#x256a;" 
 />
    <glyph glyph-name="256b" unicode="&#x256b;" 
 />
    <glyph glyph-name="256c" unicode="&#x256c;" 
 />
    <glyph glyph-name="upblock" unicode="&#x2580;" 
 />
    <glyph glyph-name="dnblock" unicode="&#x2584;" 
 />
    <glyph glyph-name="block" unicode="&#x2588;" 
 />
    <glyph glyph-name="lfblock" unicode="&#x258c;" 
 />
    <glyph glyph-name="rtblock" unicode="&#x2590;" 
 />
    <glyph glyph-name="ltshade" unicode="&#x2591;" 
 />
    <glyph glyph-name="shade" unicode="&#x2592;" 
 />
    <glyph glyph-name="dkshade" unicode="&#x2593;" 
 />
    <glyph glyph-name="filledbox" unicode="&#x25a0;" horiz-adv-x="540" 
 />
    <glyph glyph-name="filledrect" unicode="&#x25ac;" 
 />
    <glyph glyph-name="triagup" unicode="&#x25b2;" 
 />
    <glyph glyph-name="triagrt" unicode="&#x25ba;" 
 />
    <glyph glyph-name="triagdn" unicode="&#x25bc;" 
 />
    <glyph glyph-name="triaglf" unicode="&#x25c4;" 
 />
    <glyph glyph-name="lozenge" unicode="&#x25ca;" 
 />
    <glyph glyph-name="circle" unicode="&#x25cb;" 
 />
    <glyph glyph-name="invbullet" unicode="&#x25d8;" 
 />
    <glyph glyph-name="invcircle" unicode="&#x25d9;" 
 />
    <glyph glyph-name="smileface" unicode="&#x263a;" 
 />
    <glyph glyph-name="invsmileface" unicode="&#x263b;" 
 />
    <glyph glyph-name="sun" unicode="&#x263c;" 
 />
    <glyph glyph-name="female" unicode="&#x2640;" 
 />
    <glyph glyph-name="male" unicode="&#x2642;" 
 />
    <glyph glyph-name="spade" unicode="&#x2660;" 
 />
    <glyph glyph-name="club" unicode="&#x2663;" 
 />
    <glyph glyph-name="heart" unicode="&#x2665;" 
 />
    <glyph glyph-name="diamond" unicode="&#x2666;" 
 />
    <glyph glyph-name="musicalnote" unicode="&#x266a;" 
 />
    <glyph glyph-name="musicalnotedbl" unicode="&#x266b;" 
 />
    <glyph glyph-name="apple" unicode="&#xf000;" 
 />
    <glyph glyph-name="fi" unicode="&#xf001;" horiz-adv-x="544" 
d="M55 0v520q0 36 7.5 63.5t22.5 45.5t32 30.5t36 19.5q5 2 9 3t9 2q4 1 8.5 2t8.5 2q9 2 17 2.5t15 0.5l79 2h40v-87h-63q-30 -2 -49.5 -9.5t-27.5 -22.5t-12.5 -31t-4.5 -34v-7.5v-6.5v-7v-6v-5v-6l101 1h40v-86h-141v-386h-40h-87v0v0zM346 8v480h40h87v-480h-40h-87v0v0
zM339 598q0 11 4 20.5t13 16.5q8 7 17.5 10.5t19.5 3.5l40 1q11 -1 20 -4t18 -10t13.5 -16.5t4.5 -23.5q0 -13 -4.5 -23t-12.5 -16q-9 -7 -18 -10t-19 -3l-40 1q-10 -2 -20 1t-19 10t-13 17t-4 23v2v0z" />
    <glyph glyph-name="fl" unicode="&#xf002;" horiz-adv-x="544" 
d="M55 0v520q0 36 7.5 63.5t22.5 45.5t32 30.5t36 19.5q5 2 9 3t9 2q4 1 8.5 2t8.5 2q9 2 17 2.5t15 0.5l79 2h40v-87h-63q-30 -2 -49.5 -9.5t-27.5 -22.5t-12.5 -31t-4.5 -34v-7.5v-6.5v-7v-6v-5v-6l101 1h40v-86h-141v-386h-40h-87v0v0zM386 701h95v-701h-40h-95v701h40v0
v0z" />
    <glyph glyph-name="degree" 
d="M39 622q0 24 8 43t24 32q17 13 35 19.5t37 7.5l40 1q19 -1 36 -7.5t33 -19.5t24 -32.5t8 -45.5q0 -25 -8 -43t-23 -30t-32 -18.5t-36 -6.5l-40 1q-20 -1 -38 5t-35 19q-16 12 -24.5 30.5t-8.5 42.5v2v0zM197 622v2v3q0 10 -3.5 19t-11.5 15q-1 1 -2.5 2t-3.5 2
q-3 1 -5.5 2.5t-6.5 2.5q-4 -1 -9.5 -4t-10.5 -7q-9 -7 -13 -16.5t-4 -22.5t4 -22.5t13 -16.5q5 -4 10 -6.5t10 -4.5q5 2 8.5 3.5t7.5 4.5q8 6 12.5 14.5t4.5 20.5v3v2v1v2v1v0z" />
    <glyph glyph-name="bullet" horiz-adv-x="544" 
d="M79 244q0 13 4.5 24t13.5 19t19 12t21 5l40 1h1h2q11 -1 20.5 -4.5t18.5 -11.5q9 -7 13.5 -19t4.5 -28t-4.5 -28.5t-13.5 -20.5t-19 -12t-21 -4l-40 1q-11 -2 -21.5 2t-19.5 12q-10 8 -14.5 21t-4.5 29v2v0z" />
    <glyph glyph-name="endash" horiz-adv-x="544" 
d="M0 205v71h40h504v-71h-40h-504v0v0z" />
  </font>
</defs>
</svg>
