<?xml version="1.0" standalone="no"?>
<!DOCTYPE svg PUBLIC "-//W3C//DTD SVG 1.1//EN" "http://www.w3.org/Graphics/SVG/1.1/DTD/svg11.dtd" >
<svg xmlns="http://www.w3.org/2000/svg" xmlns:xlink="http://www.w3.org/1999/xlink" version="1.1">
<metadata>
Created by FontForge 20170731 at Sun Jan 17 23:41:43 2021
 By Aleksey,,,
Copyright 2003 Baseline Fonts * Designed by Nathan Williams
</metadata>
<defs>
<font id="GritPrimer" horiz-adv-x="1024" >
  <font-face 
    font-family="Grit Primer"
    font-weight="400"
    font-stretch="normal"
    units-per-em="2048"
    panose-1="2 0 5 6 6 0 0 2 0 3"
    ascent="1638"
    descent="-410"
    x-height="633"
    cap-height="1024"
    bbox="-119 -461 1843 1862"
    underline-thickness="73"
    underline-position="-605"
    unicode-range="U+000D-FB02"
  />
<missing-glyph 
d="M127 0v1489h770v-1489h-770zM256 127h512v1235h-512v-1235z" />
    <glyph glyph-name=".notdef" 
d="M127 0v1489h770v-1489h-770zM256 127h512v1235h-512v-1235z" />
    <glyph glyph-name=".null" horiz-adv-x="0" 
 />
    <glyph glyph-name=".null" horiz-adv-x="0" 
 />
    <glyph glyph-name="nonmarkingreturn" horiz-adv-x="682" 
 />
    <glyph glyph-name="CR" unicode="&#xd;" horiz-adv-x="405" 
 />
    <glyph glyph-name="space" unicode=" " horiz-adv-x="491" 
 />
    <glyph glyph-name="exclam" unicode="!" horiz-adv-x="268" 
d="M211 911q-7 26 -59 90h-41q-21 -13 -58 -63q-6 -42 -6 -51q0 -44 14 -90l12 -40t8.5 -28t2.5 -10l-4 -55q2 -19 9 -71.5t11 -84.5l2 -21v-86q0 -60 11 -82l8 -18q14 0 26 4q7 16 7 78v68q0 51 4 67q6 23 14.5 124.5t15.5 131.5l5 12q22 55 22 93q0 22 -4 32zM102 123
q-4 -4 -51 -33v-12q0 -46 20.5 -80.5t53.5 -34.5q31 0 52.5 19t21.5 49q0 43 -37 88z" />
    <glyph glyph-name="quotedbl" unicode="&#x22;" horiz-adv-x="581" 
d="M317 770v-6q11 -33 19 -45q58 3 111 73.5t53 145.5q0 21 -8 49q-10 18 -37 55q-26 7 -78 13q-13 -11 -60 -39q0 -57 27 -84q41 -71 41 -72q-68 -62 -68 -90zM57 770v-6q4 -22 19 -45q58 3 111 73.5t53 145.5q0 18 -9 49q-9 18 -36 55q-26 7 -78 13q-5 -4 -60 -39
q0 -56 25 -84q36 -55 41 -72q-66 -60 -66 -90z" />
    <glyph glyph-name="numbersign" unicode="#" horiz-adv-x="1198" 
d="M713 874q10 5 35 27h28l12 -18q7 -7 7 -19q0 -13 -19 -100q-9 -48 -28 -105l-13 -49q15 -2 49 -6l33 6q1 0 7 2t10 2q17 0 65 -10q27 0 127 14q23 -4 68 -14q6 -12 10 -16q0 -23 -4 -37l-21 -8l-8 -6q-18 -9 -31 -9q-24 0 -84 13l-49 -4q-27 6 -82 6l-53 -2l-55 2
q-23 -100 -23 -144q0 -21 -10 -63h152l16 -4q92 10 227 10l25 -25v-34l-6 -4l-8 -7q-14 -7 -19 -12q-12 -4 -100 -4q-20 2 -46 3t-40.5 2t-22.5 3h-59q-23 4 -90 4h-47q-14 -85 -38 -160.5t-30 -121.5q-12 -79 -31 -119q-6 -4 -24 -4l-4 4h-9q-6 27 -6 41q6 8 10 37.5
t5 31.5q22 53 34 138q9 74 25 145q-27 4 -109 4h-63q-30 -136 -51 -278q-6 -79 -31 -119l-25 -8v10q-12 12 -12 35q0 9 8 41v6q0 10 5.5 32.5t5.5 26.5q0 53 18 105q16 31 16 45q0 -1 0.5 2.5t1.5 12.5t2.5 21t4.5 30.5t6 37.5q-54 0 -72 4q-2 4 -18 4q-19 0 -25 -4h-121
q-37 0 -65 8q-2 3 -4 12t-4 13l4 4q0 13 41 23q6 -4 14 -4q3 0 14 2t19 2h22q18 -4 68 -4l137 8l4 10q0 84 37 205l-74 -4q-13 0 -28.5 2t-20.5 2h-18q-12 0 -42.5 -2.5t-49.5 -3.5l-56 -4q-40 0 -63 10l-8 26h8q11 19 55 19h18q4 4 23 4l33 -4q4 0 7 2t5 2q46 8 64 8l40 -4
q14 -4 37 -4h6q5 2 16 3t31 2.5t35 2.5l-6 6v8q0 23 27 78q1 18 4.5 62t5.5 65l31 68q12 4 18 10q1 0 37 -8q0 -15 4 -19l2 -24q0 -26 -28 -102l-9 -48q-11 -25 -22 -94l39 -2q16 1 58 4.5t61 5.5q14 15 28 133t19 127zM494 551q-2 -3 -3.5 -7.5t-2.5 -7t-3 -4.5
q-2 -37 -43 -200q36 -8 78 -8h37q36 0 64 8q12 103 32 209q-3 0 -59.5 4t-99.5 6z" />
    <glyph glyph-name="dollar" unicode="$" horiz-adv-x="739" 
d="M59 272v-12q-8 -38 -18 -55v-31q0 -125 45 -151l156 -60q0 -8 -7.5 -53t-7.5 -60q0 -22 4 -31.5t23 -19.5q2 -4 10 -8q15 15 27 19q0 101 10 153q8 0 12 4q9 0 64 -22l-8 -95q0 -16 8 -32v-4q0 -10 10 -15q4 -4 12 -8q3 11 19 19l4 86q2 55 17 73.5t89 48.5q73 27 95 60
q39 55 47 78q18 46 18 86q0 85 -78 157q-1 1 -16.5 13t-49 37.5t-71.5 52.5q0 17 16.5 85.5t16.5 100.5v8q10 -1 19 -6t15 -10t13 -16t10 -16.5t10 -19.5l9 -18q38 6 47 41q12 18 12 45l-12 127q-2 5 -25 37q-74 29 -82 33q0 8 5 47.5t5 52.5q0 28 -10 45v17q-12 2 -26 2
q-15 0 -19 -2q-26 -12 -26 -58q0 -32 -4 -50.5t-7.5 -24.5t-15.5 -21l-6 -8l-39 27l8 81q0 24 -18 56q-20 0 -56 -23v-47q0 -55 -4 -63q-12 -27 -53 -45q-65 -27 -70 -27q-9 -7 -36 -45t-35 -43l-17 -100q0 -30 10.5 -68t24.5 -59q13 -22 76 -64q50 -41 63 -74q0 -1 2 -9.5
t2 -16.5q0 -12 -8 -94q-3 -53 -14 -119v-27q0 -28 -10.5 -38t-46.5 -13q-23 18 -70 68q-4 6 -13.5 64.5t-23.5 68.5v8q0 -2 -31 -19zM459 242q4 23 14 41q15 0 27 -10t27.5 -30t23.5 -28q0 -77 -45 -137q-4 -4 -10 -6q-28 0 -41 10q4 51 4 160zM385 791l2 2q8 0 55 -29
q-3 -124 -18 -150q0 -44 -25 -82q-5 0 -49 19q0 3 -2 15t-2 22l4 67q6 86 10 97q6 17 25 39zM332 350q1 1 6 8.5t12 14.5q15 0 27 -4l29 -19q0 -14 -7.5 -101.5t-7.5 -111.5q0 -35 8 -55q-3 -7 -30 -41q-24 0 -56 18q-4 18 -4 91v55q6 120 23 145zM264 623q-12 1 -22 9
t-14 14t-13 23t-10 19q1 16 7.5 29.5t11.5 20t18 19t18 17.5q2 -2 6.5 -3.5t12.5 -5.5t16 -9v-51q0 -14 -1 -23t-2.5 -13.5l-5.5 -16.5t-7 -23q-1 0 -3 -1t-5.5 -2.5t-6.5 -2.5z" />
    <glyph glyph-name="percent" unicode="%" horiz-adv-x="1347" 
d="M569 993q-44 35 -100 49h-14q-51 0 -150 -57q-189 -108 -237 -252v-78q-5 -39 -5 -67v-10q24 -77 86 -130t138 -53q37 0 86 19q63 23 141 123q54 73 86 170q0 14 16 100l2 12q1 3 4 12.5t7 19t8 17.5q37 0 100 2q65 0 82 21q38 -6 49 -41q-27 -39 -41 -109
q-12 -4 -20.5 -10.5t-15.5 -20t-10 -19.5t-9.5 -26.5t-7.5 -23.5q-1 -1 -31 -16v-19q-18 -25 -55 -65q0 -15 -10 -45l-68 -78q-3 -6 -164 -273l-30 -18l-56 -123q-4 -7 -15.5 -20.5t-17.5 -20.5q-75 -120 -116 -168q0 -13 1.5 -23t5.5 -18t6 -11.5t9 -11.5t8 -10q13 3 23 8
t19.5 17.5t12.5 16.5t13 23l10 19q56 84 74 117q18 62 20 68q7 2 33 28l8.5 17t13.5 28.5t15 32.5q15 28 67.5 106t59.5 89q5 34 86 145q2 5 10 45q8 15 21.5 33.5t36.5 48t37 47.5q88 118 96 131q9 14 37 59t42 67t37 56.5t43.5 60.5t40.5 48q-4 27 -28 55l-8 9
q-12 -1 -24.5 -6.5t-22 -11t-23.5 -17t-20 -17.5t-20 -20.5t-17 -17.5q-130 -95 -209 -95q-81 0 -133 58q0 8 -13 24zM578 774q-82 -313 -302 -313h-8q-25 28 -59 41q-8 40 -8 61q0 135 135 307q8 16 48 45.5t40 30.5h80l47 -37l22 -59q9 -36 9 -45q0 -7 -2 -17.5t-2 -13.5z
M1100 559h-13q-51 -11 -73 -18q-102 -50 -172 -140q-92 -102 -92 -223q0 -65 22 -110q16 -37 47 -68q15 -14 29.5 -25t22 -17t8.5 -7q2 -1 11.5 -4t24.5 -7t31 -8q27 -6 45 -6l23 2q75 12 147 90q57 57 94 146q41 96 41 186q0 103 -49.5 156t-146.5 53zM1087 31
q-13 -8 -59 -21t-55 -20q-35 0 -99 47q-2 14 -2 45q0 91 56 209q75 153 151 174q42 14 49 18q35 0 54 -14q39 -16 43 -23q16 -28 18 -47q17 -38 17 -67q0 -51 -64 -160q-64 -112 -109 -141z" />
    <glyph glyph-name="ampersand" unicode="&#x26;" horiz-adv-x="1038" 
d="M741 41l86 -41q51 -14 64 -14h6q8 4 90 55q7 24 14 31q-7 30 -14 47q-12 12 -22 12q-5 0 -33.5 -11t-44.5 -11h-8q-65 10 -105 55l-69 90q43 69 79 115.5t113 134.5q12 12 18 20q91 63 91 94q0 12 -23 19h-190q-18 0 -41 4q-21 0 -25 -18q0 -35 74 -80q0 -24 -6.5 -47.5
t-13.5 -39.5t-24 -38.5t-25 -31.5t-30.5 -33t-27.5 -29q-41 6 -103 88q-74 92 -98 106q2 16 53 53t62 52q13 16 22 65q13 29 13 57q0 77 -76 119q-42 17 -141 47q-95 -8 -152 -62t-57 -144q0 -102 63 -162q0 -51 -41 -66l-65 -37q-109 -95 -109 -209q0 -96 85.5 -168.5
t186.5 -72.5q136 0 265 141q6 -1 15 -1.5t12.5 -1.5t10 -3t12.5 -7t15 -14l27 -18l31 -31zM399 805q74 0 103 -57q4 -10 4 -33q0 -42 -19.5 -77.5t-44.5 -45.5q-31 0 -43 8q-23 8 -45 49t-22 78q0 8 2 15t5 12t10.5 11.5t12 10.5t17.5 13.5t20 15.5zM473 100
q-32 -14 -74 -14q-88 0 -157.5 54.5t-69.5 123.5q0 95 119 191q10 0 18 4h27q13 -13 57.5 -53.5t67.5 -63.5q90 -87 90 -147q0 -54 -78 -95z" />
    <glyph glyph-name="quotesingle" unicode="'" horiz-adv-x="286" 
d="M51 659v-8q5 -24 19 -45q59 3 112.5 74.5t53.5 146.5q0 23 -7 47q-11 19 -36 58l-80 10q-15 -11 -62 -37q3 -53 29 -86q30 -43 37 -71q-66 -60 -66 -89z" />
    <glyph glyph-name="parenleft" unicode="(" horiz-adv-x="542" 
d="M498 979q0 38 -17 49v14q-16 0 -41 5q-46 -29 -143 -119q-221 -303 -221 -600q0 -139 54.5 -265t184.5 -301q34 -25 101 -98q26 6 47 27q-3 36 -66 127q-76 97 -90 133q-55 149 -55 377q0 263 74 428q27 62 172 223z" />
    <glyph glyph-name="parenright" unicode=")" horiz-adv-x="604" 
d="M262 938q-27 15 -131 104h-59q0 -1 -11 -8q0 -16 -12 -65q39 -36 101 -86q15 -8 43 -44t36 -42q3 -2 18.5 -16.5t28.5 -24.5q101 -149 101 -437q0 -237 -66 -378q-57 -114 -112 -154q-7 -2 -86 -37q-12 -20 -33 -47q0 -27 4 -39q74 0 125 45q18 18 77 72t93 92t51 72
q96 162 96 424q0 314 -264 569z" />
    <glyph glyph-name="asterisk" unicode="*" horiz-adv-x="688" 
d="M35 530l10 -10l12 -2l2 -8q8 -4 15 -4q21 0 57.5 26.5t62 51.5t66.5 67q14 0 37 -10q-1 -30 -21 -92.5t-34 -83.5q12 -42 41 -86q16 0 29 1.5t23.5 6.5t17 8.5t14 12.5t11 13.5t11 16.5t10.5 17q0 22 -20 80t-33 83v29q12 4 31 4q8 -12 18 -23.5t23.5 -25.5t21.5 -24
q41 -49 74 -64q16 -8 29 -8q11 0 19.5 2.5t13 6t15 12.5t19.5 16v30q0 46 -10 56q-19 36 -217 76q0 21 17.5 30.5t72.5 9.5q62 0 78 19q22 3 36.5 17t30.5 38l11 15v16q0 31 -26 56.5t-52 25.5h-8q-70 -6 -166 -158h-31q0 26 27 96q26 71 26 105q0 18 -4 22q-1 10 -4 18
t-9 14.5t-9 10t-12 10t-11 7.5h-12q-46 0 -96 -33q0 -152 55 -213q-5 -23 -14 -37q-37 5 -78 68q-44 67 -72 69q-20 13 -29 17q-25 -6 -77 -37q0 -9 -2 -20.5t-2 -14.5t2 -7.5t2 -6.5q0 -48 45 -68q19 -8 96 -26.5t92 -28.5q0 -4 -1 -7.5t-2.5 -8l-2.5 -7.5q-10 -2 -46 -10
t-51.5 -12t-42.5 -11.5t-46.5 -17.5t-36.5 -22l-4 -31q0 -43 8 -62z" />
    <glyph glyph-name="plus" unicode="+" horiz-adv-x="432" 
d="M246 500v-76h114q3 -2 9.5 -7.5t10 -8.5t7.5 -9t6 -13.5t2 -16.5l-49 -50h-100v-83q-2 -3 -6.5 -8t-7 -8t-7.5 -7.5t-9 -6.5t-11 -3.5t-15 -1.5l-49 49v69h-104l-6 7q-27 23 -27 47q35 24 55 51h82v98l4 2q19 31 50 31q24 -35 51 -55z" />
    <glyph glyph-name="comma" unicode="," horiz-adv-x="296" 
d="M55 -190q0 -15 4 -23q65 3 127 79t62 161q0 59 -41 100l-43 41h-68q-31 -36 -41 -49v-23q0 -24 4 -28q3 -22 56 -45l67 -31q-6 -98 -127 -182z" />
    <glyph glyph-name="hyphen" unicode="-" horiz-adv-x="413" 
d="M96 424q-5 -7 -21.5 -25t-25.5 -30q0 -31 29 -60h239l41 51q0 10 -1.5 18t-3 13.5t-5.5 11t-6 7.5l-7.5 7.5l-6.5 6.5h-232z" />
    <glyph glyph-name="period" unicode="." horiz-adv-x="296" 
d="M174 168q-46 14 -74 14q-43 -31 -69 -63q0 -35 10 -55.5t31 -45.5l6 -8h49q12 0 21.5 3t17.5 9.5t12 11t11 14t8 11.5v19q0 51 -23 90z" />
    <glyph glyph-name="slash" unicode="/" horiz-adv-x="452" 
d="M371 942l-13 -74q-6 -20 -28.5 -125t-36.5 -137q-13 -167 -57 -264q-28 -64 -46 -205q-16 -151 -38 -200q-19 -46 -31 -179q-13 -123 -49 -178l-60 -20l8 26q-14 17 -14 54q0 10 2.5 31t3.5 32l-1 5q-1 4 -1 9q0 16 10.5 52t10.5 41q0 17 10.5 78.5t19.5 80.5
q19 66 19 68l26 213l23 67q6 202 82 398l-4 14q-8 8 -8 23q0 10 45 108q5 13 12 92q2 35 2 105q1 9 7.5 24t13 27t17.5 31t15 26q5 2 14 8t13 7q22 0 65 -6l17 -64v-8q0 -35 -49 -160z" />
    <glyph glyph-name="zero" unicode="0" horiz-adv-x="749" 
d="M651 696q-84 195 -319 195h-15l-4 -2q-53 -23 -112 -60q-69 -37 -119 -188q-33 -90 -33 -227q0 -301 129 -383q35 -24 113 -45q71 -19 92 -19h12q135 24 216 144t81 288q0 73 -18 144q0 41 -23 153zM524 156q-11 -16 -41.5 -52.5t-40.5 -44.5q-30 -17 -65 -45
q-69 7 -105 60q-26 29 -53 112q-18 59 -47 183v10q0 40 10 86v78q26 86 54 149q41 91 100 105q3 2 11.5 7t12.5 7h50q21 -17 90 -96q63 -120 63 -336q0 -146 -39 -223z" />
    <glyph glyph-name="one" unicode="1" horiz-adv-x="552" 
d="M84 10q1 -1 8 -14t14 -23h15q8 0 20.5 1.5t33.5 4t36 3.5q69 10 127 10q62 0 84 -19h22q54 0 64 23q0 4 4 14q-8 8 -14 23q-30 3 -142 30q-16 65 -16 160q0 71 12 160v27q0 22 -8 112q0 18 -2 45t-2 37t2 31t2 29l16 88q1 10 4 29t3 28q0 5 -2.5 14t-2.5 11q-3 34 -43 40
q-33 -23 -102 -40q-100 -23 -115 -33l-49 -41q0 -23 13 -49l45 -4q29 0 41 12q35 0 69 -19v-399l8 -88v-31q0 -29 -8 -45v-6q0 -23 -6.5 -40.5t-14 -28t-25.5 -20t-26.5 -13t-33.5 -10.5t-31 -9z" />
    <glyph glyph-name="two" unicode="2" horiz-adv-x="688" 
d="M279 256q-44 -56 -119 -119q-38 -30 -78 -86q-6 -14 -33 -55q0 -7 2 -19q16 -8 82 -8q76 0 123 4q35 4 90 4q84 0 109 -14h45q47 0 55 4q4 0 45 56q10 30 10 51q0 26 -22 39l-15 2q-24 0 -55.5 -27.5t-34.5 -28.5q-36 -8 -65 -8q-123 0 -203 41q6 54 221 213
q59 50 111 135q63 108 63 193q0 43 -14 72.5t-68 72.5q-70 56 -92 60l-172 8q-13 -6 -50.5 -26.5t-63.5 -33.5q-10 -8 -38 -44.5t-34 -41.5v-14q0 -34 22 -53q9 0 15 -4q97 105 194 119h6q13 0 39.5 -5.5t32.5 -5.5l72 -59q3 -20 18 -37v-23q0 -128 -53 -217
q-4 -4 -19.5 -17.5t-25.5 -23.5q-80 -70 -100 -104z" />
    <glyph glyph-name="three" unicode="3" horiz-adv-x="606" 
d="M227 -45h-14q-28 0 -63 14q-20 8 -40.5 15.5t-28.5 10.5t-9 5q-38 -6 -41 -33q0 -69 32 -80q105 0 146 9q130 35 233 135q127 109 127 245v21q0 79 -71 138t-179 89q7 7 34 36t48 50q32 25 58 105q1 5 2.5 14t2.5 16t1 11q0 33 -19 55q-27 90 -167 90q-126 0 -197 -59
q-8 -8 -22.5 -48t-18.5 -46q0 -12 22 -48q7 2 77 45t102 43q25 0 45.5 -16t54.5 -57q-6 -95 -59 -142l-123 -77l-29 -37l-39 -4q-2 -14 -33 -45q0 -16 19 -50q21 2 68 29.5t49 28.5l124 -8q31 -16 101 -86q22 -37 22 -86q0 -126 -104 -211q-58 -50 -111 -72z" />
    <glyph glyph-name="four" unicode="4" horiz-adv-x="759" 
d="M463 604v-213q0 -54 -2 -72q-81 -6 -94 -6l-84 -16q-102 4 -125 27q-9 9 -19 14q7 47 45 82q17 17 34 33.5t23.5 22.5t6.5 7q236 322 387 428v27q0 35 -4 41q-10 31 -56 31q-88 -92 -153 -195q-31 -31 -78 -86l-78 -115l-141 -163q-74 -103 -74 -160q0 -13 2 -15
q12 -30 117 -30l74 4q73 6 123 6q65 0 73 -10l21 -4v-41q0 -95 -21 -119q-5 -7 -40.5 -25t-37.5 -24q0 -24 5 -29q13 -22 49 -22q14 0 24 4q3 0 16.5 2t24.5 2q10 0 39 -2t47 -2h45q30 0 46 2t19.5 2t8.5 7l4 7q0 4 4 10q0 23 -59 37q-54 17 -60 27v145q3 3 19 23h37
q41 0 45 -4q31 0 49 12q0 29 -23 59q-25 -5 -98 -12q-1 1 -9 9.5t-11.5 14t-8 20.5t-4.5 34q0 23 11 139q12 99 12 133q0 36 -6 56.5t-13 25t-18 4.5h-12q-23 0 -33 -0.5t-22.5 -4.5t-17.5 -12.5t-5 -23.5v-14h-4v-78z" />
    <glyph glyph-name="five" unicode="5" horiz-adv-x="581" 
d="M442 63q117 80 117 269q0 74 -31 155q-35 87 -125 138t-239 71l33 72q22 14 41 14q3 0 38.5 -7t55.5 -7q51 0 78 -4q43 0 63 14q37 14 49 82q-11 5 -26 33h-78q-5 -1 -21 -1.5t-46.5 -1.5t-59.5 -3q-58 -5 -109 -27q-32 -49 -55 -90q-35 -63 -55 -119q14 -63 147 -104
q149 -43 180 -88q56 -86 56 -154q0 -26 -11 -79t-20 -66q-31 -48 -94 -78l-11 -4q-47 -25 -142 -64t-105 -45q-13 -3 -13 -20q0 -9 9 -31q4 -4 14 -4q46 0 194 68q138 61 166 81z" />
    <glyph glyph-name="six" unicode="6" horiz-adv-x="782" 
d="M174 614q-10 -7 -39 -32q-1 -9 -18 -37t-23 -47q-3 -8 -24 -84l-4 -86q0 -10 4 -35l14 -39q0 -15 9.5 -37.5t12.5 -38.5q27 -51 93.5 -117t111.5 -79h47q44 -13 72 -13q113 0 197 90q79 86 104 195l2 8q2 9 2 14q0 51 -29.5 120.5t-80.5 113.5q-66 53 -144 53
q-67 0 -137 -45q0 -19 4 -31q52 9 92 9q72 -10 122 -81.5t50 -142.5q0 -90 -59.5 -160.5t-136.5 -70.5q-60 0 -105 37q-36 28 -78 127q-22 56 -22 131q0 131 86 282q74 125 174 193q47 32 127 68q65 30 127 71q0 12 -23 56q-18 4 -49 4l-92 -23q-144 -81 -205 -145
q-7 -22 -18 -37q-55 -38 -143 -123z" />
    <glyph glyph-name="seven" unicode="7" horiz-adv-x="647" 
d="M365 410q-10 -71 -19 -109l-4 -4q-7 -7 -47 -68l-2 -2l-8 -49q-7 -22 -43 -92l-41 -82q0 -52 10 -72q12 0 27 5q35 15 69 114q29 79 49 146q57 136 191 426l6 14q51 135 82 168q0 5 -29 55l-168 -14q-20 0 -73.5 2.5t-85.5 3.5q-80 18 -218 18l-28 -28v-27q0 -41 10 -51
q16 -37 176 -37q115 0 156 10q14 4 49 4h18q45 -6 45 -36q0 -64 -45 -140q-58 -98 -77 -155z" />
    <glyph glyph-name="eight" unicode="8" horiz-adv-x="735" 
d="M98 291q-26 -39 -26 -86q0 -61 43 -119t94 -82q77 -31 153 -31q137 0 235.5 68.5t98.5 173.5q0 42 -10 76q-26 92 -156 155q3 28 60 82q58 52 69 78q15 22 15 53q0 43 -25 89q-61 145 -280 145h-15q-28 0 -67 -10q-86 -26 -125 -78q-62 -74 -62 -154q0 -133 144 -223
q-6 -38 -62 -74q-82 -61 -84 -63zM231 600l-7 22q-8 21 -15 37v7q0 107 127 149q5 0 41 8q87 0 127 -37q34 -44 47 -116q4 -14 4 -45q0 -56 -47 -107l-8 -12q-40 -6 -74 -6q-129 0 -195 100zM336 379q76 0 139.5 -33t83.5 -86q14 -16 14 -59q0 -77 -24 -101
q-74 -77 -168 -77q-52 0 -100 26q-99 52 -99 170q0 49 27 90q14 21 55 41q18 8 35 15t26.5 10t10.5 4z" />
    <glyph glyph-name="nine" unicode="9" horiz-adv-x="718" 
d="M518 641l25 -190q0 -118 -119 -273q-97 -132 -219 -205q-68 -30 -172 -86q12 -18 26 -32q26 0 53.5 8.5t44 16.5t46.5 26t41 24q315 172 389 412q31 108 31 176q0 164 -98 264.5t-269 100.5h-6q-24 -4 -86 -23q-122 -72 -174 -231q-4 -10 -4 -41q0 -33 4 -51
q21 -117 55 -160q40 -60 137 -82q36 4 41 6q14 -4 41 -4q59 0 115 35q0 16 -10 28h-154q-33 14 -58 33t-34 31l-8 12q-11 15 -16 33.5t-7.5 43t-5.5 38.5v12q0 35 18 88q44 158 183 158q100 0 168 -102q16 -29 22 -66z" />
    <glyph glyph-name="colon" unicode=":" horiz-adv-x="299" 
d="M219 629l-6 8q-15 19 -25 29t-30 20t-45 10l-39 -18q-8 -7 -24 -34l-17 -26q6 -88 67 -112q4 -4 37 -4h31l51 53v74zM92 186q-12 -9 -41 -49q-6 -18 -6 -65l45 -54q36 -8 64 -8q6 3 43 31l22 55q-2 16 -9.5 30.5t-23 34.5t-18.5 25h-76z" />
    <glyph glyph-name="semicolon" unicode=";" horiz-adv-x="309" 
d="M121 506q14 1 26.5 4.5t20.5 7t17.5 12t13.5 12.5t13.5 16t12.5 15v56l-37 49q-15 7 -49 10q-4 -2 -28 -2l-54 -49v-19q0 -32 15 -67q16 -14 49 -45zM57 -174q0 -12 13 -35q64 11 121 88t57 154q0 66 -41 104q-17 39 -90 45q-3 -2 -11.5 -6.5t-13.5 -7.5q-29 -6 -35 -41
q-10 -20 -10 -31q0 -33 47 -59l76 -33q3 0 6 -12q-3 -45 -43 -101q-27 -22 -76 -65z" />
    <glyph glyph-name="less" unicode="&#x3c;" horiz-adv-x="710" 
d="M604 131l-72 100q-20 15 -92 39.5t-75 26.5q-13 9 -32.5 19.5t-55 27.5t-58.5 29q-68 23 -125 59t-57 60q0 56 123 100q49 14 59 18q71 22 172 72q12 4 28.5 11.5t30 14.5t40 21t42.5 23l7 12q7 11 10 15.5t10 15.5t12 16.5t11.5 13t12.5 10.5t11 3q2 0 3.5 3t2.5 3l2 -2
q27 0 27 -23q4 -49 4 -119q0 -63 -8 -77q0 -12 -23 -50q-20 4 -34.5 18t-21 26t-7.5 12q-2 2 -13.5 5t-24.5 6t-17 5q-81 -6 -201 -72q-2 -1 -12.5 -9.5t-17.5 -15t-16 -17t-13.5 -21.5t-4.5 -23q0 -15 15 -31.5t31.5 -29.5t17.5 -16q130 -71 229 -74l39 -19l6 52
q0 2 1.5 8.5t2 8t3.5 6.5t7.5 7t12 5.5t18.5 5.5q12 -12 23 -50q8 -14 8 -77q0 -12 -2 -52t-2 -67q0 -33 -8 -33q-2 0 -4.5 -8t-5.5 -8q-11 0 -19 16z" />
    <glyph glyph-name="equal" unicode="=" horiz-adv-x="604" 
d="M563 459q0 47 -4 65q-27 27 -35 27q-47 -27 -63 -27h-2l-31 23q-6 0 -18 -23q-26 17 -68 17q-40 0 -66 -17l-22 8q-14 -12 -100 -18q-78 0 -82 -8h-9q-24 0 -30 -33h-2l2 -22q11 -11 26 -11l74 19l41 -13l82 15q20 0 35 -10q19 -11 41 -11q23 0 45 11l88 -11l22 6
q36 -22 41 -22q-6 0 35 35zM49 287q-16 -5 -16 -41v-27q9 -6 18 -6l12 2h64q19 0 27 -2q5 -10 77 -16q14 0 33.5 -1t22.5 -1l18 2q28 16 53 16h15l69 -8q5 -5 45 -12l9 -3h14q10 0 17.5 1.5t11.5 2.5t8.5 7t5.5 7t5 11t5 12q0 21 -12 82q-76 0 -115 -22q-6 6 -59 6
q-57 0 -60 -6q-24 -8 -38 -8h-19l-59 8q-10 0 -40.5 -7.5t-37.5 -7.5q-23 0 -37 11l-31 -8q-2 0 -6 8z" />
    <glyph glyph-name="greater" unicode="&#x3e;" horiz-adv-x="665" 
d="M461 373q-15 -8 -64 -33t-84 -43q-58 -14 -168 -66q-6 -7 -20 -33t-27.5 -43.5t-23.5 -17.5q-15 0 -19 4q-6 0 -9.5 2t-4.5 4t-2 8t-2 9q-4 37 -4 96q0 73 12 100q0 17 23 50q14 -3 27 -13t19 -17t14 -20l9 -14l13 -14l6 4q97 3 227 74q3 0 18 12t30 31t15 34
q0 32 -22 54q-32 23 -41 32q-120 66 -197 72l-55 -12q-1 -1 -6 -10t-11.5 -18t-19 -19t-26.5 -13q-13 13 -27 50q-8 14 -8 77q0 56 4 105v18q0 1 2 5.5t2.5 5.5t3 4t6 3.5t8.5 0.5q4 4 15 4q10 0 23.5 -17.5t27.5 -43.5t20 -33q57 -31 70 -37l78 -37q90 -44 168 -68
q27 -6 117 -45q63 -35 63 -73q0 -24 -56.5 -60t-123.5 -59z" />
    <glyph glyph-name="question" unicode="?" horiz-adv-x="483" 
d="M420 647q8 18 8 60q0 52 -8 79q-27 107 -55 142q-23 30 -115 78q-88 49 -150 49q-2 -3 -25.5 -12t-47.5 -33q-6 -24 -13 -31l-4 -10q0 -19 17.5 -42.5t35.5 -33.5q62 6 87 31h22q122 0 145 -64q15 -21 15 -59q0 -41 -8 -64q-40 -136 -209 -241q-12 -10 -27.5 -59.5
t-15.5 -90.5q0 -9 0.5 -15.5t2.5 -11.5t3.5 -8.5t5 -6.5t5 -4.5t6 -4.5t5.5 -4q19 2 36.5 58t23.5 61l145 104q87 61 115 133zM86 174q-41 -15 -53 -55v-10q0 -22 6.5 -40t10.5 -24t21.5 -22t20.5 -19q44 0 80 27q10 48 10 73v23l-28 33q-36 14 -68 14z" />
    <glyph glyph-name="at" unicode="@" horiz-adv-x="1269" 
d="M1155 195q0 -147 -158 -275q-155 -125 -346 -125q-51 0 -123 21q-246 69 -331 338q-11 37 -11 96q0 112 23 196q12 50 86 168q65 108 106 138q13 6 55.5 26t71.5 33q9 9 56 39h71q74 18 105 18q24 0 45 -6l4 -2q157 -40 229 -133q0 -3 27 -53q12 -29 41 -45
q-6 -9 -14 -29q0 -1 -2.5 -11t-2.5 -16l5 -36q6 -61 6 -76q0 -28 -6 -43q-25 -111 -91 -187q-75 -81 -155 -81l-31 4q-10 17 -27 28q7 68 60 201q61 147 94 180q-8 27 -27 55q-69 0 -118 -55q-16 1 -57.5 20t-53.5 23q-9 -5 -35.5 -19.5t-44.5 -23.5q-129 -88 -182 -217v-45
q-23 -90 -23 -104q0 -18 7.5 -33.5t23 -35t19.5 -24.5q24 -5 41 -18q64 0 100 27q15 8 31.5 18t26 15.5t14.5 7.5q2 0 10 2q36 -28 78 -70q11 -2 32.5 -4t30.5 -4q23 0 59 8q127 42 213.5 170.5t86.5 280.5q0 94 -35 178q-10 12 -41 55q-122 180 -365 180h-14
q-11 -7 -60.5 -9t-52.5 -3q-54 -9 -164 -47q-259 -134 -348 -449q-31 -108 -31 -192q0 -54 19 -113q19 -47 90 -186q65 -88 193 -150q149 -73 286 -73q51 0 101 12h49q174 45 297 192q83 97 94 113q41 71 41 160q-14 12 -27 31q-14 -5 -28 -17q-6 -7 -23 -24zM645 195
q-7 -4 -16 -9.5t-22 -15t-23 -16.5q-30 0 -48 16.5t-18 38.5q0 27 23 74q27 74 92 198q47 34 67 51q17 0 48 -22v-10q0 -73 -31.5 -163t-71.5 -142z" />
    <glyph glyph-name="A" unicode="A" horiz-adv-x="1120" 
d="M295 365q-5 -8 -18 -30.5t-23 -37.5q-19 -64 -59 -164q-11 -17 -66 -45l-88 -45q0 -12 2 -20t4.5 -12t9.5 -13t11 -16q29 0 159 18l172 -8q3 5 7.5 9.5t12 9.5t9.5 7q0 18 -10 41q-40 12 -105 45q7 98 37 172q33 66 74 138q36 8 72 22h55q78 0 106 -12.5t35 -50.5
l35 -123l33 -119l4 -8q0 -16 -29.5 -35.5t-68.5 -32.5l-7 -14q5 -5 11 -29v-4q54 -8 104 -8h105q46 0 100 -8v-2h8v2q54 0 68 31v4q0 13 -9.5 27.5t-25.5 17.5q-41 11 -55 18t-33 29q-28 47 -41 112q-16 86 -31 119q-10 19 -20.5 47.5t-18.5 51t-23 66t-24 69.5l-78 235
q-4 12 -10.5 63t-15.5 68q0 5 -52 92h-26q-30 -42 -137 -305q-4 -26 -35 -102l-2 -17l-27 -18q-8 -15 -19.5 -44t-33 -83t-43.5 -108zM618 522h-100q-37 0 -45 10q-4 4 -4 31q0 43 74 174q46 -6 57 -63q13 -65 29 -92q0 -34 -11 -60z" />
    <glyph glyph-name="B" unicode="B" horiz-adv-x="913" 
d="M133 78q-67 -15 -88 -19q-2 -2 -4 -4.5l-6 -7.5l-8 -10q17 -17 28 -37q105 7 277 10q19 0 63 -10q36 -8 66 -8q148 0 268 63q135 73 135 242q0 192 -145 266q2 27 40 82.5t42 65.5q8 36 8 53q0 110 -127 182q-110 60 -213 60h-18q-20 -13 -50 -13q-13 0 -41 4h-200
q-72 0 -97 -14q-2 -2 -26 -18q9 -40 14 -50q0 -3 12 -6h70q57 -23 57 -116l-18 -183v-78q2 -33 2 -77q0 -65 -6 -105q0 -4 -2 -12t-2 -14l4 -37q6 -50 6 -64q0 -23 -6 -41q0 -51 -35 -104zM342 805v22q0 37 4 60v10q2 2 5.5 6t10 11.5t11.5 13.5q111 0 145 -19q57 0 86 -39
l51 -69l4 -41q0 -126 -86 -168h-36q-74 -23 -101 -23q-17 0 -26 9h-9q-39 0 -60.5 24t-21.5 68q0 32 23 135zM317 358l7 115q15 10 36 37q124 0 224 -41q131 -50 131 -164q0 -21 -23 -92q-37 -101 -108 -127h-74q-44 -12 -78 -12q-32 0 -59 12q-6 5 -56 41q-8 54 -8 100
q0 17 8 131z" />
    <glyph glyph-name="C" unicode="C" horiz-adv-x="1015" 
d="M104 283l60 -64q173 -237 473 -237q10 0 46 -4.5t40 -4.5q110 24 172 50q9 15 47 36q3 14 21 50q10 42 10 59q0 13 -8 33q0 2 -19 18h-4q-9 0 -74 -59q-12 -11 -27 -26t-23 -22.5t-17 -16t-14.5 -12.5t-8.5 -5q-62 -27 -123 -27q-107 0 -212.5 63t-149.5 146
q-7 12 -11.5 28.5t-7.5 30t-5 38t-3 36.5t-2.5 42t-1.5 38l-4 51q0 136 78 240q81 104 235 145q119 29 142 29q79 0 192 -119h41q12 40 12 74q0 52 -30 82q-26 59 -260 59h-82q-14 -7 -86.5 -21t-85.5 -20q-198 -91 -291 -278q-9 -16 -39 -160q-21 -95 -21 -154v-22
q6 -40 41 -96z" />
    <glyph glyph-name="D" unicode="D" horiz-adv-x="1146" 
d="M137 891l13 -139v-41q0 -51 -13 -101q4 -10 4 -41q0 -36 -4 -59v-10q0 -25 17 -80l2 -6l-11 -113v-14q0 -16 5 -31v-18q10 -55 10 -66q0 -41 -28.5 -62t-90.5 -36q-4 -10 -4 -29q0 -30 12 -45q46 0 174 23q12 4 45 4q34 0 146 -19h6q22 0 45 2q7 0 63 -10h9q19 0 141 27
q103 23 186 59q80 39 133 115q2 6 12 26t15 33q16 21 55 90q17 47 17 111q0 98 -35 194q-7 36 -45 127q-82 137 -311 232q-97 39 -263 39q-22 0 -82 -8t-100 -9q-142 -7 -147 -8l-64 -14l-39 -31q0 -26 13 -55q32 -5 114 -37zM328 891q0 29 32 53l5 2q485 0 573 -436
q-2 -21 -10 -152q-20 -59 -92 -131q-80 -80 -131 -108q-12 -4 -28.5 -7t-37.5 -5t-29 -3q-79 -26 -141 -26q-47 0 -78 23t-59 63l-31 145l16 357q2 8 2 30q0 27 -2 41q-2 16 -4 35t-3 29t-1 14q0 38 19 76z" />
    <glyph glyph-name="E" unicode="E" horiz-adv-x="866" 
d="M348 219v141q0 92 23 136q24 6 59 6l154 -6l18 -22q19 -21 33 -38q0 -27 18 -86q8 -8 23 -8q12 0 16 4l19 4v156q0 65 18 86q0 66 -27 113q-27 -7 -62 -63.5t-48 -63.5q-32 -13 -82 -13q-110 0 -162 27v176q6 93 35 147q52 9 96 9q137 0 195 -33q5 -8 22.5 -40.5
t32.5 -54.5t23 -22h4q3 0 24 12q17 89 17 203q0 11 -2 15q-1 5 -5.5 7t-5.5 3l-16 2l-274 12l-168 -12l-56 4q-60 14 -196 14q-5 -1 -9 -3.5t-9 -8t-9 -8.5q0 -74 115 -80q39 -68 39 -137q0 -13 -8 -45v-19q0 -8 8 -86q2 -2 2 -24q0 -23 -2 -41q-2 -16 -4 -32.5t-3 -25.5
t-1 -14v-295q4 23 4 72q0 -133 -35 -183q-93 -15 -107 -18l-30 -31q0 -2 8 -18q9 -27 67 -27q13 0 56 4t51 4q20 0 120 4.5t134 4.5q75 -7 123 -17l37 4q13 0 38 -2.5l35 -3.5h21q22 0 65 15q41 187 41 196q0 13 -0.5 17.5t-3 10.5t-8 8.5t-16.5 4.5q-2 -4 -91 -127
q-47 -47 -178 -47q-113 0 -172 33v78z" />
    <glyph glyph-name="F" unicode="F" horiz-adv-x="827" 
d="M18 49q0 -49 74 -49l199 18q39 0 59 -10h37q87 0 96 23q5 2 9 10q0 36 -11 42.5t-63 6.5l-19 2q-12 0 -22 -2h-8q-17 0 -23 6q-41 27 -41 123v68q4 31 4 63q0 111 4 115q6 33 33 45q4 4 78 4q96 0 135 -45l66 -111q6 -6 14 -6q14 0 20 17q15 74 15 172q0 105 -19 164
q-10 -1 -19 -4.5t-16.5 -12t-13 -15t-12 -20t-9 -19.5t-9 -22.5t-7.5 -19.5q-126 -33 -178 -33q-27 0 -33 4q-28 1 -38.5 13t-10.5 38v19q4 18 4 53v125q6 66 33 109q48 14 146 14q102 0 145 -25q15 -9 42 -68.5t40 -66.5l18 -4q5 0 9 2t6 2q8 2 15.5 9.5t12.5 14.5t6 7
l7 170q-44 41 -86 41q-11 0 -55.5 -7.5t-63.5 -7.5q-13 0 -53 4.5t-48 4.5l-151 -13q-16 0 -57 9q-47 11 -201 18q-14 -12 -37 -18l-4 -23q0 -5 2 -9t2 -5q2 -3 54.5 -33t60.5 -57q8 -20 8 -37l-10 -82q0 -6 1 -15t1 -12q4 -14 4 -59v-33q-4 -31 -4 -72v-18q8 -41 8 -111
q0 -63 -8 -94v-14q0 -36 4 -56q2 -16 4 -36t3 -30.5t1 -14.5q0 -32 -12 -41q0 -57 -64 -76q-74 -16 -74 -29z" />
    <glyph glyph-name="G" unicode="G" horiz-adv-x="1148" 
d="M905 975q-9 5 -14.5 8.5t-7.5 5t-3 2t-2.5 1.5t-5.5 3l-16 4q-9 2 -29.5 4.5t-38 6t-40.5 10.5l-197 16q-76 0 -162 -37q-110 -46 -209 -141.5t-133 -202.5l-8 -163q7 -156 81 -273.5t197 -179.5t277 -62q236 0 364 101v123q5 81 11 116q0 20 7 35t23 26t28 17t37.5 15.5
t35.5 13.5v25q0 8 -5.5 12.5t-21.5 7.5h-151q-96 0 -146 12q-10 1 -28.5 3.5t-26.5 2.5q-35 0 -59 -14q-3 -3 -23 -27q0 -10 13.5 -26.5t27.5 -24.5h115l30 -26q15 -55 15 -115q0 -168 -82 -195q-20 -14 -78 -14q-110 0 -195 29q-222 75 -282 305v102q-8 36 -8 60
q0 41 12 84q41 133 108 195.5t207 99.5q41 14 123 14t131 -19l111 -92q33 -59 53 -59q13 0 29 17.5t16 45.5q0 25 -6 43.5t-14 29t-27 33t-33 42.5z" />
    <glyph glyph-name="H" unicode="H" horiz-adv-x="1247" 
d="M86 55l-37 -37q10 -49 55 -49l23 4q87 19 238 19q104 0 112 8q4 4 15 4q10 10 12 14q-6 47 -23 54q-59 5 -63 6l-41 31q-10 83 -19 127q0 153 11 206l223 13l41 -4q35 0 90 10q70 0 89.5 -4.5t55.5 -28.5q11 -53 11 -164q0 -82 -8.5 -123t-18.5 -48t-29 -7
q-14 0 -24 -1.5t-19.5 -6t-14.5 -7.5t-17.5 -13.5t-20.5 -16.5q1 -3 3.5 -12.5t6 -19t8.5 -17.5h19q14 0 104 8q92 10 152 10q67 0 94 -18q3 1 11.5 4t17.5 6.5t18 7.5q2 2 4.5 8t3.5 9q0 8 -1 14.5t-5 12.5t-6 8l-8.5 8.5l-7.5 7.5q-54 0 -99 26q-11 45 -18 164
q-4 49 -4 191q0 51 1 96t2 71t1 29q0 202 23 246q6 2 20.5 6t22 6t19.5 6t18.5 8t14.5 9.5t12.5 12.5t6.5 16q1 0 8 10q-2 2 -18 22q-33 17 -137 17q-16 -8 -135 -8h-105l-47 -41q6 -48 33 -54l63 -14q49 -21 49 -260v-55q-13 -13 -22 -31q-63 -4 -195 -4h-63q-82 0 -111 4
h-22q-16 0 -94 8q-11 26 -11 96v56q2 79 10.5 118t19 48.5t34.5 15.5l6 4q16 6 31.5 12t21.5 8.5t8 2.5q2 14 2 30q0 15 -2 19q0 1 -1.5 3.5t-4 5t-6.5 8t-8 11.5q-41 9 -70 9l-141 -9q-36 0 -68 9q-28 8 -41 8q-31 0 -55 -21q-10 -15 -31 -28q6 -53 64 -72q59 -14 72 -43
v-154q10 -62 10 -155q0 -80 -4 -123v-31q0 -55 4 -92l14 -168q-28 -34 -33 -41q-33 -5 -100 -31z" />
    <glyph glyph-name="I" unicode="I" horiz-adv-x="536" 
d="M35 37q10 -30 76.5 -37.5t246.5 -7.5l76 6q3 7 14.5 12.5t14.5 7.5l4 13q0 19 -33 41t-80 32q-6 54 -6 78v41q4 31 4 74q0 35 -4 41q-8 39 -8 108q0 55 4 86v23q0 45 4 74v241q5 15 66 39q63 22 63 47q0 16 -10.5 34.5t-32.5 25.5q-24 8 -45 8q-32 0 -94 -10l-170 10
q-56 0 -80 -37q0 -49 23 -59q67 -15 98 -60l24 -714q-15 -45 -63 -62q-19 -6 -33 -12t-22 -9.5t-15 -9t-9 -7.5t-7 -9t-6 -8z" />
    <glyph glyph-name="J" unicode="J" horiz-adv-x="536" 
d="M307 1006h-16q-99 18 -193 18q-2 -2 -5.5 -3t-9.5 -2t-11 -3q-27 -27 -27 -33q0 -10 4 -14q6 -49 37 -49q23 4 53 4q19 0 19 -4q14 -7 30 -23q19 -89 19 -414q2 -33 2 -106v-35q0 -47 -2 -70v-22q0 -49 2 -90q4 -41 4 -86v-183q0 -47 -10 -77l-45 -64h-4q-41 0 -97 45
q-77 0 -94 -49q-10 -17 -10 -74l12 -18t19 -23l12 -2l12 -12q12 -4 35 -4q99 0 184 131l43 43q14 23 60 135l10 115q33 118 33 305l-19 213l17 182q-9 92 -9 101q0 35 9 53q12 20 55 37l68 22q0 7 2 15q0 31 -3.5 39t-13.5 10h-4q-22 0 -45 2h-8q-16 0 -66 -5z" />
    <glyph glyph-name="K" unicode="K" horiz-adv-x="1185" 
d="M154 915q35 -28 41 -81v-119q0 -275 -11 -414q2 -5 6 -51l-10 -78q0 -35 -22 -63h-8q-17 -2 -25.5 -3.5t-22.5 -5.5t-22 -11t-12 -17q-2 -5 -2 -9q0 -2 1 -6.5t1 -7.5q0 -23 8 -31q14 -14 49 -14q19 0 29 4q69 6 77 6l213 -14l37 31q0 55 -69 69q-56 13 -64 37
q-16 24 -16 135q0 115 8 189h22q47 0 68 -19q3 -1 30.5 -29.5t91.5 -84t142 -109.5l82 -92q0 -34 -76 -68l-6 -4q0 -14 23 -47q28 -8 51 -8q32 0 90 10h19q62 0 131 -18q29 -6 69 -6q33 0 41 6q5 2 13 9.5t10 8.5l18 27q-5 35 -45 53l-70 25q-9 9 -57 41q-14 15 -57.5 57
t-67.5 66q-71 55 -205 163q-81 81 -153 136q5 36 67 77l97 52l118 98q62 52 132 82q17 6 70.5 10t55.5 4l56 33q0 4 4 12q0 11 -2 20.5t-4.5 15.5t-7.5 13.5t-8 10t-10 9.5l-9 9q-116 0 -182 8q-21 -16 -64 -16q-8 0 -48.5 4t-55.5 4q-39 0 -64 -18q-10 -10 -31 -23
q0 -23 23.5 -42.5t75.5 -43.5q-1 -16 -10.5 -30.5t-18.5 -22.5t-26 -21t-23 -18q-18 -15 -262 -223h-6q-11 0 -17 4t-12 29t-6 73v45q0 49 4 53v25q0 75 27 98l100 37q0 33 -12 60q-36 8 -265 8h-40q-18 2 -37 2q-12 -2 -27 -10q-25 -11 -25 -23q0 -2 3 -8t4 -10
q3 -9 12 -16.5t21 -13.5t22 -9.5l20 -7t11 -3.5z" />
    <glyph glyph-name="L" unicode="L" horiz-adv-x="864" 
d="M143 901q54 -7 64 -41q2 -4 2 -14q0 -13 -2 -23v-71q0 -6 1 -14t1 -11v-12q0 -15 -2 -27l-4 -22l4 -19q2 -6 2 -41q0 -40 -2 -65v-35q0 -36 2.5 -65t5 -44t2.5 -18q-8 -50 -8 -55v-15q8 -36 8 -63l-4 -49q-3 -66 -18.5 -86.5t-67.5 -20.5h-25q-30 0 -36 -4q-9 -9 -9 -27
q0 -19 15 -49q55 -2 118 -2h19q82 10 127 10q40 0 86 -8q62 -10 104 -10q32 0 86 8h11q21 0 66 -6t50 -6q35 0 60 14q3 19 13.5 59t14.5 58v23q0 51 -18 63q-4 2 -10 6q-55 -63 -101 -96q-60 -45 -141 -45q-21 0 -61 8q-1 0 -7.5 -2t-15.5 -4t-14 -2q-46 0 -88 26
q-17 47 -17 115q0 28 11 164q12 114 12 168q0 32 -5 84.5t-5 97.5v35q5 75 14 92q6 25 41 31q22 1 34 2t22 5t14 7t15 12.5t19 16.5q0 14 -6.5 32t-13.5 29l-6 11h-193q-2 0 -28.5 1t-83.5 3t-123 4q-15 -15 -19 -17q-4 -10 -10 -28q0 -33 23 -56l6 -4q55 0 71 -8z" />
    <glyph glyph-name="M" unicode="M" horiz-adv-x="1363" 
d="M653 37q4 -4 11 -4q9 0 16 18q33 33 45 80q6 26 11.5 44.5t9 29.5t9 21.5t8.5 16t10.5 17t12.5 19.5q22 76 60 167q41 67 86 172q10 5 18 5q13 0 13 -5l18 -8q18 -122 18 -264q0 -210 -36 -278q-32 -3 -47.5 -5t-35.5 -10.5t-26 -21.5v-4q12 -35 115 -35q31 -2 102 -2
q84 0 133 2h8q10 0 30.5 -5t25.5 -5q14 0 22 8q33 9 33 24q0 17 -55 35q-18 2 -68 19l-47 28q-20 38 -20 76v10q12 61 12 78v12q-8 58 -8 88q0 33 8 95q4 14 4 55q0 22 -2 63t-2 52v12q4 10 4 45q0 16 -6 65.5t-6 57.5q0 48 34 82q9 7 70 21t68 20q4 14 4 28q0 17 -4 19v12
q-41 6 -273 6q-2 -1 -18 -11.5t-27 -16.5l-14 -68q-18 -18 -37 -55l-8 -41q-4 -7 -20.5 -33t-26.5 -45q-29 -114 -90 -281q-24 -39 -68 -141q-6 0 -10 -4q-41 5 -94 123l-60 168q-14 27 -55.5 111t-71.5 143q-2 6 -6 21.5t-6.5 23.5t-7 22t-8.5 22l-9 18t-11 16t-13 10
q-18 13 -135 26q-102 13 -160 13l-37 -31q0 -37 6 -49q6 -28 80 -43q83 -23 100 -31q7 -49 7 -63q0 -56 -19 -156l8 -63q-18 -62 -18 -183v-112q-12 -49 -12 -156l-33 -41q-6 -6 -21 -9.5t-39.5 -5.5t-29.5 -3l-37 -31q0 -22 14 -47q32 -8 57 -8q14 0 119 10q15 0 35.5 2
t28.5 2q10 0 25 -2t20 -2q20 -2 55 -2q45 0 60 10l3 3q4 3 6 5.5t5 7.5t4 11q-24 24 -55 24q-12 1 -23 3.5t-18 5t-18.5 9.5t-16 10t-20 14.5t-21.5 15.5q-14 206 -14 237q0 60 12 100q18 106 18 158q0 28 -8 74q14 14 19 18h4q14 -5 26 -20t16.5 -25.5t13.5 -38.5t11 -34
q36 -58 105 -191l65 -186q56 -152 90 -164z" />
    <glyph glyph-name="N" unicode="N" horiz-adv-x="1251" 
d="M190 805q0 -8 -6 -51t-6 -58q0 -21 8 -41q4 -10 4 -41q0 -35 -18 -141l6 -55q0 -94 -10 -176q0 -1 -2 -10.5t-2 -16.5q0 -4 2 -18.5t2 -24.5v-18q0 -30 -12 -45q-15 -41 -123 -68q0 -15 26 -41q169 0 369 -8q7 15 23 18q0 24 -19 58h-41q-90 0 -108 18q-33 26 -33 252
q0 108 4 176q0 1 -1 12t-3 33.5t-4 46.5v31q0 33 8 49v19q0 25 10 40q60 -6 115 -79q22 -33 86 -115l170 -162q35 -40 88.5 -115.5t62.5 -87.5q25 -18 107 -100q27 -35 123 -145q17 0 39 14l2 4q0 101 -4 195q-2 84 -2 192q0 200 24 309q4 8 4 31q0 5 -10 45v74q0 21 3 36
t10.5 24.5t11.5 13.5t16 10.5t14 7.5h15q75 0 75 53q0 15 -18 47l-158 -14l-141 10q-43 0 -70 -18q-2 -1 -5 -5t-8 -10t-9 -10q2 -3 10 -41q2 -1 18.5 -7.5t30.5 -10.5h10q17 0 31 2h10q8 0 16 -2t13.5 -5t16 -8.5t18.5 -9.5q4 -39 4 -127l-8 -59v-82q0 -32 1 -59.5t2 -42
t1 -15.5q0 -33 4 -96v-33q0 -37 -4 -45q0 -22 -10 -49q-71 6 -201 182q-18 14 -94 90q-34 42 -178 238l-86 80q-21 30 -50 78q-33 48 -65 59q-3 3 -109 6q-45 4 -104 4h-23q-13 -5 -36 -28q6 -27 10 -35q8 -11 68.5 -28t70.5 -36q18 -32 18 -65z" />
    <glyph glyph-name="O" unicode="O" horiz-adv-x="1124" 
d="M78 291q30 -34 49 -68q94 -162 242 -223q113 -49 200 -49q25 0 45 8q152 44 224 92q73 52 149 168q82 82 82 240q0 71 -18 159q-48 172 -185 281q-142 115 -352 115q-19 -15 -97 -33.5t-89 -24.5q-176 -84 -269 -350q-10 -42 -10 -88q0 -68 19 -139q0 -20 10 -88z
M231 655q62 164 187 224q59 7 129 30h16q161 0 256 -135q86 -122 86 -301q0 -168 -71 -287q-76 -134 -205 -155q-20 -4 -62 -4q-242 0 -336 282l-8 109l-4 10q-10 62 -10 104q0 65 22 123z" />
    <glyph glyph-name="P" unicode="P" horiz-adv-x="862" 
d="M158 891q14 -69 14 -117q0 -29 -4 -41q-2 -23 -2 -47v-8q10 -62 10 -74v-12q-10 -46 -10 -78v-12q6 -75 6 -142q0 -36 -2.5 -125.5t-3.5 -138.5q-2 -2 -8.5 -11.5t-14 -18.5t-16.5 -17l-59 -12q-7 -7 -37 -27q7 -31 41 -37h75q123 17 166 17q55 0 86 -21q3 0 41 19l4 2
q0 5 5 10q-3 17 -12 25.5t-29 11.5q-47 5 -60 18q-37 25 -37 172q0 98 11 179q10 4 32 4q15 0 72 -11l70 -22h16q38 0 98 21.5t80 43.5q49 47 92 127q2 14 23 90q8 36 8 52q0 75 -59 157q-55 69 -172 107l-195 16q-26 -2 -38 -19l-1 -3q-12 1 -71 5t-101 9q-20 -8 -49 -8
q-29 6 -78 12q-10 -10 -29 -18q0 -21 23 -54q13 -2 30 -5.5t42 -9t43 -9.5zM322 727v123q4 8 20 18.5t31 19t16 9.5q110 0 152 -10q53 -23 85.5 -81.5t32.5 -127.5q0 -64 -28 -115q-44 -67 -115 -82q-40 -12 -78 -12l-98 4q-6 6 -29 19v108q0 84 11 127z" />
    <glyph glyph-name="Q" unicode="Q" horiz-adv-x="1146" 
d="M969 -297q-91 26 -183 96q-111 79 -127 152q16 15 72 38t66 29q149 94 241 250q16 13 19 51q13 59 16 60q14 57 14 121q0 156 -108 309q-94 132 -223 178q-46 15 -224 29q-14 -7 -71 -12t-70 -11q-6 -9 -12 -24h-41q-5 -7 -20 -20t-23 -21q-41 -7 -112 -90t-105 -179
q-1 -8 -8.5 -43.5t-13 -75.5t-5.5 -75q0 -130 64.5 -246t167.5 -182q24 -16 104 -64q35 0 86 -22q6 -8 23 -53.5t26 -53.5q56 -88 234 -159q181 -72 309 -72h18l37 29q-9 35 -18 49zM399 72q-66 45 -116 133q-40 91 -60 182v86q-8 36 -8 55q0 40 12 78q63 200 191 273
q11 6 65 16t68 20q164 0 262 -115t98 -290q0 -68 -18 -141q0 -48 -23 -133q-70 -174 -297 -226q-8 -2 -22 -2q-60 0 -152 64z" />
    <glyph glyph-name="R" unicode="R" horiz-adv-x="993" 
d="M197 829l-13 -102l4 -31q5 -23 5 -71v-33q-5 -79 -5 -119q5 -74 5 -137q0 -56 -5 -64q0 -3 -2 -12.5t-2 -17.5q0 -6 2 -22.5t2 -29.5q5 -22 5 -45q0 -16 -5 -26q-1 -16 -13 -29.5t-34 -24t-40 -17t-46 -15.5l-8 -2q7 -27 19 -49q10 -5 30 -5q23 0 64.5 7.5t50.5 7.5
q28 0 80 -7.5t61 -11.5h31q67 0 88 27q4 4 4 8q0 10 -17.5 29t-27.5 22h-43q-8 12 -41 45q-8 126 -8 168q0 130 27 183q10 4 24 4q66 0 105 -64q45 -95 71 -141l23 -18l18 -54q35 -52 68 -110l2 -6q21 -66 45 -76q22 -11 201 -17q20 19 30 27q0 38 -49 63q-64 36 -74 46
q-27 34 -71 127q-50 93 -66 129q-40 51 -76 108v8q7 18 31 25l37 16q69 38 96 133q13 29 13 60q0 83 -50 153q-76 125 -282 125q-80 0 -146 -10q-4 0 -19.5 -2t-25.5 -2q-8 0 -28 2t-35 2q-79 10 -123 10q-14 -6 -41 -18q-2 -10 -2 -25q0 -12 2 -16q12 -35 72 -41
q66 -3 69 -25q13 -20 13 -39zM365 852q2 12 8 19.5t17.5 14.5t15.5 11q94 0 158.5 -53.5t64.5 -138.5q0 -42 -23 -99q-5 -13 -23 -28t-38.5 -28.5t-24.5 -17.5q-102 0 -119 -10q-21 0 -55 21v90q0 197 19 219z" />
    <glyph glyph-name="S" unicode="S" horiz-adv-x="735" 
d="M182 10q79 -24 170 -24q200 0 293 147l4 4q1 1 8.5 12t11 17.5t7.5 21.5t4 31q0 36 1 59.5t1 28.5v21q-6 124 -168 217q-130 76 -246 133q-16 11 -40.5 56.5t-26.5 47.5q0 69 37 101q27 21 104 37q28 8 33 8q14 0 18 -8q44 0 88 -23.5t58 -54.5q2 -2 13.5 -40t31.5 -46
q4 0 12 -4q2 4 18 12q15 70 15 115q0 47 -15 71q-26 74 -254 74h-32q-8 -8 -39 -14q-41 0 -43 -4q-40 -10 -84 -55t-66 -91q-14 -31 -14 -92q0 -67 28.5 -131.5t71.5 -95.5q14 -14 164 -95q4 -2 74 -51q135 -73 135 -182q0 -69 -49 -104q-11 -9 -23.5 -17.5t-13.5 -9.5
q-4 -4 -86 -23q-14 -4 -45 -4q-63 0 -116.5 35t-80.5 84l-26 117q0 6 -15 18l-16 8q-8 0 -14 -9.5t-7 -10.5q-20 -92 -20 -123q0 -41 12 -59q0 -18 6 -32.5t13 -23t23.5 -17.5t25.5 -12t31 -10.5t28 -9.5z" />
    <glyph glyph-name="T" unicode="T" horiz-adv-x="1013" 
d="M41 733l8 -6q6 -1 18.5 -3.5t16.5 -2.5q16 0 16 33v16l13 35l84 82q41 4 98 4q41 0 45 -4q38 0 66 -8q12 -62 12 -187v-59q0 -61 -8 -119v-176q0 -29 4 -47v-15q2 -16 4 -36t3 -30.5t1 -14.5q0 -14 -7 -31.5t-9 -30.5q-14 -58 -48 -65l-18 -7q-35 0 -76 -18l-18 -6
q-4 -12 -4 -17q0 -20 30 -38q12 -5 29 -5q20 0 35 5q41 10 55 10l49 4l70 -4q59 -2 117 -2q75 0 102 18q3 0 8 10q-8 27 -18 37q-7 7 -19 13q-16 0 -34 -2.5t-21 -2.5q-11 0 -17 1t-13.5 4.5t-11.5 6.5t-16 12.5t-22 16.5q4 86 4 179q0 55 -4 59q4 16 4 59q0 54 -4 72
l-2 320v-97q0 141 29 191q23 4 67 4q119 0 213 -49q0 -3 2.5 -15t3.5 -17.5t4 -17t5.5 -18t6.5 -14t8.5 -11t10.5 -4.5q19 2 32 16.5t16 39.5v82q2 28 12 58.5t10 37.5q0 39 -33 45h-8q-37 0 -96 -33q-60 -26 -101 -26l-30 4q-48 12 -80 12q-17 0 -23 -2l-163 -6q0 6 -117 6
l-96 -4q-13 2 -58.5 30.5t-68.5 28.5q-22 -32 -50 -129q-10 -36 -27.5 -79.5t-19.5 -51.5v-6q0 -11 8.5 -21.5t20.5 -13.5z" />
    <glyph glyph-name="U" unicode="U" horiz-adv-x="1128" 
d="M123 901q1 -1 27 -14v-324q8 -78 8 -86q0 -9 -2 -20.5t-2 -14.5q-13 -67 -13 -137q0 -177 78 -246q64 -58 203 -86l33 4l51 -4q40 -6 90 -6q104 0 161 24t107 81q57 64 72 110q6 18 8.5 47.5t3.5 73t2 62.5q0 13 4 67.5t4 71.5l-8 74q0 10 2.5 21.5t7 24.5t5.5 17
q2 4 2 10q0 3 -1 10t-1 13l2 31q0 10 -2 14q-2 21 -4 40.5t-3.5 30t-1.5 15.5q0 25 9 47q6 35 53 59l78 39q8 11 8 25q0 23 -35 31q-126 8 -160 8q-123 0 -157 -27q-1 -2 -3 -4t-5.5 -6t-6.5 -8q0 -18 13 -31q3 -23 28 -23q34 -3 47 -8t33 -22l6 -6q19 -93 19 -215
q0 -138 -19 -250v-164q-56 -156 -164 -191q-37 0 -122 -10h-15q-41 0 -82 10q-103 33 -141 101q-35 56 -35 172v-2q1 0 3 19.5t3.5 64.5t1.5 100v324q0 36 11 45.5t49 9.5q27 0 65 25l15 24q-1 27 -2.5 36.5t-8 17.5t-20.5 10q-30 0 -112 -6.5t-101 -6.5l-92 -10
q-28 14 -45 14q-19 0 -19 -22v-6q0 -2 15 -31q25 -32 55 -37z" />
    <glyph glyph-name="V" unicode="V" horiz-adv-x="1062" 
d="M829 891v-21q0 -29 -28 -118q-5 -12 -33 -93q0 -2 -4 -11.5t-9 -21t-7 -16.5q0 -8 -33 -67q-29 -47 -29 -70q0 -104 -53 -176l-19 -18q-6 3 -10.5 7t-7.5 7t-7.5 9t-5.5 8t-5 9.5t-5 8.5l-26 59q-25 64 -160 365q-49 107 -49 135v4q9 17 57 27t51 14q8 4 27 33
q0 22 -9 31.5t-18 9.5h-245l-56 8q-12 2 -32 2q-17 0 -21 -2h-51q-14 -7 -14 -21v-6q1 -13 7 -24.5t12.5 -18t21.5 -14.5t22 -11t26.5 -9.5t24.5 -8.5q14 -10 68 -100q16 -29 40.5 -109t29.5 -92q39 -75 145 -303q62 -160 127 -305q2 2 8.5 4t9.5 4q26 12 60 115l45 139
q66 126 137 274l4 13q53 140 117 297q12 31 56.5 73t45.5 64v8q0 25 -33 31h-49q-175 0 -245 -8q-26 -3 -37 -12t-11 -29q0 -23 16 -36.5t44 -13.5h6q46 0 69.5 -3.5t29 -8t5.5 -12.5z" />
    <glyph glyph-name="W" unicode="W" horiz-adv-x="1513" 
d="M154 756l82 -168q4 -35 18 -74q78 -175 156 -332q5 -13 14 -35t16 -39.5t11 -33.5q28 -66 63 -82q4 0 10 -2q97 126 203 356q22 -2 37 -14.5t21 -25.5t12 -34q6 -13 159 -290q8 2 15 5t12.5 8.5l10 10t8.5 13.5t6.5 14.5t5.5 17t4.5 17t5 18.5t4.5 18q19 34 92 187
q96 186 158 301q14 43 57 149q36 86 68 138q18 18 53 36l55 35q2 6 2 19q0 15 -6 18q-31 8 -141 14h-51q-60 0 -76 -8l-4 -4l-2 -6q0 -4 -2 -4q3 -26 14 -36t39 -15q4 -16 4 -49q0 -13 -2 -27t-7 -31.5t-8.5 -28t-13 -32.5t-12 -28t-14 -31t-12.5 -27q-9 -50 -21 -86
q-8 -5 -15 -10.5t-10.5 -9.5t-3.5 -5q-1 -1 -30 -67q-16 -66 -19 -72q-28 -69 -104 -193q-13 1 -24.5 6t-22 16.5t-18 20t-17.5 28.5t-14 29t-14 33.5t-13 30.5q-3 5 -15.5 27t-19.5 34.5t-13.5 32t-6.5 33.5q0 38 45 115q26 41 67 115q6 13 17.5 43t19 46.5t20.5 36.5
t27 31q11 7 67 24t68 23v7q0 22 -18 30q-47 3 -95 6.5t-67.5 5t-23.5 1.5l-80 4q-40 0 -45 -21q-2 -2 -2 -4q0 -3 2 -8.5t2 -7.5l86 -54q-7 -79 -45 -151l-78 -127q-40 6 -82 104l-8 15q-1 3 -3.5 9.5t-4.5 8.5l-5 8q-36 84 -43 88q0 13 3 24t10.5 19.5t13.5 14.5t18.5 12
t19 9t21 8.5t19.5 7.5q-6 35 -37 41q-4 4 -20 4q-19 0 -33 -4q-14 -2 -29 -4t-23.5 -3.5t-11.5 -1.5q-1 0 -3.5 1t-4.5 1q-100 11 -170 15q-37 0 -37 -23v-8q2 -21 24.5 -35.5t49 -25.5t33.5 -21q1 -5 2.5 -11t5 -13.5t6.5 -15t9 -18.5t11 -19.5t13.5 -23t14.5 -25t17 -29
t19 -31.5q30 -87 51 -133q30 -38 41 -64q19 -29 19 -57q0 -19 -4 -25q-6 -28 -24.5 -63t-56 -92t-44.5 -68q-18 1 -32.5 11.5t-25.5 33t-17 37.5t-15 45l-5 12q-1 3 -2 9t-2 8l-145 309q-19 66 -84 209v10q0 15 13.5 23t31.5 19t25 30v6q0 45 -48 45l-126 -14h-101l-8 -7
q-33 -17 -33 -34q0 -14 14.5 -37t36.5 -31q30 -7 41 -45q22 -67 54 -96z" />
    <glyph glyph-name="X" unicode="X" horiz-adv-x="1155" 
d="M195 27q29 0 69 -9l78 -4q62 0 135 13q4 4 6 10q-3 33 -63 45q-53 13 -62 31q-8 20 -8 32q0 21 27 68q44 78 147 193q11 -1 21.5 -6.5t17.5 -10.5t17.5 -18t14.5 -19l15 -22.5t13 -20.5l73 -94q52 -68 52 -102q0 -26 -21 -41q-49 -8 -86 -13q0 -8 -4 -18q4 -4 22 -31
q-2 0 7 1t30.5 3t48.5 4h41q53 0 183 -10q37 -4 86 -4q33 0 37 4l28 19q-6 48 -63 59q-79 14 -96 23q-16 10 -34 30.5t-30 38.5t-32.5 49t-30.5 45q-17 24 -127 164q-3 3 -14.5 16t-16 18t-13 17.5t-12 22t-7 24t-3.5 29.5q38 33 107 133l63 56q26 44 90 118q51 38 78 45h55
l49 35q0 25 -26 64q-34 0 -133 -17q-50 -6 -82 -6q-8 0 -21.5 1t-15.5 1l-117 21l-37 -31v-14l35 -35q41 -8 62 -14q2 -4 11.5 -15.5t14.5 -17.5q-7 -52 -74 -142l-96 -135q-47 5 -104 90q-8 13 -34 59t-42 70q-20 11 -47 58q-1 0 -8 10q4 4 22 31q46 0 111 22q0 32 -19 64
h-434q0 -3 -16 -8q0 -9 -2 -13q3 -37 28 -59q44 -4 86 -19q29 -16 56 -63l59 -70q21 -25 79.5 -96t96.5 -117q15 -27 56 -77q-4 -54 -74 -115l-12 -12q-66 -82 -127 -152q-82 -101 -146 -123q-7 -1 -33 -3t-47 -5.5t-35 -9.5q-2 0 -8 -13v-6q0 -16 13 -26h4q61 -9 82 -9
q16 0 86 9z" />
    <glyph glyph-name="Y" unicode="Y" horiz-adv-x="1148" 
d="M606 543q-47 14 -82 94l-123 164q-1 6 -5 13.5t-15 23t-16 22.5v10q0 18 15 28.5t33.5 14.5t35.5 13t20 24q-6 60 -68 60q-7 0 -56 -8.5t-66 -8.5q-23 0 -93.5 19t-81.5 20q-6 -2 -28 -11.5t-39 -14.5q-4 -9 -10 -19q0 -4 -4 -12q0 -1 3 -5t10.5 -14.5t14.5 -21.5
q9 -1 21.5 -5t30.5 -10l30 -10q32 -19 62 -75q49 -82 51 -82q12 -11 27.5 -29t39 -47t41.5 -51q2 -5 74 -133q28 -24 49 -50q6 -21 6 -155q0 -139 -10 -156l-33 -53q-47 -6 -116 -23q0 -1 6 -17t12 -30q118 16 182 19q150 -27 187 -27t67 10q8 25 10 39q-7 7 -20 29h-20
q-12 0 -74 8q-10 0 -49 27l-2 2v57l-4 32t-3.5 27.5t-1.5 24.5q0 75 11 150l-2 55q10 44 63 94q13 12 41.5 36t42.5 38q105 105 164 190q39 59 49 72q27 16 72 37q55 27 55 37q0 7 -20.5 22.5t-32.5 18.5q-50 8 -152 8q-118 0 -135 -17q-2 -5 -18 -10q0 -33 8 -41
q12 -18 22 -18h6q12 4 27 4t19 -4q6 -12 26 -25l4 -2q-1 -17 -11 -36t-20.5 -31.5t-28.5 -33t-26 -30.5q-12 -19 -41.5 -70.5t-48.5 -81.5q-31 -24 -82 -75z" />
    <glyph glyph-name="Z" unicode="Z" horiz-adv-x="978" 
d="M29 797v-11q0 -34 22 -34q33 5 74 67q43 66 86 78h100q109 0 170 12l39 -4l51 4q48 0 86 -30q-14 -71 -79 -125q-88 -76 -111 -99q-183 -258 -211 -286q-131 -175 -227 -273v-14q0 -30 10 -64l8 -10h574l188 -12q67 0 109 22q15 29 22 91l-4 32l4 68q0 57 -18 82
q-49 -6 -72 -64q-27 -80 -41 -94q-68 -59 -246 -59q-61 0 -110 12q-4 4 -31 4q-33 0 -60 -4h-28q-33 0 -53 10q-8 8 -29 23q0 54 70 127l98 104q220 303 487 570q0 37 -18 73q-32 8 -45 8q-2 0 -68 -8l-37 -2q-7 0 -15 1t-11 1q-33 8 -97 8q-63 0 -94 -8q-18 4 -84 4h-254
q-44 0 -59 27q-5 10 -12 10h-2q-18 -3 -23 -18l-35 -121q-24 -67 -24 -98z" />
    <glyph glyph-name="bracketleft" unicode="[" horiz-adv-x="581" 
d="M115 573l8 -122q0 -40 -14 -60q-33 -26 -78 -53v-47q11 -11 24 -23l13 -12q17 -17 47 -20q18 -114 18 -222q0 -110 -18 -204q4 -14 4 -56v-30q0 -56 18 -97q2 0 11.5 3.5t31.5 12t43 15.5q32 14 82 14q126 0 178 -49q37 0 41 19q2 0 8 12q-73 67 -163 90h-15
q-22 0 -68 -19.5t-59 -19.5h-4q-5 7 -28 35q0 98 10 205q8 36 8 69l-4 76q0 18 -2 47t-2 37q0 13 2 29.5t2 19.5q10 45 10 82l-10 172q0 10 2 23t2 18q2 14 2 70q0 15 -1 58.5t-1 72.5v59q0 97 18 123h7q13 0 94 -18h18q40 0 90 18q75 29 92 49q9 24 19 37q0 7 -19 51
q-43 0 -71 -14l-47 -27q-27 -6 -56 -6q-32 0 -125 23.5t-114 23.5q-23 -41 -23 -145q0 -44 10 -174q9 -111 9 -146z" />
    <glyph glyph-name="backslash" unicode="\" horiz-adv-x="446" 
d="M78 942l10 -74q8 -22 30.5 -126t37.5 -136q12 -164 55 -264q23 -47 43 -205q15 -136 43 -200q19 -46 31 -179q9 -115 47 -178q8 -8 31 -8q8 0 22 14q14 17 14 54q0 10 -2.5 31t-3.5 32l1 5q1 4 1 9q0 16 -11 52t-11 41q0 17 -10 78.5t-19 80.5q-18 52 -18 68l-27 213
l-23 67q-6 205 -81 398l4 14q8 8 8 23q0 10 -45 108q-5 13 -12 92q-3 53 -3 105q-1 9 -7.5 24t-13 27t-17.5 31t-15 26q-5 2 -13.5 8t-12.5 7q-22 0 -66 -6l-16 -64v-8q0 -43 49 -160z" />
    <glyph glyph-name="bracketright" unicode="]" horiz-adv-x="659" 
d="M492 391l8 297q-13 57 -13 94q0 25 5 45q18 126 18 170q-16 19 -23 37q-29 0 -127 -28q-61 -23 -92 -23q-12 0 -18 4q-76 29 -182 51q-13 -15 -18 -26t-5 -33l6 -6q30 -30 48.5 -46t48.5 -32t57 -16q18 0 78 9t67 9q19 0 23 -4q25 -4 28 -33q5 -5 5 -33q0 -31 -5 -75
q-1 -23 -1.5 -44.5t-1.5 -36t-1.5 -25.5t-0.5 -17l-1 -6q0 -79 6 -478v-63q0 -42 9 -195v-96q0 -59 -19 -78h-8q-13 0 -66 11q-70 16 -79 16h-7q-67 -18 -100 -35l-68 -59q0 -4 5 -19l6 -18q18 2 56 19t42 18q36 8 74 8q143 0 194 -45q22 0 47 14q5 5 5 98v7q1 6 1.5 18
t1 28.5t1 40t0.5 48.5v45q0 60 -4 78v209q43 34 86 81v37q-45 45 -86 78z" />
    <glyph glyph-name="asciicircum" unicode="^" horiz-adv-x="901" 
d="M506 1438q14 48 44 92.5t50 44.5q47 0 96 -137q6 -18 14.5 -37.5t20 -43.5t17.5 -38q14 -46 49 -105l4 -2q17 -10 55 -34q8 -24 8 -31q0 -27 -22 -27q-66 -4 -82 -4q-49 0 -68 8q-7 0 -41 19q5 31 27 45l10 8q11 27 17 41q-8 64 -54 137q0 5 -19.5 25t-31.5 20
q-16 0 -35 -22l-6 -13l-12 -10q-45 -86 -51 -155q0 -1 24.5 -25t30.5 -51l-2 -2q-31 -25 -111 -25q-47 0 -78 4q-22 0 -22 27q-2 4 -2 10q0 10 13.5 19.5t36 28t38.5 46.5q5 17 10.5 31.5t14 34t14 31t20 42t23.5 48.5z" />
    <glyph glyph-name="underscore" unicode="_" horiz-adv-x="1009" 
d="M770 63q-12 -10 -346 -16q-334 -3 -350 -14q-8 -4 -15 -12.5t-14.5 -19.5t-11.5 -15q23 -46 30 -58q183 -14 629 -14q170 0 178 14q18 12 45 39q5 17 5 41q0 21 -5 29q-53 26 -145 26z" />
    <glyph glyph-name="grave" unicode="`" horiz-adv-x="278" 
d="M291 1225q-28 47 -113 182q-45 53 -55 57q-27 21 -45 21q-5 -3 -13 -9.5t-21 -25t-13 -35.5q0 -10 2 -14q8 -24 57 -101q4 -8 84 -81q81 -50 102 -50h3q22 11 22 29q0 17 -10 27z" />
    <glyph glyph-name="a" unicode="a" horiz-adv-x="632" 
d="M129 467l55 111l76 10q9 0 33 -6q32 0 43.5 -25t11.5 -74q0 -53 -10 -65q-8 -19 -35.5 -36t-51 -25.5t-63.5 -20.5l-10 -4q-45 -23 -94 -94q-47 -73 -47 -146q0 -36 10 -59q27 -49 64 -60q118 0 204 86q22 -9 74 -55q35 -41 68 -41l14 4q27 2 86 78l4 4q8 4 14 23v14
q0 20 -10 23q-11 0 -30 -13q-41 -41 -52 -41q-8 0 -14.5 15t-11.5 34t-8 23v242q0 141 -3 223q-9 55 -35.5 72.5t-95.5 17.5l-47 -6l-102 -35l-19 -12q-31 -20 -47 -35t-20 -23.5t-12 -27t-19 -35.5l-12 -14q-3 -13 -8 -25q0 -13 30 -51q25 0 39 9.5t31 39.5zM342 236v-62
q0 -20 -21.5 -50t-41.5 -46l-41 -6l-45 2q-10 1 -20.5 10t-12.5 16q-1 6 -5 19.5t-7 27.5t-5 27q0 62 60 102q19 10 51 31.5t47 30.5q22 -7 37 -14q4 -18 4 -88z" />
    <glyph glyph-name="b" unicode="b" horiz-adv-x="811" 
d="M59 1020l-4 -14l56 -19l4 -55v-395q14 -57 14 -127q0 -68 -14 -134l8 -90q-12 -128 -21 -186q26 -23 41 -23q23 0 68 54q20 -2 92 -20.5t94 -18.5q90 0 187 63q70 47 118 113q14 26 32 92t18 98q0 90 -86 189q-73 79 -156 100q-53 12 -100 12q-83 0 -121 -30
q-27 10 -39 19.5t-12 25.5v8l2 14q2 15 2 31v59q0 4 2 28.5t2 45.5v86q0 60 2 64q0 44 -37 47q-12 8 -41 8q-12 -9 -49 -20t-43 -11zM238 514q5 15 11 24.5t10 11.5t11 5l27 14q136 0 227.5 -64t91.5 -173q0 -47 -10 -78v-45q-24 -59 -80 -100t-120 -41q-10 -5 -19 -5
q-18 0 -37 9t-36.5 25t-30.5 29t-27.5 31t-17.5 21v72q0 111 4 170q-4 27 -4 94z" />
    <glyph glyph-name="c" unicode="c" horiz-adv-x="595" 
d="M543 563l-4 -8q-17 -30 -60 -33q-72 63 -141 74q-1 0 -37 -8q-73 -26 -127 -111q-33 -59 -33 -131q0 -82 37 -152.5t96 -101.5q39 -20 80 -20q22 0 90 16t84 16l9 -4l2 -13v-1l-7 -18q-35 -91 -178 -91q-71 0 -141.5 24.5t-99.5 59.5q-90 103 -90 240q0 221 167 336
q22 15 94 31t85 24q43 0 155 -33l13 -18q14 -25 14 -72z" />
    <glyph glyph-name="d" unicode="d" horiz-adv-x="776" 
d="M500 51q26 -23 45 -47q8 -8 33 -8q90 0 131 35q2 1 4 3.5l6 7.5t8 9v8q-3 5 -9 9.5t-16 8.5t-17.5 6.5t-21 6.5t-18.5 6q-10 75 -10 199v55q0 104 18 152v307q0 16 2.5 54.5t3.5 56.5q17 58 17 81q0 32 -31 82q-54 13 -96 13q-14 -7 -45.5 -15t-51 -17.5t-22.5 -25.5
q0 -30 51 -59q29 -10 42.5 -25t13.5 -30q0 -13 -2 -19q-5 -23 -5 -35q4 -26 11 -110v-33q0 -31 -2.5 -50t-4 -24.5t-9 -16t-9.5 -13.5l-35 10t-47 14h-16q-48 0 -96 -14q-112 -25 -195.5 -113t-83.5 -188q0 -33 20 -109q26 -91 106 -145.5t183 -54.5q75 0 148 28zM266 551
q20 5 78 22h29q39 0 45 -4q43 -3 69 -23.5t39 -62.5q11 -40 11 -182q0 -105 -2 -119q-12 -64 -54 -73q-10 -13 -45 -13q-56 0 -100 17q-69 28 -115 82q-59 62 -59 151q0 62 29.5 123t74.5 82z" />
    <glyph glyph-name="e" unicode="e" horiz-adv-x="708" 
d="M504 377q-18 6 -33 6l-53 -4q-5 0 -12 2t-11 2q-61 12 -123 12q-46 0 -69 -4q-19 -29 -19 -59v-15q0 -27 15 -79q69 -134 190 -134q50 0 123 37q55 24 70 27q5 -11 12 -14h4q10 -7 10 -23q0 -11 -10 -41l-4 -2q-83 -65 -113 -84q-62 -27 -119 -27q-34 0 -108 19
q-81 27 -139 124.5t-58 211.5v22q0 92 65.5 191.5t153.5 120.5q18 0 54 16h14q148 0 213.5 -62t65.5 -202q-17 -38 -48 -41h-71zM436 578q-15 6 -33 6l-59 -6q-114 -21 -127 -101q11 -22 41 -22h14q33 2 75 3.5t52 2.5q85 18 90 63q-6 42 -53 54z" />
    <glyph glyph-name="f" unicode="f" horiz-adv-x="557" 
d="M74 72l-45 -31q3 -20 11 -28t34 -21h8q19 0 74 12h55q82 0 117 -4q20 -8 24 -8q25 0 31 39q-6 29 -41 41q-23 5 -36 11t-17.5 9.5t-13.5 15.5t-15 19q0 47 -4 100v119q0 154 31 205q20 4 51 4q23 0 27 -4h18q25 0 41 8q18 18 18 33q0 6 -8 18l-4 19q-36 8 -47 8
q-23 0 -47 -12l-2 -2q-37 0 -74 22v33q0 243 78 264q8 4 18 4q14 0 27 -5.5t29 -16t22 -13.5h64q45 45 45 82q0 26 -15 41q-16 41 -116 41h-29q-5 0 -96 -61q-57 -38 -82 -82q-53 -121 -53 -232v-41q0 -38 -50 -49q-43 -6 -43 -26v-2q1 -12 7 -19.5t12 -7.5h4q15 0 25 -3
t13.5 -5t12 -11.5t10.5 -11.5q0 -66 4 -125q0 -55 5 -272q-13 -29 -46 -55h-32z" />
    <glyph glyph-name="g" unicode="g" horiz-adv-x="739" 
d="M260 -391h105q4 5 11.5 10t18.5 11t17 10q126 53 131 55q60 31 91.5 84t31.5 102q0 55 -43.5 102.5t-106.5 73t-123 25.5q-37 0 -74 -4l-40 -4l-31 4q-32 6 -55 22q-7 7 -11 19q3 71 115 74q146 6 172 22q57 38 82 123q27 125 43 158q30 5 90 28q14 21 14 31q0 5 -2.5 10
t-3.5 8q-14 31 -57 31q-13 0 -29 -2t-22 -2q-8 0 -17 2t-10 2q-6 3 -47.5 31t-79.5 42.5t-84 14.5q-27 0 -41 -4q-14 -9 -64 -24.5t-59 -22.5q-86 -62 -86 -201q0 -127 82 -186q-1 -16 -6.5 -28t-17 -19.5t-20 -11t-26 -9t-24.5 -8.5q-9 0 -37 -28q6 -83 94 -136
q-6 -47 -45 -69q-65 -24 -78 -37q-18 -18 -34 -76.5t-19 -62.5q6 -160 295 -160zM238 537q7 19 39.5 43.5t46.5 29.5q67 -3 111 -63.5t44 -140.5q0 -75 -39 -122.5t-110 -47.5h-6q-19 3 -43 18l-2 2q-60 57 -60 186q0 52 19 95zM207 -45q10 5 31 12q224 0 309 -49
q6 -10 37 -41q-3 -81 -100.5 -145t-213.5 -64q-68 0 -118 27q-12 6 -74 74q0 65 37 119t92 67z" />
    <glyph glyph-name="h" unicode="h" horiz-adv-x="851" 
d="M156 891q18 -113 18 -186l-10 -173v-141q0 -37 -4 -49q0 -1 -2 -16t-2 -29q0 -8 2 -35.5t2 -48.5v-41q0 -37 -7.5 -59.5t-20 -32t-26 -14t-28 -11t-23.5 -18.5h-4q6 -8 31 -37q156 8 178 8q66 0 70 -8q26 0 67 27v22q0 10 -14 10q-7 2 -19.5 6t-20 6t-18.5 5.5t-17.5 6.5
t-12.5 6.5t-9 7t-3 7.5q-9 61 -9 127l-14 101q4 118 41 170q8 16 53 37.5t47 23.5q61 0 97 -8q42 -12 77 -59q1 -4 5 -12.5t7.5 -19t6.5 -22.5l-10 -133l8 -94v-33q0 -46 -12 -73q-11 -13 -35 -25.5t-41 -20.5t-17 -14q7 -38 37 -41q2 0 7 -2t8 -2t14 2t20 2q41 2 84 2
q49 0 72 -10q25 0 40 14.5t15 30.5q0 6 -4 10q-1 9 -13.5 14.5t-27 8t-27.5 12t-14 25.5q0 72 4 127q5 69 5 123q0 243 -142 282q-36 8 -49 8q-73 0 -164 -63q-20 -8 -28 -8q-20 0 -31 16q-10 10 -10 78v49l18 279q0 27 -18 41q-4 4 -23 4q-15 0 -27 -4q-32 -14 -114 -31
q-49 -3 -49 -43v-8q7 -32 86 -74z" />
    <glyph glyph-name="i" unicode="i" horiz-adv-x="391" 
d="M145 827h15q54 0 77.5 10t34.5 42l15 14l4 12q0 54 -28.5 83t-80.5 32q-32 -13 -49 -23q-47 -29 -47 -100q9 -51 59 -70zM317 -4q3 7 19 12q-5 30 -31 37q-22 5 -33.5 10t-15.5 7t-12 12.5t-13 15.5v397q0 1 6.5 22t12.5 46t6 37q0 17 -2 26t-12 17t-29 10
q-32 -28 -76 -41q-63 -24 -82 -39q-24 -14 -24 -24q0 -11 6 -17q18 -21 67 -55q19 -85 19 -178q0 -72 -8 -105v-22q0 -39 -11 -82q-17 -23 -49 -39t-45 -29q7 -7 17 -22q99 -6 151 -6q119 0 139 10z" />
    <glyph glyph-name="j" unicode="j" horiz-adv-x="352" 
d="M211 846l49 37q14 25 14 49q0 13 -8 29q-3 39 -43 55q-18 12 -63 12l-6 -4q-19 -10 -29 -17.5t-19.5 -23.5t-9.5 -37v-14q6 -30 15 -39q19 -47 86 -47h14zM125 -328l53 68q10 13 18 28.5t14 36.5t10 38t7.5 46t5 46.5t4.5 53t5 52.5q6 74 6 358q0 31 12 133q4 31 4 74
q0 39 -4 53q-20 23 -35 23q-19 0 -36 -15q-3 -3 -1 -3q-14 -17 -86 -23q-59 -6 -73 -37q-4 -8 -4 -20q0 -7 22 -29q18 -2 37.5 -19t28.5 -30t12 -19q0 -4 -1 -20.5t-1 -26.5q0 -9 1 -31.5t1 -39.5q12 -41 12 -154q0 -297 -26 -356q-1 -3 -7 -37t-12 -58q-35 -56 -112 -110
l2 -4q9 -26 18 -41q30 0 66.5 19t58.5 44z" />
    <glyph glyph-name="k" unicode="k" horiz-adv-x="811" 
d="M133 854l-2 -39q2 -6 2 -33t-2 -45q-4 -33 -4 -67l18 -283q0 -22 -3 -44t-8 -49.5t-7 -37.5v-10q0 -15 3 -51t3 -41q0 -17 -6 -35q-6 -40 -94 -86q2 -7 4 -19t4 -18q8 0 10 -4l217 -2q20 -8 29 -8q28 0 41 26v6q0 8 -3.5 14.5t-25 22.5t-63.5 39q0 21 -2 48.5t-2 35.5
q0 10 1 20t2 16l1 5q0 44 26 61q5 3 11 7l190 -191q-6 -35 -55 -59q-2 -3 -4 -10t-4 -9q12 -12 14 -18q8 -4 37 -4q40 0 67 4h23q46 0 92 -9.5t72 -9.5q6 7 28 25q0 2 2 2q-3 11 -11 22.5t-15.5 19.5t-23.5 19t-24.5 16.5t-29.5 17.5t-27 16q-30 20 -112 112
q-46 59 -107 115v8q0 66 123 127q90 36 189 86q10 5 26 21l-6 30q-64 23 -131 23q-62 0 -160 -14l-4 -17q0 -17 11.5 -44t11.5 -30q0 -9 -9 -18q-14 -38 -69 -72q-64 -33 -86 -59q-8 8 -45 27q0 269 14 346q-2 7 -6 49q12 56 12 135v92q0 3 1 8t1 7q0 18 -26 28h-37
q-39 0 -60 -18l-114 -74q1 -14 14.5 -21t30 -9.5t32 -20.5t19.5 -53q6 -6 6 -25z" />
    <glyph glyph-name="l" unicode="l" horiz-adv-x="436" 
d="M72 -8q33 -2 102 -2q8 -2 25 -2l37 2q7 0 23 -3t22 -3l8 2q51 3 80 22q0 12 -2 21.5t-6.5 15.5l-7.5 10t-10.5 6.5t-10.5 3l-12 2t-11 1.5l-43 4l-4 14q-8 54 -8 82q0 36 6 70q-2 10 -6 75q0 49 10 156q-4 14 -4 59v35q8 50 8 125q8 119 8 121q3 0 3 74q0 56 16 69v21
q0 43 -23 84q-3 2 -9.5 3t-15.5 2t-16 3q-9 -7 -43.5 -14t-42.5 -13q-75 -42 -86 -47q-7 -7 -10 -22q4 -32 25 -57t39 -44t18 -39q0 -14 -4 -20l-4 -35q0 -3 2 -7.5t2 -6.5q6 -40 6 -96q0 -18 -3 -61.5t-3 -70.5v-65q0 -121 4 -150q6 -60 6 -86q0 -55 -10 -75
q0 -27 -7.5 -46t-24 -31.5t-28 -18t-34.5 -13.5l-17 -14l-2 -17q0 -8 11 -14q24 -12 34 -12z" />
    <glyph glyph-name="m" unicode="m" horiz-adv-x="1196" 
d="M14 51v-10q0 -31 31 -45q9 -6 78 -6h55q116 3 123 10q1 1 5.5 12t10.5 15q-4 21 -24.5 35.5t-42.5 25.5t-27 21q-8 28 -8 96q0 85 4 153q4 47 4 101v18q42 49 53 60q14 0 48 18h118q76 -28 76 -168q0 -68 -16 -141q0 -18 16 -78v-8q0 -9 -26 -78q-42 -9 -97 -41
q-4 -4 -4 -14q0 -8 10 -31q8 -4 45 -4q56 0 97 4h35q74 0 96 -19q12 1 22.5 6t16 8.5t16 12t12.5 10.5v13l-4 4q-70 58 -112 69q-7 63 -7 68l11 174v90q0 55 16 74q30 53 119 53q121 0 145 -82q15 -24 15 -104q-6 -247 -33 -281q-12 -30 -22.5 -36.5t-33.5 -8.5t-47 -14v-10
q9 -9 21 -27q30 -10 84 -10q18 0 56.5 2.5t51.5 3.5q18 -9 72 -15q4 3 16.5 11.5t20.5 15.5q0 2 2.5 5.5t3.5 4.5q-7 27 -17.5 44t-20.5 22t-20 9.5t-17.5 9t-12 18t-4.5 37.5q0 6 4 14l6 68q4 14 4 40q0 19 -4 25q4 23 4 76q0 63 -4 100q-22 109 -61 148q-51 57 -162 57
q-101 0 -182 -78q-37 0 -64 21q-10 8 -21 16.5t-16 12t-6 5.5q-34 15 -80 15q-100 0 -151 -51q-21 0 -36.5 13t-28.5 30t-25 22h-4q-65 0 -134 -125q-2 -2 -7 -12l-7 -14q17 -13 57 -70q6 -6 7 -8q0 -2 -9 -90v-154q-6 -100 -26 -123q-1 0 -8.5 -5.5t-22.5 -15.5t-33 -20z
" />
    <glyph glyph-name="n" unicode="n" horiz-adv-x="811" 
d="M195 -8h114q11 12 29 22q-1 25 -25.5 49t-52.5 45t-33 33q0 4 -2 23.5t-2 36.5q0 13 2 55t2 68q0 137 15 172q3 3 8 9t12.5 15.5t13.5 16.5q16 4 74 26q111 0 150 -71q45 -87 45 -156l-21 -217q-20 -20 -104 -68q0 -6 -2 -10q0 -8 22 -45q66 8 125 8q67 -12 109 -12
q27 0 33 4q2 0 5 2l10.5 7t14.5 9q0 32 -46.5 78t-49.5 58l6 55l-18 336q-19 58 -76 95.5t-133 37.5q-5 -5 -58 -19.5t-67 -29.5q-41 6 -80 39q-48 0 -102 -41q-23 -27 -72 -76q7 -27 25.5 -48t32.5 -36.5t14 -34.5v-10q0 -31 -4 -58v-165q0 -65 -19 -103q-18 -2 -57 -33
q0 -15 -10 -32q6 -24 36 -31q8 -4 136 -4z" />
    <glyph glyph-name="o" unicode="o" horiz-adv-x="733" 
d="M262 -4q44 -23 105 -23q84 0 156.5 56.5t112.5 143t40 177.5q0 155 -96 252.5t-250 97.5h-8q-25 -7 -72 -26q-145 -74 -201 -205q-10 -23 -10 -70v-39q0 -64 10 -106q41 -156 213 -258zM281 573q30 7 67 23q35 0 79.5 -21.5t57.5 -46.5q56 -71 56 -223q0 -51 -14.5 -92
t-29 -60t-48.5 -57l-13 -14q-18 -4 -55 -4q-86 0 -132.5 42.5t-72.5 135.5q-10 34 -10 86q0 82 34 149.5t81 81.5z" />
    <glyph glyph-name="p" unicode="p" horiz-adv-x="784" 
d="M117 -428q47 8 71 10h19l145 -14q29 29 29 41t-2 18q-21 31 -49 31q-19 1 -30.5 2.5t-19.5 4.5t-11.5 5t-11.5 8t-13 9q-8 54 -8 112v109q0 62 -7 106q4 8 33 37q17 0 73 -20.5t77 -20.5q60 0 149 58q93 58 119 106q29 63 29 162q0 157 -50 227q-27 38 -98 74.5
t-135 36.5q-27 0 -37 -4q-11 -3 -32 -11t-37 -13t-27 -5q-13 0 -17 4q-17 17 -28 25l-4 41q-3 0 -19 8q-49 -7 -100 -41q-78 -53 -100 -55q0 -8 -5 -13q0 -13 3 -22t10.5 -14.5t12.5 -7.5t17.5 -6t16.5 -5q6 -12 31 -31q0 -147 4 -268q2 -106 2 -270v-95q4 -45 4 -104
q0 -53 -10 -70q0 -16 -6 -27.5t-21 -20t-23 -12t-31.5 -10t-27.5 -7.5q-1 0 -14 -23v-4q1 -17 6 -23.5t33.5 -12t89.5 -5.5zM229 524q12 10 37 31h15q149 0 225 -57t98 -185l4 -26q0 -97 -141 -174q-42 -23 -82 -23q-26 0 -41 10q-20 0 -35.5 5.5t-27.5 18.5t-18.5 22
t-18 30.5t-15.5 28.5v319z" />
    <glyph glyph-name="q" unicode="q" horiz-adv-x="751" 
d="M731 -410q10 13 10 23q0 15 -18.5 26t-42.5 17.5t-25 7.5q-24 84 -24 244q0 100 10 151l-4 60q-4 23 -4 67q0 75 16 146v6q0 11 -12 41q0 4 -2 15t-2 16q0 24 10 92q19 106 31 121q-3 15 -25 51h-18q-7 -4 -17.5 -13t-26 -23t-28.5 -24q-9 1 -90.5 30.5t-118.5 29.5
q-117 0 -223 -115q-109 -118 -109 -231v-19q0 -67 37.5 -134.5t99 -112t124.5 -44.5q45 0 136 16.5t99 16.5q23 -54 23 -237q0 -58 -2 -87.5t-12 -47.5t-19.5 -23t-36.5 -14q-48 -15 -53 -41q-2 -6 -2 -15q0 -10 2 -14q6 -12 30 -12h84l41 -2l25 8l14 -8q110 3 123 32z
M182 500q28 44 99 78q4 2 21 6t30 8q10 0 25 2t20 2q9 0 29 -8q66 0 100.5 -54t34.5 -151q0 -23 -9 -88q0 -1 -2 -10t-2 -17q0 -6 2 -23t2 -30v-14q0 -16 -1.5 -27.5t-7 -22t-9 -15.5t-14 -17t-15.5 -19h-116q-95 27 -156 97q-74 74 -74 168q0 68 43 135z" />
    <glyph glyph-name="r" unicode="r" horiz-adv-x="550" 
d="M301 -4q53 0 94 27q4 8 4 18q0 20 -41 27q-20 4 -34 7t-23 5.5t-18.5 8t-13 8t-15.5 12t-18 14.5v242q-5 -14 -5 -37q6 145 29 168q2 6 8.5 11.5t17.5 11.5t15 9q13 0 68 -10q41 -12 73 -12l54 57v10q0 64 -64 86q-21 7 -37 7q-13 0 -54.5 -16.5t-57.5 -16.5h-11
q-16 8 -41 59q-4 2 -14.5 4t-15.5 4q-2 -2 -11.5 -9.5t-29.5 -23.5t-41 -34q-59 -53 -64 -70v-8q0 -18 29.5 -51.5t30.5 -38.5q4 -10 4 -29v-16q-4 -29 -4 -47v-260q-4 -19 -30.5 -36t-50.5 -29t-24 -21v-4q0 -24 27 -33h14q27 0 82 6q91 12 121 12q32 0 47 -12z" />
    <glyph glyph-name="s" unicode="s" horiz-adv-x="497" 
d="M197 -8q160 0 221 98q24 33 24 88q0 28 -6 58q-10 38 -29 68t-48.5 53t-56 38t-66.5 33l-41 18q-6 6 -20.5 16t-25 21t-16.5 27q-4 12 -4 16q0 15 9.5 27.5t27 26t20.5 16.5l86 18q30 -1 46 -18t18 -36.5t8.5 -36t20.5 -17.5q4 2 12 2q17 0 29 16v54q0 34 -3 50.5
t-6.5 21t-13.5 9.5l-6 5q-13 7 -19 18q-42 10 -75 10q-17 0 -54.5 -8t-46.5 -10q-34 -10 -54.5 -21.5t-53.5 -38.5q-10 -8 -23.5 -49t-19.5 -47q0 -106 61 -158q5 -4 20.5 -11.5t47.5 -22.5t59 -29q79 -30 98 -88q17 -26 17 -57l-4 -39q-19 -50 -58 -50q-10 0 -27 -2t-22 -2
q-6 0 -13.5 2t-8.5 2q-51 0 -88 46q-5 4 -12 14.5t-19.5 31t-22.5 35.5q-10 0 -22 -4q-1 -5 -12 -13.5t-13 -25.5q-6 -18 -6 -20l4 -76q14 -32 68 -45.5t119 -13.5z" />
    <glyph glyph-name="t" unicode="t" horiz-adv-x="491" 
d="M133 27q16 -16 82 -41q59 -27 98 -27q13 0 26 3.5t21 6.5t21 13t17 13t18.5 17t15.5 15q0 17 -22 36q-4 0 -22 -2t-28 -2q-8 0 -28 2t-35 2l-59 37q-19 101 -19 197q0 81 12 143v19q0 10 3 33.5t4 35.5q0 3 34 37q132 0 170 27q0 32 -22 47.5t-78 15.5l-88 -4
q-18 40 -18 97q0 75 2 108q-24 28 -25 31h-31q-48 -39 -51 -76v-41q0 -27 -1 -41t-5 -33.5t-14.5 -31.5t-28.5 -19q-45 -23 -45 -49q0 -5 18 -15t36 -26.5t18 -36.5q0 -21 -5 -100q-4 -59 -4 -150q0 -187 33 -241z" />
    <glyph glyph-name="u" unicode="u" horiz-adv-x="782" 
d="M92 461l-18 -201q0 -65 11 -120.5t30 -76.5q26 -71 161 -71q110 0 148 53q46 -7 76 -53q148 0 215 49q0 18 -10 41q-57 8 -109 27q-12 56 -12 110q0 81 22 180v70q12 67 12 94v15q0 10 -30 55q-37 4 -111 4h-22q-54 0 -71 -6.5t-19 -20.5l6 -28q109 -14 121 -64
q8 -152 8 -186q0 -148 -27 -182q-9 -26 -53 -45t-92 -19q-52 0 -78 23l-49 32l-11 135q3 15 3 31q0 10 -1.5 19.5t-2.5 14.5l-1 5q-2 8 -2 23q0 9 2 27t2 24t2.5 17t2.5 14l2 12q16 106 16 121v20q-63 29 -141 29h-27q-1 -1 -13 -1.5t-22 -5t-10 -16.5q11 -24 36 -44
t42.5 -37.5t17.5 -41.5q0 -14 -4 -26z" />
    <glyph glyph-name="v" unicode="v" horiz-adv-x="741" 
d="M420 168q45 83 82 164q16 19 35 96q13 54 41 90q4 10 36.5 25.5t49.5 15.5l14 10q0 45 -14 54q-45 2 -117 2q-89 0 -105 -11q-16 0 -36 -14l-5 -4q12 -26 43 -49.5t37 -40.5q-6 -120 -86 -268q-7 0 -17 -1t-13 -1l-19 2q-41 18 -65 108q-23 82 -50 131q0 42 25 64l53 32
q0 23 -8 34t-33 18q-59 0 -108 -2q-11 1 -37.5 2.5t-58 3.5t-64.5 4q-10 -13 -10 -37q0 -29 41 -64l8 -6q50 -41 53 -49q55 -83 109 -246l8 -18q15 -43 36.5 -106.5t32.5 -92.5t19 -45h16q13 0 23.5 3.5t19.5 11.5t15.5 16t12.5 22.5t9.5 25t8 29t6.5 29.5t6 31.5t6 30.5z
" />
    <glyph glyph-name="w" unicode="w" horiz-adv-x="1028" 
d="M160 365q62 -111 119 -242l8 -64q10 -12 30 -51q3 0 11 -8q18 1 30 6.5t17.5 17t7.5 21t4 27.5v6q73 224 115 241q9 9 12 9q11 -6 20 -24.5t24.5 -52.5t37.5 -65q0 -2 27 -104q15 -69 51 -82l12 -4q30 0 62 94q2 9 40 141q45 78 109 215q37 112 78 146q-2 26 -9 34t-36 9
l-39 4q-52 0 -109 -10q-1 0 -3 -1q-7 -2 -10 -10l-1 -2l-2 -4v-6l4 -6q57 -21 59 -49q0 -114 -88 -297q-7 0 -17 -2t-13 -2t-10 2t-9 2q-11 2 -59 100q-30 57 -49 111q-1 7 -3.5 23t-2.5 22q0 19 2 27l4 10v10q0 13 9.5 20.5t41.5 10.5q8 1 17.5 8t9.5 10q0 4 1 11t1 8
q0 6 -8 8.5t-35 3.5h-80l-111 -8h2q-270 0 -319 12q-16 4 -41 4h-21l-55 -12q-14 -14 -14 -27q0 -16 14 -22q64 -3 108 -82q10 -27 29.5 -73.5t26.5 -63.5zM287 578q5 -2 15 -5t15 -4h19q70 0 92 -28q39 -67 53 -86q-7 -58 -41 -136q-33 -73 -67 -73q-13 0 -15 4
q-34 9 -75 119q-41 112 -41 163z" />
    <glyph glyph-name="x" unicode="x" horiz-adv-x="796" 
d="M317 272l-38 -53q-11 -19 -97 -92q-20 -23 -67 -37q-17 -8 -28.5 -13t-20 -10.5t-13 -8t-8 -7.5t-4.5 -6.5t-4 -8t-4 -9.5l30 -37h70q171 0 191 20q6 6 12 27q-53 53 -53 76q0 10 4 14q7 30 30 51l37 45q40 0 60 -45q36 -58 41 -63q0 -45 -35 -66q3 -30 18 -39.5t64 -9.5
h41q31 4 63 4q27 0 31 -4q10 -4 29 -4q31 0 45 14q4 5 12 17q4 4 6 10q-13 15 -78 55q-51 31 -73 62q-32 28 -97 118q-9 9 -12 15q-9 22 -29 51q15 116 283 244q4 10 4 24q0 12 -4 12v11q-36 8 -86 8h-168q-5 -8 -29 -27q3 -19 47 -69q-2 -28 -34 -71t-33 -52
q-21 1 -39 10.5t-27 18.5t-24.5 29t-20.5 26q0 54 37 86q0 39 -59 45h-97q-8 0 -56.5 4t-61.5 4q-58 0 -58 -31q8 -18 26.5 -31.5t49 -28t43.5 -22.5q38 -14 111 -112q73 -103 73 -144z" />
    <glyph glyph-name="y" unicode="y" horiz-adv-x="673" 
d="M82 528q33 -40 51 -104v-41q26 -90 76 -238l33 -67q26 -48 26 -86q0 -45 -86 -228q-48 -10 -100 -24q-40 -32 -45 -37q0 -34 4 -53.5t8.5 -24.5t13.5 -12l5 -4q20 -11 32 -23q101 0 136 95q39 106 57 174l53 153q43 88 129 289q5 12 29.5 73t35 83t34.5 58.5t49 57.5
q8 16 8 31q0 29 -35 37h-186q-26 -8 -33 -25l6 -34q1 -3 33.5 -16.5t44.5 -39.5q0 -120 -101 -303q-54 0 -81 105q-10 39 -22.5 71.5t-18.5 49t-7 28.5q0 17 4.5 30.5t18 26.5t18.5 18t28 19t24 15q4 12 4 22q0 33 -23 33h-254l-2 -4q-26 -22 -26 -41q0 -10 4 -14
q25 -30 55 -50z" />
    <glyph glyph-name="z" unicode="z" horiz-adv-x="618" 
d="M379 8q20 0 45 -4h53q13 0 37 6q27 18 27 94q0 51 -17 68v10h-22l-19 -8v-29q-15 -2 -39.5 -28.5t-25.5 -26.5q-27 -12 -72 -12l-123 12q-14 21 -18 25q12 36 55 90q20 21 37 41l25.5 30t9.5 11q18 23 52.5 70t56.5 77t53 67t57 62q4 10 4 21q-5 6 -10 14.5t-5.5 10
t-11 5.5t-22 6.5t-41.5 8.5q-6 4 -25 4q-16 0 -26 -4q-31 -4 -54 -4t-41 12h-18q-120 0 -182 68q-53 -13 -74 -80q-11 -48 -22 -115q5 -5 28 -18h4q12 0 49 26l15 14q61 46 104 46q9 0 47 -17l6 -2l37 -18q19 -15 19 -27v-4l-8 -33v4q-14 -28 -78 -112q-12 -16 -90 -101
q-8 -23 -37 -67l-7 -11q-7 -11 -12 -12q-4 -7 -18 -19t-23 -26q-19 -4 -45 -24q-7 -22 -22 -50q0 -12 22 -51q34 -12 95 -12l77 4z" />
    <glyph glyph-name="braceleft" unicode="{" horiz-adv-x="600" 
d="M383 -377q12 -4 33.5 -16t38 -21.5t18.5 -9.5q55 0 55 41q0 21 -42 54.5t-80 33.5q-66 0 -97 31q-45 39 -45 151v58q0 90 -26 192q-38 145 -107 187q70 46 111 186q22 99 22 182v64q0 113 45 155q24 27 97 27q39 0 80.5 34t41.5 56q0 45 -55 45q-1 0 -18 -11.5
t-38.5 -23.5t-33.5 -14q-150 -55 -193 -195q-22 -56 -22 -174q0 -242 -82 -282q-49 -20 -49 -41v-15q0 -21 49 -41q82 -40 82 -284q0 -118 22 -174q44 -143 193 -195z" />
    <glyph glyph-name="bar" unicode="|" horiz-adv-x="591" 
d="M92 1157q-6 4 -41 4q-1 -1 -18 -10l-23 -96l13 -111q2 -19 6 -43t4 -33v-16l-2 -6q-17 -73 -17 -94v-7q0 -1 9.5 -15t9.5 -23q-15 -117 -15 -189q0 -124 15 -201l-6 -67q6 -24 9.5 -67t5.5 -88.5t3 -57.5v-14q0 -33 -4 -60q0 -3 -2 -12.5t-2 -18.5q0 -6 2 -24t2 -31
q4 -37 4 -72q4 -6 4 -20q0 -21 -4 -31v-18q0 -15 6 -33v-20q0 -32 8.5 -56.5t22.5 -32.5v-8q2 2 8.5 4t9.5 4q13 37 13 82l-17 220l8 114q0 23 -6 121t-6 129q0 36 8 90q4 18 4 70v139q-2 6 -2 23q0 20 -2 28l13 260l-4 76q14 77 14 119q0 10 -1 17.5t-4.5 17.5t-5.5 15
t-9.5 20t-10.5 22zM373 723q6 -24 6 -68l-6 -153q0 -20 6 -74q8 -54 8 -104l6 -62q-5 -141 -14 -172q0 -24 8 -119t8 -125q0 -50 -12 -96v-10q0 -12 2 -29t4 -29.5t2 -13.5q0 -10 -8 -26q1 -1 6.5 -17.5t11.5 -30.5q1 0 17 -8l28 8q9 41 9 70q0 8 -9 100l-6 86q0 32 11 95
q10 46 10 159q0 78 -2 127q6 111 6 168q-14 52 -14 164q0 78 8 144v98q5 62 10 160v67q0 74 -4 88q-3 7 -15.5 21t-17.5 20h-33q-3 -1 -39 -33q0 -184 19 -340q-6 -42 -6 -65z" />
    <glyph glyph-name="braceright" unicode="}" horiz-adv-x="569" 
d="M182 -377q-13 -4 -35.5 -16t-39 -21.5t-17.5 -9.5q-53 0 -53 41q0 21 42.5 54.5t80.5 33.5q65 0 96 31q41 41 41 151v58q0 70 27 192q40 138 112 187q-71 45 -112 186q-27 122 -27 195v51q0 111 -41 155q-24 27 -96 27q-39 0 -81 34t-42 56q0 45 53 45l17 -11
q17 -12 39.5 -24t35.5 -14q149 -55 195 -195q18 -74 18 -174q0 -241 86 -282q47 -20 47 -41v-15q0 -21 -47 -41q-86 -41 -86 -284q0 -100 -18 -174q-47 -143 -195 -195z" />
    <glyph glyph-name="asciitilde" unicode="~" horiz-adv-x="960" 
d="M201 1292q-3 -6 -45 -104q-21 -49 -52 -49q-35 0 -44 20t-9 88q0 49 103 117l165 111q29 18 58 18q60 0 135.5 -55t97.5 -105q53 -119 154 -119q59 0 103 34t44 89q0 21 -14 83t-14 77q0 55 55 55q31 0 59 -14.5t31 -32.5q4 -12 4 -39q0 -49 -16 -114q-11 -59 -25 -96
t-38.5 -60t-47.5 -33.5t-67 -25.5q-70 -23 -131 -23q-77 0 -134 66q-3 3 -81 127q-45 71 -86 71q-150 0 -205 -86z" />
    <glyph glyph-name="uni00A0" unicode="&#xa0;" horiz-adv-x="405" 
 />
    <glyph glyph-name="exclamdown" unicode="&#xa1;" horiz-adv-x="276" 
d="M190 51q-11 -27 -59 -88h-41q-21 13 -57 68q-6 42 -6 47q0 39 14 94l22 74l-4 55q2 18 9.5 70t11.5 86l2 20v86q0 61 10 84l8 19q24 -6 27 -7q6 -21 6 -67v-74q0 -49 4 -63q5 -26 14 -129t17 -129q3 -10 11 -34.5t12 -42t4 -34.5q0 -20 -5 -35zM82 842q-14 14 -51 37v12
q0 44 20.5 77t52.5 33t53 -18.5t21 -48.5q0 -43 -37 -88z" />
    <glyph glyph-name="cent" unicode="&#xa2;" horiz-adv-x="811" 
d="M350 90q0 50 8 70q11 22 11 116q0 8 1 28t3 58.5t4 73.5q10 143 10 187q0 49 -8 69h-6q-195 0 -195 -274q0 -132 31 -203q45 -78 141 -125zM406 860q-19 63 -19 90q0 42 51 97l4 4q7 2 18 3.5t13 2.5q50 -3 78 -64q4 -14 4 -47q0 -30 -12 -76q0 -6 -1 -14t-1 -10
q0 -4 1 -7t1 -5q35 -7 41 -11q38 -23 121 -53q32 -32 32 -43v-4q0 -14 -2 -22t-10 -19.5t-29 -17t-55 -5.5h-16q-1 6 -41 29t-43 23q-12 0 -29 -27l-2 -2v-82q0 -23 -10 -78q-17 -75 -17 -82q-2 -57 -32 -307q-11 -56 -11 -74q18 -4 52 -4q44 0 92 19q12 4 67 59
q49 49 64 49h4q4 0 11 -12.5t7 -24.5q0 -64 -63 -112q-72 -32 -131 -37h-29q-12 2 -27 3t-24 2t-17 3q5 -17 5 -45q0 -65 -27 -86l-29 -4v4q-36 19 -41 35v10q0 27 4 45q-12 9 -12 27q0 4 8 24q-144 35 -241 168q-33 30 -61.5 82.5t-28.5 93.5l4 19q0 84 51 192
q72 147 227 217q109 38 109 52q0 2 -8 22z" />
    <glyph glyph-name="sterling" unicode="&#xa3;" horiz-adv-x="681" 
d="M113 588q6 0 20.5 -2.5t20.5 -3.5l18 -4q3 0 9.5 2t8.5 2q23 41 23 106q14 18 32.5 87t22.5 77q24 53 78 90q4 2 27 14.5t41 22.5h114q11 -11 50 -45q34 -27 40 -60q5 -8 5 -22q0 -36 -24 -68t-52 -32q-11 0 -15 4q-31 14 -51 67q-25 51 -53 51h-4q-25 -10 -47 -32
q-12 -14 -25.5 -88.5t-13.5 -128.5q0 -36 13.5 -48t54.5 -12q8 8 22 8q27 0 45 -18q13 -16 19 -49q-3 -7 -37 -41q-4 -4 -27 -4h-41q-33 0 -41 -6q-26 -34 -29 -127l-4 -82q0 -13 2 -33.5t2 -26.5q6 -4 62 -32q54 -31 80 -31q12 0 24 8q27 10 27 41v10q0 43 27 49
q11 11 18 11h8q4 0 25 -15h4q12 0 18 -32q0 -23 -4 -68q-19 -51 -59 -104q-45 -37 -105 -37q-44 0 -118 32q-56 32 -111 41q-73 -73 -164 -73q-61 34 -67 104q-5 2 -5 14q0 17 13 33q15 57 73 68q8 4 37 4q41 0 72 -4q2 4 23 18q2 45 2 109q0 51 -2 63q-18 88 -121 88
q-25 0 -25 41q0 64 64 64zM141 119q-28 22 -49 22h-2q-13 0 -20.5 -1.5t-16 -12t-8.5 -31.5v-6q19 -22 47 -22q17 0 23 4q20 0 26 47z" />
    <glyph glyph-name="yen" unicode="&#xa5;" horiz-adv-x="1124" 
d="M786 324q77 0 119 -27q4 -6 4 -29q0 -27 -4 -41q-15 -22 -35 -45q-12 -8 -141 -8h-111q0 -30 5 -59q15 -15 23.5 -21.5t26.5 -11t46 -4.5h49q13 -22 20 -29l-10 -39q-30 -10 -67 -10t-187 27q-16 0 -88 -9.5t-94 -9.5q-6 9 -18 47q8 8 116 23q18 21 37 49q4 6 4 51
q-242 6 -286 12q-12 9 -27 56q17 24 74 49q16 8 241 14q0 67 -2 92q-278 6 -344 13q-14 14 -28 55q8 24 45 49q13 8 247 14l-47 93q-14 14 -49.5 57.5t-58.5 69.5q-2 0 -51 82q-30 56 -62 75l-82 25l-28 41q0 11 14 31q17 4 67 26q11 -1 81.5 -20t93.5 -19q17 0 66 8.5
t56 8.5q62 0 68 -60q-3 -6 -27 -30q-3 -1 -29 -5.5t-39.5 -13.5t-13.5 -27l5 -14l43 -67q94 -129 116 -156q35 -80 82 -94q70 62 82 75q45 80 90 152q8 10 26 30.5t28.5 33t20.5 31.5t11 36l-30 27q-4 4 -19 4t-27 -4h-6q-10 0 -22 18q-8 8 -8 41l22 14q20 13 131 13
q102 0 152 -8q15 -3 34 -17t19 -24q0 -6 -55 -33q-55 -28 -72 -45q-10 -12 -49 -68q-59 -85 -164 -190q-11 -8 -44.5 -39t-59.5 -53l28 -15l13 15l26 -5q81 4 113 15q91 0 145 -25q2 -8 2 -30q0 -27 -2 -41q-6 -5 -19.5 -21t-21.5 -24q-14 -7 -123 -7q-23 0 -90 1t-112 1
q-7 -87 -7 -88q146 0 168 11z" />
    <glyph glyph-name="brokenbar" unicode="&#xa6;" horiz-adv-x="331" 
d="M82 -78q6 -9 24 -44t31 -56q31 8 60 59l16 438l-49 87q-10 0 -18.5 -3t-13 -5t-11 -10.5t-7.5 -10.5t-7.5 -14t-6.5 -13zM109 604q6 -10 24.5 -45.5t30.5 -56.5q30 8 59 61l15 438l-48 86q-12 0 -20.5 -2.5t-15.5 -10t-10 -11.5t-9.5 -16t-7.5 -15z" />
    <glyph glyph-name="section" unicode="&#xa7;" horiz-adv-x="681" 
d="M543 305q44 26 67 115q4 12 4 39q0 58 -63 155q-45 67 -150 142l-165 118q-16 11 -51 60l-35 49l-5 18q0 42 40.5 73t97.5 42q31 0 59 -18l-4 -56l4 -63q1 -11 6 -20.5t9 -15.5t15 -13t15 -9.5t18 -9t15 -6.5q91 0 112 68q9 13 9 41v20q-6 40 -17 62q-59 118 -248 118
h-20q-68 -15 -78 -18q-70 -27 -106 -86q-8 -9 -19.5 -58t-19.5 -61q0 -114 135 -243q0 -42 -45 -60q-50 -16 -51 -18q-41 -27 -68 -111l-2 -4q-6 -24 -6 -49q0 -67 45 -127q51 -78 174 -152q154 -94 203 -131q21 -12 41 -63q4 -13 28 -60q-6 -82 -77 -96q-46 -8 -101 -8h-55
q-4 5 -27 18q0 61 29 90v15q0 75 -51 90q-20 14 -45 14q-41 0 -75 -35t-34 -79q0 -84 94 -136q37 -20 164 -51q10 -4 33 -4q76 0 158 59q100 74 100 173q0 53 -45.5 121.5t-95.5 101.5l-4 4q0 10 34 31t54 24zM82 592q18 14 63 59q9 0 15 4h12q116 0 217.5 -58.5
t128.5 -137.5q14 -17 14 -39q0 -33 -63 -96h-18q-123 0 -236 67q-133 83 -133 201z" />
    <glyph glyph-name="dieresis" unicode="&#xa8;" horiz-adv-x="741" 
d="M436 1284q-47 16 -76 16q-3 -2 -15.5 -11t-25.5 -21.5t-28 -30.5q0 -36 10 -56.5t31 -43.5l6 -9h49q12 0 21.5 2.5t17.5 9.5t12 11t11.5 14.5t9.5 12.5v18q0 47 -23 88zM770 1284q-44 16 -74 16q-3 -3 -15.5 -11.5t-26 -21t-29.5 -30.5q0 -24 6.5 -43.5t12.5 -28.5
t20 -26l10 -11h49q8 0 15.5 1.5t14 5t11 6.5t9.5 9t7 9t7 10t6 9v18q0 52 -23 88z" />
    <glyph glyph-name="copyright" unicode="&#xa9;" horiz-adv-x="1169" 
d="M123 354q0 9 -15.5 90.5t-15.5 133.5q0 50 12 88q94 268 269 350q11 6 88.5 24t97.5 33h10q202 0 338 -107.5t183 -287.5q20 -75 20 -160q0 -93 -23 -160l-55 -79q-58 -80 -104.5 -125.5t-110.5 -78t-162 -57.5q-10 -4 -41 -4q-88 0 -200 47q-148 64 -242 226
q-31 37 -49 67zM242 764q-3 -11 -14 -41.5t-16 -49t-10.5 -57t-6.5 -84.5q4 -26 10.5 -59.5t15.5 -79.5t15 -76q33 -107 125 -171t221 -64q37 0 92 10q181 34 287 176q94 128 94 301q0 179 -101 300.5t-268 121.5h-8q-38 23 -100 23q-188 0 -265 -103q-25 -27 -71 -147z
M782 272q2 0 6 11l-6 12q-17 0 -82 -17.5t-86 -17.5q-42 0 -86 23q-58 31 -97.5 105.5t-39.5 154.5t33 139q58 91 135 115q9 0 37 8q68 -6 145 -76q8 1 15 4t11.5 5.5t10.5 8.5l8 8t8 10t7 9q0 37 -23 78q-127 31 -145 31q-12 -6 -84 -24.5t-90 -29.5q-168 -116 -168 -327
q0 -129 86 -238q31 -34 97.5 -56t135.5 -22q145 0 172 86z" />
    <glyph glyph-name="ordfeminine" unicode="&#xaa;" horiz-adv-x="581" 
d="M190 592l46 8h20q33 0 48 -18.5t15 -67.5q0 -23 -4.5 -37.5t-17.5 -25.5t-25 -17.5t-40.5 -19t-49.5 -23.5q-38 -14 -73 -66t-35 -98q0 -24 12 -42.5t45 -51.5q90 0 164 68q4 -1 45.5 -28.5t65.5 -27.5h12q2 1 12 7t27 16t35 22q0 3 8 19q0 9 -8 29q-10 0 -27 -11
q-33 0 -70 27v350q-4 3 -24.5 22t-30.5 25.5t-32.5 14.5t-47.5 8q-28 -6 -86 -33q-36 -27 -88 -102l-23 -33l9 -16q8 -15 18 -29q11 1 22 8t18.5 15t17 24t14.5 26t14.5 30t13.5 28zM313 272q-7 -10 -24.5 -29.5t-24.5 -29.5h-67q-9 15 -29 23q-6 9 -12 36q0 22 14.5 43
t27.5 31.5t44 30.5t37 24l30 -10q4 -18 4 -119zM133 63l-65 -36q0 -10 4.5 -17t8.5 -9.5t14.5 -7.5t13.5 -7h315l57 37q0 12 -5.5 18.5t-17.5 12.5t-16 9h-309z" />
    <glyph glyph-name="guillemotleft" unicode="&#xab;" horiz-adv-x="1259" 
d="M223 377l131 -76q52 -16 146 -65q3 -4 16 -31.5t25 -43.5t22 -16l6 5q23 0 23 18q4 47 4 119q0 64 -8 78q0 17 -19 45q-24 -6 -41 -32.5t-22 -27.5l-14 -12q-92 6 -201 76q-55 40 -55 73q0 8 2 15.5t6.5 15t8.5 14t10 13t9.5 10l8.5 8.5l6 6l4 4q102 66 174 72
q40 -10 49 -12q1 -1 6 -9.5t11 -18t16.5 -19.5t21.5 -13q14 28 19 50q8 14 8 77q0 70 -4 119q0 8 -6.5 13.5t-16.5 5.5q-3 0 -6.5 -1.5t-9 -3.5t-10.5 -4q-5 -10 -19.5 -36.5t-23.5 -44.5l-4 -3q-26 -16 -60 -34q-15 -7 -31 -14t-23 -10t-9 -5q-92 -51 -150 -72
q-50 -15 -102.5 -48.5t-52.5 -69.5q0 -22 48.5 -57t106.5 -58zM819 377l131 -76q52 -16 146 -65q3 -5 16 -31.5t24.5 -43t20.5 -16.5l8 5q23 0 23 18q4 47 4 119q0 64 -8 78q0 17 -19 45q-18 -4 -30.5 -18.5t-20 -27.5t-12.5 -14l-15 -12q-91 6 -200 76q-6 4 -16 12t-26 27
t-16 34q0 37 54 82l4 4q102 66 174 72q17 -5 49 -12q1 -1 6 -9.5t11 -18t16.5 -19.5t21.5 -13q14 28 19 50q8 14 8 77q0 70 -4 119q0 8 -6.5 13.5t-16.5 5.5q-4 0 -7.5 -1.5t-9 -4t-9.5 -3.5q-5 -10 -19.5 -36.5t-23.5 -44.5l-4 -3q-26 -16 -60 -34q-15 -7 -31.5 -14
t-23 -10t-8.5 -5q-92 -51 -150 -72q-50 -15 -102.5 -48.5t-52.5 -69.5q0 -22 48.5 -57t106.5 -58z" />
    <glyph glyph-name="uni00AD" unicode="&#xad;" horiz-adv-x="413" 
d="M96 424q-5 -7 -21.5 -25t-25.5 -30q0 -31 29 -60h239l41 51q0 10 -1.5 18t-3 13.5t-5.5 11t-6 7.5l-7.5 7.5l-6.5 6.5h-232z" />
    <glyph glyph-name="registered" unicode="&#xae;" horiz-adv-x="1169" 
d="M123 354q0 9 -15.5 90.5t-15.5 133.5q0 50 12 88q94 268 269 350q11 6 88.5 24t97.5 33h10q202 0 338 -107.5t183 -287.5q20 -75 20 -160q0 -93 -23 -160l-55 -79q-58 -80 -104.5 -125.5t-110.5 -78t-162 -57.5q-10 -4 -41 -4q-88 0 -200 47q-148 64 -242 226
q-31 37 -49 67zM283 864l-11 -22q0 -13 -4 -15l-4 -12q-49 -139 -49 -242q0 -44 8 -90q8 -87 13 -166q33 -107 125 -171t221 -64q37 0 92 10q181 34 287 176q94 128 94 301q0 179 -101 300.5t-268 121.5h-8q-38 23 -100 23q-188 0 -265 -103q21 0 82 -6q33 -4 74 -4
q41 10 96 10q144 0 199 -88q29 -56 29 -104q0 -35 -22 -76.5t-52 -54.5q-24 -8 -45 -29v-4l53 -74q39 -89 92 -176q3 -5 24.5 -17t39.5 -27t18 -30q-9 -5 -18 -18q-69 0 -138 10q-10 3 -17.5 17t-24 47.5t-37.5 66.5l-11 37l-18 15q-8 20 -24 51.5t-21 42.5q-27 43 -82 43
h-10q-19 -32 -19 -115q0 -46 6 -111v-16l31 -29h29q7 -3 16.5 -18t9.5 -21v-2q-12 -18 -63 -18h-18l-60 10q-12 4 -37 4q-18 0 -30 -4q-28 -8 -41 -8l-27 4q-11 22 -14 35q20 5 33 9t29 11t24.5 17t9.5 22q4 4 4 29v18q-4 18 -4 46v12q4 6 4 41q0 55 -4 96q4 18 4 63
q0 56 -4 89l-2 22l10 68q0 10 -1 15.5t-5.5 14t-17 13.5t-31.5 6q-41 6 -49 18zM487 604q10 -10 37 -16q24 8 82 8q35 16 60 49q16 33 16 66q0 58 -44.5 96.5t-109.5 38.5q-3 -2 -6.5 -6.5t-9 -12t-10.5 -12.5q-15 -15 -15 -211z" />
    <glyph glyph-name="uni00AF" unicode="&#xaf;" horiz-adv-x="413" 
d="M96 424q-5 -7 -21.5 -25t-25.5 -30q0 -31 29 -60h239l41 51q0 10 -1.5 18t-3 13.5t-5.5 11t-6 7.5l-7.5 7.5l-6.5 6.5h-232z" />
    <glyph glyph-name="degree" unicode="&#xb0;" horiz-adv-x="622" 
d="M518 1538q-25 0 -63 10q-47 24 -76 72l-2 8q-12 9 -12 29l-5 8q-2 10 -2 37q0 100 84 141q44 15 54 19q140 0 170 -123q4 -12 4 -39q0 -64 -46 -113t-106 -49zM514 1794q-12 0 -18 -2h-9q-28 -6 -45 -53q0 -3 -1 -11t-1 -14l2 -57q25 -66 72 -66l14 2q64 12 64 90
q0 45 -22.5 78t-55.5 33z" />
    <glyph glyph-name="plusminus" unicode="&#xb1;" horiz-adv-x="487" 
d="M246 461v-74h114q3 -2 9.5 -7.5t10 -8.5t7.5 -9t6 -13.5t2 -16.5l-49 -49h-100v-86q-2 -2 -9.5 -10.5t-11.5 -11.5t-13.5 -7t-21.5 -4l-49 49v70h-104l-4 4q-29 21 -29 49q35 24 55 51h82v96l4 4q22 31 50 31q21 -31 51 -57zM96 109q-19 -23 -45 -41q0 -21 31 -45h231
l45 40q-2 12 -6.5 19.5t-14 14.5t-13.5 12h-228z" />
    <glyph glyph-name="acute" unicode="&#xb4;" horiz-adv-x="583" 
d="M369 1225q44 78 100 168l8 14q2 0 14.5 13t26 28t14.5 16q27 21 46 21q3 0 14 -8.5t22 -27t11 -38.5v-10q-3 -18 -56 -101q-6 -12 -88 -81q-23 -17 -54 -33.5t-44 -16.5h-4q-21 12 -21 29q0 19 11 27z" />
    <glyph glyph-name="uni00B5" unicode="&#xb5;" horiz-adv-x="745" 
d="M618 600v18q-1 1 -5.5 9.5t-12 20t-16.5 22.5l-111 8q-71 0 -94 -19q-1 -2 -4 -4t-8 -6t-9 -8v-12q15 -15 71 -42t58 -28v-22q9 -92 9 -109q0 -101 -27 -131q-7 -24 -52 -42.5t-93 -18.5q-52 0 -78 20q-29 23 -51 39v156l6 73q12 58 12 94v23q-63 29 -145 29h-27
q-2 0 -41 -23q2 -18 40 -46.5t42 -41.5q0 -1 2 -10t2 -17q0 -32 -12 -114v-45q0 -63 12 -101q0 -104 -18 -190q-17 -23 -49.5 -39t-45.5 -29q7 -7 17 -22q99 -6 151 -6q121 0 138 10q8 8 18 12q-3 29 -29 37q-22 5 -33.5 9.5t-15 7t-11 12.5t-13.5 16v64q56 -9 77 -9
q109 0 148 52q39 -3 76 -56q156 0 219 49l-15 41q-15 2 -53.5 11.5t-54.5 13.5q4 14 16 184q10 137 10 160z" />
    <glyph glyph-name="paragraph" unicode="&#xb6;" horiz-adv-x="704" 
d="M649 1014h6q8 2 33 20v21q0 31 -10 41q-10 24 -72 24h-14q-32 -18 -109 -18q-51 0 -84 4h-8q-78 8 -100 8q-65 0 -86 -12q-88 -35 -141.5 -110t-53.5 -173q0 -69 27 -133q18 -46 59.5 -78.5t108.5 -66.5l14 -9q4 -18 4 -77q0 -31 -4 -45v-260q0 -98 12 -142q7 -47 7 -104
q-3 -72 -15 -90q0 -74 13 -115q1 -2 3.5 -3t7 -2t7.5 -3q7 0 43 26q0 86 -14 127q-4 643 -4 756v260q0 105 4 109q1 8 3.5 15t7 13t7.5 9.5t9.5 9.5t8.5 8q76 0 117 -27q19 -90 19 -178q0 -63 -9 -96l15 -117q-10 -48 -10 -92q0 -38 10 -90q8 -36 8 -66v-161q0 -15 -5 -24.5
t-5 -14.5v-29q6 -21 6 -55l2 -37q0 -21 -6 -45l-2 -15l14 -36q-2 -8 -4 -30.5t-4 -33.5l-4 -72l4 -77q13 -29 35 -29q15 0 32 10l5 37q0 28 -13 72q0 23 -1 120t-1 171v860l29 37h22q27 0 68 6z" />
    <glyph glyph-name="periodcentered" unicode="&#xb7;" horiz-adv-x="278" 
d="M174 465q-44 16 -74 16q-3 -2 -15.5 -11t-25.5 -21.5t-28 -30.5q0 -36 10 -57t31 -44l6 -8h49q8 0 15.5 1.5t14 5t10.5 6t9.5 9t7.5 8.5t7 10t6 9v19q0 52 -23 88z" />
    <glyph glyph-name="cedilla" unicode="&#xb8;" horiz-adv-x="581" 
d="M459 33v-43q0 -45 -4 -45l-60 10q-16 -5 -18 -14l-4 -13l4 -6q1 -1 2 -2.5t2 -2.5t2 -1v2l113 -4q-6 -51 -54 -51h-123q-36 -17 -36 -31q0 -6 4 -10q12 -12 51 -12h127q21 0 40.5 18t22.5 45q9 41 9 49q0 12 -5 19.5t-10 7.5h-35v51z" />
    <glyph glyph-name="ordmasculine" unicode="&#xba;" horiz-adv-x="745" 
d="M793 1307l-23 -33q-71 -109 -174 -109q-27 0 -86 19q-65 28 -104 94l-5 2q-1 5 -3.5 12t-7 17.5t-7.5 19.5l-10 82q0 7 2.5 17.5t3.5 13.5q47 134 135 155q16 0 51 15q189 0 232 -168q12 -38 12 -70q0 -36 -16 -67zM473 1425q-4 -10 -4 -41q0 -10 4 -28l4 -23q4 -4 4 -12
q20 -59 88 -59q54 0 92.5 36t38.5 95v8q-6 110 -104 110q-10 5 -31 5h-18q-33 -7 -48 -26.5t-26 -64.5z" />
    <glyph glyph-name="guillemotright" unicode="&#xbb;" horiz-adv-x="1218" 
d="M901 301q-50 -15 -145 -65q-6 -8 -18.5 -32.5t-24 -41.5t-21.5 -17l-6 5q-22 0 -22 18q-5 59 -5 119q0 62 7 78q0 15 20 45q19 -6 37.5 -32.5t21.5 -27.5l19 -12q88 6 201 76q55 40 55 73q0 31 -23 54q-32 25 -32 32q-105 66 -177 72q-25 -7 -47 -12q-1 -1 -6 -9.5
t-11 -18t-16.5 -19.5t-21.5 -13q-13 27 -22 50q-5 17 -5 65q0 67 5 131q0 19 22 19q2 0 25 -9q23 -39 45 -81q33 -24 63 -37q15 -7 31 -14t23.5 -10t9.5 -5l35 -18q83 -45 114 -54q26 -7 101 -45q55 -34 55 -73q0 -22 -47.5 -57t-106.5 -62q-60 -25 -133 -72zM305 301
q-50 -15 -145 -65q-6 -8 -18.5 -32.5t-24 -41.5t-21.5 -17l-6 5q-22 0 -22 18q-5 59 -5 119q0 62 9 78q0 18 18 45q19 -6 38 -32.5t22 -27.5l18 -12q88 6 201 76q55 40 55 73q0 31 -23 54q-32 25 -32 32q-105 66 -174 72q-32 -8 -50 -12q-1 -1 -6 -9.5t-11 -18t-16.5 -19.5
t-21.5 -13q-13 27 -22 50q-5 17 -5 65q0 67 5 131q0 19 22 19q2 0 25 -9q23 -39 45 -81q33 -24 63 -37q15 -7 31 -14t23.5 -10t9.5 -5l35 -18q83 -45 114 -54q26 -7 101 -45q55 -34 55 -73q0 -22 -47 -57t-105 -62q-59 -24 -135 -72z" />
    <glyph glyph-name="onequarter" unicode="&#xbc;" horiz-adv-x="1357" 
d="M215 -410h33q9 4 16.5 12t14 21.5t11 23.5t11.5 29t10 27q58 118 97 178q24 39 58.5 95t89.5 145t93 151q52 108 82 160q94 135 324 492q39 59 39 73q0 4 -9 31q-3 2 -8 19q-14 4 -43 4h-22q-21 -7 -49 -35l-19 -55q-7 -13 -28 -48.5t-35 -60.5q-15 -49 -56 -133
q-85 -125 -327 -582q-19 -39 -72 -104l-4 -2q-12 -17 -29.5 -41.5t-27 -39t-13.5 -24.5l-18 -57q-64 -85 -127 -174q-8 -23 -31 -49q0 -9 2 -16.5t7 -13.5t8 -9t11.5 -9t10.5 -8zM129 305q-46 -31 -49 -33q6 -59 55 -59q15 0 103 23h155q41 0 64 10q-6 39 -31 45
q-19 1 -30 2.5t-21.5 8t-13.5 9t-15.5 17.5t-19.5 22v242q14 52 14 135v59q0 36 12 97q10 51 10 90v10q-4 21 -22 51q-21 0 -37 4q-48 -35 -145 -59h-56q-19 -19 -51 -37q-4 -10 -4 -27q0 -34 37 -45q2 0 9.5 -3t12.5 -3l33 6q8 4 19 4q16 0 18 -4q1 -1 23 -18
q12 -44 12 -147q7 -120 14 -142v-12q0 -20 -7 -70.5t-7 -60.5q0 -27 14 -47q0 -62 -28 -68h-68zM913 -141l50 -9q60 13 81 13q19 0 23 -4l37 -27q0 -51 -4 -92q-2 -49 -2 -113q14 -9 18 -22h29q46 0 67 12q5 5 5 25q0 22 -5 45q-4 49 -4 90q0 67 41 73q6 0 16 1.5t26 3.5
t30 4q6 18 6 45q0 18 -6 24v17q-8 0 -12 4q-50 0 -64.5 3.5t-44.5 24.5l21 299q0 44 2 62q0 34 -9 51t-32 29l-2 -2q-41 -24 -58 -37q-104 -104 -278 -334q-27 -27 -72 -68q-40 -44 -51 -90q9 -5 27 -28h165zM1049 197q13 0 49 -19q0 -7 5 -66t5 -79q0 -52 -18 -70v-14
q-46 -12 -74 -12q-32 0 -53 12q-88 0 -109 14q6 50 82 123q94 87 113 111z" />
    <glyph glyph-name="onehalf" unicode="&#xbd;" horiz-adv-x="1374" 
d="M1047 1057h-5q-62 -25 -81 -88q-16 -48 -25 -64q-44 -66 -168 -301l-31 -57q-104 -186 -327 -524q-2 -4 -16.5 -29.5t-37.5 -65.5t-47 -84q-61 -113 -110 -168q0 -22 18 -49h59q15 10 37 60l4 8q59 121 134 250q53 78 163 268l9 14q152 267 163 287q3 3 12 11t19 18
t19 20q58 107 82 144q34 31 65 71l86 133q4 19 31 72q0 24 -31 74h-22zM172 870h14q31 -17 31 -55v-10q0 -15 -2 -37t-2 -27q0 -8 2 -19.5t2 -14.5v-123q0 -162 -8 -248q-42 -6 -119 -41q0 -26 10 -39q17 -29 41 -29h13q23 5 83.5 14t86.5 13q30 0 67 -4h15q16 0 25.5 2.5
t16.5 6.5t11 5q0 38 -41 53q-22 5 -32.5 9t-21.5 13.5t-18 14.5v480q3 22 9 58l14 83q0 10 -7 45v14q-18 4 -57 4q-32 -32 -125 -47q-96 -18 -127 -39q-8 -36 -8 -43q0 -41 41 -41h12q33 2 74 2zM954 -141q-4 -12 -22 -37l-96 -68q-68 -50 -68 -82q0 -15 23 -51h28
q51 0 131 6q20 0 50.5 2t41.5 2l68 -4q31 -4 78 -4q41 0 63.5 8.5t29 18t15.5 31.5l4 2l29 61q-2 14 -22 59q-19 0 -51 -17t-37 -17q-2 -2 -22.5 -4t-78 -6t-108.5 -9q-25 10 -37 31q-4 4 -8 10q147 124 186 154q115 103 141 186v74q0 99 -63 157t-168 58q-7 -5 -47 -9
t-49 -10q-54 -19 -168 -129q6 -32 22 -45l12 -4q11 0 24 9.5t27.5 24t22.5 19.5q54 33 115 33q99 0 127 -86q16 -24 16 -51q0 -48 -57 -139q-16 -38 -152 -174z" />
    <glyph glyph-name="threequarters" unicode="&#xbe;" horiz-adv-x="1363" 
d="M219 1057q-17 -5 -71.5 -37t-69.5 -37q-4 -18 -4 -63q6 4 14 4q14 0 27 -15q17 0 80 18.5t102 18.5q4 -4 14 -4h23q37 0 65 -37q0 -38 -40.5 -93t-86.5 -75q-32 -10 -82 -30q-17 -14 -45 -56q4 -28 33 -57l4 -2h135q45 -32 60 -74q6 -24 6 -72q-7 -7 -31.5 -33t-42.5 -44
q-12 -1 -78.5 -17t-85.5 -16q-5 0 -38.5 3t-43.5 3q-31 -7 -36 -10q-31 -14 -31 -41q0 -28 22 -64q54 -8 82 -8q101 0 208 42.5t153 98.5q12 11 34.5 61t26.5 56q0 141 -80 182q-1 0 -24.5 3t-41.5 10t-22 20q53 42 79 66t47.5 61t21.5 78q0 74 -55 121.5t-138 50.5
q-8 -7 -47.5 -9t-42.5 -3zM842 573q16 33 96 168q11 11 94 111q19 48 70 145v60q-16 6 -60 12q-7 -7 -22 -12q-16 -4 -28.5 -14.5t-18 -19.5t-15 -28.5t-12.5 -25.5q-1 -1 -158 -269l-10 -49q-2 0 -2 -2l-4 -4q-12 -15 -57 -80v-4q-6 -21 -23 -65q-18 -32 -86 -127
q-57 -111 -114 -219l-9 -13q-64 -83 -100 -141q-73 -133 -86 -156q-3 -4 -20 -20t-27 -29q-23 -52 -60 -104q0 -16 1.5 -27t2.5 -15t3.5 -10t3.5 -8q23 -4 53 -4q29 0 37 4q23 42 165.5 299.5t248.5 452.5q11 30 69 102q37 45 68 92zM692 -104q0 -2 2.5 -5t7.5 -9.5t9 -14.5
q41 -12 90 -12q47 0 127 12q96 3 114 10q3 -3 12 -11t17 -15t16 -11l-18 -186q2 -4 4.5 -7.5t6.5 -9.5t7 -10q55 -10 82 -10q1 1 19 10q8 28 8 60q0 8 -2 28t-2 35q0 13 -2 33.5t-2 26.5q0 28 8 40q0 9 2 17q23 -4 49 -4q23 0 27 4q10 2 41 33q0 22 -3.5 34.5t-9 20
t-6.5 12.5q-84 0 -112 19q-4 14 -4 51q0 64 16 135l-8 104q10 41 10 82q0 36 -10 43q0 13 -4 19q-36 8 -47 8q-221 -213 -451 -500q0 -11 6 -32zM1034 223q1 -1 14.5 -6.5t24.5 -11.5q2 -68 2 -160q0 -55 -2 -59q0 -9 -4 -19q-31 -8 -78 -8q-35 0 -45 8h-49q-68 0 -78 10
q0 3 -8 15q78 67 223 231z" />
    <glyph glyph-name="questiondown" unicode="&#xbf;" horiz-adv-x="477" 
d="M14 297q-10 -30 -10 -61q0 -24 10 -76q28 -109 54 -142q23 -29 122 -81q87 -46 146 -46l10 3q9 3 16 6t20.5 13t27.5 24l10 30v2q0 22 -14 48.5t-33 33.5q-63 -3 -86 -33h-19q-126 0 -153 68q-15 21 -15 55q0 24 13 68q36 132 206 242q12 8 26.5 56.5t14.5 88.5
q0 31 -6 49q-12 6 -18 10q-27 -6 -39 -51q-8 -54 -21 -67l-149 -105q-87 -65 -113 -135zM346 770q46 18 55 57q0 20 -2.5 35t-10.5 28t-11 17.5t-17.5 18t-17.5 16.5q-42 0 -82 -27q-10 -42 -10 -73v-23l29 -37q53 -12 67 -12z" />
    <glyph glyph-name="Agrave" unicode="&#xc0;" horiz-adv-x="1120" 
d="M295 365q-5 -8 -18 -30.5t-23 -37.5q-19 -64 -59 -164q-14 -21 -68 -49l-86 -43q0 -15 2 -22t11.5 -19t13.5 -18q29 0 159 18l172 -8q3 5 7.5 9.5t12 9.5t9.5 7q0 18 -10 41q-40 12 -105 45q7 98 37 172q33 66 74 138q36 8 72 22h55q78 0 106 -12.5t35 -50.5l35 -123
l33 -119l4 -8q0 -16 -29.5 -35.5t-68.5 -32.5l-7 -14q5 -5 11 -29v-4q54 -8 104 -8h105q46 0 100 -8v-2h8v2q54 0 68 31v4q0 13 -9.5 27.5t-25.5 17.5q-41 11 -55 18t-33 29q-28 47 -41 112q-16 86 -31 119q-10 19 -20.5 47.5t-18.5 51t-23 66t-24 69.5l-78 235
q-4 12 -10.5 63t-15.5 68q0 5 -52 92h-26q-30 -42 -137 -305q-2 -12 -5.5 -20.5t-11 -24t-14.5 -33.5l-6 -41l-27 -18q-8 -15 -19.5 -44t-33 -83t-43.5 -108zM618 522h-122q-15 0 -19 10q0 7 -8 11l-4 8l4 12q0 43 74 174q20 -3 30.5 -14.5t22.5 -38.5l4 -10q6 -12 12.5 -35
t10.5 -39.5t6 -17.5q0 -34 -11 -60zM625 1225q-25 46 -111 182q-45 53 -55 57q-27 21 -45 21q-5 -3 -13.5 -9t-22 -24.5t-13.5 -36.5l4 -14q7 -21 55 -101q9 -13 86 -81q78 -50 100 -50h4q23 13 23 29q0 18 -12 27z" />
    <glyph glyph-name="Aacute" unicode="&#xc1;" horiz-adv-x="1120" 
d="M295 365q-5 -8 -18 -30.5t-23 -37.5q-19 -64 -59 -164q-14 -21 -68 -49l-86 -43q0 -15 2 -22t11.5 -19t13.5 -18q29 0 159 18l172 -8q3 5 7.5 9.5t12 9.5t9.5 7q0 18 -10 41q-40 12 -105 45q7 98 37 172q33 66 74 138q36 8 72 22h55q78 0 106 -12.5t35 -50.5l35 -123
l33 -119l4 -8q0 -16 -29.5 -35.5t-68.5 -32.5l-7 -14q5 -5 11 -29v-4q54 -8 104 -8h105q46 0 100 -8v-2h8v2q54 0 68 31v4q0 13 -9.5 27.5t-25.5 17.5q-41 11 -55 18t-33 29q-28 47 -41 112q-16 86 -31 119q-10 19 -20.5 47.5t-18.5 51t-23 66t-24 69.5l-78 235
q-4 12 -10.5 63t-15.5 68q0 5 -52 92h-26q-30 -42 -137 -305q-2 -12 -5.5 -19.5t-11 -21t-14.5 -32.5l-6 -46l-27 -18q-8 -15 -19.5 -44t-33 -83t-43.5 -108zM459 543l10 20q0 43 74 174q46 -6 57 -63q13 -65 29 -92q0 -34 -11 -60h-67q-33 0 -92 21zM592 1225
q44 78 100 168l8 14q2 0 14.5 13t27.5 28l14 16q27 21 45 21q3 0 14.5 -8.5t23 -27t11.5 -38.5v-10q-8 -24 -57 -101q-6 -12 -88 -81q-22 -17 -54 -33.5t-45 -16.5h-2q-22 11 -22 29q0 20 10 27z" />
    <glyph glyph-name="Acircumflex" unicode="&#xc2;" horiz-adv-x="1120" 
d="M295 365q-5 -8 -18 -30.5t-23 -37.5q-19 -64 -59 -164q-14 -21 -68 -49l-86 -43q0 -15 2 -22t11.5 -19t13.5 -18q29 0 159 18l172 -8q3 5 7.5 9.5t12 9.5t9.5 7q0 18 -10 41q-40 12 -105 45q7 98 37 172q33 66 74 138q36 8 72 22h55q78 0 106 -12.5t35 -50.5l35 -123
l33 -119l4 -8q0 -16 -29.5 -35.5t-68.5 -32.5l-7 -14q5 -5 11 -29v-4q54 -8 104 -8h105q46 0 100 -8v-2h8v2q54 0 68 31v4q0 13 -9.5 27.5t-25.5 17.5q-41 11 -55 18t-33 29q-28 47 -41 112q-16 86 -31 119q-10 19 -20.5 47.5t-18.5 51t-23 66t-24 69.5l-78 235
q-4 12 -10.5 63t-15.5 68q0 5 -52 92h-26q-30 -42 -137 -305q-6 -41 -35 -112l-2 -7l-27 -18q-8 -15 -19.5 -44t-33 -83t-43.5 -108zM618 522h-104q-24 0 -31 4.5t-10 24.5q0 1 -2 4t-2 8q0 43 74 174q46 -6 57 -63q13 -65 29 -92q0 -34 -11 -60zM551 1143q-12 -33 -82 -33
q-39 0 -96 10h-13q-22 0 -22 27q0 19 4 31l57 32q15 16 33 68.5t19 54.5q25 41 55 105q14 48 44 92.5t50 44.5q47 0 96 -137q6 -18 14.5 -37.5t20 -43.5t17.5 -38q14 -46 49 -105l4 -2q17 -10 55 -34q8 -24 8 -31q0 -27 -22 -27q-33 -4 -86 -4q-50 0 -64 8q-7 0 -41 19
q5 31 27 45l10 8q11 27 17 41q-8 64 -54 137q0 5 -19.5 25t-31.5 20q-16 0 -35 -22l-18 -23q-45 -86 -51 -155q0 -1 24.5 -25t30.5 -51z" />
    <glyph glyph-name="Atilde" unicode="&#xc3;" horiz-adv-x="1120" 
d="M295 365q-5 -8 -18 -30.5t-23 -37.5q-19 -64 -59 -164q-14 -21 -68 -49l-86 -43q0 -15 2 -22t11.5 -19t13.5 -18q29 0 159 18l172 -8q3 5 7.5 9.5t12 9.5t9.5 7q0 18 -10 41q-40 12 -105 45q7 98 37 172q33 66 74 138q36 8 72 22h55q78 0 106 -12.5t35 -50.5l35 -123
l33 -119l4 -8q0 -16 -29.5 -35.5t-68.5 -32.5l-7 -14q5 -5 11 -29v-4q54 -8 104 -8h105q46 0 100 -8v-2h8v2q54 0 68 31v4q0 13 -9.5 27.5t-25.5 17.5q-41 11 -55 18t-33 29q-28 47 -41 112q-16 86 -31 119q-10 19 -20.5 47.5t-18.5 51t-23 66t-24 69.5l-78 235
q-4 12 -10.5 63t-15.5 68q0 5 -52 92h-26q-30 -42 -137 -305q-6 -41 -35 -112l-2 -7l-27 -18q-8 -15 -19.5 -44t-33 -83t-43.5 -108zM618 522h-30q-56 0 -80 3.5t-31 15.5l-12 10l4 12q0 43 74 174q46 -6 57 -63q13 -65 29 -92q0 -34 -11 -60zM201 1292q-3 -6 -45 -104
q-21 -49 -52 -49q-35 0 -44 20t-9 88q0 49 103 117l165 111q29 18 58 18q60 0 135.5 -55t97.5 -105q53 -119 154 -119q59 0 103 34t44 89q0 21 -14 83t-14 77q0 55 55 55q31 0 59 -14.5t31 -32.5q4 -12 4 -39q0 -49 -16 -114q-11 -59 -25 -96t-38.5 -60t-47.5 -33.5
t-67 -25.5q-70 -23 -131 -23q-77 0 -134 66q-3 3 -81 127q-45 71 -86 71q-150 0 -205 -86z" />
    <glyph glyph-name="Adieresis" unicode="&#xc4;" horiz-adv-x="1120" 
d="M295 365q-5 -8 -18 -30.5t-23 -37.5q-19 -64 -59 -164q-14 -21 -68 -49l-86 -43q0 -15 2 -22t11.5 -19t13.5 -18q29 0 159 18l172 -8q3 5 7.5 9.5t12 9.5t9.5 7q0 18 -10 41q-40 12 -105 45q7 98 37 172q33 66 74 138q36 8 72 22h55q78 0 106 -12.5t35 -50.5l35 -123
l33 -119l4 -8q0 -16 -29.5 -35.5t-68.5 -32.5l-7 -14q5 -5 11 -29v-4q54 -8 104 -8h105q46 0 100 -8v-2h8v2q54 0 68 31v4q0 13 -9.5 27.5t-25.5 17.5q-41 11 -55 18t-33 29q-28 47 -41 112q-16 86 -31 119q-10 19 -20.5 47.5t-18.5 51t-23 66t-24 69.5l-78 235
q-4 12 -10.5 63t-15.5 68q0 5 -52 92h-26q-30 -42 -137 -305q-6 -41 -35 -112l-2 -7l-27 -18q-8 -15 -19.5 -44t-33 -83t-43.5 -108zM618 522h-30q-99 0 -115 29q-4 4 -4 31v-19q0 43 74 174q46 -6 57 -63q13 -65 29 -92q0 -34 -11 -60zM510 1284q-44 16 -74 16
q-2 -2 -12.5 -9t-16.5 -12t-18 -16.5t-24 -25.5q0 -40 4.5 -55t21.5 -35l23 -19h47q17 0 30.5 7t19 13.5t15.5 20.5l6 9v18q0 49 -22 88zM846 1284q-47 16 -76 16q-3 -2 -15.5 -11t-26 -21.5t-28.5 -30.5q0 -41 5 -59.5t22 -38.5l21 -11h49q12 0 21.5 3t17 9.5t12 11
t11.5 14t9 12.5v18q0 49 -22 88z" />
    <glyph glyph-name="Aring" unicode="&#xc5;" horiz-adv-x="1120" 
d="M793 1307l-23 -33q-71 -109 -174 -109q-27 0 -86 19q-65 28 -104 94l-5 2q-1 5 -3.5 12t-7 17.5t-7.5 19.5l-10 82q0 7 2.5 17.5t3.5 13.5q47 134 135 155q16 0 51 15q189 0 232 -168q12 -38 12 -70q0 -36 -16 -67zM473 1425q-4 -10 -4 -41q0 -10 4 -28l4 -23q4 -4 4 -12
q20 -59 88 -59q54 0 92.5 36t38.5 95v8q-6 110 -104 110q-10 5 -31 5h-18q-33 -7 -48 -26.5t-26 -64.5zM295 365q-5 -8 -18 -30.5t-23 -37.5q-19 -64 -59 -164q-14 -21 -68 -49l-86 -43q0 -15 2 -22t11.5 -19t13.5 -18q29 0 159 18l172 -8q3 5 7.5 9.5t12 9.5t9.5 7
q0 18 -10 41q-40 12 -105 45q7 98 37 172q33 66 74 138q36 8 72 22h55q78 0 106 -12.5t35 -50.5l35 -123l33 -119l4 -8q0 -16 -29.5 -35.5t-68.5 -32.5l-7 -14q5 -5 11 -29v-4q54 -8 104 -8h105q46 0 100 -8v-2h8v2q54 0 68 31v4q0 13 -9.5 27.5t-25.5 17.5q-41 11 -55 18
t-33 29q-28 47 -41 112q-16 86 -31 119q-10 19 -20.5 47.5t-18.5 51t-23 66t-24 69.5l-78 235q-4 12 -10.5 63t-15.5 68q0 5 -52 92h-26q-30 -42 -137 -305q-6 -41 -35 -112l-2 -7l-27 -18q-8 -15 -19.5 -44t-33 -83t-43.5 -108zM618 522h-30q-99 0 -115 29q-4 4 -4 31v-19
q0 43 74 174q46 -6 57 -63q13 -65 29 -92q0 -34 -11 -60z" />
    <glyph glyph-name="AE" unicode="&#xc6;" horiz-adv-x="1443" 
d="M1233 291l6 2q0 1 3 2.5t8.5 6t9.5 11.5q12 7 12 41l-2 43l-4 23v112q0 13 6 38t6 30q0 9 -2.5 17t-5.5 13t-6.5 9.5t-3.5 5.5q-42 -6 -54 -49q-10 -40 -44 -65t-70 -25l-23 -2q-8 0 -10 2h-68q-13 0 -29.5 2t-19.5 2q-11 11 -41 31v297l31 36h18q22 0 84 -10
q40 -8 80 -8h66q42 -6 80 -47q8 -12 55 -72q10 0 28 11l9 81q4 35 4 95q-2 5 -31 37q-16 14 -74 14q-23 0 -84 -5t-71 -5h-389q-99 18 -175 18l-30 -37q0 -63 76 -63h32l41 -37q-7 -39 -51 -94q-57 -71 -68 -82q-11 -17 -40.5 -65t-63 -101.5t-68.5 -108.5q-32 -38 -51 -59
q-1 -3 -24 -49l-49 -51q-3 -17 -31 -82q-62 -96 -172 -117q0 -8 -10 -23q-7 -28 -7 -34t2 -12.5t4 -11t8.5 -18t10.5 -20.5q17 0 104 23q86 22 115 22q19 0 35 -8h24q55 0 91 22q0 22 -19 56q-21 3 -100 30v15q0 51 59 149l96 156q10 9 28.5 17t21.5 10q10 4 41 4l127 -13
q18 0 36 9q52 -21 64 -27q0 -115 4 -170v-59q0 -64 -8 -80l-23 -29q-36 0 -47.5 -10t-11.5 -39l27 -45l88 16h100q139 0 182 -12h240q33 17 45 94q9 77 24 101q0 24 -2 36q-12 0 -20 4q-90 -172 -238 -172q-82 0 -174 27q-17 4 -28 15.5t-13 25.5v346q2 19 64 19h24l136 -9
q15 -3 47 -28q28 -32 39 -105l2 -10q3 -8 12 -8zM715 827h4q25 0 33 -24t8 -66v-51q0 -27 4 -35v-100q-6 -37 -35 -70q-18 1 -57.5 5t-61.5 6q-41 0 -73 18q4 50 61 115l6 8q12 27 111 194z" />
    <glyph glyph-name="Ccedilla" unicode="&#xc7;" horiz-adv-x="909" 
d="M905 127q-4 -8 -7.5 -18.5t-9 -27.5t-9.5 -30q-4 -2 -52 -37q-86 -38 -176 -47q-4 -4 -14 -4q-15 0 -27 4l-45 6h-69v-14h26q21 0 21 -37q0 -22 -6 -49q-3 -30 -23.5 -52t-44.5 -22l-10 4q-63 7 -72 7q-21 -2 -39 -3.5t-26 -2.5t-9 -1q-41 3 -41 25q0 25 47 45h123
q38 0 41 35h-100q-5 0 -11.5 7t-6.5 17q0 25 26 31h4q15 0 29 -4l18 -4q9 0 13 -4q0 13 -4 31q-215 34 -365 231q-26 21 -60 73t-44 93v20q0 62 18 152q27 141 45 168q44 93 135 184q101 93 199 111q45 3 131 33h45q274 0 309 -68q29 -29 29 -88q0 -46 -10 -82h-54
q-119 119 -188 119q-29 0 -139 -29q-140 -38 -220.5 -136t-80.5 -245v-45q1 -10 2 -43t2.5 -49t4.5 -41.5t8 -43.5t13 -32q42 -80 145 -140.5t208 -60.5q57 0 121 23q13 5 83 78q63 63 86 63l17 -4l10 -10v-8q10 -13 10 -41q0 -16 -6 -37z" />
    <glyph glyph-name="Egrave" unicode="&#xc8;" horiz-adv-x="874" 
d="M342 496q24 6 59 6l154 -6l19 -22q18 -21 32 -38q0 -23 19 -86q8 -8 22 -8q13 0 17 4l18 4v156q0 65 18 86q0 68 -26 113q-21 -5 -41.5 -32.5t-38.5 -57.5t-31 -37q-32 -13 -82 -13q-109 0 -162 27v176q6 93 35 147q52 9 97 9q136 0 194 -33q5 -8 22.5 -40.5t32.5 -54.5
t23 -22h4q4 0 25 12q18 94 18 189l-37 41h-495q-76 18 -193 18q-5 -1 -9 -3.5t-9 -8t-9 -8.5q0 -74 115 -80q39 -68 39 -137q0 -13 -8 -45v-19q0 -8 8 -86q2 -2 2 -24q0 -23 -2 -41q-2 -16 -4 -32.5t-3 -25.5t-1 -14v-295q4 23 4 72q0 -133 -35 -183q-89 -14 -106 -18
l-31 -31q0 -2 8 -18q9 -27 68 -27q13 0 55.5 4t50.5 4q20 0 120 4.5t134 4.5l174 -27q26 0 80.5 11.5t61.5 11.5h4q41 187 41 196q0 16 -1 22t-7.5 11t-20.5 8q-9 -14 -90 -127q-47 -47 -178 -47q-113 0 -172 33q-2 8 -3 16.5t-2 18.5t-2 14q0 17 11 170t14 158zM551 1225
q-12 20 -49 80t-62 102q-45 53 -57 57q-27 21 -45 21q-5 -3 -13 -9t-21 -24.5t-13 -36.5l4 -14q2 -13 55 -101q9 -13 86 -81q73 -50 101 -50h4q22 13 22 29q0 18 -12 27z" />
    <glyph glyph-name="Eacute" unicode="&#xc9;" horiz-adv-x="874" 
d="M178 18q20 0 120 4.5t134 4.5q75 -7 123 -17l37 4q13 0 38.5 -2.5t35.5 -3.5h20q23 0 66 15q41 187 41 196q0 16 -1 22t-7.5 11t-20.5 8q-9 -14 -90 -127q-47 -47 -178 -47q-113 0 -172 33q-2 8 -3 16.5t-2 18.5t-2 14q0 23 7 37v145l-5 10q0 92 23 136q24 6 59 6l154 -6
l19 -22q18 -21 32 -38q0 -23 19 -86q8 -8 22 -8q13 0 17 4l18 4v156q0 65 18 86q0 68 -26 113q-21 -5 -41.5 -32.5t-38.5 -57.5t-31 -37q-32 -13 -82 -13q-109 0 -162 27v176q6 93 35 147q52 9 97 9q136 0 194 -33q5 -8 22.5 -40.5t32.5 -54.5t23 -22h4q4 0 25 12
q18 94 18 189l-37 41h-495q-76 18 -193 18q-5 -1 -9 -3.5t-9 -8t-9 -8.5q0 -74 115 -80q39 -68 39 -137q0 -13 -8 -45v-19q0 -8 8 -86q2 -2 2 -24q0 -23 -2 -41q-2 -16 -4 -32.5t-3 -25.5t-1 -14v-295q4 23 4 72q0 -133 -35 -183q-89 -14 -106 -18l-31 -31q0 -2 8 -18
q9 -27 68 -27q13 0 55.5 4t50.5 4zM369 1225q44 78 100 168l8 14q2 0 14.5 13t26 28t14.5 16q27 21 46 21q3 0 14 -8.5t22 -27t11 -38.5v-10q-3 -18 -56 -101q-6 -12 -88 -81q-23 -17 -54 -33.5t-44 -16.5h-4q-21 12 -21 29q0 19 11 27z" />
    <glyph glyph-name="Ecircumflex" unicode="&#xca;" horiz-adv-x="868" 
d="M342 496q24 6 59 6l154 -6l19 -22q18 -21 32 -38q0 -23 19 -86q8 -8 22 -8q13 0 17 4l18 4v156q0 35 9 86t18 61q0 20 -4.5 25.5t-14 10t-16.5 16.5q-21 -5 -41.5 -32.5t-38.5 -57.5t-31 -37q-32 -13 -82 -13q-109 0 -162 27v176q6 93 35 147q52 9 97 9q136 0 194 -33
q5 -8 22.5 -40.5t32.5 -54.5t23 -22h4q4 0 25 12q18 94 18 189q0 18 -17.5 29.5t-43.5 11.5h-471q-76 18 -193 18q-5 -1 -9 -3.5t-9 -8t-9 -8.5q0 -74 115 -80q39 -68 39 -137q0 -13 -8 -45v-19q0 -8 8 -86q2 -2 2 -24q0 -23 -2 -41q-2 -16 -4 -32.5t-3 -25.5t-1 -14v-295
q4 23 4 72q0 -133 -35 -183q-89 -14 -106 -18l-31 -31q0 -2 8 -18q9 -27 68 -27q13 0 55.5 4t50.5 4q20 0 120 4.5t134 4.5q75 -7 123 -17l37 4q13 0 38.5 -2.5t35.5 -3.5h20q23 0 66 15q41 187 41 196q0 16 -1 22t-7.5 11t-20.5 8q-9 -14 -90 -127q-47 -47 -178 -47
q-113 0 -172 33q-2 8 -3 16.5t-2 18.5t-2 14q0 17 11 170t14 158zM358 1157v-6q0 -35 -122 -35q-15 0 -36.5 2t-25.5 2q-20 0 -20 27l-4 10q0 9 13.5 18t36 28t38.5 48q6 21 14.5 42.5t16 36.5t23 48.5t27.5 59.5q14 48 44.5 92.5t50.5 44.5q47 0 96 -137q12 -34 53 -119
q9 -42 47 -105q48 -28 60 -36q8 -24 8 -31q0 -27 -23 -27q-33 -4 -86 -4q-47 0 -63 8q-7 0 -41 19q5 27 27 45l10 8q0 1 5.5 15.5t10.5 25.5q-8 66 -53 137q0 5 -19.5 25t-31.5 20q-16 0 -35 -22l-19 -23q-45 -86 -51 -155q1 -4 11 -10.5t21.5 -19t16.5 -32.5z" />
    <glyph glyph-name="Edieresis" unicode="&#xcb;" horiz-adv-x="874" 
d="M342 496q24 6 59 6l154 -6l19 -22q18 -21 32 -38q0 -23 19 -86q8 -8 22 -8q13 0 17 4l18 4v156q0 65 18 86q0 68 -26 113q-21 -5 -41.5 -32.5t-38.5 -57.5t-31 -37q-32 -13 -82 -13q-109 0 -162 27v176q6 93 35 147q52 9 97 9q136 0 194 -33q5 -8 22.5 -40.5t32.5 -54.5
t23 -22h4q4 0 25 12q18 94 18 189q-4 41 -41 41h-491q-76 18 -193 18q-5 -1 -9 -3.5t-9 -8t-9 -8.5q0 -74 115 -80q39 -68 39 -137q0 -13 -8 -45v-19q0 -8 8 -86q2 -2 2 -24q0 -23 -2 -41q-2 -16 -4 -32.5t-3 -25.5t-1 -14v-295q4 23 4 72q0 -133 -35 -183q-89 -14 -106 -18
l-31 -31q0 -2 8 -18q9 -27 68 -27q13 0 55.5 4t50.5 4q20 0 120 4.5t134 4.5q75 -7 123 -17l37 4q13 0 38.5 -2.5t35.5 -3.5h20q23 0 66 15q41 187 41 196q0 16 -1 22t-7.5 11t-20.5 8q-9 -14 -90 -127q-47 -47 -178 -47q-113 0 -172 33q-2 8 -3 16.5t-2 18.5t-2 14
q0 17 11 170t14 158zM287 1284q-44 16 -74 16q-3 -2 -13 -9t-17 -12t-19 -16.5t-23 -25.5q0 -36 10 -56.5t31 -43.5l8 -9h48q17 0 30.5 7t19 13.5t15.5 20.5l6 9v18q0 49 -22 88zM623 1284q-47 16 -76 16q-3 -2 -15.5 -11t-26 -21.5t-28.5 -30.5q0 -36 10 -56.5t31 -43.5
l6 -9h49q12 0 21.5 2.5t17.5 9.5t12 11t11.5 14.5t9.5 12.5v18q0 49 -22 88z" />
    <glyph glyph-name="Igrave" unicode="&#xcc;" horiz-adv-x="495" 
d="M0 37q16 -45 324 -45h75q3 5 7.5 9.5t12 9.5t9.5 7l4 13q0 19 -33 41t-80 32q-6 54 -6 78v41q4 31 4 74q0 35 -4 41q-8 39 -8 108q0 55 4 86v23q0 45 4 74v241q5 15 66 39q63 22 63 47q0 16 -10.5 34.5t-32.5 25.5q-24 8 -45 8q-32 0 -94 -10l-170 10q-59 -26 -80 -37
q0 -11 23 -59q67 -15 98 -60l25 -714q-15 -45 -64 -62q-19 -6 -33 -12t-22 -9.5t-15 -9t-9 -7.5t-7 -9t-6 -8zM291 1225q-28 47 -113 182q-45 53 -55 57q-27 21 -45 21q-5 -3 -13 -9t-21 -24.5t-13 -36.5l2 -14q8 -24 57 -101q4 -8 84 -81q78 -50 102 -50h3q22 11 22 29
q0 17 -10 27z" />
    <glyph glyph-name="Iacute" unicode="&#xcd;" horiz-adv-x="495" 
d="M0 37q16 -45 324 -45h75q3 5 7.5 9.5t12 9.5t9.5 7l4 13q0 19 -33 41t-80 32q-6 54 -6 78v41q4 31 4 74q0 35 -4 41q-8 39 -8 108q0 55 4 86v23q0 45 4 74v241q5 15 66 39q63 22 63 47q0 16 -10.5 34.5t-32.5 25.5q-24 8 -45 8q-32 0 -94 -10l-170 10q-59 -26 -80 -37
q0 -11 23 -59q67 -15 98 -60l25 -714q-15 -45 -64 -62q-19 -6 -33 -12t-22 -9.5t-15 -9t-9 -7.5t-7 -9t-6 -8zM145 1225q35 62 101 168l8 14q1 0 13.5 13t26.5 28t15 16q27 21 45 21q3 0 14 -8.5t22 -27t11 -38.5v-10q-2 -13 -55 -101q-12 -17 -90 -81q-20 -16 -51.5 -33
t-44.5 -17h-4q-23 13 -23 29q0 18 12 27z" />
    <glyph glyph-name="Icircumflex" unicode="&#xce;" horiz-adv-x="495" 
d="M0 37q16 -45 324 -45h75q3 5 7.5 9.5t12 9.5t9.5 7l4 13q0 19 -33 41t-80 32q-6 54 -6 78v41q4 31 4 74q0 35 -4 41q-8 39 -8 108q0 55 4 86v23q0 45 4 74v241q5 15 66 39q63 22 63 47q0 16 -10.5 34.5t-32.5 25.5q-24 8 -45 8q-32 0 -94 -10l-170 10q-59 -26 -80 -37
q0 -11 23 -59q67 -15 98 -60l25 -714q-15 -45 -64 -62q-19 -6 -33 -12t-22 -9.5t-15 -9t-9 -7.5t-7 -9t-6 -8zM178 1143q0 -23 -141 -23h-47q-23 0 -23 27l-4 10q0 9 13.5 18t36 28t38.5 48q10 30 82 187q16 49 45 93t49 44q48 0 97 -137q8 -24 29 -68.5t24 -50.5
q8 -34 47 -105q29 -15 59 -36q9 -27 9 -31q0 -27 -23 -27q-33 -4 -86 -4q-48 0 -64 8q-6 0 -40 19q5 28 26 45l12 8q3 13 15 41q-8 66 -53 137q0 5 -20 25t-32 20q-16 0 -32 -22l-21 -23q-45 -86 -51 -155q0 -1 24.5 -25t30.5 -51z" />
    <glyph glyph-name="Idieresis" unicode="&#xcf;" horiz-adv-x="495" 
d="M0 37q16 -45 324 -45h75q3 5 7.5 9.5t12 9.5t9.5 7l4 13q0 19 -33 41t-80 32q-6 54 -6 78v41q4 31 4 74q0 35 -4 41q-8 39 -8 108q0 55 4 86v23q0 45 4 74v241q5 15 66 39q63 22 63 47q0 16 -10.5 34.5t-32.5 25.5q-24 8 -45 8q-32 0 -94 -10l-170 10q-59 -26 -80 -37
q0 -11 23 -59q67 -15 98 -60l25 -714q-15 -45 -64 -62q-19 -6 -33 -12t-22 -9.5t-15 -9t-9 -7.5t-7 -9t-6 -8zM100 1284q-44 16 -73 16q-3 -2 -13 -9t-16.5 -12t-18.5 -16.5t-24 -25.5q0 -36 10 -56.5t31 -43.5l8 -9h47q17 0 30.5 7t20 14t15.5 20l6 9v18q0 47 -23 88z
M436 1284q-47 16 -76 16q-3 -2 -15.5 -11t-25.5 -21.5t-28 -30.5q0 -36 10 -56.5t31 -43.5l6 -9h49q12 0 21.5 2.5t17.5 9.5t12 11t11.5 14.5t9.5 12.5v18q0 47 -23 88z" />
    <glyph glyph-name="Eth" unicode="&#xd0;" horiz-adv-x="1185" 
d="M336 459v-72q0 -137 4 -223l16 -17q24 -22 39 -34.5t41.5 -23.5t55.5 -11q62 0 141 26q33 0 94 15q51 28 129 106q74 74 94 133q4 36 11 152q-88 436 -574 436l-4 -2q-33 -25 -33 -53q-18 -36 -18 -76q0 -4 1 -14t3 -29t4 -35q2 -14 2 -41q0 -22 -2 -30q-4 -14 -4 -60
v-33h127q2 -2 5.5 -5t5 -5t4.5 -5.5t4.5 -6t3.5 -7t3.5 -9.5t2 -11t0.5 -14l-41 -51h-115zM82 573h78l-4 19q0 4 2 10t2 8q12 46 12 101v41l-12 139q-32 18 -51 20q-32 4 -64 17q-12 27 -12 55l39 31q18 0 59 18q70 0 152 4q76 2 182 2q202 0 262 -24q229 -95 311 -232
q10 -10 25 -53l2 -6q12 -56 18 -68q35 -96 35 -194q0 -67 -16 -111q-16 -21 -55 -90q-2 -6 -6 -14.5t-10 -21.5t-11 -23q-53 -76 -133 -115q-82 -36 -187 -59q-122 -27 -141 -27h-8q-56 10 -64 10q-23 -2 -45 -2h-6q-112 19 -145 19t-45 -4q-128 -23 -174 -23q-13 16 -13 45
q0 19 4 29q62 15 90.5 36t28.5 62q0 11 -10 66v8q-4 14 -4 41v14q7 50 10 113q-1 2 -2.5 8.5t-4.5 16.5t-7 20h-101l-4 2l-5 6q-6 6 -6.5 7t-4.5 6t-4.5 8t-2.5 8t-2.5 10.5t-0.5 11.5q7 8 25 27.5t24 27.5z" />
    <glyph glyph-name="Ntilde" unicode="&#xd1;" horiz-adv-x="1251" 
d="M190 805q0 -8 -6 -51t-6 -58q0 -21 8 -41q4 -10 4 -41q0 -35 -18 -141l6 -55q0 -94 -10 -176q0 -1 -2 -10.5t-2 -16.5q0 -4 2 -18.5t2 -24.5v-18q0 -30 -12 -45q-15 -41 -123 -68q0 -15 26 -41q169 0 369 -8q7 15 23 18q0 24 -19 58h-41q-90 0 -108 18q-33 26 -33 252
q0 108 4 176q0 1 -1 12t-3 33.5t-4 46.5v31q0 33 8 49v19q0 25 10 40q60 -6 115 -79q22 -33 86 -115l164 -152q35 -40 91 -119.5t66 -93.5q25 -18 107 -100q27 -35 123 -145q17 0 39 14l2 4q0 101 -4 195q-2 84 -2 192q0 200 24 309q4 8 4 31q0 25 -4 41l-6 78q0 21 3 36
t10.5 24.5t11.5 13.5t16 10.5t14 7.5h15q75 0 75 53q0 5 -1.5 9.5t-3.5 8t-6 10t-7 11.5l-158 -6l-141 10q-43 0 -70 -18q-2 -1 -5 -5t-8 -10t-9 -10q2 -3 10 -41q2 -1 18.5 -7.5t30.5 -10.5h10q17 0 31 2h10q8 0 16 -2t13.5 -5t16 -8.5t18.5 -9.5q4 -39 4 -127l-12 -102
v-47q0 -36 2 -61.5t4 -36.5l2 -11q0 -33 4 -96v-33q0 -37 -4 -45q0 -22 -10 -49q-71 6 -201 182q-18 14 -94 90q-34 42 -178 238l-86 80q-21 30 -50 78q-33 48 -65 59q-3 3 -109 6q-45 4 -104 4h-23q-13 -5 -36 -28q6 -27 10 -35q8 -11 68.5 -28t70.5 -36q18 -32 18 -65z
M276 1292q-18 -36 -45 -104q-24 -49 -53 -49q-34 0 -42.5 20t-8.5 88q0 51 100 117q83 56 168 111q25 18 56 18q61 0 137 -54.5t98 -105.5q50 -119 152 -119q59 0 104 34t45 89q0 21 -15.5 83t-15.5 77q0 55 58 55q31 0 58 -14t30 -33q4 -12 4 -39q0 -45 -14 -114
q-9 -48 -21.5 -81t-25.5 -54t-36 -36.5t-42.5 -23.5t-55.5 -20q-68 -23 -129 -23q-75 0 -135 66q-1 1 -10.5 15.5t-30 46t-41.5 65.5q-42 71 -84 71q-153 0 -205 -86z" />
    <glyph glyph-name="Ograve" unicode="&#xd2;" horiz-adv-x="1091" 
d="M33 291q30 -34 49 -68q94 -162 242 -223q113 -49 200 -49q25 0 45 8q152 44 224 92q73 52 149 168q82 82 82 240q0 71 -18 159q-48 172 -185 281q-142 115 -352 115q-19 -15 -97 -33.5t-89 -24.5q-176 -84 -269 -350q-10 -42 -10 -88q0 -68 19 -139q0 -20 10 -88z
M186 655q62 164 187 224q59 7 129 30h16q162 0 256 -135q86 -122 86 -301q0 -167 -72 -287q-76 -134 -204 -155q-20 -4 -62 -4q-242 0 -336 282l-8 109l-4 10q-10 62 -10 104q0 65 22 123zM588 1225q-14 25 -53.5 88.5t-57.5 93.5q-45 53 -57 57q-27 21 -43 21
q-5 -3 -13.5 -9t-22 -24.5t-13.5 -36.5l4 -14q7 -21 55 -101q9 -13 86 -81q73 -50 100 -50h5q22 13 22 29q0 18 -12 27z" />
    <glyph glyph-name="Oacute" unicode="&#xd3;" horiz-adv-x="1091" 
d="M33 291q30 -34 49 -68q94 -162 242 -223q113 -49 200 -49q25 0 45 8q152 44 224 92q73 52 149 168q82 82 82 240q0 71 -18 159q-48 172 -185 281q-142 115 -352 115q-19 -15 -97 -33.5t-89 -24.5q-176 -84 -269 -350q-10 -42 -10 -88q0 -68 19 -139q0 -20 10 -88z
M186 655q62 164 187 224q59 7 129 30h16q162 0 256 -135q86 -122 86 -301q0 -167 -72 -287q-76 -134 -204 -155q-20 -4 -62 -4q-242 0 -336 282l-8 109l-4 10q-10 62 -10 104q0 65 22 123zM442 1225q13 23 49.5 83t51.5 85l8 14q3 0 28 26.5t27 30.5q27 21 45 21
q3 0 14.5 -8.5t23 -27t11.5 -38.5v-10q-7 -21 -55 -101q-8 -12 -90 -81q-23 -17 -53.5 -33.5t-42.5 -16.5h-4q-23 13 -23 29q0 17 10 27z" />
    <glyph glyph-name="Ocircumflex" unicode="&#xd4;" horiz-adv-x="1091" 
d="M33 291q30 -34 49 -68q94 -162 242 -223q113 -49 200 -49q25 0 45 8q152 44 224 92q73 52 149 168q82 82 82 240q0 71 -18 159q-48 172 -185 281q-142 115 -352 115q-19 -15 -97 -33.5t-89 -24.5q-176 -84 -269 -350q-10 -42 -10 -88q0 -68 19 -139q0 -20 10 -88z
M186 655q62 164 187 224q59 7 129 30h16q162 0 256 -135q86 -122 86 -301q0 -167 -72 -287q-76 -134 -204 -155q-20 -4 -62 -4q-242 0 -336 282l-8 109l-4 10q-10 62 -10 104q0 65 22 123zM514 1151v-4q0 -27 -55 -27h-135q-23 0 -23 27l-4 10q0 9 14 18t37 28t39 48
q5 17 10.5 31.5t14 34t14 31t20 42t23.5 48.5q14 48 44 92.5t50 44.5q24 0 46.5 -33t49.5 -104q6 -18 14.5 -37.5t20 -43.5t17.5 -38q14 -46 49 -105l4 -2q18 -10 55 -34q8 -24 8 -31q0 -27 -22 -27q-35 -4 -86 -4q-50 0 -64 8q-12 0 -39 17l-2 2q5 31 27 45l10 8
q8 20 15 41q-3 56 -52 137q0 5 -19.5 25t-31.5 20q-16 0 -35 -22l-18 -23q-48 -92 -51 -155q1 -4 12 -12t24.5 -22t18.5 -34z" />
    <glyph glyph-name="Otilde" unicode="&#xd5;" horiz-adv-x="1091" 
d="M33 291q30 -34 49 -68q94 -162 242 -223q113 -49 200 -49q25 0 45 8q152 44 224 92q73 52 149 168q82 82 82 240q0 71 -18 159q-48 172 -185 281q-142 115 -352 115q-19 -15 -97 -33.5t-89 -24.5q-176 -84 -269 -350q-10 -42 -10 -88q0 -68 19 -139q0 -20 10 -88z
M186 655q62 164 187 224q59 7 129 30h16q162 0 256 -135q86 -122 86 -301q0 -167 -72 -287q-76 -134 -204 -155q-20 -4 -62 -4q-242 0 -336 282l-8 109l-4 10q-10 62 -10 104q0 65 22 123zM164 1292q-3 -6 -45 -104q-21 -49 -51 -49q-36 0 -45 20.5t-9 87.5q0 47 101 119
q68 42 168 109q25 18 55 18q61 0 137 -54.5t98 -105.5q50 -119 154 -119q59 0 103 34t44 89q0 21 -14 83t-14 77q0 55 55 55q31 0 59 -14.5t31 -32.5q2 -12 2 -39q0 -57 -14 -114q-11 -59 -25 -96t-38.5 -60t-47.5 -33.5t-67 -25.5q-70 -23 -131 -23q-76 0 -133 66
q-14 14 -82 127q-45 71 -86 71q-153 0 -205 -86z" />
    <glyph glyph-name="Odieresis" unicode="&#xd6;" horiz-adv-x="1091" 
d="M33 291q30 -34 49 -68q94 -162 242 -223q113 -49 200 -49q25 0 45 8q152 44 224 92q73 52 149 168q82 82 82 240q0 71 -18 159q-48 172 -185 281q-142 115 -352 115q-19 -15 -97 -33.5t-89 -24.5q-176 -84 -269 -350q-10 -42 -10 -88q0 -68 19 -139q0 -20 10 -88z
M186 655q62 164 187 224q59 7 129 30h16q162 0 256 -135q86 -122 86 -301q0 -167 -72 -287q-76 -134 -204 -155q-20 -4 -62 -4q-242 0 -336 282l-8 109l-4 10q-10 62 -10 104q0 65 22 123zM399 1284q-47 16 -75 16q-3 -2 -15.5 -11t-26 -21.5t-28.5 -30.5q0 -36 10 -56.5
t31 -43.5l6 -9h49q8 0 15.5 1.5t14 5t11 6.5t9.5 9t7 9t7 10t6 9v18q0 50 -21 88zM733 1284q-44 16 -74 16q-3 -3 -15.5 -11.5t-26 -21t-29.5 -30.5q0 -36 10 -56.5t31 -43.5l8 -9h49q8 0 15.5 1.5t14 5t11 6.5t9.5 9t7 9t7 10t6 9v18q0 47 -23 88z" />
    <glyph glyph-name="multiply" unicode="&#xd7;" horiz-adv-x="624" 
d="M188 500q10 -4 56 -60q37 -48 37 -75l-2 -5q-10 -26 -64 -69q-27 -11 -72 -37l-8 -16l17 -19q119 0 133 17q3 0 8 10q-27 21 -27 37v8l33 51q18 -6 35 -23q18 -31 18 -32q0 -22 -18 -33q6 -19 14 -23q59 0 96 -4h17q15 0 20 9h4q4 0 9 10q-30 16 -78 59q-4 4 -13.5 15.5
t-21 25t-23.5 27.5q-6 18 -14 28q6 59 135 121l15 15q0 6 -5 6v8q-10 4 -49 4q-47 0 -82 -4l-14 -10q1 -1 27 -39q-2 -14 -19 -35.5t-18 -26.5q-11 1 -20.5 6t-14 9t-12.5 14.5t-11 13.5q0 28 21 45q0 23 -80 23q-19 0 -37 4h-37q-14 -6 -14 -14q5 -15 59 -41z" />
    <glyph glyph-name="Oslash" unicode="&#xd8;" horiz-adv-x="1083" 
d="M33 291q0 14 -14.5 93.5t-14.5 133.5q0 46 10 88q93 266 269 350q11 6 89 24.5t97 33.5q129 0 238 -45l10.5 7t9.5 7q32 9 37 10q47 0 86 -2l18 -41v-12q0 -15 -22 -51v-4q178 -163 178 -424q0 -100 -27 -162q0 -5 -55 -78q-76 -116 -149 -168q-72 -48 -224 -92l-4 -2
q-18 -6 -41 -6q-26 0 -92 16q-6 -13 -22 -22l-74 -13l6 17q-23 10 -23 37q0 4 5 14q-148 61 -242 223q-3 4 -12.5 16t-19 25t-17.5 27zM336 27q-3 -9 -12 -27zM778 768q-14 -50 -73 -150q-17 -100 -76 -172q-37 -43 -64 -137q-21 -93 -47 -127q-16 -18 -25 -44t-16 -59
t-12 -48q25 -17 49 -17q8 0 55 13l15 4q128 21 204 155q68 124 68 287q0 173 -78 295zM379 131h4q64 186 68 211q3 22 38 113.5t58 132.5q16 26 35.5 96t31 124.5t11.5 59.5q0 3 -16.5 10t-41.5 13t-45 6h-8q-41 -5 -142.5 -60.5t-144.5 -107.5q-46 -53 -77 -153t-35 -166
v-9q0 -48 43 -127t80 -114q31 -29 139 -29h2z" />
    <glyph glyph-name="Ugrave" unicode="&#xd9;" horiz-adv-x="1083" 
d="M78 901q2 -2 26 -14v-324q1 -14 3.5 -33t4 -31t1.5 -22q0 -9 -2 -20.5t-2 -14.5q-13 -67 -13 -137q0 -177 78 -246q64 -58 203 -86l33 4l51 -4q41 -6 90 -6q104 0 161 24t107 81q57 64 72 110q6 18 8.5 47.5t3.5 73t2 62.5q0 13 7.5 68.5t7.5 72.5l-15 72q0 10 2.5 21.5
t7 24.5t5.5 17q4 10 4 33q0 31 -4 45q-2 21 -4 40.5t-3.5 30t-1.5 15.5q0 25 9 47q6 35 53 59l78 39q-6 22 -27 56q-126 8 -160 8q-122 0 -157 -27q-1 -2 -3 -4t-5.5 -6t-6.5 -8q0 -18 13 -31q3 -23 28 -23q34 -3 47 -8t33 -22l6 -6q19 -93 19 -215q0 -138 -19 -250v-164
q-56 -156 -164 -191q-38 0 -123 -10h-14q-41 0 -82 10q-103 33 -141 101q-35 56 -35 172v-2q1 0 3 19.5t3.5 64.5t1.5 100v324q0 36 11 45.5t49 9.5q31 0 55 16l31 37q0 18 -37 60q-31 0 -113 -6.5t-100 -6.5l-92 -10q-28 14 -45 14q-19 0 -19 -22v-6q0 -2 15 -31
q25 -32 55 -37zM625 1225q-25 46 -111 182q-45 53 -55 57q-27 21 -45 21q-5 -3 -13.5 -9t-22 -24.5t-13.5 -36.5l4 -14q7 -21 55 -101q9 -13 86 -81q78 -50 100 -50h4q23 13 23 29q0 18 -12 27z" />
    <glyph glyph-name="Uacute" unicode="&#xda;" horiz-adv-x="1083" 
d="M78 901q2 -2 26 -14v-324q1 -14 3.5 -33t4 -31t1.5 -22q0 -9 -2 -20.5t-2 -14.5q-13 -67 -13 -137q0 -177 78 -246q64 -58 203 -86l33 4l51 -4q41 -6 90 -6q104 0 161 24t107 81q57 64 72 110q6 18 8.5 47.5t3.5 73t2 62.5q0 13 7.5 68.5t7.5 72.5l-15 72q0 10 2.5 21.5
t7 24.5t5.5 17q4 10 4 33q0 31 -4 45q-2 21 -4 40.5t-3.5 30t-1.5 15.5q0 25 9 47q6 35 53 59l78 39q-6 22 -27 56q-126 8 -160 8q-122 0 -157 -27q-1 -2 -3 -4t-5.5 -6t-6.5 -8q0 -18 13 -31q3 -23 28 -23q34 -3 47 -8t33 -22l6 -6q19 -93 19 -215q0 -138 -19 -250v-164
q-56 -156 -164 -191q-38 0 -123 -10h-14q-41 0 -82 10q-103 33 -141 101q-35 56 -35 172v-2q1 0 3 19.5t3.5 64.5t1.5 100v324q0 36 11 45.5t49 9.5q31 0 55 16l31 37q0 18 -37 60q-31 0 -113 -6.5t-100 -6.5l-92 -10q-28 14 -45 14q-19 0 -19 -22v-6q0 -2 15 -31
q25 -32 55 -37zM555 1225q44 78 100 168l9 14q1 0 13.5 13t26.5 28t15 16q27 21 45 21q3 0 14 -8.5t22 -27t11 -38.5v-10q-2 -13 -55 -101q-12 -17 -90 -81q-20 -16 -52 -33t-45 -17h-4q-22 13 -22 29q0 18 12 27z" />
    <glyph glyph-name="Ucircumflex" unicode="&#xdb;" horiz-adv-x="1083" 
d="M78 901q2 -2 26 -14v-324q1 -14 3.5 -33t4 -31t1.5 -22q0 -9 -2 -20.5t-2 -14.5q-13 -67 -13 -137q0 -177 78 -246q64 -58 203 -86l33 4l51 -4q41 -6 90 -6q104 0 161 24t107 81q57 64 72 110q6 18 8.5 47.5t3.5 73t2 62.5q0 13 7.5 68.5t7.5 72.5l-15 72q0 10 2.5 21.5
t7 24.5t5.5 17q4 10 4 33q0 31 -4 45q-2 21 -4 40.5t-3.5 30t-1.5 15.5q0 25 9 47q6 35 53 59l78 39q-6 22 -27 56q-126 8 -160 8q-122 0 -157 -27q-1 -2 -3 -4t-5.5 -6t-6.5 -8q0 -18 13 -31q3 -23 28 -23q34 -3 47 -8t33 -22l6 -6q19 -93 19 -215q0 -138 -19 -250v-164
q-56 -156 -164 -191q-38 0 -123 -10h-14q-41 0 -82 10q-103 33 -141 101q-35 56 -35 172v-2q1 0 3 19.5t3.5 64.5t1.5 100v324q0 36 11 45.5t49 9.5q31 0 55 16l31 37q0 18 -37 60q-31 0 -113 -6.5t-100 -6.5l-92 -10q-28 14 -45 14q-19 0 -19 -22v-6q0 -2 15 -31
q25 -32 55 -37zM469 1438q14 48 44 92.5t50 44.5q24 0 46.5 -33t49.5 -104q6 -18 14.5 -37.5t20 -43.5t17.5 -38q14 -46 49 -105l4 -2q18 -10 55 -34q8 -24 8 -31q0 -27 -22 -27q-35 -4 -86 -4q-50 0 -64 8q-12 0 -39 17l-2 2q5 31 27 45l10 8q8 20 15 41q-3 56 -52 137
q0 5 -19.5 25t-31.5 20q-16 0 -35 -22l-18 -23q-48 -92 -51 -155q0 -3 24 -26.5t31 -49.5l-12 -15l-19 -4q-10 -8 -84 -8q-44 0 -75 4q-23 0 -23 27l-4 10q0 9 14 18t37 28t39 48q5 17 10.5 31.5t14 34t14 31t20 42t23.5 48.5z" />
    <glyph glyph-name="Udieresis" unicode="&#xdc;" horiz-adv-x="1083" 
d="M78 901q2 -2 26 -14v-324q1 -14 3.5 -33t4 -31t1.5 -22q0 -9 -2 -20.5t-2 -14.5q-13 -67 -13 -137q0 -177 78 -246q64 -58 203 -86l33 4l51 -4q41 -6 90 -6q104 0 161 24t107 81q57 64 72 110q6 18 8.5 47.5t3.5 73t2 62.5q0 13 7.5 68.5t7.5 72.5l-15 72q0 10 2.5 21.5
t7 24.5t5.5 17q4 10 4 33q0 31 -4 45q-2 21 -4 40.5t-3.5 30t-1.5 15.5q0 25 9 47q6 35 53 59l69 39q21 16 21 43q0 11 -10 11h-15q-10 0 -14 2q-126 8 -160 8q-122 0 -157 -27q-1 -2 -3 -4t-5.5 -6t-6.5 -8q0 -18 13 -31q3 -23 28 -23q34 -3 47 -8t33 -22l6 -6
q19 -93 19 -215q0 -138 -19 -250v-164q-56 -156 -164 -191q-38 0 -123 -10h-14q-41 0 -82 10q-103 33 -141 101q-35 56 -35 172v-2q1 0 3 19.5t3.5 64.5t1.5 100v324q0 36 11 45.5t49 9.5q31 0 55 16l31 37l4 12q2 4 2 9v8q0 12 -4 15t-19 3q-7 0 -20 13q-31 0 -113 -6.5
t-100 -6.5l-92 -10q-28 14 -45 14q-19 0 -19 -22v-6q0 -2 15 -31q25 -32 55 -37zM436 1284q-47 16 -76 16q-3 -2 -15.5 -11t-25.5 -21.5t-28 -30.5q0 -36 10 -56.5t31 -43.5l6 -9h49q12 0 21.5 2.5t17.5 9.5t12 11t11.5 14.5t9.5 12.5v18q0 47 -23 88zM770 1284
q-44 16 -74 16q-3 -3 -15.5 -11.5t-26 -21t-29.5 -30.5q0 -24 6.5 -43.5t12.5 -28.5t20 -26l10 -11h49q8 0 15.5 1.5t14 5t11 6.5t9.5 9t7 9t7 10t6 9v18q0 52 -23 88z" />
    <glyph glyph-name="Yacute" unicode="&#xdd;" horiz-adv-x="1191" 
d="M629 543q-47 14 -82 94l-123 164q-1 6 -5.5 14t-15 22.5t-16.5 22.5v10q0 18 15 28.5t33.5 14.5t36 13t20.5 24q-6 60 -68 60q-7 0 -56.5 -8.5t-66.5 -8.5q-23 0 -93 19t-81 20q-6 -2 -28.5 -11.5t-39.5 -14.5q-4 -9 -10 -19q0 -4 -4 -12q0 -1 3 -5t10.5 -14.5
t15.5 -21.5q9 -1 21.5 -5t30.5 -10l30 -10q30 -18 61 -75q49 -82 51 -82q12 -11 27.5 -29t39.5 -47.5t42 -50.5q2 -5 74 -133q28 -24 49 -50q6 -21 6 -155q0 -139 -10 -156l-33 -53q-49 -6 -117 -23q17 -41 19 -47q118 16 182 19q150 -27 186 -27q38 0 68 10q8 25 10 39
q-6 7 -20 29h-21q-12 0 -74 8q-10 0 -49 27l-2 2v35q-8 82 -8 106q0 82 10 150l-2 55q9 43 64 94q13 12 41.5 36t42.5 38q102 101 163 190q30 45 50 72q31 18 71 37q56 27 56 37q0 7 -20.5 22.5t-33.5 18.5q-50 8 -151 8q-118 0 -135 -17q-2 -4 -19 -10q0 -33 8 -41
q12 -18 23 -18h6q12 4 27 4q14 0 18 -4q5 -10 27 -25l4 -2q-1 -17 -11 -36t-20.5 -31.5t-28.5 -33t-26 -30.5q-12 -19 -41.5 -70.5t-48.5 -81.5q-31 -24 -82 -75zM614 1225q35 62 101 168l8 14q2 0 14.5 13t26 28t14.5 16q27 21 45 21q3 0 14.5 -8.5t23 -27t11.5 -38.5v-10
q-8 -24 -57 -101q-6 -12 -88 -81q-23 -17 -54 -33.5t-44 -16.5h-2q-23 11 -23 29q0 20 10 27z" />
    <glyph glyph-name="Thorn" unicode="&#xde;" horiz-adv-x="786" 
d="M53 178q0 -36 8 -82q9 -79 41 -86q33 6 43 49l35 113q4 2 6 2q9 0 21 -6h242q148 0 186 33q32 13 55 88.5t23 165.5q0 152 -49 190q-66 70 -273 84q-33 4 -237 4q0 22 4 49v56q0 20 -8 86q-14 32 -37 32q-21 0 -40.5 -28.5t-19.5 -53.5v-696zM135 600q0 23 96 23
q58 0 123 -9q2 0 9.5 1.5t24.5 4t34 5.5l133 -11q20 -20 35 -49q22 -28 22 -84q0 -60 -19 -113.5t-44 -62.5q-33 -26 -195 -26h-65q-98 0 -139 4z" />
    <glyph glyph-name="uni00DF" unicode="&#xdf;" horiz-adv-x="815" 
d="M119 961h18q91 45 258 45q224 0 252 -91q17 -20 17 -51q0 -14 -9 -45q-12 -38 -22 -59q-6 -18 -14 -27.5t-38.5 -37t-66.5 -66.5l45 -19q49 -19 75 -31t56.5 -35.5t42.5 -51.5q23 -54 23 -109q0 -128 -131 -250q-105 -91 -238 -133q-36 -8 -145 -8q-33 11 -33 82
q5 25 41 30q2 0 10 -3.5t28 -11.5t40 -15q46 -15 67 -15h11q54 19 116 72q107 96 107 215q0 43 -19 86q-6 13 -28 30.5t-45 32.5t-27 19l-127 8q-33 -21 -119 -57q-10 19 -14 49q12 20 37 45l37 4l30 37l123 78q58 46 64 141q-12 22 -45 60q-107 55 -179 55q-74 0 -135 -55
v-27q-11 -11 -18 -74l-4 -71q-2 -27 -9.5 -62.5t-13.5 -93.5q0 -1 -1 -11t-2 -26t-1 -31q0 -19 2 -45t2 -28q4 -23 4 -41q-14 -126 -14 -146v-14q0 -27 4 -72q-1 -8 -2.5 -15t-3 -9.5t-2 -5t-0.5 -3.5v-8q0 -4 8 -24q6 -4 6 -90q-36 -72 -69 -95q-38 -14 -58 -14l-47 8
q-14 0 -26 6h-9q-4 0 -10.5 1.5t-17 3.5t-19.5 4v41q8 4 31.5 14t32.5 16t23 17.5t19 28t5 38.5q10 14 16 80l-12 170q0 13 8 131q10 98 10 137q0 9 -6 90l2 33q0 30 -6 64q-14 36 -14 73q0 54 43 109q25 0 86 23z" />
    <glyph glyph-name="agrave" unicode="&#xe0;" horiz-adv-x="600" 
d="M113 477l43 105l75 6q9 0 33 -6q32 0 43.5 -25t11.5 -74q0 -53 -10 -65q-8 -19 -35.5 -36t-51 -25.5t-62.5 -20.5l-10 -4q-47 -24 -95 -94q-47 -73 -47 -146q0 -36 10 -59l64 -60q119 0 205 86q21 -8 73 -55q35 -41 68 -41l14 4q27 2 86 78l4 4q9 4 15 23q0 17 -10 37
q-11 0 -31 -13q-41 -41 -51 -41q-8 0 -15 15t-12 34t-8 23v242q0 168 -2 223q-9 55 -35.5 72.5t-95.5 17.5h-41l-109 -41q-45 -31 -137 -172q0 -12 31 -51q49 0 82 59zM313 236v-62q-1 0 -63 -96l-41 -4l-45 4q-11 13 -33 22q-15 69 -16 74q0 63 59 102q19 10 51 31.5
t47 30.5q22 -7 37 -14q4 -18 4 -88zM365 852q-12 20 -49 80t-62 102q-45 54 -57 58q-28 22 -43 22q-6 -3 -14 -9.5t-22 -25.5t-14 -37l5 -14q6 -19 55 -100q5 -8 86 -82q79 -49 100 -49h4q23 13 23 30q0 16 -12 25z" />
    <glyph glyph-name="aacute" unicode="&#xe1;" horiz-adv-x="575" 
d="M113 477l43 105l75 6q9 0 33 -6q32 0 43.5 -25t11.5 -74q0 -53 -10 -65q-8 -19 -35.5 -36t-51 -25.5t-62.5 -20.5l-10 -4q-47 -24 -95 -94q-47 -73 -47 -146q0 -36 10 -59l64 -60q119 0 205 86q21 -8 73 -55q35 -41 68 -41l14 4q27 2 86 78l4 4q9 4 15 23q0 17 -10 37
q-11 0 -31 -13q-41 -41 -51 -41q-8 0 -15 15t-12 34t-8 23v242q0 168 -2 223q-9 55 -35.5 72.5t-95.5 17.5h-41l-109 -41q-45 -31 -137 -172q0 -12 31 -51q49 0 82 59zM313 236v-62q-1 0 -63 -96l-41 -4l-45 4q-11 13 -33 22q-15 69 -16 74q0 63 59 102q19 10 51 31.5
t47 30.5q22 -7 37 -14q4 -18 4 -88zM182 852q48 85 101 168l8 14q2 0 14.5 13.5t26 28.5t14.5 16q28 22 45 22q3 0 14.5 -9t23 -28t11.5 -39v-10q-7 -22 -57 -100q-4 -8 -88 -82q-74 -49 -98 -49h-2q-23 11 -23 30q0 17 10 25z" />
    <glyph glyph-name="acircumflex" unicode="&#xe2;" horiz-adv-x="606" 
d="M113 477l43 105l75 6q9 0 33 -6q32 0 43.5 -25t11.5 -74q0 -53 -10 -65q-8 -19 -35.5 -36t-51 -25.5t-62.5 -20.5l-10 -4q-47 -24 -95 -94q-47 -73 -47 -146q0 -36 10 -59l64 -60q119 0 205 86q21 -8 73 -55q35 -41 68 -41l14 4q27 2 86 78l4 4q9 4 15 23q0 17 -10 37
q-11 0 -31 -13q-41 -41 -51 -41q-8 0 -15 15t-12 34t-8 23v242q0 168 -2 223q-9 55 -35.5 72.5t-95.5 17.5h-41l-109 -41q-45 -31 -137 -172q0 -12 31 -51q49 0 82 59zM313 236v-62q-1 0 -63 -96l-41 -4l-45 4q-11 13 -33 22q-15 69 -16 74q0 63 59 102q19 10 51 31.5
t47 30.5q22 -7 37 -14q4 -18 4 -88zM209 1139q14 48 43.5 93.5t48.5 45.5q26 0 48.5 -33t49.5 -106q6 -18 14.5 -37.5t20 -43.5t17.5 -38q14 -46 49 -105q14 -6 59 -36q6 -15 6 -29q0 -27 -22 -27q-33 -4 -84 -4q-50 0 -64 8q-13 0 -41 19q5 29 25 45l12 6l15 41
q-7 62 -52 137q0 5 -20.5 25t-32.5 20q-19 0 -33 -22l-18 -23q-47 -84 -53 -155q1 -3 13 -12.5t25.5 -25.5t18.5 -36l-12 -23l-29 -4h-76q-45 0 -74 4q-22 0 -22 27l-4 10q0 9 14 18t37 27.5t39 46.5q14 49 82 187z" />
    <glyph glyph-name="atilde" unicode="&#xe3;" horiz-adv-x="614" 
d="M113 477l43 105l75 6q9 0 33 -6q32 0 43.5 -25t11.5 -74q0 -53 -10 -65q-8 -19 -35.5 -36t-51 -25.5t-62.5 -20.5l-10 -4q-47 -24 -95 -94q-47 -73 -47 -146q0 -36 10 -59l64 -60q119 0 205 86q21 -8 73 -55q35 -41 68 -41l14 4q27 2 86 78l4 4q9 4 15 23q0 17 -10 37
q-11 0 -31 -13q-41 -41 -51 -41q-8 0 -15 15t-12 34t-8 23v242q0 168 -2 223q-9 55 -35.5 72.5t-95.5 17.5h-41l-109 -41q-45 -31 -137 -172q0 -12 31 -51q49 0 82 59zM313 236v-62q-1 0 -63 -96l-41 -4l-45 4q-11 13 -33 22q-15 69 -16 74q0 63 59 102q19 10 51 31.5
t47 30.5q22 -7 37 -14q4 -18 4 -88zM37 1061q-2 -2 -5 -11l-10 -30t-14 -41q-18 -41 -39 -41t-26.5 17.5t-5.5 68.5q0 33 71 92l111 90q19 13 37 13q42 0 95 -42.5t68 -80.5q36 -99 105 -99q43 0 73.5 30t30.5 71q0 16 -11 63.5t-11 59.5q0 49 41 49q56 0 59 -41l4 -33
q0 -32 -10 -94q-19 -93 -45 -119q-44 -44 -127 -59q-14 -4 -45 -4q-52 0 -70 30q-8 4 -71 115q-41 63 -64 63q-101 0 -141 -67z" />
    <glyph glyph-name="adieresis" unicode="&#xe4;" horiz-adv-x="604" 
d="M113 477l43 105l75 6q9 0 33 -6q32 0 43.5 -25t11.5 -74q0 -53 -10 -65q-8 -19 -35.5 -36t-51 -25.5t-62.5 -20.5l-10 -4q-47 -24 -95 -94q-47 -73 -47 -146q0 -36 10 -59l64 -60q119 0 205 86q21 -8 73 -55q35 -41 68 -41l14 4q27 2 86 78l4 4q9 4 15 23q0 17 -10 37
q-11 0 -31 -13q-41 -41 -51 -41q-8 0 -15 15t-12 34t-8 23v242q0 168 -2 223q-9 55 -35.5 72.5t-95.5 17.5h-41l-109 -41q-45 -31 -137 -172q0 -12 31 -51q49 0 82 59zM313 236v-62q-1 0 -63 -96l-41 -4l-45 4q-11 13 -33 22q-15 69 -16 74q0 63 59 102q19 10 51 31.5
t47 30.5q22 -7 37 -14q4 -18 4 -88zM174 1024q-46 14 -74 14q-43 -31 -69 -63q0 -35 10 -55.5t31 -45.5l6 -6h49q10 0 18.5 2.5t14.5 5.5t12.5 9t9 9.5t8.5 11t7 9.5v19q0 51 -23 90zM510 1024q-46 14 -74 14q-37 -23 -71 -63q0 -35 10 -55.5t31 -45.5l8 -6h47q10 0 19 2.5
t14.5 5t12.5 9.5l9.5 9.5t8.5 11t7 9.5v19q0 48 -22 90z" />
    <glyph glyph-name="aring" unicode="&#xe5;" horiz-adv-x="587" 
d="M113 477l43 105l75 6q9 0 33 -6q32 0 43.5 -25t11.5 -74q0 -53 -10 -65q-8 -19 -35.5 -36t-51 -25.5t-62.5 -20.5l-10 -4q-47 -24 -95 -94q-47 -73 -47 -146q0 -36 10 -59l64 -60q119 0 205 86q21 -8 73 -55q35 -41 68 -41l14 4q27 2 86 78l4 4q9 4 15 23q0 17 -10 37
q-11 0 -31 -13q-41 -41 -51 -41q-8 0 -15 15t-12 34t-8 23v242q0 168 -2 223q-9 55 -35.5 72.5t-95.5 17.5h-41l-109 -41q-45 -31 -137 -172q0 -12 31 -51q49 0 82 59zM313 236v-62q-1 0 -63 -96l-41 -4l-45 4q-11 13 -33 22q-15 69 -16 74q0 63 59 102q19 10 51 31.5
t47 30.5q22 -7 37 -14q4 -18 4 -88zM459 1010l-23 -35q-75 -107 -176 -107q-37 0 -86 19q-67 30 -102 92l-4 4q-18 45 -19 49l-12 82q0 9 8 29q43 133 133 157q24 0 53 15q187 0 230 -168q12 -41 12 -72q0 -33 -14 -65zM137 1128q-4 -12 -4 -41q0 -12 4 -30l4 -23
q4 -2 4 -10q20 -59 91 -59q52 0 90.5 36t38.5 95v6q-6 112 -105 112q-8 5 -29 5h-18q-33 -9 -48.5 -27.5t-27.5 -63.5z" />
    <glyph glyph-name="ae" unicode="&#xe6;" horiz-adv-x="1097" 
d="M969 33q20 61 37 139q-5 3 -13 18q-39 -6 -65 -45q-39 -57 -49 -63q-34 -19 -97 -19h-30q-18 0 -82 11q-45 19 -45 121q0 88 22 159q64 11 90 11q54 0 74 -23q17 -6 35 -33q7 -18 11.5 -27.5t6 -12.5t7.5 -7t8 -6q11 28 14 98q8 114 8 115q0 2 -7.5 6.5t-15.5 8.5l-8 3
l-51 -67q-15 0 -33 -10q-108 0 -157 22v55q0 125 18 154q2 2 12.5 9t18.5 14q4 2 18 2q23 0 37 -2q25 0 76 -5l18 5q21 0 37.5 -12t25.5 -27t24 -30.5t32 -21.5q4 -4 10 -8q0 2 1 3t5 2.5t7 2.5q18 81 18 91q0 37 -14 58t-53 34q-12 -8 -42 -11.5t-60.5 -5t-35.5 -2.5
q-44 -10 -112 -10q-52 0 -146 6q-126 8 -137 8q-61 0 -108 -12l-3 -24q0 -5 1.5 -10t1.5 -7q8 -19 45 -33q14 -8 55 -26q0 -21 -4.5 -39.5t-15 -36.5t-18 -28.5t-23 -29.5t-21.5 -26l-143 -238q-85 -140 -191 -190v-31h4q11 -2 26 -6t24.5 -6t15.5 -2h8q55 12 86 12
q38 0 47 -12q11 0 49 14q4 5 8 13q-5 31 -67 69q7 59 45 117q31 45 70 96q53 8 120 8q43 0 47 -8q22 0 64 -22v-127q-5 -41 -37 -93h-18q-56 0 -56 -32q0 -10 7 -27q46 -8 71 -8q46 0 152 18l291 -18q7 7 25.5 20t23.5 17zM510 410q0 -1 -5 -16t-9 -21h-60q-68 0 -76 4
q-6 2 -14 10q-2 2 -4 6.5t-4 7.5v9q0 20 31 59q25 35 114 182q34 -8 39 -22v-23q0 -52 -12 -196z" />
    <glyph glyph-name="ccedilla" unicode="&#xe7;" horiz-adv-x="604" 
d="M524 72q-26 -82 -166 -82h-20v-41h35q14 0 14 -27q0 -13 -8 -49q-1 -26 -21.5 -44.5t-40.5 -18.5h-127q-41 0 -53 12q-4 4 -4 10q0 14 39 31h123q45 0 51 51l-110 4v-2q-3 0 -9 6q-4 4 -4 6l4 13q4 8 19 14q55 -10 59 -10t4 45q-140 15 -190 73q-88 104 -88 238
q0 211 166 328q20 15 92.5 31t83.5 22h10q27 0 135 -31l4 -6q21 -34 21 -72q-1 -2 -7.5 -10.5t-9 -11t-9.5 -8t-15.5 -8t-20.5 -3.5q-72 66 -145 72q-19 0 -35 -4q-86 -36 -133 -117q-37 -56 -37 -137q0 -85 38.5 -157t98.5 -107q51 -19 86 -19q24 0 92 16t78 17q0 -6 4 -14
q0 -4 -4 -10z" />
    <glyph glyph-name="egrave" unicode="&#xe8;" horiz-adv-x="628" 
d="M446 377q-18 6 -32 6l-54 -4q-5 0 -11.5 2t-10.5 2q-62 12 -123 12q-47 0 -70 -4q-18 -27 -18 -59v-15q0 -30 14 -79q69 -134 191 -134q50 0 123 37q55 25 69 27q5 -10 13 -14h4q10 -7 10 -23q0 -11 -10 -41l-4 -2q-83 -65 -113 -84q-62 -27 -119 -27q-34 0 -108 19
q-81 27 -139 124.5t-58 211.5v22q0 92 65.5 191.5t153.5 120.5q17 0 53 16h15q148 0 213 -62t65 -202q-17 -38 -47 -41h-72zM379 578q-15 6 -33 6l-59 -6q-114 -21 -127 -101q11 -22 41 -22h14q33 2 75 3.5t52 2.5q85 18 90 63q-6 42 -53 54zM365 852q-12 20 -49 80t-62 102
q-45 54 -57 58q-28 22 -43 22q-6 -3 -14 -9.5t-22 -25.5t-14 -37l5 -14q6 -19 55 -100q5 -8 86 -82q79 -49 100 -49h4q23 13 23 30q0 16 -12 25z" />
    <glyph glyph-name="eacute" unicode="&#xe9;" horiz-adv-x="624" 
d="M446 377q-18 6 -32 6l-54 -4q-5 0 -11.5 2t-10.5 2q-62 12 -123 12q-47 0 -70 -4q-18 -27 -18 -59v-15q0 -30 14 -79q69 -134 191 -134q50 0 123 37q55 25 69 27q5 -10 13 -14h4q10 -7 10 -23q0 -11 -10 -41l-4 -2q-83 -65 -113 -84q-62 -27 -119 -27q-34 0 -108 19
q-81 27 -139 124.5t-58 211.5v22q0 92 65.5 191.5t153.5 120.5q17 0 53 16h15q148 0 213 -62t65 -202q-17 -38 -47 -41h-72zM379 578q-15 6 -33 6l-59 -6q-114 -21 -127 -101q11 -22 41 -22h14q33 2 75 3.5t52 2.5q85 18 90 63q-6 42 -53 54zM256 852q41 73 102 168l7 14
q3 0 28 27t27 31q31 22 45 22q3 0 14.5 -9t23 -28t11.5 -39v-10q-6 -19 -55 -100q-4 -6 -90 -82q-73 -49 -97 -49h-4q-22 13 -22 30q0 15 10 25z" />
    <glyph glyph-name="ecircumflex" unicode="&#xea;" horiz-adv-x="624" 
d="M446 377q-18 6 -32 6l-54 -4q-5 0 -11.5 2t-10.5 2q-62 12 -123 12q-47 0 -70 -4q-18 -27 -18 -59v-15q0 -30 14 -79q69 -134 191 -134q50 0 123 37q55 25 69 27q5 -10 13 -14h4q10 -7 10 -23q0 -11 -10 -41l-4 -2q-83 -65 -113 -84q-62 -27 -119 -27q-34 0 -108 19
q-81 27 -139 124.5t-58 211.5v22q0 92 65.5 191.5t153.5 120.5q17 0 53 16h15q148 0 213 -62t65 -202q-17 -38 -47 -41h-72zM379 578q-15 6 -33 6l-59 -6q-114 -21 -127 -101q11 -22 41 -22h14q33 2 75 3.5t52 2.5q85 18 90 63q-6 42 -53 54zM209 1139q14 48 43.5 93.5
t48.5 45.5q26 0 48.5 -33t49.5 -106q6 -18 14.5 -37.5t20 -43.5t17.5 -38q14 -46 49 -105q14 -6 59 -36q6 -15 6 -29q0 -27 -22 -27q-33 -4 -84 -4q-50 0 -64 8q-13 0 -41 19q5 29 25 45l12 6l15 41q-7 62 -52 137q0 5 -20.5 25t-32.5 20q-19 0 -33 -22l-18 -23
q-47 -84 -53 -155q41 -41 41 -64q0 -37 -101 -37q-45 0 -74 4q-22 0 -22 27l-4 10q0 9 14 18t37 27.5t39 46.5q14 49 82 187z" />
    <glyph glyph-name="edieresis" unicode="&#xeb;" horiz-adv-x="632" 
d="M446 377q-18 6 -32 6l-54 -4q-5 0 -11.5 2t-10.5 2q-62 12 -123 12q-47 0 -70 -4q-18 -27 -18 -59v-15q0 -30 14 -79q69 -134 191 -134q50 0 123 37q55 25 69 27q5 -10 13 -14h4q10 -7 10 -23q0 -11 -10 -41l-4 -2q-83 -65 -113 -84q-62 -27 -119 -27q-34 0 -108 19
q-81 27 -139 124.5t-58 211.5v22q0 92 65.5 191.5t153.5 120.5q17 0 53 16h15q148 0 213 -62t65 -202q-17 -38 -47 -41h-72zM379 578q-15 6 -33 6l-59 -6q-114 -21 -127 -101q11 -22 41 -22h14q33 2 75 3.5t52 2.5q85 18 90 63q-6 42 -53 54zM174 1024q-46 14 -74 14
q-43 -31 -69 -63q0 -35 10 -55.5t31 -45.5l6 -6h49q10 0 18.5 2.5t14.5 5.5t12.5 9t9 9.5t8.5 11t7 9.5v19q0 51 -23 90zM510 1024q-46 14 -74 14q-37 -23 -71 -63q0 -35 10 -55.5t31 -45.5l8 -6h47q10 0 19 2.5t14.5 5t12.5 9.5l9.5 9.5t8.5 11t7 9.5v19q0 48 -22 90z" />
    <glyph glyph-name="igrave" unicode="&#xec;" horiz-adv-x="391" 
d="M317 -4q3 7 19 12q-5 30 -31 37q-22 5 -33.5 10t-15.5 7t-12 12.5t-13 15.5v397q0 1 6.5 22t12.5 46t6 37q0 17 -2 26t-12 17t-29 10q-32 -28 -76 -41q-63 -24 -82 -39q-24 -14 -24 -24q0 -11 6 -17q18 -21 67 -55q19 -85 19 -178q0 -72 -8 -105v-22q0 -39 -11 -82
q-17 -23 -49 -39t-45 -29q7 -7 17 -22q99 -6 151 -6q119 0 139 10zM215 852q-25 46 -111 182q-45 54 -55 58q-28 22 -45 22q-5 -3 -13.5 -9.5t-22 -25.5t-13.5 -37l4 -14q6 -19 55 -100q5 -8 86 -82q84 -49 101 -49h4q22 13 22 30q0 16 -12 25z" />
    <glyph glyph-name="iacute" unicode="&#xed;" horiz-adv-x="399" 
d="M317 -4q3 7 19 12q-5 30 -31 37q-22 5 -33.5 10t-15.5 7t-12 12.5t-13 15.5v397q0 1 6.5 22t12.5 46t6 37q0 17 -2 26t-12 17t-29 10q-32 -28 -76 -41q-63 -24 -82 -39q-24 -14 -24 -24q0 -11 6 -17q18 -21 67 -55q19 -85 19 -178q0 -72 -8 -105v-22q0 -39 -11 -82
q-17 -23 -49 -39t-45 -29q7 -7 17 -22q99 -6 151 -6q119 0 139 10zM72 852q25 52 100 168l6 14q1 0 7 5.5t14 14t16 16.5t14 14.5t7 7.5q28 22 43 22q3 0 14.5 -9t23 -28t11.5 -39v-10q-5 -15 -56 -100q-9 -13 -90 -82q-73 -49 -96 -49h-4q-23 13 -23 30q0 15 13 25z" />
    <glyph glyph-name="icircumflex" unicode="&#xee;" horiz-adv-x="460" 
d="M317 -4q3 7 19 12q-5 30 -31 37q-22 5 -33.5 10t-15.5 7t-12 12.5t-13 15.5v397q0 1 6.5 22t12.5 46t6 37q0 17 -2 26t-12 17t-29 10q-32 -28 -76 -41q-63 -24 -82 -39q-24 -14 -24 -24q0 -11 6 -17q18 -21 67 -55q19 -85 19 -178q0 -72 -8 -105v-22q0 -39 -11 -82
q-17 -23 -49 -39t-45 -29q7 -7 17 -22q99 -6 151 -6q119 0 139 10zM-37 897q31 22 47 53t36.5 86t49.5 103q14 48 44 93.5t50 45.5q48 0 97 -139q4 -13 51 -119q14 -46 49 -105q14 -6 59 -36q9 -23 9 -29q0 -27 -23 -27q-33 -4 -86 -4q-49 0 -63 8q-13 0 -41 19q5 31 26 45
l11 6q7 20 16 41q-7 65 -53 137q0 5 -20 25t-32 20q-18 0 -34 -22l-19 -23q-45 -86 -51 -155q1 -3 13 -12.5t25 -25.5t17 -36q-1 0 -21 -9.5t-41 -13.5t-52 -4q-45 0 -76 4q-23 0 -23 27q0 34 35 47z" />
    <glyph glyph-name="idieresis" unicode="&#xef;" horiz-adv-x="450" 
d="M317 -4q3 7 19 12q-5 30 -31 37q-22 5 -33.5 10t-15.5 7t-12 12.5t-13 15.5v397q0 1 6.5 22t12.5 46t6 37q0 17 -2 26t-12 17t-29 10q-32 -28 -76 -41q-63 -24 -82 -39q-24 -14 -24 -24q0 -11 6 -17q18 -21 67 -55q19 -85 19 -178q0 -72 -8 -105v-22q0 -39 -11 -82
q-17 -23 -49 -39t-45 -29q7 -7 17 -22q99 -6 151 -6q119 0 139 10zM63 987q-46 14 -73 14l-4 -2q-39 -24 -68 -61q0 -24 6 -43t13.5 -29.5t21.5 -27.5l8 -9h47q10 0 19 2.5t15 6t12.5 10t9.5 10.5t8.5 11.5t7.5 9.5v18q0 46 -23 90zM399 987q-49 14 -75 14q-45 -32 -70 -63
q0 -24 6 -43t13.5 -29.5t21.5 -27.5l6 -9h49q12 0 21.5 3t17 10t12 11.5t11 14t8.5 11.5v18q0 49 -21 90z" />
    <glyph glyph-name="eth" unicode="&#xf0;" horiz-adv-x="792" 
d="M311 104q21 -5 68 -22q35 0 79.5 21.5t57.5 46.5q55 70 55 223q0 51 -14.5 92t-29 60t-48.5 57l-12 14q-18 4 -55 4q-87 0 -133 -43t-72 -137q-10 -31 -10 -84q0 -82 33.5 -150.5t80.5 -81.5zM307 1092l-92 -50l-31 41q54 59 72 86l-63 97l67 94l78 -98q48 45 86 45h6
q49 -8 49 -64q0 -24 -35 -24l-55 -13l64 -86q45 -126 63 -155l131 -258l51 -166q11 -20 19 -60v-198q0 -134 -93.5 -222t-226.5 -88q-60 0 -104 23q-173 102 -213 258q-10 42 -10 106v39q0 47 10 70q56 131 201 205q50 20 71 26h8q115 0 197 -55q-15 50 -49 125
q-50 107 -101.5 190.5t-76.5 108.5z" />
    <glyph glyph-name="ntilde" unicode="&#xf1;" horiz-adv-x="786" 
d="M195 -8h114q11 12 29 22q-1 25 -25.5 49t-52.5 45t-33 33q0 4 -2 23.5t-2 36.5q0 13 2 55t2 68q0 137 15 172q3 3 8 9t12.5 15.5t13.5 16.5q16 4 74 26q111 0 150 -71q4 -7 11.5 -18.5t11.5 -19t7.5 -22.5t4.5 -35l-11 -278q-20 -20 -104 -68q0 -6 -2 -10q0 -8 22 -45
q66 8 125 8q67 -12 109 -12q27 0 33 4q2 0 5 2l10.5 7t14.5 9q0 32 -46.5 78t-49.5 58l-4 55v338q-19 57 -79.5 94t-137.5 37q-5 -5 -58 -19.5t-67 -29.5q-41 6 -80 39q-48 0 -102 -41q-23 -27 -72 -76q7 -27 25.5 -48t32.5 -36.5t14 -34.5v-10q0 -31 -4 -58v-165
q0 -65 -19 -103q-18 -2 -57 -33q0 -15 -10 -32q6 -24 36 -31q8 -4 136 -4zM150 1061q-1 -1 -31 -82q-15 -41 -37 -41t-27.5 17.5t-5.5 68.5q0 37 70 92l112 90q16 13 37 13q42 0 96 -42.5t68 -80.5q36 -99 105 -99q42 0 73 30t31 71q0 16 -11.5 63.5t-11.5 59.5q0 49 41 49
q54 0 60 -41l4 -33q0 -38 -12 -94q-16 -93 -45 -119q-40 -44 -125 -59q-16 -4 -45 -4q-51 0 -72 30q-6 3 -70 115q-41 63 -63 63q-104 0 -141 -67z" />
    <glyph glyph-name="ograve" unicode="&#xf2;" horiz-adv-x="706" 
d="M227 -4q44 -23 105 -23q84 0 156.5 56.5t112.5 143t40 177.5q0 155 -96 252.5t-250 97.5h-8q-25 -7 -72 -26q-145 -74 -201 -205q-10 -23 -10 -70v-39q0 -64 10 -106q40 -156 213 -258zM246 573q31 7 67 23q35 0 80 -21.5t58 -46.5q55 -70 55 -223q0 -51 -14.5 -92
t-29 -60t-48.5 -57l-13 -14q-18 -4 -55 -4q-86 0 -132.5 42.5t-72.5 135.5q-10 34 -10 86q0 82 34 149.5t81 81.5zM365 852q-12 20 -49 80t-62 102q-45 54 -57 58q-28 22 -43 22q-6 -3 -14 -9.5t-22 -25.5t-14 -37l5 -14q6 -19 55 -100q5 -8 86 -82q79 -49 100 -49h4
q23 13 23 30q0 16 -12 25z" />
    <glyph glyph-name="oacute" unicode="&#xf3;" horiz-adv-x="677" 
d="M227 -4q44 -23 105 -23q84 0 156.5 56.5t112.5 143t40 177.5q0 155 -96 252.5t-250 97.5h-8q-25 -7 -72 -26q-145 -74 -201 -205q-10 -23 -10 -70v-39q0 -64 10 -106q40 -156 213 -258zM246 573q31 7 67 23q35 0 80 -21.5t58 -46.5q55 -70 55 -223q0 -51 -14.5 -92
t-29 -60t-48.5 -57l-13 -14q-18 -4 -55 -4q-86 0 -132.5 42.5t-72.5 135.5q-10 34 -10 86q0 82 34 149.5t81 81.5zM295 852q55 98 100 168l6 14q1 0 7 5.5t14 14t16 16.5t14 14.5t7 7.5q28 22 43 22q3 0 14.5 -9t23 -28t11.5 -39v-10q-6 -19 -55 -100q-9 -13 -90 -82
q-74 -49 -97 -49h-4q-22 13 -22 30q0 16 12 25z" />
    <glyph glyph-name="ocircumflex" unicode="&#xf4;" horiz-adv-x="718" 
d="M227 -4q44 -23 105 -23q84 0 156.5 56.5t112.5 143t40 177.5q0 155 -96 252.5t-250 97.5h-8q-25 -7 -72 -26q-145 -74 -201 -205q-10 -23 -10 -70v-39q0 -64 10 -106q40 -156 213 -258zM246 573q31 7 67 23q35 0 80 -21.5t58 -46.5q55 -70 55 -223q0 -51 -14.5 -92
t-29 -60t-48.5 -57l-13 -14q-18 -4 -55 -4q-86 0 -132.5 42.5t-72.5 135.5q-10 34 -10 86q0 82 34 149.5t81 81.5zM246 1139q14 48 43.5 93.5t48.5 45.5q26 0 48.5 -33t49.5 -106q4 -13 51 -119q13 -43 50 -105q14 -6 59 -36q8 -20 8 -29q0 -27 -22 -27q-35 -4 -86 -4
q-50 0 -64 8q-13 0 -41 19q5 31 27 45l10 6l14 41q-3 57 -51 137q0 5 -20 25t-33 20q-16 0 -33 -22l-18 -23q-48 -85 -51 -155q40 -46 40 -64q0 -37 -102 -37q-43 0 -74 4q-22 0 -22 27l-4 10q0 9 14 18t37 27.5t39 46.5q14 49 82 187z" />
    <glyph glyph-name="otilde" unicode="&#xf5;" horiz-adv-x="729" 
d="M227 -4q44 -23 105 -23q84 0 156.5 56.5t112.5 143t40 177.5q0 155 -96 252.5t-250 97.5h-8q-25 -7 -72 -26q-145 -74 -201 -205q-10 -23 -10 -70v-39q0 -64 10 -106q40 -156 213 -258zM246 573q31 7 67 23q35 0 80 -21.5t58 -46.5q55 -70 55 -223q0 -51 -14.5 -92
t-29 -60t-48.5 -57l-13 -14q-18 -4 -55 -4q-86 0 -132.5 42.5t-72.5 135.5q-10 34 -10 86q0 82 34 149.5t81 81.5zM113 1061q-1 -1 -31 -82q-15 -41 -37 -41t-28.5 18t-6.5 68q0 38 72 92l113 90q16 13 36 13q42 0 96 -42.5t68 -80.5q36 -99 105 -99q42 0 73 30t31 71
q0 16 -11 63.5t-11 59.5q0 49 41 49q53 0 59 -41l4 -33q0 -38 -12 -94q-15 -89 -45 -119q-41 -44 -127 -59q-14 -4 -43 -4q-54 0 -72 30q-6 3 -70 115q-41 63 -63 63q-104 0 -141 -67z" />
    <glyph glyph-name="odieresis" unicode="&#xf6;" horiz-adv-x="706" 
d="M227 -4q44 -23 105 -23q84 0 156.5 56.5t112.5 143t40 177.5q0 155 -96 252.5t-250 97.5h-8q-25 -7 -72 -26q-145 -74 -201 -205q-10 -23 -10 -70v-39q0 -64 10 -106q40 -156 213 -258zM246 573q31 7 67 23q35 0 80 -21.5t58 -46.5q55 -70 55 -223q0 -51 -14.5 -92
t-29 -60t-48.5 -57l-13 -14q-18 -4 -55 -4q-86 0 -132.5 42.5t-72.5 135.5q-10 34 -10 86q0 82 34 149.5t81 81.5zM213 987q-49 14 -76 14q-43 -31 -69 -63q0 -24 6 -43t13.5 -29.5t21.5 -27.5l6 -9h49q14 0 26.5 6t18.5 11.5t15.5 18t11.5 14.5v18q0 46 -23 90zM547 987
q-46 14 -74 14q-47 -33 -72 -63q0 -24 6 -43t13.5 -29.5t21.5 -27.5l9 -9h49q12 0 21.5 3t17 9.5t11.5 11.5t10.5 14t8.5 12v18q0 53 -22 90z" />
    <glyph glyph-name="divide" unicode="&#xf7;" horiz-adv-x="387" 
d="M59 424q-20 -27 -55 -51q0 -28 33 -54h272l49 50q0 12 -4 21t-7.5 13.5t-11.5 11t-11 9.5h-265zM215 641q-42 10 -59 10q-37 -26 -60 -51q0 -21 6.5 -38t12.5 -24.5t18 -19.5l4 -4q9 0 18.5 -2t12.5 -2l6 4q12 0 22.5 4t15.5 8.5t12.5 13t11.5 11.5v14q0 29 -21 76z
M215 231q-46 11 -59 11q-34 -24 -60 -52q0 -21 6.5 -37.5t12 -23.5t18.5 -20l4 -5q9 0 18.5 -2t12.5 -2l6 4q12 0 22.5 4t15.5 8.5t12.5 13t11.5 11.5v15q0 28 -21 75z" />
    <glyph glyph-name="oslash" unicode="&#xf8;" horiz-adv-x="722" 
d="M23 174q0 9 -9.5 63.5t-9.5 90.5q0 5 6 59q67 178 180 236q9 4 61.5 16t65.5 20q96 0 160 -30l10 12q7 2 23 24t18 23q4 0 18 11.5t32 11.5l18 -4l8 -74l-20 -23q0 -20 -15 -37q119 -113 119 -286q0 -73 -14 -109l-41 -51q-45 -73 -96 -113q-59 -36 -154 -63
q-6 -2 -29 -2q-28 0 -63 6q0 -2 -2.5 -3.5t-6.5 -4.5t-6 -6l-49 -9l4 13q-16 8 -16 24q0 4 4 8q-101 47 -164 154q-6 6 -32 43zM524 496q-10 -39 -51 -101q-12 -74 -49 -116q-22 -22 -41 -93q-15 -60 -33 -86q-10 -12 -16.5 -27.5t-12.5 -41t-8 -31.5q17 -10 33 -10
q10 0 37 6l12 4q82 15 135 104q48 80 48 193q0 117 -54 199zM256 68l27 65l22 76q0 14 23.5 76t40.5 92q10 17 20.5 59t15.5 74t5 37q0 2 -10.5 5t-28 5t-33.5 2l-33 6q-13 -1 -30.5 -22t-43 -58.5t-41.5 -56.5q-35 -39 -59 -85.5t-27 -82.5l-4 -37q0 -35 18.5 -74.5
t41.5 -62.5q23 -18 94 -18h2z" />
    <glyph glyph-name="ugrave" unicode="&#xf9;" horiz-adv-x="763" 
d="M365 852q-12 20 -49 80t-62 102q-45 54 -57 58q-28 22 -43 22q-6 -3 -14 -9.5t-22 -25.5t-14 -37l5 -14q6 -19 55 -100q5 -8 86 -82q79 -49 100 -49h4q23 13 23 30q0 16 -12 25zM92 461v-80l-18 -154q0 -116 41 -164q26 -71 161 -71q110 0 148 53q46 -7 76 -53
q148 0 215 49q0 18 -10 41q-57 8 -109 27q-12 56 -12 110q0 81 22 180v70q12 67 12 94v15q0 13 -7 31t-23 24q-37 4 -111 4h-22q-27 0 -45.5 -3.5t-24.5 -7t-14.5 -11.5t-12.5 -11v-12q6 -11 27 -17t42.5 -9.5t40.5 -15t24 -32.5q8 -152 8 -186q0 -148 -27 -182
q-9 -26 -53 -45t-92 -19q-52 0 -78 23l-49 32l-19 74v68l8 36q0 6 1 11.5t1.5 8t0.5 3.5q-5 30 -5 37l2 41q0 6 2.5 17t2.5 14l2 12q16 106 16 121v20q-29 29 -141 29h-45q-1 -1 -8.5 -4.5t-13 -8.5t-5.5 -10q0 -22 15 -39t33 -26.5t33 -24.5t15 -33q0 -14 -4 -26z" />
    <glyph glyph-name="uacute" unicode="&#xfa;" horiz-adv-x="763" 
d="M92 461v-80l-18 -154q0 -116 41 -164q26 -71 161 -71q110 0 148 53q46 -7 76 -53q148 0 215 49q0 18 -10 41q-57 8 -109 27q-12 56 -12 110q0 81 22 180v70q12 67 12 94v15q0 13 -7 31t-23 24q-37 4 -111 4h-22q-27 0 -45.5 -3.5t-24.5 -7t-14.5 -11.5t-12.5 -11v-12
q6 -11 27 -17t42.5 -9.5t40.5 -15t24 -32.5q8 -152 8 -186q0 -148 -27 -182q-9 -26 -53 -45t-92 -19q-52 0 -78 23l-49 32l-19 74v68l8 36q0 6 1 11.5t1.5 8t0.5 3.5q-5 30 -5 37l2 41q0 6 2.5 17t2.5 14l2 12q16 106 16 121v20q-29 29 -141 29h-45q-1 -1 -8.5 -4.5
t-13 -8.5t-5.5 -10q0 -22 15 -39t33 -26.5t33 -24.5t15 -33q0 -14 -4 -26zM295 852q55 98 100 168l6 14q1 0 7 5.5t14 14t16 16.5t14 14.5t7 7.5q28 22 43 22q3 0 14.5 -9t23 -28t11.5 -39v-10q-6 -19 -55 -100q-9 -13 -90 -82q-74 -49 -97 -49h-4q-22 13 -22 30q0 16 12 25
z" />
    <glyph glyph-name="ucircumflex" unicode="&#xfb;" horiz-adv-x="751" 
d="M246 1139q14 48 43.5 93.5t48.5 45.5q26 0 48.5 -33t49.5 -106q4 -13 51 -119q13 -43 50 -105q14 -6 59 -36q8 -20 8 -29q0 -27 -22 -27q-35 -4 -86 -4q-50 0 -64 8q-13 0 -41 19q5 31 27 45l10 6l14 41q-3 57 -51 137q0 5 -20 25t-33 20q-16 0 -33 -22l-18 -23
q-48 -85 -51 -155q40 -46 40 -64q0 -37 -102 -37q-43 0 -74 4q-22 0 -22 27l-4 10q0 9 14 18t37 27.5t39 46.5q14 49 82 187zM92 461v-80l-18 -154q0 -116 41 -164q26 -71 161 -71q110 0 148 53q46 -7 76 -53q148 0 215 49q0 18 -10 41q-57 8 -109 27q-12 56 -12 110
q0 81 22 180v70q12 67 12 94v15q0 13 -7 31t-23 24q-37 4 -111 4h-22q-27 0 -45.5 -3.5t-24.5 -7t-14.5 -11.5t-12.5 -11v-12q6 -11 27 -17t42.5 -9.5t40.5 -15t24 -32.5q8 -152 8 -186q0 -148 -27 -182q-9 -26 -53 -45t-92 -19q-52 0 -78 23l-49 32l-19 74v68l8 36
q0 6 1 11.5t1.5 8t0.5 3.5q-5 30 -5 37l2 41q0 6 2.5 17t2.5 14l2 12q16 106 16 121v20q-29 29 -141 29h-45q-1 -1 -8.5 -4.5t-13 -8.5t-5.5 -10q0 -22 15 -39t33 -26.5t33 -24.5t15 -33q0 -14 -4 -26z" />
    <glyph glyph-name="udieresis" unicode="&#xfc;" horiz-adv-x="763" 
d="M213 1024q-49 14 -76 14q-43 -31 -69 -63q0 -35 10 -55.5t31 -45.5l6 -6h49q12 0 21.5 3t17.5 9t12.5 10.5t11.5 13t9 11.5v19q0 46 -23 90zM547 1024q-46 14 -74 14q-47 -33 -72 -63q0 -35 10 -55.5t31 -45.5l9 -6h49q12 0 21.5 2.5t17 9.5t11.5 10.5t11 13.5t8 11v19
q0 53 -22 90zM92 461v-80l-18 -154q0 -116 41 -164q26 -71 161 -71q110 0 148 53q46 -7 76 -53q148 0 215 49q0 18 -10 41q-57 8 -109 27q-12 56 -12 110q0 81 22 180v70q12 67 12 94v15q0 13 -7 31t-23 24q-37 4 -111 4h-22q-27 0 -45.5 -3.5t-24.5 -7t-14.5 -11.5
t-12.5 -11v-12q6 -11 27 -17t42.5 -9.5t40.5 -15t24 -32.5q8 -152 8 -186q0 -148 -27 -182q-9 -26 -53 -45t-92 -19q-52 0 -78 23l-49 32l-19 74v68l8 36q0 6 1 11.5t1.5 8t0.5 3.5q-5 30 -5 37l2 41q0 6 2.5 17t2.5 14l2 12q16 106 16 121v20q-29 29 -141 29h-45
q-1 -1 -8.5 -4.5t-13 -8.5t-5.5 -10q0 -22 15 -39t33 -26.5t33 -24.5t15 -33q0 -14 -4 -26z" />
    <glyph glyph-name="yacute" unicode="&#xfd;" horiz-adv-x="694" 
d="M98 528q34 -42 52 -104v-41q32 -112 75 -238l33 -67q27 -49 27 -86q0 -45 -86 -228q-52 -11 -101 -24q-40 -32 -45 -37q0 -34 4.5 -53.5t9 -24.5t13.5 -12l4 -4q22 -13 33 -23q100 0 135 95q37 101 59 174l29 41l22 112q51 103 130 289q6 15 29.5 73.5t34.5 82t34.5 59.5
t48.5 57q0 27 -27 68h-182l-37 -31l6 -28q34 -23 78 -56q0 -122 -100 -303q-25 0 -47 27t-35 78q-36 134 -47 149q0 14 4.5 27t9.5 21t17 18.5t18 15t22.5 14.5t20.5 13q-7 16 -18 55h-254l-2 -4q-27 -23 -27 -41q0 -10 4 -14q25 -30 55 -50zM311 852q48 85 101 168l6 14
q2 0 15 13t27 29l15 16q28 22 43 22q3 0 14.5 -9t23 -28t11.5 -39v-10q-6 -19 -55 -100q-9 -13 -90 -82q-74 -49 -96 -49h-4q-23 13 -23 30q0 16 12 25z" />
    <glyph glyph-name="thorn" unicode="&#xfe;" horiz-adv-x="796" 
d="M59 68q0 -23 9 -64q9 -60 41 -67q16 2 35 21.5t42 27.5l11 4l16 -4h252q74 0 114.5 5.5t61.5 22.5q78 28 78 232q0 139 -49 174q-61 67 -234 82q-18 4 -203 4q-34 7 -43 22q-22 24 -34 97q-15 34 -37 34q-21 0 -40.5 -29t-19.5 -52v-510zM141 377q0 22 97 22q64 0 122 -8
q2 0 9 1t25 4t34 5l133 -10q20 -20 35 -49q22 -28 22 -78q0 -47 -19 -91.5t-44 -53.5q-35 -27 -195 -27h-65q-98 0 -139 4z" />
    <glyph glyph-name="ydieresis" unicode="&#xff;" horiz-adv-x="673" 
d="M82 528q33 -40 51 -104v-41q26 -90 76 -238l33 -67q26 -48 26 -86q0 -45 -86 -228q-48 -10 -100 -24q-40 -32 -45 -37q0 -34 4 -53.5t8.5 -24.5t13.5 -12l5 -4q20 -11 32 -23q101 0 136 95q37 101 59 174l29 41l22 112q43 88 129 289q5 12 29.5 73t35 83t34.5 58.5
t49 57.5q0 27 -27 68h-182l-37 -31l6 -28q34 -23 78 -56q0 -120 -101 -303q-54 0 -81 105q-35 132 -48 149q0 17 4.5 30.5t18 26.5t18.5 18t28 19t24 15q-10 26 -19 55h-254l-2 -4q-26 -22 -26 -41q0 -10 4 -14q25 -30 55 -50zM250 987q-49 14 -76 14q-45 -32 -70 -63
q0 -24 6 -43t13.5 -29.5t21.5 -27.5l9 -9h47q14 0 26.5 6t18 11.5t14.5 17.5t12 15v18q0 48 -22 90zM584 987q-46 14 -74 14q-45 -32 -70 -63q0 -24 6 -43t13.5 -29.5t21.5 -27.5l6 -9h50q12 0 21.5 3t17 9.5t11.5 11.5t10.5 14t8.5 12v18q0 53 -22 90z" />
    <glyph glyph-name="dotlessi" unicode="&#x131;" horiz-adv-x="409" 
d="M317 -4q3 7 19 12q-5 30 -31 37q-22 5 -33.5 10t-15.5 7t-12 12.5t-13 15.5v397q0 1 6.5 22t12.5 46t6 37q0 17 -2 26t-12 17t-29 10q-32 -28 -76 -41q-63 -24 -82 -39q-24 -14 -24 -24q0 -11 6 -17q18 -21 67 -55q19 -85 19 -178q0 -72 -8 -105v-22q0 -39 -11 -82
q-17 -23 -49 -39t-45 -29q7 -7 17 -22q99 -6 151 -6q119 0 139 10z" />
    <glyph glyph-name="Lslash" unicode="&#x141;" 
d="M182 569q-7 -12 -55 -73q13 -31 59 -45l97 26q0 -26 3 -48.5t6 -35t3 -14.5q-8 -50 -8 -55v-15q8 -36 8 -63l-4 -49q-3 -66 -18.5 -86.5t-67.5 -20.5h-27q-29 0 -37 -4q-8 -8 -8 -27q0 -21 17 -49q55 -2 118 -2h19q82 10 127 10q40 0 86 -8q62 -10 104 -10q34 0 84 8h12
q21 0 66 -6t49 -6q34 0 59 14q1 5 31 117v23q0 49 -18 63l-13 6q-61 -70 -100 -96q-60 -45 -141 -45q-24 0 -60 8q-1 0 -15.5 -4t-20.5 -4q-46 0 -91 26q-14 46 -14 115q0 41 10 164q3 39 13 139l67 19l47 65q-2 10 -6 17.5t-7 11.5t-10.5 8t-10 5t-12.5 3.5t-13 3.5
l-64 -18q-4 27 -4 96v35q5 68 17 92q3 24 41 31q21 1 33 2t22.5 5t14 6.5t15 13t19.5 16.5q0 14 -6.5 32t-13.5 29l-6 11h-195q-1 0 -27.5 1t-83.5 3t-122 4q-13 -13 -19 -17q-10 -25 -12 -28q0 -14 4.5 -26t7.5 -16t14 -16l5 -2q57 0 69 -8q56 -6 64 -41q4 -8 4 -37l-4 -71
q0 -6 2 -14t2 -11v-12q0 -15 -4 -27l-4 -22l4 -19q4 -6 4 -41v-10z" />
    <glyph glyph-name="lslash" unicode="&#x142;" horiz-adv-x="587" 
d="M78 532q-7 -12 -55 -73q16 -32 59 -45l115 28v-14q0 -53 8 -111q8 -40 8 -86q0 -57 -12 -75q0 -27 -7.5 -46t-24 -31.5t-28.5 -18t-35 -13.5l-14 -6v-45q30 -6 41 -6l12 2q33 -2 105 -2q27 -4 63 -4q37 0 47 4q60 3 82 18q-1 32 -24.5 49.5t-63.5 30.5l-18 4q-8 54 -8 76
q0 25 8 65v5q-2 8 -3 18.5t-2 27t-3 29.5q0 13 10 156l-2 12l82 21l47 67q-2 10 -6 17.5t-7 11.5t-10.5 8t-10 5t-12.5 3.5t-13 3.5l-68 -18q4 23 4 88q8 119 8 121q4 0 4 74q0 54 15 69v21q0 43 -23 84q-3 2 -9.5 3t-15.5 2t-16 3q-9 -7 -43.5 -14t-42.5 -13
q-78 -43 -86 -47q-6 -12 -10 -22q4 -32 25 -57t39 -44t18 -39q0 -14 -4 -20l-4 -35q0 -3 2 -7.5t2 -6.5q8 -54 8 -96q0 -21 -8 -99z" />
    <glyph glyph-name="OE" unicode="&#x152;" horiz-adv-x="1515" 
d="M1411 201q-14 -5 -43.5 -58.5t-42.5 -60.5q-73 -59 -182 -59q-118 0 -197 59q-14 53 -14 131v33q0 19 2 33l-6 30q0 8 3 30t3 34q0 22 4 28q9 9 41 50q98 8 119 8q69 0 90 -17q10 0 18.5 -3.5t15.5 -10t13 -13t11.5 -18.5t9.5 -19.5t8.5 -23t6.5 -22.5t7 -23.5t6 -21.5
q14 7 31 10q4 12 4 27q0 18 -4 26l-8 51q12 84 14 127q4 19 8 54v24q0 23 -8 31l-6 8q-49 -4 -90 -108q-62 -27 -146 -27q-118 0 -133 55q-6 12 -12 117v55q0 64 4 78q12 12 37 53q49 11 108 11q154 0 201 -33q15 -9 40 -54t32 -51q6 0 14 -4q10 9 14 11q19 90 19 120
q0 50 -21 97q-54 8 -90 8q-46 0 -286 -21q-21 3 -39.5 6.5t-26 5t-8.5 1.5q-70 -9 -76 -9q-8 0 -19.5 2.5t-13.5 2.5q-99 22 -317 22h-92q-13 -7 -60 -18.5t-57 -18.5q-187 -96 -242 -235q-20 -49 -41 -133q-22 -99 -22 -132q0 -104 98 -260q151 -235 428 -235q77 0 170 22
q18 4 80 4q69 -7 74 -10h387q67 -12 96 -12q7 0 16.5 2t10.5 2q44 6 59 86q17 98 31 115q0 37 -31 41zM528 14q-92 0 -178 50.5t-119 113.5q-56 126 -59 305q0 119 23 172q62 152 133 191q11 6 76 21.5t79 25.5q238 -15 287 -84q27 -41 27 -135q0 -12 -2 -64t-2 -92
q-3 -41 -7 -223q11 -50 11 -68q0 -97 -80.5 -155t-188.5 -58z" />
    <glyph glyph-name="oe" unicode="&#x153;" horiz-adv-x="1239" 
d="M793 748l-7 2q-35 6 -59 6h-20q-51 -11 -93 -11q-26 0 -41 3q-61 12 -96 12h-45q-38 0 -100 -12q-202 -70 -281 -308q-10 -45 -10 -75q0 -74 43 -156q104 -201 334 -201q68 0 155 19q27 6 86 6h86q47 0 115 -8q111 -15 154 -15q40 0 59 13q33 11 47 69q20 69 31 80
q-11 38 -18 51q-7 -2 -14 -5t-12.5 -6t-11 -9t-9 -9t-8.5 -11t-7 -10.5t-7.5 -11.5t-6.5 -11q-51 -76 -164 -76q-62 0 -78 8q-57 6 -67 41q-11 18 -11 92q0 76 11 98q0 8 1.5 15.5t3 13t6.5 11.5t7 9t9 8.5t9 7t11 7t10 6.5q86 0 133 -31q8 -2 15.5 -8t12 -11.5t10 -17.5
t7.5 -17.5t7.5 -21.5t6.5 -20q2 -2 9 -4t10 -4q25 49 31 240q-16 16 -19 22q-23 -2 -65 -45t-54 -49q-27 -10 -45 -10q-56 0 -116 45q0 26 -3 47v16q0 19 3 25q0 76 30 131l56 4q191 0 239 -117q2 -2 14 -2q41 38 41 115q0 72 -53 90q-18 6 -51 6q-7 0 -30 -2.5t-38 -3.5
q-85 -23 -133 -23q-18 0 -30 3zM629 391q0 -128 -15 -190q-20 -91 -90 -119l-65 -8q-18 -2 -53 -2q-34 0 -48 2q-94 27 -133 92t-39 217v31q0 92 50 152t137 104q26 0 67 12q25 -6 97 -12q29 -16 73 -66q19 -36 19 -213z" />
    <glyph glyph-name="Scaron" unicode="&#x160;" horiz-adv-x="743" 
d="M186 10q79 -24 170 -24q196 0 291 151q9 12 17 53l2 7q0 43 6 81.5t6 49.5q0 125 -160 217q-130 76 -246 133q-16 11 -40.5 56.5t-26.5 47.5q0 69 37 101q27 21 104 37q28 8 33 8q14 0 18 -8q44 0 88 -23.5t58 -54.5q2 -2 13.5 -40t31.5 -46q4 0 12 -4q2 4 18 12
q15 70 15 115q0 47 -15 71q-26 74 -253 74h-33q-8 -8 -39 -14q-41 0 -43 -4q-40 -10 -84 -55t-66 -91q-14 -31 -14 -92q0 -67 28.5 -131.5t71.5 -95.5q14 -14 164 -95q4 -2 74 -51q135 -73 135 -182q0 -63 -53 -100q-18 -16 -33 -31q-4 -4 -86 -23q-14 -4 -45 -4
q-63 0 -116.5 35t-80.5 84l-26 117q0 6 -15 18l-16 8q-5 -10 -20 -20q-21 -96 -21 -123q0 -41 12 -59q0 -18 6 -32.5t13 -23t23.5 -17.5t25.5 -12t31 -10.5t28 -9.5zM573 1483q-8 -10 -25 -62t-20 -59q-17 -24 -55 -102q-14 -48 -44 -94t-50 -46q-50 0 -96 140
q-5 16 -52 122q-4 7 -21 41t-32 60q-35 21 -59 37q-4 10 -4 28q0 27 22 27q33 4 86 4q50 0 60 -8q9 0 45 -19q-5 -31 -27 -45l-14 -6q-12 -35 -13 -41q7 -60 50 -139q4 0 26 -25q9 -18 29 -18q15 0 31 22l18 21q48 95 51 158q0 9 -24 28q-22 14 -27 45q22 27 104 27
q51 0 86 -4q23 0 23 -27q0 -12 -5 -20t-11 -12t-22.5 -14t-29.5 -19z" />
    <glyph glyph-name="scaron" unicode="&#x161;" horiz-adv-x="608" 
d="M272 -8q161 0 222 98q24 33 24 88q0 28 -6 58q-10 38 -29 68t-49 53t-56.5 38t-66.5 33l-41 18l-61 68q0 16 6.5 30t12.5 21t18.5 17.5t15.5 13.5l86 8q13 -11 92 -98q22 7 41 18v54q0 49 -4.5 61.5t-17.5 19.5l-6 5q-13 7 -19 18h-172l-112 -68q-10 -8 -24 -49t-20 -47
q0 -105 62 -158q5 -4 20.5 -11.5t47.5 -22.5t59 -29q79 -30 98 -88q2 -4 2 -49v-41q-16 -15 -47 -56q-10 0 -27 -2t-22 -2q-6 0 -14 2t-9 2q-51 0 -88 46q-5 4 -12 14.5t-19 31t-22 35.5q-10 0 -22 -4q-5 -18 -25 -51q-2 -2 -2 -4v-80q14 -32 67.5 -45.5t118.5 -13.5z
M500 1184q-7 -10 -23 -60.5t-22 -58.5q-31 -52 -56 -104q-14 -48 -43.5 -93t-48.5 -45q-51 0 -98 138q-9 26 -51 122q-15 34 -52 101q-4 3 -25 15t-36 22q-2 12 -2 30q0 27 23 27q33 2 84 2q49 0 59 -6q1 0 45 -19q-5 -29 -25 -45l-16 -8q-2 -5 -10 -41q8 -62 47 -137
q5 0 26 -27q14 -18 31 -18q13 0 29 22l18 23q48 85 54 156q0 9 -27 30q-22 18 -27 45q30 25 105 25q53 0 86 -2q22 0 22 -27q0 -12 -4.5 -20t-10 -12t-22.5 -15t-30 -20z" />
    <glyph glyph-name="Ydieresis" unicode="&#x178;" horiz-adv-x="1124" 
d="M606 543q-47 14 -82 94l-123 164q-1 6 -5 13.5t-15 23t-16 22.5v10q0 18 15 28.5t33.5 14.5t35.5 13t20 24q-6 60 -68 60q-7 0 -56 -8.5t-66 -8.5q-23 0 -93.5 19t-81.5 20q-6 -2 -28 -11.5t-39 -14.5q-4 -9 -10 -19q0 -4 -4 -12q0 -1 3 -5t10.5 -14.5t14.5 -21.5
q9 -1 21.5 -5t30.5 -10l30 -10q32 -19 62 -75q49 -82 51 -82q12 -11 27.5 -29t39 -47t41.5 -51q2 -5 74 -133q28 -24 49 -50q6 -21 6 -155q0 -139 -10 -156l-33 -53q-47 -6 -116 -23q0 -1 6 -17t12 -30q118 16 182 19q150 -27 187 -27t67 10q8 25 10 39q-7 7 -20 29h-20
q-12 0 -74 8q-10 0 -49 27l-2 2v35q-9 92 -9 106q0 75 11 150l-2 55q10 44 63 94q13 12 41.5 36t42.5 38q105 105 164 190q39 59 49 72q27 16 72 37q55 27 55 37q0 7 -20.5 22.5t-32.5 18.5q-50 8 -152 8q-118 0 -135 -17q-2 -5 -18 -10q0 -33 8 -41q12 -18 22 -18h6
q12 4 27 4t19 -4q6 -12 26 -25l4 -2q-1 -17 -11 -36t-20.5 -31.5t-28.5 -33t-26 -30.5q-12 -19 -41.5 -70.5t-48.5 -81.5q-31 -24 -82 -75zM436 1284q-47 16 -76 16q-3 -2 -15.5 -11t-25.5 -21.5t-28 -30.5q0 -36 10 -56.5t31 -43.5l6 -9h49q12 0 21.5 2.5t17.5 9.5t12 11
t11.5 14.5t9.5 12.5v18q0 47 -23 88zM770 1284q-44 16 -74 16q-3 -3 -15.5 -11.5t-26 -21t-29.5 -30.5q0 -24 6.5 -43.5t12.5 -28.5t20 -26l10 -11h49q8 0 15.5 1.5t14 5t11 6.5t9.5 9t7 9t7 10t6 9v18q0 52 -23 88z" />
    <glyph glyph-name="Zcaron" unicode="&#x17d;" horiz-adv-x="1028" 
d="M57 797v-11q0 -34 23 -34q33 5 74 67q43 66 86 78h100q108 0 170 12l39 -4l51 4q48 0 86 -30q-14 -70 -80 -125q-81 -70 -110 -99q-183 -258 -211 -286q-128 -170 -228 -273v-14q0 -27 11 -64l8 -10h573l189 -12q66 0 108 22q17 32 23 91l-4 32l4 68q0 55 -19 82
q-48 -6 -71 -64q-27 -80 -41 -94q-68 -59 -246 -59q-62 0 -111 12q-4 4 -30 4q-33 0 -60 -4h-29q-33 0 -53 10q-11 11 -28 23q0 55 69 127l99 104q220 303 487 570q0 37 -18 73q-32 8 -46 8q-1 0 -67 -8l-37 -2q-6 0 -15 1t-12 1q-33 8 -96 8t-94 -8q-18 4 -84 4h-254
q-44 0 -59 27q-5 10 -13 10h-2q-17 -3 -22 -18l-19 -96q-4 -12 -16.5 -43.5t-18.5 -50.5t-6 -29zM735 1483q-9 -10 -25.5 -62.5t-19.5 -58.5q-18 -23 -57 -102q-14 -49 -43 -94.5t-49 -45.5q-54 0 -97 140q-4 11 -53 122q-2 5 -10.5 23t-18.5 38t-22 40q-25 12 -59 37
q-5 12 -5 28q0 27 23 27q33 4 86 4q47 0 59 -8q9 0 45 -19q-5 -28 -26 -45l-14 -6q-12 -35 -13 -41q7 -62 49 -139q6 0 25 -25q12 -18 31 -18q13 0 30 22l19 21q45 89 51 158q0 7 -27 28q-22 17 -24 45q22 27 104 27q51 0 84 -4q23 0 23 -27q0 -12 -4.5 -20t-10 -12t-22 -14
t-29.5 -19z" />
    <glyph glyph-name="zcaron" unicode="&#x17e;" horiz-adv-x="659" 
d="M432 8q20 0 45 -4h53q13 0 37 6q27 18 27 94q0 52 -16 68v10h-23l-18 -8v-29q-15 -2 -41 -29l-25 -26q-27 -12 -72 -12l-123 12q-14 21 -18 25q12 36 55 90q20 21 37 41l25.5 30t9.5 11q18 23 52.5 70t56.5 77t53 67t57 62q4 10 4 21q-5 6 -10 14.5t-5.5 10t-11 5.5
t-22 6.5t-41.5 8.5q-6 4 -24 4q-17 0 -27 -4q-31 -4 -53 -4q-23 0 -41 12h-19q-120 0 -182 68q-53 -13 -74 -80q-11 -48 -22 -115q5 -5 28 -18h5q12 0 49 26l14 14q61 46 104 46q10 0 48 -17l6 -2l37 -18q18 -14 18 -27v-4l-8 -33v4q-14 -28 -78 -112q-12 -16 -90 -101
q-8 -23 -37 -67q-2 -2 -18 -6q-1 -2 -41 -62q-19 -4 -45 -24q-5 -16 -23 -50q0 -10 23 -51q34 -12 94 -12l78 4zM590 1221q-8 -10 -24.5 -61t-20.5 -58q-29 -48 -56 -105q-14 -48 -44 -92.5t-50 -44.5q-50 0 -96 137q-11 31 -51 123q-3 6 -12 25t-19 38t-22 38
q-4 3 -24.5 15.5t-35.5 23.5q-4 10 -4 28q0 27 23 27q33 4 86 4q49 0 59 -8q1 0 45 -19q-5 -31 -27 -45l-14 -8q-8 -19 -12 -41q8 -64 49 -137q5 0 27 -27q11 -18 28 -18q9 0 27 18l22 27q49 94 52 158q0 9 -25 28q-22 14 -27 45q27 27 105 27q51 0 86 -4q22 0 22 -27
q0 -12 -4.5 -20t-10.5 -12.5t-22.5 -14.5t-29.5 -20z" />
    <glyph glyph-name="uni0192" unicode="&#x192;" horiz-adv-x="710" 
d="M360 651q6 94 76 213q70 115 146 129h10q21 0 52 -12t44 -20q12 -9 31 -9q17 0 29 9t12 26v6q0 49 -12 64q-16 49 -123 49l-25 -4q-79 -27 -149 -82q-94 -76 -168 -268q-3 -12 -3.5 -33t-7 -37t-26.5 -37q-48 -7 -115 -27q0 -2 -8 -14q19 -22 78 -22q30 0 30 -17l-4 -10
q-7 -36 -21 -132t-20 -136q-21 -147 -67 -310v-155q-1 -5 -29 -86l-16 -8h-15q-40 0 -73 -23v-14q0 -64 47 -78v-4q8 0 12 4q19 2 34.5 10t27.5 24.5t20.5 31t16.5 40.5t12.5 41.5t11.5 46t10 43.5q26 80 74 377q41 248 102 342q31 7 105 13h22q51 0 51 14q0 11 -32 24
t-64 13q-25 0 -45 -8q-18 18 -31 26z" />
    <glyph glyph-name="uni02C6" unicode="&#x2c6;" horiz-adv-x="808" 
d="M537 1174q-1 -3 -5 -17t-7.5 -17.5t-14 -11t-30.5 -10t-52 -2.5l-68 4q-22 0 -22 27q0 33 35 49q31 21 47 51.5t36.5 86t49.5 104.5q14 48 44 92.5t50 44.5q47 0 96 -137q6 -18 14.5 -37.5t20 -43.5t17.5 -38q14 -46 49 -105l4 -2q17 -10 55 -34q8 -24 8 -31
q0 -27 -22 -27q-33 -4 -86 -4q-50 0 -64 8q-7 0 -41 19q5 31 27 45l10 8q11 27 17 41q-8 64 -54 137q0 5 -19.5 25t-31.5 20q-16 0 -35 -22l-18 -23q-45 -86 -51 -155q1 -4 9 -6t17.5 -10.5t14.5 -28.5z" />
    <glyph glyph-name="uni02C7" unicode="&#x2c7;" 
d="M700 1538q12 33 82 33q40 0 97 -10h12q20 0 20 -27q0 -19 -2 -29q-7 -7 -26 -17t-31 -18q-15 -16 -32.5 -68t-18.5 -54q-29 -48 -56 -105q-14 -48 -44 -92.5t-50 -44.5q-47 0 -96 137q-12 34 -53 119q-10 45 -47 104q-39 22 -60 39q-8 20 -8 29q0 27 23 27q33 4 86 4
q45 0 63 -9q9 0 41 -18q-5 -27 -27 -45l-10 -8l-16 -41q8 -66 53 -137q0 -5 19.5 -25t31.5 -20q16 0 35 22l19 23q45 86 51 157q-1 3 -13.5 12.5t-25.5 25.5t-17 36z" />
    <glyph glyph-name="uni02D8" unicode="&#x2d8;" 
d="M483 1464q-17 -7 -24 -16h-4q-2 -2 -3.5 -13.5t-5.5 -19.5q15 -56 37 -115q108 -153 232 -153h14q65 7 126.5 56t158.5 163q16 36 55 90q0 17 -8 37q-23 -9 -64 -63q-21 -26 -73 -78q-71 -48 -176 -60q-18 -4 -48 -4q-81 0 -137 41q-25 22 -80 135z" />
    <glyph glyph-name="uni02D9" unicode="&#x2d9;" horiz-adv-x="901" 
d="M846 1284q-47 16 -76 16q-3 -2 -15.5 -11t-26 -21.5t-28.5 -30.5q0 -36 10 -56.5t31 -43.5l7 -9h49q12 0 21.5 3t17 9.5t12 11t11.5 14t9 12.5v18q0 49 -22 88z" />
    <glyph glyph-name="uni02DA" unicode="&#x2da;" 
d="M793 1307l-23 -33q-71 -109 -174 -109q-27 0 -86 19q-65 28 -104 94l-5 2q-1 5 -3.5 12t-7 17.5t-7.5 19.5l-10 82q0 7 2.5 17.5t3.5 13.5q47 134 135 155q16 0 51 15q189 0 232 -168q12 -38 12 -70q0 -36 -16 -67zM473 1425q-4 -10 -4 -41q0 -10 4 -28l4 -23q4 -4 4 -12
q20 -59 88 -59q54 0 92.5 36t38.5 95v8q-6 110 -104 110q-10 5 -31 5h-18q-33 -7 -48 -26.5t-26 -64.5z" />
    <glyph glyph-name="uni02DB" unicode="&#x2db;" 
d="M678 -31l41 -78q-1 9 -19 9q-21 0 -82 -19q-71 -23 -71 -137q0 -22 3 -45.5t6 -36.5l3 -12l156 26q48 -14 73 -45q5 -5 5 -10q0 -24 -74 -57l-4 -4l-4 -2h-4q-2 -3 -48.5 -6t-93.5 -3q-15 0 -59 -5t-55 -5h-11q-8 2 -8 21q0 9 2 20t4 18l2 7q-16 63 -16 71l16 56v73
l41 68l115 90z" />
    <glyph glyph-name="uni02DC" unicode="&#x2dc;" horiz-adv-x="960" 
d="M201 1292q-3 -6 -45 -104q-21 -49 -52 -49q-35 0 -44 20t-9 88q0 49 103 117l165 111q29 18 58 18q60 0 135.5 -55t97.5 -105q53 -119 154 -119q59 0 103 34t44 89q0 21 -14 83t-14 77q0 55 55 55q31 0 59 -14.5t31 -32.5q4 -12 4 -39q0 -49 -16 -114q-11 -59 -25 -96
t-38.5 -60t-47.5 -33.5t-67 -25.5q-70 -23 -131 -23q-77 0 -134 66q-3 3 -81 127q-45 71 -86 71q-150 0 -205 -86z" />
    <glyph glyph-name="uni02DD" unicode="&#x2dd;" 
d="M815 1225q44 78 100 168l9 14q2 0 14.5 13t26 28t14.5 16q27 21 45 21q3 0 14.5 -8.5t23 -27t11.5 -38.5v-10q-8 -24 -57 -101q-6 -12 -88 -81q-23 -17 -54 -33.5t-45 -16.5h-2q-22 11 -22 29q0 17 10 27zM555 1225q44 78 100 168l9 14q1 0 13.5 13t26.5 28t15 16
q27 21 45 21q3 0 14 -8.5t22 -27t11 -38.5v-10q-2 -13 -55 -101q-12 -17 -90 -81q-20 -16 -52 -33t-45 -17h-4q-22 13 -22 29q0 18 12 27z" />
    <glyph glyph-name="uni03BC" unicode="&#x3bc;" horiz-adv-x="745" 
d="M618 600v18q-1 1 -5.5 9.5t-12 20t-16.5 22.5l-111 8q-71 0 -94 -19q-1 -2 -4 -4t-8 -6t-9 -8v-12q15 -15 71 -42t58 -28v-22q9 -92 9 -109q0 -101 -27 -131q-7 -24 -52 -42.5t-93 -18.5q-52 0 -78 20q-29 23 -51 39v156l6 73q12 58 12 94v23q-63 29 -145 29h-27
q-2 0 -41 -23q2 -18 40 -46.5t42 -41.5q0 -1 2 -10t2 -17q0 -32 -12 -114v-45q0 -63 12 -101q0 -104 -18 -190q-17 -23 -49.5 -39t-45.5 -29q7 -7 17 -22q99 -6 151 -6q121 0 138 10q8 8 18 12q-3 29 -29 37q-22 5 -33.5 9.5t-15 7t-11 12.5t-13.5 16v64q56 -9 77 -9
q109 0 148 52q39 -3 76 -56q156 0 219 49l-15 41q-15 2 -53.5 11.5t-54.5 13.5q4 14 16 184q10 137 10 160z" />
    <glyph glyph-name="endash" unicode="&#x2013;" horiz-adv-x="1013" 
d="M770 510q-10 -8 -346 -14q-332 -6 -350 -15q-11 -7 -26 -28l-15 -21q17 -34 30 -55q186 -17 629 -17q168 0 178 13q24 20 45 41q5 17 5 41q0 21 -5 28q-55 27 -145 27z" />
    <glyph glyph-name="emdash" unicode="&#x2014;" horiz-adv-x="1921" 
d="M770 510q-10 -8 -350 -14q-328 -6 -346 -15q-11 -7 -26 -28l-15 -21q0 -8 26 -49l4 -6q186 -17 1344 -17q351 0 373 9q2 1 17.5 6.5t23.5 7.5q22 6 22 31q0 36 -7.5 46t-47.5 23q-32 14 -500 23q-283 4 -518 4z" />
    <glyph glyph-name="quoteleft" unicode="&#x2018;" horiz-adv-x="309" 
d="M213 1006v8q-10 25 -18 41q-60 -3 -112 -73t-52 -148q0 -27 6 -48l35 -53q47 -10 82 -14q13 13 59 37q0 32 -14.5 63.5t-32.5 57t-21 34.5q68 62 68 95z" />
    <glyph glyph-name="quoteright" unicode="&#x2019;" horiz-adv-x="294" 
d="M31 770v-6q4 -24 18 -45q58 3 111 73.5t53 145.5q0 21 -8 49q-10 18 -37 55q-26 7 -78 13q-11 -8 -59 -39q0 -57 24 -84q36 -55 41 -72q-65 -59 -65 -90z" />
    <glyph glyph-name="quotesinglbase" unicode="&#x201a;" horiz-adv-x="286" 
d="M31 -86v-6q4 -24 18 -45q58 3 111 73.5t53 145.5q0 24 -6 45l-2 4q-10 18 -37 55q-29 8 -78 11q-5 -3 -16 -10t-21.5 -14t-21.5 -13q0 -55 24 -86q36 -51 41 -70q-65 -59 -65 -90z" />
    <glyph glyph-name="quotedblleft" unicode="&#x201c;" horiz-adv-x="565" 
d="M205 1006v8q0 13 -15 37l-4 4q-56 -3 -109.5 -73.5t-53.5 -147.5q0 -20 8 -48q10 -18 37 -53q32 -9 77 -14q30 21 60 37q0 32 -14 63t-32.5 57.5t-21.5 34.5q68 62 68 95zM465 1006v8q0 15 -14 37l-5 4q-56 -3 -109.5 -73.5t-53.5 -147.5q0 -20 8 -48q10 -18 37 -53
q31 -9 78 -14q26 18 59 37q0 32 -14 63.5t-31.5 57t-20.5 34.5q66 63 66 95z" />
    <glyph glyph-name="quotedblright" unicode="&#x201d;" horiz-adv-x="555" 
d="M291 770v-6q12 -36 18 -45q58 3 111 73.5t53 145.5q0 21 -8 49q-10 18 -37 55q-26 7 -78 13q-15 -13 -59 -39q0 -58 26 -84q41 -71 41 -72q-67 -61 -67 -90zM31 770v-6q4 -24 18 -45q58 3 111 73.5t53 145.5q0 21 -8 49q-10 18 -37 55q-26 7 -78 13q-11 -8 -59 -39
q0 -57 24 -84q36 -55 41 -72q-65 -59 -65 -90z" />
    <glyph glyph-name="quotedblbase" unicode="&#x201e;" horiz-adv-x="559" 
d="M291 -86v-6q12 -36 18 -45q58 3 111 73.5t53 145.5q0 24 -6 45l-2 4q-10 18 -37 55q-29 8 -78 11q-33 -23 -59 -37q0 -56 26 -86q40 -66 41 -70q-67 -61 -67 -90zM31 -86v-6q4 -24 18 -45q58 3 111 73.5t53 145.5q0 24 -6 45l-2 4q-10 18 -37 55q-29 8 -78 11
q-5 -3 -16 -10t-21.5 -14t-21.5 -13q0 -55 24 -86q36 -51 41 -70q-65 -59 -65 -90z" />
    <glyph glyph-name="dagger" unicode="&#x2020;" horiz-adv-x="569" 
d="M481 588q4 5 11.5 11t18.5 13.5t17 12.5q9 23 9 45t-9 26q-24 33 -32 45q-107 0 -146 -36h-18q-25 0 -37 5t-14 11t-2 20q0 23 20 78q55 137 55 213q-7 6 -67 70q-28 0 -50.5 -12.5t-33.5 -24.5t-29 -37l-6 -12q0 -19 4 -29q2 -4 29 -4q-8 -8 -29 -8q5 -43 41 -125
q33 -82 33 -113v-4q-4 -10 -16.5 -21.5t-24.5 -11.5q-13 0 -64.5 22.5t-68.5 22.5q-11 0 -21 -2.5t-16 -5t-14.5 -9t-12 -9.5t-12 -12t-10.5 -11q0 -55 19.5 -77.5t66.5 -22.5q75 0 114 33q24 0 52 -19v-4q0 -25 -21.5 -86.5t-21.5 -77.5q0 -11 20 -84l-6 -49q1 -15 27 -182
q0 -59 2 -90q0 -64 26 -78q-4 -4 -26 -37v-164q2 -4 8.5 -14t9.5 -16q12 -4 27 -4q12 0 12 4q6 0 18 4v141q0 1 -0.5 8.5t-1 21t-1 31.5t-1 44.5t-0.5 54.5q0 116 4 157q7 102 19 138q6 27 6 59q0 139 -55 191q0 15 22 51q21 0 83.5 -20.5t92.5 -20.5z" />
    <glyph glyph-name="daggerdbl" unicode="&#x2021;" horiz-adv-x="536" 
d="M401 696q20 0 35.5 7t22.5 14.5t19 24t18 22.5q-12 59 -76 78q-6 4 -21 4q-9 0 -44.5 -17.5t-49.5 -17.5q-23 0 -41 12q12 96 53 152v16q0 82 -61 101q-6 0 -18 4q-2 -4 -23 -4q-17 -14 -43 -58q-8 -20 -8 -33q0 -6 3.5 -16t7.5 -19t11 -23.5t11 -22.5q0 -20 12 -60
q0 -15 -19 -49l-118 27q-21 0 -39 -15q-10 -12 -37 -35q0 -58 59 -83q52 0 76 18h6q10 3 13.5 8t3.5 21q6 0 14 4q26 -18 29 -41q4 -4 4 -19q0 -6 -7.5 -32t-7.5 -35v-4q27 -159 27 -260q0 -42 -4 -56q0 -5 -7 -56t-7 -67q0 -48 20 -71q0 -31 -14 -47q-15 0 -67 18t-79 18
q-3 -7 -18 -23t-23 -26q0 -26 41 -73q81 0 117 28l43 -10l4 -31q0 -27 -10 -65q-14 -52 -14 -86q0 -50 24 -86q64 0 76 37q10 20 10 45q0 90 -41 131q0 31 19 65q57 0 96 -28h16q63 0 82 49v2q0 17 -22 53q-4 0 -4 4q-6 1 -17.5 2.5t-20 2.5t-14.5 1q-50 0 -86 -28
q-22 0 -49 18q0 10 16.5 47t16.5 57l-2 15q-27 123 -27 190q0 34 8 70q19 112 19 141q0 48 -19 82q0 26 11 45q70 -6 114 -37z" />
    <glyph glyph-name="bullet" unicode="&#x2022;" horiz-adv-x="595" 
d="M92 420q0 90 63 153.5t150 63.5q90 0 153.5 -63.5t63.5 -153.5q0 -86 -64 -148.5t-153 -62.5q-86 0 -149.5 62.5t-63.5 148.5z" />
    <glyph glyph-name="ellipsis" unicode="&#x2026;" horiz-adv-x="823" 
d="M700 168q-35 10 -63 10l-14 -4q-1 -2 -5 -2q-2 -1 -13.5 -8.5t-17 -11.5t-15 -13t-17.5 -20q0 -35 10 -55.5t31 -45.5l8 -8h47q19 0 31.5 6.5t27.5 23.5t17 19q0 57 -27 109zM440 168q-35 10 -65 10l-15 -4q0 -2 -2 -2l-6 -4q-38 -21 -57 -49q0 -35 10 -55.5t31 -45.5
l6 -8q9 0 20.5 -1t14.5 -1l14 2q14 0 26.5 5.5t18.5 11.5t16 17.5t13 14.5q0 60 -25 109zM174 168q-46 14 -74 14q-28 -9 -37.5 -18t-31.5 -45q0 -35 10 -55.5t31 -45.5l6 -8h49q12 0 21.5 3t17.5 9.5t12 11t11 14t8 11.5v19q0 51 -23 90z" />
    <glyph glyph-name="perthousand" unicode="&#x2030;" horiz-adv-x="1656" 
d="M1098 332q0 33 -15 67q-6 25 -18 47q-26 22 -96 37q-29 -5 -49 -18q-81 -22 -152 -174q-57 -114 -57 -209q0 -31 4 -45q5 -3 20 -14t23.5 -16.5t23.5 -11t29 -5.5q9 7 56.5 20t60.5 21q42 29 106 141q64 109 64 160zM1411 559h12q97 0 147 -53t50 -156q0 -90 -41 -186
q-37 -89 -94 -146q-72 -78 -148 -90l-22 -2q-18 0 -45 6q-16 4 -31 8t-25 7t-12 4q-1 1 -8.5 7t-21.5 17t-29 25q-41 41 -58 90l-10 33q-90 -170 -223 -195l-23 -2q-16 0 -43 6q-17 4 -32 8t-24 7.5t-11 3.5q-1 1 -9 7t-22 17t-29 25q-28 28 -49 68q-22 52 -22 110
q0 119 94 223q66 89 170 140q24 0 76 18h10q92 0 142.5 -49.5t56.5 -144.5q83 117 200 176q25 0 74 18zM1583 332q0 31 -16 67q-2 17 -19 47q-27 23 -96 37q-29 -6 -49 -18q-77 -21 -152 -174q-55 -116 -55 -209q0 -31 2 -45q4 -3 20 -14.5t24.5 -16.5t24 -10.5t29.5 -5.5
q9 7 55.5 20t59.5 21q45 29 109 141q63 108 63 160zM483 993q-44 35 -100 49h-14q-51 0 -150 -57q-189 -108 -237 -252v-78q-5 -39 -5 -67v-10q24 -77 86 -130t138 -53q37 0 86 19q63 23 141 123q54 73 86 170q0 14 16 100l2 12q1 3 4 12.5t7 19t8 17.5q37 0 100 2
q65 0 82 21q38 -6 49 -41q-27 -39 -41 -109q-12 -4 -20.5 -10.5t-15.5 -20t-10 -19.5t-9.5 -26.5t-7.5 -23.5q-1 -1 -31 -16v-19q-18 -25 -55 -65q0 -15 -10 -45l-68 -78q-3 -6 -164 -273l-31 -18l-55 -123q-4 -7 -15.5 -20.5t-17.5 -20.5q-75 -120 -116 -168q0 -13 1.5 -23
t5.5 -18t6 -11.5t9 -11.5t8 -10q13 3 23 8t19.5 17.5t12.5 16.5t13 23l10 19q56 84 74 117q18 62 20 68q7 2 33 28l8.5 17t13.5 28.5t15 32.5q15 28 67.5 106t59.5 89q5 34 86 145q2 5 10 45q8 15 21.5 33.5t36.5 48t37 47.5q88 118 96 131q138 197 323 402q0 17 -5 29.5
t-10.5 18.5t-16.5 15l-5 4q-21 -6 -45.5 -22.5t-38 -29.5t-42.5 -42q-15 -10 -142 -106q-116 -90 -153 -95q-10 -4 -37 -4q-81 0 -133 58q0 8 -13 24zM492 774q-82 -313 -302 -313h-8q-25 28 -59 41q-8 40 -8 61q0 135 135 307q8 16 48 45.5t40 30.5h80l47 -37l22 -59
q9 -36 9 -45q0 -7 -2 -17.5t-2 -13.5z" />
    <glyph glyph-name="guilsinglleft" unicode="&#x2039;" horiz-adv-x="663" 
d="M223 377l131 -76q52 -16 146 -65q3 -4 16 -31.5t25 -43.5t22 -16l6 5q23 0 23 18q4 47 4 119q0 64 -8 78q0 17 -19 45q-24 -6 -41 -32.5t-22 -27.5l-14 -12q-92 6 -201 76q-55 40 -55 73q0 8 2 15.5t6.5 15t8.5 14t10 13t9.5 10l8.5 8.5l6 6l4 4q102 66 174 72
q40 -10 49 -12q1 -1 6 -9.5t11 -18t16.5 -19.5t21.5 -13q14 28 19 50q8 14 8 77q0 70 -4 119q0 8 -6.5 13.5t-16.5 5.5q-3 0 -6.5 -1.5t-9 -3.5t-10.5 -4q-5 -10 -19.5 -36.5t-23.5 -44.5l-4 -3q-26 -16 -60 -34q-15 -7 -31 -14t-23 -10t-9 -5q-92 -51 -150 -72
q-50 -15 -102.5 -48.5t-52.5 -69.5q0 -22 48.5 -57t106.5 -58z" />
    <glyph glyph-name="guilsinglright" unicode="&#x203a;" horiz-adv-x="622" 
d="M305 301q-50 -15 -145 -65q-6 -8 -18.5 -32.5t-24 -41.5t-21.5 -17l-6 5q-22 0 -22 18q-5 59 -5 119q0 62 9 78q0 18 18 45q19 -6 38 -32.5t22 -27.5l18 -12q88 6 201 76q55 40 55 73q0 31 -23 54q-32 25 -32 32q-105 66 -174 72q-32 -8 -50 -12q-1 -1 -6 -9.5t-11 -18
t-16.5 -19.5t-21.5 -13q-13 27 -22 50q-5 17 -5 65q0 67 5 131q0 19 22 19q2 0 25 -9q23 -39 45 -81q33 -24 63 -37q15 -7 31 -14t23.5 -10t9.5 -5l35 -18q83 -45 114 -54q26 -7 101 -45q55 -34 55 -73q0 -22 -47 -57t-105 -62q-59 -24 -135 -72z" />
    <glyph glyph-name="uni2044" unicode="&#x2044;" horiz-adv-x="518" 
d="M432 942l-12 -74q-6 -20 -29 -125t-37 -137q-13 -167 -57 -264q-27 -60 -45 -205q-16 -148 -39 -200q-19 -46 -31 -179q-13 -123 -49 -178l-27 -4l-24 10q-14 17 -14 54q0 10 2.5 31t3.5 32l-1 5q-1 4 -1 9q0 16 10 52t10 41q0 16 11 78t20 81q18 63 18 68l27 213l22 67
q6 202 82 398l-4 14q-8 8 -8 23q0 10 45 108q5 13 12 92q2 35 2 105q2 12 10 29.5t24.5 45t19.5 33.5q5 2 13.5 8t12.5 7q23 0 66 -6l16 -64v-8q0 -35 -49 -160z" />
    <glyph glyph-name="uni20A7" unicode="&#x20a7;" horiz-adv-x="405" 
 />
    <glyph glyph-name="uni20AC" unicode="&#x20ac;" horiz-adv-x="1101" 
d="M115 160q0 -30 -6 -74q18 -25 59 -31l178 127q45 -40 105 -73q39 -23 104 -23q104 0 186 82l201 -86l59 33q9 18 9 35q0 9 -9 32l-190 82q53 89 53 197q0 134 -82 235l115 86q2 10 4 35.5t4 38.5q-26 26 -63 31l-154 -117q-71 41 -170 41h-8q-17 -2 -70 -25
q-54 -28 -82 -53l-161 160q-18 -2 -74 -2q-19 -30 -19 -64l168 -172h7q-28 -46 -41 -73q-11 -29 -11 -72v-37q0 -59 11 -108q14 -56 34 -93zM469 686q16 2 68 21q35 0 79.5 -21t57.5 -45q55 -73 55 -223q0 -51 -14 -91.5t-29.5 -61.5t-48.5 -56l-12 -14q-23 -5 -56 -5
q-86 0 -131 42.5t-73 136.5q-11 49 -11 86q0 81 33.5 148.5t81.5 82.5z" />
    <glyph glyph-name="trademark" unicode="&#x2122;" horiz-adv-x="1798" 
d="M786 63q-13 -13 -57 -36q0 -20 19 -58l135 -10q97 0 127 10q38 0 69 21q0 49 -28 55q-67 23 -68 23q-30 10 -33 36q1 19 5 71t6 81q6 116 12 158h6v6q17 -1 30 -14t18 -26t13 -40t11 -35q10 -18 34 -65.5t39 -75.5q3 -18 37 -115q8 -8 23 -35l12 -6q17 1 30.5 15t20 28.5
t15.5 40.5l18 53q48 105 154 306q5 -2 15.5 -4.5t14.5 -4.5q11 -68 11 -163q0 -174 -31 -216q-3 -4 -37 -24.5t-41 -38.5h-6q14 -33 47 -33q22 0 63 10q22 5 46 5h14l112 -19q19 0 23 4q30 0 59 29q0 2 -8 22q-10 30 -47 33q-53 6 -67 17q-31 17 -31 88q0 21 8 57
q10 41 10 164v188l31 35l86 18q15 22 23 29l-17 58q-10 0 -67 7t-80 7q-47 0 -80 -23q-46 -33 -70 -118v-41l-94 -191q-1 -3 -8 -27.5t-10.5 -32.5t-10.5 -25t-15 -25.5t-17 -12.5q-5 0 -21 8q-22 12 -51 78l-33 97q-31 66 -90 200q0 1 -6 28t-12 48q-18 9 -50 41
q-33 4 -96 4h-41q-19 0 -33 -2t-22 -3.5t-15.5 -8.5t-8.5 -8t-7 -11.5t-6 -11.5q0 -30 10 -37q10 -25 37 -31q16 -3 26.5 -6t19 -8.5t13 -9.5t14.5 -14l17 -17q-35 -131 -35 -209q0 -33 4 -45l13 -22q0 -7 -6.5 -21t-6.5 -20t13 -19q-9 0 -19 -4l6 -59q0 -30 -10 -47
q-1 -12 -5.5 -20.5t-8.5 -13.5t-14.5 -8t-15 -4t-18.5 -2.5t-16 -1.5zM123 618q13 2 47.5 14.5t52.5 18.5l13 4q46 -18 65 -30q16 -68 16 -160q0 -86 -8 -129v-17q0 -19 2 -62t2 -48q0 -25 -8 -37q0 -23 -8.5 -42.5t-17.5 -30t-25 -25.5q-4 -2 -8 -2l-56 -27l11 -37h18
q41 0 72 2q94 8 100 8q46 0 78 -18q42 0 74 18q-1 16 -6 27t-16.5 17.5t-19 10t-26 7.5t-24.5 6q-1 1 -8.5 10.5t-14.5 16.5v483q24 16 49 41h25q67 0 104 -19t64 -71q16 0 37 12q4 14 4 33q0 6 4 32.5t4 37.5q0 8 -2 10q0 24 -14 36t-15 15q-81 -10 -182 -31q-34 -6 -78 -6
q-60 0 -111 10h-139q-7 4 -30.5 7.5t-43.5 9.5q-2 -2 -4 -2t-9 2t-11 2h-6q-2 2 -6 2q-13 0 -24 -27.5t-11 -58.5v-17q0 -11 -2 -27.5t-2 -21.5q0 -13 22 -18q24 2 38.5 16.5t22 33t11.5 21.5z" />
    <glyph glyph-name="uni2219" unicode="&#x2219;" horiz-adv-x="278" 
d="M174 465q-44 16 -74 16q-3 -3 -19.5 -9t-30 -18t-19.5 -36q0 -82 41 -101l18 -8h37q8 0 15.5 1.5t14 5t10.5 6t9.5 9t7.5 8.5t7 10t6 9v19q0 52 -23 88z" />
    <glyph glyph-name="fi" unicode="&#xfb01;" 
d="M518 827h14q54 0 78 10t35 42l14 14l5 12q0 54 -28.5 83t-80.5 32q-29 -10 -49 -23q-12 -8 -14 -10v6q0 26 -15 41q-16 41 -117 41h-28q-5 0 -96 -61q-57 -38 -82 -82q-54 -123 -54 -232v-41q0 -38 -49 -49q-43 -6 -43 -26v-2q1 -12 7 -19.5t12 -7.5h4q15 0 25 -3
t13.5 -5t12 -11.5t10.5 -11.5q0 -66 4 -125q0 -98 4 -272q-13 -30 -45 -55h-32l-46 -31q3 -19 11.5 -27.5t34.5 -21.5h8q17 0 73 12h56q81 0 116 -4q20 -8 25 -8q25 0 31 39q-6 29 -41 41q-23 5 -36 11t-17.5 9.5t-13.5 15.5t-15 19q0 47 -4 100v119q0 154 31 205q20 4 51 4
q22 0 26 -4h19q25 0 41 8q18 18 18 33q0 6 -8 18l-4 19q-36 8 -47 8q-23 0 -47 -12l-2 -2q-37 0 -74 22v33q0 243 78 264q8 4 18 4q14 0 27 -5.5t29 -16t22 -13.5h63l13 13v-37zM688 -4q7 7 19 12q-3 29 -29 37q-22 5 -33.5 10t-15.5 7t-12 12.5t-13 15.5v397q0 1 6 22
t12.5 46t6.5 37q0 24 -8.5 37t-36.5 16q-32 -28 -74 -41l-6 -2q-59 -22 -76 -37q-27 -14 -27 -24q0 -8 9 -17q15 -21 67 -55q19 -86 19 -178q0 -68 -9 -105v-22q0 -30 -10 -82q-17 -23 -49 -39t-45 -29q4 -4 16 -22q99 -6 152 -6q120 0 137 10z" />
    <glyph glyph-name="fl" unicode="&#xfb02;" 
d="M406 -8q35 -2 104 -2q27 -4 63 -4q38 0 50 4q60 3 82 18q-3 32 -27 49.5t-64 30.5l-18 4q-8 54 -8 76q0 25 8 65v5q-2 8 -3 18.5t-2 27t-3 29.5q0 27 12 156q-4 14 -4 59v35q8 50 8 125q3 108 6 121q4 0 4 74q0 54 15 69v21q0 48 -23 84q-3 2 -9 3t-15.5 2t-16.5 3
q-9 -7 -42.5 -14t-41.5 -13l-4 -4q-16 41 -117 41h-28q-5 0 -96 -61q-57 -38 -82 -82q-54 -123 -54 -232v-41q0 -38 -49 -49q-43 -6 -43 -26v-2q1 -12 7 -19.5t12 -7.5h4q15 0 25 -3t13.5 -5t12 -11.5t10.5 -11.5q0 -66 4 -125q0 -98 4 -272q-13 -30 -45 -55h-32l-46 -31
q3 -19 11.5 -27.5t34.5 -21.5h8q17 0 73 12h56q81 0 116 -4q20 -8 25 -8q25 0 31 39q-6 29 -41 41q-23 5 -36 11t-17.5 9.5t-13.5 15.5t-15 19q0 47 -4 100v119q0 154 31 205q20 4 51 4q22 0 26 -4h19q25 0 41 8q18 18 18 33q0 6 -8 18l-4 19q-36 8 -47 8q-23 0 -47 -12
l-2 -2q-37 0 -74 22v33q0 243 78 264q8 4 18 4q14 0 27 -5.5t29 -16t22 -13.5h23q8 -10 25.5 -26t25.5 -28t8 -28q0 -14 -4 -20l-2 -35q0 -3 1 -7.5t1 -6.5q8 -54 8 -96q0 -47 -10 -132v-104q0 -68 6 -111q8 -40 8 -86q0 -57 -12 -75q0 -15 -3 -28.5t-6.5 -22.5t-12 -17.5
l-13.5 -13.5t-17.5 -11t-17.5 -8t-19.5 -7.5t-17.5 -6.5v-45q27 -6 41 -6z" />
    <glyph glyph-name="breve" 
d="M483 1464q-17 -7 -24 -16h-4q-2 -2 -3.5 -13.5t-5.5 -19.5q15 -56 37 -115q108 -153 232 -153h14q65 7 126.5 56t158.5 163q16 36 55 90q0 17 -8 37q-23 -9 -64 -63q-21 -26 -73 -78q-71 -48 -176 -60q-18 -4 -48 -4q-81 0 -137 41q-25 22 -80 135z" />
    <glyph glyph-name="dotaccent" horiz-adv-x="901" 
d="M846 1284q-47 16 -76 16q-3 -2 -15.5 -11t-26 -21.5t-28.5 -30.5q0 -36 10 -56.5t31 -43.5l7 -9h49q12 0 21.5 3t17 9.5t12 11t11.5 14t9 12.5v18q0 49 -22 88z" />
    <glyph glyph-name="ring" 
d="M793 1307l-23 -33q-71 -109 -174 -109q-27 0 -86 19q-65 28 -104 94l-5 2q-1 5 -3.5 12t-7 17.5t-7.5 19.5l-10 82q0 7 2.5 17.5t3.5 13.5q47 134 135 155q16 0 51 15q189 0 232 -168q12 -38 12 -70q0 -36 -16 -67zM473 1425q-4 -10 -4 -41q0 -10 4 -28l4 -23q4 -4 4 -12
q20 -59 88 -59q54 0 92.5 36t38.5 95v8q-6 110 -104 110q-10 5 -31 5h-18q-33 -7 -48 -26.5t-26 -64.5z" />
    <glyph glyph-name="Euro" horiz-adv-x="1101" 
d="M584 436q92 0 145 -26q4 -8 4 -31q0 -25 -4 -41q-4 -4 -17.5 -18.5t-23.5 -24.5q-12 -8 -125 -8q-23 0 -91 2t-114 2q44 -101 152.5 -170.5t222.5 -69.5q61 0 123 27q3 1 8.5 5t14.5 12.5t17 16t23 22.5t27 26q65 59 74 59h4q9 -4 18 -18.5t9 -32.5t-13 -59
q-17 -45 -18 -50q-1 -1 -18 -13t-29 -23q-67 -27 -172 -50q-5 0 -40.5 4.5t-45.5 4.5q-300 0 -473 237q-2 2 -60 64l-8 12l-147 6q-15 15 -31 57q10 25 45 48q2 2 8 3t20 3.5t27 5.5l13 2h32q9 82 19 135l-133 8q-14 10 -31 55q10 25 45 48q12 10 149 16v4q6 24 11 29
q96 194 282 278q7 4 22 13t21 11.5t23.5 6.5t42.5 6l72 10l81 -6q235 0 261 -59q28 -28 28 -82l2 -39q0 -23 -12 -35q-9 -6 -14 -6q-8 0 -20.5 13.5t-18.5 15.5q-52 55 -94.5 75.5t-88.5 20.5q-23 0 -141 -31q-169 -44 -256 -225h72q111 6 121 14q92 0 145 -26q4 -6 4 -29
q0 -27 -4 -41q-20 -24 -41 -45q-12 -8 -129 -8q-24 0 -94 2t-119 2q-8 -58 -8 -92v-39q234 6 246 16z" />
    <glyph glyph-name="mu" horiz-adv-x="745" 
d="M618 600v18q-1 1 -5.5 9.5t-12 20t-16.5 22.5l-111 8q-71 0 -94 -19q-1 -2 -4 -4t-8 -6t-9 -8v-12q15 -15 71 -42t58 -28v-22q9 -92 9 -109q0 -101 -27 -131q-7 -24 -52 -42.5t-93 -18.5q-52 0 -78 20q-29 23 -51 39v156l6 73q12 58 12 94v23q-63 29 -145 29h-27
q-2 0 -41 -23q2 -18 40 -46.5t42 -41.5q0 -1 2 -10t2 -17q0 -32 -12 -114v-45q0 -63 12 -101q0 -104 -18 -190q-17 -23 -49.5 -39t-45.5 -29q7 -7 17 -22q99 -6 151 -6q121 0 138 10q8 8 18 12q-3 29 -29 37q-22 5 -33.5 9.5t-15 7t-11 12.5t-13.5 16v64q56 -9 77 -9
q109 0 148 52q39 -3 76 -56q156 0 219 49l-15 41q-15 2 -53.5 11.5t-54.5 13.5q4 14 16 184q10 137 10 160z" />
    <glyph glyph-name="germandbls" horiz-adv-x="815" 
d="M119 961h18q91 45 258 45q224 0 252 -91q17 -20 17 -51q0 -14 -9 -45q-12 -38 -22 -59q-6 -18 -14 -27.5t-38.5 -37t-66.5 -66.5l45 -19q49 -19 75 -31t56.5 -35.5t42.5 -51.5q23 -54 23 -109q0 -128 -131 -250q-105 -91 -238 -133q-36 -8 -145 -8q-33 11 -33 82
q5 25 41 30q2 0 10 -3.5t28 -11.5t40 -15q46 -15 67 -15h11q54 19 116 72q107 96 107 215q0 43 -19 86q-6 13 -28 30.5t-45 32.5t-27 19l-127 8q-33 -21 -119 -57q-10 19 -14 49q12 20 37 45l37 4l30 37l123 78q58 46 64 141q-12 22 -45 60q-107 55 -179 55q-74 0 -135 -55
v-27q-11 -11 -18 -74l-4 -71q-2 -27 -9.5 -62.5t-13.5 -93.5q0 -1 -1 -11t-2 -26t-1 -31q0 -19 2 -45t2 -28q4 -23 4 -41q-14 -126 -14 -146v-14q0 -27 4 -72q-1 -8 -2.5 -15t-3 -9.5t-2 -5t-0.5 -3.5v-8q0 -4 8 -24q6 -4 6 -90q-36 -72 -69 -95q-38 -14 -58 -14l-47 8
q-14 0 -26 6h-9q-4 0 -10.5 1.5t-17 3.5t-19.5 4v41q8 4 31.5 14t32.5 16t23 17.5t19 28t5 38.5q10 14 16 80l-12 170q0 13 8 131q10 98 10 137q0 9 -6 90l2 33q0 30 -6 64q-14 36 -14 73q0 54 43 109q25 0 86 23z" />
    <glyph glyph-name="_1" horiz-adv-x="0" 
 />
    <glyph glyph-name="_269" horiz-adv-x="505" 
d="M23 72l-46 -31q3 -19 11.5 -27.5t34.5 -21.5h8q17 0 73 12h56q81 0 116 -4q20 -8 25 -8q25 0 31 39q-6 29 -41 41q-23 5 -36 11t-17.5 9.5t-13.5 15.5t-15 19q0 47 -4 100v119q0 154 31 205q20 4 51 4q22 0 26 -4h19q25 0 41 8q18 18 18 33q0 6 -8 18l-4 19q-36 8 -47 8
q-23 0 -47 -12l-2 -2q-37 0 -74 22v33q0 243 78 264q8 4 18 4q14 0 27 -5.5t29 -16t22 -13.5h63q46 46 46 82q0 26 -15 41q-16 41 -117 41h-28q-5 0 -96 -61q-57 -38 -82 -82q-54 -123 -54 -232v-41q0 -38 -49 -49q-43 -6 -43 -26v-2q1 -12 7 -19.5t12 -7.5h4q15 0 25 -3
t13.5 -5t12 -11.5t10.5 -11.5q0 -66 4 -125q0 -98 4 -272q-13 -30 -45 -55h-32z" />
    <glyph glyph-name="uni0020" horiz-adv-x="368" 
 />
    <glyph glyph-name="circumflex" horiz-adv-x="808" 
d="M537 1174q-1 -3 -5 -17t-7.5 -17.5t-14 -11t-30.5 -10t-52 -2.5l-68 4q-22 0 -22 27q0 33 35 49q31 21 47 51.5t36.5 86t49.5 104.5q14 48 44 92.5t50 44.5q47 0 96 -137q6 -18 14.5 -37.5t20 -43.5t17.5 -38q14 -46 49 -105l4 -2q17 -10 55 -34q8 -24 8 -31
q0 -27 -22 -27q-33 -4 -86 -4q-50 0 -64 8q-7 0 -41 19q5 31 27 45l10 8q11 27 17 41q-8 64 -54 137q0 5 -19.5 25t-31.5 20q-16 0 -35 -22l-18 -23q-45 -86 -51 -155q1 -4 9 -6t17.5 -10.5t14.5 -28.5z" />
    <glyph glyph-name="tilde" horiz-adv-x="960" 
d="M201 1292q-3 -6 -45 -104q-21 -49 -52 -49q-35 0 -44 20t-9 88q0 49 103 117l165 111q29 18 58 18q60 0 135.5 -55t97.5 -105q53 -119 154 -119q59 0 103 34t44 89q0 21 -14 83t-14 77q0 55 55 55q31 0 59 -14.5t31 -32.5q4 -12 4 -39q0 -49 -16 -114q-11 -59 -25 -96
t-38.5 -60t-47.5 -33.5t-67 -25.5q-70 -23 -131 -23q-77 0 -134 66q-3 3 -81 127q-45 71 -86 71q-150 0 -205 -86z" />
    <glyph glyph-name="hungarumlaut" 
d="M815 1225q44 78 100 168l9 14q2 0 14.5 13t26 28t14.5 16q27 21 45 21q3 0 14.5 -8.5t23 -27t11.5 -38.5v-10q-8 -24 -57 -101q-6 -12 -88 -81q-23 -17 -54 -33.5t-45 -16.5h-2q-22 11 -22 29q0 17 10 27zM555 1225q44 78 100 168l9 14q1 0 13.5 13t26.5 28t15 16
q27 21 45 21q3 0 14 -8.5t22 -27t11 -38.5v-10q-2 -13 -55 -101q-12 -17 -90 -81q-20 -16 -52 -33t-45 -17h-4q-22 13 -22 29q0 18 12 27z" />
    <glyph glyph-name="ogonek" 
d="M678 -31l41 -78q-1 9 -19 9q-21 0 -82 -19q-71 -23 -71 -137q0 -22 3 -45.5t6 -36.5l3 -12l156 26q48 -14 73 -45q5 -5 5 -10q0 -24 -74 -57l-4 -4l-4 -2h-4q-2 -3 -48.5 -6t-93.5 -3q-15 0 -59 -5t-55 -5h-11q-8 2 -8 21q0 9 2 20t4 18l2 7q-16 63 -16 71l16 56v73
l41 68l115 90z" />
    <glyph glyph-name="caron" 
d="M483 1464q-17 -7 -24 -16h-4q-2 -2 -3.5 -13.5t-5.5 -19.5q15 -56 37 -115q108 -153 232 -153h14q65 7 126.5 56t158.5 163q16 36 55 90q0 17 -8 37q-23 -9 -64 -63q-21 -26 -73 -78q-71 -48 -176 -60q-18 -4 -48 -4q-81 0 -137 41q-25 22 -80 135z" />
    <glyph glyph-name="florin" horiz-adv-x="710" 
d="M360 651q6 94 76 213q70 115 146 129h10q21 0 52 -12t44 -20q12 -9 31 -9q17 0 29 9t12 26v6q0 49 -12 64q-16 49 -123 49l-25 -4q-79 -27 -149 -82q-94 -76 -168 -268q-3 -12 -3.5 -33t-7 -37t-26.5 -37q-48 -7 -115 -27q0 -2 -8 -14q19 -22 78 -22q30 0 30 -17l-4 -10
q-7 -36 -21 -132t-20 -136q-21 -147 -67 -310v-155q-1 -5 -29 -86l-16 -8h-15q-40 0 -73 -23v-14q0 -64 47 -78v-4q8 0 12 4q19 2 34.5 10t27.5 24.5t20.5 31t16.5 40.5t12.5 41.5t11.5 46t10 43.5q26 80 74 377q41 248 102 342q31 7 105 13h22q51 0 51 14q0 11 -32 24
t-64 13q-25 0 -45 -8q-18 18 -31 26z" />
  </font>
</defs>
</svg>
