<?xml version="1.0" standalone="no"?>
<!DOCTYPE svg PUBLIC "-//W3C//DTD SVG 1.1//EN" "http://www.w3.org/Graphics/SVG/1.1/DTD/svg11.dtd" >
<svg xmlns="http://www.w3.org/2000/svg" xmlns:xlink="http://www.w3.org/1999/xlink" version="1.1">
<metadata>
Created by FontForge 20170731 at Sun Jan 17 23:53:10 2021
 By Aleksey,,,
Copyright (c) 2009 by joorgemoron@gmail.com. All rights reserved.
</metadata>
<defs>
<font id="JMHLegajo-Bold" horiz-adv-x="1177" >
  <font-face 
    font-family="JMH Legajo"
    font-weight="700"
    font-stretch="normal"
    units-per-em="2048"
    panose-1="2 0 8 5 0 0 0 2 0 3"
    ascent="1638"
    descent="-410"
    x-height="893"
    cap-height="1427"
    bbox="-272 -580 2177 2025"
    underline-thickness="40"
    underline-position="-333"
    unicode-range="U+000D-20AC"
  />
<missing-glyph horiz-adv-x="1929" 
 />
    <glyph glyph-name=".notdef" horiz-adv-x="1929" 
 />
    <glyph glyph-name=".null" horiz-adv-x="0" 
 />
    <glyph glyph-name="nonmarkingreturn" horiz-adv-x="682" 
 />
    <glyph glyph-name="NULL" horiz-adv-x="0" 
 />
    <glyph glyph-name="NULL" horiz-adv-x="0" 
 />
    <glyph glyph-name="CR" unicode="&#xd;" horiz-adv-x="409" 
 />
    <glyph glyph-name="space" unicode=" " horiz-adv-x="409" 
 />
    <glyph glyph-name="exclam" unicode="!" horiz-adv-x="569" 
d="M199 477q0 19 8 27q-21 81 -21 143v8q0 1 1 9t1 12q0 31 -3.5 89.5t-6.5 100.5l-4 43v13q-2 4 -2 16v2q-8 21 -8 35q0 6 1 12.5t1 7.5t-2 7t-5.5 20.5t-6.5 34.5v12q0 11 -13 80l-14 72q-6 14 -6 45q0 6 4 22l6 47q7 50 41.5 85.5t101.5 35.5q66 0 104 -54t38 -149
l-19 -223q-26 -258 -26 -422q0 -24 -0.5 -39t-3 -42t-9 -44.5t-16.5 -35.5t-27.5 -27.5t-40.5 -9.5q-73 0 -73 67zM205 8h2q-42 23 -60 57.5t-18 90.5q0 48 37 78t86 30q41 0 84 -35.5t43 -85.5t-45 -99.5t-94 -49.5q-10 0 -35 14z" />
    <glyph glyph-name="numbersign" unicode="#" horiz-adv-x="1501" 
d="M291 -80q-23 0 -45.5 21.5t-22.5 44.5q0 8 45 157l-2 -2l17 58q22 74 30 127h-10q-6 0 -24 -1t-29 -1h-78q-7 0 -13 0.5t-21.5 2t-28 7t-26 13.5t-21 22.5t-7.5 33.5q0 30 38.5 55t103.5 25q4 0 9.5 -1t8.5 -1l6 2l119 15q10 1 12.5 1.5l10 2t9.5 5.5t7.5 9.5t8.5 17
t8 23.5t10.5 34.5t12 45.5t15.5 59q12 17 25 55t16 62h-63q-250 0 -250 90q0 10 18.5 31t34.5 27l23 20h65q40 0 80 4l23 4l-13 -2q8 4 56 4q4 -4 8 -4q61 0 61 -4l6 18q5 23 30.5 81.5t33.5 84.5q22 48 37 104.5t20.5 88.5t19 55t37.5 25l13 4l-4 -4q20 10 32 10
q33 0 54 -10t28 -26t9 -24.5t2 -17.5q-2 -26 -43 -102l-25 -45q-24 -46 -86 -238q14 0 76 3t76 3q28 0 45 -5t22 -5q14 0 14 8v-2q29 79 29 105l10 20q25 59 51.5 144.5t26.5 99.5q0 7 37 46.5t47 39.5q26 0 42.5 -6t23.5 -18.5t9.5 -23.5t2.5 -28q0 -55 -68 -278l-22 -70
q-12 -37 -12 -45q3 8 20 8h119q94 0 146.5 -12t52.5 -47q0 -20 -15 -44.5t-31 -35.5q-59 -19 -331 -19q-4 0 -4 2q0 -7 -5 -12h3q-11 -44 -26 -82t-28 -82q-10 -33 -10 -39l-4 -8q0 -2 -1 -8.5t-1 -7.5v2l-16 -58h106q65 0 109.5 -6t67 -14t34 -23.5t13 -25t1.5 -27.5
q0 -26 -9 -38.5t-46 -35.5l-29 -12h-96q-15 -18 -35 -18q-30 0 -37 18q-10 -2 -41 -2l-90 -4q-17 -40 -44 -153.5t-54 -155.5l-16 -29l2 2q-11 -21 -18.5 -31.5t-28.5 -21t-52 -10.5q-9 0 -39 26t-30 37q0 18 46 154t46 157q0 17 4 33q-8 -6 -16 -8.5t-16.5 -3t-32 -2.5
t-52.5 -6h-69q-12 -2 -41 -2q2 0 2 -4l-29 -111q-55 -119 -55 -145q0 -16 -5 -37.5t-17 -48.5t-39 -45.5t-64 -18.5zM543 510l61 6q4 0 12 1t13 1l153 8q8 15 9.5 23t1.5 16.5t9 44.5t29 95q22 45 35 112h-45q-20 0 -56 1t-52 1h-62q-14 0 -25.5 -29.5t-21 -72.5t-12.5 -51
q-9 -22 -12 -43l-19 -58l2 2l-6 -16q-14 -28 -14 -41z" />
    <glyph glyph-name="dollar" unicode="$" horiz-adv-x="1153" 
d="M502 -84q-29 17 -29 57q0 9 6 15v39q-4 -4 -12 -4q-13 0 -29 3t-30 7t-26 8t-20 7l-8 3q-5 0 -30.5 -11t-44.5 -11q-50 0 -76.5 32t-30.5 117q0 44 -4 72l-10 41q-15 55 -15 104q0 84 43 84q9 0 32 -17.5t32 -31.5l-4 2l12 -14q0 -37 31 -68l22 -35q61 -81 90.5 -101.5
t77.5 -20.5v14q0 124 4.5 223t8.5 148t4 51q0 8 -46 19t-57 11q-25 0 -63.5 19t-79.5 54t-69.5 94.5t-28.5 129.5q0 46 4 58l-2 -2l18 67q32 89 107 150.5t208 109.5l27 4q6 0 7 2.5t1 16.5q0 24 -7 32t-7 19q0 15 20 43.5t50 28.5q53 0 70.5 -13.5t17.5 -58.5v-49
q0 -18 4.5 -21.5t27.5 -3.5q19 0 56.5 7.5t58.5 7.5q42 0 63 -37.5t22.5 -83t5.5 -88t16 -49.5q24 -3 30 -37q0 -33 -12 -45l-2 -4q-7 -29 -31 -47l2 4l-20 -21h-35q-35 0 -43 6t-21 37l-22 55q-7 17 -14 46l-15 34q-34 45 -90 45q-4 0 -4 -319v-14l27 -7
q96 -23 181.5 -93.5t111.5 -147.5l10 -21v4l8 -12h-2q9 -20 12.5 -27.5t6.5 -30.5t3 -59q0 -25 -7 -53t-13.5 -44t-22 -49.5t-20.5 -43.5l-6 -16q-33 -62 -109 -130v3l-10 -11q-36 -16 -56 -31.5t-38 -23t-70 -14.5q-14 -3 -17 -4.5t-3 -6.5q0 -52 -26 -87t-62 -35
q-19 0 -39 20zM633 344v-137l37 16q28 12 58 39.5t30 36.5l6 16v-4q8 28 8 54q0 39 -8 51l-4 18q-7 23 -25.5 53t-34.5 35l-36 31l2 -2l-37 29q2 -4 2 -19v-51q0 -15 1 -70.5t1 -95.5zM498 856q8 -4 10 -4q0 17 5 60.5t5 50.5l-2 -2q-4 0 -4 26q0 1 1 7t2 20.5t1 34.5
q0 73 2 100v4q-19 -4 -41.5 -15.5t-30.5 -19.5l-24 -16l2 2q-24 -13 -43 -46t-23 -48q-16 -11 -16 -41q0 -83 156 -113z" />
    <glyph glyph-name="percent" unicode="%" horiz-adv-x="1935" 
d="M516 -84q-18 0 -31 10l4 -4q-26 17 -26 49q0 14 17 60.5t57.5 117t89.5 119.5q11 11 51 62l22 28q19 19 45 54t43 61.5t17 28.5q63 94 80.5 124.5t17.5 47.5l49 63q21 27 36.5 40t20.5 13.5t7 4t2 18.5q0 11 12 31l21 28q16 16 49 72h-2l30 55q7 22 27 45
q-14 -8 -28 -13.5t-23 -7t-25.5 -4.5t-25.5 -5l-154 -39l-8 -45q-1 -32 -10 -67t-21.5 -62.5t-24 -50.5t-19.5 -36l-9 -14q-10 -10 -31 -57l-16 -31q-72 -101 -108 -136q-95 -91 -236 -97q-98 0 -162 42t-80 85q-15 21 -31 53v-2l-10 16l-6 27l4 -6q-18 34 -18 70q0 10 2 23
t2 20l10 67q18 131 70 199v-2q8 13 8 20l10 21q10 17 35 39l12 14q17 17 25 33l18 16q5 5 13 13.5t13 13.5t9 8l88 59q33 15 58.5 25t37 13.5t13.5 4.5q63 19 86 19q41 0 96 -19l35 -16q4 0 55 -41.5t51 -46.5q10 0 35 -4q4 -8 47 -8q6 0 15.5 1.5t19.5 3.5t20.5 4.5t20 5
t16.5 4.5t11 4l4 1l139 53q9 0 26 8t37.5 21t37 24.5t34.5 25t20 14.5l-4 -2q6 8 20.5 12t20.5 4q62 0 62 -82q-6 -43 -35 -86q-15 -41 -21.5 -53.5t-35.5 -50.5v2l-41 -60l2 2q-22 -46 -65.5 -93.5t-76.5 -111.5l-20 -28q-5 -5 -51 -70v2q-2 -3 -21 -22l-6 -11l2 2l-35 -51
h2q-6 -8 -13.5 -17.5t-12 -15.5t-8.5 -10l-9 -10h2q-24 -25 -43 -48t-40 -52.5t-29 -40.5l-39 -49q-8 -5 -8 -15l-47 -67q-20 -29 -27 -31l-51 -84v2l-23 -33h2q-35 -49 -63 -104q-13 -7 -13 -21q1 -2 3 -4q0 -24 -46 -58t-59 -34zM1210 -18l-61 8q-40 11 -71 33t-46.5 45
t-23 39.5t-7.5 23.5q0 4 2.5 12t2.5 11l-4 27q-5 27 -5 50q0 46 9 111.5t22 91.5l23 43q56 153 263 274q81 47 120 58l12 4l-14 -4q17 10 29 13t48 3q53 0 97 -32.5t69 -73.5l17 -29q26 -65 26 -102q0 -100 -21.5 -162.5t-62.5 -122.5l2 2l-10 -14v6q-2 -7 -41 -72l-20 -30
l2 10q-6 -13 -65 -72t-101 -94q-39 -33 -71 -46t-73 -13h-34q-9 0 -13 2zM412 543l4 2q53 6 100 88l14 18l-2 -2q2 4 8.5 12.5t8.5 12.5v-2q25 59 51.5 99t56.5 126l-2 -2q2 13 15 39v-2q12 21 12 65q0 38 -14.5 73.5t-36.5 35.5q-16 0 -41.5 -17.5t-46.5 -48.5l-37 -41
q0 -5 -8 -16l-13 -20l2 2l-8 -15q-34 -60 -69 -145.5t-35 -142.5v-11q0 -6 -3 -15.5t-3 -31.5q0 -23 6 -29v-8l6 -6q7 -22 10 -22q13 0 25 4zM1305 158l4 2q15 4 31.5 26t36 55.5t32.5 49.5q16 23 66 143l14 35q16 13 16 133q0 68 -16 68q-49 0 -146 -107v2l-20 -28
q-34 -40 -47 -68.5t-21.5 -67.5t-21.5 -71q-4 -16 -4 -21l-2 -22q0 -2 -2 -2v6l-4 -17q-1 -1 -3.5 -12.5t-5 -27.5t-2.5 -27q0 -13 9 -45v4l6 -16h26q41 0 54 8zM662 915l-3 -4q3 2 3 4z" />
    <glyph glyph-name="ampersand" unicode="&#x26;" horiz-adv-x="1712" 
d="M420 -25h-6q-21 0 -41.5 2.5t-36 4.5t-33.5 9t-29 10.5t-27.5 14t-23.5 14.5t-23 17t-20.5 16t-21 18t-19.5 17l-14 19q0 2 -2 5.5t-7.5 13.5t-11.5 22l-20 39l2 -4q-10 16 -16.5 67t-6.5 96q0 105 76 195l29 35q20 23 64.5 63.5t62.5 50.5l59 37q2 2 6 2q-2 17 -21.5 38
t-25.5 46l2 -2q-20 38 -27 65.5t-7 78.5q0 68 44.5 141.5t98.5 110.5q49 47 105 63t137 16q61 0 98 -11t66.5 -33t31.5 -23q32 -17 50 -62t18 -143q0 -45 -12 -66l-9 -14v6q-12 -28 -45.5 -60.5t-79 -67t-51.5 -40.5l-20 -14q-2 0 -6 -2l18 -23h-2q44 -58 83 -97t60.5 -53.5
t44.5 -37t43 -55.5l2 -2l35 37q70 75 70 81v15q0 11 33 47q2 2 21.5 42.5t19.5 45.5q0 2 -31 2h-25q-4 0 -18.5 -1t-24.5 -1q-54 0 -75 12l-35 17v41q6 27 21.5 42t45.5 31l19 6h-4q20 11 75 11q25 -10 50 -13.5t37.5 -2.5t27.5 -1l39 -10q30 -12 86 -12q36 0 104 30.5
t127 30.5q66 0 66 -78q0 -39 -40 -65t-163 -47q-30 -10 -57 -31t-39 -37l-12 -16l-80 -88l-31 -29q-24 -21 -47.5 -46.5t-46 -52.5t-31.5 -36l-24 -27q15 -25 94.5 -92t136.5 -92q10 0 89 2t83 2l6 2q19 0 51 -20l4 -2q37 0 37 -39q0 -18 -82.5 -66t-111.5 -57h2
q-15 -2 -41.5 -10.5t-32.5 -10.5l2 2q-27 -8 -67 -8q-66 0 -112.5 16.5t-55.5 40.5l-2 3q-23 13 -50 43h2l-114 108l-33 -24v2q-41 -46 -112 -101t-83 -55h-2q-24 -24 -94 -46t-112 -22q-15 0 -31 4zM592 219l16 6q14 5 15 6l57 29l27 19q10 6 32 19.5t33.5 21t11.5 10.5
q0 6 -34 28l-37 35q-27 34 -62.5 64.5t-61.5 47t-46 33.5t-23 31l-8 11q-11 11 -16 12l-27 20q0 -3 -21 -21t-51 -45t-47 -48l-16 -21q-10 -17 -10 -51q0 -26 6 -52.5t22 -56t40 -52t64.5 -37.5t90.5 -15q30 0 45 6zM582 897l22 -25q21 21 41 31v-2q23 12 32.5 18t25 23
t22.5 41q0 10 4 16v-2q19 38 19 74l-7 62q0 9 -27.5 19.5t-54.5 10.5q-33 0 -71 -16l-35 -17q-19 -9 -44 -33.5t-28 -35.5h4q0 -34 16.5 -61.5t16.5 -32.5q0 -9 30 -39.5t34 -30.5zM1047 393q-14 -14 -21 -14q21 0 21 14z" />
    <glyph glyph-name="parenleft" unicode="(" horiz-adv-x="671" 
d="M598 -276l-8 2q-19 8 -57.5 55t-47.5 65l7 -16l-82 88h2q-131 131 -146 158l-22 30q0 21 -6 31t-12.5 11t-12.5 6t-6 16q-25 42 -37 98l2 -2q-1 5 -20.5 62t-31 122t-11.5 150t10.5 154.5t27.5 95.5v-4q30 92 74 160l8 6q-4 0 -4 2q0 23 35 61l133 180l-2 -2
q15 25 88 94.5t99 82.5q28 20 71 20q19 0 39.5 -21t20.5 -40q0 -6 -8.5 -19.5t-8.5 -26.5l-8 -20l-8 -6q-9 -11 -19 -19t-16 -10l-6 -2q-111 -148 -151 -206.5t-54 -98.5q-2 -29 -21.5 -66t-23.5 -63l-20 -82l2 2q-11 -38 -19.5 -79.5t-12 -62t-5.5 -20.5v2v-14
q-4 -4 -4 -12v-8q8 -12 8 -31q0 -1 -6 -25l2 2q-6 -24 -6 -47q0 -95 43 -211v4l16 -45q0 -6 33 -65q9 -39 32.5 -72.5t90.5 -107.5q6 -6 17 -19t19 -23t9 -10v2q15 -22 24 -22l37 -43v2q13 -15 29 -47.5t16 -52.5q0 -48 -67 -48q-17 0 -25 2h6q-1 0 -3 1.5t-3 1.5z" />
    <glyph glyph-name="parenright" unicode=")" horiz-adv-x="671" 
d="M80 -281q-54 0 -64 9.5t-10 46.5q0 17 7 34.5t14 28t19 24.5t15 19l31 43q6 6 18.5 35t34.5 29q-2 0 -2 2q0 7 16 44.5t41 104.5t42 133l12 50q11 43 14 43l4 14q0 1 3.5 13t3.5 16l10 47q18 60 18 135q0 201 -33 289v-2l-12 28q-3 4 -25 62.5t-24 60.5l-35 53l-4 15
l2 -13q-4 4 -6 4l-12 27q-9 18 -104 135.5t-95 141.5q0 25 23 45l28 10h-4q12 8 27 8q35 0 61.5 -18.5t67.5 -63.5h-2l41 -45q226 -232 235 -278l13 -15q8 -6 30 -51l47 -98q5 -8 10.5 -30.5t10.5 -31.5l8 -69q6 -30 6 -117q0 -79 -4.5 -125t-10.5 -57.5t-12 -26.5t-8 -35
q-1 -17 -20 -66.5t-19 -62.5l-12 -24l2 2l-10 -35l-31 -66v2q-22 -47 -42 -84.5t-37.5 -65.5t-18.5 -30v2q-15 -24 -49.5 -65.5t-61 -72t-26.5 -34.5l-23 -24q-20 -22 -38.5 -33.5t-29 -13.5t-30.5 -3zM2 1442q0 4 4 4z" />
    <glyph glyph-name="asterisk" unicode="*" horiz-adv-x="800" 
d="M289 829q0 54 12 76l-8 -8q-19 -19 -30 -24t-36 -5q-62 0 -107.5 32t-45.5 106q0 66 125 90l24 2q7 0 23 16q-12 3 -36.5 8.5t-38.5 9.5t-33.5 12.5t-30 19t-18 28t-7.5 41.5q0 45 37 80l22 12h82q44 0 80 -29q-20 50 -20 80q0 53 39 79t77 26q42 0 78.5 -39t36.5 -111
q0 -7 -6 -67q86 77 156 77q49 0 84 -45l28 -36l-4 -35q-8 -16 -8 -17l2 -4q0 -19 -16.5 -32.5t-69.5 -41.5l-64 -20q-8 -4 -24 -8q23 -6 41.5 -11.5t40.5 -16.5t36.5 -24t24.5 -33t10 -44q0 -43 -23.5 -70t-46 -34t-40.5 -7q-74 0 -133 76q8 -36 8 -74q0 -28 -4.5 -52
t-15 -47t-31.5 -36.5t-51 -13.5q-19 0 -27 4h-8l-13 8q-18 7 -30 14.5t-25 30.5t-16 57z" />
    <glyph glyph-name="comma" unicode="," horiz-adv-x="581" 
d="M203 -319h-17q-31 11 -40 22.5t-9 30.5q0 27 10.5 47t53.5 59q92 82 100 156h-2q-4 0 -20 -2t-25 -2q-35 0 -75 25.5t-40 62.5q0 59 19.5 101t51 61.5t55.5 27t48 9.5q4 2 21 2q45 0 88 -47t57 -82v2q8 -14 8 -68q0 -117 -59 -184q-6 -12 -24.5 -40.5t-48.5 -70
t-67.5 -72.5t-68.5 -34z" />
    <glyph glyph-name="hyphen" unicode="-" horiz-adv-x="755" 
d="M252 393q-53 0 -99.5 16t-46.5 48l3 -8l-3 10q-12 15 -12 26q0 18 6.5 30.5t26.5 26t65.5 20.5t114.5 7h121q47 0 74.5 -0.5t65 -1.5t58.5 -3t47 -6t40 -10t27 -14.5t18.5 -20t5.5 -26.5q0 -24 -24 -39t-65 -21.5t-81.5 -9t-86.5 -4.5t-67 -5l-45 -2q-9 -1 -63.5 -7
t-79.5 -6z" />
    <glyph glyph-name="period" unicode="." horiz-adv-x="581" 
d="M197 41h2q-62 35 -62 111q0 53 53.5 111.5t114.5 58.5q58 0 99.5 -44t41.5 -96q0 -57 -55 -100t-121 -43h-10q-7 -10 -24 -10q-18 0 -39 12z" />
    <glyph glyph-name="slash" unicode="/" horiz-adv-x="604" 
d="M115 16l-9 7q-12 11 -26 35.5t-14 31.5l8 27q11 25 25 64.5t14 45.5v19h2l2 14q2 2 14 44.5t27 95t22 71.5l19 51v-2q27 75 37 117l14 41q6 7 12 23t14.5 43.5t12.5 39.5l76 217q16 40 16 54l10 28q33 98 58.5 162t36 79t17 28t7 20t0.5 43q9 14 13.5 35.5t6.5 37.5
t11 29t26 15q2 1 8.5 6t10.5 7t13.5 4.5t21.5 2.5q57 -14 57 -90q0 -33 -14.5 -72.5t-14.5 -41.5l-20 -48q-2 -6 -22.5 -51t-34 -79t-21.5 -64l-23 -53q-18 -42 -27 -89t-26 -73q-3 -3 -14 -45v2q-4 -12 -4 -21l-13 -51v4q-5 -10 -8.5 -20.5t-4.5 -14.5t-3 -4l2 -4l-4 -18
q-2 -2 -5.5 -15t-11 -41.5t-14.5 -52.5l2 2q-5 -20 -18 -59.5t-17 -52.5l-10 -23q-29 -69 -39 -131l-10 -31q-35 -84 -35 -112l-4 -21l-39 -78q-30 -58 -46.5 -75t-43.5 -17q-14 0 -20 2v2z" />
    <glyph glyph-name="zero" unicode="0" horiz-adv-x="1241" 
d="M594 0q-13 0 -25 4h-2q-43 10 -83 17t-52 8.5t-35.5 12t-43.5 25t-66 50.5v-2q-44 32 -71.5 57.5t-56.5 65t-43 90.5t-14 116q0 72 27.5 161t89.5 181.5t146 143.5l10 6l-4 -4q51 39 133 70.5t121 31.5q50 0 90 -8h20q40 -4 104.5 -33.5t112 -56.5t49.5 -27
q19 0 48 -45.5t45 -81.5q22 -92 22 -131q0 -52 -7 -102t-17.5 -90t-25.5 -78.5t-29.5 -66t-30.5 -53.5t-27 -41t-21.5 -28t-11.5 -14q-37 -55 -158 -129l-24 -14v2q-18 -9 -54.5 -16t-64.5 -11.5t-31 -7.5h2q-6 -2 -22 -2zM539 160h-4l63 -8l37 8q37 0 60 5t48 20.5t45.5 48
t43.5 84.5t51 133q24 71 24 137q0 51 -41 145l-12 25q-40 36 -101.5 57t-105.5 21q-60 0 -115 -28t-93 -69.5t-66.5 -89t-42 -87t-13.5 -62.5q0 -2 2.5 -18t2.5 -23l6 -37q5 -20 8 -49.5t6.5 -49.5t15 -45t39.5 -49.5t74 -50.5q12 -7 68 -18zM573 4h-4l9 -2q-1 0 -2.5 1
t-2.5 1z" />
    <glyph glyph-name="one" unicode="1" horiz-adv-x="876" 
d="M164 20l-19 5q-20 16 -20 30q0 28 13 43t31.5 24t36.5 23t31 51t13 97v43q0 25 2 29v149q-4 12 -4 90q-6 103 -15 103q-36 0 -61 12l-16 6h2q-18 7 -26 11t-17 11t-12 16t-3 23q0 23 58.5 55.5t89.5 32.5q2 0 2 -2q10 6 80.5 34t79.5 28q24 0 49.5 -28.5t25.5 -55.5
q0 -6 -16.5 -62.5t-19.5 -105.5q-5 -92 -5 -162v-43q0 -9 1 -27.5t1 -27.5v-35q0 -143 -6 -143q73 -67 109 -86v2q16 -7 35 -35l14 -16q0 -54 -53 -54h-23q-6 0 -20 1t-23 1q-74 0 -153 -18l-78 -6q-6 -1 -16 -2.5t-18 -2.5t-15.5 -2t-12 -2.5t-4.5 -3.5h4h-22z" />
    <glyph glyph-name="two" unicode="2" horiz-adv-x="987" 
d="M98 25h2q-18 6 -30.5 22t-12.5 29q0 34 33 67l2 4v-4q2 7 5.5 14t11 16.5t11.5 14.5t15 17t12 14l91 103q49 64 170 190q82 86 86 102q0 16 10 41q-2 -2 -2 -4v8q0 1 1 4t1 5v10q0 33 -30.5 61.5t-62 42t-46.5 13.5q-11 0 -47.5 -7.5t-87.5 -33t-66 -62.5l2 2
q-3 -20 -11.5 -27.5t-29.5 -7.5q-23 0 -41 18.5t-18 45.5q0 47 23.5 89.5t57 70t75.5 51t71 34.5t53 17q11 3 34.5 4.5t39.5 5.5q74 0 110 -26h-6q28 -9 83.5 -59.5t68.5 -80.5q24 -53 24 -127q0 -65 -15 -93.5t-75 -88.5l-73 -82q-4 -17 -37 -41v4q-6 -14 -39 -47l-41 -43
q-36 -38 -61 -63t-33.5 -32.5t-8.5 -6.5q0 -10 -2 -12q32 0 103 4.5t84 9.5l49 16q74 23 119 66q57 57 98 57q20 0 28.5 -13t8.5 -30l-60 -172v-31q0 -25 -10 -37t-50 -19t-122 -7h-69q-14 0 -38.5 1t-35.5 1h-58q-27 0 -97 -13.5t-113 -13.5q-39 0 -54 9z" />
    <glyph glyph-name="three" unicode="3" horiz-adv-x="925" 
d="M158 -375q-41 0 -89.5 37.5t-48.5 79.5q0 39 34.5 65.5t76.5 26.5q27 0 68.5 -20t38.5 -33h6q27 2 64 16t61 41l26 31q26 29 40 50.5t18 31t9.5 29t10.5 32.5v-2q23 62 23 88q0 73 -38.5 128t-88.5 55q-8 0 -63.5 -21.5t-86.5 -21.5q-55 0 -55 43q0 26 19.5 48.5
t62.5 55.5q57 43 166.5 158.5t109.5 134.5q0 17 -14 59l-4 13l4 -15l-16 31l-9 8q-33 23 -45.5 28t-44.5 5q-31 0 -77 -19.5t-91 -58.5l-35 -31q-19 -15 -28 -18l-27 -16l-29 32q-28 18 -28 45q0 1 1 4t1 5v-5q0 15 8 25l25 33l22 22q4 4 4 11l15 12v6l88 82q64 47 147 47
q95 0 115 -8q165 -50 188 -94q3 -14 13 -21q40 -43 40 -112q0 -82 -46 -154.5t-117 -112.5l-45 -39l32 -14q30 -18 73.5 -63t43.5 -56v4q13 0 27 -50.5t14 -76.5q0 -22 -3.5 -38t-11.5 -36t-10 -26l-4 -18q-8 -25 -8 -43l-10 -31l-23 -37l2 2q-2 -4 -2 -6l2 -2
q-14 -17 -114 -150q-35 -46 -62.5 -74t-49.5 -41t-38.5 -18t-41 -11t-44.5 -15l-63 -9q-24 -8 -88 -8z" />
    <glyph glyph-name="four" unicode="4" horiz-adv-x="1161" 
d="M698 -383l-8 2q-17 9 -54.5 13t-54 21.5t-16.5 67.5q0 17 4 51t4 52q0 48 -3 98t-7 79.5t-6 33.5q-12 -6 -37 -6q-4 0 -26 2t-57 4t-70 2q-29 0 -66 -4t-55 -4q-71 0 -129 16.5t-72 38.5l16 57q44 49 64 88l16 21v-2q2 12 29 39v2q80 83 199 276l90 123q6 8 15 21.5
t24 36.5t28 42l25 37q5 8 16 23.5t18 26t11 20.5v-2q17 29 26 41.5t25.5 28.5t38.5 22t53 6q34 0 47 -17t13 -73q0 -29 -9.5 -95t-9.5 -151l-10 -350q0 -6 1 -17.5t1 -17.5v-65q0 -11 -6 -17q2 0 9 2t13 3l76 4q44 3 82 8h21q22 0 37.5 -13.5t15.5 -44.5q0 -20 -2 -31.5
t-14.5 -27t-36.5 -24t-71 -14.5t-114 -7q-2 -6 -2 -33q0 -61 5.5 -125.5t5.5 -103.5q0 -24 -3.5 -52t-3.5 -38q2 -4 2 -23q0 -53 -55 -53q-4 0 -10.5 1t-9.5 1h-13zM514 203l29 6h-6q12 3 16 14q-2 6 -2 27v20q0 41 4 117.5t8 137.5t4 65l-28 -45v2q-53 -98 -90 -135
l-48 -64q-7 -10 -32 -43.5t-43.5 -59.5t-18.5 -30v-2l2 2q60 -3 101.5 -5.5t55.5 -3.5t24.5 -2t21.5 -1h2z" />
    <glyph glyph-name="five" unicode="5" horiz-adv-x="942" 
d="M82 -403q-17 9 -25 25t-8 28q0 51 103 67q9 0 19.5 2.5t21 7.5t17.5 8t17.5 9.5t12.5 7.5l45 29q61 28 102 86l8 10l-6 -6l10 14q6 6 9 13.5t9.5 31.5t12.5 43l16 50q3 5 9 35.5t6 47.5q0 80 -39.5 138t-116.5 84q-4 0 -57 17t-113 17l-31 11l-24 26l61 166q1 6 9 21l4 8
q0 41 20 61l23 56q9 23 15 50t19 51t48 71q5 7 12 23.5t17 22.5t36 11l45 4q11 0 27 -3l16 -3l4 2q2 0 10.5 1t10.5 1h51q8 0 24 -1t21 -1h16q43 0 99 35l14 8q17 43 51 43q33 0 48.5 -30.5t15.5 -61.5q0 -35 -10 -73.5t-17 -45.5l6 4l-10 -18v4l-33 -45l2 10
q-8 -14 -48 -32.5t-89 -18.5q-24 0 -42.5 2.5t-28.5 5t-13 2.5h2q-1 0 -3 1t-3 1h-2l-8 -1q-8 -1 -18.5 -2t-16.5 -1q-48 0 -80 12l2 -2l-16 4q-20 -33 -21 -36l-35 -91v2q-5 -16 -11 -32t-9.5 -24t-3.5 -11q0 -9 79.5 -24t92.5 -15q75 -9 148 -99t73 -186q0 -45 -11 -94.5
t-11 -52.5q-2 -21 -13.5 -62.5t-23.5 -58.5l-7 -14q-16 -48 -66 -104t-95 -85l12 4l-25 -16q-30 -30 -75 -46t-88 -48h-5q-22 -19 -77 -40.5t-80 -21.5q-19 0 -37 11zM760 793l6 8q-3 -8 -6 -8z" />
    <glyph glyph-name="six" unicode="6" 
d="M438 27h-2q-60 3 -84 20l-43 21l-24 16q-1 2 -54 55q-36 37 -56.5 62t-24 34.5t-5.5 19t-4 13.5h2q-19 37 -28 76t-10 61.5t-1 77.5q0 78 27 252q0 19 6 27l4 26l21 43q46 104 76 149q63 97 172 183l51 41l90 62q38 30 127 73v-2l88 49l18 3q7 4 17 8h-2q37 14 43 14
q37 0 37 -63q0 -50 -91 -93l-26 -12q-35 -16 -67 -41t-103 -94q-40 -40 -60 -70l-10 -14q-119 -189 -133 -252l-12 -24v4l-29 -95q-13 -29 -16.5 -67.5t-3.5 -145.5q0 -16 2 -18q0 -25 34.5 -95.5t51.5 -76.5q37 -25 84 -25q28 0 71 17l37 12h-2q21 9 41 30t29 42l18 28
q27 27 27 131q0 39 -6.5 67t-11 36.5t-15.5 23.5l-24 31l4 -2q-58 76 -103 76q-14 0 -33 -4t-30 -4q-44 0 -74 30l-14 17v37q0 100 176 100h22q24 0 55.5 -4.5t86 -26t96.5 -56.5t74 -105t32 -164q0 -52 -30 -176v-3q0 -1 -4.5 -14.5t-12.5 -32t-14 -28.5l-49 -76
q-2 -2 -9.5 -13.5t-10 -15t-9.5 -12.5t-10.5 -12.5l-9 -9t-10 -8.5t-9.5 -5l-53 -39q-9 0 -58.5 -21.5t-64.5 -23.5q-80 -26 -147 -26h-9q-1 0 -4 1t-4 1z" />
    <glyph glyph-name="seven" unicode="7" horiz-adv-x="987" 
d="M236 -365q-23 23 -23 76q0 40 16 72q26 51 43.5 93t34.5 75q21 44 23 53l20 47q32 63 52.5 110t29.5 72t12 31l13 25v-4l45 114q19 47 24 56l21 41q6 10 18.5 37t14.5 32l38 78q24 49 50 88v2q-16 -1 -128 -16t-149 -15q-29 0 -59 3.5t-45 3.5l-19 2l-14 -13
q-67 -80 -131 -80q-49 0 -49 56q0 15 3 31t9.5 33.5t10.5 27.5t12.5 28.5t9.5 20.5l4 10q0 11 6.5 29.5t9.5 40.5v4q0 25 4 39t15.5 20.5t21.5 7.5t33 1h10q54 0 137 -8.5t103 -8.5q4 0 11.5 1t10.5 1h76q205 20 238 33h-2q12 6 67 6q22 0 31.5 -18.5t9.5 -38.5
q0 -12 -2 -12l-2 -15q-3 -13 -20 -39h2l-13 -26v6q-5 -16 -29.5 -53.5t-29.5 -42.5q-13 -7 -22.5 -27t-14.5 -37l-4 -16l-14 -29q-3 -8 -7 -20.5t-6 -16.5v2q-19 -61 -63 -147l-33 -64q-42 -87 -49 -129q-12 -13 -31 -54t-32 -75t-13 -37l-16 -57q-10 -20 -29 -70l-59 -161
q-29 -67 -29 -121q0 -27 -6.5 -35.5t-32.5 -11.5l-22 -11q-30 -10 -62 -10q-20 0 -30 10z" />
    <glyph glyph-name="eight" unicode="8" horiz-adv-x="1081" 
d="M446 -59h-8q-62 0 -121 45v-2l-43 30h5q-37 19 -60.5 46.5t-32.5 48.5l-6 14v-2l-6 14l2 -2q-74 126 -74 234q0 99 68 194t170 141l-80 70q-84 86 -92 125l2 -2l-6 14q-35 69 -35 154q0 108 22.5 158.5t116.5 132.5q98 86 256 86q58 0 121 -17.5t90 -42.5l27 -26
q21 -21 48.5 -54t31.5 -43v7l20 -39h-2q13 -22 18.5 -34t12 -38t10.5 -63q0 -130 -106 -236l-13 -12q-26 -26 -53 -45t-41 -26l-14 -7q0 -11 26.5 -41t65 -67.5t41.5 -41.5q92 -103 92 -264q-1 -49 -19.5 -102.5t-37.5 -79.5l-23 -31q-9 -8 -25 -25.5t-32 -31.5l-51 -45
q-4 0 -33 -17t-67.5 -39t-59.5 -30h2q-23 -10 -94 -10q-2 0 -6.5 1t-6.5 1zM594 186l-2 -2q36 24 59 47.5t39 57.5l10 20q0 41 -9 71t-20.5 42.5t-20.5 22.5t-9 16q0 4 2 6q0 10 -43 46t-63 40h-2q-18 -6 -31 -6q-10 0 -26.5 2t-20.5 2q-19 0 -58 -30t-53 -62
q-20 -44 -20 -127q0 -44 21.5 -79.5t54 -55t65 -29.5t59.5 -10q18 0 68 28zM612 893l29 31q26 19 31 30v-2q0 4 8 18.5t16.5 40t8.5 58.5q0 44 -27.5 98t-72 93.5t-87.5 39.5q-35 0 -64 -12.5t-41 -23t-12 -13.5v-2q0 -3 -14.5 -28t-28.5 -60t-14 -61q0 -42 19.5 -69.5
t70.5 -72.5h-2q14 -11 41 -37.5t48 -43.5t36 -17q14 0 55 35v-2zM545 555q-2 0 -4.5 -1t-3.5 -1q4 0 8 2z" />
    <glyph glyph-name="nine" unicode="9" 
d="M262 -362q-20 20 -20 40q0 34 41 52h-2l51 24v-2l43 27q58 34 80 55q144 137 205 264t98 324q6 24 6 49q0 103 -33 182l-14 49l-33 74q-14 39 -49.5 58.5t-71.5 19.5h-28q-1 0 -20.5 -9.5t-40.5 -19t-23 -10.5q-15 0 -45.5 -35t-49.5 -67l2 2l-8 -13v5l-8 -19
q-20 -32 -20 -76q0 -36 21.5 -100t54 -117t59.5 -53q49 0 110 14q25 0 44 -4t30.5 -7.5t19.5 -13.5t12 -14t5.5 -17.5t1.5 -15v-14.5q0 -14 -10 -14q-4 0 -6 2q-98 -98 -256 -98q-32 0 -50 7t-37 22t-32 22l-19 12q-24 32 -59 73t-49.5 60t-31.5 50t-22.5 64t-5.5 79
q0 159 48 207q6 12 52.5 69t71.5 74q63 45 199 92h-2q45 25 84 25q24 0 49.5 -8.5t40 -17t14.5 -11.5q29 0 70.5 -27.5t75.5 -54.5t45 -27l41 -55q79 -66 100 -215l6 -41q0 -1 1 -5t1 -5v6q2 -8 2 -23v-65q0 -110 -22 -174l-18 -53l2 2q-5 -25 -16.5 -50t-26.5 -51.5
t-19 -34.5l-12 -22q-8 -13 -8 -16l-11 -19q-43 -42 -46.5 -59t-24.5 -39l-31 -33q-84 -82 -119.5 -110t-122.5 -82q-40 -25 -94 -51t-88 -40t-37 -14h-10q-18 0 -35 17z" />
    <glyph glyph-name="colon" unicode=":" horiz-adv-x="581" 
d="M193 43h2q-39 27 -48.5 41t-9.5 53q0 81 55 126.5t123 45.5q19 0 39 -5.5t43 -18t37.5 -40.5t14.5 -67q0 -17 -9 -39.5t-27.5 -48.5t-55.5 -43.5t-85 -17.5h-14q-1 0 -6.5 -1t-7.5 -1q-27 0 -51 16zM283 567q-35 0 -74.5 40t-42.5 106l-2 41l18 24q26 40 70 65t63 25
q42 0 90 -51.5t48 -120.5q0 -41 -20.5 -69t-52 -40t-54.5 -16t-43 -4z" />
    <glyph glyph-name="semicolon" unicode=";" horiz-adv-x="581" 
d="M156 -319q-19 16 -19 34q0 19 10.5 32t32.5 28l-2 -2q95 75 127 184h-4q-40 0 -70 13.5t-45 34.5t-21.5 40.5t-6.5 36.5l2 2q-6 12 -6 20q0 13 2 19q0 2 -1 12.5t-1 11.5l10 21v-2l4 20l14 15q19 24 32 38t43 30t67 20l41 4l24 -12q21 -9 37 -22.5t25 -27t15 -28.5
t8 -25.5t4 -20.5l1 -10q19 -33 19 -118q0 -77 -49 -138l-11 -12l4 2l-47 -67v2q-22 -32 -32 -46t-30.5 -38t-37 -34.5t-41 -19t-51.5 -8.5q-33 0 -47 11zM262 557l-18 6v2q-27 12 -47 45l-2 11q-11 11 -11 24l-2 41q-1 33 19 69.5t49 57.5l29 21q4 1 22 11.5t45 10.5
q39 0 92 -53l11 -8q-2 -2 5.5 -20t16 -41.5t8.5 -35.5q0 -36 -22 -74.5t-51 -56.5l-29 -18q-23 -17 -60 -17q-31 0 -59 23z" />
    <glyph glyph-name="less" unicode="&#x3c;" horiz-adv-x="1085" 
d="M977 45q-22 0 -37 6h2q-37 8 -116 50.5t-107 48.5q-13 7 -68.5 30.5t-105.5 43t-51 18.5q-20 0 -244 112l-88 43l-29 23q-27 20 -35 27t-17 26.5t-9 48.5q0 72 65 72q1 0 3 -1t3 -1h9q23 0 56 20t71 31h-3l146 59q30 12 129 71t164 81l24 16l29 11l-6 -2l14 8
q21 20 64.5 36t44.5 17q17 18 34.5 18.5t32.5 10.5l37 8l43 -25q17 -17 17 -32v-17q0 -35 -26 -68.5t-62.5 -56.5t-76 -41.5t-67 -27t-35.5 -9.5q-24 -9 -41.5 -18t-23.5 -13.5t-14.5 -7t-22.5 -2.5l-107 -45h2l-20 -10q-5 -2 -11 -4.5t-10 -4t-6 -3.5l-30 -10
q-2 0 -6.5 -2.5t-23.5 -12.5t-42 -22q-18 -10 -40.5 -14.5t-37.5 -20.5l19 -10q4 -1 20 -13h-2l82 -43h-2l149 -67q1 0 76 -39l68 -35q12 -6 37.5 -16.5t44.5 -20.5v2l63 -30h-2l88 -41q16 -16 34 -20.5t25 -11.5t7 -34v-12q0 -7 -5 -22t-24 -33.5t-49 -18.5zM338 502l-2 -2
q2 0 2 2z" />
    <glyph glyph-name="equal" unicode="=" horiz-adv-x="894" 
d="M180 305q-42 0 -67 43t-25 74q0 21 39 49h8q28 12 139 12h25q93 2 137 8.5t119 6.5h211q39 0 65.5 -2t42.5 -2h39l15 -21q12 -27 12 -41q0 -43 -52 -57t-158 -15.5t-155 -9.5h3q-61 -13 -90.5 -17.5t-47 -5t-34.5 -3.5l-201 -11q-12 -8 -25 -8zM135 616q-28 0 -45.5 11
t-17.5 30q0 33 8 49t8 42q0 25 20 30t97 4h53h490q8 0 30 1t37 1h109l2 -26q4 -12 4 -19v-18q0 -18 -6 -30t-25.5 -24t-62.5 -18t-111 -6q-13 0 -87.5 -7t-199.5 -7q-23 0 -45.5 2t-68.5 2q-108 0 -168 -15l2 3q-15 -5 -23 -5z" />
    <glyph glyph-name="greater" unicode="&#x3e;" horiz-adv-x="1085" 
d="M182 61l-24 13v39q0 76 75 102q55 20 97.5 41t60.5 31t27 10l51 25h-2q125 61 141 61v-2q23 23 45 25l35 16q13 0 41.5 13t52.5 38l19 14q11 11 14 11q4 0 4 -2q-2 21 -85 53l-15 6h2q-15 5 -45.5 18t-46.5 19h2q-46 16 -81.5 31.5t-49 22.5t-17.5 7q-82 27 -112 40.5
t-84 43.5v-2l-47 23q-48 11 -84.5 38.5t-36.5 53.5q0 44 25 67t57 23q39 0 71 -12l86 -25h-4l54 -18q83 -31 145 -58l49 -18q2 -1 15.5 -7.5t23.5 -10t18 -3.5l19 -8l-12 2l22 -8h-2l31 -10l149 -74l-2 2q91 -49 109 -49l31 -14q38 -2 79 -35t41 -88q0 -35 -17 -67t-41 -52
t-44 -32.5t-33 -16.5l-22 -6l2 2q-2 -1 -6 -2.5t-7 -2.5t-4 -1l-78 -21q-88 -31 -124 -49l-45 -18q-95 -39 -187 -90l-76 -33q-36 -27 -87.5 -44t-80 -20.5t-45.5 -3.5q-29 0 -47 12z" />
    <glyph glyph-name="question" unicode="?" horiz-adv-x="774" 
d="M256 350q-72 0 -72 70q11 20 11 176q0 66 5.5 91t26.5 52v2q43 65 109 78l22 8l-2 -2q38 12 95 89.5t57 140.5q0 36 -46 81.5t-106 45.5q-30 0 -64.5 -10.5t-60.5 -10.5q-48 0 -91 25t-46 82l-2 43l17 26v-2q10 17 49 56q4 4 18 12.5t43.5 18.5t59.5 10t58 -9.5t49 -22.5
t66 -41t85 -50q99 -55 108 -74l31 -49h-2q20 -32 20 -62v-12q0 -2 1 -12.5t1 -18.5q0 -68 -4.5 -113.5t-17 -89t-36.5 -74.5t-61.5 -59t-93.5 -53q-65 -29 -85.5 -51.5t-20.5 -71.5q-16 -53 -17 -100.5t-12 -62.5q-19 -27 -46.5 -41.5t-45.5 -14.5zM254 -27q-11 0 -27 13
q-3 -1 -2 -2q-3 0 -15 3.5t-31.5 13t-36.5 23.5t-29.5 39t-12.5 56q0 32 8.5 61t27.5 56.5t55 44t85 16.5q47 0 88.5 -38t41.5 -95q0 -64 -19 -90.5t-100 -87.5q-19 -13 -33 -13z" />
    <glyph glyph-name="at" unicode="@" horiz-adv-x="1634" 
d="M698 -41h-39q-39 0 -86 14.5t-51 14.5q-64 0 -147 80v-2l-72 67q-18 17 -33 28.5t-20 15t-9 9.5t-8 17q0 -2 -2 -2q-8 0 -43 46.5t-36 63.5q-24 30 -44 97.5t-20 132.5q0 30 4 84v-2q1 6 2 21t2 25.5t2 10.5q0 10 -3 20.5t-3 14.5q0 65 19.5 116.5t19.5 65.5q0 5 39 80
t49 86q14 14 37 48.5t65 81t113 103.5q51 41 86 58t66.5 23t46.5 12q144 57 229 57q43 0 133 -10l105 -27q15 -4 29.5 -17.5t26 -29.5t32.5 -38.5t45 -39.5l33 -20q8 -13 61.5 -62t67.5 -69q10 -26 28 -48l13 -30q12 -20 23 -65.5t11 -92.5q0 -27 -17 -105t-17 -104l-6 -29
q-1 -31 -24.5 -83.5t-23.5 -55.5q0 -16 -8 -24l-18 -29q-16 -24 -44 -54t-74 -68t-110.5 -63.5t-130.5 -25.5q-12 0 -22 8q0 -2 -10 -2q-4 0 -11 1l-8 1l-18 8q-10 1 -20.5 6t-18.5 9.5t-18 14t-15.5 15.5t-15.5 18t-13 16.5t-12 17.5t-10 14v-2l-2 2l-6 -6
q-33 -31 -57.5 -50.5t-74 -40t-102.5 -20.5q-58 0 -88 21l27 -23q85 -89 116.5 -106t118.5 -17l86 -10q60 -8 64 -8h2h33q45 0 47 2l26 4q7 0 55.5 24t53.5 29q10 12 53.5 28.5t73.5 16.5q51 0 51 -47q0 -27 -7 -47t-14.5 -31.5t-27.5 -21t-30.5 -12.5t-39.5 -11l-51 -14
q-63 -7 -171 -47.5t-187 -40.5q-16 0 -56 4zM403 336q22 -18 50 -33q-50 44 -50 150q0 40 18.5 91.5t33.5 67.5q13 15 67 103v-2q25 47 33 59l14 23l-2 -4q10 17 29 36v-2l33 41q28 28 52.5 46t36 25.5t15.5 14.5q106 74 133 90.5t45 16.5h11q3 0 9.5 -2.5t16 -6.5t19.5 -6
l45 -16q2 2 7.5 9.5t9.5 11.5t10 9.5t13 8t15 2.5q14 0 28.5 -2t24.5 -4.5t20 -6.5t15.5 -7t12.5 -6.5t8 -4.5q0 -30 -7 -37l-2 5l2 -7q0 -18 -14 -46.5t-36 -67t-32 -64.5q-74 -150 -100 -214t-26 -113q0 -35 16 -58.5t51 -23.5q51 0 88 14.5t47 28.5l13 12q23 23 32 32.5
t32.5 43.5t34.5 65.5t21.5 87.5t10.5 121q0 199 -242 348q-87 66 -176 66q-78 0 -157 -19t-116 -47l-30 -16l4 2l-150 -94l-22 -19h2q-75 -86 -103 -215l-12 -57q-10 -41 -10 -141q0 -57 5.5 -99t11 -59.5t14 -36t10.5 -24.5q2 -8 6 -15t7 -11.5t11 -11t11 -9.5t15 -11.5
t17 -11.5zM608 442h2q2 0 23 7q151 175 186 210q21 28 37 68l18 29q6 38 60 112l20 29q-75 -24 -86 -35l-26 -20q-41 -32 -117 -123l-8 -10l6 6l-49 -76q-33 -49 -33 -70q0 -1 1 -1t1 -1q0 -6 -12 -30v2l-8 -21q-4 -10 -9.5 -37t-5.5 -39z" />
    <glyph glyph-name="A" unicode="A" horiz-adv-x="1568" 
d="M1311 2q0 -2 -17 -2l-45 6q-52 14 -225 14q-18 0 -54 -4t-69 -4q-64 0 -75 7t-11 44q0 25 33.5 61t89.5 56q3 3 10.5 6t13 4.5t5.5 2.5q0 15 -28 78.5t-34 84.5q-24 77 -47 123t-35 57t-20 11q-1 0 -69 3t-107 3q-46 0 -80.5 -9.5t-52.5 -19t-32.5 -30.5t-17.5 -29
t-10 -29l-47 -131q-4 -12 -9.5 -26t-8.5 -21t-5.5 -15t-3.5 -13t0 -9q-1 -9 6.5 -15.5t15 -9.5t26.5 -8l41 -12q43 -14 65 -26.5t26 -19.5t5 -19q0 -24 -10.5 -38t-34.5 -32l-25 -12h-231l-62 -4l-12 10h-10q-156 0 -156 53q0 16 2.5 26.5t11.5 25.5t32 28t59 25h-3
q50 20 81 55t41 67.5t25 71t34 59.5q33 43 53.5 92t30 81.5t16.5 39.5l55 175q19 31 32 73t38 76q10 15 16 34t21 71t41 120v-2q2 4 16.5 45.5t23.5 65t23 55t25 45.5l-2 -8l14 35l49 -2q37 -4 67 -26t43.5 -42.5t22.5 -42.5v2l9 -18q0 -2 -1 -10.5t-1 -10.5q0 -24 15 -63
t15 -43l9 -33q2 -10 18 -57.5t22 -77.5q11 -67 58.5 -155t48.5 -103q0 -10 4 -14v2q41 -114 41 -125q0 -21 39.5 -138t60.5 -141q10 -44 27 -97.5t20 -53.5q9 0 14 -1.5t9.5 -5t7.5 -4.5h-4q3 -2 21 -8l41 -20q12 -7 26 -23l19 -22l-5 4l9 -11l24 -16q16 -4 27 -4
q0 -46 -34.5 -70t-55.5 -24h-10q-23 0 -35 12zM604 705l8 2q28 1 54.5 1.5t47 2t32.5 14.5t12 39q0 24 -7.5 64t-7.5 69q0 22 -28 102v-2q-16 41 -25 93l-39 -156q-7 -28 -24.5 -81t-30 -94t-12.5 -57q8 0 20 3z" />
    <glyph glyph-name="B" unicode="B" horiz-adv-x="1474" 
d="M127 27l-10 2q-16 5 -29.5 24t-13.5 39q0 7 22.5 24.5t46.5 24.5l41 13q41 15 65 30.5t28.5 22t7.5 16.5l2 27q0 45 -3 197t-3 198v33q-9 27 -9 80q0 30 5.5 90.5t5.5 107.5q0 80 -9 170.5t-16 98.5q-12 2 -19 9.5t-10.5 15.5t-21.5 14t-51 6q-37 7 -49.5 19t-12.5 38
q0 12 1.5 22t6.5 17t8.5 11.5t12 9t11.5 6t13.5 4.5t12.5 4q18 18 41 18q20 0 28 -4v2q124 -26 158 -26q27 -1 73.5 4t130 13t175.5 13l76 4l22 -8q50 -17 82 -33t42.5 -25t21 -20t16.5 -16q30 -25 49.5 -45.5t45.5 -58.5t39.5 -91t13.5 -118q0 -41 -18 -79t-38 -61l-8 -8
q-10 -16 -28 -30t-47.5 -32.5t-41.5 -27.5l-6 -2h2q53 -32 76 -53l41 -23q138 -76 141 -317q0 -11 -12 -48.5t-12 -56.5q-4 -21 -53.5 -90.5t-84.5 -87.5h2l-32 -14q-3 -1 -18.5 -8.5t-20.5 -9.5t-22 -8t-29.5 -8.5t-35.5 -6.5t-46.5 -5.5t-57.5 -3t-73 -1.5q-93 0 -135 8
t-44 8q-18 0 -76.5 -8t-228.5 -8h-26q-11 0 -23 -4h-8q-2 0 -5.5 1t-6.5 1q-1 0 -9 -1t-18.5 -2t-15.5 -1q-7 0 -23 4h-6zM662 190l77 3q20 0 63.5 18.5t65.5 21.5l25 15q44 19 59 24q3 0 11 16.5t16 51.5t8 74q0 12 -8 92l-14 26l2 -2q-23 36 -87.5 72.5t-138.5 36.5
q-8 0 -8 -2q-1 -4 -65 -4q-46 0 -75 5t-46 5q-7 0 -8.5 -4t-1.5 -25q0 -352 18 -417l8 -19q0 17 -2 19h6q4 2 13 2q3 0 22.5 -5.5t48.5 -5.5q5 0 11 2zM651 821l11 2q22 0 50 12.5t38 22.5q50 7 120 62l19 22q8 28 8 70q0 56 -9 100.5t-21.5 72t-33 47.5t-37 29.5t-41 14.5
t-36.5 5.5t-33 0.5h-6q-59 0 -97 -12t-46 -33v-53q14 -146 14 -266q0 -8 -1 -24t-1 -22v-24q0 -16 1 -19.5t7 -3.5l2 2q27 0 35 -4l39 -2q0 -4 -6 -4q16 0 24 4z" />
    <glyph glyph-name="C" unicode="C" horiz-adv-x="1564" 
d="M752 -14h-7q-49 13 -85 20.5t-46.5 9t-21.5 6t-29 15.5l-43 26q-13 8 -66.5 39.5t-79 48t-60 45.5t-50.5 56l-57 82l-29 51q-38 67 -57.5 128t-18.5 151l-4 36q-10 88 -10 152q0 81 39 164v2q0 17 21.5 37.5t56.5 51.5t57 64l-2 -2q14 28 39 48l53 49q71 64 117 84l14 8
q72 31 181.5 60.5t185.5 29.5q95 0 211 -29q13 0 51 -13t47 -13h-2q0 11 21.5 25t38.5 14q4 0 45 -23l14 -10l-2 2q25 -5 36.5 -51t16 -102t10.5 -68l25 -148h-31q-20 -12 -31 -12q-16 0 -40 24l-15 15q-15 15 -35.5 70t-38.5 73l-28 19q-13 13 -25 23.5t-21.5 18t-18.5 13
t-14.5 8.5t-12 5t-9.5 3t-8 2h-4q-28 0 -33 19h-6q-14 0 -58.5 4t-53.5 4q-37 0 -77.5 -6.5t-67 -13.5t-29.5 -7q-8 0 -30 -6t-30 -14l-49 -14h2q-25 -9 -66 -60t-51 -74v4q-26 -81 -49 -134.5t-33.5 -69t-18.5 -43t-11 -78.5q0 -6 -7 -41v-12q0 -42 12.5 -125.5t18.5 -91.5
l13 -29l-7 10l47 -129v4l11 -20q0 -22 42 -78t62 -74q22 -11 43 -28.5t36 -27t65.5 -17t138.5 -7.5q64 0 107 7t62.5 15t47.5 25l33 19q101 58 124 76.5t37 58.5l11 29v-2q13 27 44 48t50 21q25 0 43 -25t18 -46q0 -20 -22.5 -59t-22.5 -46v-10q0 -191 -209 -191h-8
q-36 0 -166 -34q-122 -37 -241 -39z" />
    <glyph glyph-name="D" unicode="D" horiz-adv-x="1763" 
d="M127 12q-29 0 -41 16.5t-12 51.5q0 24 43.5 50t109.5 44l31 8q9 0 16.5 3t13 7t7.5 5q-23 67 -23 247v45q0 40 2 54q0 10 -2 106t-2 146q0 30 11.5 84.5t11.5 115.5q0 81 -12.5 152.5t-12.5 83.5q0 13 6 16q-18 0 -55 8.5t-39 8.5q-30 0 -42.5 10t-12.5 45q0 25 18 42
t47 25.5t56 11.5t55 3h41q14 0 53 -3t60 -3q87 0 229 24q110 0 220.5 -15.5t178 -31.5t74.5 -16q2 0 5 1t5 1q11 0 23 -6l27 -9q62 -14 160 -101.5t136 -188.5l13 -39q6 6 8 6q5 0 8 -7.5t10.5 -35t18.5 -55.5q14 -47 14 -54l-6 -92q-3 -40 -9 -82.5t-11 -68t-5 -27.5
q0 -8 -18 -78t-25 -82l7 6l-23 -43q-1 -2 -7.5 -15.5t-8.5 -17.5t-8.5 -16.5t-10 -18t-11 -16.5t-13 -18t-13.5 -15.5t-16 -15.5l4 2q-3 -3 -46.5 -45.5t-64.5 -54.5l-53 -31q0 6 -6 6q-13 0 -80 -37t-88 -42l-90 -23q-40 -16 -166 -16q-109 0 -177 9t-79 9q-9 0 -27 -5
t-22 -5h-8q-1 0 -3 1t-3 1q-13 0 -57 -6t-66 -6q-46 4 -72 4q-38 0 -85 -8.5t-91 -8.5zM803 184l-2 -2q19 7 59 14t75 15t91.5 39t116.5 84l-2 -2q45 30 76 71q98 137 98 166q2 0 14 74t12 84l-2 -6q4 20 4 29q0 39 -14 105.5t-33 94.5l17 -10q-43 43 -43 72q0 16 -15 39
t-31 40.5t-16 18.5v-2q-24 48 -58 76.5t-56 32.5l-21 4q-19 4 -33 10q-1 0 -4 1t-4 1h-8q-8 0 -20 6l-80 18q-57 11 -66 11l-27 6q-13 0 -49 4l-47 6l-45 -12l2 2q-95 -27 -123 -31h-6v-29q0 -35 -4 -76t-4 -71v-35q0 -8 -10.5 -189t-21.5 -356t-11 -170l25 -120l61 -11
q28 0 58.5 -3t50.5 -3q56 0 96 4z" />
    <glyph glyph-name="E" unicode="E" horiz-adv-x="1435" 
d="M139 23l-2 2q-51 26 -51 63q0 46 84 55l27 9q26 15 69 22l15 4q11 4 14 8l12 13q0 67 -5 107t-5 102q0 23 2 122.5t2 135.5q0 29 -2 70.5t-2 94.5q0 9 1 25t1 21v34q0 6 -1 16t-1 15l-16 234q-2 9 -3 23.5t-2 25t-4 14.5q-24 3 -73 24.5t-87 43t-38 26.5q0 21 16 36
t42 22.5t52 10.5t54 3h49q65 0 174 -8t123 -8q81 0 178 -2.5t125 -2.5q67 0 92 15h-2q14 11 45 19l31 9q4 1 10 4t11.5 5t12.5 2q24 0 39.5 -14t24.5 -43t14.5 -59t14.5 -76t20 -81l-2 2l23 -77q-31 -31 -70 -31q-27 0 -54 20t-34 56q0 5 -14 16l-43 47q-31 29 -84.5 43.5
t-89 16.5t-94.5 2h-13q-44 0 -108 -11.5t-64 -31.5q-9 -53 -14 -154l-4 -90q-5 -35 -5 -43q0 -69 23 -144q0 19 84 19q110 0 178 22q18 2 30 5.5t26 12t21 27t7 46.5v47l45 12q31 0 50 -62.5t28 -205.5q3 -50 9.5 -92t6.5 -68q0 -37 -16 -53.5t-41 -16.5q-17 0 -51 53
t-51 107v-2l-17 41q-27 20 -135 20q-119 0 -158 -28l-16 -11q2 0 5.5 -59t6 -136.5t2.5 -123.5q0 -11 -1 -24.5t-1 -18.5q0 -2 3 -23t3 -30l-2 -8q0 -8 107 -21q4 0 76 -10l39 -6q14 -2 34 -2q85 0 211 45l11 4l-7 -2q14 5 60 42.5t92 72t63 34.5q27 0 35 -8.5t8 -26.5
q0 -44 -30 -127v2l-5.5 -11t-4.5 -13t-1 -16q-16 -16 -26.5 -56t-23 -76t-33.5 -47q-63 0 -188 9.5t-320 9.5q-10 0 -27 -1t-23 -1h-34q-77 0 -116.5 3t-72.5 3q-49 0 -89 -9.5t-93 -13.5q-51 0 -72 9z" />
    <glyph glyph-name="F" unicode="F" horiz-adv-x="1376" 
d="M131 4l-12 2q-19 9 -31 28.5t-12 41.5q0 14 62.5 57t97.5 43q0 5 20 25l27 24q-11 78 -11 185q0 38 5.5 101.5t5.5 166.5q0 357 -9 375l-6 82l-2.5 37.5t-2 31t-3 21.5t-7 17t-13 10.5t-20.5 9t-30 4.5q-104 13 -104 67q0 48 37 70t78 22h18q22 0 62 -10l-2 2
q12 -4 16 -4h16q12 -12 41 -12q20 0 73 9t110 9q22 0 59 -4t49 -4q30 0 113.5 3t138.5 3q60 0 92 3t40 6.5t12 7.5t17.5 7t45.5 3l43 -127l-2 2q5 -18 18 -61t19.5 -66.5t13 -52t6.5 -43.5q0 -25 -14.5 -41.5t-40.5 -16.5t-46.5 19t-39.5 67q-6 15 -23.5 38t-23.5 48l4 -4
q-45 78 -142 78q-58 0 -133.5 -11t-127 -22.5t-52.5 -11.5l-4 -2q0 -22 1 -66.5t1 -68.5v-60q0 -59 -2 -95t-4 -45.5t-4 -17t-2 -16.5q0 -34 14 -44.5t45 -10.5q51 0 120.5 11.5t113.5 39.5q19 19 34.5 57.5t35 60.5t61.5 22l26 -37q17 -34 17 -90q0 -29 -12.5 -112
t-12.5 -101v-15q0 -1 1 -7t1 -11l2 -70l-16 -10l-37 -14q-49 0 -82 63v-2l-12 16h2q-57 84 -90 84q-26 0 -59 -5t-62 -5q-27 0 -37 4h-4q-25 0 -64 -39q-10 -7 -10 -303q0 -81 10 -114l7 -27q0 2 4 2q10 0 38.5 -11t51 -22.5t20.5 -11.5q38 0 72.5 -25t34.5 -53
q0 -34 -27.5 -46.5t-122.5 -12.5q-45 0 -100.5 3t-75.5 3q-33 0 -114 -16.5t-179 -16.5q-2 0 -4.5 1t-3.5 1h-2z" />
    <glyph glyph-name="G" unicode="G" horiz-adv-x="1687" 
d="M690 -16q-51 3 -97 23.5t-75 27.5q-33 7 -72.5 21.5t-83 37.5t-79.5 58t-50 75l-4 15v-4q-2 9 -16 28l-16 31q-7 19 -28.5 67.5t-34.5 90.5t-21 98l-19 190q-6 37 -6 72q0 37 2 49v-2q0 1 1 3t1 3l10 74q10 76 30.5 127t54.5 89.5t98 88.5l47 37q55 42 116.5 72.5
t96.5 40.5l86 22q168 31 219 31q84 0 126 -9t75 -9l69 -27q27 -12 45 -12l30 3q30 3 52 3q32 0 55 -32.5t31.5 -79.5t11.5 -74.5t3 -41.5q0 -25 8 -57.5t16 -53t10 -20.5q0 -82 -45 -82q-74 0 -106 107l-8 29l2 -2q-3 6 -4 6l-27 47q-30 54 -65 84.5t-56 30.5l-108 43
q-15 0 -35 5t-31 5q-116 0 -188 -25h4q-4 -3 -19 -7.5t-26 -12.5l-39 -21l2 2q-124 -75 -196.5 -174.5t-90.5 -236.5v-140q0 -40 5 -73t5 -37q9 -40 29 -100.5t66 -148t98 -136.5q10 -9 29 -27.5t23 -23t20 -16.5t21 -13.5t23.5 -8t30 -6.5t38.5 -2t51.5 -2h66.5q47 0 87 14
t70.5 28t53.5 14q3 0 15.5 14.5t17.5 22.5l24 57q14 34 17.5 65.5t3.5 145.5q0 21 -4 37l-7 26q0 3 -3 5.5t-9 4.5t-13 4t-17.5 3.5t-19.5 3t-22.5 2.5t-22.5 2t-23.5 2t-22.5 2h-23q-38 0 -61 5.5t-31.5 17t-10 19t-1.5 22.5q0 26 13 31.5t68 7.5q95 3 179 12l197 12
q40 0 74 4t54 8t25 4q42 0 55 -24.5t13 -75.5q0 -24 -47 -43h2q-60 -30 -75 -73.5t-15 -147.5l2 -2q0 -84 -11.5 -137t-39.5 -77.5t-47 -31.5t-61 -14l-7.5 -1.5t-7 -1t-7.5 -1.5h3l-41 -11q-21 -15 -47.5 -25t-41 -13t-20.5 -3v2q-15 -13 -76 -36q-12 -4 -209 -4
q-64 0 -92 4z" />
    <glyph glyph-name="H" unicode="H" horiz-adv-x="1869" 
d="M113 63v5q0 68 47 71l30 2l89 54q16 8 29 21.5t14 25.5q8 16 12 158.5t4 193.5q6 61 6 141q0 62 -3 135.5t-3 106.5v12q0 3 1 11t1 12q0 104 -10 121l-4 32q-2 16 -10 45t-16 50l-7 22q-11 0 -34 -1t-34 -1q-29 0 -53.5 4.5t-47.5 16t-36.5 33t-13.5 52.5q39 39 110 39
q31 0 96 -4t87 -4q24 0 38.5 4t26.5 8.5t69 8.5t156 4q65 0 90 -20t25 -56v-49l-29 -4q-6 -2 -22 -2h-29q-6 0 -32.5 -7.5t-43.5 -7.5l-26 -6l-15 -10q-38 -25 -38 -121q0 -17 3 -68t3 -61v-16q0 -43 10.5 -96t22.5 -86.5t18 -34.5q13 -13 151 -13q141 0 278 12t179 29
q2 3 7 10t9 12.5t7 8.5l16 16q-6 0 -6 33q1 12 2 43t2 45l6 94q6 111 6 115v17q0 59 -30 67l-7 2q-34 4 -95.5 33t-61.5 55q0 25 32 38t115 13q49 0 102 -8t64 -8q18 0 50.5 9.5t84.5 13.5q16 4 35.5 11t35.5 11t34 4l5 -1q5 -1 9 -1l41 -6q20 -8 36.5 -24.5t16.5 -30.5
q0 -6 -5.5 -15t-16.5 -19t-23.5 -20.5t-30 -22.5t-31 -21.5t-32 -21.5t-29 -18.5t-25 -15.5t-16.5 -10q-22 -55 -22 -346q0 -60 -6 -72l-6 -170q0 -4 -1 -17.5t-1 -17.5v-24q0 -53 4 -103l8 -80q17 -18 20.5 -72t10.5 -99.5t34 -51.5l34 -10q35 -10 61 -20l-3 2
q66 -16 66 -66q0 -12 -1 -19.5t-3 -13.5t-8 -9t-12 -5t-19 -3t-25.5 -1.5t-35 -2t-43.5 -3.5q-40 -4 -56 -4q-21 0 -66.5 9t-76.5 9q-23 0 -129 -17.5t-107 -17.5q-35 0 -54 13t-19 30q0 72 125 127h-2q36 16 41 17l-3 -2q10 3 14 14q2 5 13 35v127q0 32 -1 78.5t-1 56.5v41
q0 6 1 21t1 22v41q-8 8 -12 16q-5 12 -95.5 21.5t-138.5 9.5l-377 -21q-30 0 -42 -8.5t-10 -18t-2 -18t-21 -8.5q24 -10 24 -119v-59v-43q0 -8 -1 -29.5t-1 -36.5l-2 -122q17 -20 52.5 -33t66.5 -19t55.5 -20t24.5 -37q0 -51 -133 -51q-106 0 -187.5 -3t-123.5 -7.5
t-68 -9.5t-37 -8t-14 -3l-23 -2q-6 -2 -18 -2q-36 0 -45 65z" />
    <glyph glyph-name="I" unicode="I" horiz-adv-x="956" 
d="M184 -2q-33 0 -50 19.5t-17 48.5q0 19 14.5 37t42.5 34t44.5 23.5t45.5 19.5l21 8q24 0 35.5 57.5t13.5 135.5l-6 524v-4q-11 86 -11 258l-6 33q-12 47 -33.5 67t-87.5 41q-19 6 -25 8t-22 9t-22.5 13.5t-12.5 18t-6 25.5q0 53 142 53q101 0 171.5 -2t97 -4t47 -4
t32.5 -2h12q6 0 10 2h39h16q55 0 67 -8.5t12 -56.5v-37l-19 -19q-29 -29 -60.5 -42.5t-48.5 -15.5t-29.5 -20t-15.5 -61q-10 -165 -10 -524q0 -99 4 -213v2q2 -39 2 -94q0 -9 -1 -20t-1 -15v-33q0 -27 3.5 -45t7.5 -28t16.5 -16.5t19.5 -8t27.5 -4t30.5 -4.5q25 -5 35 -7.5
t29.5 -10t28.5 -16t16.5 -24t7.5 -35.5q0 -24 -50 -39.5t-95 -19.5t-77 -4q-20 0 -28 2h2q-4 2 -11 2l-106 25h2l-51 4q-47 0 -108 -16.5t-85 -16.5z" />
    <glyph glyph-name="J" unicode="J" horiz-adv-x="942" 
d="M-37 -422h-6q-4 0 -12.5 -1t-12.5 -1h-20q-99 0 -141.5 27.5t-42.5 99.5q0 33 39 92l-3 -2l15 21q21 31 57.5 49t73.5 18q63 0 115 -67q2 -4 12 -4q18 0 69 51q42 42 56 76.5t33 125.5l32 127q17 54 23 110t6 216v88q0 18 -1 49t-1 45v97q0 8 1 16.5t1 11.5v35q0 3 1 10
t1 11q0 55 -10 131q-6 107 -9 191q-1 30 -4 30q-11 -1 -26 26l-6 11h-8q-19 0 -46.5 4t-64 13t-61.5 30.5t-25 50.5q0 30 17 50t46 20q78 -13 136 -13h39q6 0 18 1t18 1q35 0 60.5 -3t38 -6t16.5 -3q1 0 3.5 1t4.5 1q12 0 37 -4t45 -4q26 0 66.5 6t54.5 6q80 0 80 -43
l-4 -16q-24 -47 -74 -72q-26 0 -42.5 -6.5t-22.5 -18t-8 -22t-2 -25t-1 -20.5q-31 -131 -35 -381q0 -348 -10 -446q0 -12 2 -19.5t2 -21.5v-11q0 -3 -1 -13.5t-1 -18.5v-13q0 -133 -14 -196.5t-47 -114.5l-6 -15q-5 -14 -17 -32t-30 -29q-22 -19 -55.5 -64t-71.5 -73
q-11 -20 -31.5 -42t-34.5 -28l-96 -47l2 4l-27 -22q-37 -32 -90 -35z" />
    <glyph glyph-name="K" unicode="K" horiz-adv-x="1716" 
d="M141 8q-28 0 -45 10l2 -2q-30 12 -30 45q6 24 14 37.5t25.5 22t32.5 12.5t53 12t69 17q43 11 43 45v26q17 17 17 238q0 148 -2 234.5t-5 110.5t-6.5 58.5t-5.5 81.5l-8 105q0 8 -1 28.5t-1 28.5l-8 43q-2 6 -2 19v37q-3 36 -7.5 45t-19.5 12q-33 5 -55.5 11.5t-41 22.5
t-18.5 40q0 21 37 44t92 23q18 0 83.5 -10t195.5 -10q62 0 94 4l45 8l-2 -2q31 10 57 10q20 0 32.5 -3t18 -10t6.5 -13t1 -17q0 -24 -11 -42t-34 -30t-40.5 -18t-47.5 -14q-36 -9 -39 -11v3q-57 -32 -70.5 -57.5t-13.5 -84.5q0 -2 1 -5t1 -5q0 -10 -4 -145.5t-4 -165.5
q0 -47 8 -47q21 0 117 90l16 16q11 6 83 83t103 112q13 17 84.5 85t145.5 134q-15 6 -56.5 13t-48.5 7q-51 19 -51 51q0 36 47.5 59t67.5 23q8 0 24 -2t31 -2q2 0 68 4l292 11l15 -15q22 -18 22 -43q0 -31 -10.5 -43t-27 -14t-53.5 -11t-75 -28l2 2l-36 -22h2
q-2 -2 -17.5 -15.5t-23.5 -19.5l2 4l-8 -8q-63 -47 -230 -211l-100 -99q-18 -17 -53 -52.5t-52.5 -52t-21.5 -15.5q0 -31 215 -222l127 -133q28 -43 108 -131l78 -86q9 -11 37 -25t33 -24q16 -16 143 -53l-2 2q55 -15 55 -53q0 -22 -8.5 -30.5t-29.5 -8.5t-29 2
q-26 0 -94.5 -5.5t-98.5 -5.5h-12q-143 7 -303 7h-53q-20 0 -34.5 15t-14.5 30q0 20 23.5 33.5t51 18.5t51 11.5t23.5 13.5l-24 46q-7 7 -19.5 25t-17.5 24q-48 74 -201 207h2q-47 38 -80 72.5t-44 49t-25.5 24t-38.5 13.5q-28 -6 -37 -20v-2q-13 -26 -13 -92
q0 -174 12 -244.5t46 -87.5q24 0 50 -12t26 -19q24 0 39.5 -13.5t15.5 -35.5q0 -20 -37 -37.5t-57 -17.5q0 1 -24 1.5t-56 1.5t-45 3h-137q-28 0 -116.5 -12.5t-148.5 -12.5z" />
    <glyph glyph-name="L" unicode="L" horiz-adv-x="1376" 
d="M621 29l-11 2q0 -2 -4 -2q-52 0 -113.5 8t-70.5 8q-19 0 -67 -7t-76 -7q-18 1 -40 1.5t-36 1t-29.5 1.5t-24.5 3.5t-17 7t-11.5 12.5t-3.5 20q0 26 27 39.5t63.5 23t48.5 21.5l31 18l8 4q1 0 2 -1t2 -1v2q0 1 -1 6t-1 7q0 3 2 14t2 22q0 9 -4 56.5t-4 60.5q0 10 2 26
t2 38q0 16 -3 137t-3 197v231q0 2 -4 18l-4 103q-3 61 -8.5 94.5t-8 38t-10.5 16.5l-2 8q-2 2 -6 2.5t-12.5 1.5t-18.5 5q-30 12 -48.5 20.5t-43.5 23t-38 32.5t-13 38q0 18 3 27t15 19t40 14t75 4q63 0 106 -10t65.5 -20.5t35.5 -10.5q2 0 4 2h35q41 0 86.5 6t81.5 6
q73 0 98.5 -13.5t25.5 -37.5v-12q0 -18 -14 -39l-24 -33l-35 -2q-14 -1 -24.5 -2.5t-19 -2t-14 -3.5t-10 -3.5t-7 -5.5t-4.5 -6.5t-2.5 -9t-0.5 -9.5v-12.5v-13.5l-27 -122l-24 -74q0 3 3 -32.5t7.5 -92t9 -118.5t7.5 -119t3 -85q0 -395 52 -395q3 0 14.5 -4t19.5 -4h9
q1 0 3.5 1t4.5 1q10 0 18 -4l31 -4q10 -2 39 -2q52 0 80 4h28q26 0 94.5 20t75.5 33q7 0 33.5 41.5t57.5 91.5t72.5 91.5t74.5 41.5q11 -3 24 -30.5t13 -42.5q0 -27 -19 -70q-22 -44 -33.5 -94.5t-15 -84.5t-11.5 -64t-29.5 -45t-61.5 -15q-45 0 -72.5 10t-50.5 10
q-56 0 -134.5 -13t-183.5 -17q-57 0 -81 4z" />
    <glyph glyph-name="M" unicode="M" horiz-adv-x="2080" 
d="M117 -10q-23 0 -31 4l2 -2q-28 8 -52 25t-24 42t117 72h-2l27 10h-2q20 12 38 17l37 6q10 1 13 4t6 14l14 56v6q-1 7 0.5 19t5 30t4.5 29l15 100q0 5 2 20t2 19l24 155l29 189l-2 -8q0 4 4 24l8 105l8 45q0 7 2.5 21t2.5 20q0 5 -2.5 15t-2.5 15q0 12 9.5 78t9.5 88
q0 26 -31 47t-72 21h-36q-56 0 -91.5 25t-35.5 59q0 24 27.5 41.5t66.5 17.5q75 0 224 -23.5t161 -35.5l16 -19q0 -7 23.5 -48t23.5 -42q21 -54 56 -123l20 -43q28 -61 39 -69q0 -22 6 -43t15.5 -43.5t31.5 -81.5t45 -135q10 -36 55 -157.5t66 -158.5q3 6 37.5 57t46.5 81
l23 55q30 72 67.5 191.5t62 204t27.5 87.5q0 5 15 45l41 135q29 97 53 126.5t70 29.5h88q68 0 159 16l68 7l25 -9q53 -17 53 -63q0 -5 -1.5 -10t-5 -10t-6.5 -8.5t-10 -8.5t-11 -7.5t-13.5 -7.5t-14 -7t-15 -7.5t-15.5 -7.5h2q-11 -5 -31 -14t-29 -13.5t-10 -7.5l-12 -12
q-19 -19 -19 -115q0 -2 3.5 -14t4.5 -23l50 -708q4 -54 4 -78q0 -55 19.5 -87.5t43.5 -41t52.5 -17.5t39.5 -20l15 -10v-2l2 2q13 -6 19.5 -10t14 -15t7.5 -26q0 -12 -21 -27.5t-41 -15.5q-43 0 -131 9t-110 17h-4q-67 0 -143.5 -26.5t-86.5 -26.5q-39 -8 -59 -8q-7 0 -20 5
t-27.5 22.5t-14.5 44.5q0 20 33 34v-2l82 56q13 14 27 23t19 13t8 19.5t3 50.5q0 2 -1.5 18.5t-4 56.5t-4.5 93q-1 55 -7.5 130.5t-6.5 94.5q0 25 4 83.5t4 97.5q0 175 -6 202q-11 -25 -36 -80.5t-34.5 -79.5t-32 -85t-51.5 -148q-16 -46 -57 -123t-60 -133l-12 -37
q-23 -70 -82 -196v2l-59 -160l-33 -2q-4 -2 -16 -2q-93 0 -123 180q-5 17 -22 54.5t-35 86.5q-51 141 -60 158l-20 59v-2q-15 30 -42.5 82.5t-39.5 81.5t-17 60l2 -4q-52 139 -88 215q-8 16 -8 12v4l-16 -182q-9 -47 -13 -121l-6 -86q0 -27 -2 -35v2q-10 -102 -10 -205
q0 -174 4 -174l-2 -2q16 0 35 -28q0 2 2 2q5 0 14 -9l6 -2q15 -8 58.5 -18.5t69.5 -25.5t26 -42t-28 -45t-66 -18q-9 0 -25 4l-30 8q-2 0 -7.5 1t-7.5 1l-88 12q-1 0 -4 1t-4 1q-7 0 -33.5 -2t-38.5 -2h-16q-55 0 -87 -2.5t-41 -6.5t-12.5 -8t-10.5 -6.5t-25 -2.5z" />
    <glyph glyph-name="N" unicode="N" horiz-adv-x="1785" 
d="M1409 12l-4 4q-15 21 -66.5 72t-76.5 82q-35 41 -70 76l-55 55l-60 74q-19 23 -33.5 41.5t-22 27.5t-11.5 14.5t-10 12t-8.5 9.5t-15.5 17.5t-24 26.5q-22 26 -34 43l-224 264q-11 12 -40.5 47t-50.5 59t-60 67t-82 88q0 -29 -2 -95l-15 -465q0 -194 18 -272
q28 -117 99 -117q21 -4 30.5 -6.5t23 -9.5t19 -19t5.5 -30q0 -25 -24 -44.5t-48 -19.5q-20 0 -90.5 12.5t-93.5 12.5q-19 0 -59 -4h2q-28 -4 -47 -4h-13q-11 0 -51 -6.5t-72 -6.5q-55 0 -73.5 15.5t-18.5 52.5q0 25 13 47t35.5 38t41 26t40.5 19.5t24 10.5q40 17 59 17h10
q9 0 9 393q0 13 -6.5 87.5t-6.5 201.5q0 30 1 60.5t3 53t3.5 41t2.5 29.5t1 12q-20 86 -32 121.5t-21.5 46.5t-30.5 15q-42 9 -75.5 28t-33.5 43q0 48 66 68l43 8q8 2 30 2h35l80 -8q11 -1 36 -3.5t35 -4t29 -4.5t29 -8t24.5 -12t26 -18t23.5 -26l78 -98q9 -11 20 -22.5
t16 -18t7 -12.5l20 -29l59 -60q13 -10 25.5 -22t25.5 -27.5t21 -25.5t22.5 -29.5t20.5 -26.5l23 -30v2l28 -43l52 -58h-2l63 -61v2q108 -98 152 -170q19 -28 47 -61t62 -69.5t38 -41.5l29 -33q3 43 12 142t14.5 211.5t5.5 277.5q0 140 -16 180v-2q2 0 2 2q-10 23 -46.5 35.5
t-73.5 17.5t-67 23.5t-30 52.5q0 41 61 41q68 0 159 -6t118 -6q65 0 95 8t52 8q-2 -4 -4 -6q16 -3 26.5 -6.5t20 -17t9.5 -35.5q0 -34 -20 -54t-45.5 -25.5t-56 -13.5t-44.5 -20q-15 0 -15 -119q0 -2 1 -5.5t1 -6.5q0 -19 -6 -49l-10 -72q-12 -85 -12 -241q-3 -88 10 -168
l8 -58q0 -6 1 -25.5t1 -33.5q0 -75 -5 -206.5t-5 -178.5v-37q0 -43 -53 -43q-19 0 -31 12z" />
    <glyph glyph-name="O" unicode="O" horiz-adv-x="1738" 
d="M836 12q-28 0 -95 8t-92 17q-35 5 -106 30.5t-90 43.5q-47 42 -60 51l-41 28q-92 85 -136.5 135t-50 63t-5.5 32q-16 27 -27 58.5t-14 48t-6.5 49.5t-3.5 36l-5 33q-14 55 -14 174q0 30 2.5 57.5t9 53.5t11 43t15.5 42t15 33.5t17.5 34.5t15.5 29l14 29l18 26
q19 26 38.5 46.5t36.5 27.5q9 37 73 62h-2q4 2 33 22t77 39.5t118 34.5l-4 -2l34 14q20 10 209 10q110 0 226 -20.5t184 -73.5l35 -20h-2q15 -7 30.5 -19t31 -28.5t27.5 -30t26.5 -34.5t21 -31t18.5 -29.5t13 -20.5l8 -12h-2q6 -9 15.5 -48t29.5 -73q43 -107 43 -281
q0 -108 -33 -170v5q-1 -1 -3 -8t-10 -25t-22 -41l-37 -76q-50 -89 -94 -145t-100 -97h2q-38 -31 -85.5 -55.5t-75.5 -33.5l-28 -9q-58 -18 -159 -29h2q-32 -4 -47 -4zM885 145q68 12 121 40.5t87 63t61.5 86t43 95.5t31.5 107q11 40 19.5 103.5t8.5 102.5q0 146 -26 211
q-30 95 -43 118.5t-68 78.5l-12 12q-67 53 -152 92t-118 39q-42 0 -70.5 -4t-39 -8.5t-28.5 -13.5l-20 -8q-51 -19 -70 -29l-20 -12l-33 -11q-30 -8 -53 -28l-33 -35q-9 -9 -35 -80v2q-11 -29 -27.5 -57.5t-23.5 -59.5t-12 -110l-8 -70q-1 -2 -2 -5.5t-2 -5.5t-1 -3v-29
q0 -142 9 -213.5t25.5 -108t60.5 -98.5h2q22 -31 48 -51.5t44 -28.5t42 -16t32 -12q16 -10 47 -17l-2 2l71 -22q67 -21 101 -21q4 0 17 2t28 2z" />
    <glyph glyph-name="P" unicode="P" horiz-adv-x="1406" 
d="M96 20h-2q-20 10 -20 35q0 6 22 29t64 48.5t82 29.5l6 4q4 3 18 13t22 16t9 10l-2 -2q5 19 12.5 131t7.5 190v49q0 90 4 230l3 108q-1 -3 -5 68.5t-8 152t-6 93.5l-8 63q-45 4 -110.5 27.5t-65.5 50.5q0 25 19.5 45.5t70.5 20.5q29 0 86.5 -5.5t87.5 -5.5q9 0 41 2t55 2
q17 0 23 -4l92 -14q-2 0 -4 2q8 0 37 2t41 2q177 0 273.5 -13t145.5 -38t95 -78l28 -31q33 -38 39 -135l6 -135q0 -105 -24 -139l-14 -45q-7 -21 -24.5 -47.5t-33.5 -36.5v-2q-26 -23 -43 -29l-22 -22q-15 -15 -19 -17l4 4q-3 -2 -9.5 -6t-11.5 -7t-9 -5h2l-115 -56
q-60 -28 -95 -35.5t-132 -7.5q-109 0 -127 3l-2 -19q0 -39 -5 -49v-23q0 -5 -1 -12.5t-1 -11.5l-4 -62q-4 -12 -4 -45q0 -3 1 -10t1 -10v-12q0 -17 -4 -29.5t-4 -24.5q0 -16 4 -20l8 -19q2 -6 2 -18q8 -10 34 -21.5t47.5 -17.5t23.5 -6q10 0 26.5 -4.5t36 -21t19.5 -42.5
q0 -21 -17 -27.5t-71 -6.5h-33h-14q-16 0 -48.5 2t-46.5 2h-12l-49 -2q-70 0 -183 -7.5t-139 -7.5q-33 0 -45 6zM600 721q3 0 11 1t12 1h20q33 2 71.5 14.5t59.5 12.5h8q26 0 62 32v2q3 3 9 8.5t9 8t9 5t12 3.5l28 29q24 24 41 34h-2q27 20 37 44.5t10 93.5q0 129 -81 173
t-291 44q-39 0 -43 2l2 -2q0 -11 -5.5 -26t-5.5 -17l2 -2q-4 0 -4 2q0 -13 -2 -17v-63q2 -10 2 -35v-27q-2 -2 -2 -36q0 -33 2 -46t2 -51q0 -4 -2 -12.5t-2 -19.5q0 -6 1 -12t1 -7v-37q0 -19 2 -30.5t2 -26.5v-35q11 -8 25 -8z" />
    <glyph glyph-name="Q" unicode="Q" horiz-adv-x="1738" 
d="M1352 -313h-64q-157 0 -237 41h4l-31 12q0 1 -10 4.5t-15 3.5l-61 31l-39 24q-98 32 -184 142q-30 35 -51 35h-19q-35 35 -83.5 64t-80 41.5t-39.5 12.5l-20 11h2q-37 18 -60.5 31.5t-45.5 33t-30.5 28.5t-35.5 42.5t-41 50.5q0 23 -31 67l-30 44l-23 38l2 -2
q-27 46 -31 115q0 25 8 29q0 5 -9 53.5t-9 85.5q0 52 10.5 107t20 84.5t31.5 91.5l24 69q11 32 46 73t54 58.5t62 55.5l49 43l57 30h-2q84 50 187.5 75.5t177.5 29.5l43 2q142 0 278 -39l17 -6q50 -18 89 -48t58 -55q29 -24 56.5 -50.5t70 -74.5t73.5 -105.5t40 -113.5
q3 -16 7.5 -42.5t6.5 -40t4 -33.5t2 -39l-8 -90q-14 -141 -41 -228l-6 -20q-30 -96 -111 -187l-22 -24h2q-46 -69 -104 -101l-93 -51l-82 -33q-62 -24 -71 -24q13 -20 29 -50t26.5 -50t17.5 -25l-4 2q3 -2 22.5 -15.5t39.5 -23.5q96 -51 137 -63l21 -7q14 -4 40 -4h68
q27 0 41 -0.5t36.5 -1.5t34 -4.5t24.5 -9.5t18.5 -16t5.5 -23q0 -28 -63.5 -44.5t-155.5 -16.5zM774 147l4 -2q25 25 103 25q2 0 6.5 -1t7.5 -1h12q23 0 66 24l4 3l65 34q5 0 23.5 17.5t54.5 54t66 64.5q68 62 104 182l-2 -6l6 24q15 59 15 80l10 92q2 8 2 15v65q0 15 -2 17
l-10 73q-13 94 -51.5 194t-81.5 136l2 -2q-49 30 -68.5 41t-54.5 25.5t-68 19t-80 4.5q-45 0 -107 -12t-75 -19l-55 -26q-70 -34 -105 -62t-96 -110l-55 -131l2 4q-1 -5 -11 -37.5t-16.5 -58t-15 -66.5t-13 -88t-4.5 -96q0 -50 33 -170.5t78 -145.5q8 -9 16.5 -17t15 -14.5
t14.5 -13t12.5 -10.5t12.5 -9t11 -7t11 -7t9.5 -6t10.5 -5l8 -5h-4l20 -10q41 -23 94 -38t68 -15q3 -3 8 -3z" />
    <glyph glyph-name="R" unicode="R" horiz-adv-x="1579" 
d="M1118 27l-12 2q-58 1 -87 23.5t-50 76.5l-8 16q-29 84 -84 179l-25 41h2q-41 63 -99.5 137.5t-86.5 91.5l2 -2l-21 14h-24q-40 0 -56 -16h-2q0 -15 -2 -41.5t-2 -34.5v-20q0 -58 6 -132.5t12.5 -123t8.5 -50.5l2 -20q0 -7 35 -17t70.5 -28t35.5 -45q0 -24 -12.5 -35.5
t-58 -18t-138.5 -6.5q-48 0 -157 25q-8 0 -16.5 2t-10.5 2q-9 0 -31 -5t-45 -5q-119 0 -119 78q0 18 66 47.5t98 38.5q3 0 6 20v207q0 88 -5 135.5t-5 67.5v10l1 25q1 24 2 61.5t2 78t2 79t1 59.5l-2 23v-2q0 8 -11 68t-11 67q-2 4 -2 16q0 8 4 24t4 29q0 31 -39.5 60
t-81.5 35q-37 9 -62 32t-32.5 40t-7.5 26q0 26 30 51t95 25q17 0 33.5 -3.5t35.5 -8t81 -8t159 -3.5h41q5 0 21 1t24 1h293l37 -16q101 -40 149 -79t70 -89q4 -15 8 -19l8 -18q19 -46 19 -98q0 -60 -19.5 -122t-48.5 -110t-61.5 -88t-58.5 -62.5t-40 -27.5l-10 -6
q15 -11 29 -24t26.5 -28t22 -26t20 -27.5t15 -24.5t14 -24t10.5 -18l15 -18q11 -7 23.5 -24.5t22 -36t26.5 -52.5t30 -57l12 -23q14 -28 25 -39l24 -41q28 -47 50.5 -56t93.5 -9q57 -9 79 -21t29 -39v-12q0 -24 -16 -37.5t-37 -13.5h-43q-7 0 -21 1t-18 1q-72 0 -120 -8.5
t-70 -8.5q-37 0 -62 11zM659 799h13q25 0 33 4h-5q8 4 31 4q0 -2 2 -2q93 35 117 59l24 15q7 3 29.5 44.5t22.5 45.5q2 9 10 20v-2q25 52 25 121q0 37 -26 63t-69 50v-2q-24 11 -48.5 14.5t-108.5 3.5q-138 0 -154 -4q0 -7 -1 -40t-1 -56q0 -12 1 -36.5t1 -39.5v-215
q0 -7 -1 -21t-1 -16q0 -14 35 -14h10q0 8 4 8t9 -4t5 -6l5 1q5 1 8 1z" />
    <glyph glyph-name="S" unicode="S" horiz-adv-x="1148" 
d="M422 -8l-45 4q-75 5 -125 45h2l-18 10q-2 0 -5.5 -1t-5.5 -1q-10 0 -18 6q-4 0 -12 -1t-11 -1h-12q-34 0 -48.5 24t-14.5 93q-1 20 4 54t4 83l-2 80l18 14q13 13 29 13q9 0 22 -13l37 -34q0 -11 20.5 -55.5t32.5 -59.5h2l5 -8q5 -7 16.5 -20.5t26.5 -29t37 -31.5
t46.5 -29t57.5 -21.5t67 -8.5q48 0 103.5 30.5t69.5 72.5l4 6v-4q10 33 16 45v-2q2 8 7.5 26t9 28.5t6 24.5t2.5 23q0 71 -48 119v-2q-24 19 -43.5 33t-27 18t-14 9t-11.5 12h-4h2q-42 28 -43 28l-14 15q-23 12 -35 20l2 -2q-4 2 -11 8.5t-11 8.5l10 -3q-15 0 -24 5
t-28.5 19t-48.5 28l-39 22h5q-6 1 -10 2.5l-8 3t-8.5 4.5t-8 5t-9 8t-10 10t-13.5 13.5t-15.5 16.5l-19.5 21t-23 25l-49 53h2q-18 16 -26.5 28.5t-17 46t-8.5 85.5q0 61 12.5 111.5t36 89.5t45 64t52.5 54v-2l8 8q37 37 125.5 70t216.5 33q88 0 162 -45l8 -4q12 0 21.5 2.5
t15 5t6.5 2.5q8 0 19.5 -9.5t20.5 -18.5l9 -9q3 -8 12.5 -114.5t20.5 -145.5q0 -40 -3.5 -49t-25.5 -19q-40 0 -59.5 20.5t-40.5 88.5q-13 43 -30 72.5t-33.5 42.5t-28.5 17.5t-23 4.5q-7 3 -38.5 13t-37.5 10q-98 0 -180 -63.5t-82 -147.5q0 -45 35 -103l6 -12
q112 -107 326 -199q101 -44 176.5 -123.5t83.5 -138.5q0 -7 8 -39l-2 2q21 -71 21 -118q0 -17 -21 -66l-24 -57q-17 -38 -53.5 -86t-57.5 -62l2 2l-27 -18q-40 -28 -162.5 -59t-205.5 -31h-13q-18 0 -22 4z" />
    <glyph glyph-name="T" unicode="T" horiz-adv-x="1521" 
d="M440 -6h-20q-77 0 -82 45q0 39 27.5 56.5t84 31t87.5 29.5q18 9 30.5 70.5t18.5 153t8 171t2 158.5q0 43 -4 157.5t-4 143.5q0 28 2 60t2 40q0 158 -14 158l-15 6q-12 8 -49 8h-2l2 2l-59 -16q-28 0 -82.5 -7t-71.5 -20q-6 -17 -17 -22t-24 -5t-37.5 -20t-52.5 -61v2
q-26 -45 -59.5 -80t-57.5 -35q-27 0 -34 10.5t-7 46.5q0 103 43 211v-2q7 20 12.5 49t9.5 44.5t15 32t34 23.5t60 7q22 0 31 -2.5t19.5 -6t89.5 -6t225 -2.5q83 0 184 7l133 12q83 0 179 6.5t155.5 14.5t59.5 12q17 0 29 -3t27.5 -15.5t26 -35t20.5 -64t15 -99.5v4
q11 -53 20.5 -87t14.5 -42.5t7.5 -19t2.5 -28.5q0 -14 -14.5 -28.5t-38.5 -14.5q-31 0 -55 20t-36 45t-27 55t-27 42q-37 36 -97.5 58t-117.5 24q-1 -1 -7.5 -2t-15 -2t-12.5 -2h2q-6 -2 -32 -3t-51 -6t-38 -18l-2 -2q0 -19 1 -51t1 -51q0 -16 -1 -33.5t-1 -19.5v-35
q0 -25 2 -29v-2q0 -21 -4 -33q4 -6 4 -32q-2 -2 -2 -54l-2 -63q2 -10 2 -45v-51q-2 -2 -2 -6v-33q0 -5 1 -12t1 -9v-12q0 -28 -4 -60.5t-4 -52.5q0 -5 1 -12t1 -8v-8q0 -23 -4 -50t-4 -75q0 -8 1 -19t1 -16v-16q0 -13 -2 -13q-2 -5 -2 -71v-31q0 -15 -0.5 -24t-1 -12.5
t-0.5 -4.5l4 -8q0 -13 40 -22t56 -9l53 -8q6 -1 19.5 -2.5t18 -2.5t14 -3.5t12 -5.5t8.5 -8t7.5 -12.5t3 -18.5t1.5 -25q0 -33 -19.5 -50.5t-49.5 -17.5l-52 7q-11 10 -83 15t-111 5h-10q-10 0 -56 -12t-116 -24.5t-138 -12.5z" />
    <glyph glyph-name="U" unicode="U" horiz-adv-x="1652" 
d="M784 -6h2q-26 3 -61 5t-50 4t-41.5 8t-58.5 18q-18 6 -50.5 40.5t-39.5 34.5q-4 0 -4 -4q-22 0 -110 88q-25 25 -41.5 50t-26 63t-13 57t-9 76.5t-7.5 77.5v172q0 206 7.5 332.5t7.5 208.5q0 55 -17 55q-33 0 -53 16h2q-25 15 -80 21q-64 3 -82 29l-34 32l45 27
q42 31 166 31q105 0 135 -6q5 0 32 2t43 2q7 0 13 -2h22q145 20 197 20t70 -9.5t18 -41.5q0 -21 -32 -43t-71 -36.5t-76 -32.5t-44 -32q-2 -2 -2 -139l-6 -227l-7 -98q-10 -180 -10 -224q0 -120 37 -221l27 -86q0 -1 1.5 -4.5t1.5 -4.5t1 -4t2 -3.5t2 -3t2.5 -3.5t3.5 -3.5
t4.5 -4.5t6 -4.5t7.5 -5.5l21 -16q67 -55 233 -60l35 5l45 8q33 4 61.5 18t41 27t12.5 18l2 8q0 15 16 27l25 37q19 41 43 41q12 25 21.5 51.5t15 51.5t8.5 42t5.5 36.5t2.5 21.5q8 40 8 49q0 101 7 207.5t13.5 177t6.5 84.5q0 30 -3 77.5t-3 75.5v21l-23 24
q-12 14 -18.5 20.5t-28.5 17t-49 12.5q-73 6 -108 27t-35 48t45 52.5t106 25.5q25 0 81 -9t91 -9q47 0 109.5 14t114.5 14q20 0 37.5 -21.5t17.5 -45.5q0 -39 -30 -60.5t-66 -28.5t-67 -28.5t-32 -60.5q-4 -8 -9.5 -28t-11 -62t-5.5 -87q0 -12 2 -37t2 -53q0 -49 -2 -84v2
q-4 -106 -4 -210q0 -146 -4.5 -198t-22.5 -93l-31 -70q-85 -214 -192 -264q-50 -10 -76 -20t-32 -15t-38.5 -8.5t-105.5 -3.5q-34 0 -62 4z" />
    <glyph glyph-name="V" unicode="V" horiz-adv-x="1611" 
d="M772 -16q-47 0 -67 25.5t-35 86.5l-33 101v-4l-19 40q-6 36 -30 86l-51 140q-19 52 -48 116l-45 127q-9 12 -37 99t-34 114v-2q-1 4 -5.5 12.5t-5.5 12.5l3 -2l-60 143q0 4 -14 25l-70 137q-16 33 -25.5 46.5t-14.5 15.5t-17 2q-2 0 -21 -2.5t-32 -2.5q-31 0 -44 1
t-27.5 8t-19 22.5t-4.5 42.5q0 22 14.5 38.5t39 24.5t50 11.5t54.5 3.5h45q8 0 25.5 -1t25.5 -1q42 0 79 2t85 2q152 0 210 -14.5t58 -59.5q0 -40 -20 -60.5t-88 -23.5q-40 -1 -62 -14.5t-22 -30.5q0 -25 14 -47l11 -20l45 -162q-2 1 8 -25.5t31.5 -83.5t35.5 -94v2l15 -35
q0 -12 12 -30h-2q49 -90 70 -166h-2l12 -31q10 -26 23.5 -84t13.5 -59l10 20q4 10 16.5 27.5t12.5 21.5l32 66q8 19 37 59q38 54 117 228q1 3 12 25.5t15 33.5v-2l10 27q11 29 29 67.5t44.5 94.5t43.5 92l12 22q20 27 20 62q0 2 2 2q-38 2 -121 29t-83 50q0 34 24.5 58
t69.5 24q36 0 79.5 -16t80.5 -16q16 2 38 9.5t27 8.5h-2q54 23 113 23q58 0 88.5 -9t44.5 -37q0 -20 -9 -43t-18 -32l-18 -11l2 3q-25 -16 -63.5 -28.5t-51.5 -12.5q-18 -13 -37.5 -43.5t-55 -95.5t-52.5 -93l-41 -86q-3 -6 -10 -16t-11 -19v2l-24 -63q-6 -6 -12 -16.5
t-12.5 -27.5t-12 -31.5t-14.5 -40.5t-15 -42l-70 -184l-26 -57q-2 -8 -17 -38t-18 -38l-39 -90q-20 -45 -28 -65.5t-8.5 -24t-6.5 -21.5t-20 -53v4q-15 -29 -23.5 -44t-25 -42t-31.5 -40t-29 -13z" />
    <glyph glyph-name="W" unicode="W" horiz-adv-x="2359" 
d="M717 14l-4 4q-44 79 -95 236l-102 309q-18 54 -43 92l-74 158v-2l-37 72l3 -4q-14 21 -41 82l2 -7l-27 45q-29 59 -56 106.5t-40.5 67t-16.5 19.5l-10 33h2q-12 22 -18 22h-72q-27 0 -46.5 9t-28 24t-12 27t-3.5 24q0 40 34.5 62t94.5 22q43 0 69.5 -1t47.5 -1
q67 0 110 14l70 5q49 0 70.5 -3.5t27.5 -3.5q2 0 18 2.5t23 2.5q78 0 78 -54q0 -25 -9 -43t-27.5 -27.5t-31 -13.5t-34.5 -8l6 -12q-19 0 -40 -17t-22 -34l13 -23l-4 4l22 -35q20 -32 27 -49v2q35 -82 43 -98l168 -459q17 -47 18 -57v-2q9 -13 17 -24.5t13.5 -23t9.5 -19
t8 -18.5t5.5 -15t4.5 -15t3 -12l7 6q37 50 65 76q14 4 81 92.5t67 101.5l-2 15q-2 0 -6.5 10.5t-14.5 33t-20 42.5l-19 34l-4 17l2 -10q-21 49 -37 104l2 -2l-47 117q-26 61 -26 63l-25 56q-20 44 -61 108l-19 16q-24 12 -47.5 22.5t-33.5 15.5t-19 9t-12 9t-5 10.5t-4 17.5
q0 38 51.5 56t176.5 18q5 0 13.5 -1t12.5 -1h25q14 0 48 2t48 2q125 0 125 -65q0 -42 -22.5 -56t-61.5 -14h-35q2 -21 47 -96t47 -94l19 -43v2l53 -111q4 -10 6 -14q29 46 92 170v-2l9 20q3 10 20.5 57.5t18.5 63.5l-3 -2v2q-4 9 -40.5 31t-69.5 47t-33 45q0 23 3.5 36.5
t12 19t15 6.5t20.5 1h6q34 0 85 -12t59 -12q59 0 142 19l83 20q28 0 66.5 -24t38.5 -46q0 -33 -42.5 -64.5t-99.5 -31.5q-7 0 -10 -6l-35 -43q-52 -63 -104 -146t-70 -123q-13 -17 -44.5 -89.5t-31.5 -80.5q-14 -19 -14 -24q0 -1 1 -2t1 -2l61 -115q31 -58 62 -125
t47.5 -102.5t26.5 -44.5l26 49l-2 -2q27 56 81.5 160t66.5 128v-2l6 19q10 29 16 37l29 57q4 25 12 39l12 20q6 8 23 52l27 69q1 1 16 31t29.5 67t19.5 70l17 45q14 44 14 70q0 12 -23 12h-22q-32 0 -48 11t-16 42t17 51.5t51 20.5q33 0 88.5 -9t67.5 -9q15 0 72 13t69 13
q25 0 37 -17.5t12 -41.5q0 -39 -31 -66t-61 -36q-19 -19 -23 -21l6 6l-22 -18q-6 -6 -8 -13l-39 -59q-53 -78 -82 -203l-14 -41q-13 -16 -23 -43l-16 -47l-23 -47q-10 -57 -53 -129l-31 -63v2q-76 -195 -133 -283l2 2q-10 -19 -17.5 -36t-10.5 -26.5t-7 -22t-6 -17.5
l-14 -39q-23 -56 -41 -89t-36.5 -46t-29 -15t-34.5 -2q-31 0 -45 12.5t-21.5 36t-39.5 85t-83 132.5l-12 23q-36 65 -64 129l-18 49l-29 47q-2 2 -2 4l-6 -18q-39 -88 -70 -145v2q-5 -8 -96 -158l-20 -31v2q-50 -95 -90 -139.5t-82 -44.5q-17 0 -35 18z" />
    <glyph glyph-name="X" unicode="X" horiz-adv-x="1669" 
d="M907 14l-8 25q-6 12 -6 27q0 31 37 47l-2 -2l78 45l-2 -2l14 10h-2q-10 17 -53 92.5t-68 108.5l-47 90v-2l-19 32q-10 18 -25 42t-22.5 36.5t-7.5 16.5q-55 -65 -111.5 -163.5t-60.5 -103.5l-37 -49l2 2l-8 -12q-29 -44 -29 -53q0 -16 18 -35.5t39.5 -34.5t39.5 -35
t18 -37q0 -36 -33 -36q-4 0 -17.5 3t-31.5 3h-22q-5 0 -16.5 3t-22.5 3q-54 0 -191 -6t-153 -6h-8q-23 0 -35.5 1t-30 5t-25.5 14t-8 27q0 39 45 59.5t100.5 31.5t67.5 23l19 19q189 189 284 317q3 4 18.5 24.5t31 42.5t32.5 50l39 55h-2l12 13l-14 18q-8 4 -8 14l-170 246
v-2l-29 45l4 -2q-36 33 -67.5 69t-46 56.5t-34 51t-22.5 34.5l-22 33q-23 3 -49 18v-2q-33 14 -37 14q-2 0 -2 -2l-35 2q-7 0 -29 5.5t-48 23t-26 41.5q0 25 28 40t104 15q37 0 173 -6t234 -6h27q3 0 13 1t17 1h72l21 -22q14 -25 14 -35q0 -33 -28.5 -47.5t-83.5 -21
t-72 -11.5v-2q0 -12 6 -21l14 -20q32 -32 62 -90l10 -19q50 -60 104.5 -143.5t57.5 -101.5l2 4q22 31 118 146.5t113 148.5q0 11 8 33t8 49v14q-32 14 -61 14q-71 8 -97 23.5t-26 50.5q0 20 16.5 35.5t36.5 15.5q9 0 13 -2h2q42 12 51 12q6 0 83.5 -7t84.5 -7q20 0 86.5 5.5
t126 11.5t61.5 6q84 0 84 -70q0 -34 -25 -53t-102 -39q-48 -12 -77 -27t-36 -25.5t-17 -17.5t-27 -8q-33 -25 -53.5 -49.5t-43 -64.5t-28.5 -48q-72 -107 -127 -162l-84 -106l8 -10q115 -169 129 -197l18 -27q19 -22 35 -51v2q39 -57 51 -71l13 -19l-4 4l94 -119
q2 -4 30 -36l33 -37q27 -16 103 -45h-2q5 -2 19 -8t22 -7l14 -6q3 0 10.5 -1t9.5 -1q0 2 4 2q41 0 41 -57q0 -11 -1 -17.5t-7.5 -12.5t-15 -8t-28 -4t-42.5 -2.5t-63 -0.5q-52 0 -132 3t-94 3q-64 0 -126 -12.5t-82 -12.5h-56z" />
    <glyph glyph-name="Y" unicode="Y" horiz-adv-x="1595" 
d="M516 -10q-26 0 -48 27t-22 55q0 26 25 43.5t53 17.5h8q25 0 68 27l21 14v-2q9 4 12 7t6 13t3.5 24.5t0.5 45.5v45q-2 20 -2 72l-8 242q0 7 -176 335q-5 12 -11 21.5t-13.5 20t-12.5 18.5l-35 53q-5 8 -19.5 27.5t-27.5 42.5v-2q-44 66 -82.5 100.5t-79.5 34.5
q-74 0 -115 28t-41 54q0 38 38.5 59t70.5 21q15 0 85 -2t97 -2q94 0 152 12l-2 -2q24 8 43 8q32 0 57 -6.5t34 -11.5t26 -17v2q21 -18 44 -26.5t31.5 -15t8.5 -25.5q0 -31 -20 -46t-43.5 -16t-43.5 -8.5t-20 -24.5q0 -55 26 -71l21 -27q6 -8 45.5 -84t52.5 -88
q10 -10 19.5 -25t20.5 -35.5t17 -29.5v2l19 -29l41 -55q7 -14 16 -23q0 5 12.5 24t43 62.5t38.5 55.5l37 53q114 132 133 195l15 28l-2 -2l18 33q-8 6 -34 11t-63 10.5t-57 9.5l-22 18l2 29q4 57 28.5 80.5t69.5 23.5q23 0 79.5 -12t88.5 -12q35 0 86.5 16.5t85.5 20.5
q64 0 89.5 -17.5t25.5 -71.5q0 -31 -16 -41.5t-99 -39.5h2q-70 -34 -256 -287l-45 -62q-28 -45 -67 -84q-129 -162 -134 -196q-12 -41 -12 -76q2 -10 2 -43v-59q0 -106 -2 -176.5t-2 -81.5q0 -21 12 -28.5t68 -25.5q104 -33 123.5 -45t19.5 -45q0 -21 -11.5 -30t-45.5 -9
q-31 0 -66.5 3t-50.5 3t-52 -4t-62 -4q-21 0 -61.5 4t-53.5 4q-11 0 -105.5 -15t-99.5 -15z" />
    <glyph glyph-name="Z" unicode="Z" horiz-adv-x="1445" 
d="M150 -20l-3 2q-57 22 -72.5 41t-15.5 57q0 14 6.5 24t28.5 33l41 43q22 47 152 187v-2l37 43l100 131h-2q36 50 100 129l148 180l-4 -6q28 47 61 80l12 10q70 104 172 225l-2 -2l74 113h-20q-102 -11 -129 -11q-20 0 -99.5 4.5t-101.5 4.5q-219 0 -252 -33
q-82 -77 -92 -105l-17 -34q-8 -23 -33 -47.5t-42 -24.5q-29 0 -47.5 20.5t-18.5 49.5q0 15 12 36v-2q9 15 19 56q15 60 36.5 112t34.5 78.5t13 34.5q0 13 23.5 36t33.5 23q9 0 19.5 -3t22.5 -8.5t20 -10t21.5 -12t16.5 -9.5l11 -8h45q48 0 115.5 5t101.5 5l125 -6
q70 -6 77 -9q2 -1 17 -1h82q17 0 53 4l199 12q83 0 108 -17t25 -50q0 -13 -3 -28t-8 -27.5t-13 -28t-15 -26t-16.5 -24t-14.5 -20t-14 -16.5l-8 -10l-21 -25v2q-20 -33 -34.5 -45.5t-33 -28.5t-44.5 -53q-39 -57 -93 -119v2q-10 -21 -81 -111t-76 -102q-10 -21 -82.5 -102
t-85.5 -98l-39 -49q-19 -18 -39 -41t-45.5 -56.5t-32.5 -42.5l-59 -73q-5 -10 -14.5 -22t-21 -25.5t-15.5 -18.5q40 -14 104 -14q29 1 88.5 5t87.5 5l90 4q102 4 129 12q36 13 67 21.5t50 12.5t36 6t24.5 2t16 -0.5t9.5 -0.5q2 0 4 0.5t4 2.5t4 4.5t5 7.5t7 11.5t10.5 16.5
t13.5 21.5t18 28t24 34.5q50 76 70 99l31 14l18 -19q22 -13 22 -41q0 -23 -30 -100v4q-4 -8 -11.5 -31.5t-13.5 -37.5v-5q0 -11 -7.5 -27t-10.5 -28l2 -6l-10 -92q-7 -7 -11.5 -27.5t-15.5 -37.5t-35 -21v-4q-47 0 -77 24.5t-74 24.5q-30 0 -60 -6l-47 -4q-10 -1 -52.5 -6
t-78.5 -9t-101.5 -9.5t-134.5 -8.5q-42 0 -141 -10.5t-223 -10.5q-79 0 -104 5z" />
    <glyph glyph-name="bracketleft" unicode="[" horiz-adv-x="817" 
d="M262 -266q-35 0 -45 8l4 -4q-28 10 -42.5 76.5t-14.5 222.5q0 43 2.5 73t5 44t2.5 18v2q-4 10 -4 27q0 38 4 107.5t4 127.5q0 40 -12.5 77.5t-36.5 37.5q-30 0 -56 18.5t-26 57.5q0 26 18 39.5t39.5 17t39.5 18t18 41.5v25q0 4 -1 17t-1 20q0 25 8 89t8 83q0 5 -2.5 30
t-5 64.5t-2.5 79.5q0 11 2 36t2 30q0 12 -3 42t-3 74v70l16 24q32 48 82 48q40 0 88 -37h6q10 -9 35 -15t45 -6q66 0 109 21q72 35 131 35q28 0 52 -20.5t24 -39.5q0 -45 -83.5 -104.5t-121.5 -59.5q-19 0 -55.5 -3t-36.5 -7q0 -19 -17.5 -285.5t-17.5 -308.5v-18
q0 -18 -3 -31t-3 -23l2 -34q4 -90 4 -160v-14q2 -10 2 -52q0 -33 -4 -49q0 -1 1 -6t2 -17.5t1 -31.5v-51q0 -6 -1 -14t-1 -11v-67q0 -20 2 -34t2 -28l-2 -6q0 -58 12 -61q8 8 55 8q19 0 72 -17l103 -34l18 -13q51 -51 51 -88q0 -57 -59 -57q-41 0 -88 26h-15q-45 5 -98 5
q-56 0 -162 -23l2 2q-30 -12 -51 -12z" />
    <glyph glyph-name="backslash" unicode="\" horiz-adv-x="649" 
d="M569 -39l-12 6h-12q-17 0 -24.5 7.5t-22.5 41.5l-33 72v-2l-29 55q0 22 -4.5 39t-9 25t-4.5 10q0 6 -5 20.5t-14 39t-14 38.5l-25 72q-12 23 -18 49l-39 144l2 -3q2 0 2 3q0 7 -27.5 72.5t-29.5 78.5l2 -2l-6 18v-2q-21 46 -21 78q-65 196 -69 236l-6 28q-7 0 -36.5 90
t-27.5 99q0 2 -15.5 29.5t-15.5 42.5l-4 14q-10 27 -10 59q0 9 4 21.5t20 27.5t41 15q33 0 57 -10.5t38 -23.5t27 -44t19 -52.5t17 -68.5l8 -27q6 -23 17 -57t18.5 -59.5t11.5 -46.5l15 -64q0 3 -6 12l22 -55q41 -129 62 -176t55 -145l31 -82v4q20 -39 42.5 -105.5
t24.5 -87.5v-4q10 -14 19 -51l16 -61q22 -34 31 -95l4 -32q0 2 2 2q8 -15 16.5 -55t8.5 -60q0 -24 -35 -51t-58 -27zM334 1022v4v-4z" />
    <glyph glyph-name="bracketright" unicode="]" horiz-adv-x="817" 
d="M63 -289l-10 6q-33 28 -33 56q0 15 5 22l8 27q23 34 59 55t69 33.5t44 23.5q21 15 58.5 24.5t62 15.5t24.5 14l2 18q4 4 4 12v2q-10 20 -10 123q21 58 21 217q-2 45 -2 140v166q0 45 5 109t5 71q0 18 -7.5 57.5t-7.5 73.5q0 16 4.5 57t4.5 60q0 4 -2 25t-2 36l2 -2
q-5 90 -199 119q-36 4 -74.5 27.5t-54.5 46.5l-16 22q0 35 22.5 58.5t50.5 23.5q7 0 28.5 -1.5t56.5 -6.5t55 -12l53 -7q4 -4 12 -4q64 0 82 8l49 11l-2 -2l19 6h-3q70 28 99 28q32 0 61 -26.5t29 -61.5q-3 -44 -21 -155l-24 -146q-6 -42 -6 -43v2l-4 -12q-5 -35 -5 -88
q0 -47 3 -68q10 -2 10 -14q0 -4 -5 -18.5t-5 -44.5l8 -25l-8 -8v-17q-5 -15 -5 -45q0 -56 97 -65q31 -3 42 -15t11 -32q-7 -27 -19.5 -37t-35.5 -10q-2 0 -6 4q-33 -7 -54.5 -43t-21.5 -66l-8 -18v2q-5 -15 -5 -19q7 -11 7 -41q-3 0 -7 -16.5t-7 -44.5t-3 -55v-25
q0 -6 1 -19t1 -20q0 -130 -4 -166v-12q0 -10 1 -25t1 -22v-33q0 -33 -11.5 -99t-23.5 -75q-32 -8 -65 -8q-28 0 -54.5 3t-31.5 3q-3 0 -9 -1t-8 -1h-14q-46 0 -70 4l-51 4q-20 0 -55 -14h2l-39 -21l2 2q-21 -12 -49 -12q-5 2 -23 4z" />
    <glyph glyph-name="asciicircum" unicode="^" horiz-adv-x="837" 
d="M100 940h-14q-24 7 -35.5 31.5t-11.5 48.5q32 22 88 98l8 15q2 7 13 20t32.5 41.5t42.5 65.5q46 82 64 100l14 24q2 3 9.5 15.5l10.5 17.5t10.5 16t12 16t12 13t13.5 11.5t14 6.5t16 3q15 0 27.5 -5t48 -41.5t82.5 -105.5v2l33 -45q63 -87 67 -88l19 -26q0 -2 42 -70.5
t42 -81.5q0 -29 -25.5 -43t-50.5 -14q-9 0 -61 18q-25 9 -48 29t-79 82h2l-76 69l-13.5 13.5t-9.5 10.5t-6 6.5t-6 2.5q-14 -8 -41 -36t-33 -42q-25 -55 -101.5 -116.5t-111.5 -61.5z" />
    <glyph glyph-name="underscore" unicode="_" horiz-adv-x="999" 
d="M96 -90l-28 8q-93 26 -93 78q0 17 23.5 40.5t42.5 26.5l37 11q42 10 110 10q4 0 84.5 -4t176.5 -4q73 0 301 8h266l12 -21q19 -30 19 -51q0 -100 -181 -100q-73 0 -100 10q-122 -4 -123 -4l-242 -8h-98q-6 0 -62 2t-73 2q-31 0 -37 -6l-14 -2q-11 0 -23 6z" />
    <glyph glyph-name="grave" unicode="`" horiz-adv-x="768" 
d="M565 1049h-14q-13 4 -107.5 66.5t-115.5 80.5q-10 2 -25 14q-153 92 -153 166q0 21 24 48.5t72 27.5q32 0 78 -31t153 -133l35 -31h-2q70 -61 91 -93q22 -32 22 -62q0 -26 -21.5 -39.5t-36.5 -13.5z" />
    <glyph glyph-name="a" unicode="a" horiz-adv-x="1003" 
d="M295 -2q-17 0 -25 6l-98 27l-35 24l2 -2q-44 32 -62 62.5t-18 72.5q0 45 18 88.5t41 73.5t55.5 59t51 41.5t37.5 24.5h-2q34 25 58.5 41t45.5 23.5t30 10t31.5 3.5t29.5 2q66 8 88 8v17q0 3 4 15t4 34q0 36 -17 92.5t-38 60.5l-78 -12q-20 0 -49 -8t-29 -14l-12 -39
q-26 -53 -54 -80t-63 -27q-44 0 -73 28.5t-29 74.5v32l22 25q16 24 28.5 38.5t51 37t96.5 39.5l55 20h-2q84 37 142 37q26 0 65.5 -11.5t50.5 -11.5q78 -13 115 -53.5t37 -136.5q0 -69 -20 -115q6 -30 6 -65q0 -56 -19.5 -187.5t-19.5 -140.5q0 -16 55 -16q21 0 40.5 9
t31.5 9q13 0 32 -20.5t19 -32.5q0 -17 -7 -29t-16 -19.5t-33 -26t-44 -36.5q-60 -43 -113 -43q-30 0 -56.5 16.5t-44.5 33t-28 16.5q-6 0 -8 -2l-72 -39l-33 -13h-2q0 3 2 5q-6 -2 -27.5 -7.5t-36 -9t-37.5 -7t-44 -3.5zM385 197l8 2q32 6 69.5 32.5t61.5 61.5q-2 17 -11 54
t-17 56q-2 -2 -21 -2q-70 0 -132 -40.5t-62 -73.5q0 -44 23 -66t46 -22z" />
    <glyph glyph-name="b" unicode="b" horiz-adv-x="1185" 
d="M127 -29l-35 4l2 136q0 155 2 412.5t2 326.5l-6 188v-2q-3 54 -8 92.5t-9.5 57.5t-11 29.5t-10.5 12t-10 1.5q-14 0 -19.5 1t-12.5 5.5t-9 15t-2 29.5q8 21 17 30t44 27l-2 -2q3 2 7.5 3t7.5 3q52 29 84.5 52.5t41 35t15.5 20t16 11.5q13 11 33.5 18t28.5 7
q13 0 19.5 -1.5t15 -8t12.5 -23.5t4 -45q0 -19 -8 -67t-8 -74q0 -16 2 -46t2 -57q0 -35 -4 -138t-4 -116q0 -4 0.5 -7.5t1 -5.5t0.5 -3v-10q0 -2 -1 -6t-1 -5l65 41q23 13 72 13q48 0 114 -17q92 -26 155.5 -53.5t103.5 -54.5t68.5 -68.5t44.5 -78t36 -101.5q12 -14 12 -64
q0 -113 -47 -225l-16 -39v2q-10 -29 -63 -98t-91 -96h2q-65 -45 -98.5 -55.5t-132.5 -10.5q-9 0 -32.5 3.5t-71 16.5t-87.5 33q-48 23 -92 29q-18 -3 -47 -41l-33 -41h-28q-7 0 -23 4h-8zM612 158h-2q45 21 86 84t41 129l6 43q0 4 4.5 23t4.5 26q0 48 -28.5 132.5
t-82.5 125.5l-41 22q-33 27 -67.5 31t-40.5 8v2l-3 -2h3q-6 -2 -21 -2q-22 0 -29 11q0 -5 2 -5q-17 -2 -37 -12t-32.5 -19.5t-12.5 -11.5l-4 -18q-20 -15 -20 -180q0 -43 2 -108.5t2 -80.5q0 -33 -2 -49t-2 -55q0 -24 5 -36.5t11 -15t21.5 -6t25.5 -8.5v2l45 -20
q3 0 56.5 -6t75.5 -6q8 0 19.5 1t14.5 1z" />
    <glyph glyph-name="c" unicode="c" horiz-adv-x="1007" 
d="M502 -18q-29 0 -62.5 6t-42.5 12q-77 14 -262 195q-67 97 -67 227q0 86 43 196l34 78q10 57 90.5 134.5t126.5 93.5h-2l46 18h-3q5 5 34 13t38 8q54 0 93 -22t73 -46.5t70 -28.5q71 0 98 -31.5t27 -72.5q0 -58 -25.5 -84.5t-56.5 -26.5q-28 0 -56 18.5t-46 40t-39 40
t-38 18.5q-11 0 -30.5 4t-34.5 8t-16 4q-43 0 -80 -38.5t-58 -94.5t-33 -112t-12 -97q0 -24 7.5 -51.5t9.5 -38.5l8 -43l26 -47h-2q15 -34 17 -43q0 4 4 4l20 -20q4 -17 55.5 -42.5t69.5 -25.5q40 0 97.5 14.5t97 31t37.5 22.5q0 43 49 43q19 0 40 -24t21 -50
q0 -38 -51.5 -75t-122 -61t-122 -37.5t-70.5 -16.5z" />
    <glyph glyph-name="d" unicode="d" horiz-adv-x="1183" 
d="M705 -27q-37 0 -37 37q0 15 14 43l2 10q-51 -21 -72 -32l-24 -13q-9 -6 -21 -6q-18 0 -24 6h-4q-9 0 -34 -10t-52 -10q-55 0 -130.5 46.5t-134.5 117.5l-18 16q-20 16 -29 37v-2l-20 33v-2q-27 39 -37 83t-10 128q0 74 10 132t29.5 97t36 61t40.5 46q88 128 218 155
l51 10q30 9 86 9q86 0 151 -60v103q0 66 4.5 141.5t4.5 83.5q0 6 -12.5 12t-36.5 21.5t-44 40.5l-4 26l35 33q45 29 119 58.5t129 29.5q37 0 56.5 -14t19.5 -35q0 -40 -23 -72l-14 -10q-19 -57 -19 -111l2 7q0 -1 1 -9.5t1 -9.5q-4 -4 -4 -16q0 -13 2 -59.5t2 -57.5
q0 -9 -8 -49l2 -64l-2 -2v2v-36q0 -41 2 -64l4 -94l1 -4q1 -4 1 -8q0 -48 -8 -148.5t-8 -200.5l2 -24q2 -6 2 -27l-4 -4q0 -13 12 -53l-2 2q7 -21 9 -48t8.5 -42t29.5 -27h-2q31 -13 39 -25.5t8 -44.5v-47l-51 -2q-30 -1 -113.5 -42t-131.5 -42zM504 135h-4q24 12 49 12
q26 1 69.5 28t49.5 36q2 4 18 20q0 50 -12 157t-12 167q0 56 8 156v8q0 37 -24.5 62.5t-47.5 33.5t-37 8q-95 0 -172.5 -108.5t-91.5 -255.5q1 -43 13.5 -84.5t23.5 -52.5l12 -33q7 -18 28.5 -55t39.5 -52l24 -20q31 -22 58 -29q4 0 8 2z" />
    <glyph glyph-name="e" unicode="e" horiz-adv-x="1032" 
d="M451 14h-13q-30 0 -110 35.5t-109 52.5h2q-72 44 -110.5 133.5t-38.5 247.5q0 78 33.5 158t90 144.5t139.5 105.5t175 41q132 0 205.5 -49.5t144.5 -171.5l23 -39l-4 4q10 -20 10 -31q0 -45 -11 -68t-25 -26t-33 -7t-29 -14q-16 -16 -72 -16q-27 0 -79.5 3t-82.5 3h-100
q-62 0 -91.5 -12.5t-29.5 -48.5q0 -11 12 -65t12 -58v-2l15 -19q31 -55 66.5 -81.5t86.5 -26.5h35q39 0 93.5 26t72.5 31l29 17q20 20 39 20q22 0 31.5 -8.5t9.5 -28.5q0 -23 -19.5 -54.5t-21.5 -41.5v2q-42 -73 -152.5 -114.5t-193.5 -41.5zM354 614h66q73 15 142.5 23
t100.5 9.5t31 2.5q0 2 -3 10t-12 23.5t-22.5 31t-39.5 33.5t-58 31l-31 13q-3 0 -9.5 1t-10.5 1q-64 0 -112 -54t-48 -104q0 -21 6 -21z" />
    <glyph glyph-name="f" unicode="f" horiz-adv-x="753" 
d="M152 4l-15 4q-71 23 -71 62q0 24 11 37t28 18.5t48.5 24.5t61.5 49q4 24 4 63q0 33 -3 112.5t-3 112.5q0 28 3 104.5t3 106.5q0 4 -1 11t-1 8h-29q-8 0 -22 -1t-19 -1q-39 0 -57 9t-18 30t31.5 57.5t70.5 44.5q4 0 8 -1l4 -1v2q6 66 39 137q17 67 44 131t79.5 134.5
t116.5 103.5l18 12q16 12 68 31l51 20q64 35 105 35q55 0 108 -36.5t53 -90.5q0 -17 -4.5 -32.5t-17.5 -33.5t-42.5 -29t-72.5 -11q-23 0 -80 18.5t-67 18.5q-39 0 -73.5 -43.5t-53.5 -106.5t-19 -125q0 -54 2.5 -81.5t5 -32t7.5 -5.5q14 -11 48.5 -17.5t65 -10t54.5 -21.5
t24 -51q0 -36 -19 -52t-69 -16q-17 0 -44 1.5t-44 1.5l-4 -7q-9 -4 -12.5 -9.5t-3 -9.5t-2.5 -8t-11 -5l6 -2q0 -4 -6 -79t-6 -139v-22q0 -137 10.5 -193t51.5 -73q50 -21 65.5 -40.5t15.5 -41.5q0 -14 -29.5 -33.5t-64.5 -19.5q-14 0 -41 8l2 -2q-46 12 -90 12
q-18 0 -88 -18.5t-100 -18.5h-10z" />
    <glyph glyph-name="g" unicode="g" horiz-adv-x="1060" 
d="M469 -492h-18q-125 0 -254 62h2l-17 6l-28 18l2 -2l-19 13q-87 58 -111 97t-24 93q0 29 18 53l21 29q8 35 119 146h-2q6 7 12 11t9 4l3 1q0 6 -30.5 58.5t-30.5 90.5q0 19 11 37.5t32.5 34.5t37.5 25.5t42 23.5q4 4 8 4q-127 97 -127 154l2 -10q-12 36 -12 92
q0 150 200 311q63 41 103 56.5t94 15.5q38 0 69.5 -14.5t32.5 -14.5l25 -14q34 -40 91 -74.5t122 -34.5q25 0 59 9.5t50 9.5q20 0 42.5 -31.5t22.5 -56.5q0 -18 -20 -41l-25 -23q-1 0 -35 -4t-78 -4h-20q0 -5 2 -17t2 -20q0 -40 -14 -86t-46 -95.5t-77 -88.5t-115.5 -64.5
t-153.5 -25.5q-29 0 -51 -11.5t-22 -25.5q0 -26 20 -43.5t40 -21.5l20 -5q35 -12 137 -12q39 0 64.5 -5t52.5 -13.5t51 -12.5q118 -3 172.5 -47.5t54.5 -93.5l-6 -55q-11 -100 -29 -134.5t-73 -78.5h2q-76 -66 -114 -92t-75 -33q-45 -26 -91 -38t-130 -12zM295 -256l2 -20
l178 -48h10q2 0 6.5 1t6.5 1h2q0 1 9 1.5t57 16t122 48.5q62 28 82.5 53.5t20.5 63.5q0 29 -33.5 42.5t-76.5 14.5t-98 3.5t-83 10.5q-21 9 -60 9q-100 0 -149 -43.5t-49 -108.5q0 -15 20.5 -30t32.5 -15zM469 412q4 0 6 2h-2q67 10 117.5 66t50.5 118q0 146 -109 184l3 -2
l-33 11q-34 -1 -61 -21.5t-40.5 -47.5t-20.5 -47t-7 -26q0 -15 -6.5 -45t-6.5 -57q0 -28 7 -52.5t16.5 -39.5t20.5 -25.5t18.5 -15t9.5 -4.5h29q4 0 8 2z" />
    <glyph glyph-name="h" unicode="h" horiz-adv-x="1200" 
d="M1010 -4q-18 0 -33 10v-2q0 -1 -28.5 -3.5t-39.5 -2.5q-24 0 -35.5 4t-13.5 4q-8 -4 -26 -4q-21 0 -55.5 9t-39.5 9q-17 0 -44 -11t-44 -11q-36 0 -65 24t-29 50q0 18 23.5 37t47 32.5t23.5 16.5q26 18 30 30.5t7 71.5l8 150v-2q0 16 2 38.5t2 28.5q0 17 -13 111t-13 110
q-12 22 -40.5 35.5t-62.5 13.5q-55 0 -88 -26v2q-27 -27 -47 -43t-26 -19t-10 -8t-9 -18q-13 -33 -16.5 -47.5t-6.5 -56.5t-3 -126q0 -45 0.5 -79t1 -52t1 -28.5t1 -15t0.5 -5.5v-14q0 -23 20 -37t44.5 -20t44.5 -20t20 -36q0 -31 -28.5 -46t-74.5 -15q-19 0 -55 4t-80 4
q-50 0 -88.5 -6t-48.5 -6l-23 -4q-8 -4 -22 -4q-21 0 -40.5 16.5t-19.5 36.5q0 31 7 45.5t19.5 19.5t26.5 10t32 26.5t32 60.5q4 16 4 88q0 65 -10 127l-6 94q0 4 1 11.5t1 10.5q0 1 -1 3t-1 3v7q0 26 10 111t10 130l-10 242v-2q0 18 7 96.5t10 79.5q-7 0 -21 2.5t-34.5 9
t-35 21.5t-14.5 35q0 52 90 79l58 5q14 1 29.5 6t24 8.5t28 14t22.5 12.5l37 18q19 0 31.5 -4t24 -24t11.5 -56q0 -22 -16 -82t-16 -147v-144q0 -130 -2 -157q40 26 117 58t132 32q67 0 103.5 -8t54 -20t55.5 -48q61 -59 66 -88q14 -29 18.5 -84t4.5 -168q0 -63 -5 -78v-6
q0 -1 2.5 -13.5t4.5 -39t2 -60.5q0 -16 -2 -35.5t-2 -21.5q4 -8 4 -29q0 -12 -9 -39l2 5q0 -11 18.5 -29t18.5 -29q0 -6 32.5 -14.5t65.5 -27t33 -48.5q0 -31 -16.5 -40t-56.5 -9z" />
    <glyph glyph-name="i" unicode="i" horiz-adv-x="624" 
d="M100 -6h-2q-32 2 -44.5 14t-12.5 43q0 29 51 58l68 36h-2q16 12 36.5 46t20.5 73q-1 11 -4 33.5t-10 73.5t-15 118l-8 66q-8 46 -8 72q0 7 1 16.5t1 11.5v27l-4 2q-42 5 -64 16.5t-22 36.5q0 20 28 37t87 50t108 75q43 37 62 37q22 0 35 -8t18.5 -25t6.5 -29.5t1 -35.5
q0 -29 -6.5 -94.5t-15.5 -88.5q1 0 2 -11.5t2 -30t2.5 -41t2.5 -45t1.5 -41t1.5 -29.5v-11q0 -35 -4 -88.5t-4 -93.5q0 -56 7 -72.5t38 -31.5q35 -17 63 -45q49 -14 49 -66q0 -34 -7 -42.5t-40 -8.5q-74 0 -106.5 9t-81.5 9h-15q-1 0 -8 -2t-10 -2l-66 -12q-51 -10 -108 -10
q-4 0 -12 2t-13 2zM279 1071l-11 8h-2h-4t-6 2h2q-63 22 -86 41q-35 30 -35 78q0 56 43.5 114t89.5 58q67 0 116.5 -39t49.5 -110q0 -46 -26.5 -79t-63.5 -46q-22 -27 -67 -27z" />
    <glyph glyph-name="j" unicode="j" horiz-adv-x="569" 
d="M-14 -461q0 37 71 104t95 74q16 16 30.5 68.5t14.5 103.5q0 14 -7.5 110t-7.5 204q0 65 4 147v-2l7 207q1 23 2 72t2 67l-17 11q-20 12 -44.5 19t-34 14t-9.5 26q161 98 197 123q70 45 98 45q26 0 31.5 -8t5.5 -37v-25q0 -12 -6 -24v4l-19 -70q-8 -13 -8 -33l2 -10
q2 -10 2 -16l8 -90q0 -19 5 -82v-66q0 -1 -1 -28.5t-2.5 -97.5t-1.5 -175q0 -108 -2 -169.5t-4 -76.5t-5 -29.5t-5 -29.5q-29 -104 -60 -152t-91 -94q-63 -68 -110 -103.5t-67 -35.5q-29 0 -51 14t-22 41zM268 1092q1 0 -3 1q-107 30 -125 104q-3 12 -3 26q0 46 52 94.5
t85 48.5q48 0 86.5 -42.5t38.5 -82.5q0 -42 -16 -67t-80 -68l-8 -6l2 2q-17 -10 -29 -10z" />
    <glyph glyph-name="k" unicode="k" horiz-adv-x="1200" 
d="M74 16h-15q-41 3 -41 41q0 43 93 101l32 20v-4q0 3 1 8.5t1 7.5l2 3q0 14 -2 33t-2 26q0 20 15 35q-4 8 -4 71v37q0 9 1 34.5t2 76t1 119.5v317q0 236 2 240q-4 -2 -10 -2q-11 0 -42.5 15t-39.5 17q-24 2 -34.5 10t-10.5 31q0 1 1 6.5t5 18t12 29.5l18 39l37 10l-2 -2
q45 16 74 30l22 9l-2 -2q12 3 27 14l37 27q42 30 88 30q29 0 51.5 -14.5t22.5 -44.5q0 -28 -17 -62l4 7q-1 -5 -5 -15.5t-5 -15.5v-47q12 -105 12 -248q0 -445 -16 -455q29 2 79 35t101 94l68 82q-1 0 -3 -1t-3 -1q-41 0 -84 17.5t-43 46.5q0 20 22.5 38t46.5 23l23 4
q9 -6 145 -10l179 -4q6 -6 17.5 -10t17 -11.5t5.5 -25.5q0 -21 -11.5 -31.5t-34 -16.5t-48.5 -13.5t-61 -30t-66 -58.5l-16 -14q-2 -3 -7 -8.5t-8.5 -9.5t-3.5 -5l-127 -133q-22 -22 -28 -22q0 -3 61 -76v2l74 -80l76 -72l33 -24l33 -24t29 -20.5t35 -22.5t36 -19l63 -16
l-2 2q94 -20 94 -66q0 -52 -57 -55l-145 -6q-79 -5 -189 -5h-65q-37 0 -37 37v6q-4 8 -4 23q0 20 26 37l-45 61q-24 35 -51 70l-31 39q-17 12 -36 34t-31.5 37t-18.5 15q1 -19 3.5 -48.5t2.5 -56.5v-38q0 -58 4 -69t25 -17q30 -11 44 -22.5t16 -19.5t2 -24q0 -19 -21 -38
t-65 -19h-25q-7 0 -25 1t-26 1q-14 0 -54 -4l-77 -7h2q-43 -4 -115 -4q-2 0 -6 1t-6 1zM158 287l6 8q-6 -3 -6 -8z" />
    <glyph glyph-name="l" unicode="l" horiz-adv-x="587" 
d="M74 6l-17 8q-43 10 -43 60q0 36 12 48.5t43.5 27t57.5 40.5v-2l25 21q0 5 1 16t1 15l2 217l-9 438q-3 127 -45 307l2 -4q-6 15 -6 19q0 -5 -4 -5q-80 0 -80 72q0 46 11 60.5t57 37.5l104 52q13 11 39 24h-2l6 2q3 0 39 22.5t58 22.5q71 0 71 -86q0 -20 -6.5 -34
t-15 -26.5t-15 -61t-6.5 -128.5q0 -8 1.5 -41t3 -89t1.5 -121t-3 -297.5t-3 -305.5q0 -41 0.5 -66.5t0.5 -39t1 -19t1.5 -6t2.5 -0.5q10 0 32 -13t32 -13q76 -4 92 -105q0 -21 -13.5 -28t-66.5 -7h-143q-92 0 -139 -7t-62 -7z" />
    <glyph glyph-name="m" unicode="m" horiz-adv-x="1822" 
d="M680 4h-2h-11.5t-17 4t-20 10.5t-14.5 21t-7 34.5q0 22 22.5 42t45 31t22.5 13q21 10 33 150t12 220q0 50 -1.5 78.5t-9 56.5t-20.5 41t-38 24.5t-59.5 14.5t-86.5 3q-32 0 -56 -13.5t-35 -33.5t-16 -36.5t-5 -29.5q-10 -62 -10 -100q0 -43 4 -82.5t4 -116.5
q0 -18 -1 -39.5t-1 -26.5v-18q0 -43 13 -65.5t33 -28t41 -8t40.5 -12.5t27.5 -34q0 -41 -11.5 -51t-70.5 -10q-39 0 -76 5t-96 5q-5 0 -18 -1t-21 -1q-30 0 -36 2l-48 -14q-78 -21 -94 -21q-59 0 -59 41q0 28 19.5 46.5t55 34.5t42.5 20q30 37 39.5 69.5t13.5 130.5l-4 347
h-8q-2 0 -6 -1t-7 -1q-52 0 -71 12.5t-19 56.5q0 24 24.5 43t110.5 49q29 4 56 19t44 30.5t39 28t42 12.5q43 0 43 -38q0 -5 -2 -9q56 17 172 17q57 0 92.5 -12.5t59.5 -30.5t38 -23l45 -43q48 30 111.5 60t79.5 34q53 21 139 21q32 0 55 -3.5t35 -7t16 -3.5t22 -10t27 -21
l13 -17q17 -15 28 -41t31 -102l14 -90q11 -32 11 -102q0 -3 -2 -29.5t-4 -80t-2 -120.5q0 -29 1 -43t5 -33t12.5 -29.5t24.5 -22t40 -21.5l21 -15q14 -14 34 -23t28 -19.5t8 -37.5q0 -32 -20.5 -40.5t-94.5 -8.5q-31 0 -74.5 5.5t-118.5 5.5q-69 0 -102 -11h-33
q-69 0 -69 64q0 39 25.5 61t56.5 28t59 22t31 44q12 59 12 183q0 157 -13.5 241t-50.5 84q-10 0 -20 -3l-10 -3q-6 0 -14 3t-13 3l-16 -4q-16 -4 -35 -4q-11 0 -35 8q-2 -2 -14 -2l-35 -12q-20 -7 -29.5 -13t-22.5 -22.5t-19 -45t-12.5 -77.5t-8.5 -123.5t-2 -179.5v-53
q0 -19 12 -25l35 -28h-2l37 -23q25 -11 42 -36.5t17 -37.5q0 -19 -17.5 -30t-48.5 -11q-24 0 -48 2t-42 4t-32 4.5t-22 4.5t-9 2q-16 -4 -25 -4l-102 -23q-21 -8 -31 -8zM242 55l-2 -2h8q-1 0 -3 1t-3 1z" />
    <glyph glyph-name="n" unicode="n" horiz-adv-x="1202" 
d="M934 741v-2q14 -37 14 -84q0 -155 -9 -240t-9 -145q0 -15 6 -39l18 -90q5 0 25 -4h-2q25 -5 38 -9t29 -15t22.5 -31t6.5 -51l-31 -31l-110 8q-28 4 -33 4l-16 -2q-35 0 -66 -8l-53 -6q-19 0 -60 -3t-57 -3q-14 0 -26 6l2 -2q-31 7 -36 14t-5 39q0 28 18.5 46t47 34
t40.5 31q10 20 10 280q0 102 -4 148l-6 43q-12 46 -39 72t-65 26q-55 0 -103 -22l-18 -5h2q-74 -16 -76 -114q2 -8 2 -60v-280q4 -13 6.5 -32.5t6.5 -31t14 -16.5q78 -40 97 -56q30 -26 30 -59q0 -16 -9.5 -23.5t-42.5 -11.5t-102 -4q-74 0 -110 -8l-29 -6q-215 0 -215 78
q0 19 6.5 29t38.5 30l-2 -2q31 26 44.5 37.5t22 24.5t8.5 19t2.5 28t6.5 43q8 39 8 100v104q0 78 -8 140l-6 39q0 13 -14 20t-31 9.5t-31 17t-14 41.5q0 26 43 63l32 17q19 5 30 9t30 16.5t43 33.5q31 27 44 37.5t32.5 20.5t37.5 10q16 0 39 -19t23 -55q0 -13 -7 -36t-7 -28
q1 0 27 19t54.5 36t76 32.5t93.5 15.5q61 0 140.5 -31t79.5 -66q7 -4 29.5 -39t25.5 -51z" />
    <glyph glyph-name="o" unicode="o" horiz-adv-x="1159" 
d="M451 -4h-11q-51 0 -80 18h2q-12 4 -20.5 9.5t-15.5 13t-9 8.5l2 -2l-14 10q-37 9 -90 70q-65 37 -106 130.5t-41 238.5q2 2 2 12v6q0 21 8 33l-2 -2l4 12q22 110 114.5 224t178.5 159q69 35 202 35q53 0 99.5 -13.5t62.5 -25.5q134 -104 197 -203t63 -166
q0 -103 -41 -203q-8 -18 -8 -22l-2 -8l-4 4l-4 -23q0 -62 -37 -94l-10 -14q-87 -108 -186.5 -158.5t-239.5 -50.5q-10 0 -14 2zM555 162q0 -2 2 -2q12 0 63 35.5t66 50.5l10 26v-2q33 96 43 109l4 10l2 12q0 1 -1 -1t-1 -3q0 2 1 3.5t3 2.5t4.5 6t5 12.5t5 23t4.5 37t3 55.5
t1 77l-2 2q0 2 -1 9.5t-1 9.5v12q-4 6 -4 27l-4 10q-3 3 -3.5 7t-2.5 9t-19 23t-49 45l-10 12q-14 0 -17 0.5t-4.5 3t-4.5 6t-20.5 11.5t-47.5 18q-27 8 -43 8h-9q-44 0 -58 -7t-50 -46l-10 -10q-38 -40 -58.5 -81.5t-29.5 -102.5q-7 -4 -7 -15l-2 -30q-2 0 -2 8
q0 -11 -6 -17v-12q-1 -1 -4.5 -24.5t-3.5 -26.5l4 -57v6q6 -8 6 -37q4 -18 32 -61t28 -58l55 -63l35 -27q9 0 18.5 -4t40.5 -4q19 0 39 4zM944 322l2 8zM295 414l2 2z" />
    <glyph glyph-name="p" unicode="p" horiz-adv-x="1202" 
d="M70 -498l-31 23q-29 20 -29 47q0 22 36 57t36 43q18 4 18 6l17 21q2 2 2 43v18q0 76 16.5 160.5t16.5 249.5q3 75 7 130t5.5 84t1.5 71q0 40 -1.5 88t-4 81t-4.5 33l-27 17l2 -2q-21 10 -58 18t-53 20t-16 42q0 26 29 56t88 48q17 3 37.5 12t38.5 19.5t33 20t26 16.5
l10 8q11 0 30 11t32 11q47 0 47 -57q0 -18 -6 -33l-7 -14q63 47 129.5 81t108.5 34q135 0 218.5 -44.5t131.5 -154.5v2q3 -6 9.5 -14.5t9.5 -14.5l10 -32v2q25 -84 25 -115q0 -45 -9 -117l-12 -67q-26 -143 -88 -240q-50 -74 -98 -92h-2q-2 -2 -4 -2h2l-23 -23
q-34 -34 -79.5 -52t-135.5 -19q-31 0 -45 2l-68 6q-55 12 -73 12q-16 0 -19 -25q3 -8 4 -20t1.5 -25t1 -41t1.5 -55q4 -88 11 -98l10 -31q14 -5 35 -30.5t28 -28.5q40 -12 59 -27t25 -39v2l11 -35l-19 -16q-11 -9 -42.5 -18t-67.5 -9q-27 0 -104.5 13.5t-127.5 13.5
q-3 0 -9 -1t-9 -1h-13q-13 -3 -41 -15t-34 -14zM506 131l8 2q58 6 79.5 16.5t61.5 53.5v-2l58 73q8 21 19.5 44t17.5 36t6 17l8 26v-2q1 0 4 27t10.5 60t18.5 44q-3 -2 -4 3v16q0 60 -24 106.5t-62 69.5l6 -4q-18 3 -33.5 18.5t-30.5 20.5l-24 6q-24 8 -39 8q-74 0 -121 -35
l-74 -45v2q-14 -6 -17 -12.5t-3 -34.5q0 -241 6 -289v2q2 -12 2 -94q0 -44 2.5 -58.5t11.5 -23.5l21 -22q8 -11 13 -15.5t20 -9t40 -4.5h19zM793 76l2 2h2z" />
    <glyph glyph-name="q" unicode="q" horiz-adv-x="1181" 
d="M930 -473q-7 0 -24 8.5t-48.5 16.5t-75.5 8q-22 0 -66 -15.5t-59 -15.5q-12 0 -35.5 23t-23.5 34q0 33 9.5 47.5t24 17.5t45.5 17t62 41q18 16 23.5 51t5.5 164q0 16 -1 39t-1 31v49q-59 -51 -240 -51q-24 0 -53 10l-43 12q-38 11 -108.5 67.5t-116.5 106.5l-15 17
q-8 0 -14 4.5t-8 8t-6 13.5v2q-7 3 -12 17t-11 33.5t-12 29.5q-1 2 -6 9t-7 10t-6 10.5t-6 12.5t-4 12t-2 14l-6 22q-10 38 -10 82q0 77 37 129l-2 -2l20 37q53 100 125 158l53 43q45 37 119 59.5t156 22.5q37 0 55 -4h-2q1 0 27 -3.5t52.5 -7t55 -9t39.5 -11.5q1 0 10 6
l35 25q36 24 51 24q4 0 9 -1t15 -9t18 -21.5t14 -42t6 -67.5q0 -3 -1 -7.5t-1 -6.5v-11q0 -18 2 -78t2 -67q0 -215 -10.5 -401.5t-10.5 -440.5q0 -20 0.5 -35.5t1 -24.5t0.5 -11v-9q0 -4 -1 -11t-1 -11q0 -7 45 -10.5t89.5 -16.5t44.5 -43q0 -25 -21.5 -44t-50.5 -27.5
t-49.5 -12.5t-28.5 -4q-12 0 -16 -4h2q-11 -8 -39 -8zM612 139q7 0 11 2h4q73 8 84 27l18 14q9 4 12.5 9.5t7 31.5t4.5 70.5t3 136.5l6 162q0 5 1 15.5t1 15.5q0 71 -16 114q0 11 2 17q-4 2 -64 2q-41 0 -69.5 -4t-38.5 -8.5t-19 -8.5t-16 -4q-45 -18 -66.5 -29.5t-45 -30.5
t-35.5 -45.5t-19 -66.5l-8 -41q-9 -44 -9 -61q0 -50 11.5 -96t20 -64.5t24.5 -48.5l10 -21v4q19 -40 60 -68t81 -28q3 0 17.5 2t27.5 2zM752 752l-2 -4q0 1 1 2t1 2z" />
    <glyph glyph-name="r" unicode="r" horiz-adv-x="882" 
d="M96 4h-2q-9 0 -21 3t-25 14.5t-13 29.5q0 11 4.5 21.5t14.5 21t18.5 18t24 17.5t22 14t23.5 13l16 8q2 14 4 22l2 2q1 2 2.5 3.5t1.5 3.5l-8 146v19v17q0 12 2 16t2 51q0 2 -1 7.5t-1 7.5v10q0 26 4 48t4 34q0 1 -2 22t-2 35q0 5 2 20.5t2 39.5q0 9 -1 20t-1 14v31
q-2 -10 -16 -10q-19 0 -31.5 1t-26.5 5t-21 13t-7 24q0 7 40 43t62 43l43 18l74 41q12 6 29.5 16.5t27.5 15.5t18 5q21 0 37.5 -20t16.5 -43q0 -25 -6 -49l18 6q7 0 63 39t82 47q30 6 74 6q14 0 39.5 -10.5t52.5 -41t27 -71.5q0 -43 -25 -71t-54 -37t-60 -9q0 2 2 2l-19 4
q-30 23 -98 23q-27 0 -62 -9t-40 -28l2 2q-11 -37 -11 -430q0 -63 15 -92l4 -8q8 -4 16 -4l19 -9q85 -27 101.5 -39t18.5 -28q0 -19 -16 -37t-45 -18h-8q-3 0 -10 1t-11 1h-10q-2 0 -13 -1t-18 -1q-27 0 -57.5 4t-91.5 4l-57 -4q-46 -3 -82 -15l6 2q-20 -14 -58 -14
q-2 0 -6 4z" />
    <glyph glyph-name="s" unicode="s" horiz-adv-x="882" 
d="M209 -12q-35 0 -55 8t-27.5 25.5t-9 33.5t-1.5 44.5t-3 47.5q-11 46 -11 58q0 37 18.5 58.5t69.5 21.5q11 0 20 -1.5t16 -5.5t12 -7.5t9.5 -9.5t6.5 -9.5t5.5 -10.5t4.5 -8l2 -6q4 -6 17 -15t22.5 -20.5t9.5 -27.5q0 -11 33 -19t88 -8q33 0 47 0.5t20.5 3t6 6t3 11.5
t11.5 16q19 19 19 55q0 25 -49 64l2 -2q-3 1 -29.5 7t-58.5 14t-50 16q-61 24 -82 45q-22 1 -37 15t-22.5 28t-9.5 14l-21 19q-5 18 -26 43v-3q-43 46 -43 142q0 67 31.5 125t81 95.5t107 59t112.5 21.5q124 0 157 -19q6 0 10 7l29 4q45 0 45 -64q0 -11 -4 -40.5t-4 -80.5
q0 -46 -17 -71t-44 -25q-19 0 -43 26.5t-42.5 57.5t-38.5 57.5t-32 26.5q-50 0 -110 -36t-60 -75q0 -60 57.5 -100t177.5 -72q145 -39 185 -122l16 -23l-2 2q25 -42 25 -80q0 -125 -100.5 -218t-264.5 -93q-38 0 -79.5 12t-47.5 12q-2 0 -23.5 -15t-29.5 -15z" />
    <glyph glyph-name="t" unicode="t" horiz-adv-x="815" 
d="M465 14h-131q-33 0 -39 4h2q-41 20 -70.5 59t-43.5 85.5t-19.5 84.5t-5.5 72v197q1 11 1.5 58t2.5 87t6 44h-10q-80 0 -104.5 13t-24.5 50q0 7 4 14.5t14 17t17.5 16t23.5 19.5t23 19l36 31l-2 -2q32 30 64.5 80.5t57.5 79t57 28.5q31 0 48.5 -20.5t30.5 -87.5
q0 -28 15 -63t16 -40q10 -4 62 -4h18q4 0 14 1t15 1q81 0 114 -33l17 -26q6 -30 10 -37v-4q0 -25 -33 -42.5t-47 -17.5l-6 1q-7 1 -18.5 2.5t-27 3t-35.5 3.5t-41.5 3.5t-47 2.5t-49.5 1l-6 -76q-4 -50 -4 -107q0 -239 24 -309l10 -20v2q5 -13 9.5 -19t20.5 -11t44 -5
q22 0 61 17.5t58 17.5q53 0 53 -53q0 -77 -133 -121zM680 776v-4v4z" />
    <glyph glyph-name="u" unicode="u" 
d="M655 -12q-14 17 -14 30q0 18 23 56q-14 -14 -35 -23l-88 -57q-37 -12 -86 -12h-25q-72 0 -86 10l-14 6q-18 3 -35.5 11t-27 14t-24 17.5t-16.5 12.5l-24 17q-4 16 -31.5 45t-38.5 59v-2l-16 37l10 299q0 12 2 41t2 59q0 36 -0.5 60t-3 41.5t-3.5 26.5t-7.5 15.5t-8.5 7.5
t-13.5 4t-16.5 5l-31 10q-21 7 -29 10t-16 12.5t-8 24.5q0 19 7 28.5t28.5 16t47 10t78 13t105.5 22.5l47 7q20 4 33 4q11 0 29 -19t18 -43q0 -28 -5.5 -42.5t-12 -22.5t-12 -50t-5.5 -118q0 -14 1 -35.5t1 -28.5v-41q0 -37 -3 -76t-3 -65l6 -82q0 -46 45.5 -85.5
t92.5 -39.5q27 0 59.5 14t49 25.5t20.5 15.5l14 13q16 11 16 63q-2 6 -2 27q0 34 10.5 167t10.5 150q0 51 -15.5 76t-38 28t-45 4t-38 15.5t-15.5 50.5q0 43 123 50q25 0 52 6t40 6q8 0 45.5 7t48.5 11l25 8q9 3 25 3q27 0 45 -16.5t18 -43.5q0 -24 -31 -55l-16 -19v-4
q0 -5 2 -15t2 -15q0 -30 -17.5 -117t-17.5 -107v-2q0 -6 -1 -18t-1 -19q0 -21 4 -49v2q3 -8 6 -96l4 -151q113 0 113 -70q-9 -39 -59 -49l-29 -6q-59 -13 -81 -19.5t-30 -10.5t-23 -19t-36 -31q-34 -21 -43 -21q-20 0 -31 21z" />
    <glyph glyph-name="v" unicode="v" horiz-adv-x="1019" 
d="M428 6l-20 10q-32 15 -41 52v-2q-73 145 -108.5 221t-43 102t-8.5 41t-19.5 67.5t-62.5 151.5q-46 101 -49 101q-1 0 -3.5 -1t-4.5 -1q-13 0 -29.5 2.5t-39 10t-37.5 26t-15 44.5q0 21 41.5 38.5t87.5 17.5q27 0 39 -2h-2q32 -4 69 -4q27 0 77 2t69 2q67 0 100.5 -5.5
t41 -13.5t7.5 -24q0 -35 -31.5 -52.5t-93.5 -29.5h-2q19 -49 21 -66l-2 4l106 -327l47 98q43 82 59.5 134t26.5 75q23 50 27 72q0 6 -31.5 12.5t-62.5 21t-31 41.5q0 25 43 37l27 8h-5q0 1 56.5 3t128 6t100.5 8q50 6 82 6q53 0 53 -49q0 -33 -20.5 -49.5t-47.5 -20.5
t-64 -17t-62 -38l-10 -12q-18 -32 -62 -122.5t-45 -92.5l-47 -97v2q-5 -12 -14.5 -28.5t-10.5 -18.5v2l-20 -30q-14 -25 -33 -81.5t-29 -72.5l-26 -74v2q-23 -61 -36 -74q-16 -16 -40 -16z" />
    <glyph glyph-name="w" unicode="w" horiz-adv-x="1570" 
d="M446 18q-24 0 -40 19t-20.5 34.5t-4.5 20.5v2q-22 32 -32.5 50.5t-26 62.5t-35.5 121l2 -2l-21 59v-2l-20 47q-6 18 -11.5 32.5t-11 27.5t-8.5 21t-8 18t-6.5 14t-7 13t-6.5 11.5t-7 12.5t-8 12l-14 22l2 -2q-49 68 -66 99v4l2 -2q-2 2 -2 4q-4 -2 -8 -2q-9 0 -19.5 15
t-17.5 18l-4 4q-26 10 -63 36t-37 37q0 22 29 40t55 18q21 0 60 -18.5t89 -18.5l60 12q10 0 22 4v-2q29 21 109 21q26 0 45.5 -13t19.5 -30q0 -33 -17 -54.5t-37 -29t-37 -16t-17 -17.5q0 -6 4 -10l35 -93q11 -36 32 -69q1 -2 9 -18.5t15.5 -32t16 -41.5t11.5 -49
q0 -26 10 -46q11 21 46 110.5t54 121.5q20 33 27 106v29l-17 19q-1 1 -26 16l-13 6q-39 22 -52 36t-13 36q0 17 7 26t41 16t101 7q21 0 30 -5t26 -5q48 0 155 26q20 4 33 4q40 0 63 -21t23 -48q0 -30 -14.5 -48t-52.5 -24l4 2l-45 -16v-11q0 -3 1 -9.5t1 -10.5q0 -1 -4 -37
q3 -52 35.5 -125.5t58.5 -97.5l35 -68q15 28 32 66.5t17 44.5q20 39 32.5 66.5t15 37t3.5 17.5t2 10l-2 -2q6 24 6 33l16 73h-6q-86 36 -86 111q0 45 56 45q36 0 55.5 -2t38 -6t33.5 -6q16 -8 36 -8q39 0 78.5 16t67.5 16q39 0 51 -14t12 -51q0 -36 -20 -53t-45 -18.5
t-52 -11t-38 -30.5q-61 -75 -93.5 -145t-58 -167t-37.5 -130q-28 -78 -41.5 -113t-32.5 -75.5t-35.5 -55t-35.5 -14.5q-33 0 -53 21.5t-47 82.5q-25 56 -43 89t-27 42.5t-15.5 15t-12 16t-13.5 36.5l-4 22l-37 78l-14 -26h2q-2 -2 -2.5 -3.5t-4.5 -8t-12 -17.5l2 4l-30 -55
q-3 -4 -15 -31t-16 -33l-33 -76q0 -11 -8 -24v2q-1 -4 -6.5 -19.5t-8.5 -24.5t-8.5 -24.5t-10.5 -25t-11.5 -20t-13 -17t-13.5 -8.5l-6 -4l2 4q-9 -9 -29 -9z" />
    <glyph glyph-name="x" unicode="x" horiz-adv-x="1085" 
d="M33 10l-23 8q-24 16 -24 54q0 15 18 37t39 22l45 6l-4 -2q3 1 8.5 0t14.5 1t14 7l31 19q52 33 106 79t72 85l39 45q23 27 28 32l-100 132q-17 20 -31 38l-53 72q-49 64 -80 86q-68 0 -91.5 15.5t-23.5 60.5q0 19 24 40t54 21q5 0 13.5 -2.5t11.5 -3.5l-2 2q16 -4 43 -4
q16 0 84.5 6t77.5 6l65 7q39 0 54.5 -14t15.5 -44q0 -14 -9 -27t-15.5 -18.5t-24.5 -17.5l2 2l-6 -4q4 -22 10 -25l41 -51q17 -22 41 -61t24 -50q15 19 49 75t43 77l13 29q-16 0 -44 30.5t-28 50.5l20 25q33 29 76 29h49q10 0 76.5 14t85.5 14q52 0 80.5 -16t28.5 -37
q0 -32 -35.5 -63t-83.5 -37q-3 0 -24 -25.5t-60.5 -74t-65.5 -78.5l-84 -101q-6 -5 -14.5 -13.5t-11.5 -10.5q7 -11 31.5 -40t43.5 -54.5t19 -38.5q0 -11 42.5 -63t70.5 -75l37 -30q13 -11 53.5 -22.5t69 -28.5t28.5 -48q0 -10 -22.5 -27.5t-38.5 -17.5q-1 1 -13 3.5
t-31.5 8t-33.5 11.5q-15 6 -92 6q-89 0 -132.5 -18.5t-97.5 -18.5q-29 0 -43 23.5t-14 56.5l2 -2q0 8 6 22l37 35q33 33 64 33q-8 30 -109 131q-15 -19 -32 -48t-37.5 -67.5t-24.5 -46.5l-2 -6l8 -8q65 -36 65 -64q0 -22 -23.5 -38.5t-51.5 -16.5q-21 0 -31 6
q-1 0 -6.5 -0.5t-15 -1t-19.5 -0.5q-30 0 -47 6q-61 0 -118 -8t-71 -8q-22 0 -30 8z" />
    <glyph glyph-name="y" unicode="y" horiz-adv-x="1028" 
d="M115 -485h-2q-25 0 -41 8l-29 6q-63 22 -63 78q0 69 35.5 98t76.5 29q18 0 45.5 -6.5t42.5 -6.5q17 0 19 13l28 51q8 8 24.5 43.5t24.5 60.5l5 9v-2q4 8 6 10l55 117q9 9 16 30q-7 28 -44 112.5t-42 84.5q0 7 -23 75t-30 78q-3 3 -31 78v-2q-16 44 -32.5 80.5t-32.5 67.5
t-19 39v-2q0 1 -6 11t-7.5 12t-7 11.5t-8.5 13t-8.5 11t-9.5 11.5l-9 9t-10.5 8t-10.5 5h2q-34 13 -56 35.5t-22 39.5q0 33 12.5 41.5t56.5 8.5h50q15 0 100.5 7t189.5 7q107 0 107 -61q0 -4 -2 -13t-10 -23.5t-20.5 -26.5t-37 -21t-55.5 -9q-12 0 -18 -6q8 -12 8 -26
q0 -2 16 -53.5t37 -114.5t31 -90l6.5 -26l11 -44t11 -46.5t8.5 -42t2 -22.5q3 0 24 53.5t66 158t94 198.5v-2l18 43l-4 4l-3 3q-2 3 -4 4.5t-7 4t-13 3.5t-18 1q-43 6 -60.5 23t-17.5 59q0 31 19 42.5t72 11.5q13 0 35 -2.5t34 -2.5q43 0 152 23q16 0 26 4l-4 2q0 2 31 2
q32 0 46.5 -14t14.5 -45q0 -8 -1.5 -15t-6 -14t-8 -12t-11.5 -11.5t-12 -10t-15.5 -10t-15.5 -8.5t-17.5 -9t-16.5 -9v3q-57 -32 -59 -37l-52 -131l-32 -70q-16 -34 -53 -117.5t-46 -99.5l-28 -62v2q-18 -35 -27 -47v2q-2 -4 -7.5 -11.5t-9.5 -15.5t-8 -18l-213 -456l2 4
q-6 -31 -45 -82l-14 -27l2 -2q0 -6 -19 -21t-49 -29.5t-53 -14.5l-10 -2q-12 0 -16 2zM322 -291l-3 -2z" />
    <glyph glyph-name="z" unicode="z" horiz-adv-x="980" 
d="M127 -10h-21l-26 20q-23 13 -29 37q0 17 37.5 88t52.5 90l13 23q4 5 15 19t17 24v-2q38 41 131 178l107 127l-2 -2q9 16 60.5 69t64.5 84l10 11q-29 0 -65 -7.5t-56 -7.5q-85 -11 -128.5 -33.5t-69.5 -76.5q-13 -26 -32 -42t-30.5 -20t-19.5 -4q-28 0 -41 18t-13 42
q0 34 21 59l12 25q15 15 15 20v8q0 2 -1.5 8t-1.5 9q0 73 76 108q12 0 61 -3.5t58 -4.5q24 0 47.5 6t56.5 6h15q54 6 86 11.5t39 8.5t29.5 5t70.5 2q26 0 67.5 -2t51.5 -2q2 0 6.5 1t7.5 1q55 0 55 -51q0 -12 -23 -53t-36 -58l-16 -18q-1 -8 -5 -16.5t-8 -14t-13 -16
t-13 -15.5v2l-35 -47h2l-22 -31q-34 -34 -55.5 -60.5t-51 -67t-61.5 -80.5q-3 -4 -18 -22t-20.5 -25t-20 -25t-21.5 -28t-19 -26t-19 -26.5t-15.5 -23.5t-14 -23t-8.5 -19q11 0 62.5 8t119.5 13q83 6 102.5 10t28.5 17l35 38q3 4 16 18.5t18.5 20.5t17 17.5t19 16t17.5 9
t19 4.5q43 0 43 -40q0 -25 -15 -52l-30 -53h2q-15 -30 -24 -55.5t-11.5 -38t-2.5 -21.5t-3 -11.5t-7 -3.5t-20 -1q-20 0 -102 7t-115 7q-23 0 -37 -2l-111 -8q-26 -2 -54.5 -3.5t-33.5 -1.5t-22 -3.5t-26.5 -7t-39.5 -15.5l-32 -14q-27 -12 -68 -12z" />
    <glyph glyph-name="braceleft" unicode="{" horiz-adv-x="714" 
d="M502 -252l-39 16q-17 23 -54.5 39.5t-70.5 27t-64.5 42.5t-42.5 84l2 8q-8 19 -8 74v205q0 101 15 121v84l-4 16q0 32 -44.5 58t-64.5 26q-2 0 -4.5 -1t-3.5 -1h-8q-37 0 -37 37q0 21 16.5 36.5t71.5 38.5q9 4 21.5 17t20 23t20.5 30t14 21l2 8q0 24 8 37v-2
q18 36 18 225q4 103 16.5 155t12.5 56v18l16 23l11 35l30 34q29 31 64 45h-2q8 5 34.5 26.5t50.5 35.5t40 14q22 0 45.5 -19t23.5 -32l-2 -14q0 -15 -21 -35t-53 -51.5t-51 -63.5l2 2l-16 -39q0 -6 -6.5 -22.5t-9.5 -26.5v2l-13 -84q-4 -50 -4 -182q0 -62 4 -94l2 -43
l-16 -39q-2 -3 -2 -10q0 -17 -25.5 -49t-25.5 -42l-19 -22v-6q14 -12 24 -22t18.5 -21.5t14 -18t10.5 -20t7.5 -19t6.5 -24t5 -25t5 -31.5t6 -36q8 -50 8 -84v-27q0 -3 -1 -17.5t-1 -27.5v-41q0 -10 1 -30.5t1 -30.5q0 -17 -1 -48t-1 -44v-56q0 -30 1 -35t7 -10l35 -20l-2 2
l133 -76q0 -30 -23.5 -55t-66.5 -25h-37z" />
    <glyph glyph-name="braceright" unicode="}" horiz-adv-x="714" 
d="M147 -248q-17 0 -29 12t-12 31q0 18 5.5 27t18 22.5t22.5 34.5l57 70q2 2 8 20v6q9 24 12 91l13 120q1 15 4.5 43.5t5.5 52.5t2 48q0 9 -4 52.5t-4 51.5q0 32 19.5 83.5t45.5 51.5q6 0 27.5 20t21.5 25q-2 -2 -4 -2q-40 0 -80 14t-49 50l2 -2q-8 27 -8 104q0 79 10.5 173
t10.5 190q0 45 -4.5 73t-17 45.5t-22 24.5t-32.5 19l-33 16q-61 30 -61 55q0 82 88 82q136 0 201.5 -68.5t84.5 -213.5q0 -24 11 -70l2 -31q7 -91 6 -98q0 -38 -11 -85t-18 -54q12 0 15 6v-21l-5 -4v2q0 -2 5 -12l14 -29l-21 -20q9 -13 9 -27q0 -1 -1 -3.5t-1 -4.5
q0 -14 23 -25.5t50.5 -20t50.5 -29t23 -50.5q0 -32 -45.5 -63t-67.5 -31q-6 -5 -15 -11q-20 -16 -23 -28q-3 -10 -7 -52v-5l-8 -273q-5 -180 -9 -200t-22 -44l-18 -24q-42 -51 -86.5 -86t-63.5 -41v31q-36 -19 -86 -19zM442 758q0 -2 2 -2z" />
    <glyph glyph-name="asciitilde" unicode="~" horiz-adv-x="833" 
d="M115 246h-6q-21 0 -34 12.5t-15.5 21.5t-2.5 15q0 16 13 39l-2 -6q4 13 34 62.5t60 88.5l12 17q41 53 96 53q40 0 83.5 -2.5t71 -5t54 -6t31.5 -3.5q47 0 74.5 10t37 24t16 28.5t20.5 24.5t42 10q41 0 54.5 -14t13.5 -42q0 -42 -66 -118q-17 -32 -28.5 -46t-37 -22
t-71.5 -8q-45 0 -76 2t-45 2q-10 -2 -36 -2l-80 -4l-13 -8l2 2q-39 -31 -73.5 -67.5t-52.5 -49t-46 -12.5q-14 0 -30 4z" />
    <glyph glyph-name="exclamdown" unicode="&#xa1;" horiz-adv-x="485" 
d="M219 -580q-21 0 -31 5l2 -3q-27 6 -40 9t-26 11t-17.5 14t-8.5 24t-4 34v50q0 45 1 82.5t4 74.5t5 60.5t8 61t8.5 54t11 63t11.5 65.5q0 33 9 59h-2q10 45 10 127q0 35 -2 79t-2 48q0 29 6 52t14.5 36t18.5 22t16.5 12t9.5 3q34 0 56 -16.5t30 -34.5l6 -15q11 -25 11 -37
v-38q8 -40 8 -95q0 -57 -4 -73q0 -3 1.5 -18t3 -38.5t1.5 -46.5t-3 -52t-3 -38q1 -2 1 -6t0.5 -16.5t2.5 -28.5v-68q18 -65 18 -284q0 -87 -49 -111l-27 -14v2q-23 -15 -55 -15zM193 555h-5q-32 0 -32 35l-11 10q-23 20 -29.5 35t-6.5 45q0 74 34 108q7 22 35.5 44t79.5 22
q39 0 78 -45t39 -90q0 -30 -38.5 -84.5t-70.5 -67.5l-14 -4q-12 -10 -47 -10q-3 0 -7 1t-5 1z" />
    <glyph glyph-name="dieresis" unicode="&#xa8;" horiz-adv-x="768" 
d="M465 1122q-35 0 -61 34.5t-33 72.5q0 24 9 50.5t27.5 53t54 43.5t81.5 17q51 0 85.5 -26.5t47 -59.5t12.5 -66q-8 -55 -82 -87t-141 -32zM154 1116l-19 4q-94 28 -94 107q0 45 54 106.5t112 61.5t109 -37.5t51 -83.5q0 -37 -27 -69t-53 -44l4 2l-21 -10l-24 -4l2 -2
q-15 -5 -36.5 -13t-36 -13t-21.5 -5z" />
    <glyph glyph-name="ordfeminine" unicode="&#xaa;" horiz-adv-x="677" 
d="M412 817l6 -4q-12 8 -15 39q-4 -4 -8.5 -10t-7 -8t-9 -5t-18.5 -6l2 2q-6 -2 -32.5 -10.5t-46 -13t-33.5 -4.5q-42 0 -92 30.5t-76 73.5l-8 10l12 -10q-10 8 -19.5 37t-9.5 45q0 48 42 91.5t73 51.5q27 7 49 25l33 14l37 6q8 1 19 2.5t17.5 2.5t13.5 3t10 5t3 8
q0 23 -14 37.5t-39 15.5q-8 0 -20 -4v-8q-3 -46 -21 -59t-70 -13q-35 0 -62.5 24t-27.5 62q0 46 37 78t82 49l27 10h-2l10 5h-4l47 14l-2 -2q12 6 33 6h67l41 -23h-2q78 -43 78 -73q18 -48 18 -107q0 -4 -1 -10t-1 -8v-17q0 -55 7 -111t16 -63q-2 -4 -2 -12q0 -6 2 -10v-6
q7 -7 34.5 -15t49.5 -17t22 -20q0 -24 -76.5 -71t-103.5 -47q-7 0 -15 -2t-11 -2q-21 0 -39 24zM326 967l6 4h2q-2 2 2 8l6 6l-4 21q0 12 -2 20.5t-4 11.5l-2 4h2q-19 0 -38.5 -14t-31.5 -37l-10 -12q11 -16 31 -16q35 0 43 4zM252 977l-10 -16q10 0 10 16z" />
    <glyph glyph-name="logicalnot" unicode="&#xac;" horiz-adv-x="993" 
d="M844 135v2q-32 15 -42.5 26t-10.5 34q0 30 -19.5 108t-19.5 86q-7 54 -13 60h-84q-55 -1 -128 -4.5t-101 -4.5l-137 -6q-17 0 -45 -4q-59 0 -92.5 8.5t-41 17.5t-14.5 27q-55 25 -55 56q0 19 30 35.5t58 19.5q2 0 185.5 5t372.5 10.5t198 6.5h14q19 0 33.5 -16.5
t23.5 -47.5t15 -66.5t9 -83.5t4 -87.5t1 -89.5q0 -63 -12.5 -84.5t-50.5 -21.5h-33q-15 0 -39 12z" />
    <glyph glyph-name="uni00AD" unicode="&#xad;" horiz-adv-x="702" 
d="M170 393q-53 0 -99 16t-46 48l2 -8l-2 10q-13 16 -13 26q0 17 6.5 30t27 26.5t65.5 20.5t114 7h121q47 0 74.5 -0.5t65 -1.5t58.5 -3t47 -6t40 -10t27 -14.5t18.5 -20t5.5 -26.5q0 -23 -24 -38t-65 -22t-81 -9.5t-87 -4.5t-67 -5l-45 -2q-9 -1 -63.5 -7t-79.5 -6z" />
    <glyph glyph-name="acute" unicode="&#xb4;" horiz-adv-x="768" 
d="M190 1065q-10 8 -18 31l2 -2l-8 22v31q3 8 17 22t38 35.5t37 34.5l53 51q5 13 60 70t55 67l27 17l-4 -4q70 55 104 55q36 0 67 -34.5t31 -67.5q0 -56 -90 -125l-102 -80l2 4q-8 -8 -49 -35l-80 -51h2q-83 -57 -113 -57q-15 0 -31 16z" />
    <glyph glyph-name="periodcentered" unicode="&#xb7;" horiz-adv-x="540" 
d="M117 680q0 105 108 147h-2q29 13 64 13q49 0 88.5 -22.5t54.5 -59.5l19 -45l-9 -29q-17 -60 -61 -104l-43 -43q-21 -21 -57 -21q-42 0 -74 15t-48 35.5t-26 46t-12 41t-2 26.5z" />
    <glyph glyph-name="ordmasculine" unicode="&#xba;" horiz-adv-x="759" 
d="M346 817l-29 8q-6 2 -12.5 4t-10 3t-7.5 4l-41 20q-62 31 -83 49t-40 62q-51 64 -51 215q0 61 37 104t116 98l27 19l57 29q20 13 48 15.5t106 2.5q79 0 138 -45t95 -111q1 -12 27.5 -72t26.5 -118q0 -21 -9.5 -50.5t-32 -67.5t-70.5 -74.5t-114 -57.5q-9 -1 -61.5 -21
t-85.5 -20q-1 0 -14 2t-17 2zM463 973h-2q17 7 35.5 30t29.5 48l-2 -4q2 10 6.5 16.5t8.5 11.5t7 27t3 61q0 40 -33.5 88.5t-85.5 48.5q-39 0 -67.5 -18t-42 -45t-19.5 -49t-6 -39q0 -59 19.5 -114t43.5 -62q12 8 23 8q4 0 22 -6h-4q20 -8 39 -8l-8 -4z" />
    <glyph glyph-name="questiondown" unicode="&#xbf;" horiz-adv-x="743" 
d="M428 -535l-2 3q-28 10 -52 21.5t-35.5 17.5t-16.5 6q-21 10 -105.5 80t-85.5 94q-9 0 -21.5 21t-22.5 45t-19 48t-9 25q-28 62 -28 88q0 35 29.5 130t66.5 132q6 6 6 8l25 23q2 2 2 4l24 27l101 69q2 0 12 6.5t14 10.5l13 8v-2q54 33 69 51q27 33 27 86v12q0 80 53 80
q32 0 55.5 -30t34 -75t15 -82.5t4.5 -66.5q0 -20 -3 -38.5t-6.5 -30.5t-11 -26t-11 -19.5t-12.5 -17.5t-10 -13q-35 -44 -89.5 -89t-93.5 -73.5t-68 -68.5t-29 -85v-47l8 -16v2q17 -41 56 -58.5t75 -17.5q23 0 78 19l59 20h35l27 -10q36 -25 51.5 -49.5t15.5 -65.5
q0 -13 -11 -37.5t-30.5 -53t-55.5 -49t-79 -20.5q-21 0 -49 4zM485 606h-5q-4 1 -13.5 3t-21.5 5.5t-25.5 8.5t-27 12t-26 17.5t-22 22.5t-15 28.5t-5.5 35.5q0 20 9 44.5t27.5 50.5t53 43.5t78.5 17.5q64 0 99.5 -53t35.5 -94q0 -69 -95 -115v6q-4 -13 -20.5 -23t-26.5 -10
z" />
    <glyph glyph-name="Agrave" unicode="&#xc0;" horiz-adv-x="1568" 
d="M1311 2q0 -2 -17 -2l-45 6q-52 14 -225 14q-18 0 -54 -4t-69 -4q-64 0 -75 7t-11 44q0 25 33.5 61t89.5 56q3 3 10.5 6t13 4.5t5.5 2.5q0 15 -28 78.5t-34 84.5q-24 77 -47 123t-35 57t-20 11q-1 0 -69 3t-107 3q-46 0 -80.5 -9.5t-52.5 -19t-32.5 -30.5t-17.5 -29
t-10 -29l-47 -131q-4 -12 -9.5 -26t-8.5 -21t-5.5 -15t-3.5 -13t0 -9q-1 -9 6.5 -15.5t15 -9.5t26.5 -8l41 -12q43 -14 65 -26.5t26 -19.5t5 -19q0 -24 -10.5 -38t-34.5 -32l-25 -12h-231l-62 -4l-12 10h-10q-156 0 -156 53q0 16 2.5 26.5t11.5 25.5t32 28t59 25h-3
q50 20 81 55t41 67.5t25 71t34 59.5q33 43 53.5 92t30 81.5t16.5 39.5l55 175q19 31 32 73t38 76q10 15 16 34t21 71t41 120v-2q2 4 16.5 45.5t23.5 65t23 55t25 45.5l-2 -8l14 35l49 -2q37 -4 67 -26t43.5 -42.5t22.5 -42.5v2l9 -18q0 -2 -1 -10.5t-1 -10.5q0 -24 15 -63
t15 -43l9 -33q2 -10 18 -57.5t22 -77.5q11 -67 58.5 -155t48.5 -103q0 -10 4 -14v2q41 -114 41 -125q0 -21 39.5 -138t60.5 -141q10 -44 27 -97.5t20 -53.5q9 0 14 -1.5t9.5 -5t7.5 -4.5h-4q3 -2 21 -8l41 -20q12 -7 26 -23l19 -22l-5 4l9 -11l24 -16q16 -4 27 -4
q0 -46 -34.5 -70t-55.5 -24h-10q-23 0 -35 12zM604 705l8 2q28 1 54.5 1.5t47 2t32.5 14.5t12 39q0 24 -7.5 64t-7.5 69q0 22 -28 102v-2q-16 41 -25 93l-39 -156q-7 -28 -24.5 -81t-30 -94t-12.5 -57q8 0 20 3zM864 1559h-14q-13 4 -107.5 66.5t-115.5 80.5q-9 2 -25 14
q-153 92 -153 166q0 21 24 48.5t72 27.5q32 0 78 -31t153 -133l35 -31h-2q70 -61 91 -93q22 -32 22 -62q0 -26 -21.5 -39.5t-36.5 -13.5z" />
    <glyph glyph-name="Aacute" unicode="&#xc1;" horiz-adv-x="1568" 
d="M1311 2q0 -2 -17 -2l-45 6q-52 14 -225 14q-18 0 -54 -4t-69 -4q-64 0 -75 7t-11 44q0 25 33.5 61t89.5 56q3 3 10.5 6t13 4.5t5.5 2.5q0 15 -28 78.5t-34 84.5q-24 77 -47 123t-35 57t-20 11q-1 0 -69 3t-107 3q-46 0 -80.5 -9.5t-52.5 -19t-32.5 -30.5t-17.5 -29
t-10 -29l-47 -131q-4 -12 -9.5 -26t-8.5 -21t-5.5 -15t-3.5 -13t0 -9q-1 -9 6.5 -15.5t15 -9.5t26.5 -8l41 -12q43 -14 65 -26.5t26 -19.5t5 -19q0 -24 -10.5 -38t-34.5 -32l-25 -12h-231l-62 -4l-12 10h-10q-156 0 -156 53q0 16 2.5 26.5t11.5 25.5t32 28t59 25h-3
q50 20 81 55t41 67.5t25 71t34 59.5q33 43 53.5 92t30 81.5t16.5 39.5l55 175q19 31 32 73t38 76q10 15 16 34t21 71t41 120v-2q2 4 16.5 45.5t23.5 65t23 55t25 45.5l-2 -8l14 35l49 -2q37 -4 67 -26t43.5 -42.5t22.5 -42.5v2l9 -18q0 -2 -1 -10.5t-1 -10.5q0 -24 15 -63
t15 -43l9 -33q2 -10 18 -57.5t22 -77.5q11 -67 58.5 -155t48.5 -103q0 -10 4 -14v2q41 -114 41 -125q0 -21 39.5 -138t60.5 -141q10 -44 27 -97.5t20 -53.5q9 0 14 -1.5t9.5 -5t7.5 -4.5h-4q3 -2 21 -8l41 -20q12 -7 26 -23l19 -22l-5 4l9 -11l24 -16q16 -4 27 -4
q0 -46 -34.5 -70t-55.5 -24h-10q-23 0 -35 12zM604 705l8 2q28 1 54.5 1.5t47 2t32.5 14.5t12 39q0 24 -7.5 64t-7.5 69q0 22 -28 102v-2q-16 41 -25 93l-39 -156q-7 -28 -24.5 -81t-30 -94t-12.5 -57q8 0 20 3zM913 1552q-10 8 -18 31l2 -2l-8 23v30q3 8 17 22t38 35.5
t37 34.5l53 52q5 13 60 70t55 67l27 16l-5 -4q70 55 105 55q36 0 67 -34.5t31 -67.5q0 -56 -90 -125l-102 -80l2 4q-6 -6 -10 -9t-7 -5t-12 -7.5t-20 -12.5l-80 -52h2q-83 -57 -113 -57q-15 0 -31 16z" />
    <glyph glyph-name="Acircumflex" unicode="&#xc2;" horiz-adv-x="1568" 
d="M1311 2q0 -2 -17 -2l-45 6q-52 14 -225 14q-18 0 -54 -4t-69 -4q-64 0 -75 7t-11 44q0 25 33.5 61t89.5 56q3 3 10.5 6t13 4.5t5.5 2.5q0 15 -28 78.5t-34 84.5q-24 77 -47 123t-35 57t-20 11q-1 0 -69 3t-107 3q-46 0 -80.5 -9.5t-52.5 -19t-32.5 -30.5t-17.5 -29
t-10 -29l-47 -131q-4 -12 -9.5 -26t-8.5 -21t-5.5 -15t-3.5 -13t0 -9q-1 -9 6.5 -15.5t15 -9.5t26.5 -8l41 -12q43 -14 65 -26.5t26 -19.5t5 -19q0 -24 -10.5 -38t-34.5 -32l-25 -12h-231l-62 -4l-12 10h-10q-156 0 -156 53q0 16 2.5 26.5t11.5 25.5t32 28t59 25h-3
q50 20 81 55t41 67.5t25 71t34 59.5q33 43 53.5 92t30 81.5t16.5 39.5l55 175q19 31 32 73t38 76q10 15 16 34t21 71t41 120v-2q2 4 16.5 45.5t23.5 65t23 55t25 45.5l-2 -8l14 35l49 -2q37 -4 67 -26t43.5 -42.5t22.5 -42.5v2l9 -18q0 -2 -1 -10.5t-1 -10.5q0 -24 15 -63
t15 -43l9 -33q2 -10 18 -57.5t22 -77.5q11 -67 58.5 -155t48.5 -103q0 -10 4 -14v2q41 -114 41 -125q0 -21 39.5 -138t60.5 -141q10 -44 27 -97.5t20 -53.5q9 0 14 -1.5t9.5 -5t7.5 -4.5h-4q3 -2 21 -8l41 -20q12 -7 26 -23l19 -22l-5 4l9 -11l24 -16q16 -4 27 -4
q0 -46 -34.5 -70t-55.5 -24h-10q-23 0 -35 12zM604 705l8 2q28 1 54.5 1.5t47 2t32.5 14.5t12 39q0 24 -7.5 64t-7.5 69q0 22 -28 102v-2q-16 41 -25 93l-39 -156q-7 -28 -24.5 -81t-30 -94t-12.5 -57q8 0 20 3zM520 1483h-12q-26 7 -37.5 31t-11.5 49q32 22 88 98l10 14
l33 51q93 149 117 177l16 24q6 8 19.5 30.5t21.5 34t23.5 22.5t31.5 11t29 -5t47.5 -41t81.5 -105v2l35 -45q24 -35 40 -56t20.5 -26t4.5 -6l19 -27q0 -2 43 -70t43 -81q0 -29 -26 -43.5t-52 -14.5q-16 0 -62 19q-25 8 -48.5 28t-78.5 82h3l-74 70q-31 31 -37 33
q-14 -9 -41 -36.5t-31 -41.5q-27 -56 -103 -117t-112 -61z" />
    <glyph glyph-name="Adieresis" unicode="&#xc4;" horiz-adv-x="1568" 
d="M1311 2q0 -2 -17 -2l-45 6q-52 14 -225 14q-18 0 -54 -4t-69 -4q-64 0 -75 7t-11 44q0 25 33.5 61t89.5 56q3 3 10.5 6t13 4.5t5.5 2.5q0 15 -28 78.5t-34 84.5q-24 77 -47 123t-35 57t-20 11q-1 0 -69 3t-107 3q-46 0 -80.5 -9.5t-52.5 -19t-32.5 -30.5t-17.5 -29
t-10 -29l-47 -131q-4 -12 -9.5 -26t-8.5 -21t-5.5 -15t-3.5 -13t0 -9q-1 -9 6.5 -15.5t15 -9.5t26.5 -8l41 -12q43 -14 65 -26.5t26 -19.5t5 -19q0 -24 -10.5 -38t-34.5 -32l-25 -12h-231l-62 -4l-12 10h-10q-156 0 -156 53q0 16 2.5 26.5t11.5 25.5t32 28t59 25h-3
q50 20 81 55t41 67.5t25 71t34 59.5q33 43 53.5 92t30 81.5t16.5 39.5l55 175q19 31 32 73t38 76q10 15 16 34t21 71t41 120v-2q2 4 16.5 45.5t23.5 65t23 55t25 45.5l-2 -8l14 35l49 -2q37 -4 67 -26t43.5 -42.5t22.5 -42.5v2l9 -18q0 -2 -1 -10.5t-1 -10.5q0 -24 15 -63
t15 -43l9 -33q2 -10 18 -57.5t22 -77.5q11 -67 58.5 -155t48.5 -103q0 -10 4 -14v2q41 -114 41 -125q0 -21 39.5 -138t60.5 -141q10 -44 27 -97.5t20 -53.5q9 0 14 -1.5t9.5 -5t7.5 -4.5h-4q3 -2 21 -8l41 -20q12 -7 26 -23l19 -22l-5 4l9 -11l24 -16q16 -4 27 -4
q0 -46 -34.5 -70t-55.5 -24h-10q-23 0 -35 12zM604 705l8 2q28 1 54.5 1.5t47 2t32.5 14.5t12 39q0 24 -7.5 64t-7.5 69q0 22 -28 102v-2q-16 41 -25 93l-39 -156q-7 -28 -24.5 -81t-30 -94t-12.5 -57q8 0 20 3zM819 1536q-35 0 -61 34t-33 72q0 24 9 50.5t27.5 53t54 43.5
t81.5 17q51 0 85.5 -26.5t47 -59t12.5 -65.5q-8 -55 -82 -87t-141 -32zM508 1530l-19 4q-94 28 -94 106q0 45 54 106.5t112 61.5t109 -37t51 -83q0 -37 -27 -69t-53 -44l4 2l-20 -10l-25 -4l2 -2q-15 -5 -36.5 -13t-36 -13t-21.5 -5z" />
    <glyph glyph-name="Ccedilla" unicode="&#xc7;" horiz-adv-x="1564" 
d="M748 -387q-5 0 -12.5 0.5t-27.5 6t-35 14.5t-27.5 28.5t-12.5 46.5q0 56 61 80l15 2q11 0 37 -13.5t59 -13.5q9 0 15.5 10t6.5 25q0 23 -31.5 46t-62.5 43.5t-31 35.5q0 13 15 39l24 37q-3 3 -28 9.5t-29 6.5q-24 12 -51 19.5t-31 9.5h4q-55 18 -102.5 49.5t-106.5 83
t-78 66.5q-68 58 -92.5 85t-36.5 50q-8 8 -23 33t-15 37l-9 16q-2 5 -10.5 25.5t-12.5 31t-11.5 31.5t-11 36.5t-6.5 37t-3 41.5l2 28q16 194 60 273l49 88q14 14 34 49l21 31q59 67 132.5 129t137.5 96q139 72 307 72l13 -2l-8 -15q9 9 46.5 20t73.5 11q56 0 108 -12.5
t58 -12.5q16 0 36 5l20 6q1 0 3 -1t3 -1h8q4 0 21.5 3t27.5 3q54 0 77 -38.5t23 -148.5l-2 -43l11 -30q7 -21 13 -34t9.5 -17t5.5 -10t2 -17q0 -41 -27 -63.5t-61 -22.5h-18t-13.5 2t-10 3t-8 6.5t-7 9.5t-6 15.5t-6.5 20t-8 27.5t-11 35q-11 31 -65.5 84t-89.5 63
q-33 10 -93 10t-118 -14l2 2q-34 -12 -76 -12q-36 0 -63.5 -7.5t-47.5 -23t-30.5 -27t-26.5 -32.5l2 2l-12 -19q-51 -51 -86 -110l2 2q-3 -6 -11.5 -17.5t-11.5 -17.5v2q-36 -84 -60 -181t-24 -167q0 -136 60 -252q27 -51 80.5 -106.5t89.5 -84.5l4 -4q6 -4 10.5 -8.5t8 -9
t5.5 -6.5q0 2 4 2l35 -23l-4 4l8 -6q28 -22 56.5 -33.5t76.5 -11.5q135 -2 258 53l82 37q27 7 50.5 36.5t46 73.5t28.5 52l-2 -8l21 47l14 6q37 12 49 12q33 0 44.5 -12t11.5 -51q0 -26 -15 -90t-29.5 -116.5t-13.5 -53.5v2v-8q4 -20 4 -25q0 -41 -41 -41q-1 0 -4.5 1
t-5.5 1q-86 -8 -176 -31l-59 -16q-28 -4 -76 -4h-49l-21 -10q-12 -8 -30.5 -14t-23.5 -14.5t-5 -33.5q0 -10 14.5 -22.5t31.5 -25t31.5 -35.5t14.5 -52q0 -59 -36.5 -102t-94.5 -43q-19 0 -25 4q-28 -35 -75 -35z" />
    <glyph glyph-name="Egrave" unicode="&#xc8;" horiz-adv-x="1435" 
d="M139 23l-2 2q-51 26 -51 63q0 46 84 55l27 9q26 15 69 22l15 4q11 4 14 8l12 13q0 67 -5 107t-5 102q0 23 2 122.5t2 135.5q0 29 -2 70.5t-2 94.5q0 9 1 25t1 21v34q0 6 -1 16t-1 15l-16 234q-2 9 -3 23.5t-2 25t-4 14.5q-24 3 -73 24.5t-87 43t-38 26.5q0 21 16 36
t42 22.5t52 10.5t54 3h49q65 0 174 -8t123 -8q81 0 178 -2.5t125 -2.5q67 0 92 15h-2q14 11 45 19l31 9q4 1 10 4t11.5 5t12.5 2q24 0 39.5 -14t24.5 -43t14.5 -59t14.5 -76t20 -81l-2 2l23 -77q-31 -31 -70 -31q-27 0 -54 20t-34 56q0 5 -14 16l-43 47q-31 29 -84.5 43.5
t-89 16.5t-94.5 2h-13q-44 0 -108 -11.5t-64 -31.5q-9 -53 -14 -154l-4 -90q-5 -35 -5 -43q0 -69 23 -144q0 19 84 19q110 0 178 22q18 2 30 5.5t26 12t21 27t7 46.5v47l45 12q31 0 50 -62.5t28 -205.5q3 -50 9.5 -92t6.5 -68q0 -37 -16 -53.5t-41 -16.5q-17 0 -51 53
t-51 107v-2l-17 41q-27 20 -135 20q-119 0 -158 -28l-16 -11q2 0 5.5 -59t6 -136.5t2.5 -123.5q0 -11 -1 -24.5t-1 -18.5q0 -2 3 -23t3 -30l-2 -8q0 -8 107 -21q4 0 76 -10l39 -6q14 -2 34 -2q85 0 211 45l11 4l-7 -2q14 5 60 42.5t92 72t63 34.5q27 0 35 -8.5t8 -26.5
q0 -44 -30 -127v2l-5.5 -11t-4.5 -13t-1 -16q-16 -16 -26.5 -56t-23 -76t-33.5 -47q-63 0 -188 9.5t-320 9.5q-10 0 -27 -1t-23 -1h-34q-77 0 -116.5 3t-72.5 3q-49 0 -89 -9.5t-93 -13.5q-51 0 -72 9zM745 1540h-14q-13 4 -107.5 67t-115.5 81q-10 2 -25 14
q-153 92 -153 166q0 21 24 48.5t72 27.5q32 0 78 -31t153 -133l35 -31h-2q36 -32 53.5 -48.5t38.5 -48.5t21 -59q0 -26 -21.5 -39.5t-36.5 -13.5z" />
    <glyph glyph-name="Eacute" unicode="&#xc9;" horiz-adv-x="1435" 
d="M139 23l-2 2q-51 26 -51 63q0 46 84 55l27 9q26 15 69 22l15 4q11 4 14 8l12 13q0 67 -5 107t-5 102q0 23 2 122.5t2 135.5q0 29 -2 70.5t-2 94.5q0 9 1 25t1 21v34q0 6 -1 16t-1 15l-16 234q-2 9 -3 23.5t-2 25t-4 14.5q-24 3 -73 24.5t-87 43t-38 26.5q0 21 16 36
t42 22.5t52 10.5t54 3h49q65 0 174 -8t123 -8q81 0 178 -2.5t125 -2.5q67 0 92 15h-2q14 11 45 19l31 9q4 1 10 4t11.5 5t12.5 2q24 0 39.5 -14t24.5 -43t14.5 -59t14.5 -76t20 -81l-2 2l23 -77q-31 -31 -70 -31q-27 0 -54 20t-34 56q0 5 -14 16l-43 47q-31 29 -84.5 43.5
t-89 16.5t-94.5 2h-13q-44 0 -108 -11.5t-64 -31.5q-9 -53 -14 -154l-4 -90q-5 -35 -5 -43q0 -69 23 -144q0 19 84 19q110 0 178 22q18 2 30 5.5t26 12t21 27t7 46.5v47l45 12q31 0 50 -62.5t28 -205.5q3 -50 9.5 -92t6.5 -68q0 -37 -16 -53.5t-41 -16.5q-17 0 -51 53
t-51 107v-2l-17 41q-27 20 -135 20q-119 0 -158 -28l-16 -11q2 0 5.5 -59t6 -136.5t2.5 -123.5q0 -11 -1 -24.5t-1 -18.5q0 -2 3 -23t3 -30l-2 -8q0 -8 107 -21q4 0 76 -10l39 -6q14 -2 34 -2q85 0 211 45l11 4l-7 -2q14 5 60 42.5t92 72t63 34.5q27 0 35 -8.5t8 -26.5
q0 -44 -30 -127v2l-5.5 -11t-4.5 -13t-1 -16q-16 -16 -26.5 -56t-23 -76t-33.5 -47q-63 0 -188 9.5t-320 9.5q-10 0 -27 -1t-23 -1h-34q-77 0 -116.5 3t-72.5 3q-49 0 -89 -9.5t-93 -13.5q-51 0 -72 9zM621 1548q-12 9 -19 31l2 -2l-8 22v31q3 8 17 22t38 35.5t37 34.5
l53 52q5 13 60 70t55 67l27 16l-4 -4q70 55 104 55q36 0 67 -34.5t31 -67.5q0 -56 -90 -125l-102 -80l2 4q-8 -8 -49 -35l-80 -51h2q-83 -57 -113 -57q-14 0 -30 16z" />
    <glyph glyph-name="Ecircumflex" unicode="&#xca;" horiz-adv-x="1435" 
d="M139 23l-2 2q-51 26 -51 63q0 46 84 55l27 9q26 15 69 22l15 4q11 4 14 8l12 13q0 67 -5 107t-5 102q0 23 2 122.5t2 135.5q0 29 -2 70.5t-2 94.5q0 9 1 25t1 21v34q0 6 -1 16t-1 15l-16 234q-2 9 -3 23.5t-2 25t-4 14.5q-24 3 -73 24.5t-87 43t-38 26.5q0 21 16 36
t42 22.5t52 10.5t54 3h49q65 0 174 -8t123 -8q81 0 178 -2.5t125 -2.5q67 0 92 15h-2q14 11 45 19l31 9q4 1 10 4t11.5 5t12.5 2q24 0 39.5 -14t24.5 -43t14.5 -59t14.5 -76t20 -81l-2 2l23 -77q-31 -31 -70 -31q-27 0 -54 20t-34 56q0 5 -14 16l-43 47q-31 29 -84.5 43.5
t-89 16.5t-94.5 2h-13q-44 0 -108 -11.5t-64 -31.5q-9 -53 -14 -154l-4 -90q-5 -35 -5 -43q0 -69 23 -144q0 19 84 19q110 0 178 22q18 2 30 5.5t26 12t21 27t7 46.5v47l45 12q31 0 50 -62.5t28 -205.5q3 -50 9.5 -92t6.5 -68q0 -37 -16 -53.5t-41 -16.5q-17 0 -51 53
t-51 107v-2l-17 41q-27 20 -135 20q-119 0 -158 -28l-16 -11q2 0 5.5 -59t6 -136.5t2.5 -123.5q0 -11 -1 -24.5t-1 -18.5q0 -2 3 -23t3 -30l-2 -8q0 -8 107 -21q4 0 76 -10l39 -6q14 -2 34 -2q85 0 211 45l11 4l-7 -2q14 5 60 42.5t92 72t63 34.5q27 0 35 -8.5t8 -26.5
q0 -44 -30 -127v2l-5.5 -11t-4.5 -13t-1 -16q-16 -16 -26.5 -56t-23 -76t-33.5 -47q-63 0 -188 9.5t-320 9.5q-10 0 -27 -1t-23 -1h-34q-77 0 -116.5 3t-72.5 3q-49 0 -89 -9.5t-93 -13.5q-51 0 -72 9zM426 1483h-12q-26 7 -37.5 31t-11.5 49q32 22 88 98l10 14l32 50
q93 150 117 178l17 24q6 8 19.5 30.5t21.5 34t23.5 22.5t31.5 11t29 -5t47.5 -41t81.5 -105v2l35 -45q24 -35 40 -56t20.5 -26t4.5 -6l18 -27q0 -2 43 -70t43 -81q0 -29 -25.5 -43.5t-51.5 -14.5q-16 0 -62 19q-25 8 -48.5 28t-78.5 82h2l-73 70q-31 31 -37 33
q-14 -9 -41 -36.5t-31 -41.5q-27 -56 -103 -117t-112 -61z" />
    <glyph glyph-name="Edieresis" unicode="&#xcb;" horiz-adv-x="1435" 
d="M139 23l-2 2q-51 26 -51 63q0 46 84 55l27 9q26 15 69 22l15 4q11 4 14 8l12 13q0 67 -5 107t-5 102q0 23 2 122.5t2 135.5q0 29 -2 70.5t-2 94.5q0 9 1 25t1 21v34q0 6 -1 16t-1 15l-16 234q-2 9 -3 23.5t-2 25t-4 14.5q-24 3 -73 24.5t-87 43t-38 26.5q0 21 16 36
t42 22.5t52 10.5t54 3h49q65 0 174 -8t123 -8q81 0 178 -2.5t125 -2.5q67 0 92 15h-2q14 11 45 19l31 9q4 1 10 4t11.5 5t12.5 2q24 0 39.5 -14t24.5 -43t14.5 -59t14.5 -76t20 -81l-2 2l23 -77q-31 -31 -70 -31q-27 0 -54 20t-34 56q0 5 -14 16l-43 47q-31 29 -84.5 43.5
t-89 16.5t-94.5 2h-13q-44 0 -108 -11.5t-64 -31.5q-9 -53 -14 -154l-4 -90q-5 -35 -5 -43q0 -69 23 -144q0 19 84 19q110 0 178 22q18 2 30 5.5t26 12t21 27t7 46.5v47l45 12q31 0 50 -62.5t28 -205.5q3 -50 9.5 -92t6.5 -68q0 -37 -16 -53.5t-41 -16.5q-17 0 -51 53
t-51 107v-2l-17 41q-27 20 -135 20q-119 0 -158 -28l-16 -11q2 0 5.5 -59t6 -136.5t2.5 -123.5q0 -11 -1 -24.5t-1 -18.5q0 -2 3 -23t3 -30l-2 -8q0 -8 107 -21q4 0 76 -10l39 -6q14 -2 34 -2q85 0 211 45l11 4l-7 -2q14 5 60 42.5t92 72t63 34.5q27 0 35 -8.5t8 -26.5
q0 -44 -30 -127v2l-5.5 -11t-4.5 -13t-1 -16q-16 -16 -26.5 -56t-23 -76t-33.5 -47q-63 0 -188 9.5t-320 9.5q-10 0 -27 -1t-23 -1h-34q-77 0 -116.5 3t-72.5 3q-49 0 -89 -9.5t-93 -13.5q-51 0 -72 9zM745 1542q-35 0 -61 34.5t-33 72.5q0 34 14.5 69t55.5 64.5t102 29.5
q39 0 68.5 -15t45.5 -38.5t24 -48.5t8 -49q-8 -55 -82.5 -87t-141.5 -32zM434 1536l-18 4q-94 28 -94 107q0 45 53.5 106.5t111.5 61.5t109 -37.5t51 -83.5q0 -37 -27 -69t-53 -44l4 2l-20 -10l-25 -4l2 -2q-15 -5 -36.5 -13t-36 -13t-21.5 -5z" />
    <glyph glyph-name="Igrave" unicode="&#xcc;" horiz-adv-x="956" 
d="M184 -2q-33 0 -50 19.5t-17 48.5q0 19 14.5 37t42.5 34t44.5 23.5t45.5 19.5l21 8q24 0 35.5 57.5t13.5 135.5l-6 524v-4q-11 86 -11 258l-6 33q-12 47 -33.5 67t-87.5 41q-19 6 -25 8t-22 9t-22.5 13.5t-12.5 18t-6 25.5q0 53 142 53q101 0 171.5 -2t97 -4t47 -4
t32.5 -2h12q6 0 10 2h39h16q55 0 67 -8.5t12 -56.5v-37l-19 -19q-29 -29 -60.5 -42.5t-48.5 -15.5t-29.5 -20t-15.5 -61q-10 -165 -10 -524q0 -99 4 -213v2q2 -39 2 -94q0 -9 -1 -20t-1 -15v-33q0 -27 3.5 -45t7.5 -28t16.5 -16.5t19.5 -8t27.5 -4t30.5 -4.5q25 -5 35 -7.5
t29.5 -10t28.5 -16t16.5 -24t7.5 -35.5q0 -24 -50 -39.5t-95 -19.5t-77 -4q-20 0 -28 2h2q-4 2 -11 2l-106 25h2l-51 4q-47 0 -108 -16.5t-85 -16.5zM563 1534h-14q-13 4 -107.5 66.5t-115.5 80.5q-8 2 -25 15q-154 92 -154 166q0 20 24.5 47.5t72.5 27.5q33 0 79 -31
t152 -132l35 -31h-2q36 -32 53.5 -48.5t38.5 -48.5t21 -59q0 -26 -21.5 -39.5t-36.5 -13.5z" />
    <glyph glyph-name="Iacute" unicode="&#xcd;" horiz-adv-x="956" 
d="M184 -2q-33 0 -50 19.5t-17 48.5q0 19 14.5 37t42.5 34t44.5 23.5t45.5 19.5l21 8q24 0 35.5 57.5t13.5 135.5l-6 524v-4q-11 86 -11 258l-6 33q-12 47 -33.5 67t-87.5 41q-19 6 -25 8t-22 9t-22.5 13.5t-12.5 18t-6 25.5q0 53 142 53q101 0 171.5 -2t97 -4t47 -4
t32.5 -2h12q6 0 10 2h39h16q55 0 67 -8.5t12 -56.5v-37l-19 -19q-29 -29 -60.5 -42.5t-48.5 -15.5t-29.5 -20t-15.5 -61q-10 -165 -10 -524q0 -99 4 -213v2q2 -39 2 -94q0 -9 -1 -20t-1 -15v-33q0 -27 3.5 -45t7.5 -28t16.5 -16.5t19.5 -8t27.5 -4t30.5 -4.5q25 -5 35 -7.5
t29.5 -10t28.5 -16t16.5 -24t7.5 -35.5q0 -24 -50 -39.5t-95 -19.5t-77 -4q-20 0 -28 2h2q-4 2 -11 2l-106 25h2l-51 4q-47 0 -108 -16.5t-85 -16.5zM463 1544q-12 9 -19 31l2 -2l-8 22v31q3 8 17 22t38 35.5t37 34.5l54 51q5 13 59.5 70.5t54.5 67.5l27 16l-4 -4
q70 55 104 55q36 0 67.5 -34.5t31.5 -67.5q0 -56 -90 -125l-103 -80l2 4q-8 -8 -49 -35l-80 -51h2q-83 -57 -112 -57q-15 0 -31 16z" />
    <glyph glyph-name="Icircumflex" unicode="&#xce;" horiz-adv-x="956" 
d="M199 -2q-33 0 -50.5 19.5t-17.5 48.5q0 19 14.5 37t43 34t44.5 23.5t46 19.5l20 8q24 0 35.5 57.5t13.5 135.5l-6 524v-4q-10 78 -10 258l-6 33q-12 47 -33.5 67t-87.5 41q-19 6 -25 8t-22 9t-22.5 13.5t-12.5 18t-6 25.5q0 53 141 53q101 0 171.5 -2t97 -4t47 -4
t32.5 -2h12q7 0 11 2h39h16q55 0 66.5 -8.5t11.5 -56.5v-37l-19 -19q-29 -29 -60.5 -42.5t-48 -15.5t-29 -20t-15.5 -61q-10 -165 -10 -524q0 -99 4 -213v2q2 -39 2 -94q0 -9 -1 -20t-1 -15v-33q0 -27 3.5 -45t7.5 -28t16 -16.5t19 -8t27.5 -4t30.5 -4.5q25 -5 35 -7.5
t29.5 -10t28.5 -16t16.5 -24t7.5 -35.5q0 -24 -49.5 -39.5t-94.5 -19.5t-77 -4q-21 0 -29 2h2q-4 2 -10 2l-107 25h2l-51 4q-47 0 -107.5 -16.5t-84.5 -16.5zM166 1483h-12q-26 7 -38 31.5t-12 48.5q34 24 89 98l10 14l32 50q93 150 117 178l17 24q6 8 19.5 30.5t21.5 34
t23.5 22.5t31.5 11t29 -5t47.5 -41t81.5 -105v2l34 -45q24 -35 40 -56t21 -26t5 -6l18 -27q0 -2 43 -70t43 -81q0 -29 -25.5 -43.5t-51.5 -14.5q-16 0 -62 19q-25 8 -48.5 28t-78.5 82h2l-74 70q-32 32 -36 33q-14 -9 -41 -36.5t-31 -41.5q-27 -56 -103 -117t-112 -61z" />
    <glyph glyph-name="Idieresis" unicode="&#xcf;" horiz-adv-x="956" 
d="M240 -2q-33 0 -50.5 19.5t-17.5 48.5q0 19 14.5 37t42.5 34t44.5 23.5t45.5 19.5l21 8q24 0 35.5 57.5t13.5 135.5l-6 524v-4q-10 78 -10 258l-6 33q-12 47 -33.5 67t-87.5 41q-19 6 -25 8t-22 9t-22.5 13.5t-12.5 18t-6 25.5q0 53 141 53q101 0 171.5 -2t97 -4t47 -4
t32.5 -2h12q7 0 11 2h39h16q55 0 66.5 -8.5t11.5 -56.5v-37l-19 -19q-29 -29 -60.5 -42.5t-48 -15.5t-29 -20t-15.5 -61q-10 -165 -10 -524q0 -99 4 -213v2q2 -39 2 -94q0 -9 -1 -20t-1 -15v-33q0 -27 3.5 -45t7.5 -28t16 -16.5t19 -8t27.5 -4t30.5 -4.5q25 -5 35 -7.5
t29.5 -10t28.5 -16t16.5 -24t7.5 -35.5q0 -24 -49.5 -39.5t-94.5 -19.5t-77 -4q-21 0 -29 2h2q-4 2 -10 2l-107 25h2l-51 4q-47 0 -107.5 -16.5t-84.5 -16.5zM512 1530q-35 0 -61 34t-33 72q0 24 9 50.5t27.5 53t54 43.5t81.5 17q51 0 85.5 -26.5t47 -59t12.5 -65.5
q-8 -55 -82 -87t-141 -32zM201 1524l-19 4q-94 28 -94 106q0 45 54 106.5t112 61.5t109 -37.5t51 -83.5q0 -37 -27 -68.5t-53 -43.5l4 2l-21 -10l-24 -5l2 -2q-15 -4 -37 -12.5t-36 -13t-21 -4.5z" />
    <glyph glyph-name="Ntilde" unicode="&#xd1;" horiz-adv-x="1785" 
d="M100 -10q-49 0 -49 41t11 60.5t26.5 21.5t40.5 10.5t43 26.5l8 4l-2 -2l-2 -2q40 15 57 34t24.5 53t10.5 109l8 189q1 31 5 103t6 121t4 136.5t2 183.5q0 133 -21 154q-16 16 -16 24v3q-8 0 -14 4l-21 2h4l-43 10h4l-16 4q-12 0 -35.5 14.5t-23.5 40.5q0 34 31 54t63 20
q33 0 68.5 -2t43.5 -2h23q4 0 8 2l86 8q67 0 137 -129q7 -15 18.5 -25.5t39.5 -29.5l33 -23q36 -29 55 -51t27.5 -37t42 -54t90.5 -95q36 -38 73 -90l90 -123q31 -42 148 -146.5t149 -144.5v2q12 -25 27 -43l4 18q4 15 8 56.5t8 56.5v6q11 247 11 395q0 84 -4 138.5
t-13 79.5t-16 35t-20 16t-19 12q-6 3 -6 6q0 2 2 2q-4 -2 -10 -2h-9q-47 0 -95 25.5t-48 44.5q0 21 10 43v-2l11 28l-2 2q0 17 7 26.5t42.5 16.5t105.5 7q47 0 67.5 -5t53.5 -20q6 -6 12 -6q21 0 89.5 9t76.5 9q26 0 56 -21t30 -38q0 -39 -29 -65.5t-63 -35.5t-63 -18
t-29 -18q0 -12 -12.5 -63.5t-12.5 -84.5q0 -13 -2 -100.5t-2 -157.5q0 -15 1 -48t1 -48v-31q0 -26 -5 -129t-5 -196v-197q0 -86 -14 -115.5t-45 -29.5q-24 0 -44 7t-37.5 23.5t-25.5 26t-24 31.5l-23 30l-152 152q-24 10 -60.5 48.5t-84.5 97.5t-59 71l-64 70v-2l-176 161
q-14 19 -70 68t-75 82q0 10 -33 47v-2q-31 37 -35 43v-16q0 -80 -10 -282.5t-12 -320.5q0 -90 -5 -153q2 -30 12 -37.5t31 -13t37 -23.5q20 -4 59.5 -31.5t39.5 -44.5q0 -15 -31.5 -33t-61.5 -18q-26 0 -73.5 10.5t-77.5 10.5q-55 0 -97.5 -3t-65 -6.5t-36.5 -7.5t-21 -7
t-9 -3q-5 0 -26.5 -6t-25.5 -6zM637 1440q-9 0 -16.5 2t-13 5t-9.5 8t-6.5 9.5t-4.5 11t-3 11t-1.5 11.5t-0.5 10v9v7q0 3 0.5 4t1 2.5t3 4t5.5 6t8.5 11t12 17.5t16.5 26.5t22 36.5q8 26 46.5 59t56.5 42q18 8 60 13t48 11q5 0 25.5 2t30.5 2q59 -4 120 -26l11 -4l14 8
q102 54 125 87q4 5 8 6t24 1h9q63 0 63 -51q0 -27 -24 -74q-8 -16 -14.5 -28t-13.5 -23t-11 -17.5t-12 -14.5t-10 -11t-11.5 -9.5t-10.5 -7.5t-12.5 -8t-13.5 -8l-45 -29h2q-21 -16 -57 -16q-20 0 -95 22.5t-124 22.5q-13 0 -37.5 -11t-30.5 -22l-61 -55q-4 -53 -74 -53z
" />
    <glyph glyph-name="Ograve" unicode="&#xd2;" horiz-adv-x="1738" 
d="M836 12q-28 0 -95 8t-92 17q-35 5 -106 30.5t-90 43.5q-47 42 -60 51l-41 28q-92 85 -136.5 135t-50 63t-5.5 32q-16 27 -27 58.5t-14 48t-6.5 49.5t-3.5 36l-5 33q-14 55 -14 174q0 30 2.5 57.5t9 53.5t11 43t15.5 42t15 33.5t17.5 34.5t15.5 29l14 29l18 26
q19 26 38.5 46.5t36.5 27.5q9 37 73 62h-2q4 2 33 22t77 39.5t118 34.5l-4 -2l34 14q20 10 209 10q110 0 226 -20.5t184 -73.5l35 -20h-2q15 -7 30.5 -19t31 -28.5t27.5 -30t26.5 -34.5t21 -31t18.5 -29.5t13 -20.5l8 -12h-2q6 -9 15.5 -48t29.5 -73q43 -107 43 -281
q0 -108 -33 -170v5q-1 -1 -3 -8t-10 -25t-22 -41l-37 -76q-50 -89 -94 -145t-100 -97h2q-38 -31 -85.5 -55.5t-75.5 -33.5l-28 -9q-58 -18 -159 -29h2q-32 -4 -47 -4zM885 145q68 12 121 40.5t87 63t61.5 86t43 95.5t31.5 107q11 40 19.5 103.5t8.5 102.5q0 146 -26 211
q-30 95 -43 118.5t-68 78.5l-12 12q-67 53 -152 92t-118 39q-42 0 -70.5 -4t-39 -8.5t-28.5 -13.5l-20 -8q-51 -19 -70 -29l-20 -12l-33 -11q-30 -8 -53 -28l-33 -35q-9 -9 -35 -80v2q-11 -29 -27.5 -57.5t-23.5 -59.5t-12 -110l-8 -70q-1 -2 -2 -5.5t-2 -5.5t-1 -3v-29
q0 -142 9 -213.5t25.5 -108t60.5 -98.5h2q22 -31 48 -51.5t44 -28.5t42 -16t32 -12q16 -10 47 -17l-2 2l71 -22q67 -21 101 -21q4 0 17 2t28 2zM952 1540h-14q-13 4 -107.5 67t-115.5 81q-9 2 -25 14q-153 92 -153 166q0 21 24 48.5t72 27.5q32 0 78 -31t153 -133l35 -31h-2
q36 -32 53.5 -48.5t38.5 -48.5t21 -59q0 -26 -21.5 -39.5t-36.5 -13.5z" />
    <glyph glyph-name="Oacute" unicode="&#xd3;" horiz-adv-x="1738" 
d="M836 12q-28 0 -95 8t-92 17q-35 5 -106 30.5t-90 43.5q-47 42 -60 51l-41 28q-92 85 -136.5 135t-50 63t-5.5 32q-16 27 -27 58.5t-14 48t-6.5 49.5t-3.5 36l-5 33q-14 55 -14 174q0 30 2.5 57.5t9 53.5t11 43t15.5 42t15 33.5t17.5 34.5t15.5 29l14 29l18 26
q19 26 38.5 46.5t36.5 27.5q9 37 73 62h-2q4 2 33 22t77 39.5t118 34.5l-4 -2l34 14q20 10 209 10q110 0 226 -20.5t184 -73.5l35 -20h-2q15 -7 30.5 -19t31 -28.5t27.5 -30t26.5 -34.5t21 -31t18.5 -29.5t13 -20.5l8 -12h-2q6 -9 15.5 -48t29.5 -73q43 -107 43 -281
q0 -108 -33 -170v5q-1 -1 -3 -8t-10 -25t-22 -41l-37 -76q-50 -89 -94 -145t-100 -97h2q-38 -31 -85.5 -55.5t-75.5 -33.5l-28 -9q-58 -18 -159 -29h2q-32 -4 -47 -4zM885 145q68 12 121 40.5t87 63t61.5 86t43 95.5t31.5 107q11 40 19.5 103.5t8.5 102.5q0 146 -26 211
q-30 95 -43 118.5t-68 78.5l-12 12q-67 53 -152 92t-118 39q-42 0 -70.5 -4t-39 -8.5t-28.5 -13.5l-20 -8q-51 -19 -70 -29l-20 -12l-33 -11q-30 -8 -53 -28l-33 -35q-9 -9 -35 -80v2q-11 -29 -27.5 -57.5t-23.5 -59.5t-12 -110l-8 -70q-1 -2 -2 -5.5t-2 -5.5t-1 -3v-29
q0 -142 9 -213.5t25.5 -108t60.5 -98.5h2q22 -31 48 -51.5t44 -28.5t42 -16t32 -12q16 -10 47 -17l-2 2l71 -22q67 -21 101 -21q4 0 17 2t28 2zM983 1546q-10 8 -18 31l2 -2l-9 22v31q3 8 17 22t38.5 35.5t37.5 34.5l53 52q5 13 60 70t55 67l26 16l-4 -4q70 55 105 55
q36 0 67 -34.5t31 -67.5q0 -56 -90 -125l-103 -80l2 4q-8 -8 -49 -35l-80 -51h2q-83 -57 -112 -57q-15 0 -31 16z" />
    <glyph glyph-name="Ocircumflex" unicode="&#xd4;" horiz-adv-x="1738" 
d="M836 12q-28 0 -95 8t-92 17q-35 5 -106 30.5t-90 43.5q-47 42 -60 51l-41 28q-92 85 -136.5 135t-50 63t-5.5 32q-16 27 -27 58.5t-14 48t-6.5 49.5t-3.5 36l-5 33q-14 55 -14 174q0 30 2.5 57.5t9 53.5t11 43t15.5 42t15 33.5t17.5 34.5t15.5 29l14 29l18 26
q19 26 38.5 46.5t36.5 27.5q9 37 73 62h-2q4 2 33 22t77 39.5t118 34.5l-4 -2l34 14q20 10 209 10q110 0 226 -20.5t184 -73.5l35 -20h-2q15 -7 30.5 -19t31 -28.5t27.5 -30t26.5 -34.5t21 -31t18.5 -29.5t13 -20.5l8 -12h-2q6 -9 15.5 -48t29.5 -73q43 -107 43 -281
q0 -108 -33 -170v5q-1 -1 -3 -8t-10 -25t-22 -41l-37 -76q-50 -89 -94 -145t-100 -97h2q-38 -31 -85.5 -55.5t-75.5 -33.5l-28 -9q-58 -18 -159 -29h2q-32 -4 -47 -4zM885 145q68 12 121 40.5t87 63t61.5 86t43 95.5t31.5 107q11 40 19.5 103.5t8.5 102.5q0 146 -26 211
q-30 95 -43 118.5t-68 78.5l-12 12q-67 53 -152 92t-118 39q-42 0 -70.5 -4t-39 -8.5t-28.5 -13.5l-20 -8q-51 -19 -70 -29l-20 -12l-33 -11q-30 -8 -53 -28l-33 -35q-9 -9 -35 -80v2q-11 -29 -27.5 -57.5t-23.5 -59.5t-12 -110l-8 -70q-1 -2 -2 -5.5t-2 -5.5t-1 -3v-29
q0 -142 9 -213.5t25.5 -108t60.5 -98.5h2q22 -31 48 -51.5t44 -28.5t42 -16t32 -12q16 -10 47 -17l-2 2l71 -22q67 -21 101 -21q4 0 17 2t28 2zM565 1483h-12q-26 7 -37.5 31t-11.5 49q32 22 88 98l10 14l33 51q93 149 117 177l16 24q6 8 19.5 30.5t21.5 34t23.5 22.5
t31.5 11t29 -5t47.5 -41t81.5 -105v2l35 -45q24 -35 40 -56t20.5 -26t4.5 -6l19 -27q0 -2 43 -70t43 -81q0 -29 -26 -43.5t-52 -14.5q-16 0 -62 19q-24 8 -47.5 28t-78.5 82h2l-74 70q-31 31 -37 33q-14 -9 -41 -36.5t-31 -41.5q-27 -56 -103 -117t-112 -61z" />
    <glyph glyph-name="Odieresis" unicode="&#xd6;" horiz-adv-x="1738" 
d="M836 12q-28 0 -95 8t-92 17q-35 5 -106 30.5t-90 43.5q-47 42 -60 51l-41 28q-92 85 -136.5 135t-50 63t-5.5 32q-16 27 -27 58.5t-14 48t-6.5 49.5t-3.5 36l-5 33q-14 55 -14 174q0 30 2.5 57.5t9 53.5t11 43t15.5 42t15 33.5t17.5 34.5t15.5 29l14 29l18 26
q19 26 38.5 46.5t36.5 27.5q9 37 73 62h-2q4 2 33 22t77 39.5t118 34.5l-4 -2l34 14q20 10 209 10q110 0 226 -20.5t184 -73.5l35 -20h-2q15 -7 30.5 -19t31 -28.5t27.5 -30t26.5 -34.5t21 -31t18.5 -29.5t13 -20.5l8 -12h-2q6 -9 15.5 -48t29.5 -73q43 -107 43 -281
q0 -108 -33 -170v5q-1 -1 -3 -8t-10 -25t-22 -41l-37 -76q-50 -89 -94 -145t-100 -97h2q-38 -31 -85.5 -55.5t-75.5 -33.5l-28 -9q-58 -18 -159 -29h2q-32 -4 -47 -4zM885 145q68 12 121 40.5t87 63t61.5 86t43 95.5t31.5 107q11 40 19.5 103.5t8.5 102.5q0 146 -26 211
q-30 95 -43 118.5t-68 78.5l-12 12q-67 53 -152 92t-118 39q-42 0 -70.5 -4t-39 -8.5t-28.5 -13.5l-20 -8q-51 -19 -70 -29l-20 -12l-33 -11q-30 -8 -53 -28l-33 -35q-9 -9 -35 -80v2q-11 -29 -27.5 -57.5t-23.5 -59.5t-12 -110l-8 -70q-1 -2 -2 -5.5t-2 -5.5t-1 -3v-29
q0 -142 9 -213.5t25.5 -108t60.5 -98.5h2q22 -31 48 -51.5t44 -28.5t42 -16t32 -12q16 -10 47 -17l-2 2l71 -22q67 -21 101 -21q4 0 17 2t28 2zM864 1540q-35 0 -61 34.5t-33 72.5q0 34 14.5 69t55.5 64.5t102 29.5q51 0 85.5 -26.5t47 -59t12.5 -65.5q-8 -55 -82 -87
t-141 -32zM553 1534l-18 4q-95 28 -95 107q0 45 54 106t112 61t109 -37t51 -83q0 -37 -27 -69t-53 -44l4 2l-20 -10l-25 -4l2 -2q-15 -5 -36.5 -13t-36 -13t-21.5 -5z" />
    <glyph glyph-name="Ugrave" unicode="&#xd9;" horiz-adv-x="1652" 
d="M784 -6h2q-26 3 -61 5t-50 4t-41.5 8t-58.5 18q-18 6 -50.5 40.5t-39.5 34.5q-4 0 -4 -4q-22 0 -110 88q-25 25 -41.5 50t-26 63t-13 57t-9 76.5t-7.5 77.5v172q0 206 7.5 332.5t7.5 208.5q0 55 -17 55q-33 0 -53 16h2q-25 15 -80 21q-64 3 -82 29l-34 32l45 27
q42 31 166 31q105 0 135 -6q5 0 32 2t43 2q7 0 13 -2h22q145 20 197 20t70 -9.5t18 -41.5q0 -21 -32 -43t-71 -36.5t-76 -32.5t-44 -32q-2 -2 -2 -139l-6 -227l-7 -98q-10 -180 -10 -224q0 -120 37 -221l27 -86q0 -1 1.5 -4.5t1.5 -4.5t1 -4t2 -3.5t2 -3t2.5 -3.5t3.5 -3.5
t4.5 -4.5t6 -4.5t7.5 -5.5l21 -16q67 -55 233 -60l35 5l45 8q33 4 61.5 18t41 27t12.5 18l2 8q0 15 16 27l25 37q19 41 43 41q12 25 21.5 51.5t15 51.5t8.5 42t5.5 36.5t2.5 21.5q8 40 8 49q0 101 7 207.5t13.5 177t6.5 84.5q0 30 -3 77.5t-3 75.5v21l-23 24
q-12 14 -18.5 20.5t-28.5 17t-49 12.5q-73 6 -108 27t-35 48t45 52.5t106 25.5q25 0 81 -9t91 -9q47 0 109.5 14t114.5 14q20 0 37.5 -21.5t17.5 -45.5q0 -39 -30 -60.5t-66 -28.5t-67 -28.5t-32 -60.5q-4 -8 -9.5 -28t-11 -62t-5.5 -87q0 -12 2 -37t2 -53q0 -49 -2 -84v2
q-4 -106 -4 -210q0 -146 -4.5 -198t-22.5 -93l-31 -70q-85 -214 -192 -264q-50 -10 -76 -20t-32 -15t-38.5 -8.5t-105.5 -3.5q-34 0 -62 4zM977 1548h-14q-13 4 -108 67t-116 81q-8 2 -24 14q-154 92 -154 166q0 21 24 48.5t72 27.5q32 0 78.5 -31t153.5 -133l35 -31h-2
q28 -25 40 -36t33 -34t30 -43.5t9 -41.5q0 -26 -21.5 -40t-35.5 -14z" />
    <glyph glyph-name="Uacute" unicode="&#xda;" horiz-adv-x="1652" 
d="M784 -6h2q-26 3 -61 5t-50 4t-41.5 8t-58.5 18q-18 6 -50.5 40.5t-39.5 34.5q-4 0 -4 -4q-22 0 -110 88q-25 25 -41.5 50t-26 63t-13 57t-9 76.5t-7.5 77.5v172q0 206 7.5 332.5t7.5 208.5q0 55 -17 55q-33 0 -53 16h2q-25 15 -80 21q-64 3 -82 29l-34 32l45 27
q42 31 166 31q105 0 135 -6q5 0 32 2t43 2q7 0 13 -2h22q145 20 197 20t70 -9.5t18 -41.5q0 -21 -32 -43t-71 -36.5t-76 -32.5t-44 -32q-2 -2 -2 -139l-6 -227l-7 -98q-10 -180 -10 -224q0 -120 37 -221l27 -86q0 -1 1.5 -4.5t1.5 -4.5t1 -4t2 -3.5t2 -3t2.5 -3.5t3.5 -3.5
t4.5 -4.5t6 -4.5t7.5 -5.5l21 -16q67 -55 233 -60l35 5l45 8q33 4 61.5 18t41 27t12.5 18l2 8q0 15 16 27l25 37q19 41 43 41q12 25 21.5 51.5t15 51.5t8.5 42t5.5 36.5t2.5 21.5q8 40 8 49q0 101 7 207.5t13.5 177t6.5 84.5q0 30 -3 77.5t-3 75.5v21l-23 24
q-12 14 -18.5 20.5t-28.5 17t-49 12.5q-73 6 -108 27t-35 48t45 52.5t106 25.5q25 0 81 -9t91 -9q47 0 109.5 14t114.5 14q20 0 37.5 -21.5t17.5 -45.5q0 -39 -30 -60.5t-66 -28.5t-67 -28.5t-32 -60.5q-4 -8 -9.5 -28t-11 -62t-5.5 -87q0 -12 2 -37t2 -53q0 -49 -2 -84v2
q-4 -106 -4 -210q0 -146 -4.5 -198t-22.5 -93l-31 -70q-85 -214 -192 -264q-50 -10 -76 -20t-32 -15t-38.5 -8.5t-105.5 -3.5q-34 0 -62 4zM1038 1550q-10 8 -18 31l2 -2l-8 23v30q3 8 17 22t38 35.5t37 34.5l53 52q5 13 60 70t55 67l26 16l-4 -4q70 55 105 55
q36 0 67 -34.5t31 -67.5q0 -56 -90 -125l-102 -80l2 4q-8 -8 -49 -35l-80 -51h2q-83 -57 -113 -57q-15 0 -31 16z" />
    <glyph glyph-name="Ucircumflex" unicode="&#xdb;" horiz-adv-x="1652" 
d="M784 -6h2q-26 3 -61 5t-50 4t-41.5 8t-58.5 18q-18 6 -50.5 40.5t-39.5 34.5q-4 0 -4 -4q-22 0 -110 88q-25 25 -41.5 50t-26 63t-13 57t-9 76.5t-7.5 77.5v172q0 206 7.5 332.5t7.5 208.5q0 55 -17 55q-33 0 -53 16h2q-25 15 -80 21q-64 3 -82 29l-34 32l45 27
q42 31 166 31q105 0 135 -6q5 0 32 2t43 2q7 0 13 -2h22q145 20 197 20t70 -9.5t18 -41.5q0 -21 -32 -43t-71 -36.5t-76 -32.5t-44 -32q-2 -2 -2 -139l-6 -227l-7 -98q-10 -180 -10 -224q0 -120 37 -221l27 -86q0 -1 1.5 -4.5t1.5 -4.5t1 -4t2 -3.5t2 -3t2.5 -3.5t3.5 -3.5
t4.5 -4.5t6 -4.5t7.5 -5.5l21 -16q67 -55 233 -60l35 5l45 8q33 4 61.5 18t41 27t12.5 18l2 8q0 15 16 27l25 37q19 41 43 41q12 25 21.5 51.5t15 51.5t8.5 42t5.5 36.5t2.5 21.5q8 40 8 49q0 101 7 207.5t13.5 177t6.5 84.5q0 30 -3 77.5t-3 75.5v21l-23 24
q-12 14 -18.5 20.5t-28.5 17t-49 12.5q-73 6 -108 27t-35 48t45 52.5t106 25.5q25 0 81 -9t91 -9q47 0 109.5 14t114.5 14q20 0 37.5 -21.5t17.5 -45.5q0 -39 -30 -60.5t-66 -28.5t-67 -28.5t-32 -60.5q-4 -8 -9.5 -28t-11 -62t-5.5 -87q0 -12 2 -37t2 -53q0 -49 -2 -84v2
q-4 -106 -4 -210q0 -146 -4.5 -198t-22.5 -93l-31 -70q-85 -214 -192 -264q-50 -10 -76 -20t-32 -15t-38.5 -8.5t-105.5 -3.5q-34 0 -62 4zM610 1483h-12q-26 7 -37.5 31t-11.5 49q32 22 88 98l10 14l33 51q93 149 117 177l16 24q6 8 19.5 30.5t21.5 34t23.5 22.5t31.5 11
t29 -5t47.5 -41t81.5 -105v2l35 -45q24 -35 40 -56t20.5 -26t4.5 -6l19 -27q0 -2 43 -70t43 -81q0 -29 -26 -43.5t-52 -14.5q-15 0 -61 19q-25 8 -48.5 28t-78.5 82h2l-74 70q-31 31 -37 33q-14 -9 -41 -36.5t-31 -41.5q-27 -56 -103 -117t-112 -61z" />
    <glyph glyph-name="Udieresis" unicode="&#xdc;" horiz-adv-x="1652" 
d="M784 -6h2q-26 3 -61 5t-50 4t-41.5 8t-58.5 18q-18 6 -50.5 40.5t-39.5 34.5q-4 0 -4 -4q-22 0 -110 88q-25 25 -41.5 50t-26 63t-13 57t-9 76.5t-7.5 77.5v172q0 206 7.5 332.5t7.5 208.5q0 55 -17 55q-33 0 -53 16h2q-25 15 -80 21q-64 3 -82 29l-34 32l45 27
q42 31 166 31q105 0 135 -6q5 0 32 2t43 2q7 0 13 -2h22q145 20 197 20t70 -9.5t18 -41.5q0 -21 -32 -43t-71 -36.5t-76 -32.5t-44 -32q-2 -2 -2 -139l-6 -227l-7 -98q-10 -180 -10 -224q0 -120 37 -221l27 -86q0 -1 1.5 -4.5t1.5 -4.5t1 -4t2 -3.5t2 -3t2.5 -3.5t3.5 -3.5
t4.5 -4.5t6 -4.5t7.5 -5.5l21 -16q67 -55 233 -60l35 5l45 8q33 4 61.5 18t41 27t12.5 18l2 8q0 15 16 27l25 37q19 41 43 41q12 25 21.5 51.5t15 51.5t8.5 42t5.5 36.5t2.5 21.5q8 40 8 49q0 101 7 207.5t13.5 177t6.5 84.5q0 30 -3 77.5t-3 75.5v21l-23 24
q-12 14 -18.5 20.5t-28.5 17t-49 12.5q-73 6 -108 27t-35 48t45 52.5t106 25.5q25 0 81 -9t91 -9q47 0 109.5 14t114.5 14q20 0 37.5 -21.5t17.5 -45.5q0 -39 -30 -60.5t-66 -28.5t-67 -28.5t-32 -60.5q-4 -8 -9.5 -28t-11 -62t-5.5 -87q0 -12 2 -37t2 -53q0 -49 -2 -84v2
q-4 -106 -4 -210q0 -146 -4.5 -198t-22.5 -93l-31 -70q-85 -214 -192 -264q-50 -10 -76 -20t-32 -15t-38.5 -8.5t-105.5 -3.5q-34 0 -62 4zM971 1542q-35 0 -61 34.5t-33 72.5q0 34 14.5 69t55.5 64.5t102 29.5q51 0 85.5 -26.5t47 -59t12.5 -65.5q-8 -55 -82 -87t-141 -32z
M659 1536l-18 4q-94 28 -94 107q0 45 54 106.5t112 61.5t108.5 -37.5t50.5 -83.5q0 -37 -26.5 -69.5t-52.5 -43.5l4 2l-21 -10l-24 -4l2 -2q-15 -5 -37 -13t-36.5 -13t-21.5 -5z" />
    <glyph glyph-name="agrave" unicode="&#xe0;" horiz-adv-x="1003" 
d="M295 -2q-17 0 -25 6l-98 27l-35 24l2 -2q-44 32 -62 62.5t-18 72.5q0 45 18 88.5t41 73.5t55.5 59t51 41.5t37.5 24.5h-2q34 25 58.5 41t45.5 23.5t30 10t31.5 3.5t29.5 2q66 8 88 8v17q0 3 4 15t4 34q0 36 -17 92.5t-38 60.5l-78 -12q-20 0 -49 -8t-29 -14l-12 -39
q-26 -53 -54 -80t-63 -27q-44 0 -73 28.5t-29 74.5v32l22 25q16 24 28.5 38.5t51 37t96.5 39.5l55 20h-2q84 37 142 37q26 0 65.5 -11.5t50.5 -11.5q78 -13 115 -53.5t37 -136.5q0 -69 -20 -115q6 -30 6 -65q0 -56 -19.5 -187.5t-19.5 -140.5q0 -16 55 -16q21 0 40.5 9
t31.5 9q13 0 32 -20.5t19 -32.5q0 -17 -7 -29t-16 -19.5t-33 -26t-44 -36.5q-60 -43 -113 -43q-30 0 -56.5 16.5t-44.5 33t-28 16.5q-6 0 -8 -2l-72 -39l-33 -13h-2q0 3 2 5q-6 -2 -27.5 -7.5t-36 -9t-37.5 -7t-44 -3.5zM385 197l8 2q32 6 69.5 32.5t61.5 61.5q-2 17 -11 54
t-17 56q-2 -2 -21 -2q-70 0 -132 -40.5t-62 -73.5q0 -44 23 -66t46 -22zM608 1016h-14q-13 4 -107.5 66.5t-115.5 80.5q-7 2 -25 15q-153 92 -153 165q0 21 24 48.5t72 27.5q32 0 78 -31t153 -133l35 -30h-2q36 -32 53.5 -48.5t38.5 -48.5t21 -59q0 -26 -21.5 -39.5
t-36.5 -13.5z" />
    <glyph glyph-name="aacute" unicode="&#xe1;" horiz-adv-x="1003" 
d="M295 -2q-17 0 -25 6l-98 27l-35 24l2 -2q-44 32 -62 62.5t-18 72.5q0 45 18 88.5t41 73.5t55.5 59t51 41.5t37.5 24.5h-2q34 25 58.5 41t45.5 23.5t30 10t31.5 3.5t29.5 2q66 8 88 8v17q0 3 4 15t4 34q0 36 -17 92.5t-38 60.5l-78 -12q-20 0 -49 -8t-29 -14l-12 -39
q-26 -53 -54 -80t-63 -27q-44 0 -73 28.5t-29 74.5v32l22 25q16 24 28.5 38.5t51 37t96.5 39.5l55 20h-2q84 37 142 37q26 0 65.5 -11.5t50.5 -11.5q78 -13 115 -53.5t37 -136.5q0 -69 -20 -115q6 -30 6 -65q0 -56 -19.5 -187.5t-19.5 -140.5q0 -16 55 -16q21 0 40.5 9
t31.5 9q13 0 32 -20.5t19 -32.5q0 -17 -7 -29t-16 -19.5t-33 -26t-44 -36.5q-60 -43 -113 -43q-30 0 -56.5 16.5t-44.5 33t-28 16.5q-6 0 -8 -2l-72 -39l-33 -13h-2q0 3 2 5q-6 -2 -27.5 -7.5t-36 -9t-37.5 -7t-44 -3.5zM385 197l8 2q32 6 69.5 32.5t61.5 61.5q-2 17 -11 54
t-17 56q-2 -2 -21 -2q-70 0 -132 -40.5t-62 -73.5q0 -44 23 -66t46 -22zM606 1024q-10 8 -18 31l2 -2l-8 22v31q3 8 17 22t38 35.5t37 34.5l53 51q5 13 60 70t55 67l26 17l-4 -4q70 55 105 55q36 0 67 -34.5t31 -67.5q0 -56 -90 -125l-103 -80l3 4q-6 -6 -10 -9.5t-7.5 -5.5
t-12.5 -7.5t-20 -12.5l-79 -51h2q-83 -57 -113 -57q-15 0 -31 16z" />
    <glyph glyph-name="acircumflex" unicode="&#xe2;" horiz-adv-x="1003" 
d="M295 -2q-17 0 -25 6l-98 27l-35 24l2 -2q-44 32 -62 62.5t-18 72.5q0 45 18 88.5t41 73.5t55.5 59t51 41.5t37.5 24.5h-2q34 25 58.5 41t45.5 23.5t30 10t31.5 3.5t29.5 2q66 8 88 8v17q0 3 4 15t4 34q0 36 -17 92.5t-38 60.5l-78 -12q-20 0 -49 -8t-29 -14l-12 -39
q-26 -53 -54 -80t-63 -27q-44 0 -73 28.5t-29 74.5v32l22 25q16 24 28.5 38.5t51 37t96.5 39.5l55 20h-2q84 37 142 37q26 0 65.5 -11.5t50.5 -11.5q78 -13 115 -53.5t37 -136.5q0 -69 -20 -115q6 -30 6 -65q0 -56 -19.5 -187.5t-19.5 -140.5q0 -16 55 -16q21 0 40.5 9
t31.5 9q13 0 32 -20.5t19 -32.5q0 -17 -7 -29t-16 -19.5t-33 -26t-44 -36.5q-60 -43 -113 -43q-30 0 -56.5 16.5t-44.5 33t-28 16.5q-6 0 -8 -2l-72 -39l-33 -13h-2q0 3 2 5q-6 -2 -27.5 -7.5t-36 -9t-37.5 -7t-44 -3.5zM385 197l8 2q32 6 69.5 32.5t61.5 61.5q-2 17 -11 54
t-17 56q-2 -2 -21 -2q-70 0 -132 -40.5t-62 -73.5q0 -44 23 -66t46 -22zM248 940h-12q-26 7 -38 31.5t-12 48.5q32 22 88 98l11 15l32 50q93 149 117 177l17 24q6 8 19.5 30.5t21.5 34.5t23.5 23t31.5 11q12 0 21 -3t27.5 -16t46 -46.5t63.5 -86.5v2l34 -45q24 -35 40 -56
t21 -26t5 -6l18 -26q0 -2 43 -70.5t43 -81.5q0 -29 -25.5 -43t-52.5 -14q-18 0 -61 18q-24 8 -48 28.5t-79 82.5h2l-74 69q-31 31 -36 33q-14 -9 -41 -36.5t-31 -41.5q-27 -56 -103 -117t-112 -61z" />
    <glyph glyph-name="adieresis" unicode="&#xe4;" horiz-adv-x="1003" 
d="M295 -2q-17 0 -25 6l-98 27l-35 24l2 -2q-44 32 -62 62.5t-18 72.5q0 45 18 88.5t41 73.5t55.5 59t51 41.5t37.5 24.5h-2q34 25 58.5 41t45.5 23.5t30 10t31.5 3.5t29.5 2q66 8 88 8v17q0 3 4 15t4 34q0 36 -17 92.5t-38 60.5l-78 -12q-20 0 -49 -8t-29 -14l-12 -39
q-26 -53 -54 -80t-63 -27q-44 0 -73 28.5t-29 74.5v32l22 25q16 24 28.5 38.5t51 37t96.5 39.5l55 20h-2q84 37 142 37q26 0 65.5 -11.5t50.5 -11.5q78 -13 115 -53.5t37 -136.5q0 -69 -20 -115q6 -30 6 -65q0 -56 -19.5 -187.5t-19.5 -140.5q0 -16 55 -16q21 0 40.5 9
t31.5 9q13 0 32 -20.5t19 -32.5q0 -17 -7 -29t-16 -19.5t-33 -26t-44 -36.5q-60 -43 -113 -43q-30 0 -56.5 16.5t-44.5 33t-28 16.5q-6 0 -8 -2l-72 -39l-33 -13h-2q0 3 2 5q-6 -2 -27.5 -7.5t-36 -9t-37.5 -7t-44 -3.5zM385 197l8 2q32 6 69.5 32.5t61.5 61.5q-2 17 -11 54
t-17 56q-2 -2 -21 -2q-70 0 -132 -40.5t-62 -73.5q0 -44 23 -66t46 -22zM567 1020q-35 0 -61 34t-33 72q0 24 9 50.5t27.5 53t54 43.5t81.5 17q39 0 68.5 -15t45.5 -38.5t24 -48.5t8 -49q-8 -55 -82.5 -87t-141.5 -32zM256 1014l-18 4q-95 28 -95 106q0 45 54 106.5
t112 61.5t109 -37.5t51 -83.5q0 -37 -27 -68.5t-53 -43.5l4 2l-20 -10l-25 -4l2 -3q-15 -4 -37 -12.5t-36 -13t-21 -4.5z" />
    <glyph glyph-name="ccedilla" unicode="&#xe7;" horiz-adv-x="1007" 
d="M397 -369h-2q-141 15 -141 101q0 25 29 57.5t53 32.5q20 0 54 -21t34 -32q11 2 25 12.5t14 17.5v-2q-1 0 -3 4t-3.5 10t-1.5 11q0 8 2 12q-9 5 -31.5 10.5t-28.5 5.5l-9 -2q-9 -2 -15 -2q-9 0 -21.5 3.5t-27.5 18.5t-15 38q0 21 56 90l10 16l-8 -2q-22 0 -62 37l-86 78
q-29 26 -69 100.5t-48 102.5l2 -9l-20 48q-8 8 -8 28l-2 13q0 1 -1 3t-1 3l2 -11q-4 8 -4 21v14q0 12 2 32l2 19l2 25q0 46 33 110t76.5 119t82 95.5t54.5 50.5l-11 -4q30 21 82 42t72 21q73 0 137 -39q47 -29 57 -32q6 2 25 2q21 0 44 -5t49 -16.5t42.5 -36.5t16.5 -59
q0 -84 -134 -84q-24 0 -60.5 26t-80 52t-84.5 26q-16 0 -37.5 -7.5t-48.5 -29t-49.5 -53t-37.5 -86.5t-15 -123q0 -66 4 -85t24 -48l-2 2q11 -15 20.5 -40.5t37.5 -59.5l18 -27q15 -24 54 -45.5t79 -21.5q34 0 88.5 18.5t102.5 44.5q25 21 49 21q18 0 35.5 -18t17.5 -50
q0 -31 -19 -49.5t-63 -42.5l-37 -21q-28 -16 -66 -26t-60.5 -14.5t-22.5 -8.5v-14l-8 -21l4 -4q90 -96 90 -170q0 -32 -26.5 -60t-63.5 -53.5t-47 -39.5q-9 -2 -26.5 -11.5t-47.5 -9.5h-12q-2 0 -7 1t-8 1z" />
    <glyph glyph-name="egrave" unicode="&#xe8;" horiz-adv-x="1032" 
d="M451 14h-13q-30 0 -110 35.5t-109 52.5h2q-72 44 -110.5 133.5t-38.5 247.5q0 78 33.5 158t90 144.5t139.5 105.5t175 41q132 0 205.5 -49.5t144.5 -171.5l23 -39l-4 4q10 -20 10 -31q0 -45 -11 -68t-25 -26t-33 -7t-29 -14q-16 -16 -72 -16q-27 0 -79.5 3t-82.5 3h-100
q-62 0 -91.5 -12.5t-29.5 -48.5q0 -11 12 -65t12 -58v-2l15 -19q31 -55 66.5 -81.5t86.5 -26.5h35q39 0 93.5 26t72.5 31l29 17q20 20 39 20q22 0 31.5 -8.5t9.5 -28.5q0 -23 -19.5 -54.5t-21.5 -41.5v2q-42 -73 -152.5 -114.5t-193.5 -41.5zM354 614h66q73 15 142.5 23
t100.5 9.5t31 2.5q0 2 -3 10t-12 23.5t-22.5 31t-39.5 33.5t-58 31l-31 13q-3 0 -9.5 1t-10.5 1q-64 0 -112 -54t-48 -104q0 -21 6 -21zM621 1022h-15q-13 4 -107.5 66.5t-115.5 80.5q-7 2 -25 15q-153 92 -153 166q0 21 24 48t72 27q33 0 79 -31t152 -132l35 -31h-2
q36 -32 53.5 -48.5t38.5 -48.5t21 -59q0 -26 -21.5 -39.5t-35.5 -13.5z" />
    <glyph glyph-name="eacute" unicode="&#xe9;" horiz-adv-x="1032" 
d="M451 14h-13q-30 0 -110 35.5t-109 52.5h2q-72 44 -110.5 133.5t-38.5 247.5q0 78 33.5 158t90 144.5t139.5 105.5t175 41q132 0 205.5 -49.5t144.5 -171.5l23 -39l-4 4q10 -20 10 -31q0 -45 -11 -68t-25 -26t-33 -7t-29 -14q-16 -16 -72 -16q-27 0 -79.5 3t-82.5 3h-100
q-62 0 -91.5 -12.5t-29.5 -48.5q0 -11 12 -65t12 -58v-2l15 -19q31 -55 66.5 -81.5t86.5 -26.5h35q39 0 93.5 26t72.5 31l29 17q20 20 39 20q22 0 31.5 -8.5t9.5 -28.5q0 -23 -19.5 -54.5t-21.5 -41.5v2q-42 -73 -152.5 -114.5t-193.5 -41.5zM354 614h66q73 15 142.5 23
t100.5 9.5t31 2.5q0 2 -3 10t-12 23.5t-22.5 31t-39.5 33.5t-58 31l-31 13q-3 0 -9.5 1t-10.5 1q-64 0 -112 -54t-48 -104q0 -21 6 -21zM621 1024q-12 9 -19 31l2 -2l-8 22v31q3 8 17 22t38 35.5t37 34.5l53 51q5 13 60 70t55 67l27 17l-4 -4q70 55 104 55q36 0 67 -34.5
t31 -67.5q0 -56 -90 -125l-102 -80l2 4q-8 -8 -49 -35l-80 -51h2q-83 -57 -113 -57q-14 0 -30 16z" />
    <glyph glyph-name="ecircumflex" unicode="&#xea;" horiz-adv-x="1032" 
d="M451 14h-13q-30 0 -110 35.5t-109 52.5h2q-72 44 -110.5 133.5t-38.5 247.5q0 78 33.5 158t90 144.5t139.5 105.5t175 41q132 0 205.5 -49.5t144.5 -171.5l23 -39l-4 4q10 -20 10 -31q0 -45 -11 -68t-25 -26t-33 -7t-29 -14q-16 -16 -72 -16q-27 0 -79.5 3t-82.5 3h-100
q-62 0 -91.5 -12.5t-29.5 -48.5q0 -11 12 -65t12 -58v-2l15 -19q31 -55 66.5 -81.5t86.5 -26.5h35q39 0 93.5 26t72.5 31l29 17q20 20 39 20q22 0 31.5 -8.5t9.5 -28.5q0 -23 -19.5 -54.5t-21.5 -41.5v2q-42 -73 -152.5 -114.5t-193.5 -41.5zM354 614h66q73 15 142.5 23
t100.5 9.5t31 2.5q0 2 -3 10t-12 23.5t-22.5 31t-39.5 33.5t-58 31l-31 13q-3 0 -9.5 1t-10.5 1q-64 0 -112 -54t-48 -104q0 -21 6 -21zM240 940h-13q-26 7 -37.5 31t-11.5 49q32 22 88 98l10 15l33 51q93 148 117 176l16 24q6 8 19.5 31t22 34.5t24 22.5t31.5 11
q12 0 21 -3t27 -16t45.5 -46.5t63.5 -86.5v2l35 -45q24 -35 40 -56t21 -26t5 -6l18 -26q0 -2 43 -70.5t43 -81.5q0 -29 -25.5 -43t-52.5 -14q-17 0 -61 18q-24 8 -48 28.5t-79 82.5h2l-74 69q-31 31 -37 33q-14 -9 -40.5 -36.5t-30.5 -41.5q-27 -56 -103 -117t-112 -61z" />
    <glyph glyph-name="edieresis" unicode="&#xeb;" horiz-adv-x="1032" 
d="M451 14h-13q-30 0 -110 35.5t-109 52.5h2q-72 44 -110.5 133.5t-38.5 247.5q0 78 33.5 158t90 144.5t139.5 105.5t175 41q132 0 205.5 -49.5t144.5 -171.5l23 -39l-4 4q10 -20 10 -31q0 -45 -11 -68t-25 -26t-33 -7t-29 -14q-16 -16 -72 -16q-27 0 -79.5 3t-82.5 3h-100
q-62 0 -91.5 -12.5t-29.5 -48.5q0 -11 12 -65t12 -58v-2l15 -19q31 -55 66.5 -81.5t86.5 -26.5h35q39 0 93.5 26t72.5 31l29 17q20 20 39 20q22 0 31.5 -8.5t9.5 -28.5q0 -23 -19.5 -54.5t-21.5 -41.5v2q-42 -73 -152.5 -114.5t-193.5 -41.5zM354 614h66q73 15 142.5 23
t100.5 9.5t31 2.5q0 2 -3 10t-12 23.5t-22.5 31t-39.5 33.5t-58 31l-31 13q-3 0 -9.5 1t-10.5 1q-64 0 -112 -54t-48 -104q0 -21 6 -21zM580 1020q-35 0 -61.5 34t-33.5 72q0 24 9 50.5t27.5 53t54 43.5t81.5 17q39 0 68.5 -15t45.5 -38.5t24 -48.5t8 -49q-8 -55 -82 -87
t-141 -32zM268 1014l-18 4q-94 28 -94 106q0 45 54 106.5t112 61.5t108.5 -37.5t50.5 -83.5q0 -37 -27 -68.5t-53 -43.5l5 2l-21 -10l-25 -4l2 -3q-15 -4 -37 -12.5t-36 -13t-21 -4.5z" />
    <glyph glyph-name="igrave" unicode="&#xec;" horiz-adv-x="624" 
d="M16 -6h-2q-31 2 -43 13.5t-12 43.5q0 30 49 58l68 36h-2q17 11 36 44.5t23 74.5q0 9 -4.5 32t-12 73.5t-12.5 119.5l-10 66q-8 46 -8 72q0 7 1 16.5t1 11.5v27l-4 2q-42 5 -64 16.5t-22 36.5q0 21 29.5 38.5t88.5 49.5t105 74q37 34 62 37q22 0 36 -8t19.5 -25t6.5 -29.5
t1 -35.5q0 -27 -7.5 -93.5t-16.5 -89.5q1 0 2 -11.5t2 -30t2.5 -41t2.5 -45t1.5 -41t1.5 -29.5v-11q0 -35 -4 -88.5t-4 -93.5q0 -56 7 -72.5t38 -31.5q14 -6 24.5 -13t15.5 -11t12.5 -11t10.5 -10q51 -15 51 -66q0 -33 -8 -42t-41 -9q-74 0 -106.5 9t-81.5 9h-15l-7 -2
q-7 -2 -11 -2l-65 -12q-62 -13 -93 -10q-9 0 -21 2t-20 2zM414 1051h-15q-13 4 -107.5 66.5t-115.5 80.5q-8 2 -24 14q-154 92 -154 166q0 21 24 48.5t72 27.5q32 0 78.5 -31t153.5 -133l34 -30h-2q36 -32 53.5 -48.5t38.5 -48.5t21 -59q0 -26 -21.5 -39.5t-35.5 -13.5z" />
    <glyph glyph-name="iacute" unicode="&#xed;" horiz-adv-x="624" 
d="M100 -6h-2q-31 2 -43 13.5t-12 43.5q0 30 49 58l68 36q16 12 34.5 45t22.5 74v-2q0 10 -4.5 33t-12 74t-12.5 120l-10 66q-8 46 -8 72q0 7 1 16.5t1 11.5v27l-4 2q-40 5 -62 16.5t-22 36.5q0 20 27.5 37t86 50t107.5 75q37 34 64 37q22 0 35 -8t18.5 -25t6.5 -29.5
t1 -35.5q0 -27 -7.5 -93.5t-16.5 -89.5q1 0 2 -11.5t2 -30t2.5 -41t2.5 -45t1.5 -41t1.5 -29.5v-11q0 -35 -4 -88.5t-4 -93.5q0 -56 7 -72.5t38 -31.5q14 -6 24.5 -13t15.5 -11t12.5 -11t10.5 -10q51 -15 51 -66q0 -33 -8 -42t-41 -9q-75 0 -107.5 9t-78.5 9h-17q-1 0 -8 -2
t-10 -2l-66 -12q-62 -13 -92 -10q-8 0 -20 2t-21 2zM389 1051q-11 8 -18 30l2 -2l-8 23v31q3 8 17 22t38 35.5t37 34.5l53 51q5 13 60 70t55 67l26 17l-4 -5q71 56 105 56q36 0 67 -35t31 -68q0 -56 -90 -125l-103 -79l2 4q-8 -8 -49 -35l-80 -51h2q-3 -2 -13.5 -9.5
t-16 -11t-16 -10.5t-18 -10.5t-16.5 -8t-17 -6.5t-15 -2q-14 0 -31 17z" />
    <glyph glyph-name="icircumflex" unicode="&#xee;" horiz-adv-x="624" 
d="M104 -6h-2q-31 2 -43 13.5t-12 43.5q0 30 49 58l68 36h-2q17 11 36 44.5t23 74.5q0 9 -4.5 32t-11.5 73.5t-12 119.5l-11 66q-8 46 -8 72q0 7 1 16.5t1 11.5v27l-4 2q-41 5 -62.5 16.5t-21.5 36.5q0 21 29 38.5t87.5 49.5t104.5 74q37 34 62 37q22 0 36 -8t19.5 -25
t6.5 -29.5t1 -35.5q0 -27 -7.5 -93.5t-16.5 -89.5q1 0 2 -11.5t2 -30t2.5 -41t2.5 -45t1.5 -41t1.5 -29.5v-11q0 -35 -4 -88.5t-4 -93.5q0 -56 7 -72.5t38 -31.5q14 -6 24.5 -13t15.5 -11t12.5 -11t10.5 -10q51 -15 51 -66q0 -33 -8 -42t-41 -9q-74 0 -106.5 9t-81.5 9h-14
l-8 -2q-8 -2 -11 -2l-65 -12q-62 -13 -93 -10q-9 0 -21 2t-20 2zM92 965h-12q-26 7 -37.5 30.5t-11.5 48.5q30 21 88 99l10 14l33 51q93 148 117 176l16 25q6 8 19.5 30.5t21.5 34t23.5 22.5t31.5 11t29 -5t47.5 -41t81.5 -105v2l35 -45q24 -35 40 -56t20.5 -26t4.5 -6
l19 -27q0 -2 43 -70t43 -81q0 -29 -26 -43.5t-52 -14.5q-16 0 -62 19q-25 8 -48.5 28t-78.5 82h2l-73 70q-31 31 -37 33q-14 -9 -41 -36.5t-31 -41.5q-27 -56 -103 -117t-112 -61z" />
    <glyph glyph-name="idieresis" unicode="&#xef;" horiz-adv-x="624" 
d="M104 -6h-2q-31 2 -43 13.5t-12 43.5q0 30 49 58l68 36h-2q17 11 36 44.5t23 74.5q-1 11 -4 32l-10.5 73.5t-16.5 119.5l-8 66q-8 46 -8 72q0 7 1 16.5t1 11.5v27l-4 2q-42 5 -64 16.5t-22 36.5q0 21 29.5 38.5t88.5 49.5t105 74q37 34 62 37q22 0 36 -8t19.5 -25
t6.5 -29.5t1 -35.5q0 -27 -7.5 -93.5t-16.5 -89.5q1 0 2 -11.5t2 -30t2.5 -41t2.5 -45t1.5 -41t1.5 -29.5v-11q0 -35 -4 -88.5t-4 -93.5q0 -56 7 -72.5t38 -31.5q14 -6 24.5 -13t15.5 -11t12.5 -11t10.5 -10q51 -15 51 -66q0 -33 -8 -42t-41 -9q-74 0 -106.5 9t-81.5 9h-14
l-8 -2q-8 -2 -11 -2l-65 -12q-62 -13 -93 -10q-13 0 -24 2t-17 2zM391 1051q-35 0 -61 34t-33 72q0 24 9 50.5t27.5 53t54 43.5t81.5 17q51 0 85.5 -26.5t47 -59.5t12.5 -66q-6 -38 -47.5 -66.5t-88.5 -40t-87 -11.5zM80 1044l-19 5q-94 28 -94 106q0 45 54 106.5t112 61.5
t109 -37.5t51 -83.5q0 -37 -27 -68.5t-53 -43.5l4 2l-20 -11l-25 -4l2 -2q-15 -5 -36.5 -13t-36 -13t-21.5 -5z" />
    <glyph glyph-name="ntilde" unicode="&#xf1;" horiz-adv-x="1202" 
d="M86 12q-24 0 -36.5 12.5t-12.5 28.5q0 24 27.5 47t62.5 41.5t41 24.5q18 9 20 14l-2 -2q16 36 25.5 163t9.5 234q0 69 -14 97h-8q-67 3 -88 47l-15 26l15 23l8 12t9 9.5t11.5 9t20 11t30.5 15.5t47.5 24t65.5 34h-2l59 37q10 5 30 11t24 11q23 0 33 -11t10 -36
q0 -28 -8 -41q60 36 61 37v-2q76 43 137 43q66 0 160.5 -32t101.5 -83q0 -13 7 -26.5t13.5 -22t4.5 -10.5v-25q0 -10 4 -35t4 -34q0 -1 -2 -27t-2 -64q0 -18 -4 -18v6q0 -2 -1 -7t-1 -7q0 -1 1 -2t1 -2q0 -16 -5 -54.5t-7 -42.5q0 -3 2 -10t4 -32t2 -70q0 -10 -1.5 -19
t-2.5 -13l-2 -5q8 -24 10 -37q0 2 2 2q0 -32 10 -45l6 -22q9 -13 9 -19l16 -10q9 -9 39 -19.5t50.5 -27.5t20.5 -49q0 -26 -57 -41t-100 -15q-34 0 -66.5 9.5t-50.5 9.5q-3 -1 -16 -2.5t-32 -3t-24 -2.5h4q-10 -2 -26 -2h-27q-17 4 -37 6.5t-29 4t-18.5 6t-12.5 14.5t-3 28
q0 56 100 100q23 67 42.5 212.5t19.5 215.5q0 75 -39.5 108.5t-87.5 33.5q-74 0 -113.5 -29.5t-57.5 -104.5t-18 -217q0 -124 21 -229l22 -10l-2 2q5 -2 22.5 -10t24.5 -12t18.5 -11.5t16 -15t4.5 -15.5q0 -21 -28 -41v9q-6 -12 -58.5 -23.5t-109.5 -11.5l-86 6q-28 4 -54 4
q-17 0 -58.5 -15.5t-84.5 -15.5zM961 176h2h-2zM305 934q-47 0 -47 82q0 28 37 81.5t98.5 99.5t116.5 46q20 0 55 -11t60 -11q91 0 113 6t57 43l10 12q41 41 61 41q24 0 33 -18l14 -31q0 -15 -50.5 -71t-119.5 -107.5t-108 -51.5q-15 0 -43 4.5t-45 4.5h-29q-41 -24 -81 -50
t-58.5 -39t-37.5 -21.5t-36 -8.5z" />
    <glyph glyph-name="ograve" unicode="&#xf2;" horiz-adv-x="1159" 
d="M451 -4h-11q-51 0 -80 18h2q-12 4 -20.5 9.5t-15.5 13t-9 8.5l2 -2l-14 10q-37 9 -90 70q-65 37 -106 130.5t-41 238.5q2 2 2 12v6q0 21 8 33l-2 -2l4 12q22 110 114.5 224t178.5 159q69 35 202 35q53 0 99.5 -13.5t62.5 -25.5q134 -104 197 -203t63 -166
q0 -103 -41 -203q-8 -18 -8 -22l-2 -8l-4 4l-4 -23q0 -62 -37 -94l-10 -14q-87 -108 -186.5 -158.5t-239.5 -50.5q-10 0 -14 2zM555 162q0 -2 2 -2q12 0 63 35.5t66 50.5l10 26v-2q33 96 43 109l4 10l2 12q0 1 -1 -1t-1 -3q0 2 1 3.5t3 2.5t4.5 6t5 12.5t5 23t4.5 37t3 55.5
t1 77l-2 2q0 2 -1 9.5t-1 9.5v12q-4 6 -4 27l-4 10q-3 3 -3.5 7t-2.5 9t-19 23t-49 45l-10 12q-14 0 -17 0.5t-4.5 3t-4.5 6t-20.5 11.5t-47.5 18q-27 8 -43 8h-9q-44 0 -58 -7t-50 -46l-10 -10q-38 -40 -58.5 -81.5t-29.5 -102.5q-7 -4 -7 -15l-2 -30q-2 0 -2 8
q0 -11 -6 -17v-12q-1 -1 -4.5 -24.5t-3.5 -26.5l4 -57v6q6 -8 6 -37q4 -18 32 -61t28 -58l55 -63l35 -27q9 0 18.5 -4t40.5 -4q19 0 39 4zM944 322l2 8zM295 414l2 2zM633 1016h-15q-13 4 -107.5 66.5t-115.5 80.5q-6 1 -24 15q-154 92 -154 165q0 21 24 48.5t72 27.5
q32 0 78.5 -31t153.5 -133l35 -30h-2q35 -31 53 -48t38.5 -49t20.5 -59q0 -26 -21.5 -39.5t-35.5 -13.5z" />
    <glyph glyph-name="oacute" unicode="&#xf3;" horiz-adv-x="1159" 
d="M451 -4h-11q-51 0 -80 18h2q-12 4 -20.5 9.5t-15.5 13t-9 8.5l2 -2l-14 10q-37 9 -90 70q-65 37 -106 130.5t-41 238.5q2 2 2 12v6q0 21 8 33l-2 -2l4 12q22 110 114.5 224t178.5 159q69 35 202 35q53 0 99.5 -13.5t62.5 -25.5q134 -104 197 -203t63 -166
q0 -103 -41 -203q-8 -18 -8 -22l-2 -8l-4 4l-4 -23q0 -62 -37 -94l-10 -14q-87 -108 -186.5 -158.5t-239.5 -50.5q-10 0 -14 2zM555 162q0 -2 2 -2q12 0 63 35.5t66 50.5l10 26v-2q33 96 43 109l4 10l2 12q0 1 -1 -1t-1 -3q0 2 1 3.5t3 2.5t4.5 6t5 12.5t5 23t4.5 37t3 55.5
t1 77l-2 2q0 2 -1 9.5t-1 9.5v12q-4 6 -4 27l-4 10q-3 3 -3.5 7t-2.5 9t-19 23t-49 45l-10 12q-14 0 -17 0.5t-4.5 3t-4.5 6t-20.5 11.5t-47.5 18q-27 8 -43 8h-9q-44 0 -58 -7t-50 -46l-10 -10q-38 -40 -58.5 -81.5t-29.5 -102.5q-7 -4 -7 -15l-2 -30q-2 0 -2 8
q0 -11 -6 -17v-12q-1 -1 -4.5 -24.5t-3.5 -26.5l4 -57v6q6 -8 6 -37q4 -18 32 -61t28 -58l55 -63l35 -27q9 0 18.5 -4t40.5 -4q19 0 39 4zM944 322l2 8zM295 414l2 2zM666 1024q-12 9 -19 31l2 -2l-8 22v31q3 8 17 22t38 35.5t37 34.5l53 51q5 13 60 70t55 67l27 17l-4 -4
q70 55 104 55q36 0 67 -34.5t31 -67.5q0 -56 -90 -125l-102 -80l2 4q-8 -8 -49 -35l-80 -51h2q-83 -57 -113 -57q-14 0 -30 16z" />
    <glyph glyph-name="ocircumflex" unicode="&#xf4;" horiz-adv-x="1159" 
d="M451 -4h-11q-51 0 -80 18h2q-12 4 -20.5 9.5t-15.5 13t-9 8.5l2 -2l-14 10q-37 9 -90 70q-65 37 -106 130.5t-41 238.5q2 2 2 12v6q0 21 8 33l-2 -2l4 12q22 110 114.5 224t178.5 159q69 35 202 35q53 0 99.5 -13.5t62.5 -25.5q134 -104 197 -203t63 -166
q0 -103 -41 -203q-8 -18 -8 -22l-2 -8l-4 4l-4 -23q0 -62 -37 -94l-10 -14q-87 -108 -186.5 -158.5t-239.5 -50.5q-10 0 -14 2zM555 162q0 -2 2 -2q12 0 63 35.5t66 50.5l10 26v-2q33 96 43 109l4 10l2 12q0 1 -1 -1t-1 -3q0 2 1 3.5t3 2.5t4.5 6t5 12.5t5 23t4.5 37t3 55.5
t1 77l-2 2q0 2 -1 9.5t-1 9.5v12q-4 6 -4 27l-4 10q-3 3 -3.5 7t-2.5 9t-19 23t-49 45l-10 12q-14 0 -17 0.5t-4.5 3t-4.5 6t-20.5 11.5t-47.5 18q-27 8 -43 8h-9q-44 0 -58 -7t-50 -46l-10 -10q-38 -40 -58.5 -81.5t-29.5 -102.5q-7 -4 -7 -15l-2 -30q-2 0 -2 8
q0 -11 -6 -17v-12q-1 -1 -4.5 -24.5t-3.5 -26.5l4 -57v6q6 -8 6 -37q4 -18 32 -61t28 -58l55 -63l35 -27q9 0 18.5 -4t40.5 -4q19 0 39 4zM944 322l2 8zM295 414l2 2zM303 940h-12q-26 7 -37.5 31t-11.5 49q32 22 88 98l10 15l32 50q93 149 117 177l17 24q6 8 19.5 30.5
t21.5 34.5t23.5 23t31.5 11q12 0 21 -3t27.5 -16t46 -46.5t63.5 -86.5v2l35 -45q24 -35 40 -56t20.5 -26t4.5 -6l19 -26q0 -2 43 -70.5t43 -81.5q0 -29 -25.5 -43t-52.5 -14q-19 0 -62 18q-24 8 -48 28.5t-79 82.5h2l-73 69q-31 31 -37 33q-14 -9 -41 -36.5t-31 -41.5
q-27 -56 -103 -117t-112 -61z" />
    <glyph glyph-name="odieresis" unicode="&#xf6;" horiz-adv-x="1159" 
d="M451 -4h-11q-51 0 -80 18h2q-12 4 -20.5 9.5t-15.5 13t-9 8.5l2 -2l-14 10q-37 9 -90 70q-65 37 -106 130.5t-41 238.5q2 2 2 12v6q0 21 8 33l-2 -2l4 12q22 110 114.5 224t178.5 159q69 35 202 35q53 0 99.5 -13.5t62.5 -25.5q134 -104 197 -203t63 -166
q0 -103 -41 -203q-8 -18 -8 -22l-2 -8l-4 4l-4 -23q0 -62 -37 -94l-10 -14q-87 -108 -186.5 -158.5t-239.5 -50.5q-10 0 -14 2zM555 162q0 -2 2 -2q12 0 63 35.5t66 50.5l10 26v-2q33 96 43 109l4 10l2 12q0 1 -1 -1t-1 -3q0 2 1 3.5t3 2.5t4.5 6t5 12.5t5 23t4.5 37t3 55.5
t1 77l-2 2q0 2 -1 9.5t-1 9.5v12q-4 6 -4 27l-4 10q-3 3 -3.5 7t-2.5 9t-19 23t-49 45l-10 12q-14 0 -17 0.5t-4.5 3t-4.5 6t-20.5 11.5t-47.5 18q-27 8 -43 8h-9q-44 0 -58 -7t-50 -46l-10 -10q-38 -40 -58.5 -81.5t-29.5 -102.5q-7 -4 -7 -15l-2 -30q-2 0 -2 8
q0 -11 -6 -17v-12q-1 -1 -4.5 -24.5t-3.5 -26.5l4 -57v6q6 -8 6 -37q4 -18 32 -61t28 -58l55 -63l35 -27q9 0 18.5 -4t40.5 -4q19 0 39 4zM944 322l2 8zM295 414l2 2zM602 1020q-35 0 -61 34t-33 72q0 24 9 50.5t27.5 53t54 43.5t81.5 17q51 0 85.5 -26.5t47 -59t12.5 -65.5
q-8 -55 -82 -87t-141 -32zM291 1014l-19 4q-94 28 -94 106q0 45 54 106.5t112 61.5t109 -37.5t51 -83.5q0 -37 -27 -68.5t-53 -43.5l4 2l-20 -10l-25 -4l2 -3q-15 -4 -37 -12.5t-36 -13t-21 -4.5z" />
    <glyph glyph-name="ugrave" unicode="&#xf9;" 
d="M655 -12q-14 17 -14 30q0 18 23 56q-14 -14 -35 -23l-88 -57q-37 -12 -86 -12h-25q-72 0 -86 10l-14 6q-18 3 -35.5 11t-27 14t-24 17.5t-16.5 12.5l-24 17q-4 16 -31.5 45t-38.5 59v-2l-16 37l10 299q0 12 2 41t2 59q0 36 -0.5 60t-3 41.5t-3.5 26.5t-7.5 15.5t-8.5 7.5
t-13.5 4t-16.5 5l-31 10q-21 7 -29 10t-16 12.5t-8 24.5q0 19 7 28.5t28.5 16t47 10t78 13t105.5 22.5l47 7q20 4 33 4q11 0 29 -19t18 -43q0 -28 -5.5 -42.5t-12 -22.5t-12 -50t-5.5 -118q0 -14 1 -35.5t1 -28.5v-41q0 -37 -3 -76t-3 -65l6 -82q0 -46 45.5 -85.5
t92.5 -39.5q27 0 59.5 14t49 25.5t20.5 15.5l14 13q16 11 16 63q-2 6 -2 27q0 34 10.5 167t10.5 150q0 51 -15.5 76t-38 28t-45 4t-38 15.5t-15.5 50.5q0 43 123 50q25 0 52 6t40 6q8 0 45.5 7t48.5 11l25 8q9 3 25 3q27 0 45 -16.5t18 -43.5q0 -24 -31 -55l-16 -19v-4
q0 -5 2 -15t2 -15q0 -30 -17.5 -117t-17.5 -107v-2q0 -6 -1 -18t-1 -19q0 -21 4 -49v2q3 -8 6 -96l4 -151q113 0 113 -70q-9 -39 -59 -49l-29 -6q-59 -13 -81 -19.5t-30 -10.5t-23 -19t-36 -31q-34 -21 -43 -21q-20 0 -31 21zM655 1018h-14q-13 4 -107.5 66.5t-115.5 80.5
q-8 2 -25 15q-153 92 -153 166q0 21 24 48t72 27q32 0 78 -31t153 -133l35 -30h-2q36 -32 53.5 -48.5t38.5 -48.5t21 -59q0 -26 -21.5 -39.5t-36.5 -13.5z" />
    <glyph glyph-name="uacute" unicode="&#xfa;" 
d="M655 -12q-14 17 -14 30q0 18 23 56q-14 -14 -35 -23l-88 -57q-37 -12 -86 -12h-25q-72 0 -86 10l-14 6q-18 3 -35.5 11t-27 14t-24 17.5t-16.5 12.5l-24 17q-4 16 -31.5 45t-38.5 59v-2l-16 37l10 299q0 12 2 41t2 59q0 36 -0.5 60t-3 41.5t-3.5 26.5t-7.5 15.5t-8.5 7.5
t-13.5 4t-16.5 5l-31 10q-21 7 -29 10t-16 12.5t-8 24.5q0 19 7 28.5t28.5 16t47 10t78 13t105.5 22.5l47 7q20 4 33 4q11 0 29 -19t18 -43q0 -28 -5.5 -42.5t-12 -22.5t-12 -50t-5.5 -118q0 -14 1 -35.5t1 -28.5v-41q0 -37 -3 -76t-3 -65l6 -82q0 -46 45.5 -85.5
t92.5 -39.5q27 0 59.5 14t49 25.5t20.5 15.5l14 13q16 11 16 63q-2 6 -2 27q0 34 10.5 167t10.5 150q0 51 -15.5 76t-38 28t-45 4t-38 15.5t-15.5 50.5q0 43 123 50q25 0 52 6t40 6q8 0 45.5 7t48.5 11l25 8q9 3 25 3q27 0 45 -16.5t18 -43.5q0 -24 -31 -55l-16 -19v-4
q0 -5 2 -15t2 -15q0 -30 -17.5 -117t-17.5 -107v-2q0 -6 -1 -18t-1 -19q0 -21 4 -49v2q3 -8 6 -96l4 -151q113 0 113 -70q-9 -39 -59 -49l-29 -6q-59 -13 -81 -19.5t-30 -10.5t-23 -19t-36 -31q-34 -21 -43 -21q-20 0 -31 21zM717 1024q-12 9 -19 31l2 -2l-8 22v31
q3 8 17 22t38 35.5t37 34.5l54 51q5 13 59.5 70t54.5 67l27 17l-4 -4q70 55 104 55q36 0 67.5 -34.5t31.5 -67.5q0 -55 -91 -125l-102 -80l2 4q-8 -8 -49 -35l-80 -51h2q-83 -57 -112 -57q-15 0 -31 16z" />
    <glyph glyph-name="ucircumflex" unicode="&#xfb;" 
d="M655 -12q-14 17 -14 30q0 18 23 56q-14 -14 -35 -23l-88 -57q-37 -12 -86 -12h-25q-72 0 -86 10l-14 6q-18 3 -35.5 11t-27 14t-24 17.5t-16.5 12.5l-24 17q-4 16 -31.5 45t-38.5 59v-2l-16 37l10 299q0 12 2 41t2 59q0 36 -0.5 60t-3 41.5t-3.5 26.5t-7.5 15.5t-8.5 7.5
t-13.5 4t-16.5 5l-31 10q-21 7 -29 10t-16 12.5t-8 24.5q0 19 7 28.5t28.5 16t47 10t78 13t105.5 22.5l47 7q20 4 33 4q11 0 29 -19t18 -43q0 -28 -5.5 -42.5t-12 -22.5t-12 -50t-5.5 -118q0 -14 1 -35.5t1 -28.5v-41q0 -37 -3 -76t-3 -65l6 -82q0 -46 45.5 -85.5
t92.5 -39.5q27 0 59.5 14t49 25.5t20.5 15.5l14 13q16 11 16 63q-2 6 -2 27q0 34 10.5 167t10.5 150q0 51 -15.5 76t-38 28t-45 4t-38 15.5t-15.5 50.5q0 43 123 50q25 0 52 6t40 6q8 0 45.5 7t48.5 11l25 8q9 3 25 3q27 0 45 -16.5t18 -43.5q0 -24 -31 -55l-16 -19v-4
q0 -5 2 -15t2 -15q0 -30 -17.5 -117t-17.5 -107v-2q0 -6 -1 -18t-1 -19q0 -21 4 -49v2q3 -8 6 -96l4 -151q113 0 113 -70q-9 -39 -59 -49l-29 -6q-59 -13 -81 -19.5t-30 -10.5t-23 -19t-36 -31q-34 -21 -43 -21q-20 0 -31 21zM338 940h-12q-26 7 -38 31.5t-12 48.5
q34 24 89 98l10 15l32 50q93 149 117 177l17 24q6 8 19.5 30.5t21.5 34.5t23.5 23t31.5 11q12 0 21 -3t27.5 -16t46 -46.5t63.5 -86.5v2l34 -45q24 -35 40 -56t21 -26t5 -6l18 -26q0 -2 43 -70.5t43 -81.5q0 -29 -25.5 -43t-51.5 -14q-19 0 -62 18q-24 8 -48 28.5t-79 82.5
h2l-73 69q-31 31 -37 33q-14 -9 -41 -36.5t-31 -41.5q-27 -56 -103 -117t-112 -61z" />
    <glyph glyph-name="udieresis" unicode="&#xfc;" 
d="M655 -12q-14 17 -14 30q0 18 23 56q-14 -14 -35 -23l-88 -57q-37 -12 -86 -12h-25q-72 0 -86 10l-14 6q-18 3 -35.5 11t-27 14t-24 17.5t-16.5 12.5l-24 17q-4 16 -31.5 45t-38.5 59v-2l-16 37l10 299q0 12 2 41t2 59q0 36 -0.5 60t-3 41.5t-3.5 26.5t-7.5 15.5t-8.5 7.5
t-13.5 4t-16.5 5l-31 10q-21 7 -29 10t-16 12.5t-8 24.5q0 19 7 28.5t28.5 16t47 10t78 13t105.5 22.5l47 7q20 4 33 4q11 0 29 -19t18 -43q0 -28 -5.5 -42.5t-12 -22.5t-12 -50t-5.5 -118q0 -14 1 -35.5t1 -28.5v-41q0 -37 -3 -76t-3 -65l6 -82q0 -46 45.5 -85.5
t92.5 -39.5q27 0 59.5 14t49 25.5t20.5 15.5l14 13q16 11 16 63q-2 6 -2 27q0 34 10.5 167t10.5 150q0 51 -15.5 76t-38 28t-45 4t-38 15.5t-15.5 50.5q0 43 123 50q25 0 52 6t40 6q8 0 45.5 7t48.5 11l25 8q9 3 25 3q27 0 45 -16.5t18 -43.5q0 -24 -31 -55l-16 -19v-4
q0 -5 2 -15t2 -15q0 -30 -17.5 -117t-17.5 -107v-2q0 -6 -1 -18t-1 -19q0 -21 4 -49v2q3 -8 6 -96l4 -151q113 0 113 -70q-9 -39 -59 -49l-29 -6q-59 -13 -81 -19.5t-30 -10.5t-23 -19t-36 -31q-34 -21 -43 -21q-20 0 -31 21zM678 1020q-35 0 -61 34t-33 72q0 24 9 50.5
t27.5 53t54 43.5t81.5 17q51 0 85.5 -26.5t47 -59t12.5 -65.5q-8 -55 -82 -87t-141 -32zM367 1014l-19 4q-94 28 -94 106q0 45 54 106.5t112 61.5t109 -37.5t51 -83.5q0 -37 -27 -68.5t-53 -43.5l4 2l-21 -10l-24 -4l2 -3q-15 -4 -37 -12.5t-36 -13t-21 -4.5z" />
    <glyph glyph-name="circumflex" unicode="&#x2c6;" horiz-adv-x="768" 
d="M156 940h-13q-26 7 -37.5 31t-11.5 49q32 22 88 98l11 15l32 50q93 149 117 177l16 24q6 8 19.5 31t22 34.5t24 22.5t31.5 11q12 0 21 -3t27 -16t45.5 -46.5t63.5 -86.5v2l35 -45q24 -35 40 -56t21 -26t5 -6l18 -26q0 -2 43 -70.5t43 -81.5q0 -29 -25.5 -43t-52.5 -14
q-17 0 -61 18q-24 8 -48 28.5t-79 82.5h2l-74 69q-31 31 -37 33q-14 -9 -40.5 -36.5t-30.5 -41.5q-27 -56 -103 -117t-112 -61z" />
    <glyph glyph-name="endash" unicode="&#x2013;" horiz-adv-x="1099" 
d="M182 393q-54 0 -100.5 15.5t-46.5 48.5l2 -8l-2 10q-12 15 -12 26q0 17 7 30t27 26.5t66 20.5t115 7h118q47 0 75 -0.5t65.5 -1.5t58.5 -3t47 -6t39.5 -10t26.5 -14.5t18.5 -20t5.5 -26.5q0 -23 -24 -38t-65 -22t-80.5 -9.5t-86.5 -4.5t-67 -5l-45 -2q-7 0 -63.5 -7
t-78.5 -6z" />
    <glyph glyph-name="emdash" unicode="&#x2014;" horiz-adv-x="2123" 
d="M485 379h-14q-192 0 -192 115q4 22 51 40t167 31t300 13q53 0 189 -7.5t314 -7.5h66q27 0 37 2l16 -2q11 0 49 -2t58 -2q78 0 153 10.5t140 10.5q107 0 152.5 -21.5t45.5 -71.5q0 -21 -6 -33t-23 -19t-39.5 -9t-65 -3t-89 -1t-121.5 -4t-153 -12l-64 -7q-22 0 -72 -6
t-112 -6l-101 6q-114 15 -235 15h-35l-57 -7q-116 0 -188 -3.5t-92 -8.5t-38 -8.5t-39 -3.5z" />
    <glyph glyph-name="quoteleft" unicode="&#x2018;" horiz-adv-x="489" 
d="M219 954q-17 4 -33 11.5t-36.5 25.5t-35.5 43t-25.5 67t-10.5 95q0 48 4 77.5t19.5 65.5t48.5 68.5t88 69.5q79 53 106 53q10 0 18 -6l-2 2q2 -2 9 -2l77 -4l-61 -62q-98 -98 -98 -110l-15 -19l2 2q-36 -45 -36 -88q0 -7 19 -14.5t46.5 -17t55 -23t46.5 -37.5t19 -55
q0 -23 -5.5 -44.5t-20 -47t-47 -41t-79.5 -15.5q-29 0 -53 6z" />
    <glyph glyph-name="quoteright" unicode="&#x2019;" horiz-adv-x="489" 
d="M119 981v20q0 28 33 48v-2q41 30 55 53l-2 -2l14 24q9 4 30 56.5t21 58.5q2 2 2 12v15q-19 -15 -41 -15q-68 0 -104.5 48.5t-36.5 107.5q0 24 10 41l13 18q3 2 13.5 14t29 28.5t43.5 33.5l55 23h33q74 0 124 -51t50 -126q0 -76 -28 -145.5t-69 -117.5t-88.5 -84t-87 -53
t-63.5 -17q0 10 -6 12z" />
    <glyph glyph-name="quotedblleft" unicode="&#x201c;" horiz-adv-x="909" 
d="M217 954q-17 4 -33 11.5t-36 25.5t-34.5 43t-25 67t-10.5 95q0 47 4.5 77t19.5 65.5t47.5 68.5t86.5 70q79 53 106 53q2 0 12 -3t15 -3l75 -4l-59 -62q-100 -102 -100 -110l-13 -19v2q-36 -50 -36 -88q0 -7 29.5 -17.5t64.5 -22.5t64.5 -40t29.5 -67q0 -22 -6 -44.5
t-20.5 -47.5t-47 -40.5t-78.5 -15.5q-31 0 -55 6zM563 971q-45 11 -76.5 49t-41 66t-9.5 40v29q0 9 -1 26t-1 23q0 52 12 90l5 23q0 25 16 33l6 10q14 23 70.5 83.5t85.5 69.5l10 9l88 45q7 0 19 7t24 7q19 0 26 -7.5t7 -27.5q0 -23 -53.5 -75t-65.5 -52q-14 0 -61.5 -58.5
t-47.5 -78.5q0 -18 32.5 -32t72 -24.5t72 -38.5t32.5 -71q0 -41 -51.5 -95t-126.5 -54q-23 0 -43 4z" />
    <glyph glyph-name="quotedblright" unicode="&#x201d;" horiz-adv-x="909" 
d="M438 981v20q0 27 35 48v-2q41 30 55 53l-2 -2l15 24q8 4 29.5 57t21.5 58q2 2 2 12v15q-19 -15 -43 -15q-48 0 -80 26t-47 66v-2q0 -99 -49 -184l-15 -20q-19 -26 -75.5 -72.5t-67.5 -50.5l2 2q-60 -33 -90 -33q-22 0 -30.5 6.5t-8.5 26.5q0 17 45 59q49 45 82 92.5
t35 69.5q0 9 -4.5 13.5t-22.5 11.5l4 -3q-94 11 -112 109l-11 29l13 28q19 47 67.5 76t94.5 29q52 0 85 -29.5t46 -77.5q3 14 10 25l10 18q3 2 14 14t30 28.5t44 33.5l55 23h31q75 0 124.5 -51t49.5 -126q0 -94 -41.5 -177t-98.5 -133t-110.5 -78.5t-85.5 -28.5q0 10 -6 12z
" />
    <glyph glyph-name="bullet" unicode="&#x2022;" horiz-adv-x="733" 
d="M61 680q0 105 109 147h-2q26 13 63 13q50 0 89.5 -22.5t54.5 -59.5l18 -45l-8 -29q-17 -60 -61 -104l-43 -43q-21 -21 -58 -21q-42 0 -74 15.5t-48 36t-26 46.5t-12 41t-2 25z" />
    <glyph glyph-name="ellipsis" unicode="&#x2026;" horiz-adv-x="1693" 
d="M506 41h2q-62 35 -62 111q0 53 53.5 111.5t114.5 58.5q58 0 100 -44t42 -96q0 -57 -55 -100t-121 -43h-11q-7 -10 -24 -10q-18 0 -39 12zM199 41h2q-62 35 -62 111q0 53 53 111.5t115 58.5q58 0 98.5 -44t40.5 -96q0 -57 -54.5 -100t-119.5 -43h-10q-7 -10 -26 -10
q-16 0 -37 12zM815 41h2q-61 34 -61 111q0 53 53.5 111.5t114.5 58.5q58 0 98.5 -44t40.5 -96q0 -57 -54.5 -100t-119.5 -43h-10q-7 -10 -27 -10q-16 0 -37 12z" />
    <glyph glyph-name="Euro" unicode="&#x20ac;" horiz-adv-x="1605" 
d="M1004 57q-97 0 -181 29h2l-16 4q-21 2 -82 20t-94 35q-13 4 -37 19t-68.5 56t-85.5 95q-39 93 -63 121l-2 2q-5 10 -12 17l-9 4h-88q-76 0 -112.5 5t-49 16t-12.5 34q0 121 201 121q14 0 16 -4l-6 20q-2 9 -5 23t-5 22t-5 16.5t-8.5 12.5t-13.5 4h-59q-71 0 -95 11.5
t-24 35.5q0 45 16.5 65.5t43.5 23t56 2t59 12.5t48 45q42 41 81.5 82.5t61 65.5t40.5 43.5t30 27.5t21 8q12 8 24 20l64 41l63 35q86 40 206 68t167 28q79 0 121.5 -3.5t49.5 -7.5t19 -7.5t37 -3.5l33 -2q1 -3 13 -13t14 -10q4 0 33 11.5t32 11.5q24 0 37.5 -13.5
t19.5 -43.5t8 -61.5t6.5 -83t12.5 -93.5l-34 -4q-11 -6 -33 -12.5t-27 -6.5q-13 0 -38 32t-42 63l-8 12l2 -2q-53 94 -242 94q-64 0 -94 -10l-65 -14q-7 -7 -16.5 -8.5t-39 -8t-71.5 -22.5q-14 -5 -29 -19t-27 -20q-7 -3 -43.5 -37.5t-37.5 -40.5q-35 -58 -35 -121
q0 -6 6 -7t39 -1h35q24 0 38 2h15q171 0 225.5 4t91.5 4q44 0 58.5 -15.5t17.5 -60.5l2 -26l-25 -21q-24 -12 -75 -18t-86 -6h-37q-6 0 -18 1t-17 1q-77 0 -191 -16.5t-114 -37.5q0 -34 11 -46t11 -23q0 -23 279 -23q48 0 112.5 3t75.5 3q51 0 65.5 -11.5t14.5 -51.5
q0 -34 -80.5 -53t-177.5 -22.5t-177.5 -8t-80.5 -12.5q0 -32 51.5 -86t83.5 -64q95 -53 160 -84q76 -37 145 -37q28 0 68 7l39 4q41 4 72.5 12t48 17t27 19t13.5 17t3 12q10 29 14 33l2 4q5 16 10 23l13 20v-2q10 19 21.5 38t28.5 41.5t36.5 37t36.5 14.5q57 0 57 -86
q0 -19 -18.5 -67t-18.5 -80q0 -7 3 -27t3 -35q0 -52 -14.5 -67t-65.5 -15h-18q-4 0 -16 1.5t-21 1.5q-133 0 -168 -23q-22 -9 -88.5 -19t-148.5 -10z" />
    </font>
</defs>
</svg>
