<?xml version="1.0" standalone="no"?>
<!DOCTYPE svg PUBLIC "-//W3C//DTD SVG 1.1//EN" "http://www.w3.org/Graphics/SVG/1.1/DTD/svg11.dtd" >
<svg xmlns="http://www.w3.org/2000/svg" xmlns:xlink="http://www.w3.org/1999/xlink" version="1.1">
<metadata>
Created by FontForge 20170731 at Fri Jan 22 20:55:26 2021
 By Aleksey,,,
</metadata>
<defs>
<font id="RankingsCaps-Regular" horiz-adv-x="1476" >
  <font-face 
    font-family="Rankings Caps"
    font-weight="400"
    font-variant="small-caps"
    font-stretch="normal"
    units-per-em="2048"
    panose-1="0 0 0 0 0 0 0 0 0 0"
    ascent="1536"
    descent="-512"
    x-height="1434"
    cap-height="1434"
    bbox="-190 -545 2173 1882"
    underline-thickness="102"
    underline-position="-358"
    unicode-range="U+000D-2212"
  />
<missing-glyph horiz-adv-x="512" 
 />
    <glyph glyph-name=".notdef" horiz-adv-x="512" 
 />
    <glyph glyph-name="uni0000" horiz-adv-x="0" 
 />
    <glyph glyph-name="uni0000" horiz-adv-x="0" 
 />
    <glyph glyph-name="uni000D" unicode="&#xd;" horiz-adv-x="512" 
 />
    <glyph glyph-name="space" unicode=" " horiz-adv-x="409" 
 />
    <glyph glyph-name="exclam" unicode="!" horiz-adv-x="475" 
d="M217 336l-133 952q-11 78 31 126t121 48q81 0 123.5 -48t31.5 -126l-133 -952h-41zM231 229q48 0 81.5 -26t41 -63.5t0 -75t-41 -63.5t-81.5 -26t-81.5 26t-41 63.5t0 75t41 63.5t81.5 26z" />
    <glyph glyph-name="quotedbl" unicode="&#x22;" horiz-adv-x="552" 
d="M139 973l-57 461h156l-58 -461h-41zM373 973l-58 461h156l-57 -461h-41z" />
    <glyph glyph-name="numbersign" unicode="#" horiz-adv-x="1492" 
d="M20 451l15 38h368l156 472h-414l15 38h411l146 435h41l-146 -435h471l146 435h41l-146 -435h349l-15 -38h-346l-156 -472h392l-15 -38h-391l-149 -451h-41l149 451h-471l-149 -451h-41l149 451h-369zM444 489h471l156 472h-471z" />
    <glyph glyph-name="dollar" unicode="$" horiz-adv-x="1482" 
d="M1116 1366q18 -9 33 -18q72 -37 111 -37q12 0 22.5 2.5t18 6t14.5 11t11 12t9.5 15t7 14.5t6 15.5t5.5 13.5h14v-422h-27q-25 108 -83.5 192.5t-138 137t-169 81.5t-188.5 37v-565q80 -18 135 -32t127.5 -37t121.5 -46.5t101 -58.5t83 -75t51 -93.5t20 -116.5
q0 -88 -32.5 -162t-89 -126t-132.5 -88.5t-162.5 -54t-179.5 -17.5h-43v-201h-41v203q-187 15 -344 100h-2q-4 2 -8 6q-8 4 -33 19q-72 37 -111 37q-12 0 -22.5 -2.5t-18 -6t-14.5 -11t-11 -12t-9.5 -15t-7 -14.5t-6 -15.5t-5.5 -13.5h-14v422h26q25 -108 83.5 -192.5
t138.5 -137t169.5 -82t188.5 -37.5v573q-62 14 -105 24t-101.5 26t-99 30.5t-89 36.5t-81.5 44.5t-66.5 53.5t-53 65.5t-31.5 78t-12 92.5q0 88 32.5 162t89 126.5t132.5 89t162.5 54t179.5 17.5h43v127h41v-129q185 -15 344 -101h2q4 -2 8 -6zM1294 262q0 129 -163 203
q-96 43 -335 95h-1h-1h-1l-1 1h-1h-1h-1h-1l-1 1h-1h-1h-1h-1l-1 1h-1h-1h-1l-1 1h-1h-1h-1h-1l-1 1h-1h-1h-2l-1 1h-1h-1h-1l-1 1h-1h-1v-567h29q131 0 246 33.5t186 94t71 134.5zM188 1167q0 -120 162 -192q96 -42 338 -96h1h1h1l1 -1h1h1h1l1 -1h1h1h1h1l1 -1h1h1h1l1 -1
h1h1h2h1l1 -1h1h1l1 -1h1h1h1h1l1 -1h2v558h-29q-131 0 -246 -33.5t-186.5 -94.5t-71.5 -135z" />
    <glyph glyph-name="percent" unicode="%" horiz-adv-x="1114" 
d="M29 1155q0 145 69.5 232.5t184.5 87.5q114 0 183 -87.5t69 -232.5t-69 -232t-183 -87q-115 0 -184.5 87t-69.5 232zM193 1155q0 -126 24.5 -202t65.5 -76q40 0 64 76t24 202t-24 202.5t-64 76.5q-41 0 -65.5 -76.5t-24.5 -202.5zM496 279q0 145 69.5 232t184.5 87
q114 0 182.5 -87t68.5 -232t-68.5 -232.5t-182.5 -87.5q-115 0 -184.5 87.5t-69.5 232.5zM659 279q0 -126 25 -202.5t66 -76.5q40 0 64 76.5t24 202.5t-24 202t-64 76q-41 0 -66 -76t-25 -202zM29 0l919 1434h53l-919 -1434h-53z" />
    <glyph glyph-name="ampersand" unicode="&#x26;" horiz-adv-x="1626" 
d="M606 -55q-115 0 -212 25t-163 67.5t-108 99.5t-54.5 119.5t5.5 130t64 128.5t129 116.5t194 93.5q-193 248 -193 420q0 86 35 154t93.5 109.5t130.5 63t151 21.5q81 0 157 -22t137.5 -63t98.5 -106t37 -143q0 -87 -55 -169t-138.5 -135.5t-173.5 -70.5q168 -186 437 -426
q39 70 45.5 151t-11.5 163q-21 118 21.5 183t107.5 65q43 0 73 -29t30 -80q0 -280 -191 -520q149 -134 248 -213q49 -39 109 -39h16v-39h-401q-60 43 -148 117q-108 -81 -230 -126.5t-241 -45.5zM516 653q-67 -45 -113.5 -111.5t-65 -137t-8 -141t48 -126t113 -90.5
t177.5 -35q87 0 178 42t170 112q-317 269 -500 487zM922 1204q0 114 -65 175t-157 61q-94 0 -165.5 -62t-71.5 -164q0 -114 231 -378q228 175 228 368z" />
    <glyph glyph-name="quotesingle" unicode="'" horiz-adv-x="319" 
d="M139 973l-57 461h156l-58 -461h-41z" />
    <glyph glyph-name="parenleft" unicode="(" horiz-adv-x="600" 
d="M518 -158q-118 0 -214.5 72.5t-156.5 191.5t-93 271t-33.5 311t31 311t91 271t157 191.5t218.5 72.5v-41q-65 0 -117.5 -69t-84 -182.5t-48 -258t-15.5 -295.5t19 -295.5t50 -258t83 -182.5t113 -69v-41z" />
    <glyph glyph-name="parenright" unicode=")" horiz-adv-x="600" 
d="M82 -158v41q62 0 113 69t83 182.5t50 258t19 295.5t-15.5 295.5t-48 258t-84 182.5t-117.5 69v41q121 0 218.5 -72.5t157 -191.5t91 -271t31 -311t-33.5 -311t-93 -271t-156.5 -191.5t-214.5 -72.5z" />
    <glyph glyph-name="asterisk" unicode="*" horiz-adv-x="716" 
d="M145 965q-21 -15 -39 -15q-23 0 -37 17t-7 40t38 37l238 93l-236 96q-29 13 -36.5 36t5 40.5t35.5 17.5q19 0 41 -16l199 -158l-39 250q-3 30 11 47.5t34 17.5q22 0 36.5 -17.5t10.5 -47.5l-37 -250l197 156q22 16 41 16q23 0 35.5 -17.5t5 -40.5t-36.5 -36l-231 -94
l233 -90q31 -14 38 -37t-7 -40.5t-37 -17.5q-18 0 -39 15l-199 155l37 -250q4 -30 -10.5 -47.5t-36.5 -17.5q-20 0 -34 17.5t-11 47.5l39 250z" />
    <glyph glyph-name="plus" unicode="+" horiz-adv-x="1040" 
d="M82 655v41h418v418h41v-418h417v-41h-417v-417h-41v417h-418z" />
    <glyph glyph-name="comma" unicode="," horiz-adv-x="423" 
d="M215 219q59 0 93 -38.5t34 -85.5t-34 -85.5t-93 -38.5t-92 38.5t-33 85.5t33.5 85.5t91.5 38.5zM215 41l125 57q0 -66 -30 -125t-74.5 -97t-81 -60.5t-64.5 -32.5q-1 2 -2.5 4t-4.5 8t1 8q42 32 71 62t42.5 51.5t19 44t5 34t-3.5 27.5t-3 19z" />
    <glyph glyph-name="hyphen" unicode="-" horiz-adv-x="839" 
d="M61 666v41h717v-41h-717z" />
    <glyph glyph-name="period" unicode="." horiz-adv-x="376" 
d="M188 229q48 0 81.5 -26t41 -63.5t0 -75t-41 -63.5t-81.5 -26t-81.5 26t-41 63.5t0 75t41 63.5t81.5 26z" />
    <glyph glyph-name="slash" unicode="/" horiz-adv-x="792" 
d="M20 0l678 1434h54l-678 -1434h-54z" />
    <glyph glyph-name="zero" unicode="0" horiz-adv-x="1409" 
d="M692 1436q-89 0 -161 -61.5t-116 -162.5t-68 -230t-24 -263t24 -263t68 -230t116 -162.5t161 -61.5t161.5 61.5t117 162.5t68.5 230t24 263t-24 263t-68.5 230t-117 162.5t-161.5 61.5zM705 1475q195 0 338.5 -112.5t208 -280.5t64.5 -365t-64.5 -365t-208 -280.5
t-338.5 -112.5q-148 0 -267.5 65t-193 171.5t-113.5 243t-40 278.5t40 278.5t113.5 243t193 171.5t267.5 65z" />
    <glyph glyph-name="one" unicode="1" horiz-adv-x="614" 
d="M82 41q46 0 74 28t28 74v1057l-135 -43v41q111 56 187 116.5t153 160.5h41v-1332q0 -46 28 -74t74 -28v-41h-450v41z" />
    <glyph glyph-name="two" unicode="2" horiz-adv-x="1183" 
d="M20 0l281 246q218 180 343 319.5t174.5 252.5t49.5 235q0 127 -81 208.5t-203 81.5q-113 0 -229.5 -78.5t-211.5 -240.5l-26 41q53 101 123.5 179t147.5 124.5t156 70t158 23.5q168 0 284 -97.5t116 -258.5q0 -70 -31 -148.5t-78.5 -149.5t-115 -146t-131 -134t-136 -119
t-120 -95.5t-93.5 -67.5h484q73 0 118 45t45 119v18h41v-428h-1065z" />
    <glyph glyph-name="three" unicode="3" horiz-adv-x="1304" 
d="M80 197q-33 49 -28 84t32.5 54t67.5 19q79 0 124 -63q88 -124 122 -163q118 -126 251 -128q139 0 224 93.5t85 262.5q0 73 -23.5 132.5t-57.5 96.5t-81 64.5t-85.5 40.5t-79.5 21l-109 -9l-45 35q45 0 93 10t98.5 34t90 58.5t64.5 90t25 123.5q0 130 -83 212.5t-204 82.5
q-107 0 -211.5 -72.5t-183.5 -222.5l-27 41q88 185 234 278.5t305 93.5q169 0 286 -98.5t117 -261.5q0 -257 -288 -356q62 -6 120 -20t115.5 -41.5t99.5 -65t68.5 -95t26.5 -127.5q0 -134 -76 -236t-210.5 -157t-305.5 -55q-105 0 -203.5 22.5t-194 79t-153.5 142.5z" />
    <glyph glyph-name="four" unicode="4" horiz-adv-x="1239" 
d="M20 401l994 1074h41v-1033h100v-41h-100v-258q0 -46 28 -74t74 -28v-41h-450v41q46 0 74 28t28 74v258h-789zM113 442h696v754z" />
    <glyph glyph-name="five" unicode="5" horiz-adv-x="1294" 
d="M90 197q-33 49 -28 84t32.5 54t67.5 19q80 0 125 -63q6 -9 19 -27q30 -43 46.5 -65.5t47 -59.5t55 -57t57.5 -41.5t69.5 -31t77.5 -9.5q139 0 224.5 93.5t85.5 262.5q0 76 -25.5 135.5t-62.5 92.5t-87 55t-89.5 29.5t-79.5 9.5h-510l149 741h766q50 0 80.5 30.5
t30.5 80.5v6h41l-31 -362h-891l-55 -277h588q76 0 154.5 -39.5t141.5 -104.5t103.5 -158.5t40.5 -193.5q0 -134 -76 -236t-210.5 -157t-305.5 -55q-105 0 -203.5 22.5t-194 79t-153.5 142.5z" />
    <glyph glyph-name="six" unicode="6" horiz-adv-x="1329" 
d="M653 954q-80 0 -144.5 -41t-104.5 -108t-61.5 -152.5t-21.5 -174.5t21.5 -174.5t61.5 -152.5t104.5 -108t144.5 -41t144.5 41t104.5 108t61.5 152.5t21.5 174.5t-21.5 174.5t-61.5 152.5t-104.5 108t-144.5 41zM1004 1475l16 -41q-263 -12 -429.5 -158.5t-230.5 -405.5
q55 57 136 92t170 35q140 0 253.5 -44.5t183.5 -117.5t108 -166.5t38 -190.5t-38 -190.5t-108 -166.5t-183.5 -117.5t-253.5 -44.5q-120 0 -221 35.5t-170 96t-115.5 139.5t-65 167t-10.5 178q9 203 85.5 373.5t200.5 285t287.5 178t346.5 63.5z" />
    <glyph glyph-name="seven" unicode="7" horiz-adv-x="1263" 
d="M127 1434h1116l-627 -1434h-335l786 1188h-735q-74 0 -119 -45t-45 -119v-18h-41v428z" />
    <glyph glyph-name="eight" unicode="8" horiz-adv-x="1417" 
d="M82 324q0 76 32 140.5t91.5 113t127.5 84t156 67.5q-58 24 -102.5 47t-87.5 54t-71 64.5t-45 77.5t-17 95q0 104 43.5 184.5t117.5 128.5t164 72.5t191 24.5q136 0 256.5 -40.5t199.5 -121.5t79 -185q0 -90 -90.5 -182t-215.5 -119q74 -24 129.5 -46.5t114 -59t95.5 -79
t61 -104.5t24 -137q0 -112 -55 -200t-147 -141.5t-204.5 -81t-234.5 -27.5q-117 0 -226 24.5t-195.5 70.5t-138.5 117.5t-52 158.5zM1102 293q0 44 -14 82.5t-37 69t-60 59t-74 49.5t-89 43.5t-94.5 39t-100.5 37.5l-16.5 6t-14.5 5t-16 6q-85 -37 -147.5 -108.5
t-88.5 -137.5t-26 -118q0 -81 32.5 -145t87 -102.5t121.5 -58.5t140 -20q102 0 191 33.5t147.5 102t58.5 157.5zM1014 1169q0 88 -45 150t-113.5 89.5t-150.5 27.5q-86 0 -163.5 -29.5t-129.5 -88.5t-52 -136q0 -56 27 -101.5t57 -73.5t102.5 -59t110.5 -43t134 -40l30 -9
q193 144 193 313z" />
    <glyph glyph-name="nine" unicode="9" horiz-adv-x="1331" 
d="M676 479q80 0 144.5 41t104.5 108t61.5 152.5t21.5 175t-21.5 175t-61.5 152.5t-104.5 108t-144.5 41t-144.5 -41t-104.5 -108t-61.5 -152.5t-21.5 -175t21.5 -175t61.5 -152.5t104.5 -108t144.5 -41zM326 -41l-17 41q263 12 429.5 158t230.5 405q-55 -57 -135 -92
t-170 -35q-140 0 -253.5 44.5t-183.5 117.5t-108 166.5t-38 191t38 191t108 166.5t183.5 117.5t253.5 44.5q149 0 268 -54.5t189 -143t103 -197.5t23 -222q-10 -201 -86.5 -370.5t-200.5 -284.5t-287.5 -179.5t-346.5 -64.5z" />
    <glyph glyph-name="colon" unicode=":" horiz-adv-x="376" 
d="M188 229q48 0 81.5 -26t41 -63.5t0 -75t-41 -63.5t-81.5 -26t-81.5 26t-41 63.5t0 75t41 63.5t81.5 26zM188 1055q48 0 81.5 -26t41 -63.5t0 -75t-41 -63.5t-81.5 -26t-81.5 26t-41 63.5t0 75t41 63.5t81.5 26z" />
    <glyph glyph-name="semicolon" unicode=";" horiz-adv-x="419" 
d="M215 219q59 0 93 -38.5t34 -85.5t-34 -85.5t-93 -38.5t-92 38.5t-33 85.5t33.5 85.5t91.5 38.5zM215 41l125 57q0 -66 -30 -125t-74.5 -97t-81 -60.5t-64.5 -32.5q-1 2 -2.5 4t-4.5 8t1 8q42 32 71 62t42.5 51.5t19 44t5 34t-3.5 27.5t-3 19zM231 1065q48 0 81.5 -26
t41 -63.5t0 -75t-41 -63.5t-81.5 -26t-81.5 26t-41 63.5t0 75t41 63.5t81.5 26z" />
    <glyph glyph-name="less" unicode="&#x3c;" horiz-adv-x="874" 
d="M113 713l680 -371v-41l-711 395v33l711 395v-41z" />
    <glyph glyph-name="equal" unicode="=" horiz-adv-x="1034" 
d="M74 788v41h876v-41h-876zM74 510v41h876v-41h-876z" />
    <glyph glyph-name="greater" unicode="&#x3e;" horiz-adv-x="874" 
d="M82 342l680 371l-680 370v41l711 -395v-33l-711 -395v41z" />
    <glyph glyph-name="question" unicode="?" horiz-adv-x="1118" 
d="M82 1087q0 25 3 52t14 66.5t29 74t52.5 71.5t79.5 63t114.5 42.5t153.5 16.5q119 0 212.5 -25t147.5 -62t89 -84.5t47 -87t12 -75.5q0 -65 -28 -124t-73 -106t-99 -93t-108 -95.5t-99 -103.5t-73 -127t-28 -156h-34q-29 111 -20 204.5t40.5 156.5t76 124.5t85 109.5
t69.5 111t29 129q0 29 -7 62t-25.5 70t-46 66t-72.5 48t-101 19q-61 0 -106.5 -19.5t-70.5 -47.5t-40 -65.5t-19.5 -65.5t-4.5 -56q0 -31 10.5 -52.5t23 -31.5t23 -28.5t10.5 -43.5q0 -59 -32.5 -91t-79.5 -32q-61 0 -107.5 49t-46.5 137zM508 229q48 0 81.5 -26t41 -63.5
t0 -75t-41 -63.5t-81.5 -26t-81.5 26t-41 63.5t0 75t41 63.5t81.5 26z" />
    <glyph glyph-name="at" unicode="@" horiz-adv-x="1607" 
d="M809 -49q-352 0 -567 201q-171 160 -211 401q-39 237 64 458q108 231 333 355q211 117 490 117q357 0 520 -213q123 -161 108 -399q-14 -209 -125 -381q-108 -167 -256 -215q-52 -17 -104 -17q-34 0 -64 7.5t-60.5 25t-50 53.5t-22.5 88q-118 -174 -237 -174
q-120 0 -179 129q-60 130 -32 319q30 207 147 351q142 172 355 172q121 0 133 -168q8 25 24 70.5t19 54.5l227 2q-6 -14 -15.5 -38t-37.5 -95.5t-52.5 -140t-55 -156.5t-49.5 -160.5t-31.5 -136t-6.5 -99.5t31 -36q125 0 234 137q108 136 145 330q43 226 -40 392
q-103 206 -371 237q-45 5 -93 5q-321 0 -532 -206q-166 -163 -217 -406q-49 -236 30 -443q81 -211 269 -306q128 -66 292 -66q100 0 190.5 16t148 35t120 55t87.5 55t71 56q4 3 6.5 5.5t6.5 5.5t7 5l23 -36q-277 -246 -672 -246zM922 1174q-97 0 -191 -188
q-85 -174 -122 -394q-32 -195 6 -253q11 -17 28 -17q32 0 65 20.5t64.5 59t54.5 72t50 79.5q30 124 114 346q31 275 -69 275z" />
    <glyph glyph-name="A" unicode="A" 
d="M20 0v41q46 0 85.5 25.5t58.5 68.5l565 1315h19l565 -1315q19 -43 58 -68.5t85 -25.5v-41h-500v41q46 0 63 25.5t-1 68.5l-88 207q-27 39 -74 39h-489q-47 0 -74 -39l-88 -207q-19 -43 -2 -68.5t63 -25.5v-41h-246zM612 1081l-262 -606v-2q-10 -23 -1 -37t34 -14h457
q25 0 33.5 14t-1.5 37v2z" />
    <glyph glyph-name="B" unicode="B" horiz-adv-x="1454" 
d="M82 0v41q46 0 74 28t28 74v1147q0 46 -28 74.5t-74 28.5v41h586h16q265 -4 405 -126q104 -91 100 -210q-5 -120 -116 -207q-73 -57 -180 -86q263 -40 392 -185q104 -116 83 -254q-22 -140 -163 -238q-185 -128 -500 -128h-623zM430 143q0 -46 28 -74t74 -28h175
q97 0 175.5 31.5t127 83.5t74.5 118t26 135.5t-26 135.5t-74.5 118t-127 83.5t-175.5 31.5h-222q-25 0 -40 -15t-15 -40v-580zM532 1393q-46 0 -74 -28.5t-28 -74.5v-416q0 -25 15 -40t40 -15h185q68 0 123.5 24.5t89 65t52 92t18.5 105.5t-18.5 105.5t-52 92t-89 65
t-123.5 24.5h-138z" />
    <glyph glyph-name="C" unicode="C" horiz-adv-x="1460" 
d="M819 -41q-173 0 -313 65t-226 171.5t-132.5 243t-46.5 278.5t46.5 278.5t132.5 243t226 171.5t313 65q184 0 326 -101q63 -45 108 -45q18 0 32 6t23.5 17.5t14.5 22t12 26.5h15v-422h-27q-48 209 -176 332t-328 123q-127 0 -227 -79t-151.5 -205.5t-75.5 -279.5t0 -306
t75.5 -279.5t151.5 -205.5t227 -79q100 0 192 36t157.5 94t108.5 132t52 150q4 22 17 26l32 -84q-24 -71 -73 -139.5t-118.5 -126.5t-166 -93.5t-201.5 -35.5z" />
    <glyph glyph-name="D" unicode="D" horiz-adv-x="1488" 
d="M82 0v41q46 0 74 28t28 74v1147q0 46 -28 74.5t-74 28.5v41h586h16q170 -3 307.5 -66.5t222 -164.5t129.5 -229.5t44 -262.5t-48 -261.5t-133.5 -227.5t-226 -161t-311.5 -61h-586zM532 1393q-46 0 -74 -28.5t-28 -74.5v-1147q0 -46 28 -74t74 -28h138q90 0 166.5 38
t130.5 103t92 151.5t56 183.5t18 200t-18 200t-56 183.5t-92 151.5t-130.5 103t-166.5 38h-138z" />
    <glyph glyph-name="E" unicode="E" horiz-adv-x="1398" 
d="M1317 1434v-428h-41v16q0 167 -102 269t-269 102h-373q-46 0 -74 -28.5t-28 -74.5v-516q0 -25 15 -40t40 -15h242q103 0 166 63t63 166h41v-499h-41q0 103 -63 166t-166 63h-242q-25 0 -40 -15t-15 -40v-480q0 -46 28 -74t74 -28h373q167 0 269 102t102 269v16h41v-428
h-1235v41q46 0 74 28t28 74v1147q0 46 -28 74.5t-74 28.5v41h1235z" />
    <glyph glyph-name="F" unicode="F" horiz-adv-x="1398" 
d="M82 1393v41h1235v-428h-41v16q0 167 -102 269t-269 102h-373q-46 0 -74 -28.5t-28 -74.5v-516q0 -25 15 -40t40 -15h242q103 0 166 63t63 166h41v-499h-41q0 103 -63 166t-166 63h-242q-25 0 -40 -15t-15 -40v-480q0 -46 28 -74t74 -28v-41h-450v41q46 0 74 28t28 74
v1147q0 46 -28 74.5t-74 28.5z" />
    <glyph glyph-name="G" unicode="G" horiz-adv-x="1478" 
d="M799 -41q-173 0 -313 65t-226 171.5t-132.5 243t-46.5 278.5t46.5 278.5t132.5 243t226 171.5t313 65q183 0 325 -101q62 -45 109 -45q18 0 32 6t23.5 17.5t14.5 22t12 26.5h14v-422h-26q-48 209 -176 332t-328 123q-127 0 -227 -79t-151.5 -205.5t-75.5 -279.5t0 -306
t75.5 -279.5t151.5 -205.5t227 -79q186 0 331 115v530q0 46 -28 74.5t-74 28.5v40h451v-40q-46 0 -74.5 -28.5t-28.5 -74.5v-409q-31 -3 -60.5 -20.5t-51.5 -39t-59.5 -55.5t-74.5 -60q-150 -102 -331 -102z" />
    <glyph glyph-name="H" unicode="H" horiz-adv-x="1566" 
d="M82 1393v41h450v-41q-46 0 -74 -28.5t-28 -74.5v-516q0 -25 15 -40t40 -15h596q25 0 40.5 15t15.5 40v516q0 46 -28.5 74.5t-74.5 28.5v41h451v-41q-46 0 -74.5 -28.5t-28.5 -74.5v-1147q0 -46 28.5 -74t74.5 -28v-41h-451v41q46 0 74.5 28t28.5 74v480q0 25 -15.5 40
t-40.5 15h-596q-25 0 -40 -15t-15 -40v-480q0 -46 28 -74t74 -28v-41h-450v41q46 0 74 28t28 74v1147q0 46 -28 74.5t-74 28.5z" />
    <glyph glyph-name="I" unicode="I" horiz-adv-x="614" 
d="M82 41q46 0 74 28t28 74v1147q0 46 -28 74.5t-74 28.5v41h450v-41q-46 0 -74 -28.5t-28 -74.5v-1147q0 -46 28 -74t74 -28v-41h-450v41z" />
    <glyph glyph-name="J" unicode="J" horiz-adv-x="614" 
d="M-135 -545l-55 88l20 19q1 0 3.5 -5t8 -11t15 -12.5t30 -10.5t47.5 -4q48 0 87 19t64.5 49t44.5 73.5t29 85t16 92.5t7.5 86.5t1.5 75.5v1290q0 46 -28 74.5t-74 28.5v41h450v-41q-46 0 -74 -28.5t-28 -74.5v-1233q0 -21 -0.5 -41t-6 -65t-15 -84t-29.5 -91.5t-47.5 -95
t-71 -86t-97.5 -73t-131 -48t-167 -18.5z" />
    <glyph glyph-name="K" unicode="K" horiz-adv-x="1519" 
d="M82 1393v41h450v-41q-46 0 -74 -28.5t-28 -74.5v-606l674 639q34 31 25.5 50.5t-54.5 19.5v41h328v-41h-62q-45 0 -93.5 -19.5t-82.5 -50.5l-379 -360l574 -838q26 -38 70 -61t90 -23v-41h-494v41q46 0 58.5 23t-13.5 61l-465 668l-176 -168v-482q0 -46 28 -74t74 -28
v-41h-450v41q46 0 74 28t28 74v1147q0 46 -28 74.5t-74 28.5z" />
    <glyph glyph-name="L" unicode="L" horiz-adv-x="1378" 
d="M82 1393v41h450v-41q-46 0 -74 -28.5t-28 -74.5v-1147q0 -46 28 -74t74 -28h373q167 0 269 102t102 269v16h41v-428h-1235v41q46 0 74 28t28 74v1147q0 37 -18.5 63.5t-50.5 35.5q-20 4 -33 4z" />
    <glyph glyph-name="M" unicode="M" horiz-adv-x="1765" 
d="M82 41q46 0 74 28t28 74v1147q0 46 -28 74.5t-74 28.5v41h319l531 -1135l463 1135h348v-41q-46 0 -74.5 -28.5t-28.5 -74.5v-1147q0 -46 28.5 -74t74.5 -28v-41h-451v41q46 0 74.5 28t28.5 74v1186l-543 -1329h-61l-566 1229v-1086q0 -46 28.5 -74t74.5 -28v-41h-246v41z
" />
    <glyph glyph-name="N" unicode="N" horiz-adv-x="1486" 
d="M317 0h-245v41q46 0 74 28t28 74v1147q0 37 -18 64l-6 6q-30 33 -78 33v41h327l873 -1108v964q0 46 -28.5 74.5t-74.5 28.5v41h246v-41q-46 0 -74 -28.5t-28 -74.5v-1290h-92l-1006 1278v-1135q0 -46 28 -74t74 -28v-41z" />
    <glyph glyph-name="O" unicode="O" horiz-adv-x="1640" 
d="M819 1434q-127 0 -227 -79t-151.5 -205.5t-75.5 -279.5t0 -306t75.5 -279.5t151.5 -205.5t227 -79q112 0 203 61.5t147 162.5t86 230t30 263t-30 263t-86 230t-147 162.5t-203 61.5zM819 1475q229 0 397 -112.5t243.5 -280.5t75.5 -365t-75.5 -365t-243.5 -280.5
t-397 -112.5q-173 0 -313 65t-226 171.5t-132.5 243t-46.5 278.5t46.5 278.5t132.5 243t226 171.5t313 65z" />
    <glyph glyph-name="P" unicode="P" horiz-adv-x="1396" 
d="M532 0h-450v41q46 0 74 28t28 74v1147q0 46 -28 74.5t-74 28.5v41h610h17q131 -2 240.5 -31.5t180 -78t119.5 -111t58.5 -131.5t-2 -138t-62 -131t-122.5 -110t-183.5 -76.5t-243.5 -28.5h-209q-25 0 -40 -15t-15 -40v-400q0 -46 28 -74t74 -28v-41zM532 1393
q-46 0 -74 -28.5t-28 -74.5v-596q0 -25 15 -40t40 -15h209q88 0 159.5 32.5t115 85.5t67.5 120.5t24 138.5t-24 138.5t-67.5 120.5t-115 85.5t-159.5 32.5h-162z" />
    <glyph glyph-name="Q" unicode="Q" horiz-adv-x="1640" 
d="M745 340v35h152q80 0 145 -40t127 -112q57 99 86 229.5t29.5 264t-30 263t-86 230t-146.5 162.5t-203 62q-127 0 -227 -79t-151.5 -205.5t-75.5 -279.5t0 -306t75.5 -279.5t151.5 -205.5t227 -79q105 0 187 51q-8 12 -30 45.5t-31.5 47t-30 42.5t-32 43t-31 35.5
t-34.5 33.5t-34 24t-38 18zM1047 -8q-112 -33 -228 -33q-173 0 -313 65t-226 171.5t-132.5 243t-46.5 278.5t46.5 278.5t132.5 243t226 171.5t313 65q141 0 261 -43.5t203.5 -118t143 -174t86 -209.5t25 -228t-32 -226.5t-93 -206.5t-150.5 -167q91 -132 134 -176
q84 -87 169 -88v-41h-228q-86 0 -154 51t-136 144z" />
    <glyph glyph-name="R" unicode="R" horiz-adv-x="1542" 
d="M82 1393v41h608h17q308 -3 476 -139q123 -98 129 -231.5t-107 -237.5q-109 -100 -296 -138q41 -8 85.5 -48.5t86 -98t85 -125t88.5 -133.5t90 -120.5t96.5 -88t101.5 -33.5v-41h-264q-59 0 -114.5 31.5t-100.5 83.5t-87 116t-80.5 132.5t-74.5 128t-76 108t-77 68.5h-183
q-25 0 -40 -15.5t-15 -40.5v-469q0 -46 28 -74t74 -28v-41h-450v41q46 0 74 28t28 74v1147q0 46 -28 74.5t-74 28.5zM532 1393q-46 0 -74 -28.5t-28 -74.5v-526q0 -25 15 -40t40 -15h207q89 0 161.5 29.5t117 77.5t68.5 109.5t24 125.5t-24 125.5t-68.5 109.5t-117 77.5
t-161.5 29.5h-160z" />
    <glyph glyph-name="S" unicode="S" horiz-adv-x="1482" 
d="M1116 1366q18 -9 33 -18q72 -37 111 -37q12 0 22.5 2.5t18 6t14.5 11t11 12t9.5 15t7 14.5t6 15.5t5.5 13.5h14v-422h-27q-22 95 -70.5 172.5t-112.5 128.5t-142.5 85.5t-159.5 49.5t-166 15q-131 0 -245.5 -33.5t-185.5 -94.5t-71 -135q0 -57 34 -101.5t92 -73t136 -54
t165 -43t179.5 -40.5t179.5 -46t165 -59.5t136 -82t92 -113t34 -151.5q0 -88 -32.5 -162t-89 -126t-132.5 -88.5t-162.5 -54t-179.5 -17.5q-243 0 -428 102h-2q-4 2 -8 6q-8 4 -33 19q-72 37 -111 37q-12 0 -22.5 -2.5t-18 -6t-14.5 -11t-11 -12t-9.5 -15t-7 -14.5t-6 -15.5
t-5.5 -13.5h-14v422h26q27 -118 94.5 -208t158.5 -141.5t191.5 -76.5t207.5 -25q131 0 245.5 33.5t185 94t70.5 134.5q0 67 -41.5 117t-111.5 81.5t-161 56t-191.5 45.5t-201 44t-191.5 57.5t-161 80t-111.5 117.5t-41.5 165q0 88 32.5 162t89 126.5t132.5 89t162.5 54
t179.5 17.5q241 0 428 -103h2q4 -2 8 -6z" />
    <glyph glyph-name="T" unicode="T" horiz-adv-x="1474" 
d="M41 1006v428h1393v-428h-41v16q0 167 -102 269t-269 102h-59q-46 0 -74.5 -28.5t-28.5 -74.5v-1147q0 -46 28.5 -74t74.5 -28v-41h-451v41q46 0 74 28t28 74v1147q0 46 -28 74.5t-74 28.5h-59q-167 0 -269 -102t-102 -269v-16h-41z" />
    <glyph glyph-name="U" unicode="U" horiz-adv-x="1566" 
d="M72 1393v41h450v-41q-46 0 -74 -28.5t-28 -74.5v-672q0 -47 1.5 -86.5t11 -106t25 -119.5t47.5 -113t75 -100t110.5 -66.5t151.5 -26.5q119 0 209 34t146.5 91t91.5 141.5t49 177t14 205.5v641q0 46 -28.5 74.5t-74.5 28.5v41h246v-41q-46 0 -74 -28.5t-28 -74.5v-674
q0 -144 -29 -259.5t-92 -206.5t-172 -141t-258 -50q-302 0 -485 169.5t-183 449.5v712q0 46 -28 74.5t-74 28.5z" />
    <glyph glyph-name="V" unicode="V" 
d="M20 1436h500v-41q-46 0 -63 -26t2 -69l405 -946l408 946q19 43 1.5 69t-63.5 26v41h246v-41q-46 0 -85 -26t-58 -69l-565 -1316h-19l-565 1316q-19 43 -58.5 69t-85.5 26v41z" />
    <glyph glyph-name="W" unicode="W" horiz-adv-x="2113" 
d="M160 1300q-17 42 -56 68.5t-84 26.5v41h500v-41q-45 0 -63.5 -27t-3.5 -70l335 -915l250 676l-92 241q-18 42 -56 68.5t-83 26.5v41h500v-41q-46 0 -64.5 -27t-3.5 -70l336 -915l340 917q15 42 -4 68.5t-64 26.5v41h246v-41q-45 0 -83.5 -26.5t-53.5 -68.5l-361 -970v-2
l-129 -344h-18l-389 1020l-250 -674v-2l-129 -344h-18z" />
    <glyph glyph-name="X" unicode="X" horiz-adv-x="1452" 
d="M20 41q46 0 91.5 21.5t74.5 58.5l449 561l-389 625q-25 38 -68 62t-88 24v41h500v-41q-46 0 -60 -24t11 -62l260 -416l336 422q29 37 18 58.5t-57 21.5v41h258v-41q-46 0 -91.5 -21.5t-74.5 -58.5l-367 -459l453 -727q25 -38 68 -62t88 -24v-41h-500v41q46 0 60 24
t-11 62l-324 518l-417 -524q-29 -37 -18 -58.5t57 -21.5v-41h-259v41z" />
    <glyph glyph-name="Y" unicode="Y" horiz-adv-x="1443" 
d="M178 1309q-25 38 -68.5 61t-89.5 23v41h500v-41q-46 0 -58.5 -23t13.5 -61l383 -568l356 566q23 38 10 62t-59 24v41h258v-41q-46 0 -89 -24t-66 -62l-383 -609v-555q0 -46 28 -74t74 -28v-41h-450v41q46 0 74 28t28 74v473z" />
    <glyph glyph-name="Z" unicode="Z" horiz-adv-x="1443" 
d="M61 0l983 1311q28 37 17 59.5t-57 22.5h-502q-167 0 -269 -102t-102 -269v-16h-41v428h1292l-983 -1311q-28 -37 -16.5 -59.5t57.5 -22.5h492q167 0 269 102t102 269v16h40v-428h-1282z" />
    <glyph glyph-name="bracketleft" unicode="[" horiz-adv-x="407" 
d="M367 1536h-64q-46 0 -74 -28t-28 -74v-1477q0 -46 28 -74t74 -28h64v-41h-347v1763h347v-41z" />
    <glyph glyph-name="backslash" unicode="\" horiz-adv-x="761" 
d="M74 1434l678 -1434h-54l-678 1434h54z" />
    <glyph glyph-name="bracketright" unicode="]" horiz-adv-x="407" 
d="M104 1536h-63v41h346v-1763h-346v41h63q46 0 74.5 28t28.5 74v1477q0 46 -28.5 74t-74.5 28z" />
    <glyph glyph-name="asciicircum" unicode="^" horiz-adv-x="729" 
d="M20 791l324 643h41l324 -643h-54l-290 600l-291 -600h-54z" />
    <glyph glyph-name="underscore" unicode="_" horiz-adv-x="1034" 
d="M74 -39v41h899v-41h-899z" />
    <glyph glyph-name="grave" unicode="`" horiz-adv-x="382" 
d="M322 1100l-302 334h125l217 -334h-40z" />
    <glyph glyph-name="a" unicode="a" 
d="M20 0v41q46 0 85.5 25.5t58.5 68.5l565 1315h19l565 -1315q19 -43 58 -68.5t85 -25.5v-41h-500v41q46 0 63 25.5t-1 68.5l-88 207q-27 39 -74 39h-489q-47 0 -74 -39l-88 -207q-19 -43 -2 -68.5t63 -25.5v-41h-246zM612 1081l-262 -606v-2q-10 -23 -1 -37t34 -14h457
q25 0 33.5 14t-1.5 37v2z" />
    <glyph glyph-name="b" unicode="b" horiz-adv-x="1454" 
d="M82 0v41q46 0 74 28t28 74v1147q0 46 -28 74.5t-74 28.5v41h586h16q265 -4 405 -126q104 -91 100 -210q-5 -120 -116 -207q-73 -57 -180 -86q263 -40 392 -185q104 -116 83 -254q-22 -140 -163 -238q-185 -128 -500 -128h-623zM430 143q0 -46 28 -74t74 -28h175
q97 0 175.5 31.5t127 83.5t74.5 118t26 135.5t-26 135.5t-74.5 118t-127 83.5t-175.5 31.5h-222q-25 0 -40 -15t-15 -40v-580zM532 1393q-46 0 -74 -28.5t-28 -74.5v-416q0 -25 15 -40t40 -15h185q68 0 123.5 24.5t89 65t52 92t18.5 105.5t-18.5 105.5t-52 92t-89 65
t-123.5 24.5h-138z" />
    <glyph glyph-name="c" unicode="c" horiz-adv-x="1460" 
d="M819 -41q-173 0 -313 65t-226 171.5t-132.5 243t-46.5 278.5t46.5 278.5t132.5 243t226 171.5t313 65q184 0 326 -101q63 -45 108 -45q18 0 32 6t23.5 17.5t14.5 22t12 26.5h15v-422h-27q-48 209 -176 332t-328 123q-127 0 -227 -79t-151.5 -205.5t-75.5 -279.5t0 -306
t75.5 -279.5t151.5 -205.5t227 -79q100 0 192 36t157.5 94t108.5 132t52 150q4 22 17 26l32 -84q-24 -71 -73 -139.5t-118.5 -126.5t-166 -93.5t-201.5 -35.5z" />
    <glyph glyph-name="d" unicode="d" horiz-adv-x="1488" 
d="M82 0v41q46 0 74 28t28 74v1147q0 46 -28 74.5t-74 28.5v41h586h16q170 -3 307.5 -66.5t222 -164.5t129.5 -229.5t44 -262.5t-48 -261.5t-133.5 -227.5t-226 -161t-311.5 -61h-586zM532 1393q-46 0 -74 -28.5t-28 -74.5v-1147q0 -46 28 -74t74 -28h138q90 0 166.5 38
t130.5 103t92 151.5t56 183.5t18 200t-18 200t-56 183.5t-92 151.5t-130.5 103t-166.5 38h-138z" />
    <glyph glyph-name="e" unicode="e" horiz-adv-x="1398" 
d="M1317 1434v-428h-41v16q0 167 -102 269t-269 102h-373q-46 0 -74 -28.5t-28 -74.5v-516q0 -25 15 -40t40 -15h242q103 0 166 63t63 166h41v-499h-41q0 103 -63 166t-166 63h-242q-25 0 -40 -15t-15 -40v-480q0 -46 28 -74t74 -28h373q167 0 269 102t102 269v16h41v-428
h-1235v41q46 0 74 28t28 74v1147q0 46 -28 74.5t-74 28.5v41h1235z" />
    <glyph glyph-name="f" unicode="f" horiz-adv-x="1398" 
d="M82 1393v41h1235v-428h-41v16q0 167 -102 269t-269 102h-373q-46 0 -74 -28.5t-28 -74.5v-516q0 -25 15 -40t40 -15h242q103 0 166 63t63 166h41v-499h-41q0 103 -63 166t-166 63h-242q-25 0 -40 -15t-15 -40v-480q0 -46 28 -74t74 -28v-41h-450v41q46 0 74 28t28 74
v1147q0 46 -28 74.5t-74 28.5z" />
    <glyph glyph-name="g" unicode="g" horiz-adv-x="1478" 
d="M799 -41q-173 0 -313 65t-226 171.5t-132.5 243t-46.5 278.5t46.5 278.5t132.5 243t226 171.5t313 65q183 0 325 -101q62 -45 109 -45q18 0 32 6t23.5 17.5t14.5 22t12 26.5h14v-422h-26q-48 209 -176 332t-328 123q-127 0 -227 -79t-151.5 -205.5t-75.5 -279.5t0 -306
t75.5 -279.5t151.5 -205.5t227 -79q186 0 331 115v530q0 46 -28 74.5t-74 28.5v40h451v-40q-46 0 -74.5 -28.5t-28.5 -74.5v-409q-31 -3 -60.5 -20.5t-51.5 -39t-59.5 -55.5t-74.5 -60q-150 -102 -331 -102z" />
    <glyph glyph-name="h" unicode="h" horiz-adv-x="1566" 
d="M82 1393v41h450v-41q-46 0 -74 -28.5t-28 -74.5v-516q0 -25 15 -40t40 -15h596q25 0 40.5 15t15.5 40v516q0 46 -28.5 74.5t-74.5 28.5v41h451v-41q-46 0 -74.5 -28.5t-28.5 -74.5v-1147q0 -46 28.5 -74t74.5 -28v-41h-451v41q46 0 74.5 28t28.5 74v480q0 25 -15.5 40
t-40.5 15h-596q-25 0 -40 -15t-15 -40v-480q0 -46 28 -74t74 -28v-41h-450v41q46 0 74 28t28 74v1147q0 46 -28 74.5t-74 28.5z" />
    <glyph glyph-name="i" unicode="i" horiz-adv-x="614" 
d="M82 41q46 0 74 28t28 74v1147q0 46 -28 74.5t-74 28.5v41h450v-41q-46 0 -74 -28.5t-28 -74.5v-1147q0 -46 28 -74t74 -28v-41h-450v41z" />
    <glyph glyph-name="j" unicode="j" horiz-adv-x="614" 
d="M-135 -545l-55 88l20 19q1 0 3.5 -5t8 -11t15 -12.5t30 -10.5t47.5 -4q48 0 87 19t64.5 49t44.5 73.5t29 85t16 92.5t7.5 86.5t1.5 75.5v1290q0 46 -28 74.5t-74 28.5v41h450v-41q-46 0 -74 -28.5t-28 -74.5v-1233q0 -21 -0.5 -41t-6 -65t-15 -84t-29.5 -91.5t-47.5 -95
t-71 -86t-97.5 -73t-131 -48t-167 -18.5z" />
    <glyph glyph-name="k" unicode="k" horiz-adv-x="1519" 
d="M82 1393v41h450v-41q-46 0 -74 -28.5t-28 -74.5v-606l674 639q34 31 25.5 50.5t-54.5 19.5v41h328v-41h-62q-45 0 -93.5 -19.5t-82.5 -50.5l-379 -360l574 -838q26 -38 70 -61t90 -23v-41h-494v41q46 0 58.5 23t-13.5 61l-465 668l-176 -168v-482q0 -46 28 -74t74 -28
v-41h-450v41q46 0 74 28t28 74v1147q0 46 -28 74.5t-74 28.5z" />
    <glyph glyph-name="l" unicode="l" horiz-adv-x="1378" 
d="M82 1393v41h450v-41q-46 0 -74 -28.5t-28 -74.5v-1147q0 -46 28 -74t74 -28h373q167 0 269 102t102 269v16h41v-428h-1235v41q46 0 74 28t28 74v1147q0 37 -18.5 63.5t-50.5 35.5q-20 4 -33 4z" />
    <glyph glyph-name="m" unicode="m" horiz-adv-x="1765" 
d="M82 41q46 0 74 28t28 74v1147q0 46 -28 74.5t-74 28.5v41h319l531 -1135l463 1135h348v-41q-46 0 -74.5 -28.5t-28.5 -74.5v-1147q0 -46 28.5 -74t74.5 -28v-41h-451v41q46 0 74.5 28t28.5 74v1186l-543 -1329h-61l-566 1229v-1086q0 -46 28.5 -74t74.5 -28v-41h-246v41z
" />
    <glyph glyph-name="n" unicode="n" horiz-adv-x="1486" 
d="M317 0h-245v41q46 0 74 28t28 74v1147q0 37 -18 64l-6 6q-30 33 -78 33v41h327l873 -1108v964q0 46 -28.5 74.5t-74.5 28.5v41h246v-41q-46 0 -74 -28.5t-28 -74.5v-1290h-92l-1006 1278v-1135q0 -46 28 -74t74 -28v-41z" />
    <glyph glyph-name="o" unicode="o" horiz-adv-x="1640" 
d="M819 1434q-127 0 -227 -79t-151.5 -205.5t-75.5 -279.5t0 -306t75.5 -279.5t151.5 -205.5t227 -79q112 0 203 61.5t147 162.5t86 230t30 263t-30 263t-86 230t-147 162.5t-203 61.5zM819 1475q229 0 397 -112.5t243.5 -280.5t75.5 -365t-75.5 -365t-243.5 -280.5
t-397 -112.5q-173 0 -313 65t-226 171.5t-132.5 243t-46.5 278.5t46.5 278.5t132.5 243t226 171.5t313 65z" />
    <glyph glyph-name="p" unicode="p" horiz-adv-x="1396" 
d="M532 0h-450v41q46 0 74 28t28 74v1147q0 46 -28 74.5t-74 28.5v41h610h17q131 -2 240.5 -31.5t180 -78t119.5 -111t58.5 -131.5t-2 -138t-62 -131t-122.5 -110t-183.5 -76.5t-243.5 -28.5h-209q-25 0 -40 -15t-15 -40v-400q0 -46 28 -74t74 -28v-41zM532 1393
q-46 0 -74 -28.5t-28 -74.5v-596q0 -25 15 -40t40 -15h209q88 0 159.5 32.5t115 85.5t67.5 120.5t24 138.5t-24 138.5t-67.5 120.5t-115 85.5t-159.5 32.5h-162z" />
    <glyph glyph-name="q" unicode="q" horiz-adv-x="1640" 
d="M745 340v35h152q80 0 145 -40t127 -112q57 99 86 229.5t29.5 264t-30 263t-86 230t-146.5 162.5t-203 62q-127 0 -227 -79t-151.5 -205.5t-75.5 -279.5t0 -306t75.5 -279.5t151.5 -205.5t227 -79q105 0 187 51q-8 12 -30 45.5t-31.5 47t-30 42.5t-32 43t-31 35.5
t-34.5 33.5t-34 24t-38 18zM1047 -8q-112 -33 -228 -33q-173 0 -313 65t-226 171.5t-132.5 243t-46.5 278.5t46.5 278.5t132.5 243t226 171.5t313 65q141 0 261 -43.5t203.5 -118t143 -174t86 -209.5t25 -228t-32 -226.5t-93 -206.5t-150.5 -167q91 -132 134 -176
q84 -87 169 -88v-41h-228q-86 0 -154 51t-136 144z" />
    <glyph glyph-name="r" unicode="r" horiz-adv-x="1542" 
d="M82 1393v41h608h17q308 -3 476 -139q123 -98 129 -231.5t-107 -237.5q-109 -100 -296 -138q41 -8 85.5 -48.5t86 -98t85 -125t88.5 -133.5t90 -120.5t96.5 -88t101.5 -33.5v-41h-264q-59 0 -114.5 31.5t-100.5 83.5t-87 116t-80.5 132.5t-74.5 128t-76 108t-77 68.5h-183
q-25 0 -40 -15.5t-15 -40.5v-469q0 -46 28 -74t74 -28v-41h-450v41q46 0 74 28t28 74v1147q0 46 -28 74.5t-74 28.5zM532 1393q-46 0 -74 -28.5t-28 -74.5v-526q0 -25 15 -40t40 -15h207q89 0 161.5 29.5t117 77.5t68.5 109.5t24 125.5t-24 125.5t-68.5 109.5t-117 77.5
t-161.5 29.5h-160z" />
    <glyph glyph-name="s" unicode="s" horiz-adv-x="1482" 
d="M1116 1366q18 -9 33 -18q72 -37 111 -37q12 0 22.5 2.5t18 6t14.5 11t11 12t9.5 15t7 14.5t6 15.5t5.5 13.5h14v-422h-27q-22 95 -70.5 172.5t-112.5 128.5t-142.5 85.5t-159.5 49.5t-166 15q-131 0 -245.5 -33.5t-185.5 -94.5t-71 -135q0 -57 34 -101.5t92 -73t136 -54
t165 -43t179.5 -40.5t179.5 -46t165 -59.5t136 -82t92 -113t34 -151.5q0 -88 -32.5 -162t-89 -126t-132.5 -88.5t-162.5 -54t-179.5 -17.5q-243 0 -428 102h-2q-4 2 -8 6q-8 4 -33 19q-72 37 -111 37q-12 0 -22.5 -2.5t-18 -6t-14.5 -11t-11 -12t-9.5 -15t-7 -14.5t-6 -15.5
t-5.5 -13.5h-14v422h26q27 -118 94.5 -208t158.5 -141.5t191.5 -76.5t207.5 -25q131 0 245.5 33.5t185 94t70.5 134.5q0 67 -41.5 117t-111.5 81.5t-161 56t-191.5 45.5t-201 44t-191.5 57.5t-161 80t-111.5 117.5t-41.5 165q0 88 32.5 162t89 126.5t132.5 89t162.5 54
t179.5 17.5q241 0 428 -103h2q4 -2 8 -6z" />
    <glyph glyph-name="t" unicode="t" horiz-adv-x="1474" 
d="M41 1006v428h1393v-428h-41v16q0 167 -102 269t-269 102h-59q-46 0 -74.5 -28.5t-28.5 -74.5v-1147q0 -46 28.5 -74t74.5 -28v-41h-451v41q46 0 74 28t28 74v1147q0 46 -28 74.5t-74 28.5h-59q-167 0 -269 -102t-102 -269v-16h-41z" />
    <glyph glyph-name="u" unicode="u" horiz-adv-x="1566" 
d="M72 1393v41h450v-41q-46 0 -74 -28.5t-28 -74.5v-672q0 -47 1.5 -86.5t11 -106t25 -119.5t47.5 -113t75 -100t110.5 -66.5t151.5 -26.5q119 0 209 34t146.5 91t91.5 141.5t49 177t14 205.5v641q0 46 -28.5 74.5t-74.5 28.5v41h246v-41q-46 0 -74 -28.5t-28 -74.5v-674
q0 -144 -29 -259.5t-92 -206.5t-172 -141t-258 -50q-302 0 -485 169.5t-183 449.5v712q0 46 -28 74.5t-74 28.5z" />
    <glyph glyph-name="v" unicode="v" 
d="M20 1436h500v-41q-46 0 -63 -26t2 -69l405 -946l408 946q19 43 1.5 69t-63.5 26v41h246v-41q-46 0 -85 -26t-58 -69l-565 -1316h-19l-565 1316q-19 43 -58.5 69t-85.5 26v41z" />
    <glyph glyph-name="w" unicode="w" horiz-adv-x="2113" 
d="M160 1300q-17 42 -56 68.5t-84 26.5v41h500v-41q-45 0 -63.5 -27t-3.5 -70l335 -915l250 676l-92 241q-18 42 -56 68.5t-83 26.5v41h500v-41q-46 0 -64.5 -27t-3.5 -70l336 -915l340 917q15 42 -4 68.5t-64 26.5v41h246v-41q-45 0 -83.5 -26.5t-53.5 -68.5l-361 -970v-2
l-129 -344h-18l-389 1020l-250 -674v-2l-129 -344h-18z" />
    <glyph glyph-name="x" unicode="x" horiz-adv-x="1452" 
d="M20 41q46 0 91.5 21.5t74.5 58.5l449 561l-389 625q-25 38 -68 62t-88 24v41h500v-41q-46 0 -60 -24t11 -62l260 -416l336 422q29 37 18 58.5t-57 21.5v41h258v-41q-46 0 -91.5 -21.5t-74.5 -58.5l-367 -459l453 -727q25 -38 68 -62t88 -24v-41h-500v41q46 0 60 24
t-11 62l-324 518l-417 -524q-29 -37 -18 -58.5t57 -21.5v-41h-259v41z" />
    <glyph glyph-name="y" unicode="y" horiz-adv-x="1443" 
d="M178 1309q-25 38 -68.5 61t-89.5 23v41h500v-41q-46 0 -58.5 -23t13.5 -61l383 -568l356 566q23 38 10 62t-59 24v41h258v-41q-46 0 -89 -24t-66 -62l-383 -609v-555q0 -46 28 -74t74 -28v-41h-450v41q46 0 74 28t28 74v473z" />
    <glyph glyph-name="z" unicode="z" horiz-adv-x="1443" 
d="M61 0l983 1311q28 37 17 59.5t-57 22.5h-502q-167 0 -269 -102t-102 -269v-16h-41v428h1292l-983 -1311q-28 -37 -16.5 -59.5t57.5 -22.5h492q167 0 269 102t102 269v16h40v-428h-1282z" />
    <glyph glyph-name="braceleft" unicode="{" horiz-adv-x="595" 
d="M203 719q182 -65 182 -297v-318v-16q0 -29 0.5 -45t4 -43.5t13.5 -43.5t26 -33.5t43.5 -25.5t64.5 -8v-41q-73 0 -129 10t-108.5 36t-81 78.5t-28.5 129.5v287q0 61 -2.5 101t-11.5 82t-25 66.5t-44.5 40t-69.5 15.5v51q41 0 69.5 15t44.5 39t25 66t11.5 82.5t2.5 101.5
v290q0 62 20 108.5t51.5 73.5t79 43t93.5 21.5t103 5.5v-41q-44 0 -74.5 -13.5t-45.5 -30t-23 -49t-8.5 -50t-0.5 -52.5v-16v-321q0 -230 -182 -299z" />
    <glyph glyph-name="bar" unicode="|" horiz-adv-x="286" 
d="M123 -311v1847h41v-1847h-41z" />
    <glyph glyph-name="braceright" unicode="}" horiz-adv-x="598" 
d="M37 -152v41q32 0 56.5 6.5t40.5 18t27 27t16 33.5t8.5 37t2.5 38.5t0 37.5v17v318q0 232 183 297q-183 69 -183 299v321q0 86 -7 114q-24 97 -144 97v41q57 0 103 -5.5t93 -21.5t78.5 -43t51.5 -73.5t20 -108.5v-290q0 -50 2 -85.5t7 -73t16 -61.5t27.5 -44.5t42 -30
t59.5 -9.5v-51q-41 0 -69.5 -15.5t-45 -40t-25.5 -66t-11.5 -82.5t-2.5 -101v-287q0 -77 -28.5 -129.5t-80.5 -78.5t-108 -36t-129 -10z" />
    <glyph glyph-name="asciitilde" unicode="~" horiz-adv-x="952" 
d="M57 647l-24 33q54 54 104.5 79t120.5 25q49 0 106.5 -21t101.5 -46.5t102 -46.5t108 -21q80 0 168 84l24 -33q-96 -92 -192 -92q-52 0 -112.5 21t-106 46.5t-101 46.5t-98.5 21q-63 0 -106 -23t-95 -73z" />
    <glyph glyph-name="exclamdown" unicode="&#xa1;" horiz-adv-x="475" 
d="M98 -68l133 953h41l134 -953q11 -78 -32 -126t-124 -48q-79 0 -121 48t-31 126zM246 991q-48 0 -81.5 26t-41 63.5t0 75t41 63.5t81.5 26t81.5 -26t41 -63.5t0 -75t-41 -63.5t-81.5 -26z" />
    <glyph glyph-name="cent" unicode="&#xa2;" horiz-adv-x="1253" 
d="M688 18q-147 3 -265.5 55.5t-191.5 136.5t-112.5 190.5t-39.5 218t39.5 218t112.5 190.5t191.5 136.5t265.5 55.5v317h41v-317q130 -6 238 -76q2 -2 4 -2q4 -4 8 -6q61 -43 100 -43q29 0 43.5 16.5t26.5 46.5h14v-367h-24q-40 174 -144 279.5t-266 114.5v-1127
q163 10 280.5 117t135.5 240q4 20 14 22l29 -72q-20 -60 -60.5 -117.5t-97.5 -107.5t-136 -82.5t-165 -36.5v-329h-41v329zM688 1182q-94 -4 -169.5 -53.5t-122 -128t-72 -178.5t-25.5 -203.5t25.5 -203.5t72 -178.5t122 -128t169.5 -53.5v1127z" />
    <glyph glyph-name="sterling" unicode="&#xa3;" horiz-adv-x="1234" 
d="M236 815q0 118 13.5 213t49.5 183.5t93.5 148.5t151.5 95.5t218 35.5q183 0 300 -98q76 -63 82 -131q6 -59 -49 -76q-17 -6 -40 -6q-37 0 -59.5 14t-33 36.5t-17.5 49.5t-18.5 54t-30 49.5t-58 36.5t-97.5 14q-60 0 -106.5 -20.5t-76 -53t-49 -84t-28.5 -101t-11.5 -118
t-1 -120.5t6.5 -122h318v-41h-314q10 -185 10 -192q0 -171 -122 -336h600q73 0 118 45t45 119v18h41v-428h-1146l16 12q48 36 83 76t58 76t37 85.5t20.5 86.5t7.5 98.5t0 101.5t-4.5 115.5t-4.5 122.5h-187v41h185z" />
    <glyph glyph-name="yen" unicode="&#xa5;" horiz-adv-x="1443" 
d="M178 1309q-25 38 -68.5 61t-89.5 23v41h500v-41q-46 0 -58.5 -23t13.5 -61l383 -568l356 566q23 38 10 62t-59 24v41h258v-41q-46 0 -89 -24t-66 -62l-377 -598h323v-41h-329v-238h329v-41h-329v-246q0 -46 28 -74t74 -28v-41h-450v41q46 0 74 28t28 74v246h-301v41h301
v186l-33 52h-268v41h240z" />
    <glyph glyph-name="brokenbar" unicode="&#xa6;" horiz-adv-x="286" 
d="M123 -311v827h41v-827h-41zM123 717v819h41v-819h-41z" />
    <glyph glyph-name="dieresis" unicode="&#xa8;" horiz-adv-x="509" 
d="M117 1313q45 0 70.5 -29.5t25.5 -65t-25.5 -65t-70.5 -29.5q-46 0 -72 29.5t-26 65t26 65t72 29.5zM393 1313q45 0 70.5 -29.5t25.5 -65t-25.5 -65t-70.5 -29.5t-70.5 29.5t-25.5 65t25.5 65t70.5 29.5z" />
    <glyph glyph-name="copyright" unicode="&#xa9;" horiz-adv-x="1634" 
d="M717 1413q-202 0 -362 -88t-249.5 -247t-89.5 -361q0 -152 52.5 -281.5t144.5 -221t222.5 -143t281.5 -51.5q202 0 361.5 88t249 247.5t89.5 361.5t-89.5 361t-249 247t-361.5 88zM717 1454q159 0 296.5 -55t235.5 -151.5t153.5 -233.5t55.5 -297t-55.5 -297
t-153.5 -233.5t-235.5 -151.5t-296.5 -55q-213 0 -382 93.5t-264.5 262t-95.5 381.5t95.5 381.5t264.5 262t382 93.5zM739 1217q-78 0 -141 -43t-101.5 -113.5t-59.5 -160t-21 -183.5t21 -183.5t59.5 -160t101.5 -113.5t141 -43q140 0 241.5 87.5t115.5 199.5q4 17 10 20
l24 -59q-18 -50 -52 -98t-82.5 -88.5t-115.5 -65.5t-141 -25q-120 0 -217.5 45.5t-157.5 119.5t-92.5 169t-32.5 194.5t32.5 194.5t92.5 169t157.5 119.5t217.5 45.5q134 0 238.5 -85t138.5 -193l-16 -68h-8q-34 145 -123.5 231.5t-229.5 86.5z" />
    <glyph glyph-name="registered" unicode="&#xae;" horiz-adv-x="653" 
d="M14 1098q0 139 91 229t231 90t231.5 -90t91.5 -229q0 -140 -91.5 -230t-231.5 -90t-231 90t-91 230zM43 1098q0 -130 82.5 -211.5t210.5 -81.5q130 0 212.5 81.5t82.5 211.5q0 129 -83 210t-212 81q-128 0 -210.5 -81.5t-82.5 -209.5zM186 928v10q27 0 27 25v274
q0 23 -27 23v10h148h2q84 -1 123 -39.5t16 -82t-94 -56.5q17 -1 37.5 -25t37 -52.5t39 -52.5t42.5 -24v-10h-64q-30 0 -56 34t-49 74.5t-40 50.5h-43q-15 0 -15 -14v-110q0 -25 25 -25v-10h-109zM285 1098h49q56 0 79 40.5t0 81t-79 40.5h-39q-11 0 -18 -6.5t-7 -16.5v-127
q0 -12 15 -12z" />
    <glyph glyph-name="plusminus" unicode="&#xb1;" horiz-adv-x="1040" 
d="M82 713v41h418v417h41v-417h417v-41h-417v-418h-41v418h-418zM958 111h-876v41h876v-41z" />
    <glyph glyph-name="acute" unicode="&#xb4;" horiz-adv-x="382" 
d="M238 1434h124l-301 -334h-41z" />
    <glyph glyph-name="cedilla" unicode="&#xb8;" horiz-adv-x="352" 
d="M152 -377q-80 0 -117 47t18 101q0 -53 30 -87t69 -34q66 0 93 60q25 58 -3 117q-39 70 -125 73h-19l49 106h41l-36 -82q53 -5 92.5 -24.5t59 -46.5t27.5 -58t-3 -61.5t-32 -55t-59 -40t-85 -15.5z" />
    <glyph glyph-name="questiondown" unicode="&#xbf;" horiz-adv-x="1118" 
d="M1055 100q0 -25 -3 -52t-14 -66.5t-29.5 -74.5t-53 -71.5t-79.5 -63t-114.5 -43t-153.5 -16.5q-119 0 -212.5 25t-147.5 62t-89 85t-47 88t-12 76q0 65 28 124t73 106t99 93t108 95.5t99 103.5t73 127t28 156h35q24 -104 21.5 -179t-26 -141.5t-57 -115t-72 -98.5
t-71.5 -92.5t-54.5 -97.5t-21.5 -112q0 -39 12.5 -81t39.5 -85.5t79 -71.5t121 -28q61 0 107 19.5t70.5 47.5t40 65.5t20 66.5t4.5 57q0 31 -10.5 52.5t-23.5 31.5t-23.5 28.5t-10.5 43.5q0 58 33 90.5t80 32.5q61 0 107.5 -49.5t46.5 -137.5zM629 958q-48 0 -81.5 26
t-41 63.5t0 75t41 63.5t81.5 26t81.5 -26t41 -63.5t0 -75t-41 -63.5t-81.5 -26z" />
    <glyph glyph-name="Agrave" unicode="&#xc0;" 
d="M20 0v41q46 0 85.5 25.5t58.5 68.5l565 1315h19l565 -1315q19 -43 58 -68.5t85 -25.5v-41h-500v41q46 0 63 25.5t-1 68.5l-88 207q-27 39 -74 39h-489q-47 0 -74 -39l-88 -207q-19 -43 -2 -68.5t63 -25.5v-41h-246zM612 1081l-262 -606v-2q-10 -23 -1 -37t34 -14h457
q25 0 33.5 14t-1.5 37v2zM569 1843h125l217 -334h-41z" />
    <glyph glyph-name="Aacute" unicode="&#xc1;" 
d="M266 0h-246v41q46 0 85.5 25.5t58.5 68.5l565 1315h19l565 -1315q19 -43 58 -68.5t85 -25.5v-41h-500v41q46 0 63 25.5t-1 68.5l-88 207q-27 39 -74 39h-489q-47 0 -74 -39l-88 -207q-19 -43 -2 -68.5t63 -25.5v-41zM612 1081l-262 -606v-2q-10 -23 -1 -37t34 -14h457
q25 0 33.5 14t-1.5 37v2zM608 1509h-41l217 334h125z" />
    <glyph glyph-name="Acircumflex" unicode="&#xc2;" 
d="M20 0v41q46 0 85.5 25.5t58.5 68.5l565 1315h19l565 -1315q19 -43 58 -68.5t85 -25.5v-41h-500v41q46 0 63 25.5t-1 68.5l-88 207q-27 39 -74 39h-489q-47 0 -74 -39l-88 -207q-19 -43 -2 -68.5t63 -25.5v-41h-246zM612 1081l-262 -606v-2q-10 -23 -1 -37t34 -14h457
q25 0 33.5 14t-1.5 37v2zM492 1509l186 287h96l187 -287h-33l-201 232l-203 -232h-32z" />
    <glyph glyph-name="Atilde" unicode="&#xc3;" 
d="M20 0v41q46 0 85.5 25.5t58.5 68.5l565 1315h19l565 -1315q19 -43 58 -68.5t85 -25.5v-41h-500v41q46 0 63 25.5t-1 68.5l-88 207q-27 39 -74 39h-489q-47 0 -74 -39l-88 -207q-19 -43 -2 -68.5t63 -25.5v-41h-246zM612 1081l-262 -606v-2q-10 -23 -1 -37t34 -14h457
q25 0 33.5 14t-1.5 37v2zM438 1604q66 63 135 63q56 0 155 -45t144 -45q43 0 74 15t66 48l24 -32q-41 -38 -77 -55t-87 -17q-53 0 -149.5 45t-149.5 45q-51 0 -110 -55z" />
    <glyph glyph-name="Adieresis" unicode="&#xc4;" 
d="M872 473v2l-260 606l-262 -606v-2q-10 -23 -1 -37t34 -14h457q25 0 33.5 14t-1.5 37zM293 342l-88 -207q-19 -43 -2 -68.5t63 -25.5v-41h-246v41q46 0 85.5 25.5t58.5 68.5l565 1315h19l565 -1315q19 -43 58 -68.5t85 -25.5v-41h-500v41q46 0 63 25.5t-1 68.5l-88 207
q-27 39 -74 39h-489q-47 0 -74 -39zM600 1722q45 0 70.5 -29.5t25.5 -64.5t-25.5 -64.5t-70.5 -29.5q-46 0 -72 29.5t-26 64.5t26 64.5t72 29.5zM877 1722q45 0 70.5 -29.5t25.5 -64.5t-25.5 -64.5t-70.5 -29.5t-70.5 29.5t-25.5 64.5t25.5 64.5t70.5 29.5z" />
    <glyph glyph-name="Aring" unicode="&#xc5;" 
d="M872 473v2l-260 606l-262 -606v-2q-10 -23 -1 -37t34 -14h457q25 0 33.5 14t-1.5 37zM748 1450q37 0 62.5 26t31.5 62.5t0 73t-31.5 62.5t-62.5 26q-47 0 -74 -39t-27 -86t27 -86t74 -39zM748 1731q49 0 84.5 -22.5t52.5 -56t18 -73t-14 -74t-48.5 -59t-80.5 -27.5
l553 -1284q19 -43 58 -68.5t85 -25.5v-41h-500v41q46 0 63 25.5t-1 68.5l-88 207q-27 39 -74 39h-489q-47 0 -74 -39l-88 -207q-19 -43 -2 -68.5t63 -25.5v-41h-246v41q46 0 85.5 25.5t58.5 68.5l553 1286q-43 7 -73.5 33t-43.5 60.5t-10 72.5t20.5 70t53.5 53t84 21z" />
    <glyph glyph-name="AE" unicode="&#xc6;" horiz-adv-x="2254" 
d="M20 0v41q46 0 90 23t70 61l850 1212q-10 26 -35 41t-57 15v41h1235v-428h-41v16q0 167 -102 269t-269 102h-372q-46 0 -74.5 -28.5t-28.5 -74.5v-516q0 -25 15 -40t40 -15h242q103 0 166 63t63 166h41v-499h-41q0 103 -63 166t-166 63h-242q-25 0 -40 -15t-15 -40v-480
q0 -46 28.5 -74t74.5 -28h372q167 0 269 102t102 269v16h41v-428h-1235v41q46 0 74 28t28 74v181q0 25 -15 40t-40 15h-514q-53 0 -94 -41l-10 -10l-144 -205q-27 -37 -15 -59.5t58 -22.5v-41h-246zM1040 1280l-575 -815q-15 -20 -9 -32.5t31 -12.5h498q25 0 40 15t15 40
v805z" />
    <glyph glyph-name="Ccedilla" unicode="&#xc7;" horiz-adv-x="1460" 
d="M768 -39q-132 8 -243.5 55.5t-189.5 122.5t-132 172.5t-78.5 205.5t-21.5 221t32 219.5t88.5 200.5t142.5 164.5t199.5 111.5t253.5 41q184 0 326 -101q63 -45 108 -45q18 0 32 6t23.5 17.5t14.5 22t12 26.5h15v-422h-27q-48 209 -176 332t-328 123q-127 0 -227 -79
t-151.5 -205.5t-75.5 -279.5t0 -306t75.5 -279.5t151.5 -205.5t227 -79q100 0 192 36t157.5 94t108.5 132t52 150q4 22 17 26l32 -84q-59 -179 -218.5 -287t-350.5 -108l-23 -49q53 -5 92.5 -24.5t59 -46.5t27.5 -58t-3 -61.5t-32 -55t-59 -40t-85 -15.5q-80 0 -116.5 46.5
t18.5 100.5q0 -53 29.5 -87t68.5 -34q69 0 95.5 62.5t-9.5 125t-120 62.5h-19z" />
    <glyph glyph-name="Egrave" unicode="&#xc8;" horiz-adv-x="1398" 
d="M1317 1434v-428h-41v16q0 167 -102 269t-269 102h-373q-46 0 -74 -28.5t-28 -74.5v-516q0 -25 15 -40t40 -15h242q103 0 166 63t63 166h41v-499h-41q0 103 -63 166t-166 63h-242q-25 0 -40 -15t-15 -40v-480q0 -46 28 -74t74 -28h373q167 0 269 102t102 269v16h41v-428
h-1235v41q46 0 74 28t28 74v1147q0 46 -28 74.5t-74 28.5v41h1235zM528 1843h125l217 -334h-41z" />
    <glyph glyph-name="Eacute" unicode="&#xc9;" horiz-adv-x="1398" 
d="M1317 1434v-428h-41v16q0 167 -102 269t-269 102h-373q-46 0 -74 -28.5t-28 -74.5v-516q0 -25 15 -40t40 -15h242q103 0 166 63t63 166h41v-499h-41q0 103 -63 166t-166 63h-242q-25 0 -40 -15t-15 -40v-480q0 -46 28 -74t74 -28h373q167 0 269 102t102 269v16h41v-428
h-1235v41q46 0 74 28t28 74v1147q0 46 -28 74.5t-74 28.5v41h1235zM528 1509l217 334h125l-301 -334h-41z" />
    <glyph glyph-name="Ecircumflex" unicode="&#xca;" horiz-adv-x="1398" 
d="M1317 1434v-428h-41v16q0 167 -102 269t-269 102h-373q-46 0 -74 -28.5t-28 -74.5v-516q0 -25 15 -40t40 -15h242q103 0 166 63t63 166h41v-499h-41q0 103 -63 166t-166 63h-242q-25 0 -40 -15t-15 -40v-480q0 -46 28 -74t74 -28h373q167 0 269 102t102 269v16h41v-428
h-1235v41q46 0 74 28t28 74v1147q0 46 -28 74.5t-74 28.5v41h1235zM463 1509l186 287h96l187 -287h-33l-201 232l-202 -232h-33z" />
    <glyph glyph-name="Edieresis" unicode="&#xcb;" horiz-adv-x="1398" 
d="M1276 412v16h41v-428h-1235v41q46 0 74 28t28 74v1147q0 46 -28 74.5t-74 28.5v41h1235v-428h-41v16q0 167 -102 269t-269 102h-373q-46 0 -74 -28.5t-28 -74.5v-516q0 -25 15 -40t40 -15h242q103 0 166 63t63 166h41v-499h-41q0 103 -63 166t-166 63h-242q-25 0 -40 -15
t-15 -40v-480q0 -46 28 -74t74 -28h373q167 0 269 102t102 269zM561 1722q45 0 70.5 -29.5t25.5 -64.5t-25.5 -64.5t-70.5 -29.5q-46 0 -72 29.5t-26 64.5t26 64.5t72 29.5zM838 1722q45 0 70.5 -29.5t25.5 -64.5t-25.5 -64.5t-70.5 -29.5t-70.5 29.5t-25.5 64.5t25.5 64.5
t70.5 29.5z" />
    <glyph glyph-name="Igrave" unicode="&#xcc;" horiz-adv-x="614" 
d="M82 41q46 0 74 28t28 74v1147q0 46 -28 74.5t-74 28.5v41h450v-41q-46 0 -74 -28.5t-28 -74.5v-1147q0 -46 28 -74t74 -28v-41h-450v41zM438 1509l-301 334h125l217 -334h-41z" />
    <glyph glyph-name="Iacute" unicode="&#xcd;" horiz-adv-x="614" 
d="M82 41q46 0 74 28t28 74v1147q0 46 -28 74.5t-74 28.5v41h450v-41q-46 0 -74 -28.5t-28 -74.5v-1147q0 -46 28 -74t74 -28v-41h-450v41zM354 1843h125l-301 -334h-41z" />
    <glyph glyph-name="Icircumflex" unicode="&#xce;" horiz-adv-x="614" 
d="M82 1434h450v-41q-46 0 -74 -28.5t-28 -74.5v-1147q0 -46 28 -74t74 -28v-41h-450v41q46 0 74 28t28 74v1147q0 46 -28 74.5t-74 28.5v41zM104 1509h-32l186 287h96l187 -287h-33l-201 232z" />
    <glyph glyph-name="Idieresis" unicode="&#xcf;" horiz-adv-x="614" 
d="M82 41q46 0 74 28t28 74v1147q0 46 -28 74.5t-74 28.5v41h450v-41q-46 0 -74 -28.5t-28 -74.5v-1147q0 -46 28 -74t74 -28v-41h-450v41zM170 1722q45 0 70.5 -29.5t25.5 -64.5t-25.5 -64.5t-70.5 -29.5q-46 0 -72 29.5t-26 64.5t26 64.5t72 29.5zM446 1722
q45 0 70.5 -29.5t25.5 -64.5t-25.5 -64.5t-70.5 -29.5t-70.5 29.5t-25.5 64.5t25.5 64.5t70.5 29.5z" />
    <glyph glyph-name="Eth" unicode="&#xd0;" horiz-adv-x="1488" 
d="M-20 737h204v553q0 46 -28 74.5t-74 28.5v41h586h16q170 -3 307.5 -66.5t222 -164.5t129.5 -229.5t44 -262.5t-48 -261.5t-133.5 -227.5t-226 -161t-311.5 -61h-586v41q46 0 74 28t28 74v553h-204v41zM430 737h266v-41h-266v-553q0 -46 28 -74t74 -28h138q90 0 166.5 38
t130.5 103t92 151.5t56 183.5t18 200t-18 200t-56 183.5t-92 151.5t-130.5 103t-166.5 38h-138q-46 0 -74 -28.5t-28 -74.5v-553z" />
    <glyph glyph-name="Ntilde" unicode="&#xd1;" horiz-adv-x="1507" 
d="M82 0v41q46 0 74 28t28 74v1147q0 37 -18 64l-6 6q-30 33 -78 33v41h328l872 -1108v964q0 46 -28 74.5t-74 28.5v41h245v-41q-46 0 -74 -28.5t-28 -74.5v-1290h-92l-1006 1278v-1135q0 -46 28.5 -74t74.5 -28v-41h-246zM461 1604q66 63 135 63q56 0 155 -45t144 -45
q43 0 73.5 15t65.5 48l25 -32q-41 -38 -77 -55t-87 -17q-53 0 -149.5 45t-149.5 45q-52 0 -111 -55z" />
    <glyph glyph-name="Ograve" unicode="&#xd2;" horiz-adv-x="1640" 
d="M819 1434q-127 0 -227 -79t-151.5 -205.5t-75.5 -279.5t0 -306t75.5 -279.5t151.5 -205.5t227 -79q112 0 203 61.5t147 162.5t86 230t30 263t-30 263t-86 230t-147 162.5t-203 61.5zM819 1475q229 0 397 -112.5t243.5 -280.5t75.5 -365t-75.5 -365t-243.5 -280.5
t-397 -112.5q-173 0 -313 65t-226 171.5t-132.5 243t-46.5 278.5t46.5 278.5t132.5 243t226 171.5t313 65zM942 1536l-301 334h125l217 -334h-41z" />
    <glyph glyph-name="Oacute" unicode="&#xd3;" horiz-adv-x="1640" 
d="M819 1434q-127 0 -227 -79t-151.5 -205.5t-75.5 -279.5t0 -306t75.5 -279.5t151.5 -205.5t227 -79q112 0 203 61.5t147 162.5t86 230t30 263t-30 263t-86 230t-147 162.5t-203 61.5zM819 1475q229 0 397 -112.5t243.5 -280.5t75.5 -365t-75.5 -365t-243.5 -280.5
t-397 -112.5q-173 0 -313 65t-226 171.5t-132.5 243t-46.5 278.5t46.5 278.5t132.5 243t226 171.5t313 65zM864 1870h125l-301 -334h-41z" />
    <glyph glyph-name="Ocircumflex" unicode="&#xd4;" horiz-adv-x="1640" 
d="M819 1434q-127 0 -227 -79t-151.5 -205.5t-75.5 -279.5t0 -306t75.5 -279.5t151.5 -205.5t227 -79q112 0 203 61.5t147 162.5t86 230t30 263t-30 263t-86 230t-147 162.5t-203 61.5zM819 1475q229 0 397 -112.5t243.5 -280.5t75.5 -365t-75.5 -365t-243.5 -280.5
t-397 -112.5q-173 0 -313 65t-226 171.5t-132.5 243t-46.5 278.5t46.5 278.5t132.5 243t226 171.5t313 65zM584 1509l186 287h96l187 -287h-33l-201 232l-203 -232h-32z" />
    <glyph glyph-name="Otilde" unicode="&#xd5;" horiz-adv-x="1640" 
d="M819 1434q-127 0 -227 -79t-151.5 -205.5t-75.5 -279.5t0 -306t75.5 -279.5t151.5 -205.5t227 -79q112 0 203 61.5t147 162.5t86 230t30 263t-30 263t-86 230t-147 162.5t-203 61.5zM819 1475q229 0 397 -112.5t243.5 -280.5t75.5 -365t-75.5 -365t-243.5 -280.5
t-397 -112.5q-173 0 -313 65t-226 171.5t-132.5 243t-46.5 278.5t46.5 278.5t132.5 243t226 171.5t313 65zM547 1661l-25 33q66 63 135 63q56 0 155 -45t144 -45q43 0 74 15.5t66 48.5l24 -33q-41 -38 -77 -55t-87 -17q-53 0 -149.5 45t-149.5 45q-51 0 -110 -55z" />
    <glyph glyph-name="Odieresis" unicode="&#xd6;" horiz-adv-x="1640" 
d="M819 1434q-127 0 -227 -79t-151.5 -205.5t-75.5 -279.5t0 -306t75.5 -279.5t151.5 -205.5t227 -79q112 0 203 61.5t147 162.5t86 230t30 263t-30 263t-86 230t-147 162.5t-203 61.5zM819 1475q229 0 397 -112.5t243.5 -280.5t75.5 -365t-75.5 -365t-243.5 -280.5
t-397 -112.5q-173 0 -313 65t-226 171.5t-132.5 243t-46.5 278.5t46.5 278.5t132.5 243t226 171.5t313 65zM682 1722q45 0 70.5 -29.5t25.5 -64.5t-25.5 -64.5t-70.5 -29.5q-46 0 -72 29.5t-26 64.5t26 64.5t72 29.5zM958 1722q45 0 70.5 -29.5t25.5 -64.5t-25.5 -64.5
t-70.5 -29.5t-70.5 29.5t-25.5 64.5t25.5 64.5t70.5 29.5z" />
    <glyph glyph-name="Oslash" unicode="&#xd8;" horiz-adv-x="1640" 
d="M524 147l557 1178q-112 109 -262 109q-90 0 -167 -40.5t-130.5 -109t-92 -161.5t-56.5 -195.5t-18 -213t18.5 -212.5t57 -195t93.5 -160zM1116 1286l-557 -1177q112 -109 260 -109q120 0 215 70t150.5 181.5t81.5 254t17.5 284t-51.5 274.5t-116 222zM508 0h-53l18 41
q-108 57 -188.5 151.5t-123.5 205t-55 234.5t8.5 243t77.5 228.5t142 191.5t210.5 131t274.5 49q165 0 305 -62l9 21h53l-19 -41q108 -57 188 -151.5t123.5 -205t55 -235t-9.5 -243t-78 -228t-142 -191.5t-210.5 -131t-274.5 -49q-163 0 -303 59z" />
    <glyph glyph-name="Ugrave" unicode="&#xd9;" horiz-adv-x="1566" 
d="M72 1393v41h450v-41q-46 0 -74 -28.5t-28 -74.5v-672q0 -47 1.5 -86.5t11 -106t25 -119.5t47.5 -113t75 -100t110.5 -66.5t151.5 -26.5q119 0 209 34t146.5 91t91.5 141.5t49 177t14 205.5v641q0 46 -28.5 74.5t-74.5 28.5v41h246v-41q-46 0 -74 -28.5t-28 -74.5v-674
q0 -144 -29 -259.5t-92 -206.5t-172 -141t-258 -50q-302 0 -485 169.5t-183 449.5v712q0 46 -28 74.5t-74 28.5zM913 1509l-301 334h125l217 -334h-41z" />
    <glyph glyph-name="Uacute" unicode="&#xda;" horiz-adv-x="1566" 
d="M72 1393v41h450v-41q-46 0 -74 -28.5t-28 -74.5v-672q0 -47 1.5 -86.5t11 -106t25 -119.5t47.5 -113t75 -100t110.5 -66.5t151.5 -26.5q119 0 209 34t146.5 91t91.5 141.5t49 177t14 205.5v641q0 46 -28.5 74.5t-74.5 28.5v41h246v-41q-46 0 -74 -28.5t-28 -74.5v-674
q0 -144 -29 -259.5t-92 -206.5t-172 -141t-258 -50q-302 0 -485 169.5t-183 449.5v712q0 46 -28 74.5t-74 28.5zM694 1509l217 334h125l-301 -334h-41z" />
    <glyph glyph-name="Ucircumflex" unicode="&#xdb;" horiz-adv-x="1566" 
d="M72 1393v41h450v-41q-46 0 -74 -28.5t-28 -74.5v-672q0 -47 1.5 -86.5t11 -106t25 -119.5t47.5 -113t75 -100t110.5 -66.5t151.5 -26.5q119 0 209 34t146.5 91t91.5 141.5t49 177t14 205.5v641q0 46 -28.5 74.5t-74.5 28.5v41h246v-41q-46 0 -74 -28.5t-28 -74.5v-674
q0 -144 -29 -259.5t-92 -206.5t-172 -141t-258 -50q-302 0 -485 169.5t-183 449.5v712q0 46 -28 74.5t-74 28.5zM612 1509l187 287h96l186 -287h-32l-201 232l-203 -232h-33z" />
    <glyph glyph-name="Udieresis" unicode="&#xdc;" horiz-adv-x="1566" 
d="M174 578v712q0 46 -28 74.5t-74 28.5v41h450v-41q-46 0 -74 -28.5t-28 -74.5v-672q0 -46 1.5 -85t10.5 -106t24.5 -119.5t47.5 -113t75 -100.5t111 -67t152 -27q119 0 209 34t146.5 91t91.5 141.5t49 177t14 205.5v641q0 46 -28.5 74.5t-74.5 28.5v41h246v-41
q-46 0 -74 -28.5t-28 -74.5v-715q-4 -136 -36 -245t-96 -193.5t-170 -131t-249 -46.5q-302 0 -485 169.5t-183 449.5zM700 1722q45 0 70.5 -29.5t25.5 -64.5t-25.5 -64.5t-70.5 -29.5q-46 0 -72 29.5t-26 64.5t26 64.5t72 29.5zM977 1722q45 0 70.5 -29.5t25.5 -64.5
t-25.5 -64.5t-70.5 -29.5t-70.5 29.5t-25.5 64.5t25.5 64.5t70.5 29.5z" />
    <glyph glyph-name="Yacute" unicode="&#xdd;" horiz-adv-x="1443" 
d="M20 1434h500v-41q-46 0 -58.5 -23t13.5 -61l383 -568l356 566q23 38 10 62t-59 24v41h258v-41q-46 0 -89 -24t-66 -62l-383 -609v-555q0 -46 28 -74t74 -28v-41h-450v41q46 0 74 28t28 74v473l-461 693q-25 38 -68.5 61t-89.5 23v41zM551 1509l217 334h125l-301 -334h-41
z" />
    <glyph glyph-name="Thorn" unicode="&#xde;" horiz-adv-x="1396" 
d="M82 1393v41h450v-41q-46 0 -74 -28.5t-28 -74.5v-82q0 -25 15 -40t40 -15h207h2q150 0 271 -36t195 -95t114.5 -134t40.5 -153t-40.5 -153t-114.5 -134t-195 -95t-271 -36h-209q-25 0 -40 -15t-15 -40v-119q0 -46 28 -74t74 -28v-41h-450v41q46 0 74 28t28 74v1147
q0 46 -28 74.5t-74 28.5zM430 414q0 -25 15 -40.5t40 -15.5h209q88 0 159.5 32.5t115 85.5t67.5 120.5t24 138.5t-24 138.5t-67.5 120.5t-115 85.5t-159.5 32.5h-209q-25 0 -40 -15t-15 -40v-643z" />
    <glyph glyph-name="germandbls" unicode="&#xdf;" horiz-adv-x="1454" 
d="M82 0v41q46 0 74 28t28 74v879q0 204 124.5 328.5t328.5 124.5h31h16q265 -4 405 -126q104 -91 99 -210q-4 -120 -116 -207q-73 -57 -181 -86q261 -42 391 -191q106 -120 87 -265q-19 -147 -158 -251q-185 -139 -506 -139h-150v41h152q97 0 175.5 33.5t127 88t74.5 124.5
t26 143t-26 143t-74.5 124.5t-127 88t-175.5 33.5h-2h-37h-31v41h33q68 0 123.5 24.5t89 65t52 92t18.5 105.5t-18.5 105.5t-52 92t-89 65t-123.5 24.5h-6q-104 0 -169 -65t-65 -169v-1200h-348z" />
    <glyph glyph-name="agrave" unicode="&#xe0;" 
d="M20 0v41q46 0 85.5 25.5t58.5 68.5l565 1315h19l565 -1315q19 -43 58 -68.5t85 -25.5v-41h-500v41q46 0 63 25.5t-1 68.5l-88 207q-27 39 -74 39h-489q-47 0 -74 -39l-88 -207q-19 -43 -2 -68.5t63 -25.5v-41h-246zM612 1081l-262 -606v-2q-10 -23 -1 -37t34 -14h457
q25 0 33.5 14t-1.5 37v2zM569 1843h125l217 -334h-41z" />
    <glyph glyph-name="aacute" unicode="&#xe1;" 
d="M266 0h-246v41q46 0 85.5 25.5t58.5 68.5l565 1315h19l565 -1315q19 -43 58 -68.5t85 -25.5v-41h-500v41q46 0 63 25.5t-1 68.5l-88 207q-27 39 -74 39h-489q-47 0 -74 -39l-88 -207q-19 -43 -2 -68.5t63 -25.5v-41zM612 1081l-262 -606v-2q-10 -23 -1 -37t34 -14h457
q25 0 33.5 14t-1.5 37v2zM608 1509h-41l217 334h125z" />
    <glyph glyph-name="acircumflex" unicode="&#xe2;" 
d="M20 0v41q46 0 85.5 25.5t58.5 68.5l565 1315h19l565 -1315q19 -43 58 -68.5t85 -25.5v-41h-500v41q46 0 63 25.5t-1 68.5l-88 207q-27 39 -74 39h-489q-47 0 -74 -39l-88 -207q-19 -43 -2 -68.5t63 -25.5v-41h-246zM612 1081l-262 -606v-2q-10 -23 -1 -37t34 -14h457
q25 0 33.5 14t-1.5 37v2zM492 1509l186 287h96l187 -287h-33l-201 232l-203 -232h-32z" />
    <glyph glyph-name="atilde" unicode="&#xe3;" 
d="M20 0v41q46 0 85.5 25.5t58.5 68.5l565 1315h19l565 -1315q19 -43 58 -68.5t85 -25.5v-41h-500v41q46 0 63 25.5t-1 68.5l-88 207q-27 39 -74 39h-489q-47 0 -74 -39l-88 -207q-19 -43 -2 -68.5t63 -25.5v-41h-246zM612 1081l-262 -606v-2q-10 -23 -1 -37t34 -14h457
q25 0 33.5 14t-1.5 37v2zM438 1604q66 63 135 63q56 0 155 -45t144 -45q43 0 74 15t66 48l24 -32q-41 -38 -77 -55t-87 -17q-53 0 -149.5 45t-149.5 45q-51 0 -110 -55z" />
    <glyph glyph-name="adieresis" unicode="&#xe4;" 
d="M872 473v2l-260 606l-262 -606v-2q-10 -23 -1 -37t34 -14h457q25 0 33.5 14t-1.5 37zM293 342l-88 -207q-19 -43 -2 -68.5t63 -25.5v-41h-246v41q46 0 85.5 25.5t58.5 68.5l565 1315h19l565 -1315q19 -43 58 -68.5t85 -25.5v-41h-500v41q46 0 63 25.5t-1 68.5l-88 207
q-27 39 -74 39h-489q-47 0 -74 -39zM600 1722q45 0 70.5 -29.5t25.5 -64.5t-25.5 -64.5t-70.5 -29.5q-46 0 -72 29.5t-26 64.5t26 64.5t72 29.5zM877 1722q45 0 70.5 -29.5t25.5 -64.5t-25.5 -64.5t-70.5 -29.5t-70.5 29.5t-25.5 64.5t25.5 64.5t70.5 29.5z" />
    <glyph glyph-name="aring" unicode="&#xe5;" 
d="M872 473v2l-260 606l-262 -606v-2q-10 -23 -1 -37t34 -14h457q25 0 33.5 14t-1.5 37zM748 1450q37 0 62.5 26t31.5 62.5t0 73t-31.5 62.5t-62.5 26q-47 0 -74 -39t-27 -86t27 -86t74 -39zM748 1731q49 0 84.5 -22.5t52.5 -56t18 -73t-14 -74t-48.5 -59t-80.5 -27.5
l553 -1284q19 -43 58 -68.5t85 -25.5v-41h-500v41q46 0 63 25.5t-1 68.5l-88 207q-27 39 -74 39h-489q-47 0 -74 -39l-88 -207q-19 -43 -2 -68.5t63 -25.5v-41h-246v41q46 0 85.5 25.5t58.5 68.5l553 1286q-43 7 -73.5 33t-43.5 60.5t-10 72.5t20.5 70t53.5 53t84 21z" />
    <glyph glyph-name="ae" unicode="&#xe6;" horiz-adv-x="2254" 
d="M20 0v41q46 0 90 23t70 61l850 1212q-10 26 -35 41t-57 15v41h1235v-428h-41v16q0 167 -102 269t-269 102h-372q-46 0 -74.5 -28.5t-28.5 -74.5v-516q0 -25 15 -40t40 -15h242q103 0 166 63t63 166h41v-499h-41q0 103 -63 166t-166 63h-242q-25 0 -40 -15t-15 -40v-480
q0 -46 28.5 -74t74.5 -28h372q167 0 269 102t102 269v16h41v-428h-1235v41q46 0 74 28t28 74v181q0 25 -15 40t-40 15h-514q-53 0 -94 -41l-10 -10l-144 -205q-27 -37 -15 -59.5t58 -22.5v-41h-246zM1040 1280l-575 -815q-15 -20 -9 -32.5t31 -12.5h498q25 0 40 15t15 40
v805z" />
    <glyph glyph-name="ccedilla" unicode="&#xe7;" horiz-adv-x="1460" 
d="M768 -39q-132 8 -243.5 55.5t-189.5 122.5t-132 172.5t-78.5 205.5t-21.5 221t32 219.5t88.5 200.5t142.5 164.5t199.5 111.5t253.5 41q184 0 326 -101q63 -45 108 -45q18 0 32 6t23.5 17.5t14.5 22t12 26.5h15v-422h-27q-48 209 -176 332t-328 123q-127 0 -227 -79
t-151.5 -205.5t-75.5 -279.5t0 -306t75.5 -279.5t151.5 -205.5t227 -79q100 0 192 36t157.5 94t108.5 132t52 150q4 22 17 26l32 -84q-59 -179 -218.5 -287t-350.5 -108l-23 -49q53 -5 92.5 -24.5t59 -46.5t27.5 -58t-3 -61.5t-32 -55t-59 -40t-85 -15.5q-80 0 -116.5 46.5
t18.5 100.5q0 -53 29.5 -87t68.5 -34q69 0 95.5 62.5t-9.5 125t-120 62.5h-19z" />
    <glyph glyph-name="egrave" unicode="&#xe8;" horiz-adv-x="1398" 
d="M1317 1434v-428h-41v16q0 167 -102 269t-269 102h-373q-46 0 -74 -28.5t-28 -74.5v-516q0 -25 15 -40t40 -15h242q103 0 166 63t63 166h41v-499h-41q0 103 -63 166t-166 63h-242q-25 0 -40 -15t-15 -40v-480q0 -46 28 -74t74 -28h373q167 0 269 102t102 269v16h41v-428
h-1235v41q46 0 74 28t28 74v1147q0 46 -28 74.5t-74 28.5v41h1235zM528 1843h125l217 -334h-41z" />
    <glyph glyph-name="eacute" unicode="&#xe9;" horiz-adv-x="1398" 
d="M1317 1434v-428h-41v16q0 167 -102 269t-269 102h-373q-46 0 -74 -28.5t-28 -74.5v-516q0 -25 15 -40t40 -15h242q103 0 166 63t63 166h41v-499h-41q0 103 -63 166t-166 63h-242q-25 0 -40 -15t-15 -40v-480q0 -46 28 -74t74 -28h373q167 0 269 102t102 269v16h41v-428
h-1235v41q46 0 74 28t28 74v1147q0 46 -28 74.5t-74 28.5v41h1235zM528 1509l217 334h125l-301 -334h-41z" />
    <glyph glyph-name="ecircumflex" unicode="&#xea;" horiz-adv-x="1398" 
d="M1317 1434v-428h-41v16q0 167 -102 269t-269 102h-373q-46 0 -74 -28.5t-28 -74.5v-516q0 -25 15 -40t40 -15h242q103 0 166 63t63 166h41v-499h-41q0 103 -63 166t-166 63h-242q-25 0 -40 -15t-15 -40v-480q0 -46 28 -74t74 -28h373q167 0 269 102t102 269v16h41v-428
h-1235v41q46 0 74 28t28 74v1147q0 46 -28 74.5t-74 28.5v41h1235zM463 1509l186 287h96l187 -287h-33l-201 232l-202 -232h-33z" />
    <glyph glyph-name="edieresis" unicode="&#xeb;" horiz-adv-x="1398" 
d="M1276 412v16h41v-428h-1235v41q46 0 74 28t28 74v1147q0 46 -28 74.5t-74 28.5v41h1235v-428h-41v16q0 167 -102 269t-269 102h-373q-46 0 -74 -28.5t-28 -74.5v-516q0 -25 15 -40t40 -15h242q103 0 166 63t63 166h41v-499h-41q0 103 -63 166t-166 63h-242q-25 0 -40 -15
t-15 -40v-480q0 -46 28 -74t74 -28h373q167 0 269 102t102 269zM561 1722q45 0 70.5 -29.5t25.5 -64.5t-25.5 -64.5t-70.5 -29.5q-46 0 -72 29.5t-26 64.5t26 64.5t72 29.5zM838 1722q45 0 70.5 -29.5t25.5 -64.5t-25.5 -64.5t-70.5 -29.5t-70.5 29.5t-25.5 64.5t25.5 64.5
t70.5 29.5z" />
    <glyph glyph-name="igrave" unicode="&#xec;" horiz-adv-x="614" 
d="M82 41q46 0 74 28t28 74v1147q0 46 -28 74.5t-74 28.5v41h450v-41q-46 0 -74 -28.5t-28 -74.5v-1147q0 -46 28 -74t74 -28v-41h-450v41zM438 1509l-301 334h125l217 -334h-41z" />
    <glyph glyph-name="iacute" unicode="&#xed;" horiz-adv-x="614" 
d="M82 41q46 0 74 28t28 74v1147q0 46 -28 74.5t-74 28.5v41h450v-41q-46 0 -74 -28.5t-28 -74.5v-1147q0 -46 28 -74t74 -28v-41h-450v41zM354 1843h125l-301 -334h-41z" />
    <glyph glyph-name="icircumflex" unicode="&#xee;" horiz-adv-x="614" 
d="M82 1434h450v-41q-46 0 -74 -28.5t-28 -74.5v-1147q0 -46 28 -74t74 -28v-41h-450v41q46 0 74 28t28 74v1147q0 46 -28 74.5t-74 28.5v41zM104 1509h-32l186 287h96l187 -287h-33l-201 232z" />
    <glyph glyph-name="idieresis" unicode="&#xef;" horiz-adv-x="614" 
d="M82 41q46 0 74 28t28 74v1147q0 46 -28 74.5t-74 28.5v41h450v-41q-46 0 -74 -28.5t-28 -74.5v-1147q0 -46 28 -74t74 -28v-41h-450v41zM170 1722q45 0 70.5 -29.5t25.5 -64.5t-25.5 -64.5t-70.5 -29.5q-46 0 -72 29.5t-26 64.5t26 64.5t72 29.5zM446 1722
q45 0 70.5 -29.5t25.5 -64.5t-25.5 -64.5t-70.5 -29.5t-70.5 29.5t-25.5 64.5t25.5 64.5t70.5 29.5z" />
    <glyph glyph-name="ntilde" unicode="&#xf1;" horiz-adv-x="1507" 
d="M82 0v41q46 0 74 28t28 74v1147q0 37 -18 64l-6 6q-30 33 -78 33v41h328l872 -1108v964q0 46 -28 74.5t-74 28.5v41h245v-41q-46 0 -74 -28.5t-28 -74.5v-1290h-92l-1006 1278v-1135q0 -46 28.5 -74t74.5 -28v-41h-246zM461 1604q66 63 135 63q56 0 155 -45t144 -45
q43 0 73.5 15t65.5 48l25 -32q-41 -38 -77 -55t-87 -17q-53 0 -149.5 45t-149.5 45q-52 0 -111 -55z" />
    <glyph glyph-name="ograve" unicode="&#xf2;" horiz-adv-x="1640" 
d="M819 1434q-127 0 -227 -79t-151.5 -205.5t-75.5 -279.5t0 -306t75.5 -279.5t151.5 -205.5t227 -79q112 0 203 61.5t147 162.5t86 230t30 263t-30 263t-86 230t-147 162.5t-203 61.5zM819 1475q229 0 397 -112.5t243.5 -280.5t75.5 -365t-75.5 -365t-243.5 -280.5
t-397 -112.5q-173 0 -313 65t-226 171.5t-132.5 243t-46.5 278.5t46.5 278.5t132.5 243t226 171.5t313 65zM942 1536l-301 334h125l217 -334h-41z" />
    <glyph glyph-name="oacute" unicode="&#xf3;" horiz-adv-x="1640" 
d="M819 1434q-127 0 -227 -79t-151.5 -205.5t-75.5 -279.5t0 -306t75.5 -279.5t151.5 -205.5t227 -79q112 0 203 61.5t147 162.5t86 230t30 263t-30 263t-86 230t-147 162.5t-203 61.5zM819 1475q229 0 397 -112.5t243.5 -280.5t75.5 -365t-75.5 -365t-243.5 -280.5
t-397 -112.5q-173 0 -313 65t-226 171.5t-132.5 243t-46.5 278.5t46.5 278.5t132.5 243t226 171.5t313 65zM864 1870h125l-301 -334h-41z" />
    <glyph glyph-name="ocircumflex" unicode="&#xf4;" horiz-adv-x="1640" 
d="M819 1434q-127 0 -227 -79t-151.5 -205.5t-75.5 -279.5t0 -306t75.5 -279.5t151.5 -205.5t227 -79q112 0 203 61.5t147 162.5t86 230t30 263t-30 263t-86 230t-147 162.5t-203 61.5zM819 1475q229 0 397 -112.5t243.5 -280.5t75.5 -365t-75.5 -365t-243.5 -280.5
t-397 -112.5q-173 0 -313 65t-226 171.5t-132.5 243t-46.5 278.5t46.5 278.5t132.5 243t226 171.5t313 65zM584 1509l186 287h96l187 -287h-33l-201 232l-203 -232h-32z" />
    <glyph glyph-name="otilde" unicode="&#xf5;" horiz-adv-x="1640" 
d="M819 1434q-127 0 -227 -79t-151.5 -205.5t-75.5 -279.5t0 -306t75.5 -279.5t151.5 -205.5t227 -79q112 0 203 61.5t147 162.5t86 230t30 263t-30 263t-86 230t-147 162.5t-203 61.5zM819 1475q229 0 397 -112.5t243.5 -280.5t75.5 -365t-75.5 -365t-243.5 -280.5
t-397 -112.5q-173 0 -313 65t-226 171.5t-132.5 243t-46.5 278.5t46.5 278.5t132.5 243t226 171.5t313 65zM547 1661l-25 33q66 63 135 63q56 0 155 -45t144 -45q43 0 74 15.5t66 48.5l24 -33q-41 -38 -77 -55t-87 -17q-53 0 -149.5 45t-149.5 45q-51 0 -110 -55z" />
    <glyph glyph-name="odieresis" unicode="&#xf6;" horiz-adv-x="1640" 
d="M819 1434q-127 0 -227 -79t-151.5 -205.5t-75.5 -279.5t0 -306t75.5 -279.5t151.5 -205.5t227 -79q112 0 203 61.5t147 162.5t86 230t30 263t-30 263t-86 230t-147 162.5t-203 61.5zM819 1475q229 0 397 -112.5t243.5 -280.5t75.5 -365t-75.5 -365t-243.5 -280.5
t-397 -112.5q-173 0 -313 65t-226 171.5t-132.5 243t-46.5 278.5t46.5 278.5t132.5 243t226 171.5t313 65zM682 1722q45 0 70.5 -29.5t25.5 -64.5t-25.5 -64.5t-70.5 -29.5q-46 0 -72 29.5t-26 64.5t26 64.5t72 29.5zM958 1722q45 0 70.5 -29.5t25.5 -64.5t-25.5 -64.5
t-70.5 -29.5t-70.5 29.5t-25.5 64.5t25.5 64.5t70.5 29.5z" />
    <glyph glyph-name="divide" unicode="&#xf7;" horiz-adv-x="1040" 
d="M532 365q48 0 81.5 -26t41 -63.5t0 -75t-41 -63.5t-81.5 -26t-81.5 26t-41 63.5t0 75t41 63.5t81.5 26zM532 1190q48 0 81.5 -26t41 -63.5t0 -75t-41 -63.5t-81.5 -26t-81.5 26t-41 63.5t0 75t41 63.5t81.5 26zM82 655v41h876v-41h-876z" />
    <glyph glyph-name="oslash" unicode="&#xf8;" horiz-adv-x="1640" 
d="M524 147l557 1178q-112 109 -262 109q-90 0 -167 -40.5t-130.5 -109t-92 -161.5t-56.5 -195.5t-18 -213t18.5 -212.5t57 -195t93.5 -160zM1116 1286l-557 -1177q112 -109 260 -109q120 0 215 70t150.5 181.5t81.5 254t17.5 284t-51.5 274.5t-116 222zM508 0h-53l18 41
q-108 57 -188.5 151.5t-123.5 205t-55 234.5t8.5 243t77.5 228.5t142 191.5t210.5 131t274.5 49q165 0 305 -62l9 21h53l-19 -41q108 -57 188 -151.5t123.5 -205t55 -235t-9.5 -243t-78 -228t-142 -191.5t-210.5 -131t-274.5 -49q-163 0 -303 59z" />
    <glyph glyph-name="ugrave" unicode="&#xf9;" horiz-adv-x="1566" 
d="M72 1393v41h450v-41q-46 0 -74 -28.5t-28 -74.5v-672q0 -47 1.5 -86.5t11 -106t25 -119.5t47.5 -113t75 -100t110.5 -66.5t151.5 -26.5q119 0 209 34t146.5 91t91.5 141.5t49 177t14 205.5v641q0 46 -28.5 74.5t-74.5 28.5v41h246v-41q-46 0 -74 -28.5t-28 -74.5v-674
q0 -144 -29 -259.5t-92 -206.5t-172 -141t-258 -50q-302 0 -485 169.5t-183 449.5v712q0 46 -28 74.5t-74 28.5zM913 1509l-301 334h125l217 -334h-41z" />
    <glyph glyph-name="uacute" unicode="&#xfa;" horiz-adv-x="1566" 
d="M72 1393v41h450v-41q-46 0 -74 -28.5t-28 -74.5v-672q0 -47 1.5 -86.5t11 -106t25 -119.5t47.5 -113t75 -100t110.5 -66.5t151.5 -26.5q119 0 209 34t146.5 91t91.5 141.5t49 177t14 205.5v641q0 46 -28.5 74.5t-74.5 28.5v41h246v-41q-46 0 -74 -28.5t-28 -74.5v-674
q0 -144 -29 -259.5t-92 -206.5t-172 -141t-258 -50q-302 0 -485 169.5t-183 449.5v712q0 46 -28 74.5t-74 28.5zM694 1509l217 334h125l-301 -334h-41z" />
    <glyph glyph-name="ucircumflex" unicode="&#xfb;" horiz-adv-x="1566" 
d="M72 1393v41h450v-41q-46 0 -74 -28.5t-28 -74.5v-672q0 -47 1.5 -86.5t11 -106t25 -119.5t47.5 -113t75 -100t110.5 -66.5t151.5 -26.5q119 0 209 34t146.5 91t91.5 141.5t49 177t14 205.5v641q0 46 -28.5 74.5t-74.5 28.5v41h246v-41q-46 0 -74 -28.5t-28 -74.5v-674
q0 -144 -29 -259.5t-92 -206.5t-172 -141t-258 -50q-302 0 -485 169.5t-183 449.5v712q0 46 -28 74.5t-74 28.5zM612 1509l187 287h96l186 -287h-32l-201 232l-203 -232h-33z" />
    <glyph glyph-name="udieresis" unicode="&#xfc;" horiz-adv-x="1566" 
d="M174 578v712q0 46 -28 74.5t-74 28.5v41h450v-41q-46 0 -74 -28.5t-28 -74.5v-672q0 -46 1.5 -85t10.5 -106t24.5 -119.5t47.5 -113t75 -100.5t111 -67t152 -27q119 0 209 34t146.5 91t91.5 141.5t49 177t14 205.5v641q0 46 -28.5 74.5t-74.5 28.5v41h246v-41
q-46 0 -74 -28.5t-28 -74.5v-715q-4 -136 -36 -245t-96 -193.5t-170 -131t-249 -46.5q-302 0 -485 169.5t-183 449.5zM700 1722q45 0 70.5 -29.5t25.5 -64.5t-25.5 -64.5t-70.5 -29.5q-46 0 -72 29.5t-26 64.5t26 64.5t72 29.5zM977 1722q45 0 70.5 -29.5t25.5 -64.5
t-25.5 -64.5t-70.5 -29.5t-70.5 29.5t-25.5 64.5t25.5 64.5t70.5 29.5z" />
    <glyph glyph-name="yacute" unicode="&#xfd;" horiz-adv-x="1443" 
d="M1268 1307l-383 -609v-555q0 -46 28 -74t74 -28v-41h-450v41q46 0 74 28t28 74v475l-461 691q-25 38 -68.5 61t-89.5 23v41h500v-41q-46 0 -58.5 -23t13.5 -61l383 -568l356 566q23 38 10 62t-59 24v41h258v-41q-46 0 -89 -24t-66 -62zM666 1710q45 0 70.5 -29.5
t25.5 -64.5t-25.5 -64.5t-70.5 -29.5q-46 0 -72 29.5t-26 64.5t26 64.5t72 29.5zM942 1710q45 0 70.5 -29.5t25.5 -64.5t-25.5 -64.5t-70.5 -29.5t-70.5 29.5t-25.5 64.5t25.5 64.5t70.5 29.5z" />
    <glyph glyph-name="thorn" unicode="&#xfe;" horiz-adv-x="1292" 
d="M82 1227h348v-367q46 85 131.5 134.5t186.5 49.5q99 0 182.5 -36.5t137 -98t91.5 -141.5t46 -168t0.5 -176t-44.5 -168t-90 -141.5t-135 -98t-180 -36.5q-100 0 -185 33t-141 96v-275q0 -46 28 -74t74 -28v-41h-450v41q46 0 74 28t28 74v1249q0 46 -28 74.5t-74 28.5v41z
M430 176q46 -66 119.5 -112t136.5 -46q60 0 110 33.5t82 89.5t53.5 129t25.5 153.5t-2 161.5t-29.5 154t-56.5 129t-84 89.5t-111 33.5q-45 0 -98.5 -32.5t-97 -98t-48.5 -143.5v-541z" />
    <glyph glyph-name="ydieresis" unicode="&#xff;" horiz-adv-x="1443" 
d="M20 1434h500v-41q-46 0 -58.5 -23t13.5 -61l383 -568l356 566q23 38 10 62t-59 24v41h258v-41q-46 0 -89 -24t-66 -62l-383 -609v-555q0 -46 28 -74t74 -28v-41h-450v41q46 0 74 28t28 74v473l-461 693q-25 38 -68.5 61t-89.5 23v41zM551 1509l217 334h125l-301 -334h-41
z" />
    <glyph glyph-name="Dcroat" unicode="&#x110;" horiz-adv-x="1488" 
d="M-20 737h204v553q0 46 -28 74.5t-74 28.5v41h586h16q170 -3 307.5 -66.5t222 -164.5t129.5 -229.5t44 -262.5t-48 -261.5t-133.5 -227.5t-226 -161t-311.5 -61h-586v41q46 0 74 28t28 74v553h-204v41zM430 737h266v-41h-266v-553q0 -46 28 -74t74 -28h138q90 0 166.5 38
t130.5 103t92 151.5t56 183.5t18 200t-18 200t-56 183.5t-92 151.5t-130.5 103t-166.5 38h-138q-46 0 -74 -28.5t-28 -74.5v-553z" />
    <glyph glyph-name="dcroat" unicode="&#x111;" horiz-adv-x="1488" 
d="M-20 737h204v553q0 46 -28 74.5t-74 28.5v41h586h16q170 -3 307.5 -66.5t222 -164.5t129.5 -229.5t44 -262.5t-48 -261.5t-133.5 -227.5t-226 -161t-311.5 -61h-586v41q46 0 74 28t28 74v553h-204v41zM430 737h266v-41h-266v-553q0 -46 28 -74t74 -28h138q90 0 166.5 38
t130.5 103t92 151.5t56 183.5t18 200t-18 200t-56 183.5t-92 151.5t-130.5 103t-166.5 38h-138q-46 0 -74 -28.5t-28 -74.5v-553z" />
    <glyph glyph-name="dotlessi" unicode="&#x131;" horiz-adv-x="614" 
d="M82 41q46 0 74 28t28 74v738q0 46 -28 74t-74 28v41h348v-881q0 -46 28 -74t74 -28v-41h-450v41z" />
    <glyph glyph-name="Lslash" unicode="&#x141;" horiz-adv-x="1357" 
d="M18 551l-16 39l182 78v622q0 37 -18.5 63.5t-50.5 35.5q-20 4 -33 4v41h450v-41q-46 0 -74 -28.5t-28 -74.5v-518l232 98l16 -39l-248 -104v-584q0 -46 28 -74t74 -28h373q167 0 269 102t102 269v16h41v-428h-1235v41q46 0 74 28t28 74v478z" />
    <glyph glyph-name="lslash" unicode="&#x142;" horiz-adv-x="1357" 
d="M18 551l-16 39l182 78v622q0 37 -18.5 63.5t-50.5 35.5q-20 4 -33 4v41h450v-41q-46 0 -74 -28.5t-28 -74.5v-518l232 98l16 -39l-248 -104v-584q0 -46 28 -74t74 -28h373q167 0 269 102t102 269v16h41v-428h-1235v41q46 0 74 28t28 74v478z" />
    <glyph glyph-name="OE" unicode="&#x152;" horiz-adv-x="2146" 
d="M842 43v-2q41 5 65.5 32t24.5 70v1147q0 43 -24.5 70.5t-65.5 32.5v-2q-5 0 -16.5 1t-16.5 1q-127 0 -227 -74.5t-151.5 -194t-75.5 -263.5t0 -288t76 -263.5t152 -194t228 -74.5q5 0 15.5 1t15.5 1zM809 1434h1255v-428h-41v16q0 167 -101.5 269t-268.5 102h-373
q-46 0 -74 -28.5t-28 -74.5v-516q0 -25 15 -40t40 -15h242q103 0 166 63t63 166h41v-499h-41q0 103 -63 166t-166 63h-242q-25 0 -40 -15t-15 -40v-480q0 -46 28 -74t74 -28h373q167 0 268.5 102t101.5 269v16h41v-428h-1255q-173 0 -313 61.5t-226 162.5t-132.5 230
t-46.5 263t46.5 263t132.5 230t226 162.5t313 61.5z" />
    <glyph glyph-name="oe" unicode="&#x153;" horiz-adv-x="2146" 
d="M809 0q-173 0 -313 61.5t-226 162.5t-132.5 230t-46.5 263t46.5 263t132.5 230t226 162.5t313 61.5h1255v-428h-41v16q0 167 -101.5 269t-268.5 102h-373q-46 0 -74 -28.5t-28 -74.5v-516q0 -25 15 -40t40 -15h242q103 0 166 63t63 166h41v-499h-41q0 103 -63 166
t-166 63h-242q-25 0 -40 -15t-15 -40v-480q0 -46 28 -74t74 -28h373q167 0 268.5 102t101.5 269v16h41v-428h-1255zM842 1391q-5 0 -16.5 1t-16.5 1q-127 0 -227 -74.5t-151.5 -194t-75.5 -263.5t0 -288t76 -263.5t152 -194t228 -74.5q5 0 15.5 1t15.5 1v-2q41 5 65.5 32
t24.5 70v1147q0 43 -24.5 70.5t-65.5 32.5v-2z" />
    <glyph glyph-name="Scaron" unicode="&#x160;" horiz-adv-x="1482" 
d="M1116 1366q18 -9 33 -18q72 -37 111 -37q12 0 22.5 2.5t18 6t14.5 11t11 12t9.5 15t7 14.5t6 15.5t5.5 13.5h14v-422h-27q-22 95 -70.5 172.5t-112.5 128.5t-142.5 85.5t-159.5 49.5t-166 15q-131 0 -245.5 -33.5t-185.5 -94.5t-71 -135q0 -57 34 -101.5t92 -73t136 -54
t165 -43t179.5 -40.5t179.5 -46t165 -59.5t136 -82t92 -113t34 -151.5q0 -88 -32.5 -162t-89 -126t-132.5 -88.5t-162.5 -54t-179.5 -17.5q-243 0 -428 102h-2q-4 2 -8 6q-8 4 -33 19q-72 37 -111 37q-12 0 -22.5 -2.5t-18 -6t-14.5 -11t-11 -12t-9.5 -15t-7 -14.5t-6 -15.5
t-5.5 -13.5h-14v422h26q27 -118 94.5 -208t158.5 -141.5t191.5 -76.5t207.5 -25q131 0 245.5 33.5t185 94t70.5 134.5q0 67 -41.5 117t-111.5 81.5t-161 56t-191.5 45.5t-201 44t-191.5 57.5t-161 80t-111.5 117.5t-41.5 165q0 88 32.5 162t89 126.5t132.5 89t162.5 54
t179.5 17.5q241 0 428 -103h2q4 -2 8 -6zM524 1882h33l201 -231l203 231h32l-186 -287h-96z" />
    <glyph glyph-name="scaron" unicode="&#x161;" horiz-adv-x="1482" 
d="M1116 1366q18 -9 33 -18q72 -37 111 -37q12 0 22.5 2.5t18 6t14.5 11t11 12t9.5 15t7 14.5t6 15.5t5.5 13.5h14v-422h-27q-22 95 -70.5 172.5t-112.5 128.5t-142.5 85.5t-159.5 49.5t-166 15q-131 0 -245.5 -33.5t-185.5 -94.5t-71 -135q0 -57 34 -101.5t92 -73t136 -54
t165 -43t179.5 -40.5t179.5 -46t165 -59.5t136 -82t92 -113t34 -151.5q0 -88 -32.5 -162t-89 -126t-132.5 -88.5t-162.5 -54t-179.5 -17.5q-243 0 -428 102h-2q-4 2 -8 6q-8 4 -33 19q-72 37 -111 37q-12 0 -22.5 -2.5t-18 -6t-14.5 -11t-11 -12t-9.5 -15t-7 -14.5t-6 -15.5
t-5.5 -13.5h-14v422h26q27 -118 94.5 -208t158.5 -141.5t191.5 -76.5t207.5 -25q131 0 245.5 33.5t185 94t70.5 134.5q0 67 -41.5 117t-111.5 81.5t-161 56t-191.5 45.5t-201 44t-191.5 57.5t-161 80t-111.5 117.5t-41.5 165q0 88 32.5 162t89 126.5t132.5 89t162.5 54
t179.5 17.5q241 0 428 -103h2q4 -2 8 -6zM524 1882h33l201 -231l203 231h32l-186 -287h-96z" />
    <glyph glyph-name="Ydieresis" unicode="&#x178;" horiz-adv-x="1443" 
d="M1268 1307l-383 -609v-555q0 -46 28 -74t74 -28v-41h-450v41q46 0 74 28t28 74v475l-461 691q-25 38 -68.5 61t-89.5 23v41h500v-41q-46 0 -58.5 -23t13.5 -61l383 -568l356 566q23 38 10 62t-59 24v41h258v-41q-46 0 -89 -24t-66 -62zM666 1710q45 0 70.5 -29.5
t25.5 -64.5t-25.5 -64.5t-70.5 -29.5q-46 0 -72 29.5t-26 64.5t26 64.5t72 29.5zM942 1710q45 0 70.5 -29.5t25.5 -64.5t-25.5 -64.5t-70.5 -29.5t-70.5 29.5t-25.5 64.5t25.5 64.5t70.5 29.5z" />
    <glyph glyph-name="Zcaron" unicode="&#x17d;" horiz-adv-x="1443" 
d="M61 0l983 1311q28 37 17 59.5t-57 22.5h-502q-167 0 -269 -102t-102 -269v-16h-41v428h1292l-983 -1311q-28 -37 -16.5 -59.5t57.5 -22.5h492q167 0 269 102t102 269v16h40v-428h-1282zM498 1841h32l201 -231l203 231h33l-187 -287h-96z" />
    <glyph glyph-name="zcaron" unicode="&#x17e;" horiz-adv-x="1443" 
d="M61 0l983 1311q28 37 17 59.5t-57 22.5h-502q-167 0 -269 -102t-102 -269v-16h-41v428h1292l-983 -1311q-28 -37 -16.5 -59.5t57.5 -22.5h492q167 0 269 102t102 269v16h40v-428h-1282zM498 1841h32l201 -231l203 231h33l-187 -287h-96z" />
    <glyph glyph-name="circumflex" unicode="&#x2c6;" horiz-adv-x="468" 
d="M33 1100h-33l186 286h97l186 -286h-33l-200 231z" />
    <glyph glyph-name="caron" unicode="&#x2c7;" horiz-adv-x="448" 
d="M0 1432h33l200 -232l203 232h33l-186 -287h-97z" />
    <glyph glyph-name="ring" unicode="&#x2da;" horiz-adv-x="378" 
d="M190 1393q49 0 85.5 -23t53 -58t16.5 -75t-16.5 -75t-53 -58t-85.5 -23q-50 0 -87 23t-54 58t-17 75t17 75t54 58t87 23zM190 1112q37 0 62.5 26t31.5 62.5t0 73t-31.5 62.5t-62.5 26q-47 0 -74 -39t-27 -86t27 -86t74 -39z" />
    <glyph glyph-name="tilde" unicode="&#x2dc;" horiz-adv-x="653" 
d="M53 1251l-24 33q67 64 135 64q56 0 155 -45.5t144 -45.5q43 0 73.5 15t65.5 49l25 -33q-41 -38 -77 -54.5t-87 -16.5q-53 0 -149.5 45t-149.5 45q-51 0 -111 -56z" />
    <glyph glyph-name="quoteleft" unicode="&#x2018;" horiz-adv-x="391" 
d="M182 997q-60 0 -93.5 38.5t-33.5 85.5t33.5 85.5t93.5 38.5q59 0 92 -38.5t33 -85.5t-33.5 -85.5t-91.5 -38.5zM182 1176l-125 -58q0 54 21 104t50.5 84t66 62.5t64 43.5t48.5 22q1 -2 2.5 -4.5t4.5 -8.5t-1 -8q-42 -32 -71 -62t-42.5 -51.5t-19 -44t-5 -33.5t3.5 -27
t3 -19z" />
    <glyph glyph-name="quoteright" unicode="&#x2019;" horiz-adv-x="411" 
d="M215 1434q48 0 80.5 -25.5t40.5 -62t0 -73t-40.5 -62t-80.5 -25.5q-47 0 -79.5 25.5t-39.5 62t0.5 73t39.5 62t79 25.5zM215 1255l125 58q0 -54 -21 -104t-50.5 -84t-66 -62.5t-64 -43.5t-48.5 -22q-1 2 -2.5 4.5t-4.5 8.5t1 8q42 32 71 62t42.5 51.5t19 44t5 33.5
t-3.5 27t-3 19z" />
    <glyph glyph-name="quotesinglbase" unicode="&#x201a;" horiz-adv-x="423" 
d="M215 219q59 0 93 -38.5t34 -85.5t-34 -85.5t-93 -38.5t-92 38.5t-33 85.5t33.5 85.5t91.5 38.5zM215 41l125 57q0 -66 -30 -125t-74.5 -97t-81 -60.5t-64.5 -32.5q-1 2 -2.5 4t-4.5 8t1 8q42 32 71 62t42.5 51.5t19 44t5 34t-3.5 27.5t-3 19z" />
    <glyph glyph-name="quotedblleft" unicode="&#x201c;" horiz-adv-x="692" 
d="M182 997q-60 0 -93.5 38.5t-33.5 85.5t33.5 85.5t93.5 38.5q59 0 92 -38.5t33 -85.5t-33.5 -85.5t-91.5 -38.5zM182 1176l-125 -58q0 54 21 104t50.5 84t66 62.5t64 43.5t48.5 22q1 -2 2.5 -4.5t4.5 -8.5t-1 -8q-42 -32 -71 -62t-42.5 -51.5t-19 -44t-5 -33.5t3.5 -27
t3 -19zM494 997q-60 0 -93.5 38.5t-33.5 85.5t33.5 85.5t93.5 38.5q59 0 92 -38.5t33 -85.5t-33.5 -85.5t-91.5 -38.5zM494 1176l-125 -58q0 54 20.5 104t50.5 84t66 62.5t63.5 43.5t48.5 22q1 -2 3 -4.5t5 -8.5t-1 -8q-42 -32 -71 -62t-42.5 -51.5t-19 -44t-5 -33.5
t3.5 -27t3 -19z" />
    <glyph glyph-name="quotedblright" unicode="&#x201d;" horiz-adv-x="724" 
d="M215 1434q48 0 80.5 -25.5t40.5 -62t0 -73t-40.5 -62t-80.5 -25.5q-47 0 -79.5 25.5t-39.5 62t0.5 73t39.5 62t79 25.5zM215 1255l125 58q0 -54 -21 -104t-50.5 -84t-66 -62.5t-64 -43.5t-48.5 -22q-1 2 -2.5 4.5t-4.5 8.5t1 8q42 32 71 62t42.5 51.5t19 44t5 33.5
t-3.5 27t-3 19zM524 1434q60 0 93.5 -39t33.5 -85t-33.5 -85t-93.5 -39q-47 0 -79.5 25.5t-39.5 62t0.5 73t39.5 62t79 25.5zM524 1255l125 58q0 -54 -21 -104t-50.5 -84t-66 -62.5t-64 -43.5t-48.5 -22q-1 2 -2.5 4.5t-4.5 8.5t1 8q42 32 71 62t42.5 51.5t19 44t5 33.5
t-3.5 27t-3 19z" />
    <glyph glyph-name="quotedblbase" unicode="&#x201e;" horiz-adv-x="770" 
d="M215 219q59 0 93 -38.5t34 -85.5t-34 -85.5t-93 -38.5t-92 38.5t-33 85.5t33.5 85.5t91.5 38.5zM215 41l125 57q0 -66 -30 -125t-74.5 -97t-81 -60.5t-64.5 -32.5q-1 2 -2.5 4t-4.5 8t1 8q42 32 71 62t42.5 51.5t19 44t5 34t-3.5 27.5t-3 19zM559 219q59 0 93 -38.5
t34 -85.5t-34 -85.5t-93 -38.5t-92 38.5t-33 85.5t33.5 85.5t91.5 38.5zM559 41l125 57q0 -66 -30 -125t-74.5 -97t-81 -60.5t-64.5 -32.5q-1 2 -2.5 4t-4.5 8t1 8q42 32 71 62t42.5 51.5t19 44t5 34t-3.5 27.5t-3 19z" />
    <glyph glyph-name="Euro" unicode="&#x20ac;" horiz-adv-x="1484" 
d="M0 606v41h240q-7 99 4 178h-244v41h248q15 99 48.5 188t88.5 166.5t126 133.5t166 88.5t204 32.5q101 0 184.5 -26.5t148 -77.5t111.5 -107.5t94 -133.5l-24 -135h-19q-26 79 -54.5 141t-71.5 120t-95 96t-125.5 61t-161.5 23q-110 0 -195.5 -81t-132.5 -206.5
t-63 -282.5h400v-41h-404q-7 -104 -2 -178h406v-41h-404q10 -122 39.5 -228.5t77.5 -191.5t120 -134.5t158 -49.5q87 0 161.5 25.5t128 68t98 104.5t74 126t54.5 143l19 -2l20 -156q-88 -160 -228 -256t-314 -96q-140 0 -256.5 53t-194 144t-125 205.5t-61.5 244.5h-244z
" />
    <glyph glyph-name="trademark" unicode="&#x2122;" horiz-adv-x="1142" 
d="M545 1421v13h92l151 -324l134 324h100v-13q-31 0 -31 -28v-328q0 -13 8.5 -22t22.5 -9v-10h-129v10q12 0 20.5 9t8.5 22v338l-156 -379h-16l-164 352v-311q0 -14 8.5 -22.5t21.5 -8.5v-10h-71v10q13 0 21.5 8.5t8.5 22.5v328v8l-6 10q-10 10 -24 10zM510 1434v-123h-10v4
q0 49 -29.5 77.5t-77.5 28.5h-18q-12 0 -20.5 -7.5t-8.5 -20.5v-328q0 -13 8.5 -22t20.5 -9v-10h-129v10q13 0 21.5 8.5t8.5 22.5v328q0 28 -30 28h-17q-48 0 -77 -28.5t-29 -77.5v-4h-12v123h399z" />
    <glyph glyph-name="minus" unicode="&#x2212;" horiz-adv-x="1040" 
d="M82 655v41h876v-41h-876z" />
    </font>
</defs>
</svg>
