<?xml version="1.0" standalone="no"?>
<!DOCTYPE svg PUBLIC "-//W3C//DTD SVG 1.1//EN" "http://www.w3.org/Graphics/SVG/1.1/DTD/svg11.dtd" >
<svg xmlns="http://www.w3.org/2000/svg" xmlns:xlink="http://www.w3.org/1999/xlink" version="1.1">
<metadata>
Created by FontForge 20170731 at Sat Jan 16 05:05:43 2021
 By Aleksey,,,
</metadata>
<defs>
<font id="Monog-Regular" horiz-adv-x="984" >
  <font-face 
    font-family="Monog"
    font-weight="400"
    font-stretch="normal"
    units-per-em="1000"
    panose-1="2 0 5 3 0 0 0 0 0 0"
    ascent="800"
    descent="-200"
    x-height="800"
    cap-height="800"
    bbox="33 -200 950 800"
    underline-thickness="50"
    underline-position="-150"
    unicode-range="U+000D-00AB"
  />
<missing-glyph horiz-adv-x="364" 
d="M33 0v666h265v-666h-265zM66 33h199v600h-199v-600z" />
    <glyph glyph-name=".notdef" horiz-adv-x="364" 
d="M33 0v666h265v-666h-265zM66 33h199v600h-199v-600z" />
    <glyph glyph-name=".null" horiz-adv-x="250" 
 />
    <glyph glyph-name=".null" horiz-adv-x="250" 
 />
    <glyph glyph-name="nonmarkingreturn" horiz-adv-x="333" 
 />
    <glyph glyph-name="CR" unicode="&#xd;" horiz-adv-x="250" 
 />
    <glyph glyph-name="space" unicode=" " horiz-adv-x="250" 
 />
    <glyph glyph-name="exclam" unicode="!" horiz-adv-x="989" 
d="M916 778q-7 3 -599 3q-234 0 -239 -1t-6.5 -4t-2.5 -18.5t-1 -52.5v-64v-44q0 -64 -4 -68q-5 -7 -1 -9q5 -2 5 -344v-99q0 -242 3 -245q2 -2 195 -4q192 0 198 -4t9 1q1 3 84 3q122 0 130 -5q6 -4 13 3q5 4 55 4q17 0 54 -0.5t54 -0.5q52 0 56 4q3 4 3 281v290
q0 290 3 294q5 8 -1 12q-3 3 -3 22v12v17q0 16 -5 17zM43 -200v1000h902v-1000h-902zM445 661q15 15 31 15t32 -15q8 -8 10 -10.5t4 -9t2 -18.5v-17q-3 -61 -15 -162q-10 -98 -15 -206q-2 -81 -5 -99.5t-13 -18.5t-10 4q-1 43 -12.5 208.5t-16.5 196.5q-7 54 -7 87
q0 20 2.5 27.5t12.5 17.5zM461 59q7 3 15 3q21 0 39 -16.5t18 -37.5q0 -19 -19 -39t-36 -20q-21 0 -39 19.5t-18 40.5q0 1 0.5 3.5t0.5 3.5q2 10 15 24t24 19z" />
    <glyph glyph-name="numbersign" unicode="#" 
d="M906 751v29l-412 1q-417 0 -422 -1q-4 0 -5 -1t-2.5 -6t-2 -14.5t-0.5 -27.5q0 -8 0.5 -36.5t0.5 -50.5v-34q0 -74 -5 -81q-5 -5 0 -9q5 -3 5 -344t3 -344q6 -6 152 -6h18q104 2 127 2q73 0 81 -4q6 -5 13 0q4 4 94 4q113 0 121 -5q5 -3 12 2q5 4 68 4h45l106 -2l5 12
q5 12 2 15q-3 2 -3 359q0 483 4 488q4 8 0 13q-5 8 -5 37zM43 -200v1000h897v-1000h-897zM532 381l10 43h-172l-15 -68q-3 -15 -7.5 -34.5t-7 -30t-2.5 -12.5q0 -4 45 -4h39l87 2l7 31q7 29 16 73zM466 56q0 2 15.5 80t15.5 79q0 8 -85 8h-84l-11 -50q-3 -16 -9 -46.5
t-8 -38.5l-6 -35h-25q-25 0 -25 8q0 6 15 83q16 73 16 76t-44 3h-44v51h97l13 56q15 65 17 75l3 19h-130v51h67q65 0 71 7q5 6 22 88l17 81h25q25 0 25 -6q0 -1 -7 -38.5t-14.5 -77t-7.5 -44.5q0 -7 84 -7h82q6 28 18 84.5t18 85.5l25 1q3 0 7 0.5t5 0.5q11 0 11 -12
t-15 -80q-13 -57 -13 -75q0 -8 45 -8h40v-51h-48q-32 0 -41 -1.5t-11 -7.5q-3 -10 -15.5 -70.5t-12.5 -65.5t64 -5h64v-51l-70 -1l-71 -2l-9 -46q-12 -60 -18 -84l-8 -37h-25q-25 0 -25 3z" />
    <glyph glyph-name="asterisk" unicode="*" 
d="M859 754q-24 0 -31 4q-10 6 -17 1q-8 -4 -356 -4h-109t-98.5 -0.5t-76.5 -0.5h-53.5h-20.5q-4 -1 -6 -2.5t-3 -10.5t-1 -28q0 -33 1 -59v-42q0 -59 -4 -62t0 -12q4 -7 4 -336q1 -180 1 -340q1 -10 8 -12t48 -3q31 -1 66 -1q82 2 118 2q85 0 91 -3q8 -5 12 1q2 3 75 3
q131 0 139 -5q6 -4 12 2q7 5 63 5q32 0 52 -1l108 -2v408q0 410 4 417q6 9 0 15q-4 6 -4 28v8l1 30h-23zM43 -200v1000h897v-1000h-897zM445 461v184h63q-2 -29 -4.5 -87.5t-3.5 -88.5l18 10q120 74 138 74q4 0 15 -20t11 -27q0 -3 -78 -45l-75 -40l71 -38q71 -39 78 -45
q3 -4 3 -9q0 -11 -16 -31l-12 -16l-36 22q-41 25 -76 50l-41 29l6 -186h-61v88q0 87 -3 87l-4 -3q-5 -3 -14 -9t-16 -11q-27 -18 -75 -43l-42 -21q-18 32 -28 47l12 10q17 12 79 44l66 34l-30 18q-15 10 -75 43l-45 26l8 19q11 26 20 26q11 0 74 -43z" />
    <glyph glyph-name="comma" unicode="," 
d="M914 -179q0 15 -2 15q-3 0 -3 -12q0 -13 -6 -15q-6 -3 2 -3q9 -2 9 15zM913 -142q4 4 0 7.5t-4 -3.5q0 -3 1.5 -4.5t2.5 0.5zM913 59q4 4 0 7.5t-4 -3.5q0 -3 1.5 -4t2.5 0zM913 214q4 4 0 7.5t-4 -3.5q0 -3 1.5 -4.5t2.5 0.5zM909 310q0 -7 4 -3.5t0 7.5q-1 2 -2.5 0.5
t-1.5 -4.5zM909 372q0 -7 4 -3.5t0 7.5q-1 2 -2.5 0.5t-1.5 -4.5zM914 385q0 3 -2 3q-3 0 -3 -3t3 -3q2 0 2 3zM914 606q0 12 -2 12q-5 0 -5 -15q0 -6 2 -7q3 -2 4 4zM850 745v9q0 10 -1.5 15.5t-3.5 7t-8.5 3.5t-10.5 5q-8 3 -15 0q-7 -5 -355 -5h-359q-4 -1 -6 -2.5
t-3 -11t-1 -30.5q0 -36 1 -64q1 -24 1 -61q0 -48 -4 -51q-6 -3 -1 -12q5 -8 5 -336v-341q1 -11 5.5 -12.5t32.5 -1.5h63q45 0 95 1h40q56 0 64 -2q9 -5 12 0q1 3 75 3q131 0 139 -5q5 -4 13 2q4 4 61 4h100q55 0 58 4q3 3 3 294v119q0 409 4 416q5 9 0 16q-4 5 -4 36z
M43 -200v1000h897v-1000h-897zM463 344q12 5 25 5q20 0 37 -9q13 -7 29.5 -24t22.5 -31q7 -15 7 -44q0 -35 -10 -56q-16 -37 -56 -67.5t-81 -37.5q-2 0 -4.5 -0.5t-3.5 -0.5q-10 0 -10 6q0 10 22 20q40 20 63.5 47t23.5 53q0 21 -12 32t-43 19q-26 7 -34.5 16t-8.5 29
q0 16 7 25.5t26 17.5z" />
    <glyph glyph-name="hyphen" unicode="-" 
d="M863 774q-29 0 -34 5q-6 6 -13 0q-4 -3 -93 -5q-572 0 -624 -4q-7 -1 -7 -45q0 -36 1 -64q1 -24 1 -61q0 -47 -4 -50q-6 -3 -1 -12q5 -8 5 -345t3 -340q7 -7 114 -7h10q72 2 109 2q93 0 99 -4q5 -4 12 1q4 4 94 4q113 0 121 -5q5 -4 13 2q4 4 56 4q17 0 54 -0.5t53 -0.5
q51 0 55 5q4 6 4 420q2 415 5 423q4 9 -1 12q-4 4 -4 25v9l1 31h-29zM43 -200v1000h897v-1000h-897zM403 291q18 1 81 1q126 0 129 -3q2 -2 4 -31l1 -28l-98 -1h-43q-62 0 -86 2q-21 3 -26 6t-7 14q-2 16 1 26q2 8 9 10t35 4z" />
    <glyph glyph-name="period" unicode="." 
d="M865 762q-6 3 -398 3l-392 1l3 -106q1 -20 1 -50q0 -57 -5 -60q-6 -3 -1 -12q5 -7 5 -268v-78q0 -336 3 -339q7 -7 114 -7h10q72 2 114 2q90 0 96 -3q8 -5 12 1q1 3 83 3q122 0 130 -5q6 -3 13 2t78 5h32q15 0 40 -0.5t34 -0.5h17h12l5 1q4 1 4 62q0 49 -1 84
q-3 202 -3 424q0 253 3 261q5 8 -1 12q-3 3 -3 22v12v13q0 19 -5 21zM43 -200v1000h897v-1000h-897zM440 134q13 9 30 9q22 0 38.5 -16.5t16.5 -40.5q0 -7 -4 -21q-14 -41 -53 -41q-38 0 -52 40q-3 10 -3 21q0 31 27 49z" />
    <glyph glyph-name="zero" unicode="0" 
d="M858 748h-7q-26 0 -31 5q-6 6 -14 1q-10 -5 -355 -5h-306h-53q-4 -1 -6 -2.5t-3 -11t-1 -29.5q0 -34 1 -60q0 -12 0.5 -31t0.5 -26q0 -46 -4 -49q-6 -3 -1 -12q4 -7 4 -345q0 -337 3 -341q4 -5 96 -5q30 0 96 0.5t93 0.5q69 0 73 -3q6 -5 13 0q6 4 61 4q30 0 48 -1
q40 -1 97 -1h14h17.5t46 0.5t55.5 0.5l110 1l1 412q2 416 4 421q4 9 -1 12q-3 3 -3 21v13q0 4 0.5 9t0.5 7q0 9 -3.5 12t-15.5 3q-18 0 -31 -1zM43 -200v1000h897v-1000h-897zM515 636q-26 18 -57 18t-58.5 -16t-42.5 -45q-23 -46 -30 -191q-2 -58 -2 -84q0 -167 32 -229
q31 -60 95 -60q28 0 57 15q41 23 58 92t17 213q0 142 -14 200.5t-55 86.5zM395 664q25 12 47 12q2 0 8.5 -0.5t10.5 -0.5q101 -6 159 -123q23 -46 30 -87t8 -119q0 -58 -2 -80t-11 -55q-12 -42 -23.5 -66.5t-35.5 -58.5q-56 -79 -133 -79q-2 0 -6.5 0.5t-6.5 0.5
q-84 7 -138.5 97.5t-54.5 220.5q0 34 2 52q9 107 47.5 182t98.5 104z" />
    <glyph glyph-name="one" unicode="1" 
d="M860 732q-27 2 -31 6q-5 5 -12 0q-5 -3 -259 -3h-103q-354 0 -358 -4q-3 -3 -3 -65v-25q0 -88 -5 -91t0 -12q5 -8 5 -336v-340q1 -10 7.5 -12t48.5 -3q30 -1 66 -1q102 2 126 2q73 0 81 -4q6 -4 13 1q4 4 94 4q113 0 121 -5q5 -4 13 2q5 4 69 4h45l108 -1v397
q0 395 4 403t0 13q-4 6 -4 37v31zM43 -200v1000h897v-1000h-897zM457 639q41 37 57 37q8 0 14 -7q4 -5 4 -88q0 -51 -2 -193t-2 -202q0 -113 6 -119q5 -4 25.5 -9.5t37.5 -12t17 -14.5q0 -2 -1 -4q-3 -5 -117 -5q-78 0 -95 1t-17 7q0 9 6.5 13t28.5 10q32 9 36 15
q3 6 6.5 169t3.5 276q0 81 -2 81t-60 -39q-55 -37 -65 -37h-1q-9 2 -9 9q0 11 18 21q30 17 111 91z" />
    <glyph glyph-name="two" unicode="2" 
d="M848 738q-24 0 -29 5q-6 6 -13 0q-5 -3 -259 -3h-103q-355 0 -358 -3t-3 -86v-25q0 -57 -4 -61q-5 -3 0 -11q4 -7 4 -346q0 -337 3 -340q6 -6 102 -6h12q70 2 108 2q94 0 100 -4q6 -5 13 0q4 4 94 4q113 0 121 -5q5 -3 12 2q5 4 69 4h46l108 -2l-1 393q0 394 4 401
q5 9 0 16q-3 4 -3 24v12l1 29h-24zM43 -200v1000h897v-1000h-897zM433 697q18 3 35 3q54 0 99 -27t67 -73q14 -28 14 -69q0 -60 -34 -109t-157 -172q-130 -130 -130 -135q0 -6 141 -6h141l12 15q16 21 22 36q9 21 20 21q4 0 5.5 -0.5t2.5 -3t1 -8.5q0 -11 -6 -62l-6 -57
l-205 -1h-60q-148 0 -148 5q0 18 111 135q154 163 185 227q28 59 28 105q0 55 -39 92q-33 33 -85 33q-31 0 -57 -13q-26 -12 -42 -29.5t-34 -53.5q-20 -39 -27 -43h-2q-8 0 -8 13q0 20 13 52q41 106 143 125z" />
    <glyph glyph-name="three" unicode="3" 
d="M43 755v45h445h240.5t131.5 -1t63.5 -2.5t13.5 -4.5q3 -8 3 -500v-492h-897l1 38l3 26v-1q3 -11 13 -12q75 -5 148 -5h21.5t50.5 0.5t55 0.5q80 0 83 -3q6 -4 13 1q4 4 94 4q113 0 121 -5q5 -3 12 2q5 4 69 4h46l108 -2v405q0 408 4 415q5 9 -1 15q-3 4 -3 29v10
q1 9 1 19q0 8 -2.5 10t-10.5 3q-10 0 -48 2q-50 2 -94 2q-11 0 -115 -0.5t-207 -0.5zM43 736q0 2 3 2q2 0 2 -2q0 -3 -2 -3q-3 0 -3 3zM45 705l2 16v-2q2 -12 0 -26q-1 -8 -2 1v11zM346 705q19 7 60 7h5q67 0 105 -42q27 -30 27 -64q0 -50 -65 -113q-34 -34 -34 -39t19 -5
q20 0 51 -17t44 -36q36 -48 36 -114v-13q-2 -48 -19 -83q-19 -43 -56 -77t-79 -49q-43 -15 -98 -15q-47 0 -86 11t-51 30q-6 9 -6 13t6 13q9 13 23 13q18 0 50 -21q53 -36 90 -36q2 0 5.5 0.5t5.5 0.5q63 6 104.5 60.5t41.5 123.5q0 47 -20 87q-32 63 -92 63q-29 0 -55 -17
q-16 -11 -22 -11q-4 0 -8 4q-2 2 -2 5q0 6 51 49q47 39 65 59.5t30 47.5q7 15 7 32q0 36 -30.5 62.5t-71.5 26.5q-26 0 -48 -11q-16 -7 -48 -38t-32 -39q0 -3 -4.5 -4t-8.5 0.5t-4 5.5q0 8 14 35t27 43q29 36 73 52zM45 653q0 12 2 12q2 -10 0 -21q-1 1 -2 9zM45 591l2 25
v-3q0 -3 0.5 -9.5t0.5 -10.5t-0.5 -11t-0.5 -10q-1 -12 -2 0v19zM44 522q0 10 3 6q2 -7 -1 -13q-1 3 -2 7zM45 465q0 27 1 27q1 -2 1 -5t0.5 -10.5t0.5 -11.5t-0.5 -11.5t-0.5 -10.5l-1 -5q-1 0 -1 27zM44 408q0 8 1 8q3 -1 2 -12v-2q-3 -2 -3 6zM45 359l2 17v-2
q2 -12 0 -26q-1 0 -2 11zM45 246q0 52 1 52q1 -3 1 -9q0 -5 0.5 -19t0.5 -22t-0.5 -22t-0.5 -20l-1 -10q-1 0 -1 50zM45 135l2 17v-3q2 -14 0 -28q-1 -8 -2 1v13zM44 89l2 11l1 -2q2 -9 0 -18q-2 3 -3 9zM45 22l2 17v-3q2 -14 0 -28q-1 -8 -2 1v13zM45 -71q0 30 1 30
q1 -1 1 -5q0 -3 0.5 -11.5t0.5 -13.5t-0.5 -13t-0.5 -11l-1 -6q-1 0 -1 30z" />
    <glyph glyph-name="four" unicode="4" 
d="M200 -154q85 0 85 5q0 3 42 3q73 0 81 -5q6 -3 13 2q4 4 82 4q123 0 133 -6q5 -3 12 2q5 4 69 4h46l107 -2v405q0 408 4 415q5 8 0 15q-3 4 -3 24v12l1 30h-22q-22 0 -26 4q-6 6 -13 1q-8 -4 -356 -4q-352 0 -358 -1t-7.5 -7t-1.5 -37v-54v-29q0 -68 -4 -72q-5 -3 0 -12
q4 -7 4 -348v-99q0 -240 3 -243q9 -7 99 -7h10zM43 -200v1000h897v-1000h-897zM455 449q0 155 -2 155q-5 0 -104.5 -147.5t-99.5 -154.5q0 -5 103 -7l103 -1v155zM482 696q20 27 33 27h14l-1 -84q-1 -33 -1 -147v-67l1 -130h108l-1 -22l-2 -22l-52 -2l-53 -1l-1 -94l-2 -94
l-34 -1l-33 -2l-1 94q-2 94 -3 95t-132 3h-130v16q0 16 95 154q130 188 195 277z" />
    <glyph glyph-name="five" unicode="5" 
d="M848 769q-25 0 -30 5t-12 0q-8 -4 -353 -4h-356q-4 -1 -6 -2.5t-3 -11t-1 -29.5q0 -35 1 -61q0 -12 0.5 -31t0.5 -26q0 -46 -4 -49q-6 -3 -1 -12q4 -7 4 -345q0 -337 3 -340q6 -6 102 -6h12q70 2 108 2q94 0 100 -4q7 -5 13 0q4 4 94 4q113 0 121 -5q5 -3 12 2q5 4 70 4
h45l107 -1l-1 75q-3 165 -3 456q0 292 3 298q5 9 0 16q-3 4 -3 24v12l1 29h-24zM43 -200v1000h897v-1000h-897zM556 730q10 8 22 8q6 0 8 -1t2 -7q0 -9 -1 -16l-3 -21t-3 -18l-3 -14l-111 -1l-112 -2l-3 -20q-3 -17 -7 -92l-5 -71l21 9q21 9 69 9h16q23 0 34.5 -3t37.5 -16
q40 -20 63 -50q52 -69 52 -134q0 -16 -3 -36q-12 -82 -76.5 -134t-154.5 -52q-19 0 -28 1q-49 4 -82.5 21t-33.5 35q0 9 9 16q13 13 25 13q16 0 65 -33q25 -17 35 -20.5t34 -3.5h9q29 0 54 15q45 25 71 80q15 30 15 73q0 41 -13 67q-43 97 -142 97q-27 0 -51.5 -7.5
t-30.5 -17.5q-4 -6 -19 -6q-10 0 -10 4q0 9 5 66q2 27 10 149q6 91 8 97t20 7.5t90 1.5q108 0 117 7z" />
    <glyph glyph-name="six" unicode="6" horiz-adv-x="989" 
d="M896 -190q8 0 5.5 5.5t-5.5 5.5t-5.5 -5.5t5.5 -5.5zM849 762q-12 4 -591 4q-156 0 -160 -1l-3 -1q-3 0 -2.5 0t-1 -2t-1.5 -4.5t-0.5 -7.5t-0.5 -11.5v-16.5v-60q0 -88 -5 -91q-5 -5 0 -10q4 -5 4 -333q1 -180 1 -344v-17h93q1 0 21.5 0.5t50.5 0.5h55q80 0 83 -3
q6 -5 13 0q4 4 94 4q113 0 121 -5q5 -4 13 2q7 5 78 5h33q26 -1 61 -1q44 0 47 7q3 5 3 332v129q0 339 3 344q5 8 -1 12q-3 3 -3 22v12v13q0 19 -5 21zM43 -200v1000h902v-1000h-902zM533 723q21 7 30 7q10 0 10 -10q0 -8 -36 -25q-76 -37 -138 -116t-86 -170
q-15 -57 -15 -127q0 -55 11 -86q30 -77 72 -100q20 -12 37 -12q2 0 7.5 0.5t8.5 0.5q103 8 103 173v22q-2 53 -18 85q-31 61 -90 61q-38 2 -38 10q0 5 16 11q21 8 42 8q24 0 55 -11q50 -18 79.5 -69t29.5 -113q0 -49 -19 -94q-9 -22 -34.5 -49t-47.5 -38q-40 -21 -90 -21
q-47 0 -84 19q-20 10 -46 36.5t-37 49.5q-30 59 -30 144q0 74 24 140q27 77 90 144q90 96 194 130z" />
    <glyph glyph-name="seven" unicode="7" horiz-adv-x="989" 
d="M851 759q-27 0 -34 4q-10 6 -16 1q-8 -4 -356 -4h-109h-98.5t-76.5 -0.5t-53.5 -0.5h-20.5q-4 -1 -6 -2.5t-3 -10.5t-1 -28q0 -33 1 -58v-41q0 -60 -4 -64q-6 -7 -1 -10q6 -4 6 -343v-99q0 -242 3 -245q4 -4 166 -4q166 -2 170 -4q6 -4 9 1q1 3 84 3q122 0 130 -5
q5 -4 12 3q4 4 53 4q37 0 62 -1l107 -2v408q0 409 5 417q6 9 0 15q-4 6 -4 28v8l1 30h-26zM43 -200v1000h902v-1000h-902zM262 655l3 11h193q195 0 195 -5q0 -10 -28 -75q-64 -147 -125 -320q-64 -180 -64 -219v-6l1 -22h-20q-13 0 -16.5 1t-3.5 7q0 1 0.5 3.5t0.5 4.5
q5 40 59 202.5t101 273.5q28 71 28 77t-19.5 7t-118.5 3q-15 0 -37.5 0.5t-30.5 0.5q-64 0 -77.5 -6t-16.5 -31q-4 -22 -14 -22q-7 0 -8 7t-3 44q0 6 -0.5 17.5t-0.5 16.5q0 22 2 30z" />
    <glyph glyph-name="eight" unicode="8" 
d="M853 743h-9q-23 0 -29 4q-8 6 -14 1q-5 -3 -255 -3h-102q-353 0 -358 -2q-8 -4 -8 -61v-33q0 -91 -5 -94t0 -12q5 -8 5 -344v-98q0 -240 3 -243q3 -4 66 -6q17 0 37 -0.5t27 -0.5q10 0 24.5 0.5t41 1t55.5 0.5h27q69 0 75 -4t13 1q4 4 94 4q113 0 121 -5q5 -4 11 2
q7 4 71 4h79q66 0 69 4q5 7 5 402q2 400 4 405q4 9 -1 12q-3 2 -3 33.5t-5 32.5h-7q-19 0 -32 -1zM43 -200v1000h897l-1 -498l-2 -499l-447 -2zM439 321q-42 20 -51 20q-11 0 -36.5 -19t-36.5 -37q-25 -39 -25 -98q0 -38 6.5 -59t23.5 -40q37 -41 97 -41t96 40q32 35 32 92
q-1 49 -25 81.5t-81 60.5zM459 653q-17 7 -48 7t-48 -7q-58 -25 -66 -98q0 -3 -0.5 -7t-0.5 -6q0 -46 42 -85q20 -18 54 -36t47 -18q14 0 36 20.5t34 44.5q16 32 16 71q-1 87 -66 114zM352 678q26 8 58 8q39 0 69 -10q35 -11 62 -38q43 -43 43 -98t-43 -98q-27 -27 -49 -38
q-21 -10 -21 -15q0 -4 38 -26q64 -36 88 -88q10 -24 10 -70t-14 -76q-14 -29 -39 -53.5t-52 -37.5q-19 -9 -34 -11.5t-54 -2.5q-42 0 -55.5 2.5t-38.5 14.5q-91 45 -91 148q0 53 20.5 86.5t69.5 58.5q38 20 38 23t-23 15q-44 24 -70 66.5t-26 88.5q0 33 13 59q34 69 101 92z
" />
    <glyph glyph-name="nine" unicode="9" 
d="M854 738q-18 0 -26 5q-9 6 -17 0q-8 -4 -356 -4h-358q-6 -1 -7.5 -7t-1.5 -35v-49v-28q0 -61 -4 -65q-5 -3 0 -12q4 -7 4 -345q0 -336 4 -340q6 -6 95 -6h13q40 1 106 1q98 0 102 -4q6 -4 13 1q4 4 94 4q113 0 121 -5q5 -3 12 2t81 5h34l107 -2l1 400q2 402 4 407
q4 9 -1 12q-3 3 -3 21v13l1 31h-18zM43 -200v1000h897v-1000h-897zM380 688q19 8 56 8q54 0 83 -15q75 -38 108 -126q11 -29 11 -113v-29q0 -57 -11 -92q-20 -64 -59 -123t-83 -92q-40 -31 -92.5 -54.5t-79.5 -23.5h-4q-16 1 -16 8q0 8 31 19q71 25 116.5 66t80.5 109
q47 92 47 219q0 22 -1 33q-7 119 -60 164q-35 30 -73 30q-17 0 -30 -7q-16 -8 -33 -30t-25 -44q-16 -42 -16 -105q0 -60 15 -95q29 -68 88 -68q8 0 13 1q7 1 15 1q9 0 12 -9q4 -10 -3 -15q-14 -9 -59 -9q-13 0 -18 1q-49 10 -90 56q-44 48 -48 128v14q0 67 32.5 117.5
t92.5 75.5z" />
    <glyph glyph-name="colon" unicode=":" 
d="M919 -177q0 3 -2 3q-3 0 -3 -3q0 -2 3 -2q2 0 2 2zM842 748q-18 0 -24 6q-5 5 -12 0q-6 -4 -261 -4h-100q-356 0 -359 -3q-2 -2 -2 -52v-34q0 -82 -5 -85t0 -13q4 -7 4 -344t4 -341q6 -6 91 -6h12q100 2 128 2q76 0 82 -3q7 -4 11 1q1 3 75 3q131 0 139 -5q7 -4 13 2
q7 5 63 5q32 0 52 -1l108 -2l-1 392v110q0 284 4 292q4 9 0 15q-3 4 -3 24v12l1 29h-20zM43 -200v1000h897v-1000h-897zM449 632q14 8 26 8q17 0 34 -16q19 -16 19 -36q0 -27 -16 -44.5t-38 -17.5q-19 0 -35 16q-15 15 -15 39q0 38 25 51zM441 318q18 18 39 18t34.5 -16
t13.5 -38q0 -24 -15 -39q-17 -15 -35 -15q-19 0 -34 14t-18 37q-1 5 -1 12q0 11 16 27z" />
    <glyph glyph-name="semicolon" unicode=";" 
d="M882 -183q4 -2 7 -1q5 2 3 3q-1 2 -7 1q-9 0 -3 -3zM834 730v30l-354 1q-356 0 -363 -3q-8 -4 -8 -61v-33v-28q0 -62 -5 -65q-5 -5 0 -10q3 -4 5 -333v-341q1 -8 5 -11t21 -7q13 -3 26 -3q7 0 9 1q8 3 75 3q119 0 127 -5q7 -3 13 1t62 4q30 0 47 -1q40 -1 97 -1h14h17.5
t45 0.5t54.5 0.5q110 0 110 3q2 4 2 402q2 402 5 406q4 6 -1 13q-4 6 -4 37zM43 -200v1000h897v-1000h-897zM447 660q12 6 24 6q21 0 36 -15t15 -37q0 -23 -15 -37t-35 -14q-28 0 -44 26q-9 14 -9 25t9 26t19 20zM427 334q12 12 19.5 15t26.5 3q28 0 46 -16q29 -24 29 -76
t-41 -96q-22 -24 -51.5 -41.5t-45.5 -17.5q-11 0 -11 9q0 10 34 31q56 37 62 82q1 4 1 11q0 11 -10 18q-11 8 -33 8q-18 0 -24.5 3.5t-13.5 15.5q-6 10 -6 19q0 14 18 32z" />
    <glyph glyph-name="question" unicode="?" 
d="M872 764q-16 0 -24 5q-9 5 -16 0q-8 -4 -356 -4q-352 0 -358 -1q-4 -1 -6 -2.5t-3 -10.5t-1 -28q0 -33 1 -59v-41q0 -60 -4 -63q-5 -4 -1 -12q5 -8 5 -345v-120q0 -218 7 -222q5 -4 46 -4h51q1 0 19.5 0.5t47 0.5h52.5q86 0 91 -3q6 -4 13 1q4 3 86 3q122 0 130 -5
q5 -3 12 2q4 4 69 4h45l108 -2v408q0 410 4 417q5 8 -1 15q-3 4 -3 25v12l1 29h-15zM43 300v500h897v-1000h-434q-432 0 -440 6q-8 8 -8 0q0 -6 -7 -6q-3 0 -4.5 14.5t-2.5 72t-1 147.5v266zM422 653q18 7 36 7q13 0 40 -5q60 -13 115 -63q94 -86 96 -200q0 -56 -36 -109
q-30 -43 -119 -56q-39 -5 -56 -16.5t-17 -31.5q0 -21 -3 -41q-4 -23 -10 -23h-4q-8 2 -10.5 9.5t-6.5 38.5q-5 34 -10 89q-2 24 -2 27q0 14 11 18t53 9q12 1 19 2q55 6 82.5 16.5t45.5 31.5q24 30 24 71q0 42 -24 84t-64 65q-28 16 -50 16q-16 0 -45 -6q-40 -7 -53 -7
q-25 0 -37 16q-8 11 -8 22q0 23 33 36zM441 32q15 9 29 9q27 0 42 -26q11 -19 11 -35q0 -22 -15 -37t-36 -15q-22 0 -40 18q-19 19 -19 41q0 29 28 45z" />
    <glyph glyph-name="A" unicode="A" horiz-adv-x="989" 
d="M935 -192q0 2 -3 2q-2 0 -2 -2q0 -3 2 -3q3 0 3 3zM561 452q-32 83 -38 97l-9 21l-18 -44q-20 -48 -56 -156q-24 -74 -24 -78q0 -3 145 -3q57 0 57 2q0 15 -57 161zM885 762q-10 4 -610 4q-163 0 -168 -1q-6 -1 -7.5 -6.5t-1.5 -28.5q0 -35 1 -64v-40q0 -58 -4 -61
q-5 -4 -1 -11q5 -8 5 -346q0 -337 3 -340q6 -6 103 -6h18q54 2 101 2q104 0 110 -4q6 -5 13 0q5 3 67 3h42q58 -1 100 -1q11 0 44.5 0.5t81.5 1.5q73 1 89.5 2t17.5 6q2 16 2 43q0 21 -2 23q-4 5 -134 8q-132 4 -134 6t1 9t49 11q47 5 53 12q2 4 2 8q0 12 -18 67
q-16 50 -30 82t-25 62q-16 43 -22 50q-19 11 -76 11h-35h-54q-48 0 -59.5 -17t-43.5 -117q-42 -128 -42 -140t10.5 -15.5t55.5 -7.5q47 -4 47 -12q0 -3 -3 -6t-60 -3q-67 0 -141 3.5t-74 7.5q0 7 41 10q40 3 56 13t35.5 52.5t65.5 166.5q91 248 96 271q4 19 38 111l33 93
l19 1q2 0 4.5 0.5t3.5 0.5q7 0 10.5 -4.5t12.5 -24.5q49 -110 214 -578q19 -56 34 -71.5t56 -24.5l16 -3v352v99q0 253 4 261q5 8 -1 12q-4 4 -4 25v9v13q0 19 -5 21zM43 308v492h902v-1000l-452 1q-442 0 -442 4q0 2 3 3l4 1l-6 4q-7 3 -8 72t-1 423z" />
    <glyph glyph-name="B" unicode="B" horiz-adv-x="994" 
d="M868 770h-13q-22 0 -28 3q-10 6 -17 1q-8 -4 -355 -4h-109h-98.5t-76.5 -0.5t-53.5 -0.5h-20.5q-3 0 -4.5 -1t-3 -5.5t-2 -13t-0.5 -24.5q0 -35 1 -63q1 -20 1 -51q0 -55 -5 -62t0 -10t5 -262v-84q0 -342 3 -345q4 -4 173 -4q172 -2 176 -5q7 -3 13 1q4 4 94 4
q114 0 122 -5q5 -3 12 2q4 4 56 4q16 0 52 -0.5t52 -0.5q51 0 55 5q2 3 4 420q0 415 4 421q3 6 0 13q-4 6 -4 37v32zM43 -200v1000h907v-1000h-907zM536 319q-31 12 -109 14l-79 2l2 -132q2 -97 3.5 -117.5t8.5 -30.5q12 -16 29.5 -22.5t52.5 -8.5h18q74 0 118 41
q29 26 39 62q9 28 9 55q0 46 -24.5 83t-67.5 54zM463 624q-27 4 -47 4q-19 0 -59 -7l-20 -3l3 -92q4 -96 7 -126l3 -35l23 -3q7 -1 24 -1q56 0 92 12q50 16 78 72q15 33 15 51q0 2 -0.5 8.5t-0.5 10.5q-3 36 -17 57q-29 40 -101 52zM219 642q94 7 206 7q76 0 96 -4
q28 -4 58.5 -18t45.5 -28q44 -41 44 -103q0 -17 -4 -29q-6 -19 -27 -42t-45 -37q-27 -14 -27 -18q0 -3 26 -12q44 -16 77.5 -49t42.5 -70q4 -17 4 -41q0 -49 -17 -80q-16 -28 -43 -55t-51 -38q-38 -17 -85 -22.5t-184 -6.5q-44 -1 -101 -1q-72 0 -72 9q0 7 39 16t49 19
q4 4 5 5.5t3 15.5t2 42v84v181q-1 233 -9 239q-6 6 -57 10q-47 4 -47 10q0 7 12 9.5t59 6.5z" />
    <glyph glyph-name="C" unicode="C" horiz-adv-x="989" 
d="M863 765h-19q-32 0 -38 3q-9 6 -17 1q-6 -4 -267 -4h-101l-360 1l1 -104q1 -23 1 -58q0 -47 -4 -50q-5 -4 -1 -12q5 -8 5 -338v-168v-174l1 -13l82 -1q45 -1 91 -1q1 0 21.5 0.5t50.5 0.5h55q78 0 84 -2q9 -5 12 0q2 3 75 3q132 0 140 -5q5 -4 13 2q5 4 70 4h45l108 -1
v415q2 417 5 421q4 6 -1 13q-4 6 -4 37v31zM43 -200v1000h902v-1000h-902zM396 663q25 6 75 6q26 0 41 -1q85 -2 121 -15q40 -14 49 -25.5t10 -52.5v-17q0 -33 -8 -33q-9 0 -23 27q-34 60 -93 82q-33 13 -83 13q-46 0 -76 -12q-48 -19 -88 -60.5t-60 -93.5q-26 -72 -26 -149
q0 -5 0.5 -15.5t0.5 -16.5q4 -105 41 -172q28 -51 81 -80.5t115 -29.5q19 0 37 3q61 9 100 32t68 68q21 33 28 33q3 0 3 -7q0 -13 -11 -55q-15 -56 -18 -65q-14 -28 -181 -28q-84 0 -112.5 6t-88.5 35q-79 38 -121 110.5t-42 171.5q0 89 30 148q38 76 99 126.5t132 66.5z
" />
    <glyph glyph-name="D" unicode="D" horiz-adv-x="989" 
d="M861 769h-9q-22 0 -30 4q-10 6 -17 1q-8 -4 -358 -4h-110h-98.5t-76.5 -0.5t-54 -0.5h-21q-4 0 -5 -1t-2.5 -4.5t-2 -11t-0.5 -21.5q0 -39 1 -71v-46q0 -66 -4 -70q-6 -6 -1 -10q5 -3 5 -345q0 -343 3 -347q2 -3 67 -5q17 0 36.5 -0.5t26.5 -0.5q10 0 24.5 0.5t41 1
t56.5 0.5h27q70 0 76 -4t13 1q5 3 86 3q122 0 130 -5q5 -4 12 3q6 3 68 3h46h35q71 0 73 5q0 91 2 464t5 379q3 8 -2 11q-3 3 -3 27v10q0 4 0.5 11t0.5 9q0 9 -3.5 12t-15.5 3q-3 0 -10 -0.5t-12 -0.5zM43 -200v1000h902v-1000h-902zM491 635q-49 13 -119 13q-68 0 -81 -13
q-5 -5 -5 -255q0 -202 4 -243q3 -38 19 -56q32 -37 101 -41q3 0 9.5 -0.5t9.5 -0.5q83 0 156 44t108 116q28 59 28 130q0 20 -1 31q-7 123 -88 200q-56 52 -141 75zM105 676q5 3 36 3q11 0 57 -2q71 -3 101 -3q96 2 120 2q94 0 138.5 -9t99.5 -37q50 -25 94 -79.5t61 -113.5
q13 -43 13 -92q0 -66 -24.5 -129t-69.5 -108q-32 -32 -60.5 -47.5t-82.5 -30.5l-50 -14l-224 -1h-123.5t-65.5 1.5t-30 3t-5 4.5q0 9 30 14q39 10 47 13q22 7 26.5 50.5t5.5 262.5q0 31 0.5 76t0.5 60q0 30 -1 49t-0.5 35t-3.5 25.5t-4 15.5t-7.5 10.5t-8.5 5.5t-14 4.5
t-16 4.5q-44 13 -44 20q0 3 4 6z" />
    <glyph glyph-name="E" unicode="E" horiz-adv-x="989" 
d="M605 786q-53 1 -187.5 4t-155.5 3l-178 3l-1 -26v-132v-33q0 -73 -4 -77q-5 -3 0 -12q4 -7 4 -347v-74q0 -264 4 -268q6 -6 111 -6h13q82 2 116 2q87 0 93 -4t13 1q4 3 87 3q122 0 130 -5q4 -3 11 2q6 4 81 4h34l109 -1l3 23q4 22 0 24q-3 2 -3 267q0 576 5 586
q3 8 -2 12q-6 4 -3 9q4 6 0 22l-3 16h-56q-15 0 -94.5 1.5t-126.5 2.5zM43 -200v1000h902v-1000h-902zM158 672q2 5 152 5h125q273 -2 276 -5q2 -4 2 -31q0 -105 -7 -105q-3 0 -15.5 26.5t-29 55t-26.5 32.5q-13 5 -106 5q-167 0 -176 -9q-7 -7 -7 -135v-128h126h15
q44 0 62.5 0.5t36.5 3t22 7.5t7 14t5 23v4q6 49 21 49q8 0 9 -111q1 -61 1 -121q2 -9 -7 -9q-7 0 -18 36q-21 68 -43 73q-13 4 -47 4q-49 0 -96 -1l-97 -1l2 -139q2 -100 3 -121.5t7 -27.5q9 -9 107 -11h29q73 0 115 4q57 6 82.5 24.5t54.5 75.5q24 46 35 46q2 0 4 -2
t-5 -30q-8 -26 -12 -65q-5 -56 -9 -63t-36 -9q-22 -2 -300 -4q-69 -1 -158 -1q-105 0 -105 8t21.5 10.5t46.5 6t31 14.5q5 10 5 152q0 82 -1 136q-2 188 -3.5 233.5t-7.5 51.5q-9 9 -48 12q-44 4 -44 12q0 3 1 5z" />
    <glyph glyph-name="F" unicode="F" horiz-adv-x="989" 
d="M43 665v135h902v-1000h-902v363q0 108 0.5 190t2 126.5t2.5 43.5q4 -3 4 -345t4 -346q6 -6 159 -6h25q26 1 92 1q114 0 119 -3q7 -5 13 0q4 3 67 3h43q49 -1 91 -1q9 0 44.5 0.5t94.5 0.5q110 2 110 4q1 1 2.5 432.5t4.5 438.5q3 8 -1 11q-3 3 -3 28v10q1 8 1 19
q0 14 -11 15q-110 4 -120 4h-82q-643 0 -650 -7q-3 -3 -3 -77v-47v-36q0 -89 -4 -89q-5 0 -5 132zM600 708q15 3 47 3q33 0 37 -3q5 -3 10 -73l3 -69l-12 2q-7 1 -11 8t-10 32q-10 38 -22 50.5t-47 17.5q-28 4 -74 4q-54 0 -109 -4t-62 -8q-6 -4 -7 -21.5t-3 -93.5
q0 -13 -0.5 -36.5t-0.5 -33.5q0 -46 2 -58l4 -20l102 2q104 3 117 10q30 14 37 72q3 26 12 26q8 0 12 -48q3 -39 3 -111q0 -64 -7 -64t-18 35l-3 9q-10 33 -20 40q-12 7 -78 8h-19q-11 0 -32 0.5t-30 0.5q-41 0 -55 -2l-22 -3v-140q0 -139 5 -143q5 -2 43 -10q58 -11 58 -28
v-1l-1 -2q-3 -5 -12 -5q-2 0 -22 2q-27 3 -69 3q-58 0 -115 -4q-36 -3 -49 -3q-15 0 -15 6q0 8 35 15q34 7 38 9q15 10 18 74q1 24 2 220v90q0 189 -5 194t-45 16q-40 10 -40 18q0 9 210 12q212 4 220 5z" />
    <glyph glyph-name="G" unicode="G" horiz-adv-x="989" 
d="M898 780q-20 1 -57 1q-35 0 -38 -2q-5 -3 -277 -3h-217q-217 0 -222 -2q-10 -4 -10 -49q0 -36 1 -64v-44q0 -65 -4 -68q-5 -3 0 -12q4 -7 4 -347v-98q0 -241 3 -244q7 -7 137 -7h14q104 2 128 2q73 0 81 -4q6 -4 13 1q4 4 94 4q114 0 122 -5q5 -3 12 2q5 5 64 5
q32 0 51 -1l109 -2v423q0 425 4 432q6 9 0 15q-4 6 -4 28v9v10q0 19 -8 20zM43 -200v1000h902v-1000h-902zM426 696q32 4 72 4q92 0 172 -26q44 -15 52 -27t12 -68q1 -11 1 -28q0 -27 -6 -27t-23 32t-45.5 61t-56.5 42q-35 16 -97 16q-99 0 -155 -33q-63 -38 -103 -105
t-44 -146q0 -4 -0.5 -12.5t-0.5 -12.5q0 -136 98 -234q83 -83 183 -83q16 0 24 1q87 6 120 40q20 20 23 49q2 18 2 37q0 86 -10 106q-5 10 -35.5 15.5t-58.5 10t-28 10.5q0 5 24 6t133 3q26 0 59 0.5t42 0.5q20 0 31 -0.5t16.5 -1.5t7 -2.5t1.5 -4.5q0 -16 -46 -16
q-38 0 -44.5 -14t-8.5 -97q-1 -36 -1 -48.5t-3.5 -31.5t-5.5 -23t-12.5 -13t-18 -11.5l-28.5 -9.5q-76 -29 -184 -29h-16q-70 0 -105.5 7.5t-85.5 31.5q-61 30 -105.5 86.5t-61.5 125.5q-8 34 -8 67q0 64 23.5 128t64.5 109q91 98 236 115z" />
    <glyph glyph-name="H" unicode="H" horiz-adv-x="989" 
d="M325 785q-220 2 -241 5l-24 3l-2 -24q-2 -20 -2 -81v-44q1 -18 1 -48q0 -56 -4 -58q-5 -3 0 -12q5 -8 5 -349q0 -342 2 -344q2 -4 12 -2h176q102 2 126 2q74 0 82 -4q6 -4 13 1q4 3 87 3q122 0 130 -5q4 -2 11 3q6 4 81 4h34l109 -1l3 19q4 20 0 22q-2 1 -2 277
q0 564 4 576q3 6 -1.5 12t-2.5 11q3 7 0 19l-3 12l-188 1q-53 1 -200 1.5t-206 0.5zM43 -200v1000h902v-1000h-902zM197 698q116 2 130 3h15q27 0 27 -7q0 -6 -9 -9t-39 -7q-26 -3 -38 -15q-9 -9 -10.5 -26.5t-1.5 -110.5q0 -124 7 -130t180 -6q172 0 178 6q8 8 8 166
q0 84 -4 93t-9.5 12t-25.5 6q-27 3 -35.5 6t-8.5 10t121 8q14 0 39 0.5t35 0.5q48 0 50 -2t2 -4q0 -5 -13.5 -11t-31.5 -8q-32 -4 -37 -13q-3 -8 -3 -165v-119v-49q2 -207 8 -229q6 -13 20 -15l3 -1q28 -5 47 -13t19 -14q0 -9 -27 -5q-63 7 -110 7q-31 0 -62 -3
q-12 -2 -28.5 -3.5t-26 -2.5t-11.5 -2q-9 -3 -9 8q0 17 48 23q27 5 38 16l12 12l-1 129l-2 128l-181 -2q-181 -2 -186 -7q-6 -5 -6 -124q0 -143 7 -150q6 -6 43 -17q34 -9 34 -17q0 -3 -12 -3h-7q-254 0 -254 7q0 10 49 18q27 5 38.5 11t15.5 19q5 16 7 290q1 69 1 160
q0 114 -7 118q-7 5 -40 9q-21 2 -27 4.5t-6 8.5q0 7 12 8t75 3z" />
    <glyph glyph-name="I" unicode="I" horiz-adv-x="994" 
d="M556 781q-385 4 -426 5h-31q-40 0 -42 -7l-1 -5v-14v-18t0.5 -36t0.5 -43q1 -20 1 -51q0 -56 -5 -63q-6 -6 0 -10q5 -3 5 -346q0 -342 3 -345q7 -7 166 -7h15q108 2 132 2q73 0 79 -3q8 -5 12 1q1 3 75 3q132 0 140 -5q7 -4 13 2q7 5 77 5h34h58q48 0 54 8q7 10 3 16
q-3 3 -3 446q0 239 2 409q0 46 -5 51q-1 1 -357 5zM43 -200v1000h907v-1000h-907zM313 706q0 6 157 6t157 -6q-3 -6 -42 -13q-40 -6 -50.5 -10.5t-13.5 -16.5q-3 -9 -3 -173v-103q1 -235 6 -261q4 -25 20 -30q1 0 18 -3q25 -5 43 -7q15 -2 17 -10v-1q0 -11 -83 -11
q-11 0 -43 0.5t-54 0.5q-130 2 -130 9q0 9 62 16q32 4 42 10t12 25q6 38 6 195q0 87 -1 142v24q-1 158 -8 179q-6 17 -28 19q-2 1 -8 1q-5 1 -8 1q-68 8 -68 17z" />
    <glyph glyph-name="J" unicode="J" horiz-adv-x="994" 
d="M43 790q0 7 58.5 8.5t394.5 1.5h454v-23l-444 -1q-54 0 -145.5 -0.5t-126.5 -0.5q-176 0 -182 2q-9 4 -9 13zM395 715q0 5 21 6t109 1q89 0 108.5 -1t19.5 -6q0 -10 -17 -12q-52 -5 -57 -24q-2 -8 -2 -120q0 -23 0.5 -81.5t0.5 -92.5q0 -39 0.5 -93t0.5 -70
q0 -120 -12 -173q-19 -90 -65.5 -153t-101.5 -75q-25 -6 -48 -6q-33 0 -52.5 11.5t-19.5 31.5q0 10 4 19q9 22 30 22q23 0 50 -24q22 -18 44 -18q27 0 49.5 28t34.5 79q10 40 10 181q0 36 -4 282q-5 256 -13 264q-7 7 -29.5 9t-41.5 4.5t-19 10.5zM60 -198l-14 1l7 1l8 -1z
M89 -198q-12 1 0 2h19l25 -2h-3q-3 0 -9.5 -0.5t-10.5 -0.5t-11 0.5t-10 0.5zM157 -197q0 2 3 2q2 0 2 -2q0 -3 -2 -3q-3 0 -3 3zM171 -198q2 2 7 2q7 0 7 -1l-13 -1h-1zM204 -197q0 2 2 2q3 0 3 -2q0 -3 -3 -3q-2 0 -2 3zM223 -198q-3 -3 -7 0t3 3q4 -1 4 -3zM239 -198
q2 2 6 2q8 0 8 -1q-3 -3 -14 -1zM311 -198q-4 -4 -11 1q1 1 4 2q6 -1 7 -3zM342 -198q-12 1 1 2h19l25 -2h-3q-3 0 -10 -0.5t-11 -0.5t-11 0.5t-10 0.5zM485 -198l-17 1l8 1q9 -1 9 -2zM513 -198q2 2 7 2q7 0 7 -1l-13 -1h-1zM539 -198q2 2 7 2q7 0 7 -1l-13 -1h-1z
M570 -198q2 2 7 2q7 0 7 -1l-13 -1h-1zM611 -198q-2 -2 -5 -1q-6 2 -2 3q2 1 4 1q6 0 3 -3zM628 -197q0 2 3 2t3 -2q0 -3 -3 -3t-3 3zM680 -197q0 2 3 2q2 0 2 -2q0 -3 -2 -3q-3 0 -3 3zM691 -197q0 2 2 2q3 0 3 -2q0 -3 -3 -3q-2 0 -2 3zM706 -197q0 2 3 2q2 0 2 -2
q0 -3 -2 -3q-3 0 -3 3zM751 -198q-8 1 0 1q7 1 20 1l21 -1q-1 -1 -4 -1q-2 0 -8.5 -0.5t-10.5 -0.5t-10 0.5t-8 0.5zM832 -198l-17 2h8q9 -1 9 -2zM855 -198q-4 -4 -11 1q1 1 4 2q6 -1 7 -3zM889 -198l-17 2h8q9 -1 9 -2zM917 -198q-4 -4 -11 1q1 1 4 2q6 -1 7 -3zM934 -197
q0 2 3 2q2 0 2 -2q0 -3 -2 -3q-3 0 -3 3z" />
    <glyph glyph-name="K" unicode="K" horiz-adv-x="989" 
d="M847 774h-9q-24 0 -30 4q-8 6 -14 1q-5 -3 -259 -3h-104q-358 0 -361 -3q-4 -4 -2 -21q4 -71 4 -154q0 -58 -3 -60q-6 -4 -1 -12t5 -347q0 -338 3 -341q7 -7 148 -7h13q82 2 116 2q87 0 93 -4t13 1q5 3 87 3q122 0 130 -5q4 -3 12 3q4 4 54 4q7 0 27 -0.5t33 -0.5
q10 0 26.5 -0.5t22.5 -0.5q62 0 62 7q0 2 -3 3q-4 4 -4 424q0 418 4 430q3 9 0 11q-4 4 -4 34v15q0 11 -4.5 14.5t-20.5 3.5q-3 0 -14.5 -0.5t-19.5 -0.5zM43 -200v1000h902v-1000h-902zM588 683q7 5 155 5q49 0 89 -2q4 0 4 -8q0 -6 -7 -8t-46 -10q-61 -12 -226 -149
q-25 -21 -54 -45t-46 -38t-20 -16l-13 -10l15 -17q17 -17 149.5 -128.5t143.5 -121.5q68 -59 121 -73q40 -9 40 -19q0 -1 -1 -2q-1 -2 -154 -4h-66q-85 0 -85 5q0 13 56 23q34 6 34 11q0 7 -130 116.5t-181 146.5q-33 24 -33 26t53 39q46 32 133.5 102.5t124.5 105.5
q29 28 29 33q0 4 -5 7q-9 7 -45 11q-40 4 -40 13q0 2 5 7zM228 682q123 3 130 3h17q31 0 31 -7t-19 -10q-58 -10 -68 -29q-7 -13 -7 -93q0 -71 5.5 -258.5t8.5 -200.5q4 -22 55 -30q25 -4 25 -13q0 -6 -19 -7t-113 -2q-132 0 -132 6q0 10 37 16q32 6 44 12.5t15 19.5
q1 4 1 67q0 343 -8 443q-4 45 -9 50q-7 7 -39 10q-35 4 -35 15q0 6 80 8z" />
    <glyph glyph-name="L" unicode="L" horiz-adv-x="989" 
d="M907 772q-5 2 -45.5 3t-45.5 4q-9 6 -17 0q-5 -3 -263 -3h-105l-361 1l3 -108q1 -19 1 -50q0 -57 -5 -60t-1 -12q5 -8 5 -347t3 -342q6 -6 145 -6h16q82 2 115 2q88 0 94 -4t13 1q5 3 87 3q122 0 130 -5q4 -3 11 2q6 4 81 4h34l109 -1v415q2 415 5 423t-1 11
q-2 2 -3.5 34.5t-4.5 34.5zM43 -200v1000h902v-1000h-902zM215 683q0 1 -1 3v1q0 5 10 5q1 0 21 -2q36 -4 157 -4q122 0 122 -7t-9.5 -9.5t-43.5 -4.5q-52 -4 -58 -10q-5 -4 -6 -51.5t-1 -244.5v-291q40 0 121.5 2t121.5 2l30 21q52 37 80 97q11 25 21 25q4 0 4 -9
q0 -5 -10 -61q-9 -53 -13 -76l-3 -23h-280h-86q-190 0 -190 7q0 4 36 10q57 10 64.5 14t10.5 24q4 24 4 256q0 292 -5 295q-6 4 -50 13q-46 9 -47 18z" />
    <glyph glyph-name="M" unicode="M" horiz-adv-x="989" 
d="M195 655q-3 3 -49.5 10t-62.5 7l-4 -1l-1 -2v-5.5v-7.5t0.5 -13.5t0.5 -15.5v-12q0 -28 -5 -35q-6 -6 0 -10q4 -4 4 -175v-77q0 -250 2 -251q1 -1 6 -1q14 0 42.5 6.5t31.5 10.5q5 5 9 35q5 41 15.5 259.5t10.5 268.5v9zM43 -200v1000h902v-30l-64 2q-35 1 -71 1
q-724 -2 -729 -5q-1 -1 -3 -36l-1 -33l29 -4q15 -3 54 -3q26 0 39 1q12 1 32 1q35 0 42 -5t118.5 -250.5t112.5 -246.5t3 2t5 8.5t7 13t8.5 17t9.5 19.5q23 51 81.5 192t80.5 203l16 42l96 1h52q31 0 38 -1.5t7 -7.5q0 -8 -10.5 -11.5t-47.5 -7.5q-36 -3 -47 -13l-11 -9
l2 -271q2 -273 6 -280t29 -15.5t54 -12.5q25 -4 25 -12q0 -7 -78 -7h-68q-146 1 -148 9q-1 4 3.5 7t14.5 4q65 11 74 28q4 7 4 157v101l-1 247l-13 -26q-43 -90 -168 -406q-50 -124 -52 -124l-3 3q-6 6 -38 93q-71 188 -162 375l-50 101l-4 -23q-4 -29 -8.5 -150.5
t-4.5 -212.5q0 -49 2 -77q5 -57 15 -68t59 -15q31 -2 40.5 -4.5t9.5 -9.5q0 -6 -66 -6h-57h-36q-88 0 -91 -3t-3 -95v-56v-16l105 -1q41 -1 99 -1h16q112 2 131 2q70 0 78 -4q6 -4 13 1q5 3 74 3q135 0 143 -6q4 -3 12 3q7 5 113 5q61 0 73 -3q9 -3 9 -38v-36h-902z" />
    <glyph glyph-name="N" unicode="N" horiz-adv-x="989" 
d="M43 667v133h346q338 0 338 -5q0 -4 -246 -4h-93l-332 1l-3 -18q-2 -12 -2 -56q0 -10 0.5 -33t0.5 -36v-38q0 -73 -3 -73q-6 0 -6 129zM742 795l-1 1q0 4 78 4q82 0 82 -5t-77 -5q-74 0 -82 5zM912 455q0 6 1 35.5t1 34.5v6q0 6 -0.5 15.5t-0.5 22v27.5t-0.5 29.5t-0.5 29
v26.5q0 38 1 39q3 3 3 27q0 13 -2 19q-1 1 -3 19q-1 10 1.5 12.5t14.5 2.5h18v-1000h-902v367q0 359 5 359q4 0 4 -346q0 -339 3 -342q2 -2 83 -4.5t129 -2.5h14q68 2 112 2q91 0 97 -3q7 -4 11 1q1 3 64 3q142 0 152 -6q4 -2 11 3q4 3 53 3h34h37q48 0 52 1q7 2 7 54v42v28
q0 69 3 72q2 2 2 21q0 21 -1 33q-3 33 -3 117v31q1 38 1 90v13q0 1 -0.5 9.5t-0.5 22v25.5v62zM154 681q13 1 31.5 1.5t29 1.5t13.5 1h1q14 0 100 -98q11 -12 72 -79.5t82 -90.5q105 -113 158 -173l94 -104l1 88v29q0 82 -5 214t-9 153q-2 11 -6.5 15t-17.5 9q-22 6 -44 6
q-40 2 -40 17q0 3 3 6q7 7 105 7q113 0 113 -8q0 -6 -32 -13q-30 -5 -39.5 -16t-9.5 -41q0 -18 1 -29q12 -211 12 -480v-25q-2 -40 -3.5 -49t-7.5 -10h-1q-20 0 -159 154q-18 19 -75.5 82.5t-83.5 91.5q-81 88 -145 160q-54 61 -58 61t-4 -100q0 -112 4.5 -250.5t8.5 -142.5
t49 -10q44 -6 55 -9t11 -10q0 -9 -4.5 -12t-18.5 -3q-5 0 -23.5 0.5t-50.5 1t-55 0.5q-106 1 -106 8q0 6 8.5 9.5t39.5 8.5q34 6 42 13t12 32q2 12 2 98q0 112 -3.5 260.5t-6.5 158.5q-5 14 -20 21q-16 8 -65 16q-13 2 -16.5 5t-1.5 10q1 8 9.5 10t53.5 4z" />
    <glyph glyph-name="O" unicode="O" horiz-adv-x="989" 
d="M902 775h-9q-5 0 -22 -0.5t-25 -0.5q-22 0 -29 4q-11 6 -18 1q-5 -3 -263 -3h-105l-361 1l3 -108v-44q0 -63 -4 -66q-6 -4 -1 -12t5 -347v-98q0 -241 3 -244q6 -6 149 -6h17q90 2 120 2q83 0 89 -4t13 1q4 3 87 3q122 0 130 -5q5 -3 12 2q4 4 70 4h45l108 -1l1 415
q2 418 4 423q3 8 -1 11q-3 3 -3 27v10l1 34zM43 -200v1000h902v-1000h-902zM527 673q-32 7 -57 7t-54 -7q-74 -16 -121 -65.5t-72 -137.5q-12 -41 -12 -96q0 -62 13 -105q29 -103 94 -159t154 -56q38 0 77 10q71 18 111 61t62 124q13 49 13 120q0 69 -12 111
q-47 162 -196 193zM375 685q42 11 109 11q51 0 89 -8q39 -9 80 -28q52 -25 95.5 -72.5t60.5 -99.5q20 -58 20 -121q0 -103 -46 -174q-17 -28 -56.5 -63t-71.5 -52q-79 -41 -185 -41q-64 0 -107 11q-98 27 -162 99t-80 173q-4 23 -4 51q0 89 52 172q65 105 206 142z" />
    <glyph glyph-name="P" unicode="P" horiz-adv-x="989" 
d="M43 -200v1000h377q369 0 369 -5q0 -3 -285 -5q-431 -1 -439 -8q-3 -3 -3 -87v-35v-50q0 -69 -3 -72q-6 -4 -1 -12t5 -347t3 -342q6 -6 169 -6h18q88 2 119 2q84 0 90 -4q6 -5 15 3q7 7 65 7h43q100 -2 106 -5q5 -3 12 2q5 4 68 4h46q32 -1 70 -1t42 8q6 10 2 12
q-4 4 -4 423q0 418 4 430q4 9 0 12q-4 4 -4 34q0 4 0.5 9.5t0.5 7.5q0 10 -5.5 13t-25.5 3q-4 0 -16.5 -0.5t-21.5 -0.5q-47 0 -54 5l-1 1q0 4 67 4h74v-1000h-902zM470 686q53 4 79 4q24 0 56 -4q60 -7 96.5 -30t59.5 -67q22 -43 22 -89q0 -77 -57 -136
q-28 -28 -57.5 -40.5t-75.5 -14.5q-6 0 -15 -0.5t-12 -0.5q-24 0 -51 14q-30 15 -30 19q0 6 54 6q39 0 51.5 2t28.5 12q72 43 72 135q0 53 -30 95.5t-77 56.5q-35 10 -98 10q-28 0 -40 -4q-9 -4 -9 -60v-33q0 -33 7 -292l6 -202l48 -11q48 -11 54 -17q3 -3 3 -5
q0 -10 -21 -10q-2 0 -5 0.5t-4 0.5q-47 6 -77 6q-21 0 -24 -3q-2 -5 -78 -5q-75 0 -75 7q0 8 35 14q6 1 17 2t13.5 1.5t9 4.5t7.5 9t3 16.5t2.5 27t0.5 39.5q0 14 -2 194q0 26 -1 71q-2 183 -10 211q-6 21 -27 26l-12 3l-14 3q-43 10 -43 20q0 6 12.5 7t72.5 2q93 2 135 5z
" />
    <glyph glyph-name="Q" unicode="Q" horiz-adv-x="994" 
d="M553 692q-27 12 -83 12q-22 0 -38 -3q-35 -6 -70.5 -25t-57.5 -44q-79 -89 -79 -230q0 -4 0.5 -13t0.5 -14q4 -104 45 -184t105 -109q33 -15 83 -17h14q107 0 166 65q20 23 41 66.5t29 80.5t8 105q0 74 -10 114q-17 67 -60.5 122t-93.5 74zM910 788q-8 3 -605 3
q-235 0 -238 -1q-6 -2 -9 -7q-2 -4 -2 -47q0 -9 0.5 -31.5t0.5 -35.5v-45q0 -66 -4 -70q-6 -6 0 -10q5 -3 5 -346q0 -342 3 -345q6 -6 160 -6h19q96 2 124 2q81 0 87 -4q7 -5 13 0q6 4 105 4q72 0 114 -3q8 0 21 5q10 3 10 5t-23 9q-52 17 -119.5 59.5t-112.5 87.5
q-30 29 -61 36q-90 19 -159 79.5t-98 142.5q-17 48 -17 102q0 59 22 122q57 161 221 216q43 14 114 14h11q59 0 94.5 -10t78.5 -37q75 -49 115 -125t40 -161q0 -147 -108 -254q-70 -69 -148 -84q-29 -5 -29 -10t40.5 -38t68.5 -52q55 -36 153 -73q47 -19 50 -25q4 -6 38 -6
h9q29 0 29 6q0 1 -3 4q-4 2 -4 395q0 449 5 457q3 6 -2 13q-3 4 -3 23v11q0 2 0.5 6t0.5 5q0 15 -7 19zM43 -200v1000h907v-1000h-907z" />
    <glyph glyph-name="R" unicode="R" horiz-adv-x="989" 
d="M43 -200v1000l25 -1h6l11 -2l-2 -1q-9 -3 -10 -28q0 -8 -0.5 -71t-0.5 -112q0 -759 4 -763q1 -1 64 -3.5t98 -2.5h16q16 1 75 1q132 0 136 -4q6 -4 13 1q6 4 60 4q31 0 49 -1q58 -1 100 -1q11 0 45.5 0.5t83.5 1.5h111l1 443q2 447 4 452q3 8 -1 11q-3 3 -3 25v9v11
q0 22 -8 26q-6 4 0 4q2 0 8 1h1h16v-1000h-902zM108 796q-4 -4 -7 0q1 3 4 4q7 0 3 -4zM124 796q-7 1 2 2h10l14 -2h-2q-13 -2 -24 0zM181 796q-12 1 0 2h19l25 -2h-3q-3 0 -9.5 -0.5t-10.5 -0.5t-11 0.5t-10 0.5zM273 797q-3 -3 -9 -1q-2 2 -1 2q1 1 4 1q5 -1 6 -2z
M287 796q3 2 9 3l11 -2l-2 -1q-9 -2 -18 0zM321 797q0 3 3 3t3 -3q0 -2 -3 -2t-3 2zM346 797q-4 -4 -11 0q1 1 4 2q6 0 7 -2zM367 796q-2 1 8 2q12 0 12 -2q-9 -2 -20 0zM413 796q-9 1 0 2h14l19 -2h-2q-15 -2 -31 0zM472 796q1 2 7 3q13 0 9 -3q-7 -2 -16 0zM529 796
q-3 3 6 3q10 -1 10 -3q-7 -2 -16 0zM567 796q-8 1 0 1q7 1 20 1l20 -1q-1 -1 -4 -1q-2 0 -8 -0.5t-10 -0.5t-10 0.5t-8 0.5zM655 796q1 1 9 2q12 0 12 -2q-10 -2 -21 0zM699 796q3 2 9 3l11 -2l-2 -1q-9 -2 -18 0zM743 796q-9 1 0 2h16l20 -2h-2q-2 0 -8 -0.5t-9 -0.5
t-9 0.5t-8 0.5zM831 796q-9 1 0 2h14l19 -2h-2q-15 -2 -31 0zM890 796q-3 3 6 3q10 0 10 -1q1 -3 -12 -2h-4zM533 642q-33 14 -78 17l-46 3v-274h32q163 0 173 118q0 2 0.5 7t0.5 8q0 84 -82 121zM282 687q28 2 101 2q167 0 202 -9q92 -23 116 -106q6 -21 6 -44
q0 -38 -12 -63q-10 -20 -32 -41.5t-47 -35.5q-27 -14 -27 -19q0 -10 63 -117t85 -136q19 -24 36 -35t50 -20q33 -10 33 -14t-44 -8t-86 -4t-47 4q-5 3 -25 40q-19 35 -46.5 82.5t-49.5 87.5q-40 75 -55 92q-9 10 -17.5 12t-36.5 2h-40v-131v-47q0 -70 6.5 -85t39.5 -25
q7 -2 11 -3q38 -11 38 -16q0 -8 -135 -9h-63q-79 0 -82 1q-6 2 -6 4q0 10 45 16q42 8 48 14q5 5 6 46t3 223q0 32 0.5 87t0.5 76q0 106 -2 116q-3 15 -17 22t-49 12t-35 16q0 3 3 6t61 7z" />
    <glyph glyph-name="S" unicode="S" 
d="M851 785h-13q-33 0 -41 4q-10 6 -17 1q-8 -4 -362 -4t-358 -4q-3 -3 -3 -72v-44v-46q0 -67 -4 -70q-5 -3 0 -12q4 -7 4 -345q0 -336 4 -340q7 -7 163 -7h23q76 2 111 2q90 0 96 -4t13 1q4 4 94 4q113 0 121 -5q5 -4 13 2q5 4 68 4h46l108 -2v421v118q0 303 4 311
q5 8 -1 16q-3 4 -3 29v10q0 4 0.5 10.5t0.5 8.5q0 9 -5 11.5t-22 2.5q-4 0 -17 -0.5t-23 -0.5zM43 -200v1000h897v-1000h-897zM382 707q18 4 63 4h18q41 -1 56.5 -3.5t37.5 -13.5q34 -15 38 -26q5 -15 5 -45q0 -69 -11 -69h-1q-6 2 -15 28q-33 95 -123 103q-3 0 -8.5 0.5
t-7.5 0.5q-55 0 -91.5 -30t-36.5 -76q0 -36 31 -63.5t138 -85.5q103 -56 136 -95t33 -106q0 -31 -3 -43.5t-14 -35.5q-44 -91 -140 -109q-28 -5 -58 -5q-110 0 -176 34q-9 5 -11.5 10t-2.5 25v20q2 110 15 110q6 0 13 -26q4 -20 16 -46q10 -21 35.5 -46t49.5 -38
q28 -14 70 -14h11q31 0 60 15q57 29 70 84q4 20 4 25q0 10 -6 30q-10 35 -42 61.5t-128 78.5q-67 36 -102 69q-36 35 -44.5 54.5t-8.5 63.5q0 49 14 73q18 31 49.5 54.5t66.5 32.5z" />
    <glyph glyph-name="T" unicode="T" 
d="M905 785q-9 1 -663 1h-174q-7 -1 -11 -13q-1 -5 -1 -39q0 -123 5 -128q3 -3 3 -22q0 -36 -6 -39t0 -9q5 -7 5 -346q0 -340 3 -343q6 -6 156 -6h19q116 2 134 2q66 0 74 -4q6 -4 13 1q4 4 91 4q111 0 119 -5q5 -3 12 2q5 4 54 4q17 0 56.5 -0.5t57.5 -0.5q53 0 57 5
q5 6 2 9q-4 4 -4 422q0 416 4 428q4 9 -1 12q-3 3 -3 21v13v13q0 16 -2 18zM43 -200v1000h897v-1000h-897zM169 683q20 76 30 76q6 0 16 -16q1 -1 1 -3q10 -16 24 -20q23 -7 218 -8h1h1h1h1h1h1h1h1h1h1h1h1h1h1h1h1h1h1h1h1h1h2l235 -1l13 23q13 22 24 24h4q6 0 7 -13.5
t1 -74.5q0 -89 -5 -96q-2 -5 -7 -5q-12 0 -18 31q-13 52 -40 69q-12 9 -101 11l-87 3l1 -275q1 -193 2.5 -234.5t8.5 -46.5q8 -6 58 -18q48 -12 48 -18q0 -7 -127 -7h-38q-94 0 -104 -3q-10 -2 -19 -2t-13 1q-11 2 -13.5 4.5t0.5 8.5q5 9 36 15q67 12 73 40q4 15 4 170
q0 134 -3 239l-3 124h-60q-95 -1 -119 -19q-27 -23 -68 -78q-12 -15 -20 -15q-6 0 -6 11q0 6 1 10t4.5 17.5t8.5 35.5t10 40z" />
    <glyph glyph-name="U" unicode="U" 
d="M43 -200v1000h23l1 -117v-36q0 -81 -4 -87q-5 -6 0 -9q3 -2 5 -332v-344l1 -16l71 -1h83h6.5t14.5 -0.5t18 -0.5q10 0 35 0.5t40 0.5h29q74 0 78 -3q6 -4 13 1q4 3 50 3q36 0 59 -1q59 -1 101 -1q11 0 45.5 0.5t83.5 1.5h110l1 426q2 428 4 433q3 9 0 11q-4 3 -4 27
q0 21 1 35q2 9 16 9h16v-1000h-897zM593 709q2 1 17 1q20 0 30 -1q42 -2 97 -2q59 0 59 -8q0 -7 -14 -10q-43 -9 -54.5 -15t-15.5 -21q-1 -2 -1 -33q0 -25 2 -127q2 -90 2 -119q0 -143 -17 -196q-32 -91 -148 -122q-28 -8 -91 -8q-49 0 -72 5q-50 11 -93.5 41t-59.5 65
q-20 43 -20 283v67v68q0 90 -6 96q-6 8 -41 8q-46 0 -46 13q0 3 1 5q2 5 25 6.5t112 1.5q99 0 117 -1.5t18 -8.5t-5 -8.5t-23 -1.5q-53 0 -63 -20q-7 -14 -7 -236q0 -116 4 -180q5 -64 15 -90.5t39 -45.5q50 -34 125 -34h8q101 1 151 50q30 29 39.5 65t11.5 122v42
q0 165 -10 258q-3 33 -12 43q-11 13 -44 23q-38 12 -38 19q0 3 8 6z" />
    <glyph glyph-name="V" unicode="V" 
d="M858 780h-14q-34 0 -42 4q-10 6 -17 1q-6 -4 -284 -4h-77q-354 0 -358 -3t-4 -57q0 -16 0.5 -52t0.5 -53q0 -60 -5 -66q-6 -6 0 -10q5 -3 5 -344q0 -340 3 -343q6 -6 146 -6h22q18 1 78 1q128 0 132 -4q6 -4 13 1q4 3 66 3h43q49 -1 91 -1q9 0 44.5 0.5t94.5 0.5h111
l-1 418q0 419 5 427q4 9 0 16q-5 7 -5 39v33zM43 -200v1000h897v-1000h-897zM115 700q0 7 153 7q150 0 150 -6t-46 -10q-39 -3 -55 -10q-11 -5 -11 -19q0 -26 65 -176q40 -91 98 -231q36 -89 38 -89q3 0 41.5 94t59.5 152q66 185 72 230q1 6 1 14q0 11 -11 19q-12 9 -43 14
q-53 7 -53 14q0 4 126 4q127 0 127 -7q0 -10 -42 -16q-23 -4 -32 -9.5t-16 -18.5q-10 -21 -99.5 -242t-112.5 -284q-29 -79 -38 -85q-2 -1 -4 -1q-8 0 -17 18.5t-29 68.5q-33 83 -123.5 289.5t-103.5 228.5q-10 17 -23 24t-57 17q-15 4 -15 10z" />
    <glyph glyph-name="W" unicode="W" 
d="M106 614q-21 55 -25 55q-3 0 -3 -26v-29v-19q0 -41 -4 -45q-6 -4 -1 -12t5 -345t3 -340q7 -7 148 -7h12q80 2 114 2q88 0 94 -4t13 1q4 3 86 3q122 0 130 -5q4 -2 11 3q4 4 54 4q37 0 61 -1l108 -1v414q0 414 -4 414t-11 -11q-8 -13 -49 -123q-4 -9 -59 -154t-76 -204
q-50 -135 -55 -140q-2 -2 -4 -2h-2l-2 1q-9 1 -36 61q-14 34 -39.5 88t-45.5 94t-22 40q-3 0 -72 -140q-61 -122 -73 -136q-7 -8 -13 -8q-11 0 -36 62q-3 7 -5 11q-27 68 -78 190q-75 180 -124 309zM43 -200v1000h383q383 0 375 -5q-5 -4 -362 -4h-103q-252 0 -255 -3
q-5 -5 -5 -40q0 -15 2 -25q2 -8 12 -9.5t53 -1.5q54 0 70 -3t16 -13q0 -6 -4.5 -7.5t-21.5 -1.5q-29 0 -29 -9t24 -77q24 -63 90 -230.5t82 -201.5l14 -31l20 36q18 31 52.5 106t34.5 82q0 5 -40.5 98.5t-70.5 157.5q-22 47 -32 56.5t-43 14.5q-25 3 -25 10q0 4 57.5 7.5
t113.5 3.5q59 0 62 -4q2 -4 2 -5q0 -9 -33 -13q-33 -3 -33 -17q0 -11 12 -39q68 -168 78 -168q6 0 39.5 86t35.5 99q0 2 0.5 6t0.5 5q0 25 -30 30q-24 5 -24 10q0 3 1 5q3 8 89 8q80 0 90 -7q5 -5 5 -7q0 -9 -37 -18q-28 -8 -43 -19q-25 -21 -77 -151q-5 -13 -14.5 -38
t-12.5 -31l-9 -21l42 -95q50 -115 58 -133q16 -37 18 -37q3 0 59 140q127 323 127 370q0 5 -1 6q-2 5 -31 17t-31 16q0 1 -0.5 1t-0.5 1q0 5 63 5q61 0 61 5q-1 1 -1 2q-4 4 -4 30v9q0 4 0.5 10t0.5 8q0 9 -4.5 12t-18.5 3q-3 0 -14.5 -0.5t-20.5 -0.5h-7q-27 0 -32 5l-1 1
q0 4 59 4h66v-1000h-897z" />
    <glyph glyph-name="X" unicode="X" 
d="M43 -200v1000h375q366 -1 366 -6q0 -3 -50 -3q-17 0 -53 0.5t-48 0.5q-24 0 -26 -2q-4 -4 -270 -4q-268 0 -272 -4q-3 -2 -3 -56q0 -9 0.5 -30t0.5 -33v-28q0 -87 -5 -90t0 -12q5 -8 5 -345q0 -338 3 -341q6 -6 152 -6h18q100 2 125 2q77 0 83 -4t13 1q4 3 86 3
q121 0 129 -5q5 -3 12 2q4 4 62 4h37q11 0 31 -0.5t29 -0.5q38 0 48 2l16 2l-1 424q0 425 5 433q3 8 0 15q-5 7 -5 40v33l-52 -1h-21q-35 0 -35 4q0 5 69 5h73v-1000h-897zM638 717q27 5 82 5q112 0 112 -10q0 -4 -33 -15q-35 -12 -55 -25q-15 -9 -42.5 -37.5t-37.5 -46.5
q-125 -167 -125 -177q0 -11 111 -153.5t122 -150.5q17 -13 50 -16q30 -2 38 -5t8 -10q0 -8 -24 -8q-85 0 -158 -1q-33 -1 -77 -1q-19 0 -30 0.5t-17 1.5t-7.5 2.5t-1.5 4.5q0 9 15 9q19 0 47 6.5t32 12.5q2 2 2 6q0 6 -13 28q-15 24 -68.5 99.5t-69.5 93.5l-15 18l-57 -74
q-54 -71 -71.5 -98.5t-17.5 -43.5q0 -21 12.5 -28.5t62.5 -16.5q23 -4 30 -7t7 -11q0 -5 -13 -5q-2 0 -38 2q-58 4 -152 4h-33q-67 0 -67 6t42 14t60 21q22 16 113 122t101 127q1 2 1 5q0 12 -52 83q-12 16 -50 67.5t-52 70.5q-55 77 -67 87.5t-50 15.5q-45 5 -45 15t47 10
q26 0 71 -3q38 -3 88 -3q32 0 44 1q17 1 42 1q23 0 24 -3q2 -4 2 -5q0 -4 -43 -13q-54 -9 -54 -29q0 -22 82 -133q64 -86 68 -90q2 -2 3 -2q7 0 73 97q73 107 73 129q0 9 -8 17q-6 6 -27 8q-49 2 -52 18q-1 5 2.5 6.5t15.5 2.5q18 0 40 4z" />
    <glyph glyph-name="Y" unicode="Y" horiz-adv-x="989" 
d="M890 788q-8 3 -579 3q-225 0 -228 -1q-8 -3 -10 -6q-2 -4 -2 -47q0 -9 0.5 -31t0.5 -35q1 -24 1 -60q0 -48 -4 -51q-5 -4 -1 -12q5 -8 5 -345q0 -336 4 -340q6 -6 133 -6h16q104 2 127 2q73 0 81 -4q6 -4 13 1q4 4 81 4q122 0 134 -6q5 -3 12 2t77 5h33h43q62 0 64 2
q3 3 5 423q0 417 4 425q4 6 -1 9q-3 3 -3 22v12v10q0 21 -6 24zM43 -200v1000h902v-1000h-902zM627 725q0 6 41 6q36 0 64 -1q107 -1 109 -9q1 -4 -3.5 -6.5t-16.5 -4.5q-13 -2 -23 -9t-28 -27q-88 -95 -185 -239l-43 -63l-3 -48q-1 -12 -1 -44q0 -51 4 -103.5t8 -59.5
q6 -8 55 -14q49 -7 49 -16q0 -3 -2 -4.5t-10.5 -2.5t-25 -1.5t-46.5 -0.5h-70q-155 0 -158 3q-1 1 -1 2q0 5 13.5 10.5t32.5 8.5q33 4 52 12l22 10v106q0 105 -9 123q-14 26 -108 164t-112 157q-17 19 -25 24t-27 7q-29 4 -29 13q0 10 136 10q87 0 115 -2t28 -8q0 -2 -4 -6
q-3 -3 -42 -7q-52 -4 -52 -18q0 -6 45 -74q12 -18 46 -70.5t48 -73.5q49 -76 52 -76q8 0 148 210q41 62 41 79q0 11 -11 16.5t-38 10.5q-36 6 -36 16z" />
    <glyph glyph-name="Z" unicode="Z" horiz-adv-x="989" 
d="M43 -200v1000l25 -1h6l11 -2l-2 -1q-5 -1 -6.5 -3.5t-2.5 -15.5t-1 -43v-73v-44q0 -63 -4 -67q-6 -7 -1 -10t5 -344v-99q0 -241 3 -244t189 -4.5t189 -3.5q6 -4 9 1q3 3 84 3q121 0 129 -5q6 -3 13 2t78 5h32q15 0 40.5 -0.5t33.5 -0.5h16h13l4 1q6 1 6 425v119
q0 306 4 314q3 8 0 15q-4 6 -4 37q0 22 -2.5 27t-13.5 7q-9 3 -1 3q3 0 18 1l32 1v-1000h-902zM108 796q-4 -4 -7 0q1 3 4 4q7 0 3 -4zM124 796q-7 1 2 2h10l14 -2h-2q-13 -2 -24 0zM181 796q-12 1 0 2h19l25 -2h-3q-3 0 -9.5 -0.5t-10.5 -0.5t-11 0.5t-10 0.5zM273 797
q-3 -3 -9 -1q-2 2 -1 2q1 1 4 1q5 -1 6 -2zM287 796q3 2 9 3l11 -2l-2 -1q-9 -2 -18 0zM321 797q0 3 3 3t3 -3q0 -2 -3 -2t-3 2zM346 797q-4 -4 -11 0q1 1 4 2q6 0 7 -2zM367 796q-2 1 8 2q12 0 12 -2q-9 -2 -20 0zM413 796q-9 1 0 2h14l19 -2h-2q-15 -2 -31 0zM472 796
q1 2 7 3q13 0 9 -3q-7 -2 -16 0zM529 796q-3 3 6 3q10 -1 10 -3q-7 -2 -16 0zM567 796q-8 1 0 1q7 1 20 1l20 -1q-1 -1 -4 -1q-2 0 -8 -0.5t-10 -0.5t-10 0.5t-8 0.5zM655 796q1 1 9 2q12 0 12 -2q-10 -2 -21 0zM699 796q3 2 9 3l11 -2l-2 -1q-9 -2 -18 0zM743 796q-9 1 0 2
h16l20 -2h-2q-2 0 -8 -0.5t-9 -0.5t-9 0.5t-8 0.5zM825 796q-9 1 2 2h15l20 -1q-1 -1 -3 -1t-8 -0.5t-9 -0.5t-9 0.5t-8 0.5zM240 696q11 27 19 27q6 0 6 -18q0 -13 3.5 -18t21.5 -8.5t59 -3.5q63 0 232 6q81 3 121 3q41 0 44 -3q2 -2 2 -3q0 -8 -128 -176
q-208 -274 -262 -347.5t-54 -80.5q0 -5 99 -5h68q136 2 172.5 8t60.5 29q28 27 45 88q9 33 14 33q7 0 7 -88q0 -64 -1.5 -78t-9.5 -16t-162 -2h-109h-110q-156 0 -174 -2q-22 -5 -22 4t20 33q44 54 237 313t193 266q0 1 -25 1q-52 0 -150 -4.5t-127 -8.5q-37 -6 -53 -16
q-26 -15 -70 -82q-8 -11 -10 -11t-2 5q0 11 16 64q27 86 29 91z" />
    <glyph glyph-name="bracketleft" unicode="[" 
d="M43 -200v1000h373q364 0 364 -5t-74 -5h-19h-21q-77 0 -146.5 -4.5t-74.5 -9.5q-6 -6 -6 -394q0 -423 6 -429t63 -9q42 -2 50.5 -4t9.5 -10l1 -11h-196l-1 35q0 214 1 435v401h-17q-18 1 -85 1q-208 0 -212 -4q-2 -2 -2 -72v-49v-48q0 -70 -4 -73q-5 -3 0 -13
q4 -7 4 -344t4 -341q3 -3 200 -3q200 -2 203 -4q5 -4 9 0q3 4 85 4q121 0 129 -5q5 -4 13 2q5 4 56 4h90q68 0 75 6q9 7 4 13q-3 5 -3 303q0 534 5 546q3 8 -2 12q-3 3 -3 21v13q0 5 0.5 11t0.5 7q0 9 -5.5 11.5t-24.5 2.5q-4 0 -20 -0.5t-27 -0.5h-11q-42 0 -42 5t72 5h75
v-1000h-897z" />
    <glyph glyph-name="backslash" unicode="\" 
d="M43 -200v1000l30 -1h9l13 -2l-1 -1q-9 -2 -11 -10q-1 -2 -1 -29q0 -53 1 -87q1 -24 1 -60q0 -47 -4 -50q-6 -3 -1 -12q4 -8 4 -345t3 -340q2 -2 193 -4q189 0 195 -4t9 1q4 4 98 4q108 0 116 -5q8 -4 14 2q5 4 67 4h47l107 -2v416q0 416 -3 419q-4 4 1 14q5 8 1 16
q-2 3 -4 35q0 27 -4 35q-5 6 6 6h11v-1000h-897zM110 797q0 3 3 3q2 0 2 -3q0 -2 -2 -2q-3 0 -3 2zM135 796q1 1 9 2q11 0 11 -2q-9 -2 -20 0zM191 796q-12 1 1 2h19l25 -2h-3q-3 0 -10 -0.5t-11 -0.5t-11 0.5t-10 0.5zM284 797q-4 -4 -11 0q1 1 4 2q6 0 7 -2zM297 796
q3 2 9 3l11 -2l-2 -1q-9 -2 -18 0zM356 797q-4 -4 -11 0q1 1 4 2q6 0 7 -2zM377 796q1 1 9 2q12 0 12 -2q-10 -2 -21 0zM423 796q-9 1 0 2h14l19 -2h-2q-15 -2 -31 0zM483 796q-3 3 6 3q10 0 10 -1q1 -3 -12 -2h-4zM539 796q1 2 7 3q14 0 9 -3q-7 -2 -16 0zM578 796
q-8 1 0 2h19l21 -1q-1 -1 -4 -1q-2 0 -8 -0.5t-10 -0.5t-10 0.5t-8 0.5zM663 796q0 1 11 2l17 -2h-2q-12 -2 -26 0zM728 796q4 0 12.5 -0.5t13.5 -0.5t13.5 0.5t11.5 0.5l5 1q0 1 -32 1q-31 0 -31 -1q2 -1 7 -1zM836 796q-9 1 0 2h14l19 -2h-2q-15 -2 -31 0zM895 796
q-3 3 6 3q10 -1 10 -3q-7 -2 -16 0zM287 773q-1 2 0 3t5 2t9 1h14h30l29 -70q1 -3 31.5 -76.5t69 -167.5t73.5 -180q32 -79 71 -174t57.5 -140t19.5 -46q1 -2 0 -3t-4.5 -2t-9 -1h-14.5h-31l-26 63q-6 15 -31 76t-67 163t-76 185q-32 79 -72 176.5t-58.5 143t-19.5 47.5z
" />
    <glyph glyph-name="asciicircum" unicode="^" 
d="M43 -200v1000h383q111 0 197 -0.5t133 -2t45 -2.5q-6 -4 -262 -4h-100q-355 0 -358 -3t-3 -77v-46v-37q0 -84 -5 -89q-5 -6 0 -9t5 -262v-82q0 -340 4 -344q5 -5 128 -5h19q28 1 94 1q113 0 115 -3q3 -3 9 1q3 3 96 3q109 0 121 -3q5 -2 14 2q8 2 69 2h44q27 -1 62 -1
q31 0 38.5 2t10.5 9q5 12 2 14t-3 301q0 536 5 548q4 9 -1 12q-3 3 -3 21v13q0 4 0.5 9.5t0.5 7.5q0 9 -4 12t-17 3q-3 0 -13 -0.5t-17 -0.5h-10q-28 0 -28 5t61 5h65v-1000h-897zM250 494q14 17 36 43.5t69.5 84t79.5 95t33 36.5q5 -5 113 -136l111 -133l-13 -12
q-12 -9 -18 -12q-3 0 -98 113q-46 55 -71.5 84.5t-26.5 28.5q-2 -1 -97 -113.5t-97 -112.5q-4 0 -17 13q-8 8 -8.5 11.5t4.5 9.5z" />
    <glyph glyph-name="a" unicode="a" 
d="M858 780h-14q-34 0 -40 4q-7 7 -14 1q-6 -4 -283 -4h-78q-355 0 -359 -4q-3 -1 -3 -55q0 -8 0.5 -29t0.5 -33v-47q0 -69 -4 -73q-6 -8 -1 -10q5 -3 5 -261v-83q0 -341 2 -343q2 -1 61.5 -3.5t95.5 -2.5h17q19 1 83 1q125 0 127 -3q3 -3 9 1q4 4 95 4q115 0 123 -5
q6 -4 9 1q3 4 68 4h47l112 -1v425q2 428 4 433q4 9 -1 12q-3 3 -3 25v9v13q0 19 -4 22q-4 2 -35 2h-20zM43 -200v1000h897v-1000h-897zM550 224l14 12l-1 63l-2 62l-30 -15q-112 -58 -112 -121q0 -43 41 -43q39 0 90 42zM460 553q27 10 64 10q23 0 41 -5t36 -25.5t24 -41.5
q6 -24 6 -150v-58q0 -72 8 -81q7 -9 21 -9q15 0 27 12q13 13 20 13q6 0 6 -7q0 -9 -15.5 -30t-28.5 -30q-17 -11 -36 -11q-23 0 -43 14t-25 36l-4 18l-30 -21q-54 -39 -102 -44q-8 -1 -22 -1q-60 0 -60 55q0 24 21 56q25 38 66.5 66.5t115.5 59.5l20 9l-3 42q-4 63 -25 85
q-15 16 -41 16q-34 0 -64 -25q-17 -16 -28 -50q-9 -30 -13.5 -38t-15.5 -14q-12 -5 -20 -5q-11 0 -20 6q-5 5 -5 8q0 5 10 25q40 86 115 115z" />
    <glyph glyph-name="b" unicode="b" 
d="M552 482q-35 16 -77 16q-44 0 -73 -17q-13 -8 -18 -25t-5 -61q0 -14 2 -72q3 -93 10 -115t39 -38q28 -14 49 -14q3 0 9.5 0.5t10.5 0.5q73 3 109 49q17 23 23.5 48.5t6.5 71.5q-1 58 -11 78q-23 53 -75 78zM912 785h-16h-50q-42 0 -49 4q-10 6 -16 1q-8 -4 -199 -4
q-192 0 -198 -4q-5 -2 -5 -139t5 -139h2q12 0 42 11q36 13 97 14q56 0 86 -14q65 -30 87 -90q15 -36 15 -91q0 -41 -10 -71q-24 -65 -77 -100.5t-120 -35.5q-49 0 -94 17l-46 17l-19 -21q-18 -20 -25 -20q-5 0 -6 151t-2 306t-8 163t-34 21q-26 13 -26 19t-110 6
q-72 0 -76 -4q-3 -3 -3 -74v-45v-36q0 -78 -4 -82q-5 -3 0 -12q4 -8 4 -345q0 -336 4 -340q2 -2 203 -4q199 0 205 -4q5 -4 9 0q1 4 92 4q114 0 122 -5q7 -4 13 2q6 5 58 5q17 0 55.5 -0.5t54.5 -0.5q48 0 55 4q8 6 4 9q-4 1 -4 393q0 448 4 457q3 8 -1 11q-3 3 -3 34v32
h-16zM43 -200v1000h897v-1000h-897z" />
    <glyph glyph-name="c" unicode="c" horiz-adv-x="989" 
d="M863 775q-21 0 -175 0.5t-253 0.5h-99.5h-91t-71.5 -0.5t-51 -0.5h-19q-6 -2 -7.5 -10t-1.5 -41v-56v-19q0 -44 -5 -47t0 -12q5 -8 5 -348t3 -343q6 -6 108 -6h13q31 0 39 5q3 2 68 2q104 0 109 -4q5 -3 8 1q2 3 84 3q122 0 130 -5q5 -4 13 2q7 5 80 5h34l108 -1l1 396
q1 218 1 405q-1 4 -1 40v32zM43 -200v1000h902v-1000h-902zM355 612q26 6 69 6h13q57 -1 83 -14t33 -27q4 -8 4 -17q0 -14 -10.5 -25t-26.5 -11q-5 0 -13 2q-7 3 -45.5 31t-50.5 30q-5 1 -15 1q-47 0 -81 -49.5t-34 -117.5q0 -24 4 -43q12 -63 51 -99t92 -36q50 0 103 36
l30 21l2 -13q2 -13 -17 -33.5t-51 -37.5q-20 -11 -33.5 -13.5t-49.5 -4.5h-18q-72 0 -122 46q-68 65 -68 166v13q2 48 21 84q39 82 130 105z" />
    <glyph glyph-name="d" unicode="d" horiz-adv-x="989" 
d="M909 775q-2 0 -68.5 0.5t-169.5 0.5h-194h-120h-112.5t-90 -0.5t-64.5 -0.5h-23q-7 -1 -9 -7q-1 -7 -1 -34q0 -6 0.5 -32t0.5 -46v-33q0 -73 -5 -78q-6 -7 0 -10q4 -4 4 -236v-108q0 -340 4 -344q6 -6 164 -6h22q1 0 17 0.5t41 0.5h48h28q69 0 74 -3q7 -4 13 2q6 4 20 4
q8 0 12 -1q42 -4 126 -4q67 0 70 3q4 2 46 2q9 0 31.5 -0.5t35.5 -0.5l109 -2l-1 421v118q0 304 4 312q5 8 -1 16q-3 4 -3 24v12v10q0 19 -8 20zM43 -200v1000h902v-1000h-902zM515 301q-19 9 -57 9q-33 0 -48 -7q-45 -20 -69 -69q-12 -25 -14.5 -38.5t-2.5 -55.5
q0 -49 7.5 -73.5t30.5 -51.5q41 -46 111 -46q32 1 63 8t39 17q6 8 6 106q0 114 -7 142q-11 37 -59 59zM532 601q17 2 48 9t47 9l19 1v-317q0 -235 1.5 -278t8.5 -50q10 -10 34 -10q15 0 19 -1.5t4 -7.5q0 -10 -58 -21q-59 -11 -65 -11t-6 23q0 15 -1.5 19t-5.5 3
q-93 -36 -153 -37h-16q-32 0 -65 17q-50 27 -76 81q-20 41 -20 93q0 58 26.5 108t72.5 75q52 30 120 30q44 0 82 -15q28 -11 30 -11q1 13 1 34q0 9 -0.5 37t-0.5 45q-2 105 -9 121q-6 13 -33 22q-1 0 -6 2q-28 8 -28 18q0 8 30 12z" />
    <glyph glyph-name="e" unicode="e" 
d="M43 668v132h897v-1000h-897v368q0 359 5 359q4 0 4 -248v-95q0 -338 3 -342q5 -6 85 -6h91h15q56 0 94 1h29q71 0 76 -3q6 -4 12 1q4 3 45 3h26q12 0 36.5 -1t42.5 -1.5t29 -0.5h19q26 0 30 2t68 2h46l108 -2l-1 21q-2 19 3 30q5 9 2 12q-4 4 -4 389q0 382 4 394
q5 8 -1 15q-2 3 -3 34t-5 32q-16 1 -263 1q-579 0 -584 -3q-3 -2 -3 -50q0 -17 0.5 -57t0.5 -58q0 -57 -4 -57q-6 0 -6 128zM551 329q-16 11 -62 11q-22 0 -31 -4q-26 -10 -48.5 -34.5t-28.5 -48.5l-4 -15l45 1q149 2 160 17q3 4 3 13q0 15 -9.5 33t-24.5 27zM454 361
q25 5 45 5q59 0 102 -32q20 -16 37.5 -47t17.5 -52v-17h-131q-128 0 -144 -6q-8 -3 -10.5 -6.5t-2.5 -15.5q0 -14 1 -26q3 -57 27.5 -98t65.5 -60q28 -12 68 -12q35 0 53 6.5t52 31.5l27 21v-15q0 -16 -23.5 -37.5t-59.5 -39.5q-27 -14 -40 -16.5t-51 -2.5q-37 0 -49.5 2.5
t-37.5 15.5q-100 51 -100 177q0 83 43 145.5t110 78.5z" />
    <glyph glyph-name="f" unicode="f" 
d="M851 748h-6q-25 0 -32 5q-11 5 -17 1t-284 -4h-78q-355 0 -358 -3t-3 -88q0 -86 -5 -89q-5 -4 0 -9q5 -7 5 -345v-151q0 -189 6 -193q7 -5 148 -5q78 0 108 1h29q70 0 75 -3q6 -4 13 1q4 3 44 3h26q12 0 37 -1t43 -1.5t29 -0.5h19q26 0 30 2t69 2h46q28 -1 65 -1
q45 0 45 10q0 4 -1 6q-1 5 -1 225q0 554 3 562q4 9 -1 12q-3 3 -3 21v13q0 4 0.5 9t0.5 7q0 9 -3.5 12t-16.5 3q-18 0 -32 -1zM43 -200v1000h897v-1000h-897zM527 612q15 6 61 8q88 0 88 -41q0 -6 -1 -9q-6 -23 -36 -23q-23 0 -58 13q-28 11 -54 11q-49 0 -70 -43
q-8 -18 -11 -102l-2 -83l20 -3q22 -4 68 -4h47v-18q0 -18 -9 -19q-2 0 -11.5 -1t-26 -1.5t-28.5 -1.5l-56 -3l1 -139q2 -140 7 -152q5 -14 18 -20t46 -11q38 -6 38 -15q0 -3 -3 -4.5t-17 -2.5t-36.5 -1h-66.5q-82 0 -103 1.5t-21 6.5q0 9 28 15q29 6 34 14q10 12 10 77
q0 9 -0.5 34t-0.5 42l-1 145l-35 5q-34 4 -34 12q0 7 30 22q9 4 14.5 8t10 6.5t7.5 7.5t5 7.5t3 10.5t2 12t2 17.5t2 20.5q6 51 23 87q41 86 116 114z" />
    <glyph glyph-name="g" unicode="g" 
d="M859 759q-24 0 -31 4q-10 6 -17 1q-8 -4 -362 -4q-355 0 -358 -3t-3 -91v-26q0 -60 -4 -64q-5 -3 0 -12q4 -7 4 -336v-103v-93.5t0.5 -73t0.5 -51.5v-20v-13l56 -1q30 -1 63 -1q52 0 106 1h29q71 0 76 -3q7 -4 13 2q6 4 20 4q8 0 12 -1q42 -4 125 -4q67 0 70 3q2 1 63 1
h49q31 -1 70 -1q38 0 42 8q5 9 2 12t-3 334q0 447 4 454q3 8 -1 11q-4 4 -4 34l1 32h-23zM43 -200v1000h897v-1000h-897zM619 102q-20 6 -104 10q-17 1 -43 1q-36 0 -53.5 -5.5t-37.5 -20.5q-42 -31 -42 -72q0 -32 27 -61q38 -40 126 -40q69 0 122 26q68 32 68 89
q0 53 -63 73zM528 543q-20 10 -44 10q-25 0 -42 -10q-28 -17 -39 -44.5t-12 -79.5q0 -45 8.5 -71t30.5 -45q26 -23 52 -23q11 0 18 1q78 9 87 113q1 7 1 21q0 95 -60 128zM441 565q21 6 52 6h11q36 -2 82 -26l46 -24l55 4l56 3l4 -16q2 -12 2 -16q0 -20 -22 -20q-16 0 -40 7
q-30 8 -39 8h-11l10 -26q9 -25 9 -49q0 -30 -15 -62q-22 -46 -59.5 -68t-102.5 -27q-86 -8 -103 -38q-2 -4 -2 -7q0 -32 135 -43q99 -8 133 -16.5t54 -30.5q27 -30 27 -80q0 -25 -9 -46q-31 -65 -135 -93q-36 -10 -95 -10q-65 0 -103 12q-46 15 -73 40.5t-27 53.5q0 6 1 9
q5 27 30 52t77 54l17 10l-18 9q-51 24 -69 50q-8 13 -8 22q0 22 47 40q10 4 42 16l15 6l-30 22q-32 24 -46 51q-10 18 -12.5 29.5t-2.5 41.5q0 44 11 65q37 68 106 87z" />
    <glyph glyph-name="h" unicode="h" 
d="M867 754q-12 0 -19 4q-10 6 -16 1q-6 -3 -286 -5q-351 0 -426 -5q-6 -1 -6 -41v-50v-20q0 -70 -5 -73t0 -11t5 -336v-103v-93.5t0.5 -73t0.5 -52v-20.5v-14h90h67q143 0 147 -2q6 -4 12 1t340 8q107 1 112 8q6 7 2 11q-7 11 -7 565q0 217 3 224q3 8 -2 12q-3 3 -3 21v13
v14q0 17 -9 17zM43 -200v1000h897v-1000h-897zM368 651q7 5 24 5h17v-352l33 31q36 34 61 44.5t69 10.5q32 0 42.5 -2.5t26.5 -12.5q34 -23 44.5 -51.5t10.5 -102.5q0 -47 -1 -76l-4 -127l37 -9q37 -9 37 -16t-99 -7q-96 0 -96 6t12.5 11t26.5 9.5t17 7.5q8 8 8 166
q0 62 -3 80q-8 41 -27.5 59t-59.5 20h-13q-27 0 -47.5 -10.5t-47.5 -37.5l-27 -27v-124q0 -124 5 -127t34 -5q49 -5 49 -18q0 -6 -8 -6q-2 -1 -10.5 -1.5t-11.5 -0.5t-18 -1t-41 -2.5t-46 -2.5q-56 -2 -61 -2q-31 0 -31 7t33 14q35 8 39 13t4 164v119v64q-1 188 -9 212
q-5 16 -23 21q-1 0 -4 1q-6 2 -10 3q-28 9 -28 17q0 5 12 8q18 4 48 14t36 14z" />
    <glyph glyph-name="i" unicode="i" 
d="M840 749q-2 0 -148.5 0.5t-251.5 0.5h-102.5h-95t-75.5 -0.5t-54 -0.5h-20q-4 -1 -6 -2.5t-3 -10t-1 -25.5q0 -31 1 -54v-19q0 -43 -4 -47q-6 -3 -1 -12q4 -7 4 -318q0 -354 9 -369q3 -4 40 -4h48h19t45.5 0.5t50.5 0.5q93 0 97 -3q6 -4 13 1q5 3 86 3q122 0 130 -5
q5 -3 12 2q4 4 56 4q17 0 54 -0.5t53 -0.5q51 0 55 5q4 6 4 387q2 385 4 388q4 7 -1 13q-3 4 -3 24v12l1 29zM43 -200v1000h897v-1000h-897zM453 663q14 14 30 14q19 0 35 -16q14 -14 14 -26q0 -13 -14 -27q-14 -16 -34 -16q-19 0 -31 12.5t-12 29.5q0 18 12 29zM481 437
q28 28 35 28q6 0 6 -203q0 -202 7 -208q5 -5 36 -15q30 -9 30 -14t-64 -5h-48q-62 1 -115 1q-1 1 4 8t36 13q3 1 8 2q28 4 34 15q8 14 9 110v30q0 16 0.5 40t0.5 32q0 62 -6.5 76.5t-31.5 20.5q-23 6 -23 14q0 9 26 18t56 37z" />
    <glyph glyph-name="j" unicode="j" horiz-adv-x="989" 
d="M864 748h-3q-5 0 -14 3.5t-15 3.5q-5 0 -8 -1q-10 -3 -358 -5h-356q-7 -1 -7 -42q0 -32 1 -57v-41q0 -60 -4 -64q-6 -7 -1 -10t5 -261v-83q0 -341 3 -344t159 -3q159 -2 162 -4q4 -2 7 -2q13 0 27.5 20t24.5 53q9 31 9 335q0 112 -3 129q-4 16 -10.5 21t-33.5 10
q-15 3 -15 13t15 13q40 9 75 46q20 22 27 22l1 -1q4 -4 4 -260q0 -189 -1.5 -227.5t-9.5 -64.5q-11 -35 -33 -69q-4 -7 -10 -16t-8 -14l-3 -4l80 -2q81 0 86 -3t11 1q4 4 71 4h44l109 -2l1 411q1 226 1 421q-1 53 -2.5 64t-12.5 11q-9 0 -15 -1zM43 300v500h902v-1000h-901z
M487 714q9 4 20 4q19 0 32.5 -12.5t13.5 -31.5t-12.5 -33.5t-28.5 -14.5q-1 0 -3 0.5t-3 0.5q-32 6 -38 36q0 1 -0.5 3.5t-0.5 3.5q0 14 6 27.5t14 16.5z" />
    <glyph glyph-name="k" unicode="k" 
d="M856 748q-15 0 -23 5t-19 1q-12 -4 -362 -4q-352 0 -355 -3t-3 -64v-25q0 -85 -5 -88t0 -11q4 -8 4 -250v-96q0 -336 7 -341t46 -5h49q55 0 109 1h29q71 0 75 -3q7 -4 13 2q6 4 20 4q8 0 12 -1q42 -4 126 -4q67 0 70 3q4 2 47 2q9 0 31.5 -0.5t35.5 -0.5l108 -2l1 395
q0 133 0.5 253t0.5 125q0 30 -0.5 49t-0.5 26q-1 24 -3 28t-13 4zM43 -200v1000h897v-1000h-897zM323 622q7 2 50 22t50 22q7 0 7 -232v-233l14 4q23 6 88 57q56 43 56 60q0 15 -36 24q-30 8 -30 14q0 12 130 12q81 0 81 -7q0 -9 -36 -18q-34 -9 -63 -27q-23 -15 -67.5 -54
t-44.5 -43q0 -2 46 -52q20 -22 90 -100q31 -34 43 -43t33 -15q30 -7 30 -12q0 -8 -110 -9h-62q-49 0 -49 6q0 7 30 11q40 4 40 14q0 6 -9 18q-16 25 -68.5 81t-63.5 60q-12 5 -28 5h-15l2 -77q1 -64 6 -78t28 -19q32 -6 32 -18q0 -4 -98 -4t-98 7q0 13 33 13h5q21 0 25 33.5
t4 213.5v46q0 270 -5 280q-5 8 -22 12q-35 7 -35 16q0 6 17 10z" />
    <glyph glyph-name="l" unicode="l" 
d="M869 744h-9q-24 0 -32 4q-7 4 -20 0q-9 -3 -361 -3q-353 0 -356 -3t-3 -89q0 -85 -4 -88q-5 -3 0 -11q4 -7 4 -336v-103v-93.5t0.5 -73t0.5 -52v-20.5v-13l64 -1q19 0 41 -0.5t29 -0.5q11 0 24.5 0.5t38.5 1t51 0.5h38q59 0 64 -3q7 -5 12 0q3 3 89 3q115 0 126 -4
q7 -4 13 2q3 3 71 3h44l109 -2l1 398v181q0 233 -1 243q-1 7 -1 23v21l-1 18zM43 -200v1000h897v-1000h-897zM448 653q8 3 19.5 7.5t18.5 7t12 2.5q14 0 18 -29t4 -126v-162v-128q0 -145 3.5 -171.5t22.5 -28.5q5 -1 7 -1q46 -9 46 -17q0 -6 -112 -6q-114 0 -114 7t7.5 10
t31.5 7q3 0 8 1q25 3 30 27t5 151v114v270l-13 10q-10 9 -31 17q-8 3 -12.5 7t-3.5 7q2 8 53 24z" />
    <glyph glyph-name="m" unicode="m" 
d="M859 743q-10 -2 -21 5q-10 5 -14 1q-3 -3 -361 -3q-360 -2 -362 -4q-3 -3 -3 -56v-21v-21q0 -53 -4 -61q-5 -9 0 -12t5 -228q0 -159 1 -191.5t6 -32.5h2q47 8 54 24q5 13 5 150q0 94 -3 110q-2 10 -7 14t-21 9q-24 8 -24 15q0 9 21 18q20 9 50 39q27 29 35 29
q11 0 12 -47l1 -46l31 24q67 52 130 52q21 0 37 -4q39 -9 71 -54l11 -15l20 18q64 58 134 58q9 0 23 -2q35 -7 56 -23.5t37 -50.5q8 -18 10.5 -43t4.5 -122l2 -138l23 -9q34 -12 34 -19l-1 -1v-2q-3 -6 -67 -6h-32q-62 1 -80 2.5t-18 7.5q0 5 11.5 9.5t26.5 8.5t18 6l13 7
l2 123v29q0 97 -5 114q-8 28 -34 46t-58 18q-13 0 -26 -3q-23 -5 -52.5 -25.5t-35.5 -35.5q-4 -9 -4 -121q0 -139 5 -146q3 -3 36 -12q34 -9 34 -19q0 -7 -109 -7t-114 6q-1 1 -1 3q0 8 38 17q30 6 35 13q10 19 10 96v30v62q0 42 -2 55t-10 29q-13 26 -28 36.5t-43 12.5h-10
q-56 0 -102 -41l-25 -22l3 -125q3 -127 8 -133q8 -8 28 -11q18 -3 31.5 -9.5t13.5 -13.5q0 -5 -64 -5q-20 0 -53.5 0.5t-39.5 0.5h-5l-52 -1l1 -107q1 -107 8 -111q8 -4 48 -4h49q53 0 109 1h30q72 0 77 -3q6 -4 12 1q5 3 26 3h14q13 -1 73 -1h38h186q73 0 92 1.5t20 7.5
q4 12 4 622q0 172 -1 202q-1 15 -2 21t-3.5 9t-9.5 3q-1 0 -4 -0.5t-5 -0.5zM43 -200v1000h897v-1000h-897z" />
    <glyph glyph-name="n" unicode="n" 
d="M868 695q-1 32 -13 37q-10 5 -22 0q-8 -4 -96 -4q-613 -2 -620 -6q-4 -3 -4 -31q0 -22 1 -37v-26q0 -39 -4 -42q-6 -4 -1 -12t5 -336v-103v-93t0.5 -72.5t0.5 -52v-20.5q1 -11 5.5 -13t27.5 -2h42q55 0 109 1h29q70 0 75 -3q6 -4 13 1q6 4 51 4h19q12 0 37 -1t43 -1.5
t29 -0.5h19q26 0 30 2t47 2q9 0 31.5 -0.5t35.5 -0.5l109 -2l1 377q1 208 1 391q0 26 -1 44zM43 -200v1000h897v-1000h-897zM369 476q17 25 22 25q13 0 13 -47q0 -25 2 -25q3 0 34 19q74 45 131 45q55 0 89 -40q18 -19 22.5 -54t4.5 -146q0 -86 1.5 -110t7.5 -30q9 -9 20 -9
q15 0 28.5 -6t13.5 -13q0 -6 -16 -7.5t-90 -3.5h-57q-33 0 -40 1.5t-7 7.5q0 8 7 11.5t33 7.5q25 4 30 13q7 13 7 100v18q0 90 -4 126t-17 52q-24 31 -74 31q-62 0 -112 -44l-19 -17v-101q2 -117 4 -135l3 -33l33 -9q47 -13 47 -25q0 -5 -111 -5q-110 0 -110 10q0 9 30 15
t36 12t6 128q0 104 -4.5 123.5t-31.5 26.5q-21 6 -21 16q0 8 17 14q46 16 72 58z" />
    <glyph glyph-name="o" unicode="o" 
d="M876 711v12q0 13 -3 16.5t-14 6.5q-16 5 -23 2q-6 -3 -358 -3h-102q-251 0 -254 -3t-3 -81v-22q0 -55 -4 -59q-5 -3 0 -11q4 -7 4 -336v-103t0.5 -93.5t0.5 -73v-52v-20.5q1 -11 5.5 -12.5t31.5 -1.5h48q55 0 109 1h29q71 0 76 -3q6 -4 12 1q5 3 90 3q116 0 125 -4
q7 -3 12 2q6 4 79 4h32q26 -1 62 -1q43 0 47 7q3 6 3 137q0 110 -3 113q-2 2 -2 172q0 345 4 357q4 9 0 12q-4 4 -4 33zM43 -200v1000h897v-1000h-897zM541 487q-24 12 -59 12q-26 0 -52 -8q-28 -10 -51.5 -34.5t-34.5 -56.5q-11 -35 -11 -93q0 -66 13 -100q20 -52 70 -78
q22 -12 62 -12q36 0 55 10q92 47 92 176q0 64 -23 114t-61 70zM419 514q30 6 60 6q77 0 135 -40.5t81 -111.5q8 -27 8 -57q0 -54 -18 -90q-24 -49 -71.5 -82t-105.5 -41q-18 -3 -36 -3q-91 0 -154 60.5t-63 149.5v15q5 76 57 132q45 49 107 62z" />
    <glyph glyph-name="p" unicode="p" horiz-adv-x="989" 
d="M896 771q-2 1 -12 1q-6 0 -22 -0.5t-23 -0.5q-18 0 -21 2q-8 5 -20 1q-6 -2 -358 -4h-356q-7 -1 -7 -43q0 -33 1 -59v-43q0 -60 -4 -65q-5 -6 -1 -9q5 -3 5 -261v-83q0 -340 4 -344q6 -6 137 -6h15q76 2 111 2q88 0 94 -4q7 -5 13 0q4 3 89 3q116 0 125 -4q7 -3 13 1
q5 4 114 4h108l1 13q0 3 0.5 11.5t1.5 11.5v397q0 393 1 400v13q0 61 -9 66zM43 -200v1000h902v-1000h-902zM544 546q-27 9 -58 9q-41 0 -73 -16q-16 -8 -20.5 -10.5t-9.5 -15.5t-5 -28.5v-56.5v-17q0 -81 4 -111t18 -46q29 -34 99 -34q35 0 62 12q43 19 66 57.5t23 88.5
q0 23 -4 42q-8 46 -35 79t-67 47zM347 632q19 18 23 17q5 -2 7 -49l2 -47l32 18q62 34 123 34q76 0 128 -51q59 -57 59 -140q0 -18 -3 -38q-16 -109 -110 -156q-50 -24 -101 -24q-43 0 -90 16q-31 11 -32 11q-2 0 -2 -47q0 -9 0.5 -33.5t0.5 -38.5q1 -117 10 -126
q8 -8 40 -13q47 -7 47 -21q0 -5 -119 -5q-80 0 -98.5 1t-18.5 6q0 11 29 17q4 1 10.5 2t9 1.5t7 3t6 5t4 8t3 13t2 19t1.5 25.5v34q0 19 -2 181q-3 271 -9 282q-7 11 -29 17q-27 9 -27 13q0 6 39 26q38 19 58 39z" />
    <glyph glyph-name="q" unicode="q" 
d="M871 764q-1 0 -5 0.5t-5 0.5q-4 0 -10.5 -0.5t-9.5 -0.5q-10 0 -18 4q-8 5 -20 1q-7 -3 -253 -3h-100q-348 0 -356 -1l-14 -2l2 -106v-44q0 -65 -3 -71q-5 -8 -1 -12q3 -2 5 -337v-105t0.5 -95t0.5 -73.5v-51.5v-20q1 -7 9 -8.5t52 -2.5q33 -1 68 -1q88 2 119 2
q85 0 91 -4q7 -5 12 0q3 3 67 3h42q49 -1 91 -1q9 0 44.5 0.5t93.5 0.5q84 1 97.5 2t14.5 9q3 9 3 421q1 225 1 418v7q0 21 -1 35l-1 35h-16zM43 -200v1000h897v-1000h-897zM468 571q-17 7 -50 7q-85 0 -124 -86q-11 -24 -11 -76q0 -35 2 -48.5t12 -32.5q22 -45 77 -75
q28 -14 76 -14q52 1 70 11l21 12l4 63q1 15 1 44q0 103 -16 137q-7 16 -25.5 33t-36.5 25zM586 611q3 14 14 14q7 0 8.5 -42t1.5 -283v-325l12 -7q2 -2 17 -6.5t26.5 -10t11.5 -10.5q0 -6 -60 -6h-51q-111 1 -111 8q0 6 15 10q38 8 50 13.5t17 16.5q7 13 10 130q1 32 1 83
q0 37 -1 39q-1 3 -5 3q-5 0 -42 -14q-62 -25 -106 -25q-41 0 -86 21q-49 23 -77.5 69.5t-28.5 104.5q0 11 2 31q9 66 59.5 115t119.5 59q18 2 27 2q39 0 102 -20q43 -13 49 -13q14 0 25 43z" />
    <glyph glyph-name="r" unicode="r" 
d="M935 -192q0 2 -3 2q-2 0 -2 -2q0 -3 2 -3q3 0 3 3zM864 765h-10q-24 0 -32 4q-7 4 -19 0q-7 -3 -262 -3h-104h-356l2 -97v-31q0 -65 -4 -73q-6 -6 -1 -9t5 -334v-104.5t0.5 -94.5t0.5 -73.5v-52.5v-21v-13l64 -1q14 0 32 -0.5t28 -0.5h13q1 0 24.5 0.5t57.5 1t61 0.5
q66 0 70 -3q6 -5 13 0q5 3 89 3q114 0 125 -4q7 -4 13 2q3 3 69 3h43l107 -1l3 13q3 12 3 566q0 241 -1 263v22.5t-1 20.5l-1 18zM43 -200v1000h897v-1000h-897zM425 535q6 13 14 11q6 -2 8.5 -32.5t3.5 -60t3 -29.5q6 0 27 32q49 67 96 67q11 0 23 -5q27 -14 27 -44
q0 -25 -20 -35q-10 -5 -15 -5t-22 5q-37 10 -47 10q-15 0 -32 -18q-22 -25 -28.5 -44t-6.5 -64q0 -39 1 -66q3 -107 9 -112q6 -3 36 -7q46 -5 61 -9t15 -12q0 -5 -23 -6.5t-112 -1.5t-113 1.5t-24 6.5q0 7 12 10q14 2 39 9l29 7v132q0 133 -6 139q-4 4 -34 12q-28 6 -28 14
t29 22q24 11 47 33t31 40z" />
    <glyph glyph-name="s" unicode="s" 
d="M471 -187q0 2 -3 2q-2 0 -2 -2q0 -3 2 -3q3 0 3 3zM924 -182q0 3 -2 3q-3 0 -3 -3t3 -3q2 0 2 3zM555 -183q4 -4 7 0q-1 3 -4 4q-7 0 -3 -4zM851 760h-12q-21 0 -27 3q-8 5 -19 1q-12 -4 -362 -4h-103q-249 0 -252 -3q-4 -4 -4 -84v-23q0 -60 -4 -68q-5 -8 0 -11t5 -342
v-344q2 -8 109 -8h22q1 0 15.5 0.5t41.5 1t50 0.5h29q72 0 78 -4q7 -5 12 0q3 3 67 3h42q49 -1 92 -1q9 0 45 0.5t95 0.5h112v398q0 59 0.5 156.5t0.5 131.5v66t-0.5 50t-0.5 19q0 7 -0.5 23t-1.5 21v18zM43 -200v1000h897v-1000h-897zM399 542q15 3 32 3q36 0 69.5 -9.5
t37.5 -21.5q7 -24 7 -59q0 -26 -8 -26q-6 0 -19 23q-17 32 -45 50t-56 18q-47 0 -60 -44q-3 -9 -3 -19q0 -33 26 -51q14 -11 60 -32q68 -30 95 -57.5t32 -69.5q1 -5 1 -13q0 -53 -42 -86.5t-101 -33.5h-4q-30 0 -66.5 7.5t-42.5 15.5q-4 4 -10 45t-6 60q0 12 5 12
q10 0 23 -29q19 -43 50.5 -67t64.5 -24q37 0 64 31q14 15 14 40q0 40 -35 69q-19 15 -74 39q-89 38 -105 82q-7 18 -7 38q0 39 28 69.5t75 39.5z" />
    <glyph glyph-name="t" unicode="t" 
d="M867 729q-1 34 -12 39q-10 5 -21 1q-8 -3 -262 -3h-104h-357l2 -104v-43q0 -61 -3 -64q-6 -4 -1 -12q4 -8 4 -244v-92v-148q0 -187 1 -193q1 -10 6 -11.5t28 -2.5h42h58h51h29q70 0 75 -3q5 -4 13 2q3 3 75 3q126 0 139 -5q7 -4 13 2q3 3 70 3h44l109 -2l1 411
q1 226 1 421v8q0 24 -1 37zM43 -200v1000h897v-1000h-897zM388 608q12 32 18 32q13 0 13 -76v-37l67 3l67 4v-19q0 -19 -11 -20q-3 0 -13 -1t-27 -1.5t-29 -1.5l-56 -3v-142q0 -64 0.5 -92t4 -48t8.5 -25t16 -10q12 -4 24 -4q35 0 62 15q18 10 23 5q3 -3 3 -7
q0 -14 -33.5 -29.5t-69.5 -18.5q-9 -1 -22 -1q-19 0 -39 10q-21 10 -28.5 20.5t-11 34t-3.5 79.5v48v57q0 79 -2 91q-2 10 -7 12.5t-25 3.5q-32 2 -32 11q0 7 21 16q22 10 46.5 37.5t35.5 56.5z" />
    <glyph glyph-name="u" unicode="u" 
d="M872 764q-26 0 -34 5q-7 4 -19 0q-8 -3 -241 -3h-333q-129 0 -136 -1l-13 -2l2 -100v-42q0 -58 -3 -61q-6 -4 -1 -12t5 -338v-344l1 -13l56 -1h30h39h33q22 -2 22 3q0 4 74 4q72 0 80 -4q6 -4 13 1q5 3 44 3h26l108 -3h19q27 0 31 2t46 2q9 0 31.5 -0.5t35.5 -0.5l109 -1
v407q2 412 4 417q3 8 -1 11q-3 3 -3 27v10l1 34h-26zM43 -200v1000h897v-1000h-897zM198 535q0 7 64 7h64l2 -154l1 -154l15 -16q25 -26 64 -26q12 0 18 1q24 2 58 16.5t45 27.5q9 9 10 135q1 36 1 80q0 32 -2 40.5t-9 13.5q-11 9 -34 13q-50 7 -50 16q0 7 80 7h80l-1 -166
v-48q0 -121 3 -125q3 -6 25 -6q45 0 45 -12q0 -4 -60 -22.5t-73 -18.5h-2q-4 1 -4 35q0 33 -2 33t-37 -23q-74 -50 -124 -50q-45 0 -78 39q-20 23 -26.5 52.5t-6.5 103.5v42v43q0 63 -3.5 80t-15.5 17q-14 0 -30.5 7t-16.5 12z" />
    <glyph glyph-name="v" unicode="v" 
d="M869 759q-14 0 -21 4q-10 6 -16 1q-8 -3 -271 -3h-275q-154 0 -161 -1l-13 -2l1 -98v-29q0 -67 -4 -71q-5 -3 -1 -9q3 -4 5 -344q0 -336 4 -344q5 -6 44 -6h50q1 0 19 0.5t45.5 0.5h50.5q92 0 97 -3q7 -5 13 0q4 3 89 3q115 0 126 -4q7 -4 13 2q3 3 69 3h43l106 -1l3 12
q1 4 1 32q0 36 -1 58q-2 44 -2 397q0 106 0.5 202.5t0.5 100.5q0 24 -0.5 41t-0.5 26q-1 22 -3 27t-11 5zM43 321v479h897v-1000h-897l1 20q1 13 3 12q3 -8 9 -1t-1 9l-4 1q-3 0 -4.5 14t-2.5 69t-1 141.5v255.5zM209 539q0 5 36 5q41 0 75 -1q113 -2 117 -6q3 -3 3 -5
q0 -6 -45 -15q-24 -5 -31 -7.5t-7 -8.5q0 -9 57.5 -143.5t61.5 -134.5q6 0 49 102.5t43 116.5v1q-3 5 3 29q2 12 2 16q0 13 -8.5 19t-34.5 11q-30 7 -32 16v2q0 4 15.5 5t83.5 1q101 0 101 -10q0 -6 -6 -8.5t-24 -4.5q-35 -4 -44.5 -12t-23.5 -41q-16 -39 -16 -48
q0 -10 -98 -240q-21 -53 -31 -53q-13 0 -115 240q-54 126 -65 140q-7 9 -30 15q-2 1 -3 1q-33 10 -33 18z" />
    <glyph glyph-name="w" unicode="w" horiz-adv-x="989" 
d="M899 -187q0 6 -6 -1q-2 -1 -3 -3q-2 -3 -1.5 -3t3.5 1q7 3 7 6zM904 -190q1 0 4 -0.5t5.5 -1t5 -0.5t4 1t1.5 4q0 8 -3 8q-9 -2 -17 -11zM870 757q-10 4 -610 4q-163 0 -168 -1q-6 -2 -7.5 -8t-1.5 -34v-49v-26q0 -63 -4 -67q-5 -3 0 -12q4 -7 4 -336v-103t0.5 -93.5
t0.5 -73v-51.5v-20v-13l56 -1q30 -1 63 -1q52 0 106 1h29q72 0 76 -3q6 -4 11 1q3 3 89 3q117 0 126 -4q7 -4 13 2q6 4 79 4h32q13 0 34.5 -0.5t29.5 -0.5q40 0 44 2q3 3 3 397t4 403q5 8 -1 12q-3 3 -3 22v12v13q0 18 -5 21zM43 -200v1000h902v-1000h-902zM115 538
q0 7 14 8t87 1q68 0 83.5 -1t15.5 -5q0 -7 -10 -12t-23 -8.5t-16 -5.5q-6 -5 -6 -15q0 -12 8 -33q14 -33 69 -144t58 -111t42 79l40 79l-27 68q-25 67 -32 72q-6 5 -34 14q-26 8 -26 13q0 8 112 9h62q47 0 47 -6q0 -7 -6 -9.5t-37 -8.5q-19 -4 -26.5 -9t-7.5 -15q0 -3 4 -21
q6 -19 47.5 -129.5t47.5 -121.5q6 -10 15 8q6 12 34 82q13 31 45 106q18 43 18 63q0 17 -7.5 23.5t-46.5 19.5q-20 7 -20 11q0 5 93 7h50q38 0 38 -5q0 -9 -24 -19q-25 -9 -43 -38.5t-55 -119.5q-95 -234 -114 -234h-1q-8 0 -16 16t-43 105q-32 84 -35 84q-2 0 -54 -101
q-46 -91 -58 -101q-4 -3 -8 -3q-11 0 -37 55q-4 8 -6 13q-45 96 -100.5 204t-62.5 113q-8 6 -28 10q-20 3 -20 13z" />
    <glyph glyph-name="x" unicode="x" horiz-adv-x="989" 
d="M854 754h-4q-5 0 -14 3t-14 3t-8 -1q-12 -4 -363 -4q-352 0 -355 -3q-2 -2 -2 -94v-28q0 -65 -5 -70q-5 -7 0 -9q5 -3 5 -261v-83q0 -341 3 -344q4 -4 159 -4q158 -2 162 -4q7 -3 13 1q5 3 86 3q122 0 130 -5q4 -3 11 2q6 4 79 4h32h59q46 0 50 6q4 7 4 403q0 394 4 404
q4 9 -1 15q-4 6 -4 29v7v11q0 12 -2.5 16t-11.5 4q-8 0 -13 -1zM43 -200v1000h902v-1000h-902zM249 496q0 10 100 10q101 0 104 -5q2 -4 2 -5q0 -6 -28 -11t-28 -12q0 -1 2 -9q3 -12 40.5 -58.5t44.5 -46.5q6 0 33.5 39.5t31.5 54.5q1 2 1 7q0 23 -35 28q-20 3 -20 11
q0 6 56 6q124 0 124 -7q0 -4 -34 -16q-33 -11 -49 -25q-14 -13 -53 -65t-39 -57q0 -6 37 -52l68 -88q31 -41 58 -53t27 -23q0 -6 -6 -7.5t-37 -1.5h-53q-97 2 -97 9t18 12q41 11 41 25q0 6 -44.5 64t-50.5 58q-7 0 -46.5 -52.5t-39.5 -63.5q0 -16 46 -27q22 -5 22 -15
q0 -11 -95 -11q-67 0 -81.5 1.5t-14.5 9.5q0 9 20 13q44 8 76 44q18 19 56.5 70t38.5 55q0 5 -69 86t-77 86q-10 5 -30 9t-20 13z" />
    <glyph glyph-name="y" unicode="y" 
d="M858 749h-9q-24 0 -32 4q-8 5 -19 1q-7 -3 -262 -3h-104h-356l2 -97v-31q0 -66 -4 -74q-6 -6 -1 -9t5 -331v-104v-93.5t0.5 -73.5t0.5 -52.5v-21.5v-17h137q31 1 99 1q111 0 113 -3q2 -4 11 1q4 3 54 3q8 0 27.5 -0.5t30.5 -0.5q66 -2 85 -2h10t8 0.5t5 0.5h3h17.5
t45 0.5t54.5 0.5q109 0 110 9q1 2 2.5 400.5t4.5 407.5q3 10 0 17q-5 7 -5 38v31zM43 -200v1000h897v-1000h-897zM307 518q13 1 42 1q116 0 124 -8q1 -1 1 -2q0 -9 -46 -16q-28 -4 -28 -12q0 -15 36 -124.5t59 -162.5l8 -20l13 28q13 29 39 102t35 104q10 37 10 56
q0 15 -6 20q-6 4 -33 12q-33 9 -33 14q0 3 5 6q6 3 75 3q94 0 98 -4q2 -2 2 -3q0 -5 -12.5 -10t-27.5 -10t-18 -7q-11 -8 -144 -364q-56 -150 -76 -190t-48 -54q-19 -10 -37 -10q-17 0 -28 9t-11 25q0 37 35 37q1 0 4.5 -0.5t5.5 -0.5q13 -2 33 -6h2q14 0 37 39
q14 24 28.5 62.5t14.5 52.5q0 20 -126 354l-16 44l-27 10q-26 9 -26 16t36 9z" />
    <glyph glyph-name="z" unicode="z" 
d="M855 756q-37 0 -41 3q-5 4 -16 0q-8 -3 -241 -3h-332q-129 0 -136 -1l-13 -2l2 -97v-30q0 -67 -4 -71q-6 -4 -1 -12t5 -344v-98q0 -240 3 -243q4 -4 122 -4h50h50q122 0 128 -3q9 -3 11 0t75 3q131 0 139 -5q5 -4 13 2q5 4 68 4h45l106 -2l2 13q3 10 3 385
q0 117 0.5 240.5t0.5 140.5q0 82 -2 106l-1 18h-36zM43 -200v1000h897v-1000h-897zM335 515q8 23 18 23q5 0 5 -12v-6q0 -2 -0.5 -5.5t-0.5 -4.5q0 -13 16 -17t69 -4q8 0 31 0.5t38 0.5l135 1v-12q0 -13 -32 -56.5t-129 -161.5l-110 -134l82 -1h33q58 0 69 4q17 5 36 26
t28 45q9 22 19 22t7 -12q-1 -5 -7.5 -51t-8.5 -52t-30 -7.5t-148 -1.5q-177 0 -177 6q0 10 140 175t140 179l-1 2q-8 4 -46 4q-40 0 -88 -5q-41 -5 -60 -14.5t-39 -36.5q-20 -26 -25 -26q-2 0 -2 5q0 11 12 50q16 52 26 77z" />
    <glyph glyph-name="nbsp" unicode="&#xa0;" horiz-adv-x="250" 
 />
    <glyph glyph-name="guillemotleft" unicode="&#xab;" horiz-adv-x="994" 
d="M877 738q-30 4 -33 6q-6 4 -13 -1q-8 -4 -362 -4t-357 -3q-2 -2 -2 -49v-34q0 -81 -5 -84t0 -12q5 -8 5 -104v-39q0 -58 2 -58q7 0 110 42.5t140 60.5q13 7 142 61l122 52l1 -22q2 -21 -2 -25q-6 -6 -360 -154q-29 -12 -53.5 -23t-38 -18t-12.5 -8q2 -2 112 -48.5
t221 -93t112 -46.5q16 -7 19 -11.5t3 -21.5q0 -15 -1.5 -18.5t-6.5 -1.5q-7 1 -253 106t-251 105q-4 0 -6 -84v-142q0 -195 3 -198t167 -3q163 0 171 -4q6 -4 9 1q2 3 84 3q123 0 131 -5q5 -4 13 2q5 4 65 4h91q55 0 58 4q4 6 4 392q2 389 4 392q4 8 0 13q-4 6 -4 37v31z
M43 -200v1000h907v-1000h-907zM613 484q49 21 101 43t80 33l28 12q4 0 2 -24l-1 -23l-191 -80q-206 -86 -214 -90q-34 -16 -43 -19q-21 -10 -21 -12q0 -4 56 -26q42 -17 108 -46t152 -65l153 -65l1 -24q2 -23 -1 -23t-124.5 51.5t-139.5 60.5q-4 2 -144 62l-129 55l2 20
l1 21l60 26q15 7 54 23.5t103.5 44t106.5 45.5z" />
  </font>
</defs>
</svg>
